G04 start of page 2 for group 0 idx 0 *
G04 Title: (unknown), component *
G04 Creator: pcb 20091103 *
G04 CreationDate: Mon Oct  4 16:31:00 2010 UTC *
G04 For: fosse *
G04 Format: Gerber/RS-274X *
G04 PCB-Dimensions: 440000 900000 *
G04 PCB-Coordinate-Origin: lower left *
%MOIN*%
%FSLAX25Y25*%
%LNFRONT*%
%ADD11C,0.0200*%
%ADD12C,0.0400*%
%ADD13C,0.0350*%
%ADD14C,0.0100*%
%ADD15C,0.0090*%
%ADD16C,0.0181*%
%ADD17C,0.0550*%
%ADD18C,0.0600*%
%ADD19C,0.0800*%
%ADD20C,0.2000*%
%ADD21C,0.0650*%
%ADD22C,0.0900*%
%ADD23C,0.0720*%
%ADD24C,0.0787*%
%ADD25C,0.0700*%
%ADD26C,0.0460*%
%ADD27R,0.0590X0.0590*%
%ADD28C,0.0300*%
%ADD29C,0.0280*%
%ADD30C,0.0320*%
%ADD31C,0.0790*%
%ADD32C,0.0380*%
%ADD33C,0.0510*%
%ADD34C,0.0420*%
%ADD35C,0.0395*%
%ADD36C,0.0315*%
%ADD37C,0.0472*%
%ADD38C,0.0500*%
G54D11*G36*
X431300Y888300D02*Y887300D01*
X430300D01*
Y888300D01*
X431300D01*
G37*
G36*
X432300Y887300D02*Y886300D01*
X431300D01*
Y887300D01*
X432300D01*
G37*
G36*
X137300Y815300D02*Y814300D01*
X136300D01*
Y815300D01*
X137300D01*
G37*
G36*
X138300Y814300D02*Y813300D01*
X137300D01*
Y814300D01*
X138300D01*
G37*
G36*
X137300Y19800D02*Y18800D01*
X136300D01*
Y19800D01*
X137300D01*
G37*
G36*
X138300Y18800D02*Y17800D01*
X137300D01*
Y18800D01*
X138300D01*
G37*
G36*
X426800Y28800D02*Y27800D01*
X425800D01*
Y28800D01*
X426800D01*
G37*
G36*
X427800Y27800D02*Y26800D01*
X426800D01*
Y27800D01*
X427800D01*
G37*
G36*
X185600Y604900D02*Y603900D01*
X184600D01*
Y604900D01*
X185600D01*
G37*
G36*
X186600Y603900D02*Y602900D01*
X185600D01*
Y603900D01*
X186600D01*
G37*
G54D12*X388600Y220400D02*Y195900D01*
G54D11*X411100Y210900D02*X406100Y215900D01*
X415600Y210900D02*Y170900D01*
G54D12*X388600Y195900D02*X368600Y175900D01*
Y163400D02*X378600Y153400D01*
X368600Y175900D02*Y163400D01*
G54D11*X388600Y175900D02*X406100D01*
X388600D02*Y153400D01*
X410600Y165900D02*X415600Y170900D01*
X403600Y165900D02*X410600D01*
X398600Y160900D02*X403600Y165900D01*
X398600Y160900D02*Y145900D01*
X388600Y135900D01*
X419600Y210900D02*X424600Y205900D01*
X411100Y210900D02*X419600D01*
G54D12*X392100Y223900D02*X436600D01*
G54D11*X424600Y137400D02*X408600Y153400D01*
X388600Y135900D02*Y123400D01*
X179100Y143900D02*Y126900D01*
X283600Y123400D02*X276100Y130900D01*
X259100Y175900D02*X241100Y157900D01*
X258600Y175400D02*X264600D01*
G54D12*X388600Y220400D02*X392100Y223900D01*
G54D13*X374100D02*X317600Y280400D01*
X374100Y223900D02*X392100D01*
X333073Y293900D02*X363100Y263873D01*
X270600Y280400D02*X257100Y293900D01*
X267628Y322928D02*X267600Y322900D01*
Y294400D02*X267100Y293900D01*
X267600Y342900D02*Y294400D01*
X270600Y280400D02*X317600D01*
G54D11*X255100Y268900D02*X306600D01*
G54D13*X277100Y293900D02*X333073D01*
X267628Y322928D02*X363100D01*
G54D11*X255100Y268900D02*X231100Y292900D01*
X224100Y304900D02*Y293400D01*
X217100Y295900D02*Y279900D01*
X185100Y302900D02*X210100D01*
X238100Y258900D02*X217100Y279900D01*
X185100Y302900D02*X176100Y311900D01*
X293100Y252900D02*X287100Y258900D01*
X238100D02*X287100D01*
G54D13*X160600Y241900D02*X270100D01*
G54D11*X293100Y252900D02*Y247900D01*
X313600Y261900D02*X306600Y268900D01*
G54D13*X286100Y225900D02*X270100Y241900D01*
G54D11*X277600Y220400D02*X267100Y230900D01*
X270100Y202900D02*Y180900D01*
X277600Y220400D02*Y155400D01*
X270100Y180900D02*X264600Y175400D01*
X258600Y207900D02*X265100D01*
X270100Y202900D01*
X244600Y197900D02*X224100Y218400D01*
X244600Y197900D02*X258600D01*
X187600Y218400D02*X224100D01*
X313600Y261900D02*Y132900D01*
G54D13*X286100Y225900D02*Y130900D01*
G54D11*X293100Y247400D02*Y131900D01*
X185600Y320900D02*X208100D01*
X224100Y304900D01*
G54D13*X160600Y241900D02*X148100Y254400D01*
G54D11*X217100Y295900D02*X210100Y302900D01*
X231100Y175400D02*X205600Y149900D01*
X231100Y192900D02*Y175400D01*
Y409900D02*Y292900D01*
X224600Y441900D02*Y381900D01*
X144100Y174900D02*Y164400D01*
Y174900D02*X187600Y218400D01*
X176100Y330400D02*X185600Y320900D01*
X224600Y381900D02*X215100Y372400D01*
X143600Y382400D02*X214100D01*
X143600Y372400D02*X215100D01*
X219600Y387900D02*X214100Y382400D01*
X171540Y142460D02*Y133487D01*
X186100Y133283D02*X186304Y133487D01*
X148706Y138294D02*Y133487D01*
X125871Y143671D02*X131600Y149400D01*
X125871Y143671D02*Y133487D01*
X171540Y142460D02*X156100Y157900D01*
X131600Y149400D02*X151100D01*
X185100Y149900D02*X179100Y143900D01*
X148706Y138294D02*X144100Y142900D01*
X136100Y157900D02*X156100D01*
X140635Y133487D02*Y122365D01*
X147600Y115400D01*
X166600Y120900D02*X173100D01*
X147600Y115400D02*X179100D01*
X163100Y133117D02*Y124400D01*
X166600Y120900D02*X163100Y124400D01*
Y133117D02*X163470Y133487D01*
X179100Y115400D02*X186100Y122400D01*
X179100Y126900D02*X173100Y120900D01*
X186100Y133283D02*Y122400D01*
G54D12*X337600Y71900D02*Y26900D01*
G54D11*X283600Y52900D02*X303600D01*
X313600Y62900D01*
G54D12*X322600Y74900D02*X330600Y66900D01*
Y23900D01*
X247600Y73900D02*X268600D01*
X279600Y74900D02*X322600D01*
X277600Y82900D02*X326600D01*
X337600Y71900D01*
X280100Y63400D02*X298600D01*
G54D13*Y118400D02*Y92900D01*
G54D12*X313600D01*
G54D11*X283600Y123400D02*Y92900D01*
G54D13*X298600Y118400D02*X286100Y130900D01*
G54D11*X308100Y116900D02*X348600D01*
X308100D02*X293100Y131900D01*
X221100Y157900D02*X196600Y133400D01*
X186391D02*X196600D01*
X186391D02*X186304Y133487D01*
X211100Y115400D02*X237600D01*
X221100Y157900D02*X241100D01*
X185100Y149900D02*X205600D01*
X237600Y115400D02*X277600Y155400D01*
X198600Y62900D02*X211100Y75400D01*
Y62900D02*X250100D01*
X253600Y59400D02*Y37900D01*
X195600Y62900D02*X198600D01*
X253600Y99400D02*X237600Y115400D01*
G54D12*X247600Y73900D02*X243600Y77900D01*
G54D11*X253600Y59400D02*X250100Y62900D01*
X253600Y99400D02*Y82900D01*
G54D12*X243600D02*Y77900D01*
X195600Y22900D02*X230600D01*
X195600Y35900D02*Y22900D01*
Y35900D02*X183600Y47900D01*
G54D11*X243600Y52900D02*Y22900D01*
X172600Y57900D02*X190600D01*
X195600Y62900D01*
Y100400D02*Y62900D01*
G54D12*X172600Y47900D02*X183600D01*
X346600Y17900D02*X337600Y26900D01*
X346600Y17900D02*X428600D01*
X330600Y23900D02*X336600Y17900D01*
X436600Y25900D02*X428600Y17900D01*
G54D11*X283600Y28400D02*Y22900D01*
Y28400D02*X293100Y37900D01*
X283600Y22900D02*X313600D01*
G54D12*X274600Y57900D02*Y30400D01*
Y57900D02*X280100Y63400D01*
X263600Y58900D02*X279600Y74900D01*
X268600Y73900D02*X277600Y82900D01*
X263600Y58900D02*Y52900D01*
X259600Y15400D02*X274600Y30400D01*
X238100Y15400D02*X259600D01*
X230600Y22900D02*X238100Y15400D01*
G54D11*X408600Y123400D02*Y73900D01*
X395100Y60400D01*
G54D13*X398600Y95400D02*X378600Y75400D01*
X398600Y123400D02*Y95400D01*
G54D11*X424600Y137400D02*Y95400D01*
X370100Y60400D02*X395100D01*
X370100D02*X358600Y71900D01*
Y106900D02*Y71900D01*
Y106900D02*X348600Y116900D01*
X218600Y552400D02*X256600D01*
G54D13*X282100Y560900D02*X229100Y507900D01*
G54D11*X273600Y559900D02*X259100Y545400D01*
X223600D02*X259100D01*
G54D13*X229100Y507900D02*X239100Y517900D01*
G54D11*X229100Y529400D02*Y523400D01*
X219600Y513900D01*
X223600Y545400D02*X213100Y534900D01*
G54D13*X300100Y560400D02*X312600D01*
G54D11*X206100Y539900D02*X218600Y552400D01*
X269100Y507900D02*X296100D01*
X269100Y490400D02*X299100D01*
G54D13*X307600Y517900D02*X327100Y498400D01*
G54D11*X299100Y490400D02*X312600Y503900D01*
X249100Y487900D02*Y467900D01*
G54D13*X239100Y480400D02*Y467900D01*
Y517900D02*X307600D01*
X326600Y497900D02*Y467900D01*
G54D11*X311100Y493900D02*Y470400D01*
X338100Y529400D02*X321100Y512400D01*
X336600Y490400D02*Y467900D01*
X294100Y435400D02*X326600Y467900D01*
Y449400D02*X331100Y453900D01*
X255100Y449400D02*X259100Y445400D01*
Y437900D01*
X262600Y458900D02*X270100D01*
X276600Y452400D01*
X386600Y420400D02*Y400400D01*
X381600Y395400D01*
X379100Y427900D02*X386600Y420400D01*
X396600Y401900D02*X382600Y387900D01*
X396600Y417900D02*Y401900D01*
X346600Y427900D02*X356600Y417900D01*
Y430400D02*X359100Y427900D01*
X346600Y437900D02*Y427900D01*
X356600Y437900D02*Y430400D01*
X344100Y395400D02*X381600D01*
X356600Y402900D02*X341600Y417900D01*
X356600Y387900D02*X382600D01*
X356600Y402900D02*X376600D01*
X359100Y427900D02*X379100D01*
X336600Y437900D02*X346600D01*
X331100Y453900D02*X400600D01*
X410100Y463400D01*
X249100Y387900D02*X259100Y377900D01*
G54D13*X267600Y425400D02*Y342400D01*
G54D11*X276600Y372900D02*X281600Y367900D01*
X276600Y387900D02*Y372900D01*
X344100Y395400D02*X316600Y367900D01*
X281600D02*X316600D01*
X309100Y402900D02*X336600D01*
X309100D02*X294100Y417900D01*
X326600D02*X341600D01*
X294600Y418400D02*X294100Y417900D01*
X326600Y449400D02*Y417900D01*
X294100Y435400D02*Y417900D01*
G54D13*X259100Y433900D02*X267600Y425400D01*
G54D11*X276600Y452400D02*Y417900D01*
X249100Y437900D02*Y387900D01*
X206100Y539900D02*Y413400D01*
X213100Y534900D02*Y402400D01*
X249100Y487900D02*X269100Y507900D01*
G54D13*X239100Y480400D02*X229100Y490400D01*
G54D11*X259600Y467400D02*X259100Y467900D01*
Y462400D01*
X262600Y458900D01*
X269100Y490400D02*Y467900D01*
X239100Y437900D02*Y417900D01*
X224600Y441900D02*X232100Y449400D01*
X255100D01*
G54D13*X259100Y437900D02*Y433900D01*
G54D11*X231100Y409900D02*X239100Y417900D01*
X219600Y513900D02*Y387900D01*
X354600Y490400D02*X346600Y482400D01*
X354600Y490400D02*X376600D01*
X346600Y482400D02*Y467900D01*
X410100Y494900D02*Y463400D01*
G54D13*X415600Y503900D02*X423600Y511900D01*
X430600Y542400D02*X436600D01*
G54D11*X410100Y558400D02*Y551900D01*
G54D13*X332600Y503900D02*X415600D01*
G54D12*X436600Y836900D02*Y26400D01*
X346100Y887400D02*Y832400D01*
X366100Y877400D02*Y832400D01*
X356100Y877400D02*Y832400D01*
X336100Y877400D02*Y832400D01*
X341100Y892400D02*X346100Y887400D01*
X376100Y877400D02*Y814900D01*
X416100Y877400D02*Y832400D01*
X406100Y877400D02*Y832400D01*
X396100Y877400D02*Y832400D01*
X386100Y877400D02*Y832400D01*
X423600Y849900D02*X436600Y836900D01*
G54D11*X238600Y862400D02*X253600D01*
G54D12*X248600Y857400D02*X256100Y849900D01*
G54D11*X268600Y772400D02*Y757400D01*
X253600D02*X268600D01*
X357600Y784400D02*X343600Y770400D01*
Y757400D01*
X360600Y767400D02*X356100Y762900D01*
G54D12*X326600Y773900D02*X347600Y794900D01*
G54D11*X238600Y797400D02*Y757400D01*
Y797400D02*X223600Y812400D01*
X213600Y817400D02*X208600Y812400D01*
Y797400D02*Y772400D01*
Y797400D02*X198600Y807400D01*
X238600Y822400D02*X223600Y837400D01*
Y847400D02*Y837400D01*
X213600Y847400D02*Y817400D01*
X198600Y862400D02*Y807400D01*
Y862400D02*X213600Y877400D01*
X233600D02*Y867400D01*
X238600Y862400D01*
G54D12*X223600Y864900D02*X231100Y857400D01*
X223600Y877400D02*Y864900D01*
G54D11*X268600Y847400D02*Y827400D01*
Y812400D02*X233600Y847400D01*
X238600Y812400D02*X253600D01*
X238600Y822400D02*Y812400D01*
G54D12*X251100Y892400D02*X341100D01*
G54D11*X296100Y867400D02*X298600D01*
X296100D02*X288600Y874900D01*
X278600D02*X288600D01*
X253600Y862400D02*X268600Y847400D01*
X283600Y867400D02*Y857400D01*
X298600Y842400D01*
X276100Y852400D02*X291100Y837400D01*
X276100Y872400D02*Y852400D01*
G54D12*X231100Y857400D02*X248600D01*
G54D11*X278600Y874900D02*X276100Y872400D01*
G54D12*X243600Y884900D02*Y877400D01*
Y884900D02*X251100Y892400D01*
G54D11*X268600Y827400D02*X283600D01*
G54D13*X423600Y815900D02*X416100Y823400D01*
G54D11*X268600Y812400D02*X283600D01*
G54D13*X399600Y823400D02*X416100D01*
X399600D02*X390100Y813900D01*
G54D12*X316100Y832400D02*X336100D01*
G54D11*X357600Y784400D02*X417100D01*
G54D12*X347600Y794900D02*X376100D01*
G54D13*X385100D01*
G54D11*X431100Y784400D02*X437100D01*
X396100Y767400D02*X403600Y774900D01*
G54D13*X390100Y813900D02*Y799900D01*
X385100Y794900D01*
G54D11*X360600Y767400D02*X396100D01*
G54D14*X139100Y672400D02*Y670400D01*
X136100Y671400D02*X139100Y668400D01*
X141100Y671400D02*X142100D01*
X139100Y670400D02*X138100Y671400D01*
X139100Y672400D01*
Y668400D02*Y667400D01*
X148100Y670400D02*X144100Y674400D01*
X134100Y694400D02*X151100Y677400D01*
X139100Y674400D02*X136100Y671400D01*
X139100Y674400D02*X144100D01*
X134100Y694400D02*Y660400D01*
G54D11*X220600Y747400D02*X228100D01*
X223600Y760400D02*X220600Y757400D01*
X231600Y732400D02*X236600Y727400D01*
X176100Y753400D02*X201600D01*
X206100Y748900D02*Y741400D01*
X210100Y737400D02*X206100Y741400D01*
X210100Y737400D02*X220600D01*
X168600Y745900D02*X176100Y753400D01*
X196100Y727400D02*X191100Y722400D01*
X183600Y711400D02*X191100Y703900D01*
X176100Y740900D02*Y739900D01*
X183600Y732400D01*
Y711400D01*
X176100Y722400D02*X168600Y729900D01*
Y745900D02*Y729900D01*
G54D13*X269100Y529400D02*X300100Y560400D01*
G54D11*X253600Y635400D02*Y597400D01*
X261600Y632400D02*Y590400D01*
X256600Y552400D02*X267600Y563400D01*
X253600Y597400D02*X238600Y582400D01*
X261600Y590400D02*X253600Y582400D01*
X267600Y612900D02*Y563400D01*
X273600Y607900D02*Y559900D01*
G54D13*X282100Y582400D02*Y560900D01*
G54D11*X269100Y639900D02*X282100D01*
X267600Y612900D02*X280100Y625400D01*
X294100D01*
X281600Y615900D02*X273600Y607900D01*
X269100Y639900D02*X261600Y632400D01*
X269100Y672400D02*Y654900D01*
X253600Y635400D02*X238600Y650400D01*
X289600Y692900D02*X269100Y672400D01*
Y654900D02*X274100Y649900D01*
X282100D01*
G54D14*X141100Y664400D02*X142100D01*
X139100Y661400D02*X144100D01*
X134100Y660400D02*X151100Y643400D01*
X144100Y668400D02*Y667400D01*
X148100Y670400D02*Y665400D01*
X144100Y661400D02*X148100Y665400D01*
X151100Y677400D02*Y643400D01*
X139100Y663400D02*X138100Y664400D01*
X139100Y665400D02*Y663400D01*
X136100Y664400D02*X139100Y661400D01*
Y667400D02*X136100Y664400D01*
X138100D02*X139100Y665400D01*
G54D11*X413600Y664900D02*Y592400D01*
X403600Y582400D01*
X393600Y612400D02*X403600Y622400D01*
G54D12*X430600Y651900D02*X436600D01*
G54D11*X351600Y612400D02*X393600D01*
X368600Y737400D02*X358600Y727400D01*
G54D13*X383600Y707400D02*X373600Y717400D01*
G54D11*X363600Y702400D02*X358600Y707400D01*
G54D13*X383600D02*Y694900D01*
G54D11*X363600Y702400D02*Y694900D01*
X383600Y668900D02*X372600Y679900D01*
X373600Y670400D02*X369600Y674400D01*
X413600Y697400D02*X393600Y717400D01*
Y737400D02*Y717400D01*
Y737400D02*X413600Y757400D01*
X393600Y752400D02*X378600Y737400D01*
G54D12*X298600Y717400D02*X316100D01*
G54D11*X299100Y686900D02*X282100Y669900D01*
X299100Y686900D02*X377100D01*
X306100Y674400D02*X369600D01*
X337100Y707400D02*X324100Y694400D01*
X337100Y707400D02*X358600D01*
X393600Y670400D02*X377100Y686900D01*
X335100Y730900D02*X356100Y751900D01*
X363600Y622400D02*X383600D01*
X374100Y642400D02*Y633400D01*
Y642400D02*X383600Y651900D01*
X403600Y664900D02*Y622400D01*
X383600Y668900D02*Y651900D01*
X373600Y670400D02*Y664900D01*
X393600Y670400D02*Y639900D01*
X413600Y697400D02*Y694900D01*
G54D13*X423600Y815900D02*Y511900D01*
G54D11*X403600Y582400D02*Y573900D01*
X398600Y568900D01*
X410100Y558400D02*X404600Y563900D01*
X393600Y757400D02*Y752400D01*
X358600Y727400D02*Y707400D01*
X368600Y737400D02*X378600D01*
X362100Y747400D02*X371100D01*
X362100D02*X343600Y728900D01*
Y717400D01*
X356100Y762900D02*Y751900D01*
X343600Y664900D02*Y622400D01*
X353600Y649900D02*X363600Y639900D01*
Y622400D01*
X353600Y664900D02*Y649900D01*
X343600Y604400D02*Y582400D01*
X332100Y568900D02*X327100Y573900D01*
X343600Y604400D02*X351600Y612400D01*
X343600Y622400D02*X337100Y615900D01*
X333100Y679900D02*X372600D01*
X314100Y650400D02*Y626900D01*
Y650400D02*X304600Y659900D01*
X294100Y625400D02*X304600Y635900D01*
Y647900D02*Y635900D01*
X320600Y563900D02*X404600D01*
X320600D02*X312600Y571900D01*
Y582400D02*Y571900D01*
X298600Y842400D02*Y827400D01*
Y762400D02*Y757400D01*
Y762400D02*X291100Y769900D01*
Y837400D02*Y769900D01*
X289600Y692900D02*X313100D01*
G54D12*X298600Y742400D02*Y717400D01*
G54D11*X196100Y727400D02*X268600D01*
G54D12*X298600Y742400D02*X283600Y757400D01*
X316100Y717400D02*X326600Y727900D01*
Y773900D02*Y727900D01*
G54D11*X335100Y730900D02*Y714900D01*
X313100Y692900D02*X335100Y714900D01*
X223600Y782400D02*Y760400D01*
X231600Y743900D02*Y732400D01*
X228100Y747400D02*X231600Y743900D01*
X206100Y748900D02*X201600Y753400D01*
G54D13*X326600Y497900D02*X332600Y503900D01*
X282100Y542400D02*X417100D01*
G54D11*X338100Y529400D02*X388600D01*
X313100Y602900D02*X312600Y602400D01*
X334100Y597400D02*Y578900D01*
Y597400D02*X328600Y602900D01*
X313100D02*X328600D01*
X282100Y659900D02*X304600D01*
X363600Y582400D02*Y578900D01*
X358600Y573900D01*
X339100D02*X358600D01*
X339100D02*X334100Y578900D01*
X332100Y568900D02*X398600D01*
X281600Y615900D02*X337100D01*
G54D14*X137300Y16800D02*G75*G03X139300Y18800I0J2000D01*G01*
X137300Y20800D02*G75*G03X135300Y18800I0J-2000D01*G01*
X134300D02*G75*G03X137300Y15800I3000J0D01*G01*
X140300Y18800D02*G75*G03X137300Y21800I-3000J0D01*G01*
X426800Y25800D02*G75*G03X428800Y27800I0J2000D01*G01*
X426800Y29800D02*G75*G03X424800Y27800I0J-2000D01*G01*
X423800D02*G75*G03X426800Y24800I3000J0D01*G01*
X429800Y27800D02*G75*G03X426800Y30800I-3000J0D01*G01*
X431300Y885300D02*G75*G03X433300Y887300I0J2000D01*G01*
X431300Y889300D02*G75*G03X429300Y887300I0J-2000D01*G01*
X428300D02*G75*G03X431300Y884300I3000J0D01*G01*
X434300Y887300D02*G75*G03X431300Y890300I-3000J0D01*G01*
X137300Y812300D02*G75*G03X139300Y814300I0J2000D01*G01*
X140300D02*G75*G03X137300Y817300I-3000J0D01*G01*
Y816300D02*G75*G03X135300Y814300I0J-2000D01*G01*
X134300D02*G75*G03X137300Y811300I3000J0D01*G01*
X185600Y601900D02*G75*G03X187600Y603900I0J2000D01*G01*
X185600Y605900D02*G75*G03X183600Y603900I0J-2000D01*G01*
X182600D02*G75*G03X185600Y600900I3000J0D01*G01*
X188600Y603900D02*G75*G03X185600Y606900I-3000J0D01*G01*
G54D15*X416700Y337950D02*X421100D01*
X416700Y339600D02*Y337400D01*
Y339600D02*X417250Y340150D01*
X418350D01*
X418900Y339600D02*X418350Y340150D01*
X418900Y339600D02*Y337950D01*
X419450Y342021D02*X421100D01*
X419450D02*X418900Y342571D01*
Y343671D02*Y342571D01*
Y341471D02*X419450Y342021D01*
X417800Y344992D02*X418350D01*
X419450D02*X421100D01*
X419450Y346643D02*X421100D01*
X419450D02*X418900Y347193D01*
Y347743D02*Y347193D01*
Y347743D02*X419450Y348293D01*
X421100D01*
X418900Y346093D02*X419450Y346643D01*
X416700Y350164D02*X420550D01*
X421100Y350714D01*
X418350D02*Y349614D01*
X421100Y354015D02*Y352365D01*
X420550Y351815D02*X421100Y352365D01*
X419450Y351815D02*X420550D01*
X419450D02*X418900Y352365D01*
Y353465D02*Y352365D01*
Y353465D02*X419450Y354015D01*
X420000D02*Y351815D01*
X419450Y354015D02*X420000D01*
X416700Y357536D02*X421100D01*
Y356986D02*X420550Y357536D01*
X421100Y356986D02*Y355886D01*
X420550Y355336D02*X421100Y355886D01*
X419450Y355336D02*X420550D01*
X419450D02*X418900Y355886D01*
Y356986D02*Y355886D01*
Y356986D02*X419450Y357536D01*
X421100Y363037D02*Y361387D01*
X420550Y360837D02*X421100Y361387D01*
X417250Y360837D02*X420550D01*
X417250D02*X416700Y361387D01*
Y363037D02*Y361387D01*
X417800Y364358D02*X418350D01*
X419450D02*X421100D01*
X419450Y366009D02*X421100D01*
X419450D02*X418900Y366559D01*
Y367659D02*Y366559D01*
Y365459D02*X419450Y366009D01*
X418900Y371181D02*Y369531D01*
X419450Y368981D02*X418900Y369531D01*
X419450Y368981D02*X420550D01*
X421100Y369531D01*
Y371181D02*Y369531D01*
X418900Y372502D02*X420550D01*
X421100Y373052D01*
Y374152D02*Y373052D01*
Y374152D02*X420550Y374702D01*
X418900D02*X420550D01*
X417800Y376023D02*X418350D01*
X419450D02*X421100D01*
X416700Y377674D02*X420550D01*
X421100Y378224D01*
X418350D02*Y377124D01*
X421100Y383505D02*Y381305D01*
Y383505D02*X420550Y384055D01*
X419450D02*X420550D01*
X418900Y383505D02*X419450Y384055D01*
X418900Y383505D02*Y381855D01*
X416700D02*X421100D01*
X416700Y383505D02*Y381305D01*
Y383505D02*X417250Y384055D01*
X418350D01*
X418900Y383505D02*X418350Y384055D01*
X419450Y385376D02*X420550D01*
X419450D02*X418900Y385926D01*
Y387026D02*Y385926D01*
Y387026D02*X419450Y387576D01*
X420550D01*
X421100Y387026D02*X420550Y387576D01*
X421100Y387026D02*Y385926D01*
X420550Y385376D02*X421100Y385926D01*
X418900Y390547D02*X419450Y391097D01*
X418900Y390547D02*Y389447D01*
X419450Y388897D02*X418900Y389447D01*
X419450Y388897D02*X420550D01*
X421100Y389447D01*
X418900Y391097D02*X420550D01*
X421100Y391647D01*
Y390547D02*Y389447D01*
Y390547D02*X420550Y391097D01*
X419450Y393518D02*X421100D01*
X419450D02*X418900Y394068D01*
Y395168D02*Y394068D01*
Y392968D02*X419450Y393518D01*
X416700Y398689D02*X421100D01*
Y398139D02*X420550Y398689D01*
X421100Y398139D02*Y397039D01*
X420550Y396489D02*X421100Y397039D01*
X419450Y396489D02*X420550D01*
X419450D02*X418900Y397039D01*
Y398139D02*Y397039D01*
Y398139D02*X419450Y398689D01*
X416700Y402540D02*X421100D01*
X416700Y404190D02*X417250Y404740D01*
X420550D01*
X421100Y404190D02*X420550Y404740D01*
X421100Y404190D02*Y401990D01*
X416700Y404190D02*Y401990D01*
X421100Y408262D02*Y406612D01*
X420550Y406062D02*X421100Y406612D01*
X419450Y406062D02*X420550D01*
X419450D02*X418900Y406612D01*
Y407712D02*Y406612D01*
Y407712D02*X419450Y408262D01*
X420000D02*Y406062D01*
X419450Y408262D02*X420000D01*
X421100Y411783D02*Y410133D01*
Y411783D02*X420550Y412333D01*
X420000Y411783D02*X420550Y412333D01*
X420000Y411783D02*Y410133D01*
X419450Y409583D02*X420000Y410133D01*
X419450Y409583D02*X418900Y410133D01*
Y411783D02*Y410133D01*
Y411783D02*X419450Y412333D01*
X420550Y409583D02*X421100Y410133D01*
X417800Y413654D02*X418350D01*
X419450D02*X421100D01*
X418900Y416405D02*X419450Y416955D01*
X418900Y416405D02*Y415305D01*
X419450Y414755D02*X418900Y415305D01*
X419450Y414755D02*X420550D01*
X421100Y415305D01*
Y416405D02*Y415305D01*
Y416405D02*X420550Y416955D01*
X422200Y414755D02*X422750Y415305D01*
Y416405D02*Y415305D01*
Y416405D02*X422200Y416955D01*
X418900D02*X422200D01*
X419450Y418826D02*X421100D01*
X419450D02*X418900Y419376D01*
Y419926D02*Y419376D01*
Y419926D02*X419450Y420476D01*
X421100D01*
X418900Y418276D02*X419450Y418826D01*
X418350Y424327D02*Y423777D01*
X419450Y424327D02*Y423777D01*
X418900Y429278D02*Y427628D01*
X421100Y429828D02*Y427628D01*
X416700D02*X421100D01*
X416700Y429828D02*Y427628D01*
X418900Y432799D02*Y431149D01*
X421100Y433349D02*Y431149D01*
X416700D02*X421100D01*
X416700Y433349D02*Y431149D01*
Y434670D02*X421100D01*
X416700Y436870D02*Y434670D01*
X418900Y436320D02*Y434670D01*
X411900Y339050D02*Y337400D01*
X414100Y339600D02*Y337400D01*
X409700D02*X414100D01*
X409700Y339600D02*Y337400D01*
Y340921D02*X413550D01*
X414100Y341471D01*
Y344772D02*Y343122D01*
X413550Y342572D02*X414100Y343122D01*
X412450Y342572D02*X413550D01*
X412450D02*X411900Y343122D01*
Y344222D02*Y343122D01*
Y344222D02*X412450Y344772D01*
X413000D02*Y342572D01*
X412450Y344772D02*X413000D01*
X411900Y348293D02*Y346643D01*
X412450Y346093D02*X411900Y346643D01*
X412450Y346093D02*X413550D01*
X414100Y346643D01*
Y348293D02*Y346643D01*
X409700Y350164D02*X413550D01*
X414100Y350714D01*
X411350D02*Y349614D01*
X412450Y352365D02*X414100D01*
X412450D02*X411900Y352915D01*
Y354015D02*Y352915D01*
Y351815D02*X412450Y352365D01*
Y355336D02*X413550D01*
X412450D02*X411900Y355886D01*
Y356986D02*Y355886D01*
Y356986D02*X412450Y357536D01*
X413550D01*
X414100Y356986D02*X413550Y357536D01*
X414100Y356986D02*Y355886D01*
X413550Y355336D02*X414100Y355886D01*
X412450Y359407D02*X414100D01*
X412450D02*X411900Y359957D01*
Y360507D02*Y359957D01*
Y360507D02*X412450Y361057D01*
X414100D01*
X411900Y358857D02*X412450Y359407D01*
X410800Y362378D02*X411350D01*
X412450D02*X414100D01*
X411900Y365679D02*Y364029D01*
X412450Y363479D02*X411900Y364029D01*
X412450Y363479D02*X413550D01*
X414100Y364029D01*
Y365679D02*Y364029D01*
Y369201D02*Y367551D01*
Y369201D02*X413550Y369751D01*
X413000Y369201D02*X413550Y369751D01*
X413000Y369201D02*Y367551D01*
X412450Y367001D02*X413000Y367551D01*
X412450Y367001D02*X411900Y367551D01*
Y369201D02*Y367551D01*
Y369201D02*X412450Y369751D01*
X413550Y367001D02*X414100Y367551D01*
X409700Y373602D02*X414100D01*
X409700Y375252D02*X410250Y375802D01*
X413550D01*
X414100Y375252D02*X413550Y375802D01*
X414100Y375252D02*Y373052D01*
X409700Y375252D02*Y373052D01*
X414100Y379323D02*Y377673D01*
X413550Y377123D02*X414100Y377673D01*
X412450Y377123D02*X413550D01*
X412450D02*X411900Y377673D01*
Y378773D02*Y377673D01*
Y378773D02*X412450Y379323D01*
X413000D02*Y377123D01*
X412450Y379323D02*X413000D01*
X414100Y382844D02*Y381194D01*
Y382844D02*X413550Y383394D01*
X413000Y382844D02*X413550Y383394D01*
X413000Y382844D02*Y381194D01*
X412450Y380644D02*X413000Y381194D01*
X412450Y380644D02*X411900Y381194D01*
Y382844D02*Y381194D01*
Y382844D02*X412450Y383394D01*
X413550Y380644D02*X414100Y381194D01*
X410800Y384715D02*X411350D01*
X412450D02*X414100D01*
X411900Y387466D02*X412450Y388016D01*
X411900Y387466D02*Y386366D01*
X412450Y385816D02*X411900Y386366D01*
X412450Y385816D02*X413550D01*
X414100Y386366D01*
Y387466D02*Y386366D01*
Y387466D02*X413550Y388016D01*
X415200Y385816D02*X415750Y386366D01*
Y387466D02*Y386366D01*
Y387466D02*X415200Y388016D01*
X411900D02*X415200D01*
X412450Y389887D02*X414100D01*
X412450D02*X411900Y390437D01*
Y390987D02*Y390437D01*
Y390987D02*X412450Y391537D01*
X414100D01*
X411900Y389337D02*X412450Y389887D01*
X409700Y395938D02*Y394838D01*
Y395388D02*X414100D01*
Y395938D02*Y394838D01*
X409700Y398909D02*Y397259D01*
Y398909D02*X413550D01*
X414100Y398359D02*X413550Y398909D01*
X414100Y398359D02*Y397809D01*
X413550Y397259D02*X414100Y397809D01*
X409700Y402430D02*X410250Y402980D01*
X409700Y402430D02*Y400780D01*
X410250Y400230D02*X409700Y400780D01*
X410250Y400230D02*X411350D01*
X411900Y400780D01*
Y402430D02*Y400780D01*
Y402430D02*X412450Y402980D01*
X413550D01*
X414100Y402430D02*X413550Y402980D01*
X414100Y402430D02*Y400780D01*
X413550Y400230D02*X414100Y400780D01*
X413550Y406282D02*X414100Y406832D01*
X410250Y406282D02*X411350D01*
X410250D02*X409700Y406832D01*
X412450Y406282D02*X410800Y407932D01*
X414100Y407382D02*Y406832D01*
Y407382D02*X413000Y408482D01*
X411350Y406282D02*X414100Y409032D01*
X409700Y407382D02*Y406832D01*
Y407382D02*X410250Y407932D01*
X410800D01*
X412450Y406282D02*X413550D01*
X414100Y414533D02*Y412883D01*
X413550Y412333D02*X414100Y412883D01*
X410250Y412333D02*X413550D01*
X410250D02*X409700Y412883D01*
Y414533D02*Y412883D01*
Y415854D02*X414100D01*
X409700Y418054D02*Y415854D01*
X411900Y417504D02*Y415854D01*
X409700Y421575D02*X410250Y422125D01*
X409700Y421575D02*Y419925D01*
X410250Y419375D02*X409700Y419925D01*
X410250Y419375D02*X413550D01*
X414100Y419925D01*
Y421575D02*Y419925D01*
Y421575D02*X413550Y422125D01*
X412450D02*X413550D01*
X411900Y421575D02*X412450Y422125D01*
X411900Y421575D02*Y420475D01*
X163090Y644400D02*X167050D01*
X166555D02*X167050Y644895D01*
Y645885D02*Y644895D01*
Y645885D02*X166555Y646380D01*
X165565D02*X166555D01*
X165070Y645885D02*X165565Y646380D01*
X165070Y645885D02*Y644895D01*
X165565Y644400D02*X165070Y644895D01*
Y647568D02*X166555D01*
X167050Y648063D01*
X165070Y649548D02*X168040D01*
X168535Y649053D02*X168040Y649548D01*
X168535Y649053D02*Y648063D01*
X168040Y647568D02*X168535Y648063D01*
X167050Y649053D02*Y648063D01*
Y649053D02*X166555Y649548D01*
X165070Y654004D02*X165565Y654499D01*
X165070Y654004D02*Y653014D01*
X165565Y652519D02*X165070Y653014D01*
X165565Y652519D02*X166555D01*
X167050Y653014D01*
X165070Y654499D02*X166555D01*
X167050Y654994D01*
Y654004D02*Y653014D01*
Y654004D02*X166555Y654499D01*
X165070Y659945D02*Y658460D01*
X165565Y657965D02*X165070Y658460D01*
X165565Y657965D02*X166555D01*
X167050Y658460D01*
Y659945D02*Y658460D01*
Y663114D02*Y661629D01*
X166555Y661134D02*X167050Y661629D01*
X165565Y661134D02*X166555D01*
X165565D02*X165070Y661629D01*
Y662619D02*Y661629D01*
Y662619D02*X165565Y663114D01*
X166060D02*Y661134D01*
X165565Y663114D02*X166060D01*
X164080Y664303D02*X164575D01*
X165565D02*X167050D01*
X163090Y665294D02*X166555D01*
X167050Y665789D01*
X164080Y666780D02*X164575D01*
X165565D02*X167050D01*
X165565Y668266D02*X167050D01*
X165565D02*X165070Y668761D01*
Y669256D02*Y668761D01*
Y669256D02*X165565Y669751D01*
X167050D01*
X165070Y667771D02*X165565Y668266D01*
X165070Y672425D02*X165565Y672920D01*
X165070Y672425D02*Y671435D01*
X165565Y670940D02*X165070Y671435D01*
X165565Y670940D02*X166555D01*
X167050Y671435D01*
Y672425D02*Y671435D01*
Y672425D02*X166555Y672920D01*
X168040Y670940D02*X168535Y671435D01*
Y672425D02*Y671435D01*
Y672425D02*X168040Y672920D01*
X165070D02*X168040D01*
X165070Y677871D02*Y676386D01*
X165565Y675891D02*X165070Y676386D01*
X165565Y675891D02*X166555D01*
X167050Y676386D01*
Y677871D02*Y676386D01*
X165070Y680545D02*X165565Y681040D01*
X165070Y680545D02*Y679555D01*
X165565Y679060D02*X165070Y679555D01*
X165565Y679060D02*X166555D01*
X167050Y679555D01*
X165070Y681040D02*X166555D01*
X167050Y681535D01*
Y680545D02*Y679555D01*
Y680545D02*X166555Y681040D01*
X163090Y683219D02*X166555D01*
X167050Y683714D01*
X164575D02*Y682724D01*
X172570Y645885D02*X173065Y646380D01*
X172570Y645885D02*Y644895D01*
X173065Y644400D02*X172570Y644895D01*
X173065Y644400D02*X174055D01*
X174550Y644895D01*
X172570Y646380D02*X174055D01*
X174550Y646875D01*
Y645885D02*Y644895D01*
Y645885D02*X174055Y646380D01*
X173065Y648558D02*X176035D01*
X172570Y648063D02*X173065Y648558D01*
X172570Y649053D01*
Y650043D02*Y649053D01*
Y650043D02*X173065Y650538D01*
X174055D01*
X174550Y650043D02*X174055Y650538D01*
X174550Y650043D02*Y649053D01*
X174055Y648558D02*X174550Y649053D01*
X173065Y652222D02*X176035D01*
X172570Y651727D02*X173065Y652222D01*
X172570Y652717D01*
Y653707D02*Y652717D01*
Y653707D02*X173065Y654202D01*
X174055D01*
X174550Y653707D02*X174055Y654202D01*
X174550Y653707D02*Y652717D01*
X174055Y652222D02*X174550Y652717D01*
X173065Y655886D02*X174550D01*
X173065D02*X172570Y656381D01*
Y657371D02*Y656381D01*
Y655391D02*X173065Y655886D01*
Y658560D02*X174055D01*
X173065D02*X172570Y659055D01*
Y660045D02*Y659055D01*
Y660045D02*X173065Y660540D01*
X174055D01*
X174550Y660045D02*X174055Y660540D01*
X174550Y660045D02*Y659055D01*
X174055Y658560D02*X174550Y659055D01*
X172570Y661729D02*X173560D01*
X174550Y662719D01*
X173560Y663709D01*
X172570D02*X173560D01*
X174550Y666878D02*Y665393D01*
X174055Y664898D02*X174550Y665393D01*
X173065Y664898D02*X174055D01*
X173065D02*X172570Y665393D01*
Y666383D02*Y665393D01*
Y666383D02*X173065Y666878D01*
X173560D02*Y664898D01*
X173065Y666878D02*X173560D01*
X170590Y670047D02*X174550D01*
Y669552D02*X174055Y670047D01*
X174550Y669552D02*Y668562D01*
X174055Y668067D02*X174550Y668562D01*
X173065Y668067D02*X174055D01*
X173065D02*X172570Y668562D01*
Y669552D02*Y668562D01*
Y669552D02*X173065Y670047D01*
X191580Y578900D02*X192075D01*
X193065D02*X194550D01*
Y581870D02*Y580385D01*
Y581870D02*X194055Y582365D01*
X193560Y581870D02*X194055Y582365D01*
X193560Y581870D02*Y580385D01*
X193065Y579890D02*X193560Y580385D01*
X193065Y579890D02*X192570Y580385D01*
Y581870D02*Y580385D01*
Y581870D02*X193065Y582365D01*
X194055Y579890D02*X194550Y580385D01*
X191580Y585831D02*X192075D01*
X193065D02*X195540D01*
X196035Y585336D02*X195540Y585831D01*
X192570Y586822D02*X194055D01*
X194550Y587317D01*
Y588307D02*Y587317D01*
Y588307D02*X194055Y588802D01*
X192570D02*X194055D01*
X194550Y591971D02*Y590486D01*
Y591971D02*X194055Y592466D01*
X193560Y591971D02*X194055Y592466D01*
X193560Y591971D02*Y590486D01*
X193065Y589991D02*X193560Y590486D01*
X193065Y589991D02*X192570Y590486D01*
Y591971D02*Y590486D01*
Y591971D02*X193065Y592466D01*
X194055Y589991D02*X194550Y590486D01*
X190590Y594150D02*X194055D01*
X194550Y594645D01*
X192075D02*Y593655D01*
X192570Y598903D02*X193065Y599398D01*
X192570Y598903D02*Y597913D01*
X193065Y597418D02*X192570Y597913D01*
X193065Y597418D02*X194055D01*
X194550Y597913D01*
X192570Y599398D02*X194055D01*
X194550Y599893D01*
Y598903D02*Y597913D01*
Y598903D02*X194055Y599398D01*
X191085Y603359D02*X194550D01*
X191085D02*X190590Y603854D01*
Y604349D02*Y603854D01*
X192570D02*Y602864D01*
Y605340D02*X194055D01*
X194550Y605835D01*
Y606825D02*Y605835D01*
Y606825D02*X194055Y607320D01*
X192570D02*X194055D01*
X193065Y609004D02*X194550D01*
X193065D02*X192570Y609499D01*
Y609994D02*Y609499D01*
Y609994D02*X193065Y610489D01*
X194550D01*
X192570Y608509D02*X193065Y609004D01*
X190590Y615440D02*X194550D01*
Y614945D02*X194055Y615440D01*
X194550Y614945D02*Y613955D01*
X194055Y613460D02*X194550Y613955D01*
X193065Y613460D02*X194055D01*
X193065D02*X192570Y613955D01*
Y614945D02*Y613955D01*
Y614945D02*X193065Y615440D01*
Y616629D02*X194055D01*
X193065D02*X192570Y617124D01*
Y618114D02*Y617124D01*
Y618114D02*X193065Y618609D01*
X194055D01*
X194550Y618114D02*X194055Y618609D01*
X194550Y618114D02*Y617124D01*
X194055Y616629D02*X194550Y617124D01*
X190590Y620293D02*X194055D01*
X194550Y620788D01*
X192075D02*Y619798D01*
X194550Y622274D02*Y621779D01*
X178090Y644400D02*X182050D01*
X181555D02*X182050Y644895D01*
Y645885D02*Y644895D01*
Y645885D02*X181555Y646380D01*
X180565D02*X181555D01*
X180070Y645885D02*X180565Y646380D01*
X180070Y645885D02*Y644895D01*
X180565Y644400D02*X180070Y644895D01*
X180565Y648063D02*X182050D01*
X180565D02*X180070Y648558D01*
Y649548D02*Y648558D01*
Y647568D02*X180565Y648063D01*
X179080Y650737D02*X179575D01*
X180565D02*X182050D01*
X180565Y652223D02*X182050D01*
X180565D02*X180070Y652718D01*
Y653213D02*Y652718D01*
Y653213D02*X180565Y653708D01*
X182050D01*
X180070Y651728D02*X180565Y652223D01*
X180070Y656382D02*X180565Y656877D01*
X180070Y656382D02*Y655392D01*
X180565Y654897D02*X180070Y655392D01*
X180565Y654897D02*X181555D01*
X182050Y655392D01*
Y656382D02*Y655392D01*
Y656382D02*X181555Y656877D01*
X183040Y654897D02*X183535Y655392D01*
Y656382D02*Y655392D01*
Y656382D02*X183040Y656877D01*
X180070D02*X183040D01*
X182050Y660046D02*Y658561D01*
X181555Y658066D02*X182050Y658561D01*
X180565Y658066D02*X181555D01*
X180565D02*X180070Y658561D01*
Y659551D02*Y658561D01*
Y659551D02*X180565Y660046D01*
X181060D02*Y658066D01*
X180565Y660046D02*X181060D01*
X180565Y661730D02*X182050D01*
X180565D02*X180070Y662225D01*
Y663215D02*Y662225D01*
Y661235D02*X180565Y661730D01*
Y666186D02*X181555D01*
X180565D02*X180070Y666681D01*
Y667671D02*Y666681D01*
Y667671D02*X180565Y668166D01*
X181555D01*
X182050Y667671D02*X181555Y668166D01*
X182050Y667671D02*Y666681D01*
X181555Y666186D02*X182050Y666681D01*
X178585Y669850D02*X182050D01*
X178585D02*X178090Y670345D01*
Y670840D02*Y670345D01*
X180070D02*Y669355D01*
X178585Y674108D02*X182050D01*
X178585D02*X178090Y674603D01*
Y675098D02*Y674603D01*
X180070D02*Y673613D01*
X180565Y676089D02*X181555D01*
X180565D02*X180070Y676584D01*
Y677574D02*Y676584D01*
Y677574D02*X180565Y678069D01*
X181555D01*
X182050Y677574D02*X181555Y678069D01*
X182050Y677574D02*Y676584D01*
X181555Y676089D02*X182050Y676584D01*
X180565Y679258D02*X181555D01*
X180565D02*X180070Y679753D01*
Y680743D02*Y679753D01*
Y680743D02*X180565Y681238D01*
X181555D01*
X182050Y680743D02*X181555Y681238D01*
X182050Y680743D02*Y679753D01*
X181555Y679258D02*X182050Y679753D01*
X178090Y684407D02*X182050D01*
Y683912D02*X181555Y684407D01*
X182050Y683912D02*Y682922D01*
X181555Y682427D02*X182050Y682922D01*
X180565Y682427D02*X181555D01*
X180565D02*X180070Y682922D01*
Y683912D02*Y682922D01*
Y683912D02*X180565Y684407D01*
X182050Y686091D02*Y685596D01*
X155590Y644400D02*X159550D01*
X155590Y646380D02*Y644400D01*
X157570Y645885D02*Y644400D01*
X158065Y647568D02*X159055D01*
X158065D02*X157570Y648063D01*
Y649053D02*Y648063D01*
Y649053D02*X158065Y649548D01*
X159055D01*
X159550Y649053D02*X159055Y649548D01*
X159550Y649053D02*Y648063D01*
X159055Y647568D02*X159550Y648063D01*
X158065Y651232D02*X159550D01*
X158065D02*X157570Y651727D01*
Y652717D02*Y651727D01*
Y650737D02*X158065Y651232D01*
Y656183D02*X159550D01*
X158065D02*X157570Y656678D01*
Y657668D02*Y656678D01*
Y655688D02*X158065Y656183D01*
X159550Y660837D02*Y659352D01*
X159055Y658857D02*X159550Y659352D01*
X158065Y658857D02*X159055D01*
X158065D02*X157570Y659352D01*
Y660342D02*Y659352D01*
Y660342D02*X158065Y660837D01*
X158560D02*Y658857D01*
X158065Y660837D02*X158560D01*
X158065Y662521D02*X161035D01*
X157570Y662026D02*X158065Y662521D01*
X157570Y663016D01*
Y664006D02*Y663016D01*
Y664006D02*X158065Y664501D01*
X159055D01*
X159550Y664006D02*X159055Y664501D01*
X159550Y664006D02*Y663016D01*
X159055Y662521D02*X159550Y663016D01*
X157570Y667175D02*X158065Y667670D01*
X157570Y667175D02*Y666185D01*
X158065Y665690D02*X157570Y666185D01*
X158065Y665690D02*X159055D01*
X159550Y666185D01*
X157570Y667670D02*X159055D01*
X159550Y668165D01*
Y667175D02*Y666185D01*
Y667175D02*X159055Y667670D01*
X156580Y669354D02*X157075D01*
X158065D02*X159550D01*
X158065Y670840D02*X159550D01*
X158065D02*X157570Y671335D01*
Y672325D02*Y671335D01*
Y670345D02*X158065Y670840D01*
Y675296D02*X159055D01*
X158065D02*X157570Y675791D01*
Y676781D02*Y675791D01*
Y676781D02*X158065Y677276D01*
X159055D01*
X159550Y676781D02*X159055Y677276D01*
X159550Y676781D02*Y675791D01*
X159055Y675296D02*X159550Y675791D01*
X158065Y678960D02*X159550D01*
X158065D02*X157570Y679455D01*
Y679950D02*Y679455D01*
Y679950D02*X158065Y680445D01*
X159550D01*
X157570Y678465D02*X158065Y678960D01*
X155590Y681634D02*X159055D01*
X159550Y682129D01*
X157570Y683120D02*X159055D01*
X159550Y683615D01*
X157570Y685100D02*X160540D01*
X161035Y684605D02*X160540Y685100D01*
X161035Y684605D02*Y683615D01*
X160540Y683120D02*X161035Y683615D01*
X159550Y684605D02*Y683615D01*
Y684605D02*X159055Y685100D01*
X400100Y339600D02*Y337950D01*
X399550Y337400D02*X400100Y337950D01*
X396250Y337400D02*X399550D01*
X396250D02*X395700Y337950D01*
Y339600D02*Y337950D01*
X397900Y342571D02*X398450Y343121D01*
X397900Y342571D02*Y341471D01*
X398450Y340921D02*X397900Y341471D01*
X398450Y340921D02*X399550D01*
X400100Y341471D01*
X397900Y343121D02*X399550D01*
X400100Y343671D01*
Y342571D02*Y341471D01*
Y342571D02*X399550Y343121D01*
X398450Y345542D02*X400100D01*
X398450D02*X397900Y346092D01*
Y347192D02*Y346092D01*
Y344992D02*X398450Y345542D01*
X395700Y350713D02*X400100D01*
Y350163D02*X399550Y350713D01*
X400100Y350163D02*Y349063D01*
X399550Y348513D02*X400100Y349063D01*
X398450Y348513D02*X399550D01*
X398450D02*X397900Y349063D01*
Y350163D02*Y349063D01*
Y350163D02*X398450Y350713D01*
X396800Y352034D02*X397350D01*
X398450D02*X400100D01*
X398450Y353135D02*X399550D01*
X398450D02*X397900Y353685D01*
Y354785D02*Y353685D01*
Y354785D02*X398450Y355335D01*
X399550D01*
X400100Y354785D02*X399550Y355335D01*
X400100Y354785D02*Y353685D01*
X399550Y353135D02*X400100Y353685D01*
X395700Y357206D02*X399550D01*
X400100Y357756D01*
X397350D02*Y356656D01*
X397900Y360507D02*X398450Y361057D01*
X397900Y360507D02*Y359407D01*
X398450Y358857D02*X397900Y359407D01*
X398450Y358857D02*X399550D01*
X400100Y359407D01*
X397900Y361057D02*X399550D01*
X400100Y361607D01*
Y360507D02*Y359407D01*
Y360507D02*X399550Y361057D01*
X397900Y365128D02*Y363478D01*
X398450Y362928D02*X397900Y363478D01*
X398450Y362928D02*X399550D01*
X400100Y363478D01*
Y365128D02*Y363478D01*
X395700Y366449D02*X400100D01*
X398450D02*X397900Y366999D01*
Y368099D02*Y366999D01*
Y368099D02*X398450Y368649D01*
X400100D01*
X398450Y369971D02*X399550D01*
X398450D02*X397900Y370521D01*
Y371621D02*Y370521D01*
Y371621D02*X398450Y372171D01*
X399550D01*
X400100Y371621D02*X399550Y372171D01*
X400100Y371621D02*Y370521D01*
X399550Y369971D02*X400100Y370521D01*
X398450Y374042D02*X400100D01*
X398450D02*X397900Y374592D01*
Y375142D02*Y374592D01*
Y375142D02*X398450Y375692D01*
X400100D01*
X398450D02*X397900Y376242D01*
Y376792D02*Y376242D01*
Y376792D02*X398450Y377342D01*
X400100D01*
X397900Y373492D02*X398450Y374042D01*
X400100Y380863D02*Y379213D01*
X399550Y378663D02*X400100Y379213D01*
X398450Y378663D02*X399550D01*
X398450D02*X397900Y379213D01*
Y380313D02*Y379213D01*
Y380313D02*X398450Y380863D01*
X399000D02*Y378663D01*
X398450Y380863D02*X399000D01*
X395700Y382734D02*X399550D01*
X400100Y383284D01*
X397350D02*Y382184D01*
X400100Y386585D02*Y384935D01*
X399550Y384385D02*X400100Y384935D01*
X398450Y384385D02*X399550D01*
X398450D02*X397900Y384935D01*
Y386035D02*Y384935D01*
Y386035D02*X398450Y386585D01*
X399000D02*Y384385D01*
X398450Y386585D02*X399000D01*
X398450Y388456D02*X400100D01*
X398450D02*X397900Y389006D01*
Y390106D02*Y389006D01*
Y387906D02*X398450Y388456D01*
X403090Y337895D02*X407050D01*
X403090Y339380D02*X403585Y339875D01*
X406555D01*
X407050Y339380D02*X406555Y339875D01*
X407050Y339380D02*Y337400D01*
X403090Y339380D02*Y337400D01*
X405070Y342548D02*X405565Y343043D01*
X405070Y342548D02*Y341558D01*
X405565Y341063D02*X405070Y341558D01*
X405565Y341063D02*X406555D01*
X407050Y341558D01*
X405070Y343043D02*X406555D01*
X407050Y343538D01*
Y342548D02*Y341558D01*
Y342548D02*X406555Y343043D01*
X403090Y345222D02*X406555D01*
X407050Y345717D01*
X404575D02*Y344727D01*
X407050Y348688D02*Y347203D01*
X406555Y346708D02*X407050Y347203D01*
X405565Y346708D02*X406555D01*
X405565D02*X405070Y347203D01*
Y348193D02*Y347203D01*
Y348193D02*X405565Y348688D01*
X406060D02*Y346708D01*
X405565Y348688D02*X406060D01*
X404575Y350372D02*Y349877D01*
X405565Y350372D02*Y349877D01*
X403585Y353343D02*X403090Y353838D01*
Y355323D02*Y353838D01*
Y355323D02*X403585Y355818D01*
X404575D01*
X407050Y353343D02*X404575Y355818D01*
X407050D02*Y353343D01*
X406555Y357007D02*X407050Y357502D01*
X403585Y357007D02*X406555D01*
X403585D02*X403090Y357502D01*
Y358492D02*Y357502D01*
Y358492D02*X403585Y358987D01*
X406555D01*
X407050Y358492D02*X406555Y358987D01*
X407050Y358492D02*Y357502D01*
X406060Y357007D02*X404080Y358987D01*
X407050Y361661D02*Y360671D01*
X403090Y361166D02*X407050D01*
X404080Y360176D02*X403090Y361166D01*
X406555Y362850D02*X407050Y363345D01*
X403585Y362850D02*X406555D01*
X403585D02*X403090Y363345D01*
Y364335D02*Y363345D01*
Y364335D02*X403585Y364830D01*
X406555D01*
X407050Y364335D02*X406555Y364830D01*
X407050Y364335D02*Y363345D01*
X406060Y362850D02*X404080Y364830D01*
X407050Y367999D02*Y366019D01*
X406555Y369188D02*X407050Y369683D01*
X403585Y369188D02*X406555D01*
X403585D02*X403090Y369683D01*
Y370673D02*Y369683D01*
Y370673D02*X403585Y371168D01*
X406555D01*
X407050Y370673D02*X406555Y371168D01*
X407050Y370673D02*Y369683D01*
X406060Y369188D02*X404080Y371168D01*
X405070Y372357D02*X403090Y374337D01*
X405070Y374832D02*Y372357D01*
X403090Y374337D02*X407050D01*
Y378001D02*Y376021D01*
X403585Y379190D02*X403090Y379685D01*
Y381170D02*Y379685D01*
Y381170D02*X403585Y381665D01*
X404575D01*
X407050Y379190D02*X404575Y381665D01*
X407050D02*Y379190D01*
Y382854D02*X405070Y384834D01*
X403585D02*X405070D01*
X403090Y384339D02*X403585Y384834D01*
X403090Y384339D02*Y383349D01*
X403585Y382854D02*X403090Y383349D01*
X403585Y382854D02*X404575D01*
X405070Y383349D01*
Y384834D02*Y383349D01*
G54D16*X81420Y487460D02*X99500D01*
X81420Y494240D02*X83680Y496500D01*
X97240D01*
X99500Y494240D02*X97240Y496500D01*
X99500Y494240D02*Y485200D01*
X81420Y494240D02*Y485200D01*
Y501928D02*X99500D01*
X90460D02*X81420Y510968D01*
X90460Y501928D02*X99500Y510968D01*
Y523177D02*Y518657D01*
X81420Y520917D02*X99500D01*
X85940Y516397D02*X81420Y520917D01*
X99500Y535385D02*Y530865D01*
X81420Y533125D02*X99500D01*
X85940Y528605D02*X81420Y533125D01*
X97240Y540814D02*X99500Y543074D01*
X83680Y540814D02*X97240D01*
X83680D02*X81420Y543074D01*
Y547594D02*Y543074D01*
Y547594D02*X83680Y549854D01*
X97240D01*
X99500Y547594D02*X97240Y549854D01*
X99500Y547594D02*Y543074D01*
X94980Y540814D02*X85940Y549854D01*
G54D11*G36*
X220850Y785150D02*Y779650D01*
X226350D01*
Y785150D01*
X220850D01*
G37*
G36*
X235850Y775150D02*Y769650D01*
X241350D01*
Y775150D01*
X235850D01*
G37*
G36*
X280850Y785150D02*Y779650D01*
X286350D01*
Y785150D01*
X280850D01*
G37*
G36*
X265850Y775150D02*Y769650D01*
X271350D01*
Y775150D01*
X265850D01*
G37*
G36*
X250850Y785150D02*Y779650D01*
X256350D01*
Y785150D01*
X250850D01*
G37*
G54D17*X223600Y812400D03*
X238600D03*
X283600D03*
X268600D03*
X253600D03*
G54D11*G36*
X210600Y850400D02*Y844400D01*
X216600D01*
Y850400D01*
X210600D01*
G37*
G54D18*X213600Y877400D03*
G54D19*X171100Y852400D03*
G54D20*X147100Y842400D03*
G54D19*X171100Y862400D03*
G54D20*X147100Y882400D03*
G54D18*X223600Y847400D03*
X233600D03*
X243600D03*
Y877400D03*
X233600D03*
X223600D03*
G54D11*G36*
X204600Y776400D02*Y768400D01*
X212600D01*
Y776400D01*
X204600D01*
G37*
G54D19*X208600Y812400D03*
G54D11*G36*
X250850Y720150D02*Y714650D01*
X256350D01*
Y720150D01*
X250850D01*
G37*
G36*
X313350D02*Y714650D01*
X318850D01*
Y720150D01*
X313350D01*
G37*
G36*
X280850D02*Y714650D01*
X286350D01*
Y720150D01*
X280850D01*
G37*
G54D17*X253600Y757400D03*
X316100D03*
X283600D03*
X268600D03*
G54D11*G36*
X295350Y720650D02*Y714150D01*
X301850D01*
Y720650D01*
X295350D01*
G37*
G54D21*X298600Y757400D03*
G54D11*G36*
X265850Y730150D02*Y724650D01*
X271350D01*
Y730150D01*
X265850D01*
G37*
G36*
X295850Y830150D02*Y824650D01*
X301350D01*
Y830150D01*
X295850D01*
G37*
G36*
X312600Y835400D02*Y829400D01*
X318600D01*
Y835400D01*
X312600D01*
G37*
G36*
X280850Y830150D02*Y824650D01*
X286350D01*
Y830150D01*
X280850D01*
G37*
G36*
X265600Y830400D02*Y824400D01*
X271600D01*
Y830400D01*
X265600D01*
G37*
G54D17*X298600Y867400D03*
X283600D03*
G54D11*G36*
X217600Y740400D02*Y734400D01*
X223600D01*
Y740400D01*
X217600D01*
G37*
G54D18*X220600Y747400D03*
Y757400D03*
G54D11*G36*
X235850Y720150D02*Y714650D01*
X241350D01*
Y720150D01*
X235850D01*
G37*
G54D17*X238600Y757400D03*
G54D22*X126100Y712400D03*
Y732400D03*
G54D11*G36*
X171600Y726900D02*Y717900D01*
X180600D01*
Y726900D01*
X171600D01*
G37*
G54D22*X176100Y703900D03*
Y740900D03*
X191100Y703900D03*
Y722400D03*
Y740900D03*
G54D11*G36*
X310850Y95650D02*Y90150D01*
X316350D01*
Y95650D01*
X310850D01*
G37*
G36*
Y65650D02*Y60150D01*
X316350D01*
Y65650D01*
X310850D01*
G37*
G54D17*X313600Y22900D03*
G54D18*X243600Y52900D03*
Y82900D03*
G54D17*Y22900D03*
G54D18*X253600Y52900D03*
X263600D03*
Y82900D03*
X253600D03*
G54D17*X253100Y37900D03*
G54D11*G36*
X280850Y95650D02*Y90150D01*
X286350D01*
Y95650D01*
X280850D01*
G37*
G54D17*X283600Y52900D03*
G54D11*G36*
X290350Y40650D02*Y35150D01*
X295850D01*
Y40650D01*
X290350D01*
G37*
G36*
X280850Y25650D02*Y20150D01*
X286350D01*
Y25650D01*
X280850D01*
G37*
G36*
X295850Y95650D02*Y90150D01*
X301350D01*
Y95650D01*
X295850D01*
G37*
G54D17*X298600Y52900D03*
G54D11*G36*
X192850Y25650D02*Y20150D01*
X198350D01*
Y25650D01*
X192850D01*
G37*
G36*
X208350D02*Y20150D01*
X213850D01*
Y25650D01*
X208350D01*
G37*
G54D19*X171100Y47900D03*
G54D20*X147100Y37900D03*
G54D19*X171100Y57900D03*
G54D20*X147100Y77900D03*
G54D17*X195600Y62900D03*
X211100D03*
G54D11*G36*
X192600Y103400D02*Y97400D01*
X198600D01*
Y103400D01*
X192600D01*
G37*
G36*
X230600Y55900D02*Y49900D01*
X236600D01*
Y55900D01*
X230600D01*
G37*
G54D18*X233600Y82900D03*
G54D11*G36*
X208350Y78150D02*Y72650D01*
X213850D01*
Y78150D01*
X208350D01*
G37*
G36*
X228350Y160650D02*Y155150D01*
X233850D01*
Y160650D01*
X228350D01*
G37*
G36*
Y195650D02*Y190150D01*
X233850D01*
Y195650D01*
X228350D01*
G37*
G36*
X255350Y178650D02*Y172150D01*
X261850D01*
Y178650D01*
X255350D01*
G37*
G36*
X273100Y133900D02*Y127900D01*
X279100D01*
Y133900D01*
X273100D01*
G37*
G36*
X255000Y221500D02*Y214300D01*
X262200D01*
Y221500D01*
X255000D01*
G37*
G54D23*X258600Y207900D03*
Y197900D03*
G54D11*G36*
X421850Y178650D02*Y173150D01*
X427350D01*
Y178650D01*
X421850D01*
G37*
G36*
X385850D02*Y173150D01*
X391350D01*
Y178650D01*
X385850D01*
G37*
G36*
X403350D02*Y173150D01*
X408850D01*
Y178650D01*
X403350D01*
G37*
G36*
X365600Y178900D02*Y172900D01*
X371600D01*
Y178900D01*
X365600D01*
G37*
G54D18*X368600Y185900D03*
G54D17*X424600Y205900D03*
X388600Y215900D03*
X406100D03*
G54D11*G36*
X359163Y267810D02*Y259936D01*
X367037D01*
Y267810D01*
X359163D01*
G37*
G54D17*X313600Y132900D03*
G54D11*G36*
X355600Y109900D02*Y103900D01*
X361600D01*
Y109900D01*
X355600D01*
G37*
G36*
X375600Y126400D02*Y120400D01*
X381600D01*
Y126400D01*
X375600D01*
G37*
G54D18*X388600Y123400D03*
X398600D03*
G54D11*G36*
X375509Y49376D02*Y41502D01*
X383383D01*
Y49376D01*
X375509D01*
G37*
G54D24*X379053Y75361D03*
G54D18*X408600Y123400D03*
G54D11*G36*
X421850Y68150D02*Y62650D01*
X427350D01*
Y68150D01*
X421850D01*
G37*
G54D17*X424600Y95400D03*
G54D18*X408600Y153400D03*
X398600D03*
X388600D03*
X378600D03*
G54D17*X191100Y157900D03*
Y192900D03*
G54D11*G36*
X200850Y178150D02*Y172650D01*
X206350D01*
Y178150D01*
X200850D01*
G37*
G54D21*X218600Y175400D03*
G54D17*X163600D03*
G54D11*G36*
X173350Y160650D02*Y155150D01*
X178850D01*
Y160650D01*
X173350D01*
G37*
G54D17*X136100Y157900D03*
X211100Y115400D03*
G54D11*G36*
X234600Y118400D02*Y112400D01*
X240600D01*
Y118400D01*
X234600D01*
G37*
G54D18*X373600Y664900D03*
X383600D03*
X393600D03*
X403600D03*
G54D11*G36*
X340600Y667900D02*Y661900D01*
X346600D01*
Y667900D01*
X340600D01*
G37*
G54D18*X353600Y664900D03*
X363600D03*
X413600D03*
G54D11*G36*
X390600Y642900D02*Y636900D01*
X396600D01*
Y642900D01*
X390600D01*
G37*
G36*
X278850Y643150D02*Y636650D01*
X285350D01*
Y643150D01*
X278850D01*
G37*
G54D21*X282100Y649900D03*
Y659900D03*
Y669900D03*
G54D11*G36*
X235600Y643400D02*Y637400D01*
X241600D01*
Y643400D01*
X235600D01*
G37*
G54D18*X238600Y650400D03*
Y660400D03*
Y670400D03*
G54D17*Y622400D03*
X253600D03*
X343600D03*
G54D11*G36*
X325600Y632900D02*Y626900D01*
X331600D01*
Y632900D01*
X325600D01*
G37*
G54D18*X328600Y639900D03*
G54D11*G36*
X340850Y585150D02*Y579650D01*
X346350D01*
Y585150D01*
X340850D01*
G37*
G36*
X360850D02*Y579650D01*
X366350D01*
Y585150D01*
X360850D01*
G37*
G36*
X360600Y642900D02*Y636900D01*
X366600D01*
Y642900D01*
X360600D01*
G37*
G54D17*X363600Y622400D03*
G54D11*G36*
X380850Y585150D02*Y579650D01*
X386350D01*
Y585150D01*
X380850D01*
G37*
G54D17*X383600Y622400D03*
G54D11*G36*
X400850Y585150D02*Y579650D01*
X406350D01*
Y585150D01*
X400850D01*
G37*
G54D17*X403600Y622400D03*
G54D11*G36*
X309000Y606000D02*Y598800D01*
X316200D01*
Y606000D01*
X309000D01*
G37*
G54D23*X312600Y592400D03*
Y582400D03*
G54D11*G36*
X278850Y585650D02*Y579150D01*
X285350D01*
Y585650D01*
X278850D01*
G37*
G54D21*X282100Y592400D03*
Y602400D03*
G54D11*G36*
X235850Y585150D02*Y579650D01*
X241350D01*
Y585150D01*
X235850D01*
G37*
G36*
X226350Y532150D02*Y526650D01*
X231850D01*
Y532150D01*
X226350D01*
G37*
G36*
X250850Y585150D02*Y579650D01*
X256350D01*
Y585150D01*
X250850D01*
G37*
G36*
X284100Y533900D02*Y524900D01*
X293100D01*
Y533900D01*
X284100D01*
G37*
G54D17*X269100Y529400D03*
X296100Y507900D03*
G54D11*G36*
X309600Y553400D02*Y547400D01*
X315600D01*
Y553400D01*
X309600D01*
G37*
G54D18*X312600Y560400D03*
X413600Y694900D03*
G54D11*G36*
X410850Y720150D02*Y714650D01*
X416350D01*
Y720150D01*
X410850D01*
G37*
G54D17*X413600Y757400D03*
G54D18*X403600Y694900D03*
G54D11*G36*
X370600Y720400D02*Y714400D01*
X376600D01*
Y720400D01*
X370600D01*
G37*
G54D18*X373600Y727400D03*
G54D11*G36*
X368100Y750400D02*Y744400D01*
X374100D01*
Y750400D01*
X368100D01*
G37*
G36*
X390850Y720150D02*Y714650D01*
X396350D01*
Y720150D01*
X390850D01*
G37*
G54D18*X393600Y694900D03*
X383600D03*
X373600D03*
X363600D03*
X353600D03*
X343600D03*
G54D17*X393600Y757400D03*
G54D11*G36*
X400600Y777900D02*Y771900D01*
X406600D01*
Y777900D01*
X400600D01*
G37*
G36*
X344600Y797900D02*Y791900D01*
X350600D01*
Y797900D01*
X344600D01*
G37*
G54D18*X347600Y804900D03*
G54D11*G36*
X340850Y720150D02*Y714650D01*
X346350D01*
Y720150D01*
X340850D01*
G37*
G54D17*X343600Y757400D03*
G54D11*G36*
X372500Y818500D02*Y811300D01*
X379700D01*
Y818500D01*
X372500D01*
G37*
G54D23*X376100Y804900D03*
Y794900D03*
G54D18*X371100Y757400D03*
Y767400D03*
G54D11*G36*
X333100Y880400D02*Y874400D01*
X339100D01*
Y880400D01*
X333100D01*
G37*
G54D18*X346100Y877400D03*
X356100D03*
X366100D03*
X376100D03*
X386100D03*
X396100D03*
X406100D03*
X416100D03*
G54D11*G36*
X333100Y835400D02*Y829400D01*
X339100D01*
Y835400D01*
X333100D01*
G37*
G54D18*X346100Y832400D03*
X356100D03*
X366100D03*
X376100D03*
X386100D03*
X396100D03*
X406100D03*
X416100D03*
G54D11*G36*
X353850Y420650D02*Y415150D01*
X359350D01*
Y420650D01*
X353850D01*
G37*
G54D24*X363100Y322928D03*
G54D17*X356600Y387900D03*
G54D11*G36*
X307600Y355900D02*Y349900D01*
X313600D01*
Y355900D01*
X307600D01*
G37*
G36*
X291350Y380650D02*Y375150D01*
X296850D01*
Y380650D01*
X291350D01*
G37*
G54D17*X294100Y417900D03*
G54D11*G36*
X293350Y470650D02*Y465150D01*
X298850D01*
Y470650D01*
X293350D01*
G37*
G36*
X313850Y390650D02*Y385150D01*
X319350D01*
Y390650D01*
X313850D01*
G37*
G36*
X323600Y420900D02*Y414900D01*
X329600D01*
Y420900D01*
X323600D01*
G37*
G36*
X333850Y405650D02*Y400150D01*
X339350D01*
Y405650D01*
X333850D01*
G37*
G36*
X266350Y493150D02*Y487650D01*
X271850D01*
Y493150D01*
X266350D01*
G37*
G54D18*X269100Y467900D03*
X259100D03*
X249100D03*
G54D11*G36*
X266350Y510650D02*Y505150D01*
X271850D01*
Y510650D01*
X266350D01*
G37*
G54D17*X229100Y490400D03*
Y507900D03*
G54D11*G36*
X236100Y440900D02*Y434900D01*
X242100D01*
Y440900D01*
X236100D01*
G37*
G54D18*X239100Y467900D03*
G54D11*G36*
X236350Y380650D02*Y375150D01*
X241850D01*
Y380650D01*
X236350D01*
G37*
G54D17*X239100Y417900D03*
G54D18*X249100Y437900D03*
X259100D03*
X269100D03*
G54D17*X396600Y417900D03*
G54D22*X388600Y529400D03*
G54D17*X376600Y402900D03*
Y490400D03*
G54D11*G36*
X323600Y440900D02*Y434900D01*
X329600D01*
Y440900D01*
X323600D01*
G37*
G54D18*X336600Y437900D03*
X346600D03*
X356600D03*
X366600D03*
X376600D03*
X386600D03*
X396600D03*
Y467900D03*
X386600D03*
X376600D03*
X366600D03*
X356600D03*
X346600D03*
X336600D03*
X326600D03*
G54D11*G36*
X333850Y493150D02*Y487650D01*
X339350D01*
Y493150D01*
X333850D01*
G37*
G36*
X254100Y296900D02*Y290900D01*
X260100D01*
Y296900D01*
X254100D01*
G37*
G36*
X256350Y380650D02*Y375150D01*
X261850D01*
Y380650D01*
X256350D01*
G37*
G54D17*X259100Y417900D03*
G54D18*X267100Y293900D03*
X277100D03*
G54D11*G36*
X273850Y390650D02*Y385150D01*
X279350D01*
Y390650D01*
X273850D01*
G37*
G54D17*X276600Y417900D03*
G54D11*G36*
X140100Y385900D02*Y378900D01*
X147100D01*
Y385900D01*
X140100D01*
G37*
G54D25*X143600Y372400D03*
G54D22*X126600Y301900D03*
Y321900D03*
G54D11*G36*
X172100Y316400D02*Y307400D01*
X181100D01*
Y316400D01*
X172100D01*
G37*
G54D22*X191600Y311900D03*
X176600Y293400D03*
X191600D03*
X176600Y330400D03*
X191600D03*
G54D18*X298600Y63400D03*
G54D26*X144100Y164400D03*
Y142900D03*
X151100Y149400D03*
G54D18*X335600Y17900D03*
G54D26*X224100Y218400D03*
Y293400D03*
G54D18*X148100Y254400D03*
G54D26*X213100Y402400D03*
X206100Y413400D03*
X267100Y230900D03*
X431100Y784400D03*
X417100D03*
G54D18*X375600Y849900D03*
X256100D03*
X423600D03*
X346100Y842900D03*
X365600Y859900D03*
X430100Y651900D03*
Y542400D03*
X417100D03*
G54D26*X410100Y551900D03*
X374100Y633400D03*
X311100Y493900D03*
X312600Y503900D03*
X321100Y512400D03*
X304600Y647900D03*
X333100Y679900D03*
X314100Y626900D03*
X327100Y573900D03*
X306100Y674400D03*
X324100Y694400D03*
X410100Y494900D03*
X311100Y470400D03*
G54D27*X147721Y133487D02*X148706D01*
X162485D02*X163470D01*
X170555D02*X171540D01*
X185319D02*X186304D01*
X124886D02*X125871D01*
X139650D02*X140635D01*
G54D28*G54D29*G54D30*G54D31*G54D30*G54D31*G54D29*G54D28*G54D32*G54D28*G54D32*G54D28*G54D32*G54D28*G54D33*G54D28*G54D29*G54D28*G54D29*G54D28*G54D30*G54D31*G54D30*G54D31*G54D28*G54D32*G54D29*G54D28*G54D32*G54D34*G54D28*G54D35*G54D28*G54D32*G54D29*G54D36*G54D29*G54D28*G54D29*G54D28*G54D37*G54D28*G54D32*G54D29*G54D32*G54D28*G54D32*G54D28*G54D34*G54D32*G54D28*G54D38*G54D28*G54D29*G54D28*G54D29*G54D28*G54D32*G54D28*G54D29*G54D28*G54D32*G54D28*G54D34*G54D32*G54D28*G54D35*G54D28*G54D32*G54D28*G54D32*G54D28*G54D29*G54D28*G54D29*G54D28*G54D29*G54D28*G54D38*G54D28*G54D29*G54D28*G54D32*G54D28*G54D32*G54D28*G54D29*G54D33*G54D13*G54D11*G54D13*G54D11*G54D13*G54D11*G54D13*G54D11*M02*
