M48
INCH
T11C0.020
T12C0.040
T13C0.035
T28C0.030
T29C0.028
T30C0.032
T31C0.079
T32C0.038
T33C0.051
T34C0.042
T38C0.050
T50C0.047
%
T11
X014410Y016440
X014410Y014290
X015110Y014940
X022410Y021840
X022410Y029340
X021310Y040240
X020610Y041340
X026710Y023090
X043110Y078440
X041710Y078440
X041010Y055190
X037410Y063340
X031110Y049390
X031260Y050390
X032110Y051240
X030460Y064790
X033310Y067990
X031410Y062690
X032710Y057390
X030610Y067440
X032410Y069440
X041010Y049490
X031110Y047040
T29
X021360Y084740
X021360Y087740
X022360Y084740
X023360Y084740
X024360Y084740
X024360Y087740
X023360Y087740
X022360Y087740
X024360Y005290
X024360Y008290
X025360Y005290
X026360Y005290
X026360Y008290
X025360Y008290
X023360Y005290
X023360Y008290
X037860Y012340
X038860Y012340
X039860Y012340
X040860Y012340
X040860Y015340
X039860Y015340
X038860Y015340
X037860Y015340
X037360Y066490
X038360Y066490
X039360Y066490
X040360Y066490
X034360Y066490
X035360Y066490
X036360Y066490
X041360Y066490
X041360Y069490
X040360Y069490
X039360Y069490
X038360Y069490
X037360Y069490
X036360Y069490
X035360Y069490
X034360Y069490
X026910Y046790
X025910Y046790
X024910Y046790
X023910Y043790
X023910Y046790
X024910Y043790
X025910Y043790
X026910Y043790
X032660Y043790
X033660Y043790
X034660Y043790
X035660Y043790
X036660Y043790
X037660Y043790
X038660Y043790
X039660Y043790
X039660Y046790
X038660Y046790
X037660Y046790
X036660Y046790
X035660Y046790
X034660Y046790
X033660Y046790
X032660Y046790
X014360Y038240
X014360Y037240
T28
X022360Y078240
X023860Y077240
X028360Y078240
X026860Y077240
X025360Y078240
X022360Y081240
X023860Y081240
X028360Y081240
X026860Y081240
X025360Y081240
X020860Y077240
X020860Y081240
X025360Y071740
X031610Y071740
X028360Y071740
X025360Y075740
X031610Y075740
X028360Y075740
X026860Y075740
X029860Y071740
X029860Y075740
X026860Y072740
X029860Y082740
X028360Y082740
X029860Y086740
X028360Y086740
X023860Y071740
X023860Y075740
X031360Y009290
X031360Y006290
X031360Y002290
X024360Y002290
X025310Y003790
X028360Y009290
X028360Y005290
X029310Y003790
X028360Y002290
X029860Y009290
X029860Y005290
X019560Y002290
X021110Y002290
X019560Y006290
X021110Y006290
X021110Y007540
X023110Y015790
X023110Y019290
X025860Y017540
X042460Y017590
X038860Y017590
X040610Y017590
X036860Y017590
X036860Y018590
X042460Y020590
X038860Y021590
X040610Y021590
X031360Y013290
X042460Y006540
X042460Y009540
X019110Y015790
X019110Y019290
X020360Y017540
X021860Y017540
X016360Y017540
X017610Y015790
X013610Y015790
X021110Y011540
X023860Y062240
X025360Y062240
X034360Y062240
X032860Y062990
X032860Y063990
X034360Y058240
X036360Y058240
X036360Y062240
X038360Y058240
X038360Y062240
X040360Y058240
X040360Y062240
X023860Y058240
X022910Y052940
X025360Y058240
X026910Y052940
X029610Y050790
X031260Y055040
X031260Y056040
X041360Y071740
X041360Y075740
X037360Y071740
X037360Y072740
X039360Y071740
X039360Y075740
X034760Y079490
X034760Y080490
X034360Y071740
X034360Y075740
X035660Y041790
X035660Y038790
X029410Y037790
X029410Y041790
X029610Y046790
X031660Y038790
X033660Y040290
X026910Y049040
X026910Y050790
X022910Y049040
X022910Y050790
X023910Y037790
X023910Y041790
X039660Y041790
X037660Y040290
X037660Y049040
X033660Y049040
X025910Y037790
X025910Y041790
X027660Y038790
X027660Y041790
T30
X017110Y085240
X017110Y086240
X017110Y004790
X017110Y005790
X037944Y004543
X037905Y007536
T13
X029860Y006340
X033560Y001790
X014810Y025440
X037560Y084990
X025610Y084990
X042360Y084990
X034610Y084290
X036560Y085990
X043010Y065190
X043010Y054240
X041710Y054240
T32
X031560Y083240
X026860Y082740
X022060Y073740
X022060Y074740
X022060Y075740
X019560Y010040
X027610Y013090
X035860Y010690
X023760Y011540
X039360Y063990
X028210Y063990
X028210Y064990
X028210Y065990
X028210Y066990
X023860Y064040
X023860Y065040
X023860Y066040
X023860Y067040
X036360Y063990
X028210Y058240
X028210Y059240
X028210Y060240
X037110Y074740
X040360Y077490
X037110Y075740
X037110Y076740
X033610Y087740
X034610Y087740
X035610Y087740
X036610Y087740
X037610Y087740
X038610Y087740
X039610Y087740
X040610Y087740
X041610Y087740
X033610Y083240
X034610Y083240
X035610Y083240
X036610Y083240
X037610Y083240
X038610Y083240
X039610Y083240
X040610Y083240
X041610Y083240
X031060Y035290
X032660Y041790
X025710Y029390
X026710Y029390
X027710Y029390
T12
X036310Y026387
X036310Y032292
T34
X025860Y021790
X025860Y020790
X025860Y019790
X031260Y060240
X031260Y059240
X031260Y058240
X037610Y081490
X037610Y080490
X037610Y079490
T50
X012331Y012325
X018788Y014372
T38
X028860Y052940
X038860Y052940
T33
X012610Y071240
X012610Y073240
X017610Y072240
X017610Y070390
X017610Y074090
X019110Y070390
X019110Y072240
X019110Y074090
X012660Y030190
X012660Y032190
X017660Y031190
X019160Y031190
X017660Y029340
X019160Y029340
X017660Y033040
X019160Y033040
T31
X014710Y084240
X014710Y088240
X014710Y003790
X014710Y007790
M30
