G04 start of page 4 for group 2 idx 2 *
G04 Title: (unknown), outline *
G04 Creator: pcb 20091103 *
G04 CreationDate: Mon Oct  4 16:31:00 2010 UTC *
G04 For: fosse *
G04 Format: Gerber/RS-274X *
G04 PCB-Dimensions: 440000 900000 *
G04 PCB-Coordinate-Origin: lower left *
%MOIN*%
%FSLAX25Y25*%
%LNOUTLINE*%
%ADD11C,0.0200*%
%ADD15C,0.0090*%
%ADD16C,0.0181*%
G54D11*G36*
X253600Y769400D02*X260700D01*
Y669400D01*
X253600D01*
Y713150D01*
X256350D01*
X256610Y713173D01*
X256863Y713240D01*
X257100Y713351D01*
X257314Y713501D01*
X257499Y713686D01*
X257649Y713900D01*
X257760Y714137D01*
X257827Y714390D01*
X257850Y714650D01*
Y720150D01*
X257827Y720410D01*
X257760Y720663D01*
X257649Y720900D01*
X257499Y721114D01*
X257314Y721299D01*
X257100Y721449D01*
X256863Y721560D01*
X256610Y721627D01*
X256350Y721650D01*
X253600D01*
Y753150D01*
X254338Y753215D01*
X255054Y753406D01*
X255725Y753719D01*
X256332Y754144D01*
X256856Y754668D01*
X257281Y755275D01*
X257594Y755946D01*
X257785Y756662D01*
X257850Y757400D01*
X257785Y758138D01*
X257594Y758854D01*
X257281Y759525D01*
X256856Y760132D01*
X256332Y760656D01*
X255725Y761081D01*
X255054Y761394D01*
X254338Y761585D01*
X253600Y761650D01*
Y769400D01*
G37*
G36*
X238600Y768150D02*X241350D01*
X241610Y768173D01*
X241863Y768240D01*
X242100Y768351D01*
X242314Y768501D01*
X242499Y768686D01*
X242649Y768900D01*
X242760Y769137D01*
X242827Y769390D01*
X242828Y769400D01*
X253600D01*
Y761650D01*
X252862Y761585D01*
X252146Y761394D01*
X251475Y761081D01*
X250868Y760656D01*
X250344Y760132D01*
X249919Y759525D01*
X249606Y758854D01*
X249415Y758138D01*
X249350Y757400D01*
X249415Y756662D01*
X249606Y755946D01*
X249919Y755275D01*
X250344Y754668D01*
X250868Y754144D01*
X251475Y753719D01*
X252146Y753406D01*
X252862Y753215D01*
X253600Y753150D01*
Y721650D01*
X250850D01*
X250590Y721627D01*
X250337Y721560D01*
X250100Y721449D01*
X249886Y721299D01*
X249701Y721114D01*
X249551Y720900D01*
X249440Y720663D01*
X249373Y720410D01*
X249350Y720150D01*
Y714650D01*
X249373Y714390D01*
X249440Y714137D01*
X249551Y713900D01*
X249701Y713686D01*
X249886Y713501D01*
X250100Y713351D01*
X250337Y713240D01*
X250590Y713173D01*
X250850Y713150D01*
X253600D01*
Y669400D01*
X242973D01*
X243032Y669619D01*
X243100Y670400D01*
X243032Y671181D01*
X242829Y671939D01*
X242497Y672650D01*
X242047Y673293D01*
X241493Y673847D01*
X240850Y674297D01*
X240139Y674629D01*
X239381Y674832D01*
X238600Y674900D01*
Y713150D01*
X241350D01*
X241610Y713173D01*
X241863Y713240D01*
X242100Y713351D01*
X242314Y713501D01*
X242499Y713686D01*
X242649Y713900D01*
X242760Y714137D01*
X242827Y714390D01*
X242850Y714650D01*
Y720150D01*
X242827Y720410D01*
X242760Y720663D01*
X242649Y720900D01*
X242499Y721114D01*
X242314Y721299D01*
X242100Y721449D01*
X241863Y721560D01*
X241610Y721627D01*
X241350Y721650D01*
X238600D01*
Y753150D01*
X239338Y753215D01*
X240054Y753406D01*
X240725Y753719D01*
X241332Y754144D01*
X241856Y754668D01*
X242281Y755275D01*
X242594Y755946D01*
X242785Y756662D01*
X242850Y757400D01*
X242785Y758138D01*
X242594Y758854D01*
X242281Y759525D01*
X241856Y760132D01*
X241332Y760656D01*
X240725Y761081D01*
X240054Y761394D01*
X239338Y761585D01*
X238600Y761650D01*
Y768150D01*
G37*
G36*
X220600Y769400D02*X234372D01*
X234373Y769390D01*
X234440Y769137D01*
X234551Y768900D01*
X234701Y768686D01*
X234886Y768501D01*
X235100Y768351D01*
X235337Y768240D01*
X235590Y768173D01*
X235850Y768150D01*
X238600D01*
Y761650D01*
X237862Y761585D01*
X237146Y761394D01*
X236475Y761081D01*
X235868Y760656D01*
X235344Y760132D01*
X234919Y759525D01*
X234606Y758854D01*
X234415Y758138D01*
X234350Y757400D01*
X234415Y756662D01*
X234606Y755946D01*
X234919Y755275D01*
X235344Y754668D01*
X235868Y754144D01*
X236475Y753719D01*
X237146Y753406D01*
X237862Y753215D01*
X238600Y753150D01*
Y721650D01*
X235850D01*
X235590Y721627D01*
X235337Y721560D01*
X235100Y721449D01*
X234886Y721299D01*
X234701Y721114D01*
X234551Y720900D01*
X234440Y720663D01*
X234373Y720410D01*
X234350Y720150D01*
Y714650D01*
X234373Y714390D01*
X234440Y714137D01*
X234551Y713900D01*
X234701Y713686D01*
X234886Y713501D01*
X235100Y713351D01*
X235337Y713240D01*
X235590Y713173D01*
X235850Y713150D01*
X238600D01*
Y674900D01*
X237819Y674832D01*
X237061Y674629D01*
X236350Y674297D01*
X235707Y673847D01*
X235153Y673293D01*
X234703Y672650D01*
X234371Y671939D01*
X234168Y671181D01*
X234100Y670400D01*
X234168Y669619D01*
X234227Y669400D01*
X220600D01*
Y732900D01*
X223600D01*
X223860Y732923D01*
X224113Y732990D01*
X224350Y733101D01*
X224564Y733251D01*
X224749Y733436D01*
X224899Y733650D01*
X225010Y733887D01*
X225077Y734140D01*
X225100Y734400D01*
Y740400D01*
X225077Y740660D01*
X225010Y740913D01*
X224899Y741150D01*
X224749Y741364D01*
X224564Y741549D01*
X224350Y741699D01*
X224113Y741810D01*
X223860Y741877D01*
X223600Y741900D01*
X220600D01*
Y742900D01*
X221381Y742968D01*
X222139Y743171D01*
X222850Y743503D01*
X223493Y743953D01*
X224047Y744507D01*
X224497Y745150D01*
X224829Y745861D01*
X225032Y746619D01*
X225100Y747400D01*
X225032Y748181D01*
X224829Y748939D01*
X224497Y749650D01*
X224047Y750293D01*
X223493Y750847D01*
X222850Y751297D01*
X222139Y751629D01*
X221381Y751832D01*
X220600Y751900D01*
Y752900D01*
X221381Y752968D01*
X222139Y753171D01*
X222850Y753503D01*
X223493Y753953D01*
X224047Y754507D01*
X224497Y755150D01*
X224829Y755861D01*
X225032Y756619D01*
X225100Y757400D01*
X225032Y758181D01*
X224829Y758939D01*
X224497Y759650D01*
X224047Y760293D01*
X223493Y760847D01*
X222850Y761297D01*
X222139Y761629D01*
X221381Y761832D01*
X220600Y761900D01*
Y769400D01*
G37*
G36*
X191100D02*X203100D01*
Y768400D01*
X203123Y768140D01*
X203190Y767887D01*
X203301Y767650D01*
X203451Y767436D01*
X203636Y767251D01*
X203850Y767101D01*
X204087Y766990D01*
X204340Y766923D01*
X204600Y766900D01*
X212600D01*
X212860Y766923D01*
X213113Y766990D01*
X213350Y767101D01*
X213564Y767251D01*
X213749Y767436D01*
X213899Y767650D01*
X214010Y767887D01*
X214077Y768140D01*
X214100Y768400D01*
Y769400D01*
X220600D01*
Y761900D01*
X219819Y761832D01*
X219061Y761629D01*
X218350Y761297D01*
X217707Y760847D01*
X217153Y760293D01*
X216703Y759650D01*
X216371Y758939D01*
X216168Y758181D01*
X216100Y757400D01*
X216168Y756619D01*
X216371Y755861D01*
X216703Y755150D01*
X217153Y754507D01*
X217707Y753953D01*
X218350Y753503D01*
X219061Y753171D01*
X219819Y752968D01*
X220600Y752900D01*
Y751900D01*
X219819Y751832D01*
X219061Y751629D01*
X218350Y751297D01*
X217707Y750847D01*
X217153Y750293D01*
X216703Y749650D01*
X216371Y748939D01*
X216168Y748181D01*
X216100Y747400D01*
X216168Y746619D01*
X216371Y745861D01*
X216703Y745150D01*
X217153Y744507D01*
X217707Y743953D01*
X218350Y743503D01*
X219061Y743171D01*
X219819Y742968D01*
X220600Y742900D01*
Y741900D01*
X217600D01*
X217340Y741877D01*
X217087Y741810D01*
X216850Y741699D01*
X216636Y741549D01*
X216451Y741364D01*
X216301Y741150D01*
X216190Y740913D01*
X216123Y740660D01*
X216100Y740400D01*
Y734400D01*
X216123Y734140D01*
X216190Y733887D01*
X216301Y733650D01*
X216451Y733436D01*
X216636Y733251D01*
X216850Y733101D01*
X217087Y732990D01*
X217340Y732923D01*
X217600Y732900D01*
X220600D01*
Y669400D01*
X191100D01*
Y698400D01*
X192055Y698484D01*
X192981Y698732D01*
X193850Y699137D01*
X194635Y699687D01*
X195313Y700365D01*
X195863Y701150D01*
X196268Y702019D01*
X196516Y702945D01*
X196600Y703900D01*
X196516Y704855D01*
X196268Y705781D01*
X195863Y706650D01*
X195313Y707435D01*
X194635Y708113D01*
X193850Y708663D01*
X192981Y709068D01*
X192055Y709316D01*
X191100Y709400D01*
Y716900D01*
X192055Y716984D01*
X192981Y717232D01*
X193850Y717637D01*
X194635Y718187D01*
X195313Y718865D01*
X195863Y719650D01*
X196268Y720519D01*
X196516Y721445D01*
X196600Y722400D01*
X196516Y723355D01*
X196268Y724281D01*
X195863Y725150D01*
X195313Y725935D01*
X194635Y726613D01*
X193850Y727163D01*
X192981Y727568D01*
X192055Y727816D01*
X191100Y727900D01*
Y735400D01*
X192055Y735484D01*
X192981Y735732D01*
X193850Y736137D01*
X194635Y736687D01*
X195313Y737365D01*
X195863Y738150D01*
X196268Y739019D01*
X196516Y739945D01*
X196600Y740900D01*
X196516Y741855D01*
X196268Y742781D01*
X195863Y743650D01*
X195313Y744435D01*
X194635Y745113D01*
X193850Y745663D01*
X192981Y746068D01*
X192055Y746316D01*
X191100Y746400D01*
Y769400D01*
G37*
G36*
X176100D02*X191100D01*
Y746400D01*
X190145Y746316D01*
X189219Y746068D01*
X188350Y745663D01*
X187565Y745113D01*
X186887Y744435D01*
X186337Y743650D01*
X185932Y742781D01*
X185684Y741855D01*
X185600Y740900D01*
X185684Y739945D01*
X185932Y739019D01*
X186337Y738150D01*
X186887Y737365D01*
X187565Y736687D01*
X188350Y736137D01*
X189219Y735732D01*
X190145Y735484D01*
X191100Y735400D01*
Y727900D01*
X190145Y727816D01*
X189219Y727568D01*
X188350Y727163D01*
X187565Y726613D01*
X186887Y725935D01*
X186337Y725150D01*
X185932Y724281D01*
X185684Y723355D01*
X185600Y722400D01*
X185684Y721445D01*
X185932Y720519D01*
X186337Y719650D01*
X186887Y718865D01*
X187565Y718187D01*
X188350Y717637D01*
X189219Y717232D01*
X190145Y716984D01*
X191100Y716900D01*
Y709400D01*
X190145Y709316D01*
X189219Y709068D01*
X188350Y708663D01*
X187565Y708113D01*
X186887Y707435D01*
X186337Y706650D01*
X185932Y705781D01*
X185684Y704855D01*
X185600Y703900D01*
X185684Y702945D01*
X185932Y702019D01*
X186337Y701150D01*
X186887Y700365D01*
X187565Y699687D01*
X188350Y699137D01*
X189219Y698732D01*
X190145Y698484D01*
X191100Y698400D01*
Y669400D01*
X176100D01*
Y698400D01*
X177055Y698484D01*
X177981Y698732D01*
X178850Y699137D01*
X179635Y699687D01*
X180313Y700365D01*
X180863Y701150D01*
X181268Y702019D01*
X181516Y702945D01*
X181600Y703900D01*
X181516Y704855D01*
X181268Y705781D01*
X180863Y706650D01*
X180313Y707435D01*
X179635Y708113D01*
X178850Y708663D01*
X177981Y709068D01*
X177055Y709316D01*
X176100Y709400D01*
Y716900D01*
X180600D01*
X180774Y716915D01*
X180942Y716960D01*
X181100Y717034D01*
X181243Y717134D01*
X181366Y717257D01*
X181466Y717400D01*
X181540Y717558D01*
X181585Y717726D01*
X181600Y717900D01*
Y726900D01*
X181585Y727074D01*
X181540Y727242D01*
X181466Y727400D01*
X181366Y727543D01*
X181243Y727666D01*
X181100Y727766D01*
X180942Y727840D01*
X180774Y727885D01*
X180600Y727900D01*
X176100D01*
Y735400D01*
X177055Y735484D01*
X177981Y735732D01*
X178850Y736137D01*
X179635Y736687D01*
X180313Y737365D01*
X180863Y738150D01*
X181268Y739019D01*
X181516Y739945D01*
X181600Y740900D01*
X181516Y741855D01*
X181268Y742781D01*
X180863Y743650D01*
X180313Y744435D01*
X179635Y745113D01*
X178850Y745663D01*
X177981Y746068D01*
X177055Y746316D01*
X176100Y746400D01*
Y769400D01*
G37*
G36*
X160700Y669400D02*Y769400D01*
X176100D01*
Y746400D01*
X175145Y746316D01*
X174219Y746068D01*
X173350Y745663D01*
X172565Y745113D01*
X171887Y744435D01*
X171337Y743650D01*
X170932Y742781D01*
X170684Y741855D01*
X170600Y740900D01*
X170684Y739945D01*
X170932Y739019D01*
X171337Y738150D01*
X171887Y737365D01*
X172565Y736687D01*
X173350Y736137D01*
X174219Y735732D01*
X175145Y735484D01*
X176100Y735400D01*
Y727900D01*
X171600D01*
X171426Y727885D01*
X171258Y727840D01*
X171100Y727766D01*
X170957Y727666D01*
X170834Y727543D01*
X170734Y727400D01*
X170660Y727242D01*
X170615Y727074D01*
X170600Y726900D01*
Y717900D01*
X170615Y717726D01*
X170660Y717558D01*
X170734Y717400D01*
X170834Y717257D01*
X170957Y717134D01*
X171100Y717034D01*
X171258Y716960D01*
X171426Y716915D01*
X171600Y716900D01*
X176100D01*
Y709400D01*
X175145Y709316D01*
X174219Y709068D01*
X173350Y708663D01*
X172565Y708113D01*
X171887Y707435D01*
X171337Y706650D01*
X170932Y705781D01*
X170684Y704855D01*
X170600Y703900D01*
X170684Y702945D01*
X170932Y702019D01*
X171337Y701150D01*
X171887Y700365D01*
X172565Y699687D01*
X173350Y699137D01*
X174219Y698732D01*
X175145Y698484D01*
X176100Y698400D01*
Y669400D01*
X160700D01*
G37*
G54D11*X110500Y893900D02*Y12700D01*
X115500Y893600D02*Y12800D01*
X110623Y833457D02*X110702Y833378D01*
X108100Y635100D02*Y415100D01*
X91096Y378024D02*X91017Y377945D01*
X90623Y140819D02*Y133575D01*
Y140819D02*Y126331D01*
X90938Y389441D02*Y366212D01*
Y388654D02*Y366291D01*
Y388654D02*X92040Y389756D01*
X90938Y366212D02*X91095Y366055D01*
X91961Y365268D02*X90938Y366291D01*
X92040Y389756D02*X110465D01*
Y365268D01*
X100544Y381016D02*Y374008D01*
X91961Y365268D02*X110387D01*
X97906Y378063D02*X103024D01*
X110072Y29047D02*X110308Y28811D01*
X10500Y225600D02*X110500D01*
X60500Y225200D02*Y176200D01*
X72200Y200600D02*X94800D01*
X85500Y210200D02*Y189700D01*
X35500Y214300D02*Y186200D01*
X143600Y372400D02*Y365200D01*
X92356Y311961D02*X92434Y312039D01*
X88000Y312000D02*Y308900D01*
Y315300D02*Y308900D01*
X84087Y311961D02*X92356D01*
X35500Y322500D02*Y305900D01*
X63772Y337157D02*X63143Y336528D01*
X22500Y312000D02*X39700D01*
X63300Y337237D02*Y286370D01*
X63378Y287000D02*X110308D01*
X63378D02*X63221Y287157D01*
X63772Y337157D02*X110465D01*
X63300Y337237D02*X63457Y337394D01*
X8100Y415100D02*X108100D01*
X10500Y225600D02*Y175400D01*
Y175500D02*X110500D01*
X15200Y200600D02*X42700D01*
X80780Y722512D02*X93694D01*
X88000Y722500D02*Y715500D01*
Y730500D02*Y715500D01*
X63616Y697472D02*X63379Y697709D01*
Y747551D02*X110229D01*
X63379Y747472D02*Y697551D01*
X60938Y862512D02*X89835D01*
X47631Y833457D02*X47552Y833378D01*
X47709Y891449D02*X111292D01*
X47631Y833457D02*X110623D01*
X79000Y873300D02*Y854900D01*
X47631Y891567D02*Y833457D01*
X63616Y697472D02*X110465D01*
X8100Y635100D02*X108100D01*
X8100D02*Y415100D01*
X43772Y133614D02*X109599D01*
X48418Y87079D02*X110308D01*
X48418D02*X47473Y86134D01*
X90623Y126331D02*X90583Y126291D01*
X69914Y57945D02*X90938D01*
X79000Y68100D02*X78900Y68200D01*
X47631Y87000D02*Y28732D01*
X47788Y29047D02*X110072D01*
X79000Y68100D02*Y49600D01*
X70623Y142511D02*Y133417D01*
Y142511D02*X70583Y142551D01*
Y125110D01*
X50623Y142512D02*Y133575D01*
Y142512D02*Y125189D01*
G54D15*X72787Y717556D02*Y716556D01*
X68787Y717056D02*X72787D01*
X69787Y716056D02*X68787Y717056D01*
X72287Y718757D02*X69287Y721757D01*
X70787Y722958D02*X68787Y724958D01*
X70787Y725458D02*Y722958D01*
X68787Y724958D02*X72787D01*
X68787Y726659D02*X69787D01*
X68787Y727659D02*X69787D01*
X56450Y855744D02*Y854744D01*
X52450Y855244D02*X56450D01*
X53450Y854244D02*X52450Y855244D01*
X55950Y856945D02*X52950Y859945D01*
Y861146D02*X52450Y861646D01*
Y863146D02*Y861646D01*
Y863146D02*X52950Y863646D01*
X53950D01*
X56450Y861146D02*X53950Y863646D01*
X56450D02*Y861146D01*
X52450Y864847D02*X53450D01*
X52450Y865847D02*X53450D01*
X104221Y370614D02*Y368614D01*
X106221D01*
X105721Y369114D01*
Y370114D02*Y369114D01*
Y370114D02*X106221Y370614D01*
X107721D01*
X108221Y370114D02*X107721Y370614D01*
X108221Y370114D02*Y369114D01*
X107721Y368614D02*X108221Y369114D01*
X106721Y372315D02*X108221D01*
X106721D02*X106221Y372815D01*
Y373315D02*Y372815D01*
Y373315D02*X106721Y373815D01*
X108221D01*
X106721D02*X106221Y374315D01*
Y374815D02*Y374315D01*
Y374815D02*X106721Y375315D01*
X108221D01*
X106221Y371815D02*X106721Y372315D01*
Y377016D02*X108221D01*
X106721D02*X106221Y377516D01*
Y378016D02*Y377516D01*
Y378016D02*X106721Y378516D01*
X108221D01*
X106721D02*X106221Y379016D01*
Y379516D02*Y379016D01*
Y379516D02*X106721Y380016D01*
X108221D01*
X106221Y376516D02*X106721Y377016D01*
X62749Y52200D02*Y51200D01*
X58749Y51700D02*X62749D01*
X59749Y50700D02*X58749Y51700D01*
X62249Y53401D02*X59249Y56401D01*
Y57602D02*X58749Y58102D01*
Y59602D02*Y58102D01*
Y59602D02*X59249Y60102D01*
X60249D01*
X62749Y57602D02*X60249Y60102D01*
X62749D02*Y57602D01*
X58749Y61303D02*X59749D01*
X58749Y62303D02*X59749D01*
X39170Y127079D02*X38670Y127579D01*
Y128579D02*Y127579D01*
Y128579D02*X39170Y129079D01*
X42170D01*
X42670Y128579D02*X42170Y129079D01*
X42670Y128579D02*Y127579D01*
X42170Y127079D02*X42670Y127579D01*
X40670Y129079D02*Y127579D01*
X41170Y130780D02*X42670D01*
X41170D02*X40670Y131280D01*
Y131780D02*Y131280D01*
Y131780D02*X41170Y132280D01*
X42670D01*
X41170D02*X40670Y132780D01*
Y133280D02*Y132780D01*
Y133280D02*X41170Y133780D01*
X42670D01*
X40670Y130280D02*X41170Y130780D01*
Y135481D02*X42670D01*
X41170D02*X40670Y135981D01*
Y136481D02*Y135981D01*
Y136481D02*X41170Y136981D01*
X42670D01*
X41170D02*X40670Y137481D01*
Y137981D02*Y137481D01*
Y137981D02*X41170Y138481D01*
X42670D01*
X40670Y134981D02*X41170Y135481D01*
X74559Y306729D02*Y305729D01*
X70559Y306229D02*X74559D01*
X71559Y305229D02*X70559Y306229D01*
X74059Y307930D02*X71059Y310930D01*
X72559Y312131D02*X70559Y314131D01*
X72559Y314631D02*Y312131D01*
X70559Y314131D02*X74559D01*
X70559Y315832D02*X71559D01*
X70559Y316832D02*X71559D01*
G54D16*X67400Y441140D02*Y434360D01*
X65140Y432100D02*X67400Y434360D01*
X51580Y432100D02*X65140D01*
X51580D02*X49320Y434360D01*
Y441140D02*Y434360D01*
X58360Y446568D02*X65140D01*
X67400Y448828D01*
Y453348D02*Y448828D01*
Y453348D02*X65140Y455608D01*
X58360D02*X65140D01*
X49320Y463297D02*X65140D01*
X67400Y465557D01*
X56100D02*Y461037D01*
X49320Y480477D02*X65140D01*
X67400Y482737D01*
X56100D02*Y478217D01*
X49320Y487262D02*X67400D01*
X60620D02*X58360Y489522D01*
Y494042D02*Y489522D01*
Y494042D02*X60620Y496302D01*
X67400D01*
X53840Y501730D02*X56100D01*
X60620D02*X67400D01*
Y515295D02*Y508515D01*
Y515295D02*X65140Y517555D01*
X62880Y515295D02*X65140Y517555D01*
X62880Y515295D02*Y508515D01*
X60620Y506255D02*X62880Y508515D01*
X60620Y506255D02*X58360Y508515D01*
Y515295D02*Y508515D01*
Y515295D02*X60620Y517555D01*
X65140Y506255D02*X67400Y508515D01*
X49320Y531119D02*X67400D01*
X65140D02*X67400Y533379D01*
Y537899D02*Y533379D01*
Y537899D02*X65140Y540159D01*
X60620D02*X65140D01*
X58360Y537899D02*X60620Y540159D01*
X58360Y537899D02*Y533379D01*
X60620Y531119D02*X58360Y533379D01*
X60620Y545588D02*X65140D01*
X60620D02*X58360Y547848D01*
Y552368D02*Y547848D01*
Y552368D02*X60620Y554628D01*
X65140D01*
X67400Y552368D02*X65140Y554628D01*
X67400Y552368D02*Y547848D01*
X65140Y545588D02*X67400Y547848D01*
X58360Y560056D02*X67400Y569096D01*
Y560056D02*X58360Y569096D01*
X60620Y582661D02*X65140D01*
X60620D02*X58360Y584921D01*
Y589441D02*Y584921D01*
Y589441D02*X60620Y591701D01*
X65140D01*
X67400Y589441D02*X65140Y591701D01*
X67400Y589441D02*Y584921D01*
X65140Y582661D02*X67400Y584921D01*
X58360Y597129D02*X65140D01*
X67400Y599389D01*
Y603909D02*Y599389D01*
Y603909D02*X65140Y606169D01*
X58360D02*X65140D01*
X49320Y613858D02*X65140D01*
X67400Y616118D01*
X56100D02*Y611598D01*
M02*
