G04 start of page 3 for group 1 idx 1 *
G04 Title: (unknown), solder *
G04 Creator: pcb 20091103 *
G04 CreationDate: Mon Oct  4 16:31:00 2010 UTC *
G04 For: fosse *
G04 Format: Gerber/RS-274X *
G04 PCB-Dimensions: 440000 900000 *
G04 PCB-Coordinate-Origin: lower left *
%MOIN*%
%FSLAX25Y25*%
%LNBACK*%
%ADD11C,0.0200*%
%ADD12C,0.0400*%
%ADD13C,0.0350*%
%ADD14C,0.0100*%
%ADD15C,0.0090*%
%ADD17C,0.0550*%
%ADD18C,0.0600*%
%ADD19C,0.0800*%
%ADD20C,0.2000*%
%ADD21C,0.0650*%
%ADD22C,0.0900*%
%ADD23C,0.0720*%
%ADD24C,0.0787*%
%ADD25C,0.0700*%
%ADD26C,0.0460*%
%ADD28C,0.0300*%
%ADD29C,0.0280*%
%ADD30C,0.0320*%
%ADD31C,0.0790*%
%ADD32C,0.0380*%
%ADD33C,0.0510*%
%ADD34C,0.0420*%
%ADD35C,0.0395*%
%ADD36C,0.0315*%
%ADD37C,0.0472*%
%ADD38C,0.0500*%
G54D11*G36*
X315600Y846901D02*X321600D01*
Y804900D01*
X315600Y798900D01*
Y827900D01*
X318600D01*
X318860Y827923D01*
X319113Y827990D01*
X319350Y828101D01*
X319564Y828251D01*
X319749Y828436D01*
X319899Y828650D01*
X320010Y828887D01*
X320077Y829140D01*
X320100Y829400D01*
Y835400D01*
X320077Y835660D01*
X320010Y835913D01*
X319899Y836150D01*
X319749Y836364D01*
X319564Y836549D01*
X319350Y836699D01*
X319113Y836810D01*
X318860Y836877D01*
X318600Y836900D01*
X315600D01*
Y846901D01*
G37*
G36*
X298600D02*X315600D01*
Y836900D01*
X312600D01*
X312340Y836877D01*
X312087Y836810D01*
X311850Y836699D01*
X311636Y836549D01*
X311451Y836364D01*
X311301Y836150D01*
X311190Y835913D01*
X311123Y835660D01*
X311100Y835400D01*
Y829400D01*
X311123Y829140D01*
X311190Y828887D01*
X311301Y828650D01*
X311451Y828436D01*
X311636Y828251D01*
X311850Y828101D01*
X312087Y827990D01*
X312340Y827923D01*
X312600Y827900D01*
X315600D01*
Y798900D01*
X298600Y781900D01*
Y823150D01*
X301350D01*
X301610Y823173D01*
X301863Y823240D01*
X302100Y823351D01*
X302314Y823501D01*
X302499Y823686D01*
X302649Y823900D01*
X302760Y824137D01*
X302827Y824390D01*
X302850Y824650D01*
Y830150D01*
X302827Y830410D01*
X302760Y830663D01*
X302649Y830900D01*
X302499Y831114D01*
X302314Y831299D01*
X302100Y831449D01*
X301863Y831560D01*
X301610Y831627D01*
X301350Y831650D01*
X298600D01*
Y846901D01*
G37*
G36*
X287100D02*X298600D01*
Y831650D01*
X295850D01*
X295590Y831627D01*
X295337Y831560D01*
X295100Y831449D01*
X294886Y831299D01*
X294701Y831114D01*
X294551Y830900D01*
X294440Y830663D01*
X294373Y830410D01*
X294350Y830150D01*
Y824650D01*
X294373Y824390D01*
X294440Y824137D01*
X294551Y823900D01*
X294701Y823686D01*
X294886Y823501D01*
X295100Y823351D01*
X295337Y823240D01*
X295590Y823173D01*
X295850Y823150D01*
X298600D01*
Y781900D01*
X293600Y776900D01*
X287100D01*
Y780400D01*
X287850D01*
Y784400D01*
X287100D01*
Y810016D01*
X287281Y810275D01*
X287594Y810946D01*
X287785Y811662D01*
X287850Y812400D01*
X287785Y813138D01*
X287594Y813854D01*
X287281Y814525D01*
X287100Y814784D01*
Y823351D01*
X287314Y823501D01*
X287499Y823686D01*
X287649Y823900D01*
X287760Y824137D01*
X287827Y824390D01*
X287850Y824650D01*
Y830150D01*
X287827Y830410D01*
X287760Y830663D01*
X287649Y830900D01*
X287499Y831114D01*
X287314Y831299D01*
X287100Y831449D01*
Y846901D01*
G37*
G36*
Y814784D02*X286856Y815132D01*
X286332Y815656D01*
X285725Y816081D01*
X285054Y816394D01*
X284338Y816585D01*
X283600Y816650D01*
Y823150D01*
X286350D01*
X286610Y823173D01*
X286863Y823240D01*
X287100Y823351D01*
Y814784D01*
G37*
G36*
Y776900D02*X283600D01*
Y778150D01*
X285600D01*
Y779650D01*
X283600D01*
Y785150D01*
X285600D01*
Y786650D01*
X283600D01*
Y808150D01*
X284338Y808215D01*
X285054Y808406D01*
X285725Y808719D01*
X286332Y809144D01*
X286856Y809668D01*
X287100Y810016D01*
Y784400D01*
X286350D01*
Y780400D01*
X287100D01*
Y776900D01*
G37*
G36*
X283600Y846901D02*X287100D01*
Y831449D01*
X286863Y831560D01*
X286610Y831627D01*
X286350Y831650D01*
X283600D01*
Y846901D01*
G37*
G36*
X298600Y879400D02*X317357D01*
X320600Y876157D01*
Y867400D01*
X320611Y867275D01*
Y867139D01*
X320635Y867002D01*
X320646Y866879D01*
X320678Y866759D01*
X320702Y866624D01*
X320748Y866498D01*
X320781Y866374D01*
X320836Y866256D01*
X320881Y866133D01*
X320945Y866023D01*
X321002Y865900D01*
X321077Y865794D01*
X321142Y865680D01*
X321229Y865576D01*
X321302Y865472D01*
X321390Y865384D01*
X321478Y865279D01*
X321600Y865157D01*
Y852900D01*
X298600D01*
Y863150D01*
X299338Y863215D01*
X300054Y863406D01*
X300725Y863719D01*
X301332Y864144D01*
X301856Y864668D01*
X302281Y865275D01*
X302594Y865946D01*
X302785Y866662D01*
X302850Y867400D01*
X302785Y868138D01*
X302594Y868854D01*
X302281Y869525D01*
X301856Y870132D01*
X301332Y870656D01*
X300725Y871081D01*
X300054Y871394D01*
X299338Y871585D01*
X298600Y871650D01*
Y879400D01*
G37*
G36*
X283600D02*X298600D01*
Y871650D01*
X297862Y871585D01*
X297146Y871394D01*
X296475Y871081D01*
X295868Y870656D01*
X295344Y870132D01*
X294919Y869525D01*
X294606Y868854D01*
X294415Y868138D01*
X294350Y867400D01*
X294415Y866662D01*
X294606Y865946D01*
X294919Y865275D01*
X295344Y864668D01*
X295868Y864144D01*
X296475Y863719D01*
X297146Y863406D01*
X297862Y863215D01*
X298600Y863150D01*
Y852900D01*
X283600D01*
Y863150D01*
X284338Y863215D01*
X285054Y863406D01*
X285725Y863719D01*
X286332Y864144D01*
X286856Y864668D01*
X287281Y865275D01*
X287594Y865946D01*
X287785Y866662D01*
X287850Y867400D01*
X287785Y868138D01*
X287594Y868854D01*
X287281Y869525D01*
X286856Y870132D01*
X286332Y870656D01*
X285725Y871081D01*
X285054Y871394D01*
X284338Y871585D01*
X283600Y871650D01*
Y879400D01*
G37*
G36*
X268600Y723150D02*X271350D01*
X271610Y723173D01*
X271863Y723240D01*
X272100Y723351D01*
X272314Y723501D01*
X272499Y723686D01*
X272600Y723830D01*
Y715900D01*
X268600Y711900D01*
Y723150D01*
G37*
G36*
Y753150D02*X269338Y753215D01*
X270054Y753406D01*
X270725Y753719D01*
X271332Y754144D01*
X271856Y754668D01*
X272281Y755275D01*
X272594Y755946D01*
X272600Y755968D01*
Y730970D01*
X272499Y731114D01*
X272314Y731299D01*
X272100Y731449D01*
X271863Y731560D01*
X271610Y731627D01*
X271350Y731650D01*
X268600D01*
Y753150D01*
G37*
G36*
X280100Y810016D02*X280344Y809668D01*
X280868Y809144D01*
X281475Y808719D01*
X282146Y808406D01*
X282862Y808215D01*
X283600Y808150D01*
Y786650D01*
X281600D01*
Y785150D01*
X283600D01*
Y779650D01*
X281600D01*
Y778150D01*
X283600D01*
Y776900D01*
X282100D01*
X280100Y774900D01*
Y780400D01*
X280850D01*
Y784400D01*
X280100D01*
Y810016D01*
G37*
G36*
Y823351D02*X280337Y823240D01*
X280590Y823173D01*
X280850Y823150D01*
X283600D01*
Y816650D01*
X282862Y816585D01*
X282146Y816394D01*
X281475Y816081D01*
X280868Y815656D01*
X280344Y815132D01*
X280100Y814784D01*
Y823351D01*
G37*
G36*
Y846901D02*X283600D01*
Y831650D01*
X280850D01*
X280590Y831627D01*
X280337Y831560D01*
X280100Y831449D01*
Y846901D01*
G37*
G36*
X268600D02*X280100D01*
Y831449D01*
X279886Y831299D01*
X279701Y831114D01*
X279551Y830900D01*
X279440Y830663D01*
X279373Y830410D01*
X279350Y830150D01*
Y824650D01*
X279373Y824390D01*
X279440Y824137D01*
X279551Y823900D01*
X279701Y823686D01*
X279886Y823501D01*
X280100Y823351D01*
Y814784D01*
X279919Y814525D01*
X279606Y813854D01*
X279415Y813138D01*
X279350Y812400D01*
X279415Y811662D01*
X279606Y810946D01*
X279919Y810275D01*
X280100Y810016D01*
Y784400D01*
X279350D01*
Y780400D01*
X280100D01*
Y774900D01*
X272600Y767400D01*
Y758832D01*
X272594Y758854D01*
X272281Y759525D01*
X271856Y760132D01*
X271332Y760656D01*
X270725Y761081D01*
X270054Y761394D01*
X269338Y761585D01*
X268600Y761650D01*
Y768150D01*
X271350D01*
X271610Y768173D01*
X271863Y768240D01*
X272100Y768351D01*
X272314Y768501D01*
X272499Y768686D01*
X272649Y768900D01*
X272760Y769137D01*
X272827Y769390D01*
X272850Y769650D01*
Y775150D01*
X272827Y775410D01*
X272760Y775663D01*
X272649Y775900D01*
X272499Y776114D01*
X272314Y776299D01*
X272100Y776449D01*
X271863Y776560D01*
X271610Y776627D01*
X271350Y776650D01*
X268600D01*
Y808150D01*
X269338Y808215D01*
X270054Y808406D01*
X270725Y808719D01*
X271332Y809144D01*
X271856Y809668D01*
X272281Y810275D01*
X272594Y810946D01*
X272785Y811662D01*
X272850Y812400D01*
X272785Y813138D01*
X272594Y813854D01*
X272281Y814525D01*
X271856Y815132D01*
X271332Y815656D01*
X270725Y816081D01*
X270054Y816394D01*
X269338Y816585D01*
X268600Y816650D01*
Y822900D01*
X271600D01*
X271860Y822923D01*
X272113Y822990D01*
X272350Y823101D01*
X272564Y823251D01*
X272749Y823436D01*
X272899Y823650D01*
X273010Y823887D01*
X273077Y824140D01*
X273100Y824400D01*
Y830400D01*
X273077Y830660D01*
X273010Y830913D01*
X272899Y831150D01*
X272749Y831364D01*
X272564Y831549D01*
X272350Y831699D01*
X272113Y831810D01*
X271860Y831877D01*
X271600Y831900D01*
X268600D01*
Y846901D01*
G37*
G36*
Y879400D02*X283600D01*
Y871650D01*
X282862Y871585D01*
X282146Y871394D01*
X281475Y871081D01*
X280868Y870656D01*
X280344Y870132D01*
X279919Y869525D01*
X279606Y868854D01*
X279415Y868138D01*
X279350Y867400D01*
X279415Y866662D01*
X279606Y865946D01*
X279919Y865275D01*
X280344Y864668D01*
X280868Y864144D01*
X281475Y863719D01*
X282146Y863406D01*
X282862Y863215D01*
X283600Y863150D01*
Y852900D01*
X268600D01*
Y879400D01*
G37*
G36*
X257100Y846043D02*X257468Y846141D01*
X258100Y846436D01*
X258671Y846836D01*
X258736Y846901D01*
X268600D01*
Y831900D01*
X265600D01*
X265340Y831877D01*
X265087Y831810D01*
X264850Y831699D01*
X264636Y831549D01*
X264451Y831364D01*
X264301Y831150D01*
X264190Y830913D01*
X264123Y830660D01*
X264100Y830400D01*
Y824400D01*
X264123Y824140D01*
X264190Y823887D01*
X264301Y823650D01*
X264451Y823436D01*
X264636Y823251D01*
X264850Y823101D01*
X265087Y822990D01*
X265340Y822923D01*
X265600Y822900D01*
X268600D01*
Y816650D01*
X267862Y816585D01*
X267146Y816394D01*
X266475Y816081D01*
X265868Y815656D01*
X265344Y815132D01*
X264919Y814525D01*
X264606Y813854D01*
X264415Y813138D01*
X264350Y812400D01*
X264415Y811662D01*
X264606Y810946D01*
X264919Y810275D01*
X265344Y809668D01*
X265868Y809144D01*
X266475Y808719D01*
X267146Y808406D01*
X267862Y808215D01*
X268600Y808150D01*
Y776650D01*
X265850D01*
X265590Y776627D01*
X265337Y776560D01*
X265100Y776449D01*
X264886Y776299D01*
X264701Y776114D01*
X264551Y775900D01*
X264440Y775663D01*
X264373Y775410D01*
X264350Y775150D01*
Y769650D01*
X264373Y769390D01*
X264440Y769137D01*
X264551Y768900D01*
X264701Y768686D01*
X264886Y768501D01*
X265100Y768351D01*
X265337Y768240D01*
X265590Y768173D01*
X265850Y768150D01*
X268600D01*
Y761650D01*
X267862Y761585D01*
X267146Y761394D01*
X266475Y761081D01*
X265868Y760656D01*
X265344Y760132D01*
X264919Y759525D01*
X264606Y758854D01*
X264415Y758138D01*
X264350Y757400D01*
X264415Y756662D01*
X264606Y755946D01*
X264919Y755275D01*
X265344Y754668D01*
X265868Y754144D01*
X266475Y753719D01*
X267146Y753406D01*
X267862Y753215D01*
X268600Y753150D01*
Y731650D01*
X265850D01*
X265590Y731627D01*
X265337Y731560D01*
X265100Y731449D01*
X264886Y731299D01*
X264701Y731114D01*
X264551Y730900D01*
X264440Y730663D01*
X264373Y730410D01*
X264350Y730150D01*
Y724650D01*
X264373Y724390D01*
X264440Y724137D01*
X264551Y723900D01*
X264701Y723686D01*
X264886Y723501D01*
X265100Y723351D01*
X265337Y723240D01*
X265590Y723173D01*
X265850Y723150D01*
X268600D01*
Y711900D01*
X263600Y706900D01*
X257100D01*
Y715400D01*
X257850D01*
Y719400D01*
X257100D01*
Y755016D01*
X257281Y755275D01*
X257594Y755946D01*
X257785Y756662D01*
X257850Y757400D01*
X257785Y758138D01*
X257594Y758854D01*
X257281Y759525D01*
X257100Y759784D01*
Y780400D01*
X257850D01*
Y784400D01*
X257100D01*
Y810016D01*
X257281Y810275D01*
X257594Y810946D01*
X257785Y811662D01*
X257850Y812400D01*
X257785Y813138D01*
X257594Y813854D01*
X257281Y814525D01*
X257100Y814784D01*
Y846043D01*
G37*
G36*
Y759784D02*X256856Y760132D01*
X256332Y760656D01*
X255725Y761081D01*
X255054Y761394D01*
X254338Y761585D01*
X253600Y761650D01*
Y778150D01*
X255600D01*
Y779650D01*
X253600D01*
Y785150D01*
X255600D01*
Y786650D01*
X253600D01*
Y808150D01*
X254338Y808215D01*
X255054Y808406D01*
X255725Y808719D01*
X256332Y809144D01*
X256856Y809668D01*
X257100Y810016D01*
Y784400D01*
X256350D01*
Y780400D01*
X257100D01*
Y759784D01*
G37*
G36*
Y706900D02*X253600D01*
Y713150D01*
X255600D01*
Y714650D01*
X253600D01*
Y720150D01*
X255600D01*
Y721650D01*
X253600D01*
Y753150D01*
X254338Y753215D01*
X255054Y753406D01*
X255725Y753719D01*
X256332Y754144D01*
X256856Y754668D01*
X257100Y755016D01*
Y719400D01*
X256350D01*
Y715400D01*
X257100D01*
Y706900D01*
G37*
G36*
X253600Y846786D02*X254100Y846436D01*
X254732Y846141D01*
X255405Y845961D01*
X256100Y845900D01*
X256795Y845961D01*
X257100Y846043D01*
Y814784D01*
X256856Y815132D01*
X256332Y815656D01*
X255725Y816081D01*
X255054Y816394D01*
X254338Y816585D01*
X253600Y816650D01*
Y846786D01*
G37*
G36*
Y870658D02*X262342Y879400D01*
X268600D01*
Y852900D01*
X258735D01*
X258671Y852964D01*
X258100Y853364D01*
X257468Y853659D01*
X256795Y853839D01*
X256100Y853900D01*
X255405Y853839D01*
X254732Y853659D01*
X254100Y853364D01*
X253600Y853014D01*
Y870658D01*
G37*
G36*
X250100Y755016D02*X250344Y754668D01*
X250868Y754144D01*
X251475Y753719D01*
X252146Y753406D01*
X252862Y753215D01*
X253600Y753150D01*
Y721650D01*
X251600D01*
Y720150D01*
X253600D01*
Y714650D01*
X251600D01*
Y713150D01*
X253600D01*
Y706900D01*
X250100D01*
Y715400D01*
X250850D01*
Y719400D01*
X250100D01*
Y755016D01*
G37*
G36*
Y810016D02*X250344Y809668D01*
X250868Y809144D01*
X251475Y808719D01*
X252146Y808406D01*
X252862Y808215D01*
X253600Y808150D01*
Y786650D01*
X251600D01*
Y785150D01*
X253600D01*
Y779650D01*
X251600D01*
Y778150D01*
X253600D01*
Y761650D01*
X252862Y761585D01*
X252146Y761394D01*
X251475Y761081D01*
X250868Y760656D01*
X250344Y760132D01*
X250100Y759784D01*
Y780400D01*
X250850D01*
Y784400D01*
X250100D01*
Y810016D01*
G37*
G36*
Y867158D02*X253600Y870658D01*
Y853014D01*
X253529Y852964D01*
X253036Y852471D01*
X252636Y851900D01*
X252341Y851268D01*
X252161Y850595D01*
X252100Y849900D01*
X252161Y849205D01*
X252341Y848532D01*
X252636Y847900D01*
X253036Y847329D01*
X253529Y846836D01*
X253600Y846786D01*
Y816650D01*
X252862Y816585D01*
X252146Y816394D01*
X251475Y816081D01*
X250868Y815656D01*
X250344Y815132D01*
X250100Y814784D01*
Y867158D01*
G37*
G36*
X242100Y843161D02*X242819Y842968D01*
X243600Y842900D01*
X244381Y842968D01*
X245139Y843171D01*
X245850Y843503D01*
X246493Y843953D01*
X247047Y844507D01*
X247497Y845150D01*
X247829Y845861D01*
X248032Y846619D01*
X248100Y847400D01*
X248032Y848181D01*
X247829Y848939D01*
X247497Y849650D01*
X247047Y850293D01*
X246600Y850740D01*
Y863658D01*
X250100Y867158D01*
Y814784D01*
X249919Y814525D01*
X249606Y813854D01*
X249415Y813138D01*
X249350Y812400D01*
X249415Y811662D01*
X249606Y810946D01*
X249919Y810275D01*
X250100Y810016D01*
Y784400D01*
X249350D01*
Y780400D01*
X250100D01*
Y759784D01*
X249919Y759525D01*
X249606Y758854D01*
X249415Y758138D01*
X249350Y757400D01*
X249415Y756662D01*
X249606Y755946D01*
X249919Y755275D01*
X250100Y755016D01*
Y719400D01*
X249350D01*
Y715400D01*
X250100D01*
Y706900D01*
X242100D01*
Y715400D01*
X242850D01*
Y719400D01*
X242100D01*
Y755016D01*
X242281Y755275D01*
X242594Y755946D01*
X242785Y756662D01*
X242850Y757400D01*
X242785Y758138D01*
X242594Y758854D01*
X242281Y759525D01*
X242100Y759784D01*
Y768351D01*
X242314Y768501D01*
X242499Y768686D01*
X242649Y768900D01*
X242760Y769137D01*
X242827Y769390D01*
X242850Y769650D01*
Y775150D01*
X242827Y775410D01*
X242760Y775663D01*
X242649Y775900D01*
X242499Y776114D01*
X242314Y776299D01*
X242100Y776449D01*
Y810016D01*
X242281Y810275D01*
X242594Y810946D01*
X242785Y811662D01*
X242850Y812400D01*
X242785Y813138D01*
X242594Y813854D01*
X242281Y814525D01*
X242100Y814784D01*
Y843161D01*
G37*
G36*
X321600Y889401D02*Y883643D01*
X320722Y884521D01*
X320629Y884599D01*
X320529Y884699D01*
X320411Y884782D01*
X320321Y884857D01*
X320222Y884914D01*
X320101Y884999D01*
X319975Y885057D01*
X319869Y885119D01*
X319748Y885163D01*
X319626Y885220D01*
X319494Y885256D01*
X319377Y885298D01*
X319250Y885321D01*
X319121Y885355D01*
X318988Y885367D01*
X318862Y885389D01*
X318737D01*
X318600Y885401D01*
X261100D01*
Y885400D01*
X260986Y885390D01*
X260838D01*
X260689Y885364D01*
X260579Y885354D01*
X260472Y885325D01*
X260323Y885299D01*
X260185Y885249D01*
X260074Y885219D01*
X259969Y885170D01*
X259832Y885120D01*
X259709Y885049D01*
X259600Y884998D01*
X259500Y884928D01*
X259379Y884858D01*
X259270Y884767D01*
X259172Y884698D01*
X259090Y884616D01*
X258978Y884522D01*
X247213Y872757D01*
Y875260D01*
X247308Y875282D01*
X247429Y875333D01*
X247538Y875405D01*
X247634Y875494D01*
X247713Y875598D01*
X247772Y875715D01*
X247914Y876122D01*
X248017Y876542D01*
X248079Y876969D01*
X248100Y877400D01*
X248079Y877832D01*
X248017Y878259D01*
X247914Y878679D01*
X247772Y879086D01*
X247771D01*
X247712Y879202D01*
X247633Y879307D01*
X247537Y879396D01*
X247428Y879467D01*
X247307Y879518D01*
X247213Y879539D01*
Y889401D01*
X321600D01*
G37*
G36*
X247213Y872757D02*X242100Y867644D01*
Y873163D01*
X242321Y873086D01*
X242741Y872983D01*
X243168Y872921D01*
X243600Y872900D01*
X244031Y872921D01*
X244458Y872983D01*
X244878Y873086D01*
X245285Y873228D01*
Y873229D01*
X245401Y873288D01*
X245506Y873367D01*
X245595Y873463D01*
X245666Y873572D01*
X245717Y873693D01*
X245746Y873820D01*
X245753Y873950D01*
X245737Y874080D01*
X245699Y874205D01*
X245640Y874321D01*
X245561Y874426D01*
X245465Y874515D01*
X245356Y874586D01*
X245235Y874637D01*
X245108Y874666D01*
X244978Y874673D01*
X244848Y874657D01*
X244723Y874619D01*
X244452Y874524D01*
X244172Y874456D01*
X243887Y874414D01*
X243600Y874400D01*
X243312Y874414D01*
X243027Y874456D01*
X242747Y874524D01*
X242476Y874619D01*
Y874620D01*
X242351Y874658D01*
X242221Y874674D01*
X242100Y874668D01*
Y880135D01*
X242221Y880128D01*
X242351Y880144D01*
X242476Y880182D01*
X242747Y880277D01*
X243027Y880345D01*
X243312Y880387D01*
X243600Y880400D01*
X243887Y880387D01*
X244172Y880345D01*
X244452Y880277D01*
X244723Y880182D01*
Y880181D01*
X244848Y880143D01*
X244978Y880127D01*
X245109Y880134D01*
X245236Y880163D01*
X245357Y880214D01*
X245466Y880286D01*
X245562Y880375D01*
X245641Y880479D01*
X245700Y880596D01*
X245738Y880721D01*
X245754Y880851D01*
X245747Y880982D01*
X245718Y881109D01*
X245667Y881230D01*
X245595Y881339D01*
X245506Y881435D01*
X245402Y881514D01*
X245285Y881573D01*
X244878Y881715D01*
X244458Y881818D01*
X244031Y881880D01*
X243600Y881900D01*
X243168Y881880D01*
X242741Y881818D01*
X242321Y881715D01*
X242100Y881638D01*
Y889401D01*
X247213D01*
Y879539D01*
X247180Y879547D01*
X247050Y879554D01*
X246920Y879538D01*
X246795Y879500D01*
X246679Y879441D01*
X246574Y879362D01*
X246485Y879266D01*
X246414Y879157D01*
X246363Y879036D01*
X246334Y878909D01*
X246327Y878779D01*
X246343Y878649D01*
X246381Y878524D01*
X246476Y878253D01*
X246544Y877973D01*
X246586Y877688D01*
X246600Y877400D01*
X246586Y877113D01*
X246544Y876828D01*
X246476Y876548D01*
X246381Y876277D01*
X246380D01*
X246342Y876152D01*
X246326Y876022D01*
X246333Y875891D01*
X246362Y875764D01*
X246413Y875643D01*
X246485Y875534D01*
X246574Y875438D01*
X246678Y875359D01*
X246795Y875300D01*
X246920Y875262D01*
X247050Y875246D01*
X247181Y875253D01*
X247213Y875260D01*
Y872757D01*
G37*
G36*
X242100Y776449D02*X241863Y776560D01*
X241610Y776627D01*
X241350Y776650D01*
X238600D01*
Y808150D01*
X239338Y808215D01*
X240054Y808406D01*
X240725Y808719D01*
X241332Y809144D01*
X241856Y809668D01*
X242100Y810016D01*
Y776449D01*
G37*
G36*
Y759784D02*X241856Y760132D01*
X241332Y760656D01*
X240725Y761081D01*
X240054Y761394D01*
X239338Y761585D01*
X238600Y761650D01*
Y768150D01*
X241350D01*
X241610Y768173D01*
X241863Y768240D01*
X242100Y768351D01*
Y759784D01*
G37*
G36*
Y706900D02*X238600D01*
Y713150D01*
X240600D01*
Y714650D01*
X238600D01*
Y720150D01*
X240600D01*
Y721650D01*
X238600D01*
Y753150D01*
X239338Y753215D01*
X240054Y753406D01*
X240725Y753719D01*
X241332Y754144D01*
X241856Y754668D01*
X242100Y755016D01*
Y719400D01*
X241350D01*
Y715400D01*
X242100D01*
Y706900D01*
G37*
G36*
X239987Y844744D02*X240153Y844507D01*
X240707Y843953D01*
X241350Y843503D01*
X242061Y843171D01*
X242100Y843161D01*
Y814784D01*
X241856Y815132D01*
X241332Y815656D01*
X240725Y816081D01*
X240054Y816394D01*
X239987Y816412D01*
Y844744D01*
G37*
G36*
X242100Y867644D02*X241478Y867022D01*
X241479Y867021D01*
X241407Y866935D01*
X241301Y866829D01*
X241214Y866704D01*
X241143Y866620D01*
X241088Y866525D01*
X241001Y866401D01*
X240939Y866268D01*
X240881Y866168D01*
X240840Y866056D01*
X240780Y865926D01*
X240742Y865784D01*
X240703Y865676D01*
X240683Y865564D01*
X240645Y865421D01*
X240632Y865275D01*
X240612Y865161D01*
Y865047D01*
X240599Y864900D01*
Y850739D01*
X240153Y850293D01*
X239987Y850056D01*
Y875261D01*
X240019Y875254D01*
X240149Y875247D01*
X240279Y875263D01*
X240404Y875301D01*
X240520Y875360D01*
X240625Y875439D01*
X240714Y875535D01*
X240785Y875644D01*
X240836Y875765D01*
X240865Y875892D01*
X240872Y876022D01*
X240856Y876152D01*
X240818Y876277D01*
X240723Y876548D01*
X240655Y876828D01*
X240613Y877113D01*
X240600Y877400D01*
X240613Y877688D01*
X240655Y877973D01*
X240723Y878253D01*
X240818Y878524D01*
X240819D01*
X240857Y878649D01*
X240873Y878779D01*
X240866Y878910D01*
X240837Y879037D01*
X240786Y879158D01*
X240714Y879267D01*
X240625Y879363D01*
X240521Y879442D01*
X240404Y879501D01*
X240279Y879539D01*
X240149Y879555D01*
X240018Y879548D01*
X239987Y879541D01*
Y889401D01*
X242100D01*
Y881638D01*
X241914Y881573D01*
Y881572D01*
X241798Y881513D01*
X241693Y881434D01*
X241604Y881338D01*
X241533Y881229D01*
X241482Y881108D01*
X241453Y880981D01*
X241446Y880851D01*
X241462Y880721D01*
X241500Y880596D01*
X241559Y880480D01*
X241638Y880375D01*
X241734Y880286D01*
X241843Y880215D01*
X241964Y880164D01*
X242091Y880135D01*
X242100D01*
Y874668D01*
X242090Y874667D01*
X241963Y874638D01*
X241842Y874587D01*
X241733Y874515D01*
X241637Y874426D01*
X241558Y874322D01*
X241499Y874205D01*
X241461Y874080D01*
X241445Y873950D01*
X241452Y873819D01*
X241481Y873692D01*
X241532Y873571D01*
X241604Y873462D01*
X241693Y873366D01*
X241797Y873287D01*
X241914Y873228D01*
X242100Y873163D01*
Y867644D01*
G37*
G36*
X239987Y850056D02*X239703Y849650D01*
X239371Y848939D01*
X239168Y848181D01*
X239100Y847400D01*
X239168Y846619D01*
X239371Y845861D01*
X239703Y845150D01*
X239987Y844744D01*
Y816412D01*
X239338Y816585D01*
X238600Y816650D01*
Y889401D01*
X239987D01*
Y879541D01*
X239891Y879519D01*
X239770Y879468D01*
X239661Y879396D01*
X239565Y879307D01*
X239486Y879203D01*
X239427Y879086D01*
X239285Y878679D01*
X239182Y878259D01*
X239120Y877832D01*
X239100Y877400D01*
X239120Y876969D01*
X239182Y876542D01*
X239285Y876122D01*
X239427Y875715D01*
X239428D01*
X239487Y875599D01*
X239566Y875494D01*
X239662Y875405D01*
X239771Y875334D01*
X239892Y875283D01*
X239987Y875261D01*
Y850056D01*
G37*
G36*
X235100Y768351D02*X235337Y768240D01*
X235590Y768173D01*
X235850Y768150D01*
X238600D01*
Y761650D01*
X237862Y761585D01*
X237146Y761394D01*
X236475Y761081D01*
X235868Y760656D01*
X235344Y760132D01*
X235100Y759784D01*
Y768351D01*
G37*
G36*
Y810016D02*X235344Y809668D01*
X235868Y809144D01*
X236475Y808719D01*
X237146Y808406D01*
X237862Y808215D01*
X238600Y808150D01*
Y776650D01*
X235850D01*
X235590Y776627D01*
X235337Y776560D01*
X235100Y776449D01*
Y810016D01*
G37*
G36*
Y889401D02*X238600D01*
Y816650D01*
X237862Y816585D01*
X237146Y816394D01*
X236475Y816081D01*
X235868Y815656D01*
X235344Y815132D01*
X235100Y814784D01*
Y843161D01*
X235139Y843171D01*
X235850Y843503D01*
X236493Y843953D01*
X237047Y844507D01*
X237497Y845150D01*
X237829Y845861D01*
X238032Y846619D01*
X238100Y847400D01*
X238032Y848181D01*
X237829Y848939D01*
X237497Y849650D01*
X237047Y850293D01*
X236493Y850847D01*
X235850Y851297D01*
X235139Y851629D01*
X235100Y851639D01*
Y873161D01*
X235139Y873171D01*
X235850Y873503D01*
X236493Y873953D01*
X237047Y874507D01*
X237497Y875150D01*
X237829Y875861D01*
X238032Y876619D01*
X238100Y877400D01*
X238032Y878181D01*
X237829Y878939D01*
X237497Y879650D01*
X237047Y880293D01*
X236493Y880847D01*
X235850Y881297D01*
X235139Y881629D01*
X235100Y881639D01*
Y889401D01*
G37*
G36*
X238600Y706900D02*X235100D01*
Y715400D01*
X235850D01*
Y719400D01*
X235100D01*
Y755016D01*
X235344Y754668D01*
X235868Y754144D01*
X236475Y753719D01*
X237146Y753406D01*
X237862Y753215D01*
X238600Y753150D01*
Y721650D01*
X236600D01*
Y720150D01*
X238600D01*
Y714650D01*
X236600D01*
Y713150D01*
X238600D01*
Y706900D01*
G37*
G36*
X235100D02*X220600D01*
Y732900D01*
X223600D01*
X223860Y732923D01*
X224113Y732990D01*
X224350Y733101D01*
X224564Y733251D01*
X224749Y733436D01*
X224899Y733650D01*
X225010Y733887D01*
X225077Y734140D01*
X225100Y734400D01*
Y740400D01*
X225077Y740660D01*
X225010Y740913D01*
X224899Y741150D01*
X224749Y741364D01*
X224564Y741549D01*
X224350Y741699D01*
X224113Y741810D01*
X223860Y741877D01*
X223600Y741900D01*
X220600D01*
Y742900D01*
X221381Y742968D01*
X222139Y743171D01*
X222850Y743503D01*
X223493Y743953D01*
X224047Y744507D01*
X224497Y745150D01*
X224829Y745861D01*
X225032Y746619D01*
X225100Y747400D01*
X225032Y748181D01*
X224829Y748939D01*
X224497Y749650D01*
X224047Y750293D01*
X223493Y750847D01*
X222850Y751297D01*
X222139Y751629D01*
X221381Y751832D01*
X220600Y751900D01*
Y752900D01*
X221381Y752968D01*
X222139Y753171D01*
X222850Y753503D01*
X223493Y753953D01*
X224047Y754507D01*
X224497Y755150D01*
X224829Y755861D01*
X225032Y756619D01*
X225100Y757400D01*
X225032Y758181D01*
X224829Y758939D01*
X224497Y759650D01*
X224047Y760293D01*
X223493Y760847D01*
X222850Y761297D01*
X222139Y761629D01*
X221381Y761832D01*
X220600Y761900D01*
Y778172D01*
X220850Y778150D01*
X226350D01*
X226610Y778173D01*
X226863Y778240D01*
X227100Y778351D01*
X227314Y778501D01*
X227499Y778686D01*
X227649Y778900D01*
X227760Y779137D01*
X227827Y779390D01*
X227850Y779650D01*
Y785150D01*
X227827Y785410D01*
X227760Y785663D01*
X227649Y785900D01*
X227499Y786114D01*
X227314Y786299D01*
X227100Y786449D01*
X226863Y786560D01*
X226610Y786627D01*
X226350Y786650D01*
X220850D01*
X220600Y786628D01*
Y809412D01*
X220868Y809144D01*
X221475Y808719D01*
X222146Y808406D01*
X222862Y808215D01*
X223600Y808150D01*
X224338Y808215D01*
X225054Y808406D01*
X225725Y808719D01*
X226332Y809144D01*
X226856Y809668D01*
X227281Y810275D01*
X227594Y810946D01*
X227785Y811662D01*
X227850Y812400D01*
X227785Y813138D01*
X227594Y813854D01*
X227281Y814525D01*
X226856Y815132D01*
X226332Y815656D01*
X225725Y816081D01*
X225054Y816394D01*
X224338Y816585D01*
X223600Y816650D01*
X222862Y816585D01*
X222146Y816394D01*
X221475Y816081D01*
X220868Y815656D01*
X220600Y815388D01*
Y844060D01*
X220707Y843953D01*
X221350Y843503D01*
X222061Y843171D01*
X222819Y842968D01*
X223600Y842900D01*
X224381Y842968D01*
X225139Y843171D01*
X225850Y843503D01*
X226493Y843953D01*
X227047Y844507D01*
X227497Y845150D01*
X227829Y845861D01*
X228032Y846619D01*
X228100Y847400D01*
X228032Y848181D01*
X227829Y848939D01*
X227497Y849650D01*
X227047Y850293D01*
X226493Y850847D01*
X225850Y851297D01*
X225139Y851629D01*
X224381Y851832D01*
X223600Y851900D01*
X222819Y851832D01*
X222061Y851629D01*
X221350Y851297D01*
X220707Y850847D01*
X220600Y850740D01*
Y874060D01*
X220707Y873953D01*
X221350Y873503D01*
X222061Y873171D01*
X222819Y872968D01*
X223600Y872900D01*
X224381Y872968D01*
X225139Y873171D01*
X225850Y873503D01*
X226493Y873953D01*
X227047Y874507D01*
X227497Y875150D01*
X227829Y875861D01*
X228032Y876619D01*
X228100Y877400D01*
X228032Y878181D01*
X227829Y878939D01*
X227497Y879650D01*
X227047Y880293D01*
X226493Y880847D01*
X225850Y881297D01*
X225139Y881629D01*
X224381Y881832D01*
X223600Y881900D01*
X222819Y881832D01*
X222061Y881629D01*
X221350Y881297D01*
X220707Y880847D01*
X220600Y880740D01*
Y889401D01*
X235100D01*
Y881639D01*
X234381Y881832D01*
X233600Y881900D01*
X232819Y881832D01*
X232061Y881629D01*
X231350Y881297D01*
X230707Y880847D01*
X230153Y880293D01*
X229703Y879650D01*
X229371Y878939D01*
X229168Y878181D01*
X229100Y877400D01*
X229168Y876619D01*
X229371Y875861D01*
X229703Y875150D01*
X230153Y874507D01*
X230707Y873953D01*
X231350Y873503D01*
X232061Y873171D01*
X232819Y872968D01*
X233600Y872900D01*
X234381Y872968D01*
X235100Y873161D01*
Y851639D01*
X234381Y851832D01*
X233600Y851900D01*
X232819Y851832D01*
X232061Y851629D01*
X231350Y851297D01*
X230707Y850847D01*
X230153Y850293D01*
X229703Y849650D01*
X229371Y848939D01*
X229168Y848181D01*
X229100Y847400D01*
X229168Y846619D01*
X229371Y845861D01*
X229703Y845150D01*
X230153Y844507D01*
X230707Y843953D01*
X231350Y843503D01*
X232061Y843171D01*
X232819Y842968D01*
X233600Y842900D01*
X234381Y842968D01*
X235100Y843161D01*
Y814784D01*
X234919Y814525D01*
X234606Y813854D01*
X234415Y813138D01*
X234350Y812400D01*
X234415Y811662D01*
X234606Y810946D01*
X234919Y810275D01*
X235100Y810016D01*
Y776449D01*
X234886Y776299D01*
X234701Y776114D01*
X234551Y775900D01*
X234440Y775663D01*
X234373Y775410D01*
X234350Y775150D01*
Y769650D01*
X234373Y769390D01*
X234440Y769137D01*
X234551Y768900D01*
X234701Y768686D01*
X234886Y768501D01*
X235100Y768351D01*
Y759784D01*
X234919Y759525D01*
X234606Y758854D01*
X234415Y758138D01*
X234350Y757400D01*
X234415Y756662D01*
X234606Y755946D01*
X234919Y755275D01*
X235100Y755016D01*
Y719400D01*
X234350D01*
Y715400D01*
X235100D01*
Y706900D01*
G37*
G36*
X220600D02*X216100D01*
X213600Y704400D01*
Y767287D01*
X213749Y767436D01*
X213899Y767650D01*
X214010Y767887D01*
X214077Y768140D01*
X214100Y768400D01*
Y776400D01*
X214077Y776660D01*
X214010Y776913D01*
X213899Y777150D01*
X213749Y777364D01*
X213600Y777513D01*
Y810159D01*
X213768Y810519D01*
X214016Y811445D01*
X214100Y812400D01*
X214016Y813355D01*
X213768Y814281D01*
X213600Y814641D01*
Y842900D01*
X216600D01*
X216860Y842923D01*
X217113Y842990D01*
X217350Y843101D01*
X217564Y843251D01*
X217749Y843436D01*
X217899Y843650D01*
X218010Y843887D01*
X218077Y844140D01*
X218100Y844400D01*
Y850400D01*
X218077Y850660D01*
X218010Y850913D01*
X217899Y851150D01*
X217749Y851364D01*
X217564Y851549D01*
X217350Y851699D01*
X217113Y851810D01*
X216860Y851877D01*
X216600Y851900D01*
X213600D01*
Y872900D01*
X214381Y872968D01*
X215139Y873171D01*
X215850Y873503D01*
X216493Y873953D01*
X217047Y874507D01*
X217497Y875150D01*
X217829Y875861D01*
X218032Y876619D01*
X218100Y877400D01*
X218032Y878181D01*
X217829Y878939D01*
X217497Y879650D01*
X217047Y880293D01*
X216493Y880847D01*
X215850Y881297D01*
X215139Y881629D01*
X214381Y881832D01*
X213600Y881900D01*
Y889401D01*
X220600D01*
Y880740D01*
X220153Y880293D01*
X219703Y879650D01*
X219371Y878939D01*
X219168Y878181D01*
X219100Y877400D01*
X219168Y876619D01*
X219371Y875861D01*
X219703Y875150D01*
X220153Y874507D01*
X220600Y874060D01*
Y850740D01*
X220153Y850293D01*
X219703Y849650D01*
X219371Y848939D01*
X219168Y848181D01*
X219100Y847400D01*
X219168Y846619D01*
X219371Y845861D01*
X219703Y845150D01*
X220153Y844507D01*
X220600Y844060D01*
Y815388D01*
X220344Y815132D01*
X219919Y814525D01*
X219606Y813854D01*
X219415Y813138D01*
X219350Y812400D01*
X219415Y811662D01*
X219606Y810946D01*
X219919Y810275D01*
X220344Y809668D01*
X220600Y809412D01*
Y786628D01*
X220590Y786627D01*
X220337Y786560D01*
X220100Y786449D01*
X219886Y786299D01*
X219701Y786114D01*
X219551Y785900D01*
X219440Y785663D01*
X219373Y785410D01*
X219350Y785150D01*
Y779650D01*
X219373Y779390D01*
X219440Y779137D01*
X219551Y778900D01*
X219701Y778686D01*
X219886Y778501D01*
X220100Y778351D01*
X220337Y778240D01*
X220590Y778173D01*
X220600Y778172D01*
Y761900D01*
X219819Y761832D01*
X219061Y761629D01*
X218350Y761297D01*
X217707Y760847D01*
X217153Y760293D01*
X216703Y759650D01*
X216371Y758939D01*
X216168Y758181D01*
X216100Y757400D01*
X216168Y756619D01*
X216371Y755861D01*
X216703Y755150D01*
X217153Y754507D01*
X217707Y753953D01*
X218350Y753503D01*
X219061Y753171D01*
X219819Y752968D01*
X220600Y752900D01*
Y751900D01*
X219819Y751832D01*
X219061Y751629D01*
X218350Y751297D01*
X217707Y750847D01*
X217153Y750293D01*
X216703Y749650D01*
X216371Y748939D01*
X216168Y748181D01*
X216100Y747400D01*
X216168Y746619D01*
X216371Y745861D01*
X216703Y745150D01*
X217153Y744507D01*
X217707Y743953D01*
X218350Y743503D01*
X219061Y743171D01*
X219819Y742968D01*
X220600Y742900D01*
Y741900D01*
X217600D01*
X217340Y741877D01*
X217087Y741810D01*
X216850Y741699D01*
X216636Y741549D01*
X216451Y741364D01*
X216301Y741150D01*
X216190Y740913D01*
X216123Y740660D01*
X216100Y740400D01*
Y734400D01*
X216123Y734140D01*
X216190Y733887D01*
X216301Y733650D01*
X216451Y733436D01*
X216636Y733251D01*
X216850Y733101D01*
X217087Y732990D01*
X217340Y732923D01*
X217600Y732900D01*
X220600D01*
Y706900D01*
G37*
G36*
X213600Y814641D02*X213363Y815150D01*
X212813Y815935D01*
X212135Y816613D01*
X211350Y817163D01*
X210481Y817568D01*
X209555Y817816D01*
X208600Y817900D01*
Y889401D01*
X213600D01*
Y881900D01*
X212819Y881832D01*
X212061Y881629D01*
X211350Y881297D01*
X210707Y880847D01*
X210153Y880293D01*
X209703Y879650D01*
X209371Y878939D01*
X209168Y878181D01*
X209100Y877400D01*
X209168Y876619D01*
X209371Y875861D01*
X209703Y875150D01*
X210153Y874507D01*
X210707Y873953D01*
X211350Y873503D01*
X212061Y873171D01*
X212819Y872968D01*
X213600Y872900D01*
Y851900D01*
X210600D01*
X210340Y851877D01*
X210087Y851810D01*
X209850Y851699D01*
X209636Y851549D01*
X209451Y851364D01*
X209301Y851150D01*
X209190Y850913D01*
X209123Y850660D01*
X209100Y850400D01*
Y844400D01*
X209123Y844140D01*
X209190Y843887D01*
X209301Y843650D01*
X209451Y843436D01*
X209636Y843251D01*
X209850Y843101D01*
X210087Y842990D01*
X210340Y842923D01*
X210600Y842900D01*
X213600D01*
Y814641D01*
G37*
G36*
Y777513D02*X213564Y777549D01*
X213350Y777699D01*
X213113Y777810D01*
X212860Y777877D01*
X212600Y777900D01*
X208600D01*
Y806900D01*
X209555Y806984D01*
X210481Y807232D01*
X211350Y807637D01*
X212135Y808187D01*
X212813Y808865D01*
X213363Y809650D01*
X213600Y810159D01*
Y777513D01*
G37*
G36*
Y704400D02*X208600Y699400D01*
Y766900D01*
X212600D01*
X212860Y766923D01*
X213113Y766990D01*
X213350Y767101D01*
X213564Y767251D01*
X213600Y767287D01*
Y704400D01*
G37*
G36*
X208600Y699400D02*X200100Y690900D01*
X191100D01*
Y698400D01*
X192055Y698484D01*
X192981Y698732D01*
X193850Y699137D01*
X194635Y699687D01*
X195313Y700365D01*
X195863Y701150D01*
X196268Y702019D01*
X196516Y702945D01*
X196600Y703900D01*
X196516Y704855D01*
X196268Y705781D01*
X195863Y706650D01*
X195313Y707435D01*
X194635Y708113D01*
X193850Y708663D01*
X192981Y709068D01*
X192055Y709316D01*
X191100Y709400D01*
Y716900D01*
X192055Y716984D01*
X192981Y717232D01*
X193850Y717637D01*
X194635Y718187D01*
X195313Y718865D01*
X195863Y719650D01*
X196268Y720519D01*
X196516Y721445D01*
X196600Y722400D01*
X196516Y723355D01*
X196268Y724281D01*
X195863Y725150D01*
X195313Y725935D01*
X194635Y726613D01*
X193850Y727163D01*
X192981Y727568D01*
X192055Y727816D01*
X191100Y727900D01*
Y735400D01*
X192055Y735484D01*
X192981Y735732D01*
X193850Y736137D01*
X194635Y736687D01*
X195313Y737365D01*
X195863Y738150D01*
X196268Y739019D01*
X196516Y739945D01*
X196600Y740900D01*
X196516Y741855D01*
X196268Y742781D01*
X195863Y743650D01*
X195313Y744435D01*
X194635Y745113D01*
X193850Y745663D01*
X193100Y746013D01*
Y841900D01*
X193101D01*
X193093Y841992D01*
Y842075D01*
X193079Y842153D01*
X193071Y842247D01*
X193046Y842340D01*
X193032Y842418D01*
X193004Y842495D01*
X192980Y842584D01*
X192943Y842664D01*
X192913Y842746D01*
X192872Y842816D01*
X192833Y842901D01*
X192777Y842981D01*
X192738Y843048D01*
X192688Y843107D01*
X192633Y843186D01*
X192565Y843254D01*
X192514Y843315D01*
X191100Y844729D01*
Y889401D01*
X208600D01*
Y817900D01*
X207645Y817816D01*
X206719Y817568D01*
X205850Y817163D01*
X205065Y816613D01*
X204387Y815935D01*
X203837Y815150D01*
X203432Y814281D01*
X203184Y813355D01*
X203100Y812400D01*
X203184Y811445D01*
X203432Y810519D01*
X203837Y809650D01*
X204387Y808865D01*
X205065Y808187D01*
X205850Y807637D01*
X206719Y807232D01*
X207645Y806984D01*
X208600Y806900D01*
Y777900D01*
X204600D01*
X204340Y777877D01*
X204087Y777810D01*
X203850Y777699D01*
X203636Y777549D01*
X203451Y777364D01*
X203301Y777150D01*
X203190Y776913D01*
X203123Y776660D01*
X203100Y776400D01*
Y768400D01*
X203123Y768140D01*
X203190Y767887D01*
X203301Y767650D01*
X203451Y767436D01*
X203636Y767251D01*
X203850Y767101D01*
X204087Y766990D01*
X204340Y766923D01*
X204600Y766900D01*
X208600D01*
Y699400D01*
G37*
G36*
X191100Y727900D02*X190145Y727816D01*
X189219Y727568D01*
X188350Y727163D01*
X187565Y726613D01*
X186887Y725935D01*
X186337Y725150D01*
X185932Y724281D01*
X185684Y723355D01*
X185600Y722400D01*
Y732572D01*
X188906Y735878D01*
X189219Y735732D01*
X190145Y735484D01*
X191100Y735400D01*
Y727900D01*
G37*
G36*
Y690900D02*X145100D01*
Y816900D01*
X163100Y834900D01*
Y889401D01*
X191100D01*
Y844729D01*
X175776Y860053D01*
X176033Y860604D01*
X176270Y861488D01*
X176350Y862400D01*
X176270Y863312D01*
X176033Y864196D01*
X175647Y865025D01*
X175122Y865775D01*
X174475Y866422D01*
X173725Y866947D01*
X172896Y867333D01*
X172012Y867570D01*
X171100Y867650D01*
X170188Y867570D01*
X169304Y867333D01*
X168475Y866947D01*
X167725Y866422D01*
X167078Y865775D01*
X166553Y865025D01*
X166167Y864196D01*
X165930Y863312D01*
X165850Y862400D01*
X165930Y861488D01*
X166167Y860604D01*
X166553Y859775D01*
X167078Y859025D01*
X167725Y858378D01*
X168475Y857853D01*
X169304Y857467D01*
X169554Y857400D01*
X169304Y857333D01*
X168475Y856947D01*
X167725Y856422D01*
X167078Y855775D01*
X166553Y855025D01*
X166167Y854196D01*
X165930Y853312D01*
X165850Y852400D01*
X165930Y851488D01*
X166167Y850604D01*
X166553Y849775D01*
X167078Y849025D01*
X167725Y848378D01*
X168475Y847853D01*
X169304Y847467D01*
X170188Y847230D01*
X171100Y847150D01*
X172012Y847230D01*
X172745Y847426D01*
X174099Y846072D01*
Y746012D01*
X173350Y745663D01*
X172565Y745113D01*
X171887Y744435D01*
X171337Y743650D01*
X170932Y742781D01*
X170684Y741855D01*
X170600Y740900D01*
X170684Y739945D01*
X170932Y739019D01*
X171337Y738150D01*
X171887Y737365D01*
X172565Y736687D01*
X173350Y736137D01*
X174219Y735732D01*
X175145Y735484D01*
X176100Y735400D01*
X177055Y735484D01*
X177981Y735732D01*
X178850Y736137D01*
X179635Y736687D01*
X180313Y737365D01*
X180863Y738150D01*
X181268Y739019D01*
X181516Y739945D01*
X181600Y740900D01*
X181516Y741855D01*
X181268Y742781D01*
X180863Y743650D01*
X180313Y744435D01*
X179635Y745113D01*
X178850Y745663D01*
X178100Y746013D01*
Y846900D01*
X178101D01*
X178093Y846992D01*
Y847075D01*
X178079Y847153D01*
X178071Y847247D01*
X178046Y847340D01*
X178032Y847418D01*
X178004Y847495D01*
X177980Y847584D01*
X177943Y847664D01*
X177913Y847746D01*
X177872Y847816D01*
X177833Y847901D01*
X177777Y847981D01*
X177738Y848048D01*
X177688Y848107D01*
X177633Y848186D01*
X177565Y848254D01*
X177514Y848315D01*
X175776Y850053D01*
X176033Y850604D01*
X176270Y851488D01*
X176350Y852400D01*
X176270Y853312D01*
X176054Y854117D01*
X189099Y841072D01*
Y746012D01*
X188350Y745663D01*
X187565Y745113D01*
X186887Y744435D01*
X186337Y743650D01*
X185932Y742781D01*
X185684Y741855D01*
X185600Y740900D01*
X185684Y739945D01*
X185932Y739019D01*
X186077Y738707D01*
X182185Y734815D01*
X182186Y734814D01*
X182134Y734752D01*
X182068Y734686D01*
X182015Y734610D01*
X181962Y734547D01*
X181921Y734476D01*
X181868Y734400D01*
X181828Y734314D01*
X181788Y734245D01*
X181758Y734165D01*
X181721Y734084D01*
X181700Y734005D01*
X181668Y733918D01*
X181653Y733832D01*
X181630Y733747D01*
X181622Y733654D01*
X181608Y733574D01*
Y733493D01*
X181600Y733400D01*
Y726900D01*
X181585Y727074D01*
X181540Y727242D01*
X181466Y727400D01*
X181366Y727543D01*
X181243Y727666D01*
X181100Y727766D01*
X180942Y727840D01*
X180774Y727885D01*
X180600Y727900D01*
X171600D01*
X171426Y727885D01*
X171258Y727840D01*
X171100Y727766D01*
X170957Y727666D01*
X170834Y727543D01*
X170734Y727400D01*
X170660Y727242D01*
X170615Y727074D01*
X170600Y726900D01*
Y717900D01*
X170615Y717726D01*
X170660Y717558D01*
X170734Y717400D01*
X170834Y717257D01*
X170957Y717134D01*
X171100Y717034D01*
X171258Y716960D01*
X171426Y716915D01*
X171600Y716900D01*
X180600D01*
X180774Y716915D01*
X180942Y716960D01*
X181100Y717034D01*
X181243Y717134D01*
X181366Y717257D01*
X181466Y717400D01*
X181540Y717558D01*
X181585Y717726D01*
X181600Y717900D01*
Y713230D01*
X177553Y709183D01*
X177055Y709316D01*
X176100Y709400D01*
X175145Y709316D01*
X174219Y709068D01*
X173350Y708663D01*
X172565Y708113D01*
X171887Y707435D01*
X171337Y706650D01*
X170932Y705781D01*
X170684Y704855D01*
X170600Y703900D01*
X170684Y702945D01*
X170932Y702019D01*
X171337Y701150D01*
X171887Y700365D01*
X172565Y699687D01*
X173350Y699137D01*
X174219Y698732D01*
X175145Y698484D01*
X176100Y698400D01*
X177055Y698484D01*
X177981Y698732D01*
X178850Y699137D01*
X179635Y699687D01*
X180313Y700365D01*
X180863Y701150D01*
X181268Y702019D01*
X181516Y702945D01*
X181600Y703900D01*
X181516Y704855D01*
X181268Y705781D01*
X180863Y706650D01*
X180787Y706759D01*
X185014Y710986D01*
X185015Y710985D01*
X185077Y711059D01*
X185132Y711114D01*
X185175Y711176D01*
X185239Y711252D01*
X185289Y711339D01*
X185332Y711400D01*
X185361Y711463D01*
X185414Y711554D01*
X185451Y711656D01*
X185479Y711716D01*
X185497Y711783D01*
X185533Y711882D01*
X185550Y711978D01*
X185570Y712053D01*
X185577Y712135D01*
X185593Y712226D01*
Y712319D01*
X185600Y712400D01*
Y722400D01*
X185684Y721445D01*
X185932Y720519D01*
X186337Y719650D01*
X186887Y718865D01*
X187565Y718187D01*
X188350Y717637D01*
X189219Y717232D01*
X190145Y716984D01*
X191100Y716900D01*
Y709400D01*
X190145Y709316D01*
X189219Y709068D01*
X188350Y708663D01*
X187565Y708113D01*
X186887Y707435D01*
X186337Y706650D01*
X185932Y705781D01*
X185684Y704855D01*
X185600Y703900D01*
X185684Y702945D01*
X185932Y702019D01*
X186337Y701150D01*
X186887Y700365D01*
X187565Y699687D01*
X188350Y699137D01*
X189219Y698732D01*
X190145Y698484D01*
X191100Y698400D01*
Y690900D01*
G37*
G36*
X130600Y712400D02*X124100D01*
Y732400D01*
X130600D01*
Y712400D01*
G37*
G36*
X342600Y13400D02*X313600D01*
Y18650D01*
X314338Y18715D01*
X315054Y18906D01*
X315725Y19219D01*
X316332Y19644D01*
X316856Y20168D01*
X317281Y20775D01*
X317594Y21446D01*
X317785Y22162D01*
X317850Y22900D01*
X317785Y23638D01*
X317594Y24354D01*
X317281Y25025D01*
X316856Y25632D01*
X316332Y26156D01*
X315725Y26581D01*
X315054Y26894D01*
X314338Y27085D01*
X313600Y27150D01*
Y58650D01*
X316350D01*
X316610Y58673D01*
X316863Y58740D01*
X317100Y58851D01*
X317314Y59001D01*
X317499Y59186D01*
X317649Y59400D01*
X317760Y59637D01*
X317827Y59890D01*
X317850Y60150D01*
Y65650D01*
X317827Y65910D01*
X317760Y66163D01*
X317649Y66400D01*
X317499Y66614D01*
X317314Y66799D01*
X317100Y66949D01*
X316863Y67060D01*
X316610Y67127D01*
X316350Y67150D01*
X313600D01*
Y74158D01*
X315721Y76279D01*
X315722Y76278D01*
X315815Y76389D01*
X315898Y76472D01*
X315966Y76569D01*
X316058Y76679D01*
X316128Y76801D01*
X316198Y76900D01*
X316250Y77012D01*
X316320Y77132D01*
X316370Y77268D01*
X316419Y77374D01*
X316448Y77483D01*
X316499Y77623D01*
X316525Y77771D01*
X316554Y77879D01*
X316564Y77990D01*
X316590Y78138D01*
Y78287D01*
X316600Y78400D01*
Y88672D01*
X316610Y88673D01*
X316863Y88740D01*
X317100Y88851D01*
X317314Y89001D01*
X317499Y89186D01*
X317649Y89400D01*
X317760Y89637D01*
X317827Y89890D01*
X317850Y90150D01*
Y95650D01*
X317827Y95910D01*
X317760Y96163D01*
X317649Y96400D01*
X317499Y96614D01*
X317314Y96799D01*
X317100Y96949D01*
X316863Y97060D01*
X316610Y97127D01*
X316350Y97150D01*
X313600D01*
Y128650D01*
X314338Y128715D01*
X315054Y128906D01*
X315725Y129219D01*
X316332Y129644D01*
X316856Y130168D01*
X317281Y130775D01*
X317594Y131446D01*
X317785Y132162D01*
X317850Y132900D01*
X317785Y133638D01*
X317594Y134354D01*
X317281Y135025D01*
X316856Y135632D01*
X316332Y136156D01*
X315725Y136581D01*
X315054Y136894D01*
X314338Y137085D01*
X313600Y137150D01*
Y138900D01*
X317600D01*
X342600Y113900D01*
Y20901D01*
X338234D01*
X338171Y20964D01*
X337600Y21364D01*
X336968Y21659D01*
X336295Y21839D01*
X335600Y21900D01*
X334905Y21839D01*
X334232Y21659D01*
X333600Y21364D01*
X333029Y20964D01*
X332536Y20471D01*
X332136Y19900D01*
X331841Y19268D01*
X331661Y18595D01*
X331600Y17900D01*
X331661Y17205D01*
X331841Y16532D01*
X332136Y15900D01*
X332536Y15329D01*
X333029Y14836D01*
X333600Y14436D01*
X334232Y14141D01*
X334905Y13961D01*
X335600Y13900D01*
X336295Y13961D01*
X336968Y14141D01*
X337600Y14436D01*
X338171Y14836D01*
X338235Y14900D01*
X342600D01*
Y13400D01*
G37*
G36*
X313600Y137150D02*X312862Y137085D01*
X312146Y136894D01*
X311475Y136581D01*
X310868Y136156D01*
X310344Y135632D01*
X309919Y135025D01*
X309606Y134354D01*
X309415Y133638D01*
X309350Y132900D01*
X309415Y132162D01*
X309545Y131675D01*
X298600Y120730D01*
Y138900D01*
X313600D01*
Y137150D01*
G37*
G36*
Y97150D02*X310850D01*
X310590Y97127D01*
X310337Y97060D01*
X310100Y96949D01*
X309886Y96799D01*
X309701Y96614D01*
X309551Y96400D01*
X309440Y96163D01*
X309373Y95910D01*
X309350Y95650D01*
Y90150D01*
X309373Y89890D01*
X309440Y89637D01*
X309551Y89400D01*
X309701Y89186D01*
X309886Y89001D01*
X310100Y88851D01*
X310337Y88740D01*
X310590Y88673D01*
X310600Y88672D01*
Y79644D01*
X298600Y67644D01*
Y88650D01*
X301350D01*
X301610Y88673D01*
X301863Y88740D01*
X302100Y88851D01*
X302314Y89001D01*
X302499Y89186D01*
X302649Y89400D01*
X302760Y89637D01*
X302827Y89890D01*
X302850Y90150D01*
Y95650D01*
X302827Y95910D01*
X302760Y96163D01*
X302649Y96400D01*
X302499Y96614D01*
X302314Y96799D01*
X302100Y96949D01*
X301863Y97060D01*
X301610Y97127D01*
X301350Y97150D01*
X298600D01*
Y115072D01*
X312373Y128845D01*
X312862Y128715D01*
X313600Y128650D01*
Y97150D01*
G37*
G36*
Y13400D02*X298600D01*
Y48650D01*
X299338Y48715D01*
X300054Y48906D01*
X300725Y49219D01*
X301332Y49644D01*
X301856Y50168D01*
X302281Y50775D01*
X302594Y51446D01*
X302785Y52162D01*
X302850Y52900D01*
X302785Y53638D01*
X302594Y54354D01*
X302281Y55025D01*
X301856Y55632D01*
X301332Y56156D01*
X300725Y56581D01*
X300054Y56894D01*
X299338Y57085D01*
X298600Y57150D01*
Y59400D01*
X299295Y59461D01*
X299968Y59641D01*
X300600Y59936D01*
X301171Y60336D01*
X301664Y60829D01*
X302064Y61400D01*
X302359Y62032D01*
X302539Y62705D01*
X302577Y63135D01*
X313600Y74158D01*
Y67150D01*
X310850D01*
X310590Y67127D01*
X310337Y67060D01*
X310100Y66949D01*
X309886Y66799D01*
X309701Y66614D01*
X309551Y66400D01*
X309440Y66163D01*
X309373Y65910D01*
X309350Y65650D01*
Y60150D01*
X309373Y59890D01*
X309440Y59637D01*
X309551Y59400D01*
X309701Y59186D01*
X309886Y59001D01*
X310100Y58851D01*
X310337Y58740D01*
X310590Y58673D01*
X310850Y58650D01*
X313600D01*
Y27150D01*
X312862Y27085D01*
X312146Y26894D01*
X311475Y26581D01*
X310868Y26156D01*
X310344Y25632D01*
X309919Y25025D01*
X309606Y24354D01*
X309415Y23638D01*
X309350Y22900D01*
X309415Y22162D01*
X309606Y21446D01*
X309919Y20775D01*
X310344Y20168D01*
X310868Y19644D01*
X311475Y19219D01*
X312146Y18906D01*
X312862Y18715D01*
X313600Y18650D01*
Y13400D01*
G37*
G36*
X293100Y138900D02*X298600D01*
Y120730D01*
X293100Y115230D01*
Y138900D01*
G37*
G36*
X298600Y13400D02*X293100D01*
Y33650D01*
X295850D01*
X296110Y33673D01*
X296363Y33740D01*
X296600Y33851D01*
X296814Y34001D01*
X296999Y34186D01*
X297149Y34400D01*
X297260Y34637D01*
X297327Y34890D01*
X297350Y35150D01*
Y40650D01*
X297327Y40910D01*
X297260Y41163D01*
X297149Y41400D01*
X296999Y41614D01*
X296814Y41799D01*
X296600Y41949D01*
X296363Y42060D01*
X296110Y42127D01*
X295850Y42150D01*
X293100D01*
Y109572D01*
X298600Y115072D01*
Y97150D01*
X295850D01*
X295590Y97127D01*
X295337Y97060D01*
X295100Y96949D01*
X294886Y96799D01*
X294701Y96614D01*
X294551Y96400D01*
X294440Y96163D01*
X294373Y95910D01*
X294350Y95650D01*
Y90150D01*
X294373Y89890D01*
X294440Y89637D01*
X294551Y89400D01*
X294701Y89186D01*
X294886Y89001D01*
X295100Y88851D01*
X295337Y88740D01*
X295590Y88673D01*
X295850Y88650D01*
X298600D01*
Y67644D01*
X298333Y67377D01*
X297905Y67339D01*
X297232Y67159D01*
X296600Y66864D01*
X296029Y66464D01*
X295536Y65971D01*
X295136Y65400D01*
X294841Y64768D01*
X294661Y64095D01*
X294600Y63400D01*
X294661Y62705D01*
X294841Y62032D01*
X295136Y61400D01*
X295536Y60829D01*
X296029Y60336D01*
X296600Y59936D01*
X297232Y59641D01*
X297905Y59461D01*
X298600Y59400D01*
Y57150D01*
X297862Y57085D01*
X297146Y56894D01*
X296475Y56581D01*
X295868Y56156D01*
X295344Y55632D01*
X294919Y55025D01*
X294606Y54354D01*
X294415Y53638D01*
X294350Y52900D01*
X294415Y52162D01*
X294606Y51446D01*
X294919Y50775D01*
X295344Y50168D01*
X295868Y49644D01*
X296475Y49219D01*
X297146Y48906D01*
X297862Y48715D01*
X298600Y48650D01*
Y13400D01*
G37*
G36*
X283600Y138900D02*X293100D01*
Y115230D01*
X283600Y105730D01*
Y138900D01*
G37*
G36*
X293100Y13400D02*X283600D01*
Y18650D01*
X286350D01*
X286610Y18673D01*
X286863Y18740D01*
X287100Y18851D01*
X287314Y19001D01*
X287499Y19186D01*
X287649Y19400D01*
X287760Y19637D01*
X287827Y19890D01*
X287850Y20150D01*
Y25650D01*
X287827Y25910D01*
X287760Y26163D01*
X287649Y26400D01*
X287499Y26614D01*
X287314Y26799D01*
X287100Y26949D01*
X286863Y27060D01*
X286610Y27127D01*
X286350Y27150D01*
X283600D01*
Y48650D01*
X284338Y48715D01*
X285054Y48906D01*
X285725Y49219D01*
X286332Y49644D01*
X286856Y50168D01*
X287281Y50775D01*
X287594Y51446D01*
X287785Y52162D01*
X287850Y52900D01*
X287785Y53638D01*
X287594Y54354D01*
X287281Y55025D01*
X286856Y55632D01*
X286332Y56156D01*
X285725Y56581D01*
X285054Y56894D01*
X284338Y57085D01*
X283600Y57150D01*
Y88650D01*
X286350D01*
X286610Y88673D01*
X286863Y88740D01*
X287100Y88851D01*
X287314Y89001D01*
X287499Y89186D01*
X287649Y89400D01*
X287760Y89637D01*
X287827Y89890D01*
X287850Y90150D01*
Y95650D01*
X287827Y95910D01*
X287760Y96163D01*
X287649Y96400D01*
X287499Y96614D01*
X287314Y96799D01*
X287100Y96949D01*
X286863Y97060D01*
X286610Y97127D01*
X286350Y97150D01*
X285600D01*
Y102072D01*
X293100Y109572D01*
Y42150D01*
X290350D01*
X290090Y42127D01*
X289837Y42060D01*
X289600Y41949D01*
X289386Y41799D01*
X289201Y41614D01*
X289051Y41400D01*
X288940Y41163D01*
X288873Y40910D01*
X288850Y40650D01*
Y35150D01*
X288873Y34890D01*
X288940Y34637D01*
X289051Y34400D01*
X289201Y34186D01*
X289386Y34001D01*
X289600Y33851D01*
X289837Y33740D01*
X290090Y33673D01*
X290350Y33650D01*
X293100D01*
Y13400D01*
G37*
G36*
X283600D02*X276100D01*
Y126400D01*
X279100D01*
X279360Y126423D01*
X279613Y126490D01*
X279850Y126601D01*
X280064Y126751D01*
X280249Y126936D01*
X280399Y127150D01*
X280510Y127387D01*
X280577Y127640D01*
X280600Y127900D01*
Y133900D01*
X280577Y134160D01*
X280510Y134413D01*
X280399Y134650D01*
X280249Y134864D01*
X280064Y135049D01*
X279850Y135199D01*
X279613Y135310D01*
X279360Y135377D01*
X279100Y135400D01*
X276100D01*
Y138900D01*
X283600D01*
Y105730D01*
X282185Y104315D01*
X282186Y104314D01*
X282134Y104252D01*
X282068Y104186D01*
X282015Y104110D01*
X281962Y104047D01*
X281921Y103976D01*
X281868Y103900D01*
X281828Y103814D01*
X281788Y103745D01*
X281758Y103665D01*
X281721Y103584D01*
X281700Y103505D01*
X281668Y103418D01*
X281653Y103332D01*
X281630Y103247D01*
X281622Y103154D01*
X281608Y103074D01*
Y102993D01*
X281600Y102900D01*
Y97150D01*
X280850D01*
X280590Y97127D01*
X280337Y97060D01*
X280100Y96949D01*
X279886Y96799D01*
X279701Y96614D01*
X279551Y96400D01*
X279440Y96163D01*
X279373Y95910D01*
X279350Y95650D01*
Y90150D01*
X279373Y89890D01*
X279440Y89637D01*
X279551Y89400D01*
X279701Y89186D01*
X279886Y89001D01*
X280100Y88851D01*
X280337Y88740D01*
X280590Y88673D01*
X280850Y88650D01*
X283600D01*
Y57150D01*
X282862Y57085D01*
X282146Y56894D01*
X281475Y56581D01*
X280868Y56156D01*
X280344Y55632D01*
X279919Y55025D01*
X279606Y54354D01*
X279415Y53638D01*
X279350Y52900D01*
X279415Y52162D01*
X279606Y51446D01*
X279919Y50775D01*
X280344Y50168D01*
X280868Y49644D01*
X281475Y49219D01*
X282146Y48906D01*
X282862Y48715D01*
X283600Y48650D01*
Y27150D01*
X280850D01*
X280590Y27127D01*
X280337Y27060D01*
X280100Y26949D01*
X279886Y26799D01*
X279701Y26614D01*
X279551Y26400D01*
X279440Y26163D01*
X279373Y25910D01*
X279350Y25650D01*
Y20150D01*
X279373Y19890D01*
X279440Y19637D01*
X279551Y19400D01*
X279701Y19186D01*
X279886Y19001D01*
X280100Y18851D01*
X280337Y18740D01*
X280590Y18673D01*
X280850Y18650D01*
X283600D01*
Y13400D01*
G37*
G36*
X276100D02*X263600D01*
Y48400D01*
X264381Y48468D01*
X265139Y48671D01*
X265850Y49003D01*
X266493Y49453D01*
X267047Y50007D01*
X267497Y50650D01*
X267829Y51361D01*
X268032Y52119D01*
X268100Y52900D01*
X268032Y53681D01*
X267829Y54439D01*
X267497Y55150D01*
X267047Y55793D01*
X266493Y56347D01*
X265850Y56797D01*
X265139Y57129D01*
X264381Y57332D01*
X263600Y57400D01*
Y78400D01*
X264381Y78468D01*
X265139Y78671D01*
X265850Y79003D01*
X266493Y79453D01*
X267047Y80007D01*
X267497Y80650D01*
X267829Y81361D01*
X268032Y82119D01*
X268100Y82900D01*
X268032Y83681D01*
X267829Y84439D01*
X267497Y85150D01*
X267047Y85793D01*
X266493Y86347D01*
X265850Y86797D01*
X265139Y87129D01*
X264381Y87332D01*
X263600Y87400D01*
Y137400D01*
X265100Y138900D01*
X276100D01*
Y135400D01*
X273100D01*
X272840Y135377D01*
X272587Y135310D01*
X272350Y135199D01*
X272136Y135049D01*
X271951Y134864D01*
X271801Y134650D01*
X271690Y134413D01*
X271623Y134160D01*
X271600Y133900D01*
Y127900D01*
X271623Y127640D01*
X271690Y127387D01*
X271801Y127150D01*
X271951Y126936D01*
X272136Y126751D01*
X272350Y126601D01*
X272587Y126490D01*
X272840Y126423D01*
X273100Y126400D01*
X276100D01*
Y13400D01*
G37*
G36*
X263600D02*X253600D01*
Y33694D01*
X253838Y33715D01*
X254554Y33906D01*
X255225Y34219D01*
X255832Y34644D01*
X256356Y35168D01*
X256781Y35775D01*
X257094Y36446D01*
X257285Y37162D01*
X257350Y37900D01*
X257285Y38638D01*
X257094Y39354D01*
X256781Y40025D01*
X256356Y40632D01*
X255832Y41156D01*
X255225Y41581D01*
X254554Y41894D01*
X253838Y42085D01*
X253600Y42106D01*
Y48400D01*
X254381Y48468D01*
X255139Y48671D01*
X255850Y49003D01*
X256493Y49453D01*
X257047Y50007D01*
X257497Y50650D01*
X257829Y51361D01*
X258032Y52119D01*
X258100Y52900D01*
X258032Y53681D01*
X257829Y54439D01*
X257497Y55150D01*
X257047Y55793D01*
X256493Y56347D01*
X255850Y56797D01*
X255139Y57129D01*
X254381Y57332D01*
X253600Y57400D01*
Y75072D01*
X255014Y76486D01*
X255015Y76485D01*
X255077Y76559D01*
X255132Y76614D01*
X255176Y76677D01*
X255239Y76752D01*
X255289Y76839D01*
X255332Y76900D01*
X255361Y76963D01*
X255414Y77054D01*
X255451Y77156D01*
X255479Y77216D01*
X255497Y77283D01*
X255533Y77382D01*
X255550Y77478D01*
X255570Y77553D01*
X255577Y77635D01*
X255593Y77726D01*
Y77819D01*
X255600Y77900D01*
Y78886D01*
X255850Y79003D01*
X256493Y79453D01*
X257047Y80007D01*
X257497Y80650D01*
X257829Y81361D01*
X258032Y82119D01*
X258100Y82900D01*
X258032Y83681D01*
X257829Y84439D01*
X257497Y85150D01*
X257047Y85793D01*
X256493Y86347D01*
X255850Y86797D01*
X255139Y87129D01*
X254381Y87332D01*
X253600Y87400D01*
Y127400D01*
X263600Y137400D01*
Y87400D01*
X262819Y87332D01*
X262061Y87129D01*
X261350Y86797D01*
X260707Y86347D01*
X260153Y85793D01*
X259703Y85150D01*
X259371Y84439D01*
X259168Y83681D01*
X259100Y82900D01*
X259168Y82119D01*
X259371Y81361D01*
X259703Y80650D01*
X260153Y80007D01*
X260707Y79453D01*
X261350Y79003D01*
X262061Y78671D01*
X262819Y78468D01*
X263600Y78400D01*
Y57400D01*
X262819Y57332D01*
X262061Y57129D01*
X261350Y56797D01*
X260707Y56347D01*
X260153Y55793D01*
X259703Y55150D01*
X259371Y54439D01*
X259168Y53681D01*
X259100Y52900D01*
X259168Y52119D01*
X259371Y51361D01*
X259703Y50650D01*
X260153Y50007D01*
X260707Y49453D01*
X261350Y49003D01*
X262061Y48671D01*
X262819Y48468D01*
X263600Y48400D01*
Y13400D01*
G37*
G36*
X253600Y87400D02*X252819Y87332D01*
X252061Y87129D01*
X251350Y86797D01*
X250707Y86347D01*
X250153Y85793D01*
X249703Y85150D01*
X249371Y84439D01*
X249168Y83681D01*
X249100Y82900D01*
X249168Y82119D01*
X249371Y81361D01*
X249703Y80650D01*
X250153Y80007D01*
X250707Y79453D01*
X251350Y79003D01*
X251600Y78887D01*
Y78730D01*
X248600Y75730D01*
Y124900D01*
X251100D01*
X253600Y127400D01*
Y87400D01*
G37*
G36*
Y13400D02*X248600D01*
Y70072D01*
X253600Y75072D01*
Y57400D01*
X252819Y57332D01*
X252061Y57129D01*
X251350Y56797D01*
X250707Y56347D01*
X250153Y55793D01*
X249703Y55150D01*
X249371Y54439D01*
X249168Y53681D01*
X249100Y52900D01*
X249168Y52119D01*
X249371Y51361D01*
X249703Y50650D01*
X250153Y50007D01*
X250707Y49453D01*
X251350Y49003D01*
X252061Y48671D01*
X252819Y48468D01*
X253600Y48400D01*
Y42106D01*
X253100Y42150D01*
X252362Y42085D01*
X251646Y41894D01*
X250975Y41581D01*
X250368Y41156D01*
X249844Y40632D01*
X249419Y40025D01*
X249106Y39354D01*
X248915Y38638D01*
X248850Y37900D01*
X248915Y37162D01*
X249106Y36446D01*
X249419Y35775D01*
X249844Y35168D01*
X250368Y34644D01*
X250975Y34219D01*
X251646Y33906D01*
X252362Y33715D01*
X253100Y33650D01*
X253600Y33694D01*
Y13400D01*
G37*
G36*
X243600Y124900D02*X248600D01*
Y75730D01*
X243600Y70730D01*
Y78400D01*
X244381Y78468D01*
X245139Y78671D01*
X245850Y79003D01*
X246493Y79453D01*
X247047Y80007D01*
X247497Y80650D01*
X247829Y81361D01*
X248032Y82119D01*
X248100Y82900D01*
X248032Y83681D01*
X247829Y84439D01*
X247497Y85150D01*
X247047Y85793D01*
X246493Y86347D01*
X245850Y86797D01*
X245139Y87129D01*
X244381Y87332D01*
X243600Y87400D01*
Y124900D01*
G37*
G36*
X248600Y13400D02*X243600D01*
Y18650D01*
X244338Y18715D01*
X245054Y18906D01*
X245725Y19219D01*
X246332Y19644D01*
X246856Y20168D01*
X247281Y20775D01*
X247594Y21446D01*
X247785Y22162D01*
X247850Y22900D01*
X247785Y23638D01*
X247594Y24354D01*
X247281Y25025D01*
X246856Y25632D01*
X246332Y26156D01*
X245725Y26581D01*
X245054Y26894D01*
X244338Y27085D01*
X243600Y27150D01*
Y48400D01*
X244381Y48468D01*
X245139Y48671D01*
X245850Y49003D01*
X246493Y49453D01*
X247047Y50007D01*
X247497Y50650D01*
X247829Y51361D01*
X248032Y52119D01*
X248100Y52900D01*
X248032Y53681D01*
X247829Y54439D01*
X247497Y55150D01*
X247047Y55793D01*
X246493Y56347D01*
X245850Y56797D01*
X245600Y56914D01*
Y67072D01*
X248600Y70072D01*
Y13400D01*
G37*
G36*
X243600D02*X237600D01*
Y48787D01*
X237749Y48936D01*
X237899Y49150D01*
X238010Y49387D01*
X238077Y49640D01*
X238100Y49900D01*
Y55900D01*
X238077Y56160D01*
X238010Y56413D01*
X237899Y56650D01*
X237749Y56864D01*
X237600Y57013D01*
Y80871D01*
X237829Y81361D01*
X238032Y82119D01*
X238100Y82900D01*
X238032Y83681D01*
X237829Y84439D01*
X237600Y84929D01*
Y110900D01*
X240600D01*
X240860Y110923D01*
X241113Y110990D01*
X241350Y111101D01*
X241564Y111251D01*
X241749Y111436D01*
X241899Y111650D01*
X242010Y111887D01*
X242077Y112140D01*
X242100Y112400D01*
Y118400D01*
X242077Y118660D01*
X242010Y118913D01*
X241899Y119150D01*
X241749Y119364D01*
X241564Y119549D01*
X241350Y119699D01*
X241113Y119810D01*
X240860Y119877D01*
X240600Y119900D01*
X237600D01*
Y124900D01*
X243600D01*
Y87400D01*
X242819Y87332D01*
X242061Y87129D01*
X241350Y86797D01*
X240707Y86347D01*
X240153Y85793D01*
X239703Y85150D01*
X239371Y84439D01*
X239168Y83681D01*
X239100Y82900D01*
X239168Y82119D01*
X239371Y81361D01*
X239703Y80650D01*
X240153Y80007D01*
X240707Y79453D01*
X241350Y79003D01*
X242061Y78671D01*
X242819Y78468D01*
X243600Y78400D01*
Y70730D01*
X242185Y69315D01*
X242186Y69314D01*
X242134Y69252D01*
X242068Y69186D01*
X242015Y69110D01*
X241962Y69047D01*
X241921Y68975D01*
X241868Y68900D01*
X241829Y68816D01*
X241788Y68745D01*
X241759Y68665D01*
X241721Y68584D01*
X241699Y68502D01*
X241668Y68418D01*
X241653Y68332D01*
X241630Y68247D01*
X241622Y68154D01*
X241608Y68074D01*
Y67992D01*
X241600Y67900D01*
Y56914D01*
X241350Y56797D01*
X240707Y56347D01*
X240153Y55793D01*
X239703Y55150D01*
X239371Y54439D01*
X239168Y53681D01*
X239100Y52900D01*
X239168Y52119D01*
X239371Y51361D01*
X239703Y50650D01*
X240153Y50007D01*
X240707Y49453D01*
X241350Y49003D01*
X242061Y48671D01*
X242819Y48468D01*
X243600Y48400D01*
Y27150D01*
X242862Y27085D01*
X242146Y26894D01*
X241475Y26581D01*
X240868Y26156D01*
X240344Y25632D01*
X239919Y25025D01*
X239606Y24354D01*
X239415Y23638D01*
X239350Y22900D01*
X239415Y22162D01*
X239606Y21446D01*
X239919Y20775D01*
X240344Y20168D01*
X240868Y19644D01*
X241475Y19219D01*
X242146Y18906D01*
X242862Y18715D01*
X243600Y18650D01*
Y13400D01*
G37*
G36*
X237600D02*X211100D01*
Y18650D01*
X213850D01*
X214110Y18673D01*
X214363Y18740D01*
X214600Y18851D01*
X214814Y19001D01*
X214999Y19186D01*
X215149Y19400D01*
X215260Y19637D01*
X215327Y19890D01*
X215350Y20150D01*
Y25650D01*
X215327Y25910D01*
X215260Y26163D01*
X215149Y26400D01*
X214999Y26614D01*
X214814Y26799D01*
X214600Y26949D01*
X214363Y27060D01*
X214110Y27127D01*
X213850Y27150D01*
X211100D01*
Y58650D01*
X211838Y58715D01*
X212554Y58906D01*
X213225Y59219D01*
X213832Y59644D01*
X214356Y60168D01*
X214781Y60775D01*
X215094Y61446D01*
X215285Y62162D01*
X215350Y62900D01*
X215285Y63638D01*
X215094Y64354D01*
X214781Y65025D01*
X214356Y65632D01*
X213832Y66156D01*
X213225Y66581D01*
X212554Y66894D01*
X211838Y67085D01*
X211100Y67150D01*
Y71150D01*
X213850D01*
X214110Y71173D01*
X214363Y71240D01*
X214600Y71351D01*
X214814Y71501D01*
X214999Y71686D01*
X215149Y71900D01*
X215260Y72137D01*
X215327Y72390D01*
X215350Y72650D01*
Y78150D01*
X215327Y78410D01*
X215260Y78663D01*
X215149Y78900D01*
X214999Y79114D01*
X214814Y79299D01*
X214600Y79449D01*
X214363Y79560D01*
X214110Y79627D01*
X213850Y79650D01*
X211100D01*
Y111150D01*
X211838Y111215D01*
X212554Y111406D01*
X213225Y111719D01*
X213832Y112144D01*
X214356Y112668D01*
X214781Y113275D01*
X215094Y113946D01*
X215285Y114662D01*
X215350Y115400D01*
X215285Y116138D01*
X215094Y116854D01*
X214781Y117525D01*
X214356Y118132D01*
X213832Y118656D01*
X213225Y119081D01*
X212554Y119394D01*
X211838Y119585D01*
X211100Y119650D01*
Y124900D01*
X237600D01*
Y119900D01*
X234600D01*
X234340Y119877D01*
X234087Y119810D01*
X233850Y119699D01*
X233636Y119549D01*
X233451Y119364D01*
X233301Y119150D01*
X233190Y118913D01*
X233123Y118660D01*
X233100Y118400D01*
Y112400D01*
X233123Y112140D01*
X233190Y111887D01*
X233301Y111650D01*
X233451Y111436D01*
X233636Y111251D01*
X233850Y111101D01*
X234087Y110990D01*
X234340Y110923D01*
X234600Y110900D01*
X237600D01*
Y84929D01*
X237497Y85150D01*
X237047Y85793D01*
X236493Y86347D01*
X235850Y86797D01*
X235139Y87129D01*
X234381Y87332D01*
X233600Y87400D01*
X232819Y87332D01*
X232061Y87129D01*
X231350Y86797D01*
X230707Y86347D01*
X230153Y85793D01*
X229703Y85150D01*
X229371Y84439D01*
X229168Y83681D01*
X229100Y82900D01*
X229168Y82119D01*
X229371Y81361D01*
X229703Y80650D01*
X230153Y80007D01*
X230707Y79453D01*
X231350Y79003D01*
X232061Y78671D01*
X232819Y78468D01*
X233600Y78400D01*
X234381Y78468D01*
X235139Y78671D01*
X235850Y79003D01*
X236493Y79453D01*
X237047Y80007D01*
X237497Y80650D01*
X237600Y80871D01*
Y57013D01*
X237564Y57049D01*
X237350Y57199D01*
X237113Y57310D01*
X236860Y57377D01*
X236600Y57400D01*
X230600D01*
X230340Y57377D01*
X230087Y57310D01*
X229850Y57199D01*
X229636Y57049D01*
X229451Y56864D01*
X229301Y56650D01*
X229190Y56413D01*
X229123Y56160D01*
X229100Y55900D01*
Y49900D01*
X229123Y49640D01*
X229190Y49387D01*
X229301Y49150D01*
X229451Y48936D01*
X229636Y48751D01*
X229850Y48601D01*
X230087Y48490D01*
X230340Y48423D01*
X230600Y48400D01*
X236600D01*
X236860Y48423D01*
X237113Y48490D01*
X237350Y48601D01*
X237564Y48751D01*
X237600Y48787D01*
Y13400D01*
G37*
G36*
X211100D02*X195600D01*
Y18650D01*
X198350D01*
X198610Y18673D01*
X198863Y18740D01*
X199100Y18851D01*
X199314Y19001D01*
X199499Y19186D01*
X199649Y19400D01*
X199760Y19637D01*
X199827Y19890D01*
X199850Y20150D01*
Y25650D01*
X199827Y25910D01*
X199760Y26163D01*
X199649Y26400D01*
X199499Y26614D01*
X199314Y26799D01*
X199100Y26949D01*
X198863Y27060D01*
X198610Y27127D01*
X198350Y27150D01*
X195600D01*
Y58650D01*
X196338Y58715D01*
X197054Y58906D01*
X197725Y59219D01*
X198332Y59644D01*
X198856Y60168D01*
X199281Y60775D01*
X199594Y61446D01*
X199785Y62162D01*
X199850Y62900D01*
X199785Y63638D01*
X199594Y64354D01*
X199281Y65025D01*
X198856Y65632D01*
X198332Y66156D01*
X197725Y66581D01*
X197054Y66894D01*
X196338Y67085D01*
X195600Y67150D01*
Y95900D01*
X198600D01*
X198860Y95923D01*
X199113Y95990D01*
X199350Y96101D01*
X199564Y96251D01*
X199749Y96436D01*
X199899Y96650D01*
X200010Y96887D01*
X200077Y97140D01*
X200100Y97400D01*
Y103400D01*
X200077Y103660D01*
X200010Y103913D01*
X199899Y104150D01*
X199749Y104364D01*
X199564Y104549D01*
X199350Y104699D01*
X199113Y104810D01*
X198860Y104877D01*
X198600Y104900D01*
X195600D01*
Y117900D01*
X202100D01*
X209100Y124900D01*
X211100D01*
Y119650D01*
X210362Y119585D01*
X209646Y119394D01*
X208975Y119081D01*
X208368Y118656D01*
X207844Y118132D01*
X207419Y117525D01*
X207106Y116854D01*
X206915Y116138D01*
X206850Y115400D01*
X206915Y114662D01*
X207106Y113946D01*
X207419Y113275D01*
X207844Y112668D01*
X208368Y112144D01*
X208975Y111719D01*
X209646Y111406D01*
X210362Y111215D01*
X211100Y111150D01*
Y79650D01*
X208350D01*
X208090Y79627D01*
X207837Y79560D01*
X207600Y79449D01*
X207386Y79299D01*
X207201Y79114D01*
X207051Y78900D01*
X206940Y78663D01*
X206873Y78410D01*
X206850Y78150D01*
Y72650D01*
X206873Y72390D01*
X206940Y72137D01*
X207051Y71900D01*
X207201Y71686D01*
X207386Y71501D01*
X207600Y71351D01*
X207837Y71240D01*
X208090Y71173D01*
X208350Y71150D01*
X211100D01*
Y67150D01*
X210362Y67085D01*
X209646Y66894D01*
X208975Y66581D01*
X208368Y66156D01*
X207844Y65632D01*
X207419Y65025D01*
X207106Y64354D01*
X206915Y63638D01*
X206850Y62900D01*
X206915Y62162D01*
X207106Y61446D01*
X207419Y60775D01*
X207844Y60168D01*
X208368Y59644D01*
X208975Y59219D01*
X209646Y58906D01*
X210362Y58715D01*
X211100Y58650D01*
Y27150D01*
X208350D01*
X208090Y27127D01*
X207837Y27060D01*
X207600Y26949D01*
X207386Y26799D01*
X207201Y26614D01*
X207051Y26400D01*
X206940Y26163D01*
X206873Y25910D01*
X206850Y25650D01*
Y20150D01*
X206873Y19890D01*
X206940Y19637D01*
X207051Y19400D01*
X207201Y19186D01*
X207386Y19001D01*
X207600Y18851D01*
X207837Y18740D01*
X208090Y18673D01*
X208350Y18650D01*
X211100D01*
Y13400D01*
G37*
G36*
X195600D02*X171100D01*
Y42650D01*
X172012Y42730D01*
X172896Y42967D01*
X173725Y43353D01*
X174475Y43878D01*
X175122Y44525D01*
X175647Y45275D01*
X176033Y46104D01*
X176270Y46988D01*
X176350Y47900D01*
X176270Y48812D01*
X176033Y49696D01*
X175647Y50525D01*
X175122Y51275D01*
X174475Y51922D01*
X173725Y52447D01*
X172896Y52833D01*
X172646Y52900D01*
X172896Y52967D01*
X173725Y53353D01*
X174475Y53878D01*
X175122Y54525D01*
X175647Y55275D01*
X176033Y56104D01*
X176270Y56988D01*
X176350Y57900D01*
X176270Y58812D01*
X176033Y59696D01*
X175647Y60525D01*
X175122Y61275D01*
X174475Y61922D01*
X173725Y62447D01*
X172896Y62833D01*
X172012Y63070D01*
X171100Y63150D01*
Y68900D01*
X184100Y81900D01*
Y106900D01*
X195100Y117900D01*
X195600D01*
Y104900D01*
X192600D01*
X192340Y104877D01*
X192087Y104810D01*
X191850Y104699D01*
X191636Y104549D01*
X191451Y104364D01*
X191301Y104150D01*
X191190Y103913D01*
X191123Y103660D01*
X191100Y103400D01*
Y97400D01*
X191123Y97140D01*
X191190Y96887D01*
X191301Y96650D01*
X191451Y96436D01*
X191636Y96251D01*
X191850Y96101D01*
X192087Y95990D01*
X192340Y95923D01*
X192600Y95900D01*
X195600D01*
Y67150D01*
X194862Y67085D01*
X194146Y66894D01*
X193475Y66581D01*
X192868Y66156D01*
X192344Y65632D01*
X191919Y65025D01*
X191606Y64354D01*
X191415Y63638D01*
X191350Y62900D01*
X191415Y62162D01*
X191606Y61446D01*
X191919Y60775D01*
X192344Y60168D01*
X192868Y59644D01*
X193475Y59219D01*
X194146Y58906D01*
X194862Y58715D01*
X195600Y58650D01*
Y27150D01*
X192850D01*
X192590Y27127D01*
X192337Y27060D01*
X192100Y26949D01*
X191886Y26799D01*
X191701Y26614D01*
X191551Y26400D01*
X191440Y26163D01*
X191373Y25910D01*
X191350Y25650D01*
Y20150D01*
X191373Y19890D01*
X191440Y19637D01*
X191551Y19400D01*
X191701Y19186D01*
X191886Y19001D01*
X192100Y18851D01*
X192337Y18740D01*
X192590Y18673D01*
X192850Y18650D01*
X195600D01*
Y13400D01*
G37*
G36*
X171100D02*X165100D01*
Y62900D01*
X171100Y68900D01*
Y63150D01*
X170188Y63070D01*
X169304Y62833D01*
X168475Y62447D01*
X167725Y61922D01*
X167078Y61275D01*
X166553Y60525D01*
X166167Y59696D01*
X165930Y58812D01*
X165850Y57900D01*
X165930Y56988D01*
X166167Y56104D01*
X166553Y55275D01*
X167078Y54525D01*
X167725Y53878D01*
X168475Y53353D01*
X169304Y52967D01*
X169554Y52900D01*
X169304Y52833D01*
X168475Y52447D01*
X167725Y51922D01*
X167078Y51275D01*
X166553Y50525D01*
X166167Y49696D01*
X165930Y48812D01*
X165850Y47900D01*
X165930Y46988D01*
X166167Y46104D01*
X166553Y45275D01*
X167078Y44525D01*
X167725Y43878D01*
X168475Y43353D01*
X169304Y42967D01*
X170188Y42730D01*
X171100Y42650D01*
Y13400D01*
G37*
G54D12*X331100Y859900D02*X428600D01*
X256100Y849900D02*X423600D01*
X243600Y864900D02*Y847400D01*
X336100Y887400D02*Y877400D01*
Y887400D02*X331100Y892400D01*
X346100Y806400D02*X347600Y804900D01*
X346100Y832400D02*Y806400D01*
G54D14*X350100Y824400D02*X357600D01*
X359100Y822900D02*X357600Y824400D01*
X359100Y822900D02*Y808900D01*
G54D12*X340600Y804900D02*X381600D01*
G54D13*X345600Y832900D02*X346100Y832400D01*
X331600Y842900D02*X346100D01*
X329100Y840400D02*X331600Y842900D01*
X329100Y840400D02*Y803900D01*
G54D14*X341600Y824400D02*X340100Y825900D01*
Y808900D02*X341600Y810400D01*
Y824400D02*Y810400D01*
X332600Y808900D02*X340100D01*
X332600Y825900D02*X340100D01*
G54D12*X158600Y892400D02*X331100D01*
X318600Y882400D02*X323600Y877400D01*
X261100Y882400D02*X318600D01*
X323600Y877400D02*Y867400D01*
X331100Y859900D01*
X243600Y864900D02*X261100Y882400D01*
G54D13*X376600Y467900D02*Y459400D01*
X382100Y453900D01*
G54D11*X374100Y591900D02*X383600Y582400D01*
X374100Y633400D02*Y591900D01*
G54D12*X307600Y771900D02*X340600Y804900D01*
G54D13*X277100Y761900D02*X283100Y767900D01*
X277100Y761900D02*Y706900D01*
X263600Y693400D02*X277100Y706900D01*
G54D12*X307600Y771900D02*Y707900D01*
X315600Y699900D02*X307600Y707900D01*
G54D14*X311600Y728400D02*X319100D01*
X320600Y743900D02*X319100Y745400D01*
Y728400D02*X320600Y729900D01*
Y743900D02*Y729900D01*
X311600Y745400D02*X319100D01*
G54D12*X315600Y699900D02*Y670400D01*
G54D11*X324100Y667400D02*X304600Y647900D01*
G54D12*X298600Y653400D02*Y627400D01*
Y653400D02*X315600Y670400D01*
X310100Y639900D02*X328600D01*
X310100D02*X298600Y628400D01*
G54D14*X302100Y625900D02*X309600D01*
G54D12*X282100Y592400D02*X312600D01*
G54D13*X270600Y582400D02*X282100D01*
X270600D02*X264600Y588400D01*
Y631900D02*Y588400D01*
X328600Y629900D02*X335600D01*
X363600Y657900D01*
G54D11*X327100Y613900D02*X314100Y626900D01*
G54D12*X298600Y628400D02*Y567400D01*
G54D11*X327100Y613900D02*Y573400D01*
G54D14*X311100Y624400D02*X309600Y625900D01*
Y608900D02*X311100Y610400D01*
Y624400D02*Y610400D01*
X302100Y608900D02*X309600D01*
G54D12*X298600Y568400D02*Y558400D01*
X306600Y550400D01*
X312600D01*
G54D11*X305600Y464900D02*X311100Y470400D01*
G54D14*X301100Y498400D02*X299600Y499900D01*
Y482900D02*X301100Y484400D01*
Y498400D02*Y484400D01*
G54D13*X288600Y467900D02*X296100D01*
G54D14*X292100Y482900D02*X299600D01*
X292100Y499900D02*X299600D01*
X364600Y495900D02*X366100Y497400D01*
X349100D02*X350600Y495900D01*
X364600D01*
X349100Y504900D02*Y497400D01*
X366100Y504900D02*Y497400D01*
G54D11*X311100Y493900D02*X327100Y509900D01*
G54D12*X384100Y802400D02*X381600Y804900D01*
X384100Y802400D02*Y737900D01*
G54D11*X278100Y669900D02*X282100D01*
X274100Y665900D02*X278100Y669900D01*
X333100Y740400D02*Y679900D01*
X306100Y674400D02*X283600Y696900D01*
Y717400D02*Y696900D01*
X324100Y694400D02*Y667400D01*
X333100Y740400D02*X316100Y757400D01*
X283600Y742400D02*X298600Y757400D01*
G54D13*X283100Y767900D02*X293100D01*
G54D11*X176100Y846900D02*Y740900D01*
Y846900D02*X170600Y852400D01*
X191100Y841900D02*Y740900D01*
Y841900D02*X170600Y862400D01*
X283600Y742400D02*Y716900D01*
G54D13*X199600Y671900D02*X221100Y693400D01*
X263600D01*
X293100Y767900D02*X329100Y803900D01*
X383600Y690400D02*X394100Y679900D01*
G54D12*X369100Y651900D02*X430600D01*
X363600Y664900D02*Y657400D01*
X369100Y651900D02*X363600Y657400D01*
G54D14*X425100Y685900D02*X426600Y684400D01*
G54D13*X383600Y694900D02*Y690400D01*
G54D11*Y694900D02*X393600D01*
G54D14*X426600Y701400D02*X425100Y699900D01*
Y685900D01*
G54D11*X403600Y717400D02*Y694900D01*
X417100Y784400D02*X431100D01*
G54D14*X396600Y798400D02*X395100Y799900D01*
Y782900D02*X396600Y784400D01*
Y798400D02*Y784400D01*
G54D11*X393600Y727400D02*X403600Y717400D01*
G54D12*X371100Y757400D02*X383600D01*
G54D11*X373600Y727400D02*X393600D01*
G54D12*X384100Y737900D02*X373600Y727400D01*
G54D14*X387600Y782900D02*X395100D01*
X387600Y799900D02*X395100D01*
G54D11*X316600Y443900D02*Y387900D01*
Y443900D02*X326600Y453900D01*
X331600D02*X336600Y458900D01*
X326600Y453900D02*X331600D01*
X336600Y467900D02*Y458900D01*
X327100Y573900D02*Y509900D01*
G54D12*X288600Y558400D02*X298600D01*
X296100Y467900D02*X337100Y508900D01*
X378600D01*
G54D14*X413100Y499900D02*X417600D01*
G54D13*X417100Y542400D02*X430100D01*
G54D14*X432100Y553900D02*Y547900D01*
Y553900D02*X430600Y555400D01*
X416600D02*X430600D01*
X416600D02*X415100Y553900D01*
Y547900D01*
G54D11*X312600Y503900D02*X321100Y512400D01*
X268100Y529400D02*X269100D01*
G54D13*X239100Y499400D02*Y467900D01*
Y499400D02*X269100Y529400D01*
X288600D02*Y457400D01*
G54D12*X190600Y426400D02*X217100Y452900D01*
X261600D01*
X269100Y445400D01*
G54D11*X294600Y418400D02*X294100Y417900D01*
Y400400D02*X276600Y417900D01*
G54D12*X259100D02*Y397900D01*
X269100Y445400D02*Y427900D01*
X259100Y417900D01*
G54D13*X288600Y457400D02*X269100Y437900D01*
G54D14*X229100Y471900D02*X227600Y473400D01*
X229100Y471900D02*Y457900D01*
X220100Y473400D02*X227600D01*
Y456400D02*X229100Y457900D01*
X220100Y456400D02*X227600D01*
G54D11*X277600Y602400D02*X282100D01*
X274100Y665900D02*Y605900D01*
X277600Y602400D02*X274100Y605900D01*
G54D14*X253600Y611400D02*X252100Y609900D01*
G54D13*X264600Y631900D02*X256100Y640400D01*
G54D14*X253600Y611400D02*X261100D01*
X252100Y609900D02*Y595900D01*
G54D12*X216600Y648400D02*Y452900D01*
Y558400D02*X289600D01*
G54D14*X220600Y566400D02*X228100D01*
X252100Y595900D02*X253600Y594400D01*
X261100D01*
X220600Y583400D02*X228100D01*
G54D13*X238600Y640400D02*X256100D01*
G54D14*X229600Y581900D02*X228100Y583400D01*
Y566400D02*X229600Y567900D01*
Y581900D02*Y567900D01*
G54D12*X216600Y648400D02*X238600Y670400D01*
Y660400D01*
G54D14*X229100Y643900D02*X227600Y645400D01*
X220100D02*X227600D01*
X212100Y643900D02*X210600Y645400D01*
G54D12*X217100Y622400D02*X238600D01*
G54D14*X227600Y628400D02*X229100Y629900D01*
Y643900D02*Y629900D01*
X220100Y628400D02*X227600D01*
X168600Y674900D02*X170100Y673400D01*
X177600D01*
X179100Y674900D02*X177600Y673400D01*
X168600Y688900D02*Y674900D01*
X179100Y688900D02*Y674900D01*
X210600Y628400D02*X212100Y629900D01*
Y643900D02*Y629900D01*
X203100Y628400D02*X210600D01*
X203100Y645400D02*X210600D01*
G54D12*X158600Y892400D02*X148600Y882400D01*
X126100Y819900D02*X148600Y842400D01*
Y882400D02*Y842400D01*
G54D11*X176100Y704900D02*X183600Y712400D01*
Y733400D02*Y712400D01*
Y733400D02*X191100Y740900D01*
G54D14*X139600Y785400D02*Y761400D01*
X138100Y759900D02*X139600Y761400D01*
X130600Y786900D02*X138100D01*
X130600Y759900D02*X138100D01*
X139600Y785400D02*X138100Y786900D01*
G54D12*X428600Y859900D02*X436600Y851900D01*
G54D11*X411100Y717400D02*X403600Y724900D01*
X411100Y717400D02*X413600D01*
X403600Y774900D02*Y724900D01*
G54D14*X335600Y304900D02*X337100Y306400D01*
X328100Y304900D02*X335600D01*
X337100Y329400D02*X335600Y330900D01*
X328100D02*X335600D01*
X337100Y329400D02*Y306400D01*
G54D11*X294100Y369400D02*X310600Y352900D01*
X305600Y464900D02*Y377900D01*
X325600Y357900D02*X305600Y377900D01*
X294100Y400400D02*Y369400D01*
X351600Y387900D02*X356600D01*
X351600D02*X336600Y402900D01*
G54D14*X428100Y333400D02*Y319400D01*
X419100Y334900D02*X426600D01*
X419100Y317900D02*X426600D01*
G54D12*X436600Y851900D02*Y25900D01*
G54D14*X417600Y499900D02*X420100Y502400D01*
Y528900D02*Y502400D01*
Y528900D02*X417600Y531400D01*
X413100D02*X417600D01*
G54D13*X394100Y679900D02*X436600D01*
G54D12*X378600Y508900D02*X415600Y471900D01*
G54D11*X410100Y551900D02*Y494900D01*
G54D13*X396600Y437900D02*X415600D01*
X396600Y467900D02*X415600D01*
X382100Y453900D02*X415600D01*
G54D14*X426600Y701400D02*X432600D01*
X426600Y684400D02*X432600D01*
G54D12*X436600Y25900D02*X428600Y17900D01*
X424600Y151900D02*X408600Y135900D01*
X424600Y183400D02*X412600Y195400D01*
X382100Y135900D02*X408600D01*
G54D13*X378600Y111400D02*X424600Y65400D01*
X378600Y123400D02*Y91900D01*
G54D12*X382100Y135900D02*X378600Y132400D01*
Y123400D01*
G54D13*X378993Y45478D02*X380178D01*
X378600Y123400D02*Y111400D01*
G54D12*X415600Y471900D02*Y192900D01*
X424600Y183400D02*Y151900D01*
G54D14*X427100Y276400D02*X433100D01*
X404100Y27900D02*Y21900D01*
X387100Y27900D02*Y21900D01*
X427100Y276400D02*X425600Y274900D01*
Y260900D01*
X427100Y259400D01*
X404100Y27900D02*X402600Y29400D01*
X388600D02*X402600D01*
X388600D02*X387100Y27900D01*
X427100Y259400D02*X433100D01*
X428100Y333400D02*X426600Y334900D01*
Y317900D02*X428100Y319400D01*
G54D12*X148600Y108900D02*X126100Y131400D01*
G54D11*X144100Y164400D02*Y142900D01*
G54D12*X148600Y108900D02*Y37900D01*
G54D11*X213100Y184900D02*X203600Y175400D01*
G54D13*X191100Y192900D02*Y157900D01*
G54D11*X154600Y149400D02*X163600Y158400D01*
Y175400D02*Y158400D01*
G54D12*X218600Y175400D02*X232600D01*
X243100Y185900D01*
X191100Y157900D02*X202600Y146400D01*
X335600Y17900D02*X428600D01*
G54D11*X206100Y413400D02*Y267900D01*
X176100Y195900D02*X206100Y225900D01*
Y269400D02*Y225900D01*
X213100Y402400D02*Y184900D01*
X224100Y293400D02*Y218400D01*
G54D12*X243100Y212400D02*Y185900D01*
G54D13*X148100Y339900D02*Y254400D01*
G54D12*X259100Y397900D02*X239100Y377900D01*
G54D11*X253600Y77900D02*X243600Y67900D01*
Y52900D01*
X253600Y82900D02*Y77900D01*
G54D12*X313600Y92900D02*Y78400D01*
G54D11*X283600Y102900D02*Y92900D01*
Y102900D02*X313600Y132900D01*
G54D12*X202600Y146400D02*X371600D01*
X313600Y78400D02*X298600Y63400D01*
G54D14*X344100Y73900D02*X351600D01*
X319600Y157900D02*X333600D01*
X319600D02*X318100Y156400D01*
Y150400D01*
G54D12*X378100Y195400D02*X412600D01*
X371600Y146400D02*X378600Y153400D01*
G54D13*Y91900D02*X365600Y78900D01*
Y58871D01*
X378993Y45478D01*
G54D14*X353100Y72400D02*X351600Y73900D01*
Y56900D02*X353100Y58400D01*
Y72400D02*Y58400D01*
X344100Y56900D02*X351600D01*
X335100Y156400D02*Y150400D01*
Y156400D02*X333600Y157900D01*
G54D12*X368600Y185900D02*X378100Y195400D01*
X355600Y217900D01*
G54D14*X332100Y204400D02*X333600Y205900D01*
X318100Y204400D02*X332100D01*
X333600Y213400D02*Y205900D01*
X316600D02*X318100Y204400D01*
X316600Y213400D02*Y205900D01*
G54D12*X248600Y217900D02*X355600D01*
X243100Y212400D02*X248600Y217900D01*
G54D11*X267100Y265400D02*Y230900D01*
Y265400D02*X276100Y274400D01*
X315600D01*
X325600Y284400D01*
Y357900D02*Y284400D01*
G54D14*X151100Y532400D02*X148600Y529900D01*
X152100Y530400D02*X150100Y528400D01*
X152100Y532400D02*Y530400D01*
G54D11*X151100Y149400D02*X154600D01*
G54D14*X153600Y533900D02*X152100Y532400D01*
X151100D02*X152100D01*
X148100Y509400D02*X147100Y508400D01*
Y510900D02*X147600D01*
X148100Y512900D02*Y509400D01*
X147100Y513900D02*X148100Y512900D01*
X147100Y508400D02*Y506900D01*
G54D13*X148100Y339900D02*X180100Y371900D01*
G54D12*X176100Y293400D02*X162600Y306900D01*
G54D11*X176100Y195900D02*Y157900D01*
G54D12*X162600Y335400D02*Y306900D01*
G54D14*X160600Y278900D02*X159100Y280400D01*
Y263400D02*X160600Y264900D01*
Y278900D02*Y264900D01*
X151600Y263400D02*X159100D01*
X151600Y280400D02*X159100D01*
G54D12*X162600Y335400D02*X190600Y363400D01*
G54D13*X199600Y672400D02*Y464900D01*
X180100Y445400D02*Y371900D01*
Y445400D02*X199600Y464900D01*
G54D12*X126100Y819900D02*Y131400D01*
G54D14*X136600Y517900D02*X137100D01*
X136100Y519400D02*Y515400D01*
X137600Y218400D02*X139100Y219900D01*
X130100Y245400D02*X137600D01*
X130100Y218400D02*X137600D01*
X139100Y243900D02*X137600Y245400D01*
X139100Y243900D02*Y219900D01*
X137600Y557900D02*X139100Y559400D01*
X130100Y584900D02*X137600D01*
X130100Y557900D02*X137600D01*
X139100Y583400D02*X137600Y584900D01*
X139100Y583400D02*Y559400D01*
X137600Y521900D02*Y512900D01*
G54D12*X190600Y426400D02*Y363400D01*
G54D14*X148600Y529900D02*X150100Y528400D01*
X153600Y535900D02*Y533900D01*
X138100Y534400D02*X151100D01*
X138100Y538900D02*Y534400D01*
Y538900D02*X151100D01*
X153100Y536400D02*X153600Y535900D01*
X152100Y536400D02*X153100D01*
X152100D02*X151100Y535400D01*
Y537400D02*X152100Y536400D01*
X151100Y538900D02*Y537400D01*
Y538900D02*Y534400D01*
X145100Y511900D02*X146100D01*
X145100D02*X143600Y510400D01*
X140100D02*X143600D01*
G54D15*Y515400D02*Y513900D01*
X142600Y512900D01*
X141100D02*X142600D01*
X141100D02*X140100Y513900D01*
G54D14*X143600Y515400D02*X145100Y513900D01*
X146100Y511900D02*Y509400D01*
X147100Y508400D02*X146100Y509400D01*
X145100Y513900D02*X147100D01*
X140100Y510400D02*X137600Y512900D01*
G54D15*X140100Y520400D02*Y513900D01*
G54D14*X143600Y516400D02*Y515400D01*
Y522900D02*Y515900D01*
G54D15*X140100Y520400D02*X141600Y521900D01*
X143600Y519900D01*
G54D14*X139600Y523900D02*X142100D01*
X137600Y521900D02*X139600Y523900D01*
X143100Y524900D02*X145600D01*
X143600Y522900D01*
X142100Y523900D02*X143100Y524900D01*
G54D15*X390600Y25370D02*X392580D01*
X394263Y27350D02*X395253D01*
X394758Y23390D02*Y27350D01*
X393768Y24380D02*X394758Y23390D01*
X396442D02*X398422D01*
X396442D02*Y25370D01*
X396937Y24875D01*
X397927D01*
X398422Y25370D01*
Y26855D01*
X397927Y27350D02*X398422Y26855D01*
X396937Y27350D02*X397927D01*
X396442Y26855D02*X396937Y27350D01*
X399611Y23390D02*Y26360D01*
X400601Y27350D01*
X401591Y26360D01*
Y23390D02*Y26360D01*
X349610Y62380D02*X349115Y62875D01*
X349610Y60895D02*Y62380D01*
X349115Y60400D02*X349610Y60895D01*
X346145Y60400D02*X349115D01*
X346145D02*X345650Y60895D01*
Y62380D01*
X346145Y62875D01*
X347135D01*
X347630Y62380D02*X347135Y62875D01*
X347630Y61390D02*Y62380D01*
X345650Y64063D02*X349610D01*
X349115D02*X349610D01*
X349115D02*X346640Y66538D01*
X345650D02*X349610D01*
X345650Y68222D02*X349610D01*
Y69707D02*X349115Y70202D01*
X346145D02*X349115D01*
X345650Y69707D02*X346145Y70202D01*
X345650Y67727D02*Y69707D01*
X349610Y67727D02*Y69707D01*
X157110Y268880D02*X156615Y269375D01*
X157110Y267395D02*Y268880D01*
X156615Y266900D02*X157110Y267395D01*
X153645Y266900D02*X156615D01*
X153645D02*X153150Y267395D01*
Y268880D01*
X153645Y269375D01*
X154635D01*
X155130Y268880D02*X154635Y269375D01*
X155130Y267890D02*Y268880D01*
X153150Y270563D02*X157110D01*
X156615D02*X157110D01*
X156615D02*X154140Y273038D01*
X153150D02*X157110D01*
X153150Y274722D02*X157110D01*
Y276207D02*X156615Y276702D01*
X153645D02*X156615D01*
X153150Y276207D02*X153645Y276702D01*
X153150Y274227D02*Y276207D01*
X157110Y274227D02*Y276207D01*
X322080Y207890D02*X322575Y208385D01*
X320595Y207890D02*X322080D01*
X320100Y208385D02*X320595Y207890D01*
X320100Y208385D02*Y211355D01*
X320595Y211850D01*
X322080D01*
X322575Y211355D01*
Y210365D02*Y211355D01*
X322080Y209870D02*X322575Y210365D01*
X321090Y209870D02*X322080D01*
X323763Y207890D02*Y211850D01*
Y207890D02*Y208385D01*
X326238Y210860D01*
Y207890D02*Y211850D01*
X327922Y207890D02*Y211850D01*
X329407Y207890D02*X329902Y208385D01*
Y211355D01*
X329407Y211850D02*X329902Y211355D01*
X327427Y211850D02*X329407D01*
X327427Y207890D02*X329407D01*
X320600Y153370D02*X322580D01*
X321590Y152380D02*Y154360D01*
X324263Y155350D02*X325253D01*
X324758Y151390D02*Y155350D01*
X323768Y152380D02*X324758Y151390D01*
X326442D02*X328422D01*
X326442D02*Y153370D01*
X326937Y152875D01*
X327927D01*
X328422Y153370D01*
Y154855D01*
X327927Y155350D02*X328422Y154855D01*
X326937Y155350D02*X327927D01*
X326442Y154855D02*X326937Y155350D01*
X329611Y151390D02*Y154360D01*
X330601Y155350D01*
X331591Y154360D01*
Y151390D02*Y154360D01*
X429630Y262900D02*Y264880D01*
X427650Y266563D02*Y267553D01*
Y267058D02*X431610D01*
X430620Y266068D02*X431610Y267058D01*
Y268742D02*Y270722D01*
X429630Y268742D02*X431610D01*
X429630D02*X430125Y269237D01*
Y270227D01*
X429630Y270722D01*
X428145D02*X429630D01*
X427650Y270227D02*X428145Y270722D01*
X427650Y269237D02*Y270227D01*
X428145Y268742D02*X427650Y269237D01*
X428640Y271911D02*X431610D01*
X428640D02*X427650Y272901D01*
X428640Y273891D01*
X431610D01*
X424610Y323380D02*X424115Y323875D01*
X424610Y321895D02*Y323380D01*
X424115Y321400D02*X424610Y321895D01*
X421145Y321400D02*X424115D01*
X421145D02*X420650Y321895D01*
Y323380D01*
X421145Y323875D01*
X422135D01*
X422630Y323380D02*X422135Y323875D01*
X422630Y322390D02*Y323380D01*
X420650Y325063D02*X424610D01*
X424115D02*X424610D01*
X424115D02*X421640Y327538D01*
X420650D02*X424610D01*
X420650Y329222D02*X424610D01*
Y330707D02*X424115Y331202D01*
X421145D02*X424115D01*
X420650Y330707D02*X421145Y331202D01*
X420650Y328727D02*Y330707D01*
X424610Y328727D02*Y330707D01*
X131150Y221895D02*Y223380D01*
X131645Y221400D02*X131150Y221895D01*
X131645Y221400D02*X134615D01*
X135110Y221895D01*
Y223380D01*
X131150Y224568D02*X135110D01*
X132635D02*X133130Y225063D01*
Y226053D01*
X132635Y226548D01*
X131150D02*X132635D01*
X133130Y229222D02*X132635Y229717D01*
X133130Y228232D02*Y229222D01*
X132635Y227737D02*X133130Y228232D01*
X131645Y227737D02*X132635D01*
X131645D02*X131150Y228232D01*
X131645Y229717D02*X133130D01*
X131645D02*X131150Y230212D01*
Y228232D02*Y229222D01*
X131645Y229717D01*
X131150Y231896D02*Y233381D01*
X131645Y233876D01*
X132140Y233381D02*X131645Y233876D01*
X132140Y231896D02*Y233381D01*
X132635Y231401D02*X132140Y231896D01*
X132635Y231401D02*X133130Y231896D01*
Y233381D01*
X132635Y233876D01*
X131645Y231401D02*X131150Y231896D01*
Y235560D02*Y237045D01*
X131645Y237540D01*
X132140Y237045D02*X131645Y237540D01*
X132140Y235560D02*Y237045D01*
X132635Y235065D02*X132140Y235560D01*
X132635Y235065D02*X133130Y235560D01*
Y237045D01*
X132635Y237540D01*
X131645Y235065D02*X131150Y235560D01*
X133625Y238729D02*X134120D01*
X131150D02*X132635D01*
X131150Y240215D02*Y241700D01*
X131645Y242195D01*
X132140Y241700D02*X131645Y242195D01*
X132140Y240215D02*Y241700D01*
X132635Y239720D02*X132140Y240215D01*
X132635Y239720D02*X133130Y240215D01*
Y241700D01*
X132635Y242195D01*
X131645Y239720D02*X131150Y240215D01*
X330630Y307900D02*Y309385D01*
X328650Y307900D02*Y309880D01*
Y307900D02*X332610D01*
Y309880D01*
X328650Y311068D02*X332610D01*
X330630D02*X332610Y313048D01*
X330630Y311068D02*X328650Y313048D01*
X332610Y316217D02*X332115Y316712D01*
X332610Y314732D02*Y316217D01*
X332115Y314237D02*X332610Y314732D01*
X329145Y314237D02*X332115D01*
X329145D02*X328650Y314732D01*
Y316217D01*
X329145Y316712D01*
X330135D01*
X330630Y316217D02*X330135Y316712D01*
X330630Y315227D02*Y316217D01*
X328650Y317901D02*Y319881D01*
X329145Y321070D02*X332115D01*
X332610Y321565D01*
Y322555D01*
X332115Y323050D01*
X329145D02*X332115D01*
X328650Y322555D02*X329145Y323050D01*
X328650Y321565D02*Y322555D01*
X329145Y321070D02*X328650Y321565D01*
X329145Y324239D02*X330630D01*
X329145D02*X328650Y324734D01*
Y325724D01*
X329145Y326219D01*
X330630D01*
X329145Y327903D02*X332610D01*
X329145D02*X328650Y328398D01*
X331125Y327408D02*Y328398D01*
X395150Y260895D02*X399110D01*
Y262380D02*X398615Y262875D01*
X395645D02*X398615D01*
X395150Y262380D02*X395645Y262875D01*
X395150Y260400D02*Y262380D01*
X399110Y260400D02*Y262380D01*
X397130Y265548D02*X396635Y266043D01*
X397130Y264558D02*Y265548D01*
X396635Y264063D02*X397130Y264558D01*
X395645Y264063D02*X396635D01*
X395645D02*X395150Y264558D01*
X395645Y266043D02*X397130D01*
X395645D02*X395150Y266538D01*
Y264558D02*Y265548D01*
X395645Y266043D01*
Y268222D02*X399110D01*
X395645D02*X395150Y268717D01*
X397625Y267727D02*Y268717D01*
X395150Y270203D02*Y271688D01*
X395645Y269708D02*X395150Y270203D01*
X395645Y269708D02*X396635D01*
X397130Y270203D01*
Y271193D01*
X396635Y271688D01*
X396140Y269708D02*Y271688D01*
X396635D01*
X397625Y272877D02*Y273372D01*
X396635Y272877D02*Y273372D01*
X398615Y276343D02*X399110Y276838D01*
Y278323D01*
X398615Y278818D01*
X397625D02*X398615D01*
X395150Y276343D02*X397625Y278818D01*
X395150Y276343D02*Y278818D01*
X395645Y280007D02*X395150Y280502D01*
X395645Y280007D02*X398615D01*
X399110Y280502D01*
Y281492D01*
X398615Y281987D01*
X395645D02*X398615D01*
X395150Y281492D02*X395645Y281987D01*
X395150Y280502D02*Y281492D01*
X396140Y280007D02*X398120Y281987D01*
X395150Y283671D02*Y284661D01*
Y284166D02*X399110D01*
X398120Y283176D02*X399110Y284166D01*
X395645Y285850D02*X395150Y286345D01*
X395645Y285850D02*X398615D01*
X399110Y286345D01*
Y287335D01*
X398615Y287830D01*
X395645D02*X398615D01*
X395150Y287335D02*X395645Y287830D01*
X395150Y286345D02*Y287335D01*
X396140Y285850D02*X398120Y287830D01*
X395150Y289019D02*Y290999D01*
X395645Y292188D02*X395150Y292683D01*
X395645Y292188D02*X398615D01*
X399110Y292683D01*
Y293673D01*
X398615Y294168D01*
X395645D02*X398615D01*
X395150Y293673D02*X395645Y294168D01*
X395150Y292683D02*Y293673D01*
X396140Y292188D02*X398120Y294168D01*
X397130Y295357D02*X399110Y297337D01*
X397130Y295357D02*Y297832D01*
X395150Y297337D02*X399110D01*
X395150Y299021D02*Y301001D01*
X398615Y302190D02*X399110Y302685D01*
Y304170D01*
X398615Y304665D01*
X397625D02*X398615D01*
X395150Y302190D02*X397625Y304665D01*
X395150Y302190D02*Y304665D01*
Y305854D02*X397130Y307834D01*
X398615D01*
X399110Y307339D02*X398615Y307834D01*
X399110Y306349D02*Y307339D01*
X398615Y305854D02*X399110Y306349D01*
X397625Y305854D02*X398615D01*
X397625D02*X397130Y306349D01*
Y307834D01*
X381150Y260895D02*X385110D01*
Y260400D02*Y262380D01*
X384615Y262875D01*
X383625D02*X384615D01*
X383130Y262380D02*X383625Y262875D01*
X383130Y260895D02*Y262380D01*
X381150Y264558D02*X382635D01*
X383130Y265053D01*
Y266043D01*
Y264063D02*X382635Y264558D01*
X383625Y267232D02*X384120D01*
X381150D02*X382635D01*
X381150Y268718D02*X382635D01*
X383130Y269213D01*
Y269708D01*
X382635Y270203D01*
X381150D02*X382635D01*
X383130Y268223D02*X382635Y268718D01*
X381645Y271887D02*X385110D01*
X381645D02*X381150Y272382D01*
X383625Y271392D02*Y272382D01*
X381150Y273868D02*Y275353D01*
X381645Y273373D02*X381150Y273868D01*
X381645Y273373D02*X382635D01*
X383130Y273868D01*
Y274858D01*
X382635Y275353D01*
X382140Y273373D02*Y275353D01*
X382635D01*
X381150Y278522D02*X385110D01*
X381150Y278027D02*X381645Y278522D01*
X381150Y277037D02*Y278027D01*
X381645Y276542D02*X381150Y277037D01*
X381645Y276542D02*X382635D01*
X383130Y277037D01*
Y278027D01*
X382635Y278522D01*
X381150Y281988D02*Y283473D01*
X381645Y281493D02*X381150Y281988D01*
X381645Y281493D02*X384615D01*
X385110Y281988D01*
Y283473D01*
X383625Y284662D02*X384120D01*
X381150D02*X382635D01*
X381150Y286148D02*X382635D01*
X383130Y286643D01*
Y287633D01*
Y285653D02*X382635Y286148D01*
X383130Y289317D02*Y290802D01*
X382635Y288822D02*X383130Y289317D01*
X381645Y288822D02*X382635D01*
X381645D02*X381150Y289317D01*
Y290802D01*
X381645Y291991D02*X383130D01*
X381645D02*X381150Y292486D01*
Y293476D01*
X381645Y293971D01*
X383130D01*
X383625Y295160D02*X384120D01*
X381150D02*X382635D01*
X381645Y296646D02*X385110D01*
X381645D02*X381150Y297141D01*
X383625Y296151D02*Y297141D01*
X381150Y299914D02*Y301894D01*
X381645Y302389D01*
X382635D01*
X383130Y301894D02*X382635Y302389D01*
X383130Y300409D02*Y301894D01*
X381150Y300409D02*X385110D01*
Y299914D02*Y301894D01*
X384615Y302389D01*
X383625D02*X384615D01*
X383130Y301894D02*X383625Y302389D01*
X381645Y303578D02*X382635D01*
X383130Y304073D01*
Y305063D01*
X382635Y305558D01*
X381645D02*X382635D01*
X381150Y305063D02*X381645Y305558D01*
X381150Y304073D02*Y305063D01*
X381645Y303578D02*X381150Y304073D01*
X383130Y308232D02*X382635Y308727D01*
X383130Y307242D02*Y308232D01*
X382635Y306747D02*X383130Y307242D01*
X381645Y306747D02*X382635D01*
X381645D02*X381150Y307242D01*
X381645Y308727D02*X383130D01*
X381645D02*X381150Y309222D01*
Y307242D02*Y308232D01*
X381645Y308727D01*
X381150Y310906D02*X382635D01*
X383130Y311401D01*
Y312391D01*
Y310411D02*X382635Y310906D01*
X381150Y315560D02*X385110D01*
X381150Y315065D02*X381645Y315560D01*
X381150Y314075D02*Y315065D01*
X381645Y313580D02*X381150Y314075D01*
X381645Y313580D02*X382635D01*
X383130Y314075D01*
Y315065D01*
X382635Y315560D01*
X381150Y319026D02*X385110D01*
Y320511D02*X384615Y321006D01*
X381645D02*X384615D01*
X381150Y320511D02*X381645Y321006D01*
X381150Y318531D02*Y320511D01*
X385110Y318531D02*Y320511D01*
X381150Y322690D02*Y324175D01*
X381645Y322195D02*X381150Y322690D01*
X381645Y322195D02*X382635D01*
X383130Y322690D01*
Y323680D01*
X382635Y324175D01*
X382140Y322195D02*Y324175D01*
X382635D01*
X381150Y325859D02*Y327344D01*
X381645Y327839D01*
X382140Y327344D02*X381645Y327839D01*
X382140Y325859D02*Y327344D01*
X382635Y325364D02*X382140Y325859D01*
X382635Y325364D02*X383130Y325859D01*
Y327344D01*
X382635Y327839D01*
X381645Y325364D02*X381150Y325859D01*
X383625Y329028D02*X384120D01*
X381150D02*X382635D01*
X383130Y331504D02*X382635Y331999D01*
X383130Y330514D02*Y331504D01*
X382635Y330019D02*X383130Y330514D01*
X381645Y330019D02*X382635D01*
X381645D02*X381150Y330514D01*
Y331504D01*
X381645Y331999D01*
X380160Y330019D02*X379665Y330514D01*
Y331504D01*
X380160Y331999D01*
X383130D01*
X381150Y333683D02*X382635D01*
X383130Y334178D01*
Y334673D01*
X382635Y335168D01*
X381150D02*X382635D01*
X383130Y333188D02*X382635Y333683D01*
X383625Y336357D02*Y336852D01*
X382635Y336357D02*Y336852D01*
X383130Y339823D02*Y341308D01*
X381150Y339823D02*Y341803D01*
Y339823D02*X385110D01*
Y341803D01*
X383130Y342992D02*Y344477D01*
X381150Y342992D02*Y344972D01*
Y342992D02*X385110D01*
Y344972D01*
X381150Y346161D02*X385110D01*
Y348141D01*
X383130Y346161D02*Y347646D01*
X390130Y260400D02*Y261885D01*
X388150Y260400D02*Y262380D01*
Y260400D02*X392110D01*
Y262380D01*
X388645Y263568D02*X392110D01*
X388645D02*X388150Y264063D01*
Y265549D02*Y267034D01*
X388645Y265054D02*X388150Y265549D01*
X388645Y265054D02*X389635D01*
X390130Y265549D01*
Y266539D01*
X389635Y267034D01*
X389140Y265054D02*Y267034D01*
X389635D01*
X390130Y268718D02*Y270203D01*
X389635Y268223D02*X390130Y268718D01*
X388645Y268223D02*X389635D01*
X388645D02*X388150Y268718D01*
Y270203D01*
X388645Y271887D02*X392110D01*
X388645D02*X388150Y272382D01*
X390625Y271392D02*Y272382D01*
X388150Y273868D02*X389635D01*
X390130Y274363D01*
Y275353D01*
Y273373D02*X389635Y273868D01*
X388645Y276542D02*X389635D01*
X390130Y277037D01*
Y278027D01*
X389635Y278522D01*
X388645D02*X389635D01*
X388150Y278027D02*X388645Y278522D01*
X388150Y277037D02*Y278027D01*
X388645Y276542D02*X388150Y277037D01*
Y280206D02*X389635D01*
X390130Y280701D01*
Y281196D01*
X389635Y281691D01*
X388150D02*X389635D01*
X390130Y279711D02*X389635Y280206D01*
X390625Y282880D02*X391120D01*
X388150D02*X389635D01*
X390130Y284366D02*Y285851D01*
X389635Y283871D02*X390130Y284366D01*
X388645Y283871D02*X389635D01*
X388645D02*X388150Y284366D01*
Y285851D01*
Y287535D02*Y289020D01*
X388645Y289515D01*
X389140Y289020D02*X388645Y289515D01*
X389140Y287535D02*Y289020D01*
X389635Y287040D02*X389140Y287535D01*
X389635Y287040D02*X390130Y287535D01*
Y289020D01*
X389635Y289515D01*
X388645Y287040D02*X388150Y287535D01*
Y292981D02*X392110D01*
Y294466D02*X391615Y294961D01*
X388645D02*X391615D01*
X388150Y294466D02*X388645Y294961D01*
X388150Y292486D02*Y294466D01*
X392110Y292486D02*Y294466D01*
X388150Y296645D02*Y298130D01*
X388645Y296150D02*X388150Y296645D01*
X388645Y296150D02*X389635D01*
X390130Y296645D01*
Y297635D01*
X389635Y298130D01*
X389140Y296150D02*Y298130D01*
X389635D01*
X388150Y299814D02*Y301299D01*
X388645Y301794D01*
X389140Y301299D02*X388645Y301794D01*
X389140Y299814D02*Y301299D01*
X389635Y299319D02*X389140Y299814D01*
X389635Y299319D02*X390130Y299814D01*
Y301299D01*
X389635Y301794D01*
X388645Y299319D02*X388150Y299814D01*
X390625Y302983D02*X391120D01*
X388150D02*X389635D01*
X390130Y305459D02*X389635Y305954D01*
X390130Y304469D02*Y305459D01*
X389635Y303974D02*X390130Y304469D01*
X388645Y303974D02*X389635D01*
X388645D02*X388150Y304469D01*
Y305459D01*
X388645Y305954D01*
X387160Y303974D02*X386665Y304469D01*
Y305459D01*
X387160Y305954D01*
X390130D01*
X388150Y307638D02*X389635D01*
X390130Y308133D01*
Y308628D01*
X389635Y309123D01*
X388150D02*X389635D01*
X390130Y307143D02*X389635Y307638D01*
X390625Y310312D02*Y310807D01*
X389635Y310312D02*Y310807D01*
X392110Y313778D02*Y314768D01*
X388150Y314273D02*X392110D01*
X388150Y313778D02*Y314768D01*
X392110Y315957D02*Y317442D01*
X388645D02*X392110D01*
X388150Y316947D02*X388645Y317442D01*
X388150Y316452D02*Y316947D01*
X388645Y315957D02*X388150Y316452D01*
X392110Y320611D02*X391615Y321106D01*
X392110Y319126D02*Y320611D01*
X391615Y318631D02*X392110Y319126D01*
X390625Y318631D02*X391615D01*
X390625D02*X390130Y319126D01*
Y320611D01*
X389635Y321106D01*
X388645D02*X389635D01*
X388150Y320611D02*X388645Y321106D01*
X388150Y319126D02*Y320611D01*
X388645Y318631D02*X388150Y319126D01*
X388645Y324077D02*X388150Y324572D01*
X390625Y324077D02*X391615D01*
X392110Y324572D01*
X389635Y324077D02*X391120Y325562D01*
X388150Y324572D02*Y325067D01*
X389140Y326057D01*
X390625Y324077D02*X388150Y326552D01*
X392110Y324572D02*Y325067D01*
X391615Y325562D01*
X391120D02*X391615D01*
X388645Y324077D02*X389635D01*
X388150Y330018D02*Y331503D01*
X388645Y329523D02*X388150Y330018D01*
X388645Y329523D02*X391615D01*
X392110Y330018D01*
Y331503D01*
X388150Y332692D02*X392110D01*
Y334672D01*
X390130Y332692D02*Y334177D01*
X392110Y337841D02*X391615Y338336D01*
X392110Y336356D02*Y337841D01*
X391615Y335861D02*X392110Y336356D01*
X388645Y335861D02*X391615D01*
X388645D02*X388150Y336356D01*
Y337841D01*
X388645Y338336D01*
X389635D01*
X390130Y337841D02*X389635Y338336D01*
X390130Y336851D02*Y337841D01*
X402150Y260895D02*Y262380D01*
X402645Y260400D02*X402150Y260895D01*
X402645Y260400D02*X405615D01*
X406110Y260895D01*
Y262380D01*
X404130Y265053D02*X403635Y265548D01*
X404130Y264063D02*Y265053D01*
X403635Y263568D02*X404130Y264063D01*
X402645Y263568D02*X403635D01*
X402645D02*X402150Y264063D01*
X402645Y265548D02*X404130D01*
X402645D02*X402150Y266043D01*
Y264063D02*Y265053D01*
X402645Y265548D01*
X402150Y267727D02*X403635D01*
X404130Y268222D01*
Y269212D01*
Y267232D02*X403635Y267727D01*
X402150Y272381D02*X406110D01*
X402150Y271886D02*X402645Y272381D01*
X402150Y270896D02*Y271886D01*
X402645Y270401D02*X402150Y270896D01*
X402645Y270401D02*X403635D01*
X404130Y270896D01*
Y271886D01*
X403635Y272381D01*
X404625Y273570D02*X405120D01*
X402150D02*X403635D01*
X402645Y274561D02*X403635D01*
X404130Y275056D01*
Y276046D01*
X403635Y276541D01*
X402645D02*X403635D01*
X402150Y276046D02*X402645Y276541D01*
X402150Y275056D02*Y276046D01*
X402645Y274561D02*X402150Y275056D01*
X402645Y278225D02*X406110D01*
X402645D02*X402150Y278720D01*
X404625Y277730D02*Y278720D01*
X404130Y281196D02*X403635Y281691D01*
X404130Y280206D02*Y281196D01*
X403635Y279711D02*X404130Y280206D01*
X402645Y279711D02*X403635D01*
X402645D02*X402150Y280206D01*
X402645Y281691D02*X404130D01*
X402645D02*X402150Y282186D01*
Y280206D02*Y281196D01*
X402645Y281691D01*
X404130Y283870D02*Y285355D01*
X403635Y283375D02*X404130Y283870D01*
X402645Y283375D02*X403635D01*
X402645D02*X402150Y283870D01*
Y285355D01*
Y286544D02*X406110D01*
X403635D02*X404130Y287039D01*
Y288029D01*
X403635Y288524D01*
X402150D02*X403635D01*
X402645Y289713D02*X403635D01*
X404130Y290208D01*
Y291198D01*
X403635Y291693D01*
X402645D02*X403635D01*
X402150Y291198D02*X402645Y291693D01*
X402150Y290208D02*Y291198D01*
X402645Y289713D02*X402150Y290208D01*
Y293377D02*X403635D01*
X404130Y293872D01*
Y294367D01*
X403635Y294862D01*
X402150D02*X403635D01*
X404130Y295357D01*
Y295852D01*
X403635Y296347D01*
X402150D02*X403635D01*
X404130Y292882D02*X403635Y293377D01*
X402150Y298031D02*Y299516D01*
X402645Y297536D02*X402150Y298031D01*
X402645Y297536D02*X403635D01*
X404130Y298031D01*
Y299021D01*
X403635Y299516D01*
X403140Y297536D02*Y299516D01*
X403635D01*
X402645Y301200D02*X406110D01*
X402645D02*X402150Y301695D01*
X404625Y300705D02*Y301695D01*
X402150Y303181D02*Y304666D01*
X402645Y302686D02*X402150Y303181D01*
X402645Y302686D02*X403635D01*
X404130Y303181D01*
Y304171D01*
X403635Y304666D01*
X403140Y302686D02*Y304666D01*
X403635D01*
X402150Y306350D02*X403635D01*
X404130Y306845D01*
Y307835D01*
Y305855D02*X403635Y306350D01*
X374150Y260895D02*X378110D01*
Y262380D02*X377615Y262875D01*
X374645D02*X377615D01*
X374150Y262380D02*X374645Y262875D01*
X374150Y260400D02*Y262380D01*
X378110Y260400D02*Y262380D01*
X374645Y264063D02*X375635D01*
X376130Y264558D01*
Y265548D01*
X375635Y266043D01*
X374645D02*X375635D01*
X374150Y265548D02*X374645Y266043D01*
X374150Y264558D02*Y265548D01*
X374645Y264063D02*X374150Y264558D01*
X376130Y267727D02*Y269212D01*
X375635Y267232D02*X376130Y267727D01*
X374645Y267232D02*X375635D01*
X374645D02*X374150Y267727D01*
Y269212D01*
X374645Y270401D02*X376130D01*
X374645D02*X374150Y270896D01*
Y271886D01*
X374645Y272381D01*
X376130D01*
X374150Y274065D02*X375635D01*
X376130Y274560D01*
Y275055D01*
X375635Y275550D01*
X374150D02*X375635D01*
X376130Y276045D01*
Y276540D01*
X375635Y277035D01*
X374150D02*X375635D01*
X376130Y273570D02*X375635Y274065D01*
X374150Y278719D02*Y280204D01*
X374645Y278224D02*X374150Y278719D01*
X374645Y278224D02*X375635D01*
X376130Y278719D01*
Y279709D01*
X375635Y280204D01*
X375140Y278224D02*Y280204D01*
X375635D01*
X374150Y281888D02*X375635D01*
X376130Y282383D01*
Y282878D01*
X375635Y283373D01*
X374150D02*X375635D01*
X376130Y281393D02*X375635Y281888D01*
X374645Y285057D02*X378110D01*
X374645D02*X374150Y285552D01*
X376625Y284562D02*Y285552D01*
X374150Y287038D02*Y288523D01*
X374645Y286543D02*X374150Y287038D01*
X374645Y286543D02*X375635D01*
X376130Y287038D01*
Y288028D01*
X375635Y288523D01*
X375140Y286543D02*Y288523D01*
X375635D01*
X374150Y291692D02*X378110D01*
X374150Y291197D02*X374645Y291692D01*
X374150Y290207D02*Y291197D01*
X374645Y289712D02*X374150Y290207D01*
X374645Y289712D02*X375635D01*
X376130Y290207D01*
Y291197D01*
X375635Y291692D01*
X376130Y296148D02*X375635Y296643D01*
X376130Y295158D02*Y296148D01*
X375635Y294663D02*X376130Y295158D01*
X374645Y294663D02*X375635D01*
X374645D02*X374150Y295158D01*
X374645Y296643D02*X376130D01*
X374645D02*X374150Y297138D01*
Y295158D02*Y296148D01*
X374645Y296643D01*
X374150Y298822D02*Y300307D01*
X374645Y300802D01*
X375140Y300307D02*X374645Y300802D01*
X375140Y298822D02*Y300307D01*
X375635Y298327D02*X375140Y298822D01*
X375635Y298327D02*X376130Y298822D01*
Y300307D01*
X375635Y300802D01*
X374645Y298327D02*X374150Y298822D01*
X375140Y303773D02*X378110D01*
X375140D02*X374150Y304763D01*
X375140Y305753D01*
X378110D01*
X377615Y306942D02*X378110Y307437D01*
Y308427D01*
X377615Y308922D01*
X374645D02*X377615D01*
X374150Y308427D02*X374645Y308922D01*
X374150Y307437D02*Y308427D01*
X374645Y306942D02*X374150Y307437D01*
X376130D02*Y308922D01*
X374150Y310111D02*Y310606D01*
X377615Y311795D02*X378110Y312290D01*
Y313775D01*
X377615Y314270D01*
X376625D02*X377615D01*
X374150Y311795D02*X376625Y314270D01*
X374150Y311795D02*Y314270D01*
X256630Y598400D02*Y600380D01*
X255640Y599390D02*X257620D01*
X258610Y601568D02*Y603548D01*
X256630Y601568D02*X258610D01*
X256630D02*X257125Y602063D01*
Y603053D01*
X256630Y603548D01*
X255145D02*X256630D01*
X254650Y603053D02*X255145Y603548D01*
X254650Y602063D02*Y603053D01*
X255145Y601568D02*X254650Y602063D01*
X255640Y604737D02*X258610D01*
X255640D02*X254650Y605727D01*
X255640Y606717D01*
X258610D01*
X307610Y614380D02*X307115Y614875D01*
X307610Y612895D02*Y614380D01*
X307115Y612400D02*X307610Y612895D01*
X304145Y612400D02*X307115D01*
X304145D02*X303650Y612895D01*
Y614380D01*
X304145Y614875D01*
X305135D01*
X305630Y614380D02*X305135Y614875D01*
X305630Y613390D02*Y614380D01*
X303650Y616063D02*X307610D01*
X307115D02*X307610D01*
X307115D02*X304640Y618538D01*
X303650D02*X307610D01*
X303650Y620222D02*X307610D01*
Y621707D02*X307115Y622202D01*
X304145D02*X307115D01*
X303650Y621707D02*X304145Y622202D01*
X303650Y619727D02*Y621707D01*
X307610Y619727D02*Y621707D01*
X297610Y488380D02*X297115Y488875D01*
X297610Y486895D02*Y488380D01*
X297115Y486400D02*X297610Y486895D01*
X294145Y486400D02*X297115D01*
X294145D02*X293650Y486895D01*
Y488380D01*
X294145Y488875D01*
X295135D01*
X295630Y488380D02*X295135Y488875D01*
X295630Y487390D02*Y488380D01*
X293650Y490063D02*X297610D01*
X297115D02*X297610D01*
X297115D02*X294640Y492538D01*
X293650D02*X297610D01*
X293650Y494222D02*X297610D01*
Y495707D02*X297115Y496202D01*
X294145D02*X297115D01*
X293650Y495707D02*X294145Y496202D01*
X293650Y493727D02*Y495707D01*
X297610Y493727D02*Y495707D01*
X225610Y461880D02*X225115Y462375D01*
X225610Y460395D02*Y461880D01*
X225115Y459900D02*X225610Y460395D01*
X222145Y459900D02*X225115D01*
X222145D02*X221650Y460395D01*
Y461880D01*
X222145Y462375D01*
X223135D01*
X223630Y461880D02*X223135Y462375D01*
X223630Y460890D02*Y461880D01*
X221650Y463563D02*X225610D01*
X225115D02*X225610D01*
X225115D02*X222640Y466038D01*
X221650D02*X225610D01*
X221650Y467722D02*X225610D01*
Y469207D02*X225115Y469702D01*
X222145D02*X225115D01*
X221650Y469207D02*X222145Y469702D01*
X221650Y467227D02*Y469207D01*
X225610Y467227D02*Y469207D01*
X226110Y571880D02*X225615Y572375D01*
X226110Y570395D02*Y571880D01*
X225615Y569900D02*X226110Y570395D01*
X222645Y569900D02*X225615D01*
X222645D02*X222150Y570395D01*
Y571880D01*
X222645Y572375D01*
X223635D01*
X224130Y571880D02*X223635Y572375D01*
X224130Y570890D02*Y571880D01*
X222150Y573563D02*X226110D01*
X225615D02*X226110D01*
X225615D02*X223140Y576038D01*
X222150D02*X226110D01*
X222150Y577722D02*X226110D01*
Y579207D02*X225615Y579702D01*
X222645D02*X225615D01*
X222150Y579207D02*X222645Y579702D01*
X222150Y577227D02*Y579207D01*
X226110Y577227D02*Y579207D01*
X317110Y733880D02*X316615Y734375D01*
X317110Y732395D02*Y733880D01*
X316615Y731900D02*X317110Y732395D01*
X313645Y731900D02*X316615D01*
X313645D02*X313150Y732395D01*
Y733880D01*
X313645Y734375D01*
X314635D01*
X315130Y733880D02*X314635Y734375D01*
X315130Y732890D02*Y733880D01*
X313150Y735563D02*X317110D01*
X316615D02*X317110D01*
X316615D02*X314140Y738038D01*
X313150D02*X317110D01*
X313150Y739722D02*X317110D01*
Y741207D02*X316615Y741702D01*
X313645D02*X316615D01*
X313150Y741207D02*X313645Y741702D01*
X313150Y739227D02*Y741207D01*
X317110Y739227D02*Y741207D01*
X225610Y633880D02*X225115Y634375D01*
X225610Y632395D02*Y633880D01*
X225115Y631900D02*X225610Y632395D01*
X222145Y631900D02*X225115D01*
X222145D02*X221650Y632395D01*
Y633880D01*
X222145Y634375D01*
X223135D01*
X223630Y633880D02*X223135Y634375D01*
X223630Y632890D02*Y633880D01*
X221650Y635563D02*X225610D01*
X225115D02*X225610D01*
X225115D02*X222640Y638038D01*
X221650D02*X225610D01*
X221650Y639722D02*X225610D01*
Y641207D02*X225115Y641702D01*
X222145D02*X225115D01*
X221650Y641207D02*X222145Y641702D01*
X221650Y639227D02*Y641207D01*
X225610Y639227D02*Y641207D01*
X176110Y678880D02*X175615Y679375D01*
X176110Y677395D02*Y678880D01*
X175615Y676900D02*X176110Y677395D01*
X172645Y676900D02*X175615D01*
X172645D02*X172150Y677395D01*
Y678880D01*
X172645Y679375D01*
X173635D01*
X174130Y678880D02*X173635Y679375D01*
X174130Y677890D02*Y678880D01*
X172150Y680563D02*X176110D01*
X175615D02*X176110D01*
X175615D02*X173140Y683038D01*
X172150D02*X176110D01*
X172150Y684722D02*X176110D01*
Y686207D02*X175615Y686702D01*
X172645D02*X175615D01*
X172150Y686207D02*X172645Y686702D01*
X172150Y684227D02*Y686207D01*
X176110Y684227D02*Y686207D01*
X131150Y561395D02*Y562880D01*
X131645Y560900D02*X131150Y561395D01*
X131645Y560900D02*X134615D01*
X135110Y561395D01*
Y562880D01*
X131150Y564068D02*X135110D01*
X132635D02*X133130Y564563D01*
Y565553D01*
X132635Y566048D01*
X131150D02*X132635D01*
X133130Y568722D02*X132635Y569217D01*
X133130Y567732D02*Y568722D01*
X132635Y567237D02*X133130Y567732D01*
X131645Y567237D02*X132635D01*
X131645D02*X131150Y567732D01*
X131645Y569217D02*X133130D01*
X131645D02*X131150Y569712D01*
Y567732D02*Y568722D01*
X131645Y569217D01*
X131150Y571396D02*Y572881D01*
X131645Y573376D01*
X132140Y572881D02*X131645Y573376D01*
X132140Y571396D02*Y572881D01*
X132635Y570901D02*X132140Y571396D01*
X132635Y570901D02*X133130Y571396D01*
Y572881D01*
X132635Y573376D01*
X131645Y570901D02*X131150Y571396D01*
Y575060D02*Y576545D01*
X131645Y577040D01*
X132140Y576545D02*X131645Y577040D01*
X132140Y575060D02*Y576545D01*
X132635Y574565D02*X132140Y575060D01*
X132635Y574565D02*X133130Y575060D01*
Y576545D01*
X132635Y577040D01*
X131645Y574565D02*X131150Y575060D01*
X133625Y578229D02*X134120D01*
X131150D02*X132635D01*
X131150Y579715D02*Y581200D01*
X131645Y581695D01*
X132140Y581200D02*X131645Y581695D01*
X132140Y579715D02*Y581200D01*
X132635Y579220D02*X132140Y579715D01*
X132635Y579220D02*X133130Y579715D01*
Y581200D01*
X132635Y581695D01*
X131645Y579220D02*X131150Y579715D01*
X131650Y763395D02*Y764880D01*
X132145Y762900D02*X131650Y763395D01*
X132145Y762900D02*X135115D01*
X135610Y763395D01*
Y764880D01*
X131650Y766068D02*X135610D01*
X133135D02*X133630Y766563D01*
Y767553D01*
X133135Y768048D01*
X131650D02*X133135D01*
X133630Y770722D02*X133135Y771217D01*
X133630Y769732D02*Y770722D01*
X133135Y769237D02*X133630Y769732D01*
X132145Y769237D02*X133135D01*
X132145D02*X131650Y769732D01*
X132145Y771217D02*X133630D01*
X132145D02*X131650Y771712D01*
Y769732D02*Y770722D01*
X132145Y771217D01*
X131650Y773396D02*Y774881D01*
X132145Y775376D01*
X132640Y774881D02*X132145Y775376D01*
X132640Y773396D02*Y774881D01*
X133135Y772901D02*X132640Y773396D01*
X133135Y772901D02*X133630Y773396D01*
Y774881D01*
X133135Y775376D01*
X132145Y772901D02*X131650Y773396D01*
Y777060D02*Y778545D01*
X132145Y779040D01*
X132640Y778545D02*X132145Y779040D01*
X132640Y777060D02*Y778545D01*
X133135Y776565D02*X132640Y777060D01*
X133135Y776565D02*X133630Y777060D01*
Y778545D01*
X133135Y779040D01*
X132145Y776565D02*X131650Y777060D01*
X134125Y780229D02*X134620D01*
X131650D02*X133135D01*
X131650Y781715D02*Y783200D01*
X132145Y783695D01*
X132640Y783200D02*X132145Y783695D01*
X132640Y781715D02*Y783200D01*
X133135Y781220D02*X132640Y781715D01*
X133135Y781220D02*X133630Y781715D01*
Y783200D01*
X133135Y783695D01*
X132145Y781220D02*X131650Y781715D01*
X208610Y633880D02*X208115Y634375D01*
X208610Y632395D02*Y633880D01*
X208115Y631900D02*X208610Y632395D01*
X205145Y631900D02*X208115D01*
X205145D02*X204650Y632395D01*
Y633880D01*
X205145Y634375D01*
X206135D01*
X206630Y633880D02*X206135Y634375D01*
X206630Y632890D02*Y633880D01*
X204650Y635563D02*X208610D01*
X208115D02*X208610D01*
X208115D02*X205640Y638038D01*
X204650D02*X208610D01*
X204650Y639722D02*X208610D01*
Y641207D02*X208115Y641702D01*
X205145D02*X208115D01*
X204650Y641207D02*X205145Y641702D01*
X204650Y639227D02*Y641207D01*
X208610Y639227D02*Y641207D01*
X354580Y499390D02*X355075Y499885D01*
X353095Y499390D02*X354580D01*
X352600Y499885D02*X353095Y499390D01*
X352600Y499885D02*Y502855D01*
X353095Y503350D01*
X354580D01*
X355075Y502855D01*
Y501865D02*Y502855D01*
X354580Y501370D02*X355075Y501865D01*
X353590Y501370D02*X354580D01*
X356263Y499390D02*Y503350D01*
Y499390D02*Y499885D01*
X358738Y502360D01*
Y499390D02*Y503350D01*
X360422Y499390D02*Y503350D01*
X361907Y499390D02*X362402Y499885D01*
Y502855D01*
X361907Y503350D02*X362402Y502855D01*
X359927Y503350D02*X361907D01*
X359927Y499390D02*X361907D01*
X161110Y486400D02*Y487885D01*
X157645D02*X161110D01*
X157150Y487390D02*X157645Y487885D01*
X157150Y486895D02*Y487390D01*
X157645Y486400D02*X157150Y486895D01*
X157645Y489073D02*X159130D01*
X157645D02*X157150Y489568D01*
Y490558D01*
X157645Y491053D01*
X159130D01*
X157150Y492737D02*Y494222D01*
X157645Y494717D01*
X158140Y494222D02*X157645Y494717D01*
X158140Y492737D02*Y494222D01*
X158635Y492242D02*X158140Y492737D01*
X158635Y492242D02*X159130Y492737D01*
Y494222D01*
X158635Y494717D01*
X157645Y492242D02*X157150Y492737D01*
X157645Y496401D02*X161110D01*
X157645D02*X157150Y496896D01*
X159625Y495906D02*Y496896D01*
X157150Y500164D02*Y501649D01*
X157645Y502144D01*
X158140Y501649D02*X157645Y502144D01*
X158140Y500164D02*Y501649D01*
X158635Y499669D02*X158140Y500164D01*
X158635Y499669D02*X159130Y500164D01*
Y501649D01*
X158635Y502144D01*
X157645Y499669D02*X157150Y500164D01*
X159130Y504818D02*X158635Y505313D01*
X159130Y503828D02*Y504818D01*
X158635Y503333D02*X159130Y503828D01*
X157645Y503333D02*X158635D01*
X157645D02*X157150Y503828D01*
X157645Y505313D02*X159130D01*
X157645D02*X157150Y505808D01*
Y503828D02*Y504818D01*
X157645Y505313D01*
Y506997D02*X159130D01*
X157645D02*X157150Y507492D01*
X156160Y508977D02*X159130D01*
X155665Y508482D02*X156160Y508977D01*
X155665Y507492D02*Y508482D01*
X156160Y506997D02*X155665Y507492D01*
X157150D02*Y508482D01*
X157645Y508977D01*
X157150Y512443D02*X158635D01*
X159130Y512938D01*
Y513433D01*
X158635Y513928D01*
X157150D02*X158635D01*
X159130Y511948D02*X158635Y512443D01*
X157645Y515117D02*X158635D01*
X159130Y515612D01*
Y516602D01*
X158635Y517097D01*
X157645D02*X158635D01*
X157150Y516602D02*X157645Y517097D01*
X157150Y515612D02*Y516602D01*
X157645Y515117D02*X157150Y515612D01*
X157645Y520563D02*X161110D01*
X157645D02*X157150Y521058D01*
X159625Y520068D02*Y521058D01*
X157645Y522049D02*X158635D01*
X159130Y522544D01*
Y523534D01*
X158635Y524029D01*
X157645D02*X158635D01*
X157150Y523534D02*X157645Y524029D01*
X157150Y522544D02*Y523534D01*
X157645Y522049D02*X157150Y522544D01*
Y527495D02*X160615D01*
X161110Y527990D01*
Y528485D01*
X159130Y527000D02*Y527990D01*
X157645Y529476D02*X161110D01*
X157645D02*X157150Y529971D01*
X159130Y532447D02*X158635Y532942D01*
X159130Y531457D02*Y532447D01*
X158635Y530962D02*X159130Y531457D01*
X157645Y530962D02*X158635D01*
X157645D02*X157150Y531457D01*
X157645Y532942D02*X159130D01*
X157645D02*X157150Y533437D01*
Y531457D02*Y532447D01*
X157645Y532942D01*
X157150Y535121D02*X158635D01*
X159130Y535616D01*
Y536111D01*
X158635Y536606D01*
X157150D02*X158635D01*
X159130Y537101D01*
Y537596D01*
X158635Y538091D01*
X157150D02*X158635D01*
X159130Y534626D02*X158635Y535121D01*
X159625Y539280D02*X160120D01*
X157150D02*X158635D01*
X157150Y540766D02*X158635D01*
X159130Y541261D01*
Y541756D01*
X158635Y542251D01*
X157150D02*X158635D01*
X159130Y540271D02*X158635Y540766D01*
X159130Y544925D02*X158635Y545420D01*
X159130Y543935D02*Y544925D01*
X158635Y543440D02*X159130Y543935D01*
X157645Y543440D02*X158635D01*
X157645D02*X157150Y543935D01*
Y544925D01*
X157645Y545420D01*
X156160Y543440D02*X155665Y543935D01*
Y544925D01*
X156160Y545420D01*
X159130D01*
X157150Y548886D02*X160615D01*
X161110Y549381D01*
Y549876D01*
X159130Y548391D02*Y549381D01*
X157645Y550867D02*X158635D01*
X159130Y551362D01*
Y552352D01*
X158635Y552847D01*
X157645D02*X158635D01*
X157150Y552352D02*X157645Y552847D01*
X157150Y551362D02*Y552352D01*
X157645Y550867D02*X157150Y551362D01*
X157645Y554036D02*X159130D01*
X157645D02*X157150Y554531D01*
Y555026D01*
X157645Y555521D01*
X159130D01*
X157645D02*X157150Y556016D01*
Y556511D01*
X157645Y557006D01*
X159130D01*
X157645Y558195D02*X161110D01*
X157645D02*X157150Y558690D01*
Y559681D02*X157645D01*
X158635D02*X161110D01*
X338110Y814380D02*X337615Y814875D01*
X338110Y812895D02*Y814380D01*
X337615Y812400D02*X338110Y812895D01*
X334645Y812400D02*X337615D01*
X334645D02*X334150Y812895D01*
Y814380D01*
X334645Y814875D01*
X335635D01*
X336130Y814380D02*X335635Y814875D01*
X336130Y813390D02*Y814380D01*
X334150Y816063D02*X338110D01*
X337615D02*X338110D01*
X337615D02*X335140Y818538D01*
X334150D02*X338110D01*
X334150Y820222D02*X338110D01*
Y821707D02*X337615Y822202D01*
X334645D02*X337615D01*
X334150Y821707D02*X334645Y822202D01*
X334150Y819727D02*Y821707D01*
X338110Y819727D02*Y821707D01*
X355610Y813380D02*X355115Y813875D01*
X355610Y811895D02*Y813380D01*
X355115Y811400D02*X355610Y811895D01*
X352145Y811400D02*X355115D01*
X352145D02*X351650Y811895D01*
Y813380D01*
X352145Y813875D01*
X353135D01*
X353630Y813380D02*X353135Y813875D01*
X353630Y812390D02*Y813380D01*
X351650Y815063D02*X355610D01*
X355115D02*X355610D01*
X355115D02*X352640Y817538D01*
X351650D02*X355610D01*
X351650Y819222D02*X355610D01*
Y820707D02*X355115Y821202D01*
X352145D02*X355115D01*
X351650Y820707D02*X352145Y821202D01*
X351650Y818727D02*Y820707D01*
X355610Y818727D02*Y820707D01*
X429130Y687900D02*Y689880D01*
X427150Y691563D02*Y692553D01*
Y692058D02*X431110D01*
X430120Y691068D02*X431110Y692058D01*
Y693742D02*Y695722D01*
X429130Y693742D02*X431110D01*
X429130D02*X429625Y694237D01*
Y695227D01*
X429130Y695722D01*
X427645D02*X429130D01*
X427150Y695227D02*X427645Y695722D01*
X427150Y694237D02*Y695227D01*
X427645Y693742D02*X427150Y694237D01*
X428140Y696911D02*X431110D01*
X428140D02*X427150Y697901D01*
X428140Y698891D01*
X431110D01*
X418100Y551370D02*X420080D01*
X419090Y550380D02*Y552360D01*
X421763Y553350D02*X422753D01*
X422258Y549390D02*Y553350D01*
X421268Y550380D02*X422258Y549390D01*
X423942D02*X425922D01*
X423942D02*Y551370D01*
X424437Y550875D01*
X425427D01*
X425922Y551370D01*
Y552855D01*
X425427Y553350D02*X425922Y552855D01*
X424437Y553350D02*X425427D01*
X423942Y552855D02*X424437Y553350D01*
X427111Y549390D02*Y552360D01*
X428101Y553350D01*
X429091Y552360D01*
Y549390D02*Y552360D01*
X413150Y502895D02*X417110D01*
Y502400D02*Y504380D01*
X416615Y504875D01*
X415625D02*X416615D01*
X415130Y504380D02*X415625Y504875D01*
X415130Y502895D02*Y504380D01*
X413645Y506063D02*X415130D01*
X413645D02*X413150Y506558D01*
Y507548D01*
X413645Y508043D01*
X415130D01*
X413645Y509232D02*X417110D01*
X413645D02*X413150Y509727D01*
Y511213D02*Y512698D01*
X413645Y513193D01*
X414140Y512698D02*X413645Y513193D01*
X414140Y511213D02*Y512698D01*
X414635Y510718D02*X414140Y511213D01*
X414635Y510718D02*X415130Y511213D01*
Y512698D01*
X414635Y513193D01*
X413645Y510718D02*X413150Y511213D01*
Y514877D02*Y516362D01*
X413645Y514382D02*X413150Y514877D01*
X413645Y514382D02*X414635D01*
X415130Y514877D01*
Y515867D01*
X414635Y516362D01*
X414140Y514382D02*Y516362D01*
X414635D01*
X413150Y517551D02*Y519531D01*
X417110Y520720D02*Y522700D01*
X413150Y521710D02*X417110D01*
Y523889D02*Y525869D01*
X413150Y524879D02*X417110D01*
X413150Y527058D02*X417110D01*
X413150D02*Y529038D01*
X393110Y788380D02*X392615Y788875D01*
X393110Y786895D02*Y788380D01*
X392615Y786400D02*X393110Y786895D01*
X389645Y786400D02*X392615D01*
X389645D02*X389150Y786895D01*
Y788380D01*
X389645Y788875D01*
X390635D01*
X391130Y788380D02*X390635Y788875D01*
X391130Y787390D02*Y788380D01*
X389150Y790063D02*X393110D01*
X392615D02*X393110D01*
X392615D02*X390140Y792538D01*
X389150D02*X393110D01*
X389150Y794222D02*X393110D01*
Y795707D02*X392615Y796202D01*
X389645D02*X392615D01*
X389150Y795707D02*X389645Y796202D01*
X389150Y793727D02*Y795707D01*
X393110Y793727D02*Y795707D01*
G54D11*G36*
X220850Y785150D02*Y779650D01*
X226350D01*
Y785150D01*
X220850D01*
G37*
G36*
X235850Y775150D02*Y769650D01*
X241350D01*
Y775150D01*
X235850D01*
G37*
G36*
X280850Y785150D02*Y779650D01*
X286350D01*
Y785150D01*
X280850D01*
G37*
G36*
X265850Y775150D02*Y769650D01*
X271350D01*
Y775150D01*
X265850D01*
G37*
G36*
X250850Y785150D02*Y779650D01*
X256350D01*
Y785150D01*
X250850D01*
G37*
G54D17*X223600Y812400D03*
X238600D03*
X283600D03*
X268600D03*
X253600D03*
G54D11*G36*
X210600Y850400D02*Y844400D01*
X216600D01*
Y850400D01*
X210600D01*
G37*
G54D18*X213600Y877400D03*
G54D19*X171100Y852400D03*
G54D20*X147100Y842400D03*
G54D19*X171100Y862400D03*
G54D20*X147100Y882400D03*
G54D18*X223600Y847400D03*
X233600D03*
X243600D03*
Y877400D03*
X233600D03*
X223600D03*
G54D11*G36*
X204600Y776400D02*Y768400D01*
X212600D01*
Y776400D01*
X204600D01*
G37*
G54D19*X208600Y812400D03*
G54D11*G36*
X250850Y720150D02*Y714650D01*
X256350D01*
Y720150D01*
X250850D01*
G37*
G36*
X313350D02*Y714650D01*
X318850D01*
Y720150D01*
X313350D01*
G37*
G36*
X280850D02*Y714650D01*
X286350D01*
Y720150D01*
X280850D01*
G37*
G54D17*X253600Y757400D03*
X316100D03*
X283600D03*
X268600D03*
G54D11*G36*
X295350Y720650D02*Y714150D01*
X301850D01*
Y720650D01*
X295350D01*
G37*
G54D21*X298600Y757400D03*
G54D11*G36*
X265850Y730150D02*Y724650D01*
X271350D01*
Y730150D01*
X265850D01*
G37*
G36*
X295850Y830150D02*Y824650D01*
X301350D01*
Y830150D01*
X295850D01*
G37*
G36*
X312600Y835400D02*Y829400D01*
X318600D01*
Y835400D01*
X312600D01*
G37*
G36*
X280850Y830150D02*Y824650D01*
X286350D01*
Y830150D01*
X280850D01*
G37*
G36*
X265600Y830400D02*Y824400D01*
X271600D01*
Y830400D01*
X265600D01*
G37*
G54D17*X298600Y867400D03*
X283600D03*
G54D11*G36*
X217600Y740400D02*Y734400D01*
X223600D01*
Y740400D01*
X217600D01*
G37*
G54D18*X220600Y747400D03*
Y757400D03*
G54D11*G36*
X235850Y720150D02*Y714650D01*
X241350D01*
Y720150D01*
X235850D01*
G37*
G54D17*X238600Y757400D03*
G54D22*X126100Y712400D03*
Y732400D03*
G54D11*G36*
X171600Y726900D02*Y717900D01*
X180600D01*
Y726900D01*
X171600D01*
G37*
G54D22*X176100Y703900D03*
Y740900D03*
X191100Y703900D03*
Y722400D03*
Y740900D03*
G54D11*G36*
X310850Y95650D02*Y90150D01*
X316350D01*
Y95650D01*
X310850D01*
G37*
G36*
Y65650D02*Y60150D01*
X316350D01*
Y65650D01*
X310850D01*
G37*
G54D17*X313600Y22900D03*
G54D18*X243600Y52900D03*
Y82900D03*
G54D17*Y22900D03*
G54D18*X253600Y52900D03*
X263600D03*
Y82900D03*
X253600D03*
G54D17*X253100Y37900D03*
G54D11*G36*
X280850Y95650D02*Y90150D01*
X286350D01*
Y95650D01*
X280850D01*
G37*
G54D17*X283600Y52900D03*
G54D11*G36*
X290350Y40650D02*Y35150D01*
X295850D01*
Y40650D01*
X290350D01*
G37*
G36*
X280850Y25650D02*Y20150D01*
X286350D01*
Y25650D01*
X280850D01*
G37*
G36*
X295850Y95650D02*Y90150D01*
X301350D01*
Y95650D01*
X295850D01*
G37*
G54D17*X298600Y52900D03*
G54D11*G36*
X192850Y25650D02*Y20150D01*
X198350D01*
Y25650D01*
X192850D01*
G37*
G36*
X208350D02*Y20150D01*
X213850D01*
Y25650D01*
X208350D01*
G37*
G54D19*X171100Y47900D03*
G54D20*X147100Y37900D03*
G54D19*X171100Y57900D03*
G54D20*X147100Y77900D03*
G54D17*X195600Y62900D03*
X211100D03*
G54D11*G36*
X192600Y103400D02*Y97400D01*
X198600D01*
Y103400D01*
X192600D01*
G37*
G36*
X230600Y55900D02*Y49900D01*
X236600D01*
Y55900D01*
X230600D01*
G37*
G54D18*X233600Y82900D03*
G54D11*G36*
X208350Y78150D02*Y72650D01*
X213850D01*
Y78150D01*
X208350D01*
G37*
G36*
X228350Y160650D02*Y155150D01*
X233850D01*
Y160650D01*
X228350D01*
G37*
G36*
Y195650D02*Y190150D01*
X233850D01*
Y195650D01*
X228350D01*
G37*
G36*
X255350Y178650D02*Y172150D01*
X261850D01*
Y178650D01*
X255350D01*
G37*
G36*
X273100Y133900D02*Y127900D01*
X279100D01*
Y133900D01*
X273100D01*
G37*
G36*
X255000Y221500D02*Y214300D01*
X262200D01*
Y221500D01*
X255000D01*
G37*
G54D23*X258600Y207900D03*
Y197900D03*
G54D11*G36*
X421850Y178650D02*Y173150D01*
X427350D01*
Y178650D01*
X421850D01*
G37*
G36*
X385850D02*Y173150D01*
X391350D01*
Y178650D01*
X385850D01*
G37*
G36*
X403350D02*Y173150D01*
X408850D01*
Y178650D01*
X403350D01*
G37*
G36*
X365600Y178900D02*Y172900D01*
X371600D01*
Y178900D01*
X365600D01*
G37*
G54D18*X368600Y185900D03*
G54D17*X424600Y205900D03*
X388600Y215900D03*
X406100D03*
G54D11*G36*
X359163Y267810D02*Y259936D01*
X367037D01*
Y267810D01*
X359163D01*
G37*
G54D17*X313600Y132900D03*
G54D11*G36*
X355600Y109900D02*Y103900D01*
X361600D01*
Y109900D01*
X355600D01*
G37*
G36*
X375600Y126400D02*Y120400D01*
X381600D01*
Y126400D01*
X375600D01*
G37*
G54D18*X388600Y123400D03*
X398600D03*
G54D11*G36*
X375509Y49376D02*Y41502D01*
X383383D01*
Y49376D01*
X375509D01*
G37*
G54D24*X379053Y75361D03*
G54D18*X408600Y123400D03*
G54D11*G36*
X421850Y68150D02*Y62650D01*
X427350D01*
Y68150D01*
X421850D01*
G37*
G54D17*X424600Y95400D03*
G54D18*X408600Y153400D03*
X398600D03*
X388600D03*
X378600D03*
G54D17*X191100Y157900D03*
Y192900D03*
G54D11*G36*
X200850Y178150D02*Y172650D01*
X206350D01*
Y178150D01*
X200850D01*
G37*
G54D21*X218600Y175400D03*
G54D17*X163600D03*
G54D11*G36*
X173350Y160650D02*Y155150D01*
X178850D01*
Y160650D01*
X173350D01*
G37*
G54D17*X136100Y157900D03*
X211100Y115400D03*
G54D11*G36*
X234600Y118400D02*Y112400D01*
X240600D01*
Y118400D01*
X234600D01*
G37*
G54D18*X373600Y664900D03*
X383600D03*
X393600D03*
X403600D03*
G54D11*G36*
X340600Y667900D02*Y661900D01*
X346600D01*
Y667900D01*
X340600D01*
G37*
G54D18*X353600Y664900D03*
X363600D03*
X413600D03*
G54D11*G36*
X390600Y642900D02*Y636900D01*
X396600D01*
Y642900D01*
X390600D01*
G37*
G36*
X278850Y643150D02*Y636650D01*
X285350D01*
Y643150D01*
X278850D01*
G37*
G54D21*X282100Y649900D03*
Y659900D03*
Y669900D03*
G54D11*G36*
X235600Y643400D02*Y637400D01*
X241600D01*
Y643400D01*
X235600D01*
G37*
G54D18*X238600Y650400D03*
Y660400D03*
Y670400D03*
G54D17*Y622400D03*
X253600D03*
X343600D03*
G54D11*G36*
X325600Y632900D02*Y626900D01*
X331600D01*
Y632900D01*
X325600D01*
G37*
G54D18*X328600Y639900D03*
G54D11*G36*
X340850Y585150D02*Y579650D01*
X346350D01*
Y585150D01*
X340850D01*
G37*
G36*
X360850D02*Y579650D01*
X366350D01*
Y585150D01*
X360850D01*
G37*
G36*
X360600Y642900D02*Y636900D01*
X366600D01*
Y642900D01*
X360600D01*
G37*
G54D17*X363600Y622400D03*
G54D11*G36*
X380850Y585150D02*Y579650D01*
X386350D01*
Y585150D01*
X380850D01*
G37*
G54D17*X383600Y622400D03*
G54D11*G36*
X400850Y585150D02*Y579650D01*
X406350D01*
Y585150D01*
X400850D01*
G37*
G54D17*X403600Y622400D03*
G54D11*G36*
X309000Y606000D02*Y598800D01*
X316200D01*
Y606000D01*
X309000D01*
G37*
G54D23*X312600Y592400D03*
Y582400D03*
G54D11*G36*
X278850Y585650D02*Y579150D01*
X285350D01*
Y585650D01*
X278850D01*
G37*
G54D21*X282100Y592400D03*
Y602400D03*
G54D11*G36*
X235850Y585150D02*Y579650D01*
X241350D01*
Y585150D01*
X235850D01*
G37*
G36*
X226350Y532150D02*Y526650D01*
X231850D01*
Y532150D01*
X226350D01*
G37*
G36*
X250850Y585150D02*Y579650D01*
X256350D01*
Y585150D01*
X250850D01*
G37*
G36*
X284100Y533900D02*Y524900D01*
X293100D01*
Y533900D01*
X284100D01*
G37*
G54D17*X269100Y529400D03*
X296100Y507900D03*
G54D11*G36*
X309600Y553400D02*Y547400D01*
X315600D01*
Y553400D01*
X309600D01*
G37*
G54D18*X312600Y560400D03*
X413600Y694900D03*
G54D11*G36*
X410850Y720150D02*Y714650D01*
X416350D01*
Y720150D01*
X410850D01*
G37*
G54D17*X413600Y757400D03*
G54D18*X403600Y694900D03*
G54D11*G36*
X370600Y720400D02*Y714400D01*
X376600D01*
Y720400D01*
X370600D01*
G37*
G54D18*X373600Y727400D03*
G54D11*G36*
X368100Y750400D02*Y744400D01*
X374100D01*
Y750400D01*
X368100D01*
G37*
G36*
X390850Y720150D02*Y714650D01*
X396350D01*
Y720150D01*
X390850D01*
G37*
G54D18*X393600Y694900D03*
X383600D03*
X373600D03*
X363600D03*
X353600D03*
X343600D03*
G54D17*X393600Y757400D03*
G54D11*G36*
X400600Y777900D02*Y771900D01*
X406600D01*
Y777900D01*
X400600D01*
G37*
G36*
X344600Y797900D02*Y791900D01*
X350600D01*
Y797900D01*
X344600D01*
G37*
G54D18*X347600Y804900D03*
G54D11*G36*
X340850Y720150D02*Y714650D01*
X346350D01*
Y720150D01*
X340850D01*
G37*
G54D17*X343600Y757400D03*
G54D11*G36*
X372500Y818500D02*Y811300D01*
X379700D01*
Y818500D01*
X372500D01*
G37*
G54D23*X376100Y804900D03*
Y794900D03*
G54D18*X371100Y757400D03*
Y767400D03*
G54D11*G36*
X333100Y880400D02*Y874400D01*
X339100D01*
Y880400D01*
X333100D01*
G37*
G54D18*X346100Y877400D03*
X356100D03*
X366100D03*
X376100D03*
X386100D03*
X396100D03*
X406100D03*
X416100D03*
G54D11*G36*
X333100Y835400D02*Y829400D01*
X339100D01*
Y835400D01*
X333100D01*
G37*
G54D18*X346100Y832400D03*
X356100D03*
X366100D03*
X376100D03*
X386100D03*
X396100D03*
X406100D03*
X416100D03*
G54D11*G36*
X353850Y420650D02*Y415150D01*
X359350D01*
Y420650D01*
X353850D01*
G37*
G54D24*X363100Y322928D03*
G54D17*X356600Y387900D03*
G54D11*G36*
X307600Y355900D02*Y349900D01*
X313600D01*
Y355900D01*
X307600D01*
G37*
G36*
X291350Y380650D02*Y375150D01*
X296850D01*
Y380650D01*
X291350D01*
G37*
G54D17*X294100Y417900D03*
G54D11*G36*
X293350Y470650D02*Y465150D01*
X298850D01*
Y470650D01*
X293350D01*
G37*
G36*
X313850Y390650D02*Y385150D01*
X319350D01*
Y390650D01*
X313850D01*
G37*
G36*
X323600Y420900D02*Y414900D01*
X329600D01*
Y420900D01*
X323600D01*
G37*
G36*
X333850Y405650D02*Y400150D01*
X339350D01*
Y405650D01*
X333850D01*
G37*
G36*
X266350Y493150D02*Y487650D01*
X271850D01*
Y493150D01*
X266350D01*
G37*
G54D18*X269100Y467900D03*
X259100D03*
X249100D03*
G54D11*G36*
X266350Y510650D02*Y505150D01*
X271850D01*
Y510650D01*
X266350D01*
G37*
G54D17*X229100Y490400D03*
Y507900D03*
G54D11*G36*
X236100Y440900D02*Y434900D01*
X242100D01*
Y440900D01*
X236100D01*
G37*
G54D18*X239100Y467900D03*
G54D11*G36*
X236350Y380650D02*Y375150D01*
X241850D01*
Y380650D01*
X236350D01*
G37*
G54D17*X239100Y417900D03*
G54D18*X249100Y437900D03*
X259100D03*
X269100D03*
G54D17*X396600Y417900D03*
G54D22*X388600Y529400D03*
G54D17*X376600Y402900D03*
Y490400D03*
G54D11*G36*
X323600Y440900D02*Y434900D01*
X329600D01*
Y440900D01*
X323600D01*
G37*
G54D18*X336600Y437900D03*
X346600D03*
X356600D03*
X366600D03*
X376600D03*
X386600D03*
X396600D03*
Y467900D03*
X386600D03*
X376600D03*
X366600D03*
X356600D03*
X346600D03*
X336600D03*
X326600D03*
G54D11*G36*
X333850Y493150D02*Y487650D01*
X339350D01*
Y493150D01*
X333850D01*
G37*
G36*
X254100Y296900D02*Y290900D01*
X260100D01*
Y296900D01*
X254100D01*
G37*
G36*
X256350Y380650D02*Y375150D01*
X261850D01*
Y380650D01*
X256350D01*
G37*
G54D17*X259100Y417900D03*
G54D18*X267100Y293900D03*
X277100D03*
G54D11*G36*
X273850Y390650D02*Y385150D01*
X279350D01*
Y390650D01*
X273850D01*
G37*
G54D17*X276600Y417900D03*
G54D11*G36*
X140100Y385900D02*Y378900D01*
X147100D01*
Y385900D01*
X140100D01*
G37*
G54D25*X143600Y372400D03*
G54D22*X126600Y301900D03*
Y321900D03*
G54D11*G36*
X172100Y316400D02*Y307400D01*
X181100D01*
Y316400D01*
X172100D01*
G37*
G54D22*X191600Y311900D03*
X176600Y293400D03*
X191600D03*
X176600Y330400D03*
X191600D03*
G54D18*X298600Y63400D03*
G54D26*X144100Y164400D03*
Y142900D03*
X151100Y149400D03*
G54D18*X335600Y17900D03*
G54D26*X224100Y218400D03*
Y293400D03*
G54D18*X148100Y254400D03*
G54D26*X213100Y402400D03*
X206100Y413400D03*
X267100Y230900D03*
X431100Y784400D03*
X417100D03*
G54D18*X375600Y849900D03*
X256100D03*
X423600D03*
X346100Y842900D03*
X365600Y859900D03*
X430100Y651900D03*
Y542400D03*
X417100D03*
G54D26*X410100Y551900D03*
X374100Y633400D03*
X311100Y493900D03*
X312600Y503900D03*
X321100Y512400D03*
X304600Y647900D03*
X333100Y679900D03*
X314100Y626900D03*
X327100Y573900D03*
X306100Y674400D03*
X324100Y694400D03*
X410100Y494900D03*
X311100Y470400D03*
G54D28*G54D29*G54D30*G54D31*G54D30*G54D31*G54D29*G54D28*G54D32*G54D28*G54D32*G54D28*G54D32*G54D28*G54D33*G54D28*G54D29*G54D28*G54D29*G54D28*G54D30*G54D31*G54D30*G54D31*G54D28*G54D32*G54D29*G54D28*G54D32*G54D34*G54D28*G54D35*G54D28*G54D32*G54D29*G54D36*G54D29*G54D28*G54D29*G54D28*G54D37*G54D28*G54D32*G54D29*G54D32*G54D28*G54D32*G54D28*G54D34*G54D32*G54D28*G54D38*G54D28*G54D29*G54D28*G54D29*G54D28*G54D32*G54D28*G54D29*G54D28*G54D32*G54D28*G54D34*G54D32*G54D28*G54D35*G54D28*G54D32*G54D28*G54D32*G54D28*G54D29*G54D28*G54D29*G54D28*G54D29*G54D28*G54D38*G54D28*G54D29*G54D28*G54D32*G54D28*G54D32*G54D28*G54D29*G54D33*G54D13*G54D11*G54D13*G54D11*G54D13*G54D11*G54D13*G54D11*M02*
