M48
INCH
T79C0.035
T78C0.020
T77C0.040
T76C0.050
T75C0.051
T74C0.042
T73C0.047
T72C0.032
T71C0.038
T70C0.079
T69C0.032
T68C0.030
T67C0.028
%
T78
X077750Y004850
X077750Y006250
X062650Y010550
X067850Y015550
X065850Y017950
X054500Y006950
X056700Y015250
X048800Y006950
X015750Y033550
X013600Y033550
X014250Y032850
X021150Y025550
X022400Y021250
X028650Y025550
X039550Y026650
X048700Y016850
X064100Y017500
X049700Y016700
X050550Y015850
X062000Y016550
X046350Y016850
X040650Y027350
T67
X007600Y021600
X007600Y022600
X007600Y023600
X007600Y024600
X004600Y024600
X004600Y023600
X004600Y022600
X004600Y021600
X014650Y007100
X011650Y010100
X014650Y010100
X011650Y009100
X011650Y008100
X011650Y007100
X014650Y008100
X014650Y009100
X084050Y026600
X084050Y025600
X084050Y024600
X084050Y023600
X087050Y023600
X087050Y024600
X087050Y025600
X087050Y026600
X043100Y015300
X043100Y014300
X043100Y013300
X043100Y008300
X043100Y012300
X043100Y011300
X043100Y010300
X043100Y009300
X046100Y008300
X046100Y009300
X046100Y010300
X046100Y011300
X046100Y012300
X046100Y013300
X046100Y014300
X046100Y015300
X065850Y013600
X065850Y012600
X065850Y011600
X065850Y010600
X065850Y009600
X065850Y008600
X065850Y007600
X068850Y007600
X068850Y008600
X068850Y009600
X068850Y010600
X068850Y011600
X068850Y012600
X068850Y013600
X043100Y024050
X043100Y023050
X043100Y022050
X043100Y021050
X046100Y021050
X046100Y022050
X046100Y023050
X046100Y024050
X037550Y033600
X036550Y033600
T68
X008600Y019600
X006850Y026850
X003100Y022650
X001600Y028400
X005600Y028400
X001600Y026850
X001600Y019600
X001600Y023600
X005600Y026850
X016900Y005500
X016900Y007350
X005850Y005500
X008850Y005500
X019900Y005500
X020900Y009100
X020900Y007350
X016900Y009100
X016900Y011100
X017900Y011100
X005600Y016600
X001600Y016600
X004600Y019600
X003100Y018650
X004600Y018100
X008600Y016600
X008600Y018100
X012600Y016600
X015100Y024850
X010850Y026850
X015100Y028850
X018600Y028850
X015100Y030350
X015100Y034350
X016850Y027600
X016850Y031600
X016850Y026100
X016850Y022100
X018600Y024850
X077550Y025600
X080550Y025600
X076550Y024100
X080550Y024100
X080550Y027100
X076550Y027100
X071050Y022600
X075050Y022600
X071050Y024100
X075050Y024100
X077550Y022600
X080550Y022600
X076550Y021100
X080550Y021100
X075050Y021100
X072050Y021100
X086050Y019600
X063300Y015100
X071050Y016350
X075050Y016350
X082050Y019600
X080550Y019600
X077550Y019600
X071050Y019600
X075050Y019600
X071050Y018100
X075050Y018100
X061550Y022600
X057550Y022600
X057550Y013600
X061550Y013600
X062300Y015100
X057550Y011600
X061550Y011600
X054350Y016700
X055350Y016700
X037100Y018550
X038100Y016300
X039600Y014300
X038100Y012300
X041100Y018550
X041100Y008300
X041100Y012300
X039600Y010300
X048350Y010300
X046100Y018350
X048350Y014300
X050100Y018350
X057550Y009600
X061550Y009600
X057550Y007600
X061550Y007600
X079800Y013200
X071050Y006600
X071050Y010600
X072050Y010600
X071050Y008600
X078800Y013200
X071050Y013600
X075050Y013600
X075050Y006600
X075050Y008600
X057550Y024100
X061550Y024100
X037100Y022050
X037100Y024050
X041100Y022050
X041100Y020300
X041100Y024050
X038100Y020300
X048350Y021050
X052250Y021050
X050100Y021050
X048350Y025050
X052250Y025050
X050100Y025050
T72
X003854Y010015
X006846Y010055
T69
X004100Y030850
X005100Y030850
X084550Y030850
X085550Y030850
T79
X084300Y010400
X084300Y005600
X085300Y011400
X084300Y022350
X064500Y004950
X083600Y013350
X053550Y004950
X053550Y006250
X024750Y033150
X001100Y014400
T71
X009350Y028400
X010000Y012100
X012400Y020350
X010850Y024200
X028700Y022250
X028700Y021250
X028700Y020250
X074050Y025900
X075050Y025900
X082050Y021100
X063300Y019750
X064300Y019750
X065300Y019750
X066300Y019750
X082550Y016400
X082550Y014350
X073050Y025900
X063300Y008600
X034600Y016900
X041100Y015300
X063300Y011600
X087050Y014350
X087050Y013350
X087050Y012350
X087050Y011350
X087050Y010350
X087050Y009350
X087050Y008350
X087050Y007350
X087050Y006350
X082550Y013350
X082550Y012350
X082550Y011350
X082550Y010350
X082550Y009350
X082550Y008350
X082550Y007350
X082550Y006350
X074050Y010850
X075050Y010850
X076050Y010850
X076800Y007600
X057550Y019750
X058550Y019750
X059550Y019750
X063350Y024100
X064350Y024100
X065350Y024100
X066350Y024100
T77
X025697Y011650
X031603Y011650
T74
X021100Y022100
X020100Y022100
X019100Y022100
X059550Y016700
X058550Y016700
X057550Y016700
X079800Y010350
X080800Y010350
X078800Y010350
T73
X011635Y035629
X013682Y029172
T76
X086050Y018100
X080050Y018100
X052250Y009100
X052250Y019100
T75
X029500Y035300
X031500Y035300
X030500Y030300
X028650Y030300
X032350Y030300
X028650Y028800
X030500Y028800
X032350Y028800
X069700Y028850
X070550Y035350
X072550Y035350
X071550Y030350
X069700Y030350
X073400Y030350
X071550Y028850
X073400Y028850
T70
X003100Y033250
X007100Y033250
X083550Y033250
X087550Y033250
M30
