G04 start of page 13 for group -3984 idx -3984 *
G04 Title: (unknown), fab *
G04 Creator: pcb 20091103 *
G04 CreationDate: Mon Apr 26 17:04:44 2010 UTC *
G04 For: fosse *
G04 Format: Gerber/RS-274X *
G04 PCB-Dimensions: 1200000 1000000 *
G04 PCB-Coordinate-Origin: lower left *
%MOIN*%
%FSLAX25Y25*%
%LNFAB*%
%ADD14C,0.0100*%
%ADD52R,0.0080X0.0080*%
%ADD53C,0.0060*%
G54D52*X176500Y768800D02*Y759200D01*
X171700Y764000D02*X181300D01*
X174900Y765600D02*X178100D01*
X174900D02*Y762400D01*
X178100D01*
Y765600D02*Y762400D01*
X173300Y767200D02*X179700D01*
X173300D02*Y760800D01*
X179700D01*
Y767200D02*Y760800D01*
X216500Y768800D02*Y759200D01*
X211700Y764000D02*X221300D01*
X214900Y765600D02*X218100D01*
X214900D02*Y762400D01*
X218100D01*
Y765600D02*Y762400D01*
X213300Y767200D02*X219700D01*
X213300D02*Y760800D01*
X219700D01*
Y767200D02*Y760800D01*
X981000Y768800D02*Y759200D01*
X976200Y764000D02*X985800D01*
X979400Y765600D02*X982600D01*
X979400D02*Y762400D01*
X982600D01*
Y765600D02*Y762400D01*
X977800Y767200D02*X984200D01*
X977800D02*Y760800D01*
X984200D01*
Y767200D02*Y760800D01*
X1021000Y768800D02*Y759200D01*
X1016200Y764000D02*X1025800D01*
X1019400Y765600D02*X1022600D01*
X1019400D02*Y762400D01*
X1022600D01*
Y765600D02*Y762400D01*
X1017800Y767200D02*X1024200D01*
X1017800D02*Y760800D01*
X1024200D01*
Y767200D02*Y760800D01*
X15000Y1016050D02*Y1006450D01*
X10200Y1011250D02*X19800D01*
X13400Y1012850D02*X16600D01*
X13400D02*Y1009650D01*
X16600D01*
Y1012850D02*Y1009650D01*
X11800Y1014450D02*X18200D01*
X11800D02*Y1008050D01*
X18200D01*
Y1014450D02*Y1008050D01*
G54D53*X135000Y1013500D02*Y1012750D01*
X136500Y1011250D01*
X138000Y1012750D01*
Y1013500D02*Y1012750D01*
X136500Y1011250D02*Y1007500D01*
X139801Y1010500D02*X142051D01*
X139801Y1007500D02*X142801D01*
X139801Y1013500D02*Y1007500D01*
Y1013500D02*X142801D01*
X147603D02*X148353Y1012750D01*
X145353Y1013500D02*X147603D01*
X144603Y1012750D02*X145353Y1013500D01*
X144603Y1012750D02*Y1011250D01*
X145353Y1010500D01*
X147603D01*
X148353Y1009750D01*
Y1008250D01*
X147603Y1007500D02*X148353Y1008250D01*
X145353Y1007500D02*X147603D01*
X144603Y1008250D02*X145353Y1007500D01*
X135000Y1004249D02*X150154D01*
X98000Y1010500D02*X101000Y1013500D01*
X98000Y1010500D02*X101750D01*
X101000Y1013500D02*Y1007500D01*
X98000Y1004249D02*X103551D01*
X45000Y1008250D02*X45750Y1007500D01*
X45000Y1012750D02*Y1008250D01*
Y1012750D02*X45750Y1013500D01*
X47250D01*
X48000Y1012750D01*
Y1008250D01*
X47250Y1007500D02*X48000Y1008250D01*
X45750Y1007500D02*X47250D01*
X45000Y1009000D02*X48000Y1012000D01*
X49801Y1007500D02*X50551D01*
X52353Y1008250D02*X53103Y1007500D01*
X52353Y1012750D02*Y1008250D01*
Y1012750D02*X53103Y1013500D01*
X54603D01*
X55353Y1012750D01*
Y1008250D01*
X54603Y1007500D02*X55353Y1008250D01*
X53103Y1007500D02*X54603D01*
X52353Y1009000D02*X55353Y1012000D01*
X57154Y1007500D02*X60904Y1011250D01*
Y1013500D02*Y1011250D01*
X57154Y1013500D02*X60904D01*
X62706Y1007500D02*X65706Y1010500D01*
Y1012750D02*Y1010500D01*
X64956Y1013500D02*X65706Y1012750D01*
X63456Y1013500D02*X64956D01*
X62706Y1012750D02*X63456Y1013500D01*
X62706Y1012750D02*Y1011250D01*
X63456Y1010500D01*
X65706D01*
X45000Y1004249D02*X67507D01*
X440500Y786500D02*Y781700D01*
Y786500D02*X444660Y788900D01*
X440500Y786500D02*X436340Y788900D01*
X438900Y786500D02*G75*G03X442100Y786500I1600J0D01*G01*
G75*G03X438900Y786500I-1600J0D01*G01*
X437300D02*G75*G03X443700Y786500I3200J0D01*G01*
G75*G03X437300Y786500I-3200J0D01*G01*
X460500D02*Y781700D01*
Y786500D02*X464660Y788900D01*
X460500Y786500D02*X456340Y788900D01*
X458900Y786500D02*G75*G03X462100Y786500I1600J0D01*G01*
G75*G03X458900Y786500I-1600J0D01*G01*
X457300D02*G75*G03X463700Y786500I3200J0D01*G01*
G75*G03X457300Y786500I-3200J0D01*G01*
X450500Y736500D02*Y731700D01*
Y736500D02*X454660Y738900D01*
X450500Y736500D02*X446340Y738900D01*
X448900Y736500D02*G75*G03X452100Y736500I1600J0D01*G01*
G75*G03X448900Y736500I-1600J0D01*G01*
X447300D02*G75*G03X453700Y736500I3200J0D01*G01*
G75*G03X447300Y736500I-3200J0D01*G01*
X432000D02*Y731700D01*
Y736500D02*X436160Y738900D01*
X432000Y736500D02*X427840Y738900D01*
X430400Y736500D02*G75*G03X433600Y736500I1600J0D01*G01*
G75*G03X430400Y736500I-1600J0D01*G01*
X428800D02*G75*G03X435200Y736500I3200J0D01*G01*
G75*G03X428800Y736500I-3200J0D01*G01*
X469000D02*Y731700D01*
Y736500D02*X473160Y738900D01*
X469000Y736500D02*X464840Y738900D01*
X467400Y736500D02*G75*G03X470600Y736500I1600J0D01*G01*
G75*G03X467400Y736500I-1600J0D01*G01*
X465800D02*G75*G03X472200Y736500I3200J0D01*G01*
G75*G03X465800Y736500I-3200J0D01*G01*
X432000Y721500D02*Y716700D01*
Y721500D02*X436160Y723900D01*
X432000Y721500D02*X427840Y723900D01*
X430400Y721500D02*G75*G03X433600Y721500I1600J0D01*G01*
G75*G03X430400Y721500I-1600J0D01*G01*
X428800D02*G75*G03X435200Y721500I3200J0D01*G01*
G75*G03X428800Y721500I-3200J0D01*G01*
X450500D02*Y716700D01*
Y721500D02*X454660Y723900D01*
X450500Y721500D02*X446340Y723900D01*
X448900Y721500D02*G75*G03X452100Y721500I1600J0D01*G01*
G75*G03X448900Y721500I-1600J0D01*G01*
X447300D02*G75*G03X453700Y721500I3200J0D01*G01*
G75*G03X447300Y721500I-3200J0D01*G01*
X469000D02*Y716700D01*
Y721500D02*X473160Y723900D01*
X469000Y721500D02*X464840Y723900D01*
X467400Y721500D02*G75*G03X470600Y721500I1600J0D01*G01*
G75*G03X467400Y721500I-1600J0D01*G01*
X465800D02*G75*G03X472200Y721500I3200J0D01*G01*
G75*G03X465800Y721500I-3200J0D01*G01*
X851000Y786500D02*Y781700D01*
Y786500D02*X855160Y788900D01*
X851000Y786500D02*X846840Y788900D01*
X849400Y786500D02*G75*G03X852600Y786500I1600J0D01*G01*
G75*G03X849400Y786500I-1600J0D01*G01*
X847800D02*G75*G03X854200Y786500I3200J0D01*G01*
G75*G03X847800Y786500I-3200J0D01*G01*
X871000D02*Y781700D01*
Y786500D02*X875160Y788900D01*
X871000Y786500D02*X866840Y788900D01*
X869400Y786500D02*G75*G03X872600Y786500I1600J0D01*G01*
G75*G03X869400Y786500I-1600J0D01*G01*
X867800D02*G75*G03X874200Y786500I3200J0D01*G01*
G75*G03X867800Y786500I-3200J0D01*G01*
X861000Y736500D02*Y731700D01*
Y736500D02*X865160Y738900D01*
X861000Y736500D02*X856840Y738900D01*
X859400Y736500D02*G75*G03X862600Y736500I1600J0D01*G01*
G75*G03X859400Y736500I-1600J0D01*G01*
X857800D02*G75*G03X864200Y736500I3200J0D01*G01*
G75*G03X857800Y736500I-3200J0D01*G01*
X842500D02*Y731700D01*
Y736500D02*X846660Y738900D01*
X842500Y736500D02*X838340Y738900D01*
X840900Y736500D02*G75*G03X844100Y736500I1600J0D01*G01*
G75*G03X840900Y736500I-1600J0D01*G01*
X839300D02*G75*G03X845700Y736500I3200J0D01*G01*
G75*G03X839300Y736500I-3200J0D01*G01*
X879500D02*Y731700D01*
Y736500D02*X883660Y738900D01*
X879500Y736500D02*X875340Y738900D01*
X877900Y736500D02*G75*G03X881100Y736500I1600J0D01*G01*
G75*G03X877900Y736500I-1600J0D01*G01*
X876300D02*G75*G03X882700Y736500I3200J0D01*G01*
G75*G03X876300Y736500I-3200J0D01*G01*
X842500Y721500D02*Y716700D01*
Y721500D02*X846660Y723900D01*
X842500Y721500D02*X838340Y723900D01*
X840900Y721500D02*G75*G03X844100Y721500I1600J0D01*G01*
G75*G03X840900Y721500I-1600J0D01*G01*
X839300D02*G75*G03X845700Y721500I3200J0D01*G01*
G75*G03X839300Y721500I-3200J0D01*G01*
X861000D02*Y716700D01*
Y721500D02*X865160Y723900D01*
X861000Y721500D02*X856840Y723900D01*
X859400Y721500D02*G75*G03X862600Y721500I1600J0D01*G01*
G75*G03X859400Y721500I-1600J0D01*G01*
X857800D02*G75*G03X864200Y721500I3200J0D01*G01*
G75*G03X857800Y721500I-3200J0D01*G01*
X879500D02*Y716700D01*
Y721500D02*X883660Y723900D01*
X879500Y721500D02*X875340Y723900D01*
X877900Y721500D02*G75*G03X881100Y721500I1600J0D01*G01*
G75*G03X877900Y721500I-1600J0D01*G01*
X876300D02*G75*G03X882700Y721500I3200J0D01*G01*
G75*G03X876300Y721500I-3200J0D01*G01*
X15000Y1026250D02*Y1021450D01*
Y1026250D02*X19160Y1028650D01*
X15000Y1026250D02*X10840Y1028650D01*
X13400Y1026250D02*G75*G03X16600Y1026250I1600J0D01*G01*
G75*G03X13400Y1026250I-1600J0D01*G01*
X11800D02*G75*G03X18200Y1026250I3200J0D01*G01*
G75*G03X11800Y1026250I-3200J0D01*G01*
X135000Y1028500D02*Y1027750D01*
X136500Y1026250D01*
X138000Y1027750D01*
Y1028500D02*Y1027750D01*
X136500Y1026250D02*Y1022500D01*
X139801Y1025500D02*X142051D01*
X139801Y1022500D02*X142801D01*
X139801Y1028500D02*Y1022500D01*
Y1028500D02*X142801D01*
X147603D02*X148353Y1027750D01*
X145353Y1028500D02*X147603D01*
X144603Y1027750D02*X145353Y1028500D01*
X144603Y1027750D02*Y1026250D01*
X145353Y1025500D01*
X147603D01*
X148353Y1024750D01*
Y1023250D01*
X147603Y1022500D02*X148353Y1023250D01*
X145353Y1022500D02*X147603D01*
X144603Y1023250D02*X145353Y1022500D01*
X135000Y1019249D02*X150154D01*
X98750Y1022500D02*X100250D01*
X99500Y1028500D02*Y1022500D01*
X98000Y1027000D02*X99500Y1028500D01*
X104301D02*X105051Y1027750D01*
X102801Y1028500D02*X104301D01*
X102051Y1027750D02*X102801Y1028500D01*
X102051Y1027750D02*Y1023250D01*
X102801Y1022500D01*
X104301Y1025500D02*X105051Y1024750D01*
X102051Y1025500D02*X104301D01*
X102801Y1022500D02*X104301D01*
X105051Y1023250D01*
Y1024750D02*Y1023250D01*
X98000Y1019249D02*X106853D01*
X45000Y1023250D02*X45750Y1022500D01*
X45000Y1027750D02*Y1023250D01*
Y1027750D02*X45750Y1028500D01*
X47250D01*
X48000Y1027750D01*
Y1023250D01*
X47250Y1022500D02*X48000Y1023250D01*
X45750Y1022500D02*X47250D01*
X45000Y1024000D02*X48000Y1027000D01*
X49801Y1022500D02*X50551D01*
X52353Y1023250D02*X53103Y1022500D01*
X52353Y1027750D02*Y1023250D01*
Y1027750D02*X53103Y1028500D01*
X54603D01*
X55353Y1027750D01*
Y1023250D01*
X54603Y1022500D02*X55353Y1023250D01*
X53103Y1022500D02*X54603D01*
X52353Y1024000D02*X55353Y1027000D01*
X57154Y1028500D02*X60154D01*
X57154D02*Y1025500D01*
X57904Y1026250D01*
X59404D01*
X60154Y1025500D01*
Y1023250D01*
X59404Y1022500D02*X60154Y1023250D01*
X57904Y1022500D02*X59404D01*
X57154Y1023250D02*X57904Y1022500D01*
X62706D02*X64206D01*
X63456Y1028500D02*Y1022500D01*
X61956Y1027000D02*X63456Y1028500D01*
X45000Y1019249D02*X66007D01*
X666400Y625600D02*X669600D01*
X666400D02*Y622400D01*
X669600D01*
Y625600D02*Y622400D01*
X664800Y627200D02*X671200D01*
X664800D02*Y620800D01*
X671200D01*
Y627200D02*Y620800D01*
X666400Y525600D02*X669600D01*
X666400D02*Y522400D01*
X669600D01*
Y525600D02*Y522400D01*
X664800Y527200D02*X671200D01*
X664800D02*Y520800D01*
X671200D01*
Y527200D02*Y520800D01*
X13400Y1042850D02*X16600D01*
X13400D02*Y1039650D01*
X16600D01*
Y1042850D02*Y1039650D01*
X11800Y1044450D02*X18200D01*
X11800D02*Y1038050D01*
X18200D01*
Y1044450D02*Y1038050D01*
X135000Y1043500D02*Y1042750D01*
X136500Y1041250D01*
X138000Y1042750D01*
Y1043500D02*Y1042750D01*
X136500Y1041250D02*Y1037500D01*
X139801Y1040500D02*X142051D01*
X139801Y1037500D02*X142801D01*
X139801Y1043500D02*Y1037500D01*
Y1043500D02*X142801D01*
X147603D02*X148353Y1042750D01*
X145353Y1043500D02*X147603D01*
X144603Y1042750D02*X145353Y1043500D01*
X144603Y1042750D02*Y1041250D01*
X145353Y1040500D01*
X147603D01*
X148353Y1039750D01*
Y1038250D01*
X147603Y1037500D02*X148353Y1038250D01*
X145353Y1037500D02*X147603D01*
X144603Y1038250D02*X145353Y1037500D01*
X135000Y1034249D02*X150154D01*
X98000Y1042750D02*X98750Y1043500D01*
X101000D01*
X101750Y1042750D01*
Y1041250D01*
X98000Y1037500D02*X101750Y1041250D01*
X98000Y1037500D02*X101750D01*
X98000Y1034249D02*X103551D01*
X45000Y1038250D02*X45750Y1037500D01*
X45000Y1042750D02*Y1038250D01*
Y1042750D02*X45750Y1043500D01*
X47250D01*
X48000Y1042750D01*
Y1038250D01*
X47250Y1037500D02*X48000Y1038250D01*
X45750Y1037500D02*X47250D01*
X45000Y1039000D02*X48000Y1042000D01*
X49801Y1037500D02*X50551D01*
X52353Y1038250D02*X53103Y1037500D01*
X52353Y1042750D02*Y1038250D01*
Y1042750D02*X53103Y1043500D01*
X54603D01*
X55353Y1042750D01*
Y1038250D01*
X54603Y1037500D02*X55353Y1038250D01*
X53103Y1037500D02*X54603D01*
X52353Y1039000D02*X55353Y1042000D01*
X57154Y1043500D02*X60154D01*
X57154D02*Y1040500D01*
X57904Y1041250D01*
X59404D01*
X60154Y1040500D01*
Y1038250D01*
X59404Y1037500D02*X60154Y1038250D01*
X57904Y1037500D02*X59404D01*
X57154Y1038250D02*X57904Y1037500D01*
X61956Y1038250D02*X62706Y1037500D01*
X61956Y1042750D02*Y1038250D01*
Y1042750D02*X62706Y1043500D01*
X64206D01*
X64956Y1042750D01*
Y1038250D01*
X64206Y1037500D02*X64956Y1038250D01*
X62706Y1037500D02*X64206D01*
X61956Y1039000D02*X64956Y1042000D01*
X45000Y1034249D02*X66757D01*
X261051Y789287D02*G75*G03X262651Y789287I800J0D01*G01*
G75*G03X261051Y789287I-800J0D01*G01*
X259451D02*G75*G03X264251Y789287I2400J0D01*G01*
G75*G03X259451Y789287I-2400J0D01*G01*
X281523Y724720D02*G75*G03X283123Y724720I800J0D01*G01*
G75*G03X281523Y724720I-800J0D01*G01*
X279923D02*G75*G03X284723Y724720I2400J0D01*G01*
G75*G03X279923Y724720I-2400J0D01*G01*
X14200Y1056250D02*G75*G03X15800Y1056250I800J0D01*G01*
G75*G03X14200Y1056250I-800J0D01*G01*
X12600D02*G75*G03X17400Y1056250I2400J0D01*G01*
G75*G03X12600Y1056250I-2400J0D01*G01*
X135000Y1058500D02*Y1057750D01*
X136500Y1056250D01*
X138000Y1057750D01*
Y1058500D02*Y1057750D01*
X136500Y1056250D02*Y1052500D01*
X139801Y1055500D02*X142051D01*
X139801Y1052500D02*X142801D01*
X139801Y1058500D02*Y1052500D01*
Y1058500D02*X142801D01*
X147603D02*X148353Y1057750D01*
X145353Y1058500D02*X147603D01*
X144603Y1057750D02*X145353Y1058500D01*
X144603Y1057750D02*Y1056250D01*
X145353Y1055500D01*
X147603D01*
X148353Y1054750D01*
Y1053250D01*
X147603Y1052500D02*X148353Y1053250D01*
X145353Y1052500D02*X147603D01*
X144603Y1053250D02*X145353Y1052500D01*
X135000Y1049249D02*X150154D01*
X98000Y1057750D02*X98750Y1058500D01*
X101000D01*
X101750Y1057750D01*
Y1056250D01*
X98000Y1052500D02*X101750Y1056250D01*
X98000Y1052500D02*X101750D01*
X98000Y1049249D02*X103551D01*
X45000Y1053250D02*X45750Y1052500D01*
X45000Y1057750D02*Y1053250D01*
Y1057750D02*X45750Y1058500D01*
X47250D01*
X48000Y1057750D01*
Y1053250D01*
X47250Y1052500D02*X48000Y1053250D01*
X45750Y1052500D02*X47250D01*
X45000Y1054000D02*X48000Y1057000D01*
X49801Y1052500D02*X50551D01*
X52353Y1053250D02*X53103Y1052500D01*
X52353Y1057750D02*Y1053250D01*
Y1057750D02*X53103Y1058500D01*
X54603D01*
X55353Y1057750D01*
Y1053250D01*
X54603Y1052500D02*X55353Y1053250D01*
X53103Y1052500D02*X54603D01*
X52353Y1054000D02*X55353Y1057000D01*
X57154Y1055500D02*X60154Y1058500D01*
X57154Y1055500D02*X60904D01*
X60154Y1058500D02*Y1052500D01*
X62706D02*X66456Y1056250D01*
Y1058500D02*Y1056250D01*
X62706Y1058500D02*X66456D01*
X45000Y1049249D02*X68257D01*
X738600Y602400D02*X743400Y597600D01*
X738600D02*X743400Y602400D01*
X739400Y601600D02*X742600D01*
X739400D02*Y598400D01*
X742600D01*
Y601600D02*Y598400D01*
X728600Y602400D02*X733400Y597600D01*
X728600D02*X733400Y602400D01*
X729400Y601600D02*X732600D01*
X729400D02*Y598400D01*
X732600D01*
Y601600D02*Y598400D01*
X718600Y602400D02*X723400Y597600D01*
X718600D02*X723400Y602400D01*
X719400Y601600D02*X722600D01*
X719400D02*Y598400D01*
X722600D01*
Y601600D02*Y598400D01*
X354100Y656400D02*X358900Y651600D01*
X354100D02*X358900Y656400D01*
X354900Y655600D02*X358100D01*
X354900D02*Y652400D01*
X358100D01*
Y655600D02*Y652400D01*
X344100Y656400D02*X348900Y651600D01*
X344100D02*X348900Y656400D01*
X344900Y655600D02*X348100D01*
X344900D02*Y652400D01*
X348100D01*
Y655600D02*Y652400D01*
X334100Y656400D02*X338900Y651600D01*
X334100D02*X338900Y656400D01*
X334900Y655600D02*X338100D01*
X334900D02*Y652400D01*
X338100D01*
Y655600D02*Y652400D01*
X951100Y538900D02*X955900Y534100D01*
X951100D02*X955900Y538900D01*
X951900Y538100D02*X955100D01*
X951900D02*Y534900D01*
X955100D01*
Y538100D02*Y534900D01*
X941100Y538900D02*X945900Y534100D01*
X941100D02*X945900Y538900D01*
X941900Y538100D02*X945100D01*
X941900D02*Y534900D01*
X945100D01*
Y538100D02*Y534900D01*
X931100Y538900D02*X935900Y534100D01*
X931100D02*X935900Y538900D01*
X931900Y538100D02*X935100D01*
X931900D02*Y534900D01*
X935100D01*
Y538100D02*Y534900D01*
X12600Y1073650D02*X17400Y1068850D01*
X12600D02*X17400Y1073650D01*
X13400Y1072850D02*X16600D01*
X13400D02*Y1069650D01*
X16600D01*
Y1072850D02*Y1069650D01*
X135000Y1073500D02*Y1072750D01*
X136500Y1071250D01*
X138000Y1072750D01*
Y1073500D02*Y1072750D01*
X136500Y1071250D02*Y1067500D01*
X139801Y1070500D02*X142051D01*
X139801Y1067500D02*X142801D01*
X139801Y1073500D02*Y1067500D01*
Y1073500D02*X142801D01*
X147603D02*X148353Y1072750D01*
X145353Y1073500D02*X147603D01*
X144603Y1072750D02*X145353Y1073500D01*
X144603Y1072750D02*Y1071250D01*
X145353Y1070500D01*
X147603D01*
X148353Y1069750D01*
Y1068250D01*
X147603Y1067500D02*X148353Y1068250D01*
X145353Y1067500D02*X147603D01*
X144603Y1068250D02*X145353Y1067500D01*
X135000Y1064249D02*X150154D01*
X98000Y1067500D02*X101000Y1070500D01*
Y1072750D02*Y1070500D01*
X100250Y1073500D02*X101000Y1072750D01*
X98750Y1073500D02*X100250D01*
X98000Y1072750D02*X98750Y1073500D01*
X98000Y1072750D02*Y1071250D01*
X98750Y1070500D01*
X101000D01*
X98000Y1064249D02*X102801D01*
X45000Y1068250D02*X45750Y1067500D01*
X45000Y1072750D02*Y1068250D01*
Y1072750D02*X45750Y1073500D01*
X47250D01*
X48000Y1072750D01*
Y1068250D01*
X47250Y1067500D02*X48000Y1068250D01*
X45750Y1067500D02*X47250D01*
X45000Y1069000D02*X48000Y1072000D01*
X49801Y1067500D02*X50551D01*
X52353Y1068250D02*X53103Y1067500D01*
X52353Y1072750D02*Y1068250D01*
Y1072750D02*X53103Y1073500D01*
X54603D01*
X55353Y1072750D01*
Y1068250D01*
X54603Y1067500D02*X55353Y1068250D01*
X53103Y1067500D02*X54603D01*
X52353Y1069000D02*X55353Y1072000D01*
X57154Y1070500D02*X60154Y1073500D01*
X57154Y1070500D02*X60904D01*
X60154Y1073500D02*Y1067500D01*
X62706Y1072750D02*X63456Y1073500D01*
X65706D01*
X66456Y1072750D01*
Y1071250D01*
X62706Y1067500D02*X66456Y1071250D01*
X62706Y1067500D02*X66456D01*
X45000Y1064249D02*X68257D01*
X402473Y552700D02*Y546300D01*
X399273Y549500D02*X405673D01*
X400873Y551100D02*X404073D01*
X400873D02*Y547900D01*
X404073D01*
Y551100D02*Y547900D01*
X461528Y552700D02*Y546300D01*
X458328Y549500D02*X464728D01*
X459928Y551100D02*X463128D01*
X459928D02*Y547900D01*
X463128D01*
Y551100D02*Y547900D01*
X15000Y1089450D02*Y1083050D01*
X11800Y1086250D02*X18200D01*
X13400Y1087850D02*X16600D01*
X13400D02*Y1084650D01*
X16600D01*
Y1087850D02*Y1084650D01*
X135000Y1088500D02*Y1087750D01*
X136500Y1086250D01*
X138000Y1087750D01*
Y1088500D02*Y1087750D01*
X136500Y1086250D02*Y1082500D01*
X139801Y1085500D02*X142051D01*
X139801Y1082500D02*X142801D01*
X139801Y1088500D02*Y1082500D01*
Y1088500D02*X142801D01*
X147603D02*X148353Y1087750D01*
X145353Y1088500D02*X147603D01*
X144603Y1087750D02*X145353Y1088500D01*
X144603Y1087750D02*Y1086250D01*
X145353Y1085500D01*
X147603D01*
X148353Y1084750D01*
Y1083250D01*
X147603Y1082500D02*X148353Y1083250D01*
X145353Y1082500D02*X147603D01*
X144603Y1083250D02*X145353Y1082500D01*
X135000Y1079249D02*X150154D01*
X98000Y1087750D02*X98750Y1088500D01*
X101000D01*
X101750Y1087750D01*
Y1086250D01*
X98000Y1082500D02*X101750Y1086250D01*
X98000Y1082500D02*X101750D01*
X98000Y1079249D02*X103551D01*
X45000Y1083250D02*X45750Y1082500D01*
X45000Y1087750D02*Y1083250D01*
Y1087750D02*X45750Y1088500D01*
X47250D01*
X48000Y1087750D01*
Y1083250D01*
X47250Y1082500D02*X48000Y1083250D01*
X45750Y1082500D02*X47250D01*
X45000Y1084000D02*X48000Y1087000D01*
X49801Y1082500D02*X50551D01*
X52353Y1083250D02*X53103Y1082500D01*
X52353Y1087750D02*Y1083250D01*
Y1087750D02*X53103Y1088500D01*
X54603D01*
X55353Y1087750D01*
Y1083250D01*
X54603Y1082500D02*X55353Y1083250D01*
X53103Y1082500D02*X54603D01*
X52353Y1084000D02*X55353Y1087000D01*
X57154Y1085500D02*X60154Y1088500D01*
X57154Y1085500D02*X60904D01*
X60154Y1088500D02*Y1082500D01*
X62706Y1083250D02*X63456Y1082500D01*
X62706Y1087750D02*Y1083250D01*
Y1087750D02*X63456Y1088500D01*
X64956D01*
X65706Y1087750D01*
Y1083250D01*
X64956Y1082500D02*X65706Y1083250D01*
X63456Y1082500D02*X64956D01*
X62706Y1084000D02*X65706Y1087000D01*
X45000Y1079249D02*X67507D01*
X971000Y597000D02*Y593800D01*
Y597000D02*X973773Y598600D01*
X971000Y597000D02*X968227Y598600D01*
X969400Y597000D02*G75*G03X972600Y597000I1600J0D01*G01*
G75*G03X969400Y597000I-1600J0D01*G01*
X913500Y509000D02*Y505800D01*
Y509000D02*X916273Y510600D01*
X913500Y509000D02*X910727Y510600D01*
X911900Y509000D02*G75*G03X915100Y509000I1600J0D01*G01*
G75*G03X911900Y509000I-1600J0D01*G01*
X556500Y586000D02*Y582800D01*
Y586000D02*X559273Y587600D01*
X556500Y586000D02*X553727Y587600D01*
X554900Y586000D02*G75*G03X558100Y586000I1600J0D01*G01*
G75*G03X554900Y586000I-1600J0D01*G01*
X239000Y717000D02*Y713800D01*
Y717000D02*X241773Y718600D01*
X239000Y717000D02*X236227Y718600D01*
X237400Y717000D02*G75*G03X240600Y717000I1600J0D01*G01*
G75*G03X237400Y717000I-1600J0D01*G01*
X779000Y674000D02*Y670800D01*
Y674000D02*X781773Y675600D01*
X779000Y674000D02*X776227Y675600D01*
X777400Y674000D02*G75*G03X780600Y674000I1600J0D01*G01*
G75*G03X777400Y674000I-1600J0D01*G01*
X789000D02*Y670800D01*
Y674000D02*X791773Y675600D01*
X789000Y674000D02*X786227Y675600D01*
X787400Y674000D02*G75*G03X790600Y674000I1600J0D01*G01*
G75*G03X787400Y674000I-1600J0D01*G01*
X799000D02*Y670800D01*
Y674000D02*X801773Y675600D01*
X799000Y674000D02*X796227Y675600D01*
X797400Y674000D02*G75*G03X800600Y674000I1600J0D01*G01*
G75*G03X797400Y674000I-1600J0D01*G01*
X809000D02*Y670800D01*
Y674000D02*X811773Y675600D01*
X809000Y674000D02*X806227Y675600D01*
X807400Y674000D02*G75*G03X810600Y674000I1600J0D01*G01*
G75*G03X807400Y674000I-1600J0D01*G01*
X491500Y602000D02*Y598800D01*
Y602000D02*X494273Y603600D01*
X491500Y602000D02*X488727Y603600D01*
X489900Y602000D02*G75*G03X493100Y602000I1600J0D01*G01*
G75*G03X489900Y602000I-1600J0D01*G01*
X254000Y675000D02*Y671800D01*
Y675000D02*X256773Y676600D01*
X254000Y675000D02*X251227Y676600D01*
X252400Y675000D02*G75*G03X255600Y675000I1600J0D01*G01*
G75*G03X252400Y675000I-1600J0D01*G01*
X432500Y655500D02*Y652300D01*
Y655500D02*X435273Y657100D01*
X432500Y655500D02*X429727Y657100D01*
X430900Y655500D02*G75*G03X434100Y655500I1600J0D01*G01*
G75*G03X430900Y655500I-1600J0D01*G01*
X432500Y645500D02*Y642300D01*
Y645500D02*X435273Y647100D01*
X432500Y645500D02*X429727Y647100D01*
X430900Y645500D02*G75*G03X434100Y645500I1600J0D01*G01*
G75*G03X430900Y645500I-1600J0D01*G01*
X432500Y635500D02*Y632300D01*
Y635500D02*X435273Y637100D01*
X432500Y635500D02*X429727Y637100D01*
X430900Y635500D02*G75*G03X434100Y635500I1600J0D01*G01*
G75*G03X430900Y635500I-1600J0D01*G01*
X971000Y576500D02*Y573300D01*
Y576500D02*X973773Y578100D01*
X971000Y576500D02*X968227Y578100D01*
X969400Y576500D02*G75*G03X972600Y576500I1600J0D01*G01*
G75*G03X969400Y576500I-1600J0D01*G01*
X971000Y566500D02*Y563300D01*
Y566500D02*X973773Y568100D01*
X971000Y566500D02*X968227Y568100D01*
X969400Y566500D02*G75*G03X972600Y566500I1600J0D01*G01*
G75*G03X969400Y566500I-1600J0D01*G01*
X971000Y556500D02*Y553300D01*
Y556500D02*X973773Y558100D01*
X971000Y556500D02*X968227Y558100D01*
X969400Y556500D02*G75*G03X972600Y556500I1600J0D01*G01*
G75*G03X969400Y556500I-1600J0D01*G01*
X971000Y546500D02*Y543300D01*
Y546500D02*X973773Y548100D01*
X971000Y546500D02*X968227Y548100D01*
X969400Y546500D02*G75*G03X972600Y546500I1600J0D01*G01*
G75*G03X969400Y546500I-1600J0D01*G01*
X971000Y536500D02*Y533300D01*
Y536500D02*X973773Y538100D01*
X971000Y536500D02*X968227Y538100D01*
X969400Y536500D02*G75*G03X972600Y536500I1600J0D01*G01*
G75*G03X969400Y536500I-1600J0D01*G01*
X971000Y526500D02*Y523300D01*
Y526500D02*X973773Y528100D01*
X971000Y526500D02*X968227Y528100D01*
X969400Y526500D02*G75*G03X972600Y526500I1600J0D01*G01*
G75*G03X969400Y526500I-1600J0D01*G01*
X971000Y516500D02*Y513300D01*
Y516500D02*X973773Y518100D01*
X971000Y516500D02*X968227Y518100D01*
X969400Y516500D02*G75*G03X972600Y516500I1600J0D01*G01*
G75*G03X969400Y516500I-1600J0D01*G01*
X971000Y506500D02*Y503300D01*
Y506500D02*X973773Y508100D01*
X971000Y506500D02*X968227Y508100D01*
X969400Y506500D02*G75*G03X972600Y506500I1600J0D01*G01*
G75*G03X969400Y506500I-1600J0D01*G01*
X971000Y496500D02*Y493300D01*
Y496500D02*X973773Y498100D01*
X971000Y496500D02*X968227Y498100D01*
X969400Y496500D02*G75*G03X972600Y496500I1600J0D01*G01*
G75*G03X969400Y496500I-1600J0D01*G01*
X778500Y549000D02*Y545800D01*
Y549000D02*X781273Y550600D01*
X778500Y549000D02*X775727Y550600D01*
X776900Y549000D02*G75*G03X780100Y549000I1600J0D01*G01*
G75*G03X776900Y549000I-1600J0D01*G01*
X886000Y541500D02*Y538300D01*
Y541500D02*X888773Y543100D01*
X886000Y541500D02*X883227Y543100D01*
X884400Y541500D02*G75*G03X887600Y541500I1600J0D01*G01*
G75*G03X884400Y541500I-1600J0D01*G01*
X896000D02*Y538300D01*
Y541500D02*X898773Y543100D01*
X896000Y541500D02*X893227Y543100D01*
X894400Y541500D02*G75*G03X897600Y541500I1600J0D01*G01*
G75*G03X894400Y541500I-1600J0D01*G01*
X906000D02*Y538300D01*
Y541500D02*X908773Y543100D01*
X906000Y541500D02*X903227Y543100D01*
X904400Y541500D02*G75*G03X907600Y541500I1600J0D01*G01*
G75*G03X904400Y541500I-1600J0D01*G01*
X721000Y630500D02*Y627300D01*
Y630500D02*X723773Y632100D01*
X721000Y630500D02*X718227Y632100D01*
X719400Y630500D02*G75*G03X722600Y630500I1600J0D01*G01*
G75*G03X719400Y630500I-1600J0D01*G01*
X731000D02*Y627300D01*
Y630500D02*X733773Y632100D01*
X731000Y630500D02*X728227Y632100D01*
X729400Y630500D02*G75*G03X732600Y630500I1600J0D01*G01*
G75*G03X729400Y630500I-1600J0D01*G01*
X741000D02*Y627300D01*
Y630500D02*X743773Y632100D01*
X741000Y630500D02*X738227Y632100D01*
X739400Y630500D02*G75*G03X742600Y630500I1600J0D01*G01*
G75*G03X739400Y630500I-1600J0D01*G01*
X1016000Y576500D02*Y573300D01*
Y576500D02*X1018773Y578100D01*
X1016000Y576500D02*X1013227Y578100D01*
X1014400Y576500D02*G75*G03X1017600Y576500I1600J0D01*G01*
G75*G03X1014400Y576500I-1600J0D01*G01*
X1016000Y566500D02*Y563300D01*
Y566500D02*X1018773Y568100D01*
X1016000Y566500D02*X1013227Y568100D01*
X1014400Y566500D02*G75*G03X1017600Y566500I1600J0D01*G01*
G75*G03X1014400Y566500I-1600J0D01*G01*
X1016000Y556500D02*Y553300D01*
Y556500D02*X1018773Y558100D01*
X1016000Y556500D02*X1013227Y558100D01*
X1014400Y556500D02*G75*G03X1017600Y556500I1600J0D01*G01*
G75*G03X1014400Y556500I-1600J0D01*G01*
X1016000Y546500D02*Y543300D01*
Y546500D02*X1018773Y548100D01*
X1016000Y546500D02*X1013227Y548100D01*
X1014400Y546500D02*G75*G03X1017600Y546500I1600J0D01*G01*
G75*G03X1014400Y546500I-1600J0D01*G01*
X1016000Y536500D02*Y533300D01*
Y536500D02*X1018773Y538100D01*
X1016000Y536500D02*X1013227Y538100D01*
X1014400Y536500D02*G75*G03X1017600Y536500I1600J0D01*G01*
G75*G03X1014400Y536500I-1600J0D01*G01*
X1016000Y526500D02*Y523300D01*
Y526500D02*X1018773Y528100D01*
X1016000Y526500D02*X1013227Y528100D01*
X1014400Y526500D02*G75*G03X1017600Y526500I1600J0D01*G01*
G75*G03X1014400Y526500I-1600J0D01*G01*
X1016000Y516500D02*Y513300D01*
Y516500D02*X1018773Y518100D01*
X1016000Y516500D02*X1013227Y518100D01*
X1014400Y516500D02*G75*G03X1017600Y516500I1600J0D01*G01*
G75*G03X1014400Y516500I-1600J0D01*G01*
X1016000Y506500D02*Y503300D01*
Y506500D02*X1018773Y508100D01*
X1016000Y506500D02*X1013227Y508100D01*
X1014400Y506500D02*G75*G03X1017600Y506500I1600J0D01*G01*
G75*G03X1014400Y506500I-1600J0D01*G01*
X1016000Y496500D02*Y493300D01*
Y496500D02*X1018773Y498100D01*
X1016000Y496500D02*X1013227Y498100D01*
X1014400Y496500D02*G75*G03X1017600Y496500I1600J0D01*G01*
G75*G03X1014400Y496500I-1600J0D01*G01*
X269500Y636500D02*Y633300D01*
Y636500D02*X272273Y638100D01*
X269500Y636500D02*X266727Y638100D01*
X267900Y636500D02*G75*G03X271100Y636500I1600J0D01*G01*
G75*G03X267900Y636500I-1600J0D01*G01*
X966000Y644000D02*Y640800D01*
Y644000D02*X968773Y645600D01*
X966000Y644000D02*X963227Y645600D01*
X964400Y644000D02*G75*G03X967600Y644000I1600J0D01*G01*
G75*G03X964400Y644000I-1600J0D01*G01*
X245500Y554000D02*Y550800D01*
Y554000D02*X248273Y555600D01*
X245500Y554000D02*X242727Y555600D01*
X243900Y554000D02*G75*G03X247100Y554000I1600J0D01*G01*
G75*G03X243900Y554000I-1600J0D01*G01*
X778500Y630500D02*Y627300D01*
Y630500D02*X781273Y632100D01*
X778500Y630500D02*X775727Y632100D01*
X776900Y630500D02*G75*G03X780100Y630500I1600J0D01*G01*
G75*G03X776900Y630500I-1600J0D01*G01*
X788500D02*Y627300D01*
Y630500D02*X791273Y632100D01*
X788500Y630500D02*X785727Y632100D01*
X786900Y630500D02*G75*G03X790100Y630500I1600J0D01*G01*
G75*G03X786900Y630500I-1600J0D01*G01*
X798500D02*Y627300D01*
Y630500D02*X801273Y632100D01*
X798500Y630500D02*X795727Y632100D01*
X796900Y630500D02*G75*G03X800100Y630500I1600J0D01*G01*
G75*G03X796900Y630500I-1600J0D01*G01*
X808500D02*Y627300D01*
Y630500D02*X811273Y632100D01*
X808500Y630500D02*X805727Y632100D01*
X806900Y630500D02*G75*G03X810100Y630500I1600J0D01*G01*
G75*G03X806900Y630500I-1600J0D01*G01*
X876000Y692000D02*Y688800D01*
Y692000D02*X878773Y693600D01*
X876000Y692000D02*X873227Y693600D01*
X874400Y692000D02*G75*G03X877600Y692000I1600J0D01*G01*
G75*G03X874400Y692000I-1600J0D01*G01*
X886000D02*Y688800D01*
Y692000D02*X888773Y693600D01*
X886000Y692000D02*X883227Y693600D01*
X884400Y692000D02*G75*G03X887600Y692000I1600J0D01*G01*
G75*G03X884400Y692000I-1600J0D01*G01*
X896000D02*Y688800D01*
Y692000D02*X898773Y693600D01*
X896000Y692000D02*X893227Y693600D01*
X894400Y692000D02*G75*G03X897600Y692000I1600J0D01*G01*
G75*G03X894400Y692000I-1600J0D01*G01*
X778500Y519000D02*Y515800D01*
Y519000D02*X781273Y520600D01*
X778500Y519000D02*X775727Y520600D01*
X776900Y519000D02*G75*G03X780100Y519000I1600J0D01*G01*
G75*G03X776900Y519000I-1600J0D01*G01*
X15000Y1101250D02*Y1098050D01*
Y1101250D02*X17773Y1102850D01*
X15000Y1101250D02*X12227Y1102850D01*
X13400Y1101250D02*G75*G03X16600Y1101250I1600J0D01*G01*
G75*G03X13400Y1101250I-1600J0D01*G01*
X135000Y1103500D02*Y1102750D01*
X136500Y1101250D01*
X138000Y1102750D01*
Y1103500D02*Y1102750D01*
X136500Y1101250D02*Y1097500D01*
X139801Y1100500D02*X142051D01*
X139801Y1097500D02*X142801D01*
X139801Y1103500D02*Y1097500D01*
Y1103500D02*X142801D01*
X147603D02*X148353Y1102750D01*
X145353Y1103500D02*X147603D01*
X144603Y1102750D02*X145353Y1103500D01*
X144603Y1102750D02*Y1101250D01*
X145353Y1100500D01*
X147603D01*
X148353Y1099750D01*
Y1098250D01*
X147603Y1097500D02*X148353Y1098250D01*
X145353Y1097500D02*X147603D01*
X144603Y1098250D02*X145353Y1097500D01*
X135000Y1094249D02*X150154D01*
X98000Y1100500D02*X101000Y1103500D01*
X98000Y1100500D02*X101750D01*
X101000Y1103500D02*Y1097500D01*
X103551D02*X106551Y1100500D01*
Y1102750D02*Y1100500D01*
X105801Y1103500D02*X106551Y1102750D01*
X104301Y1103500D02*X105801D01*
X103551Y1102750D02*X104301Y1103500D01*
X103551Y1102750D02*Y1101250D01*
X104301Y1100500D01*
X106551D01*
X98000Y1094249D02*X108353D01*
X45000Y1098250D02*X45750Y1097500D01*
X45000Y1102750D02*Y1098250D01*
Y1102750D02*X45750Y1103500D01*
X47250D01*
X48000Y1102750D01*
Y1098250D01*
X47250Y1097500D02*X48000Y1098250D01*
X45750Y1097500D02*X47250D01*
X45000Y1099000D02*X48000Y1102000D01*
X49801Y1097500D02*X50551D01*
X52353Y1098250D02*X53103Y1097500D01*
X52353Y1102750D02*Y1098250D01*
Y1102750D02*X53103Y1103500D01*
X54603D01*
X55353Y1102750D01*
Y1098250D01*
X54603Y1097500D02*X55353Y1098250D01*
X53103Y1097500D02*X54603D01*
X52353Y1099000D02*X55353Y1102000D01*
X57154Y1102750D02*X57904Y1103500D01*
X59404D01*
X60154Y1102750D01*
Y1098250D01*
X59404Y1097500D02*X60154Y1098250D01*
X57904Y1097500D02*X59404D01*
X57154Y1098250D02*X57904Y1097500D01*
Y1100500D02*X60154D01*
X61956Y1098250D02*X62706Y1097500D01*
X61956Y1099750D02*Y1098250D01*
Y1099750D02*X62706Y1100500D01*
X64206D01*
X64956Y1099750D01*
Y1098250D01*
X64206Y1097500D02*X64956Y1098250D01*
X62706Y1097500D02*X64206D01*
X61956Y1101250D02*X62706Y1100500D01*
X61956Y1102750D02*Y1101250D01*
Y1102750D02*X62706Y1103500D01*
X64206D01*
X64956Y1102750D01*
Y1101250D01*
X64206Y1100500D02*X64956Y1101250D01*
X45000Y1094249D02*X66757D01*
X200400Y615600D02*X203600D01*
X200400D02*Y612400D01*
X203600D01*
Y615600D02*Y612400D01*
X986900Y538600D02*X990100D01*
X986900D02*Y535400D01*
X990100D01*
Y538600D02*Y535400D01*
X986900Y658100D02*X990100D01*
X986900D02*Y654900D01*
X990100D01*
Y658100D02*Y654900D01*
X986900Y490600D02*X990100D01*
X986900D02*Y487400D01*
X990100D01*
Y490600D02*Y487400D01*
X996900Y548600D02*X1000100D01*
X996900D02*Y545400D01*
X1000100D01*
Y548600D02*Y545400D01*
X154900Y578600D02*X158100D01*
X154900D02*Y575400D01*
X158100D01*
Y578600D02*Y575400D01*
X788900Y484100D02*X792100D01*
X788900D02*Y480900D01*
X792100D01*
Y484100D02*Y480900D01*
X391400Y766100D02*X394600D01*
X391400D02*Y762900D01*
X394600D01*
Y766100D02*Y762900D01*
X679400Y484100D02*X682600D01*
X679400D02*Y480900D01*
X682600D01*
Y484100D02*Y480900D01*
X979900Y568100D02*X983100D01*
X979900D02*Y564900D01*
X983100D01*
Y568100D02*Y564900D01*
X679400Y497100D02*X682600D01*
X679400D02*Y493900D01*
X682600D01*
Y497100D02*Y493900D01*
X13400Y1117850D02*X16600D01*
X13400D02*Y1114650D01*
X16600D01*
Y1117850D02*Y1114650D01*
X135000Y1118500D02*Y1117750D01*
X136500Y1116250D01*
X138000Y1117750D01*
Y1118500D02*Y1117750D01*
X136500Y1116250D02*Y1112500D01*
X139801Y1115500D02*X142051D01*
X139801Y1112500D02*X142801D01*
X139801Y1118500D02*Y1112500D01*
Y1118500D02*X142801D01*
X147603D02*X148353Y1117750D01*
X145353Y1118500D02*X147603D01*
X144603Y1117750D02*X145353Y1118500D01*
X144603Y1117750D02*Y1116250D01*
X145353Y1115500D01*
X147603D01*
X148353Y1114750D01*
Y1113250D01*
X147603Y1112500D02*X148353Y1113250D01*
X145353Y1112500D02*X147603D01*
X144603Y1113250D02*X145353Y1112500D01*
X135000Y1109249D02*X150154D01*
X98750Y1112500D02*X100250D01*
X99500Y1118500D02*Y1112500D01*
X98000Y1117000D02*X99500Y1118500D01*
X102801Y1112500D02*X104301D01*
X103551Y1118500D02*Y1112500D01*
X102051Y1117000D02*X103551Y1118500D01*
X98000Y1109249D02*X106103D01*
X45000Y1113250D02*X45750Y1112500D01*
X45000Y1117750D02*Y1113250D01*
Y1117750D02*X45750Y1118500D01*
X47250D01*
X48000Y1117750D01*
Y1113250D01*
X47250Y1112500D02*X48000Y1113250D01*
X45750Y1112500D02*X47250D01*
X45000Y1114000D02*X48000Y1117000D01*
X49801Y1112500D02*X50551D01*
X52353Y1113250D02*X53103Y1112500D01*
X52353Y1117750D02*Y1113250D01*
Y1117750D02*X53103Y1118500D01*
X54603D01*
X55353Y1117750D01*
Y1113250D01*
X54603Y1112500D02*X55353Y1113250D01*
X53103Y1112500D02*X54603D01*
X52353Y1114000D02*X55353Y1117000D01*
X57154Y1117750D02*X57904Y1118500D01*
X59404D01*
X60154Y1117750D01*
Y1113250D01*
X59404Y1112500D02*X60154Y1113250D01*
X57904Y1112500D02*X59404D01*
X57154Y1113250D02*X57904Y1112500D01*
Y1115500D02*X60154D01*
X61956Y1118500D02*X64956D01*
X61956D02*Y1115500D01*
X62706Y1116250D01*
X64206D01*
X64956Y1115500D01*
Y1113250D01*
X64206Y1112500D02*X64956Y1113250D01*
X62706Y1112500D02*X64206D01*
X61956Y1113250D02*X62706Y1112500D01*
X45000Y1109249D02*X66757D01*
X213200Y534000D02*G75*G03X214800Y534000I800J0D01*G01*
G75*G03X213200Y534000I-800J0D01*G01*
X183278Y533607D02*G75*G03X184878Y533607I800J0D01*G01*
G75*G03X183278Y533607I-800J0D01*G01*
X185700Y740000D02*G75*G03X187300Y740000I800J0D01*G01*
G75*G03X185700Y740000I-800J0D01*G01*
X195700D02*G75*G03X197300Y740000I800J0D01*G01*
G75*G03X195700Y740000I-800J0D01*G01*
X990200D02*G75*G03X991800Y740000I800J0D01*G01*
G75*G03X990200Y740000I-800J0D01*G01*
X1000200D02*G75*G03X1001800Y740000I800J0D01*G01*
G75*G03X1000200Y740000I-800J0D01*G01*
X14200Y1131250D02*G75*G03X15800Y1131250I800J0D01*G01*
G75*G03X14200Y1131250I-800J0D01*G01*
X135000Y1133500D02*Y1132750D01*
X136500Y1131250D01*
X138000Y1132750D01*
Y1133500D02*Y1132750D01*
X136500Y1131250D02*Y1127500D01*
X139801Y1130500D02*X142051D01*
X139801Y1127500D02*X142801D01*
X139801Y1133500D02*Y1127500D01*
Y1133500D02*X142801D01*
X147603D02*X148353Y1132750D01*
X145353Y1133500D02*X147603D01*
X144603Y1132750D02*X145353Y1133500D01*
X144603Y1132750D02*Y1131250D01*
X145353Y1130500D01*
X147603D01*
X148353Y1129750D01*
Y1128250D01*
X147603Y1127500D02*X148353Y1128250D01*
X145353Y1127500D02*X147603D01*
X144603Y1128250D02*X145353Y1127500D01*
X135000Y1124249D02*X150154D01*
X100250Y1133500D02*X101000Y1132750D01*
X98750Y1133500D02*X100250D01*
X98000Y1132750D02*X98750Y1133500D01*
X98000Y1132750D02*Y1128250D01*
X98750Y1127500D01*
X100250Y1130500D02*X101000Y1129750D01*
X98000Y1130500D02*X100250D01*
X98750Y1127500D02*X100250D01*
X101000Y1128250D01*
Y1129750D02*Y1128250D01*
X98000Y1124249D02*X102801D01*
X45000Y1128250D02*X45750Y1127500D01*
X45000Y1132750D02*Y1128250D01*
Y1132750D02*X45750Y1133500D01*
X47250D01*
X48000Y1132750D01*
Y1128250D01*
X47250Y1127500D02*X48000Y1128250D01*
X45750Y1127500D02*X47250D01*
X45000Y1129000D02*X48000Y1132000D01*
X49801Y1127500D02*X50551D01*
X52353Y1128250D02*X53103Y1127500D01*
X52353Y1132750D02*Y1128250D01*
Y1132750D02*X53103Y1133500D01*
X54603D01*
X55353Y1132750D01*
Y1128250D01*
X54603Y1127500D02*X55353Y1128250D01*
X53103Y1127500D02*X54603D01*
X52353Y1129000D02*X55353Y1132000D01*
X57154Y1132750D02*X57904Y1133500D01*
X59404D01*
X60154Y1132750D01*
Y1128250D01*
X59404Y1127500D02*X60154Y1128250D01*
X57904Y1127500D02*X59404D01*
X57154Y1128250D02*X57904Y1127500D01*
Y1130500D02*X60154D01*
X61956Y1132750D02*X62706Y1133500D01*
X64956D01*
X65706Y1132750D01*
Y1131250D01*
X61956Y1127500D02*X65706Y1131250D01*
X61956Y1127500D02*X65706D01*
X45000Y1124249D02*X67507D01*
X687800Y601200D02*X690200Y598800D01*
X687800D02*X690200Y601200D01*
X697800D02*X700200Y598800D01*
X697800D02*X700200Y601200D01*
X719800Y660200D02*X722200Y657800D01*
X719800D02*X722200Y660200D01*
X759800D02*X762200Y657800D01*
X759800D02*X762200Y660200D01*
X515300Y674700D02*X517700Y672300D01*
X515300D02*X517700Y674700D01*
X555300D02*X557700Y672300D01*
X555300D02*X557700Y674700D01*
X605300Y617700D02*X607700Y615300D01*
X605300D02*X607700Y617700D01*
X645300D02*X647700Y615300D01*
X645300D02*X647700Y617700D01*
X645300Y644700D02*X647700Y642300D01*
X645300D02*X647700Y644700D01*
X645300Y684700D02*X647700Y682300D01*
X645300D02*X647700Y684700D01*
X525300Y637200D02*X527700Y634800D01*
X525300D02*X527700Y637200D01*
X555300D02*X557700Y634800D01*
X555300D02*X557700Y637200D01*
X515300Y654700D02*X517700Y652300D01*
X515300D02*X517700Y654700D01*
X555300D02*X557700Y652300D01*
X555300D02*X557700Y654700D01*
X627800Y577200D02*X630200Y574800D01*
X627800D02*X630200Y577200D01*
X627800Y537200D02*X630200Y534800D01*
X627800D02*X630200Y537200D01*
X540300Y577200D02*X542700Y574800D01*
X540300D02*X542700Y577200D01*
X540300Y537200D02*X542700Y534800D01*
X540300D02*X542700Y537200D01*
X525300Y597200D02*X527700Y594800D01*
X525300D02*X527700Y597200D01*
X525300Y557200D02*X527700Y554800D01*
X525300D02*X527700Y557200D01*
X666800Y684700D02*X669200Y682300D01*
X666800D02*X669200Y684700D01*
X666800Y644700D02*X669200Y642300D01*
X666800D02*X669200Y644700D01*
X515300Y619700D02*X517700Y617300D01*
X515300D02*X517700Y619700D01*
X555300D02*X557700Y617300D01*
X555300D02*X557700Y619700D01*
X719800Y510200D02*X722200Y507800D01*
X719800D02*X722200Y510200D01*
X759800D02*X762200Y507800D01*
X759800D02*X762200Y510200D01*
X230300Y615200D02*X232700Y612800D01*
X230300D02*X232700Y615200D01*
X190300D02*X192700Y612800D01*
X190300D02*X192700Y615200D01*
X854800Y520200D02*X857200Y517800D01*
X854800D02*X857200Y520200D01*
X894800D02*X897200Y517800D01*
X894800D02*X897200Y520200D01*
X160300Y630200D02*X162700Y627800D01*
X160300D02*X162700Y630200D01*
X160300Y670200D02*X162700Y667800D01*
X160300D02*X162700Y670200D01*
X719800Y675200D02*X722200Y672800D01*
X719800D02*X722200Y675200D01*
X759800D02*X762200Y672800D01*
X759800D02*X762200Y675200D01*
X160300Y702700D02*X162700Y700300D01*
X160300D02*X162700Y702700D01*
X200300D02*X202700Y700300D01*
X200300D02*X202700Y702700D01*
X202800Y489200D02*X205200Y486800D01*
X202800D02*X205200Y489200D01*
X232800D02*X235200Y486800D01*
X232800D02*X235200Y489200D01*
X160300Y718200D02*X162700Y715800D01*
X160300D02*X162700Y718200D01*
X200300D02*X202700Y715800D01*
X200300D02*X202700Y718200D01*
X295300Y737700D02*X297700Y735300D01*
X295300D02*X297700Y737700D01*
X295300Y777700D02*X297700Y775300D01*
X295300D02*X297700Y777700D01*
X627800Y644700D02*X630200Y642300D01*
X627800D02*X630200Y644700D01*
X627800Y684700D02*X630200Y682300D01*
X627800D02*X630200Y684700D01*
X330300Y682700D02*X332700Y680300D01*
X330300D02*X332700Y682700D01*
X330300Y722700D02*X332700Y720300D01*
X330300D02*X332700Y722700D01*
X212800Y702700D02*X215200Y700300D01*
X212800D02*X215200Y702700D01*
X252800D02*X255200Y700300D01*
X252800D02*X255200Y702700D01*
X909800Y705200D02*X912200Y702800D01*
X909800D02*X912200Y705200D01*
X949800D02*X952200Y702800D01*
X949800D02*X952200Y705200D01*
X864800Y645200D02*X867200Y642800D01*
X864800D02*X867200Y645200D01*
X894800D02*X897200Y642800D01*
X894800D02*X897200Y645200D01*
X719800Y530200D02*X722200Y527800D01*
X719800D02*X722200Y530200D01*
X759800D02*X762200Y527800D01*
X759800D02*X762200Y530200D01*
X854800Y615200D02*X857200Y612800D01*
X854800D02*X857200Y615200D01*
X894800D02*X897200Y612800D01*
X894800D02*X897200Y615200D01*
X854800Y570200D02*X857200Y567800D01*
X854800D02*X857200Y570200D01*
X894800D02*X897200Y567800D01*
X894800D02*X897200Y570200D01*
X919800Y660200D02*X922200Y657800D01*
X919800D02*X922200Y660200D01*
X949800D02*X952200Y657800D01*
X949800D02*X952200Y660200D01*
X854800Y630200D02*X857200Y627800D01*
X854800D02*X857200Y630200D01*
X894800D02*X897200Y627800D01*
X894800D02*X897200Y630200D01*
X909800Y645200D02*X912200Y642800D01*
X909800D02*X912200Y645200D01*
X949800D02*X952200Y642800D01*
X949800D02*X952200Y645200D01*
X312800Y655200D02*X315200Y652800D01*
X312800D02*X315200Y655200D01*
X312800Y695200D02*X315200Y692800D01*
X312800D02*X315200Y695200D01*
X719800Y550200D02*X722200Y547800D01*
X719800D02*X722200Y550200D01*
X759800D02*X762200Y547800D01*
X759800D02*X762200Y550200D01*
X919800Y630200D02*X922200Y627800D01*
X919800D02*X922200Y630200D01*
X949800D02*X952200Y627800D01*
X949800D02*X952200Y630200D01*
X964800D02*X967200Y627800D01*
X964800D02*X967200Y630200D01*
X1004800D02*X1007200Y627800D01*
X1004800D02*X1007200Y630200D01*
X854800Y675200D02*X857200Y672800D01*
X854800D02*X857200Y675200D01*
X894800D02*X897200Y672800D01*
X894800D02*X897200Y675200D01*
X932300Y566200D02*X934700Y563800D01*
X932300D02*X934700Y566200D01*
X942300D02*X944700Y563800D01*
X942300D02*X944700Y566200D01*
X312800Y710200D02*X315200Y707800D01*
X312800D02*X315200Y710200D01*
X312800Y750200D02*X315200Y747800D01*
X312800D02*X315200Y750200D01*
X295300Y682700D02*X297700Y680300D01*
X295300D02*X297700Y682700D01*
X295300Y722700D02*X297700Y720300D01*
X295300D02*X297700Y722700D01*
X555300Y557200D02*X557700Y554800D01*
X555300D02*X557700Y557200D01*
X555300Y517200D02*X557700Y514800D01*
X555300D02*X557700Y517200D01*
X313300Y545200D02*X315700Y542800D01*
X313300D02*X315700Y545200D01*
X353300D02*X355700Y542800D01*
X353300D02*X355700Y545200D01*
X313300Y507700D02*X315700Y505300D01*
X313300D02*X315700Y507700D01*
X353300D02*X355700Y505300D01*
X353300D02*X355700Y507700D01*
X313300Y525200D02*X315700Y522800D01*
X313300D02*X315700Y525200D01*
X353300D02*X355700Y522800D01*
X353300D02*X355700Y525200D01*
X175300Y620700D02*X177700Y618300D01*
X175300D02*X177700Y620700D01*
X175300Y660700D02*X177700Y658300D01*
X175300D02*X177700Y660700D01*
X230300Y630200D02*X232700Y627800D01*
X230300D02*X232700Y630200D01*
X190300D02*X192700Y627800D01*
X190300D02*X192700Y630200D01*
X767300Y585200D02*X769700Y582800D01*
X767300D02*X769700Y585200D01*
X777300D02*X779700Y582800D01*
X777300D02*X779700Y585200D01*
X200300Y600200D02*X202700Y597800D01*
X200300D02*X202700Y600200D01*
X160300D02*X162700Y597800D01*
X160300D02*X162700Y600200D01*
X909800Y675200D02*X912200Y672800D01*
X909800D02*X912200Y675200D01*
X949800D02*X952200Y672800D01*
X949800D02*X952200Y675200D01*
X854800Y597700D02*X857200Y595300D01*
X854800D02*X857200Y597700D01*
X894800D02*X897200Y595300D01*
X894800D02*X897200Y597700D01*
X854800Y540200D02*X857200Y537800D01*
X854800D02*X857200Y540200D01*
X864800D02*X867200Y537800D01*
X864800D02*X867200Y540200D01*
X854800Y660200D02*X857200Y657800D01*
X854800D02*X857200Y660200D01*
X894800D02*X897200Y657800D01*
X894800D02*X897200Y660200D01*
X313300Y489200D02*X315700Y486800D01*
X313300D02*X315700Y489200D01*
X343300D02*X345700Y486800D01*
X343300D02*X345700Y489200D01*
X230300Y600200D02*X232700Y597800D01*
X230300D02*X232700Y600200D01*
X270300D02*X272700Y597800D01*
X270300D02*X272700Y600200D01*
X854800Y500200D02*X857200Y497800D01*
X854800D02*X857200Y500200D01*
X894800D02*X897200Y497800D01*
X894800D02*X897200Y500200D01*
X964800Y615200D02*X967200Y612800D01*
X964800D02*X967200Y615200D01*
X1004800D02*X1007200Y612800D01*
X1004800D02*X1007200Y615200D01*
X719800Y570200D02*X722200Y567800D01*
X719800D02*X722200Y570200D01*
X759800D02*X762200Y567800D01*
X759800D02*X762200Y570200D01*
X919800Y690200D02*X922200Y687800D01*
X919800D02*X922200Y690200D01*
X949800D02*X952200Y687800D01*
X949800D02*X952200Y690200D01*
X13800Y1147450D02*X16200Y1145050D01*
X13800D02*X16200Y1147450D01*
X135000Y1148500D02*Y1147750D01*
X136500Y1146250D01*
X138000Y1147750D01*
Y1148500D02*Y1147750D01*
X136500Y1146250D02*Y1142500D01*
X139801Y1145500D02*X142051D01*
X139801Y1142500D02*X142801D01*
X139801Y1148500D02*Y1142500D01*
Y1148500D02*X142801D01*
X147603D02*X148353Y1147750D01*
X145353Y1148500D02*X147603D01*
X144603Y1147750D02*X145353Y1148500D01*
X144603Y1147750D02*Y1146250D01*
X145353Y1145500D01*
X147603D01*
X148353Y1144750D01*
Y1143250D01*
X147603Y1142500D02*X148353Y1143250D01*
X145353Y1142500D02*X147603D01*
X144603Y1143250D02*X145353Y1142500D01*
X135000Y1139249D02*X150154D01*
X98750Y1142500D02*X100250D01*
X99500Y1148500D02*Y1142500D01*
X98000Y1147000D02*X99500Y1148500D01*
X102801Y1142500D02*X104301D01*
X103551Y1148500D02*Y1142500D01*
X102051Y1147000D02*X103551Y1148500D01*
X108353D02*X109103Y1147750D01*
X106853Y1148500D02*X108353D01*
X106103Y1147750D02*X106853Y1148500D01*
X106103Y1147750D02*Y1143250D01*
X106853Y1142500D01*
X108353Y1145500D02*X109103Y1144750D01*
X106103Y1145500D02*X108353D01*
X106853Y1142500D02*X108353D01*
X109103Y1143250D01*
Y1144750D02*Y1143250D01*
X98000Y1139249D02*X110904D01*
X45000Y1143250D02*X45750Y1142500D01*
X45000Y1147750D02*Y1143250D01*
Y1147750D02*X45750Y1148500D01*
X47250D01*
X48000Y1147750D01*
Y1143250D01*
X47250Y1142500D02*X48000Y1143250D01*
X45750Y1142500D02*X47250D01*
X45000Y1144000D02*X48000Y1147000D01*
X49801Y1142500D02*X50551D01*
X52353Y1143250D02*X53103Y1142500D01*
X52353Y1147750D02*Y1143250D01*
Y1147750D02*X53103Y1148500D01*
X54603D01*
X55353Y1147750D01*
Y1143250D01*
X54603Y1142500D02*X55353Y1143250D01*
X53103Y1142500D02*X54603D01*
X52353Y1144000D02*X55353Y1147000D01*
X57154Y1147750D02*X57904Y1148500D01*
X59404D01*
X60154Y1147750D01*
Y1143250D01*
X59404Y1142500D02*X60154Y1143250D01*
X57904Y1142500D02*X59404D01*
X57154Y1143250D02*X57904Y1142500D01*
Y1145500D02*X60154D01*
X61956Y1143250D02*X62706Y1142500D01*
X61956Y1147750D02*Y1143250D01*
Y1147750D02*X62706Y1148500D01*
X64206D01*
X64956Y1147750D01*
Y1143250D01*
X64206Y1142500D02*X64956Y1143250D01*
X62706Y1142500D02*X64206D01*
X61956Y1144000D02*X64956Y1147000D01*
X45000Y1139249D02*X66757D01*
X576500Y675100D02*Y671900D01*
X574900Y673500D02*X578100D01*
X576500Y665100D02*Y661900D01*
X574900Y663500D02*X578100D01*
X576500Y655100D02*Y651900D01*
X574900Y653500D02*X578100D01*
X576500Y645100D02*Y641900D01*
X574900Y643500D02*X578100D01*
X606500Y645100D02*Y641900D01*
X604900Y643500D02*X608100D01*
X606500Y655100D02*Y651900D01*
X604900Y653500D02*X608100D01*
X606500Y665100D02*Y661900D01*
X604900Y663500D02*X608100D01*
X606500Y675100D02*Y671900D01*
X604900Y673500D02*X608100D01*
X576500Y587600D02*Y584400D01*
X574900Y586000D02*X578100D01*
X576500Y577600D02*Y574400D01*
X574900Y576000D02*X578100D01*
X576500Y567600D02*Y564400D01*
X574900Y566000D02*X578100D01*
X576500Y557600D02*Y554400D01*
X574900Y556000D02*X578100D01*
X576500Y547600D02*Y544400D01*
X574900Y546000D02*X578100D01*
X576500Y537600D02*Y534400D01*
X574900Y536000D02*X578100D01*
X576500Y527600D02*Y524400D01*
X574900Y526000D02*X578100D01*
X576500Y517600D02*Y514400D01*
X574900Y516000D02*X578100D01*
X606500Y517600D02*Y514400D01*
X604900Y516000D02*X608100D01*
X606500Y527600D02*Y524400D01*
X604900Y526000D02*X608100D01*
X606500Y537600D02*Y534400D01*
X604900Y536000D02*X608100D01*
X606500Y547600D02*Y544400D01*
X604900Y546000D02*X608100D01*
X606500Y557600D02*Y554400D01*
X604900Y556000D02*X608100D01*
X606500Y567600D02*Y564400D01*
X604900Y566000D02*X608100D01*
X606500Y577600D02*Y574400D01*
X604900Y576000D02*X608100D01*
X606500Y587600D02*Y584400D01*
X604900Y586000D02*X608100D01*
X986000Y700600D02*Y697400D01*
X984400Y699000D02*X987600D01*
X986000Y690600D02*Y687400D01*
X984400Y689000D02*X987600D01*
X986000Y680600D02*Y677400D01*
X984400Y679000D02*X987600D01*
X986000Y670600D02*Y667400D01*
X984400Y669000D02*X987600D01*
X1016000Y670600D02*Y667400D01*
X1014400Y669000D02*X1017600D01*
X1016000Y680600D02*Y677400D01*
X1014400Y679000D02*X1017600D01*
X1016000Y690600D02*Y687400D01*
X1014400Y689000D02*X1017600D01*
X1016000Y700600D02*Y697400D01*
X1014400Y699000D02*X1017600D01*
X262000Y535600D02*Y532400D01*
X260400Y534000D02*X263600D01*
X262000Y525600D02*Y522400D01*
X260400Y524000D02*X263600D01*
X262000Y515600D02*Y512400D01*
X260400Y514000D02*X263600D01*
X262000Y505600D02*Y502400D01*
X260400Y504000D02*X263600D01*
X292000Y505600D02*Y502400D01*
X290400Y504000D02*X293600D01*
X292000Y515600D02*Y512400D01*
X290400Y514000D02*X293600D01*
X292000Y525600D02*Y522400D01*
X290400Y524000D02*X293600D01*
X292000Y535600D02*Y532400D01*
X290400Y534000D02*X293600D01*
X530500Y770100D02*Y766900D01*
X528900Y768500D02*X532100D01*
X520500Y770100D02*Y766900D01*
X518900Y768500D02*X522100D01*
X191500Y680600D02*Y677400D01*
X189900Y679000D02*X193100D01*
X191500Y670600D02*Y667400D01*
X189900Y669000D02*X193100D01*
X191500Y660600D02*Y657400D01*
X189900Y659000D02*X193100D01*
X191500Y650600D02*Y647400D01*
X189900Y649000D02*X193100D01*
X221500Y650600D02*Y647400D01*
X219900Y649000D02*X223100D01*
X221500Y660600D02*Y657400D01*
X219900Y659000D02*X223100D01*
X221500Y670600D02*Y667400D01*
X219900Y669000D02*X223100D01*
X221500Y680600D02*Y677400D01*
X219900Y679000D02*X223100D01*
X803500Y570600D02*Y567400D01*
X801900Y569000D02*X805100D01*
X803500Y560600D02*Y557400D01*
X801900Y559000D02*X805100D01*
X803500Y550600D02*Y547400D01*
X801900Y549000D02*X805100D01*
X803500Y540600D02*Y537400D01*
X801900Y539000D02*X805100D01*
X803500Y530600D02*Y527400D01*
X801900Y529000D02*X805100D01*
X803500Y520600D02*Y517400D01*
X801900Y519000D02*X805100D01*
X803500Y510600D02*Y507400D01*
X801900Y509000D02*X805100D01*
X803500Y500600D02*Y497400D01*
X801900Y499000D02*X805100D01*
X833500Y500600D02*Y497400D01*
X831900Y499000D02*X835100D01*
X833500Y510600D02*Y507400D01*
X831900Y509000D02*X835100D01*
X833500Y520600D02*Y517400D01*
X831900Y519000D02*X835100D01*
X833500Y530600D02*Y527400D01*
X831900Y529000D02*X835100D01*
X833500Y540600D02*Y537400D01*
X831900Y539000D02*X835100D01*
X833500Y550600D02*Y547400D01*
X831900Y549000D02*X835100D01*
X833500Y560600D02*Y557400D01*
X831900Y559000D02*X835100D01*
X833500Y570600D02*Y567400D01*
X831900Y569000D02*X835100D01*
X15000Y1162850D02*Y1159650D01*
X13400Y1161250D02*X16600D01*
X135000Y1163500D02*Y1162750D01*
X136500Y1161250D01*
X138000Y1162750D01*
Y1163500D02*Y1162750D01*
X136500Y1161250D02*Y1157500D01*
X139801Y1160500D02*X142051D01*
X139801Y1157500D02*X142801D01*
X139801Y1163500D02*Y1157500D01*
Y1163500D02*X142801D01*
X147603D02*X148353Y1162750D01*
X145353Y1163500D02*X147603D01*
X144603Y1162750D02*X145353Y1163500D01*
X144603Y1162750D02*Y1161250D01*
X145353Y1160500D01*
X147603D01*
X148353Y1159750D01*
Y1158250D01*
X147603Y1157500D02*X148353Y1158250D01*
X145353Y1157500D02*X147603D01*
X144603Y1158250D02*X145353Y1157500D01*
X135000Y1154249D02*X150154D01*
X100250Y1163500D02*X101000Y1162750D01*
X98750Y1163500D02*X100250D01*
X98000Y1162750D02*X98750Y1163500D01*
X98000Y1162750D02*Y1158250D01*
X98750Y1157500D01*
X100250Y1160500D02*X101000Y1159750D01*
X98000Y1160500D02*X100250D01*
X98750Y1157500D02*X100250D01*
X101000Y1158250D01*
Y1159750D02*Y1158250D01*
X105051Y1163500D02*X105801Y1162750D01*
X103551Y1163500D02*X105051D01*
X102801Y1162750D02*X103551Y1163500D01*
X102801Y1162750D02*Y1158250D01*
X103551Y1157500D01*
X105051Y1160500D02*X105801Y1159750D01*
X102801Y1160500D02*X105051D01*
X103551Y1157500D02*X105051D01*
X105801Y1158250D01*
Y1159750D02*Y1158250D01*
X98000Y1154249D02*X107603D01*
X45000Y1158250D02*X45750Y1157500D01*
X45000Y1162750D02*Y1158250D01*
Y1162750D02*X45750Y1163500D01*
X47250D01*
X48000Y1162750D01*
Y1158250D01*
X47250Y1157500D02*X48000Y1158250D01*
X45750Y1157500D02*X47250D01*
X45000Y1159000D02*X48000Y1162000D01*
X49801Y1157500D02*X50551D01*
X52353Y1158250D02*X53103Y1157500D01*
X52353Y1162750D02*Y1158250D01*
Y1162750D02*X53103Y1163500D01*
X54603D01*
X55353Y1162750D01*
Y1158250D01*
X54603Y1157500D02*X55353Y1158250D01*
X53103Y1157500D02*X54603D01*
X52353Y1159000D02*X55353Y1162000D01*
X57154Y1162750D02*X57904Y1163500D01*
X60154D01*
X60904Y1162750D01*
Y1161250D01*
X57154Y1157500D02*X60904Y1161250D01*
X57154Y1157500D02*X60904D01*
X62706Y1158250D02*X63456Y1157500D01*
X62706Y1159750D02*Y1158250D01*
Y1159750D02*X63456Y1160500D01*
X64956D01*
X65706Y1159750D01*
Y1158250D01*
X64956Y1157500D02*X65706Y1158250D01*
X63456Y1157500D02*X64956D01*
X62706Y1161250D02*X63456Y1160500D01*
X62706Y1162750D02*Y1161250D01*
Y1162750D02*X63456Y1163500D01*
X64956D01*
X65706Y1162750D01*
Y1161250D01*
X64956Y1160500D02*X65706Y1161250D01*
X45000Y1154249D02*X67507D01*
X923000Y481500D02*Y479900D01*
Y481500D02*X924386Y482300D01*
X923000Y481500D02*X921614Y482300D01*
X923000Y495500D02*Y493900D01*
Y495500D02*X924386Y496300D01*
X923000Y495500D02*X921614Y496300D01*
X303000Y768500D02*Y766900D01*
Y768500D02*X304386Y769300D01*
X303000Y768500D02*X301614Y769300D01*
X281500Y768500D02*Y766900D01*
Y768500D02*X282886Y769300D01*
X281500Y768500D02*X280114Y769300D01*
X288000Y761500D02*Y759900D01*
Y761500D02*X289386Y762300D01*
X288000Y761500D02*X286614Y762300D01*
X357000Y688500D02*Y686900D01*
Y688500D02*X358386Y689300D01*
X357000Y688500D02*X355614Y689300D01*
X772000Y538500D02*Y536900D01*
Y538500D02*X773386Y539300D01*
X772000Y538500D02*X770614Y539300D01*
X786500Y608000D02*Y606400D01*
Y608000D02*X787886Y608800D01*
X786500Y608000D02*X785114Y608800D01*
X432000Y688500D02*Y686900D01*
Y688500D02*X433386Y689300D01*
X432000Y688500D02*X430614Y689300D01*
X642500Y600000D02*Y598400D01*
Y600000D02*X643886Y600800D01*
X642500Y600000D02*X641114Y600800D01*
X651000Y591500D02*Y589900D01*
Y591500D02*X652386Y592300D01*
X651000Y591500D02*X649614Y592300D01*
X818500Y579500D02*Y577900D01*
Y579500D02*X819886Y580300D01*
X818500Y579500D02*X817114Y580300D01*
X765500Y598500D02*Y596900D01*
Y598500D02*X766886Y599300D01*
X765500Y598500D02*X764114Y599300D01*
X541000Y699500D02*Y697900D01*
Y699500D02*X542386Y700300D01*
X541000Y699500D02*X539614Y700300D01*
X712500Y585500D02*Y583900D01*
Y585500D02*X713886Y586300D01*
X712500Y585500D02*X711114Y586300D01*
X813000Y606500D02*Y604900D01*
Y606500D02*X814386Y607300D01*
X813000Y606500D02*X811614Y607300D01*
X633500Y502500D02*Y500900D01*
Y502500D02*X634886Y503300D01*
X633500Y502500D02*X632114Y503300D01*
X690500Y502500D02*Y500900D01*
Y502500D02*X691886Y503300D01*
X690500Y502500D02*X689114Y503300D01*
X609000Y601500D02*Y599900D01*
Y601500D02*X610386Y602300D01*
X609000Y601500D02*X607614Y602300D01*
X833000Y588500D02*Y586900D01*
Y588500D02*X834386Y589300D01*
X833000Y588500D02*X831614Y589300D01*
X552000Y706500D02*Y704900D01*
Y706500D02*X553386Y707300D01*
X552000Y706500D02*X550614Y707300D01*
X369500Y645500D02*Y643900D01*
Y645500D02*X370886Y646300D01*
X369500Y645500D02*X368114Y646300D01*
X632500Y601500D02*Y599900D01*
Y601500D02*X633886Y602300D01*
X632500Y601500D02*X631114Y602300D01*
X15000Y1176250D02*Y1174650D01*
Y1176250D02*X16386Y1177050D01*
X15000Y1176250D02*X13614Y1177050D01*
X135000Y1178500D02*Y1177750D01*
X136500Y1176250D01*
X138000Y1177750D01*
Y1178500D02*Y1177750D01*
X136500Y1176250D02*Y1172500D01*
X139801Y1175500D02*X142051D01*
X139801Y1172500D02*X142801D01*
X139801Y1178500D02*Y1172500D01*
Y1178500D02*X142801D01*
X147603D02*X148353Y1177750D01*
X145353Y1178500D02*X147603D01*
X144603Y1177750D02*X145353Y1178500D01*
X144603Y1177750D02*Y1176250D01*
X145353Y1175500D01*
X147603D01*
X148353Y1174750D01*
Y1173250D01*
X147603Y1172500D02*X148353Y1173250D01*
X145353Y1172500D02*X147603D01*
X144603Y1173250D02*X145353Y1172500D01*
X135000Y1169249D02*X150154D01*
X98000Y1177750D02*X98750Y1178500D01*
X101000D01*
X101750Y1177750D01*
Y1176250D01*
X98000Y1172500D02*X101750Y1176250D01*
X98000Y1172500D02*X101750D01*
X103551Y1177750D02*X104301Y1178500D01*
X105801D01*
X106551Y1177750D01*
Y1173250D01*
X105801Y1172500D02*X106551Y1173250D01*
X104301Y1172500D02*X105801D01*
X103551Y1173250D02*X104301Y1172500D01*
Y1175500D02*X106551D01*
X98000Y1169249D02*X108353D01*
X45000Y1173250D02*X45750Y1172500D01*
X45000Y1177750D02*Y1173250D01*
Y1177750D02*X45750Y1178500D01*
X47250D01*
X48000Y1177750D01*
Y1173250D01*
X47250Y1172500D02*X48000Y1173250D01*
X45750Y1172500D02*X47250D01*
X45000Y1174000D02*X48000Y1177000D01*
X49801Y1172500D02*X50551D01*
X52353Y1173250D02*X53103Y1172500D01*
X52353Y1177750D02*Y1173250D01*
Y1177750D02*X53103Y1178500D01*
X54603D01*
X55353Y1177750D01*
Y1173250D01*
X54603Y1172500D02*X55353Y1173250D01*
X53103Y1172500D02*X54603D01*
X52353Y1174000D02*X55353Y1177000D01*
X57154Y1177750D02*X57904Y1178500D01*
X60154D01*
X60904Y1177750D01*
Y1176250D01*
X57154Y1172500D02*X60904Y1176250D01*
X57154Y1172500D02*X60904D01*
X62706Y1173250D02*X63456Y1172500D01*
X62706Y1177750D02*Y1173250D01*
Y1177750D02*X63456Y1178500D01*
X64956D01*
X65706Y1177750D01*
Y1173250D01*
X64956Y1172500D02*X65706Y1173250D01*
X63456Y1172500D02*X64956D01*
X62706Y1174000D02*X65706Y1177000D01*
X45000Y1169249D02*X67507D01*
X3000Y1193500D02*X3750Y1192750D01*
X750Y1193500D02*X3000D01*
X0Y1192750D02*X750Y1193500D01*
X0Y1192750D02*Y1191250D01*
X750Y1190500D01*
X3000D01*
X3750Y1189750D01*
Y1188250D01*
X3000Y1187500D02*X3750Y1188250D01*
X750Y1187500D02*X3000D01*
X0Y1188250D02*X750Y1187500D01*
X5551Y1190500D02*Y1188250D01*
X6301Y1187500D01*
X8551Y1190500D02*Y1186000D01*
X7801Y1185250D02*X8551Y1186000D01*
X6301Y1185250D02*X7801D01*
X5551Y1186000D02*X6301Y1185250D01*
Y1187500D02*X7801D01*
X8551Y1188250D01*
X11103Y1189750D02*Y1187500D01*
Y1189750D02*X11853Y1190500D01*
X12603D01*
X13353Y1189750D01*
Y1187500D01*
Y1189750D02*X14103Y1190500D01*
X14853D01*
X15603Y1189750D01*
Y1187500D01*
X10353Y1190500D02*X11103Y1189750D01*
X17404Y1193500D02*Y1187500D01*
Y1188250D02*X18154Y1187500D01*
X19654D01*
X20404Y1188250D01*
Y1189750D02*Y1188250D01*
X19654Y1190500D02*X20404Y1189750D01*
X18154Y1190500D02*X19654D01*
X17404Y1189750D02*X18154Y1190500D01*
X22206Y1189750D02*Y1188250D01*
Y1189750D02*X22956Y1190500D01*
X24456D01*
X25206Y1189750D01*
Y1188250D01*
X24456Y1187500D02*X25206Y1188250D01*
X22956Y1187500D02*X24456D01*
X22206Y1188250D02*X22956Y1187500D01*
X27007Y1193500D02*Y1188250D01*
X27757Y1187500D01*
X41750Y1193500D02*Y1187500D01*
X44000Y1193500D02*X44750Y1192750D01*
Y1188250D01*
X44000Y1187500D02*X44750Y1188250D01*
X41000Y1187500D02*X44000D01*
X41000Y1193500D02*X44000D01*
X46551Y1192000D02*Y1191250D01*
Y1189750D02*Y1187500D01*
X50303Y1190500D02*X51053Y1189750D01*
X48803Y1190500D02*X50303D01*
X48053Y1189750D02*X48803Y1190500D01*
X48053Y1189750D02*Y1188250D01*
X48803Y1187500D01*
X51053Y1190500D02*Y1188250D01*
X51803Y1187500D01*
X48803D02*X50303D01*
X51053Y1188250D01*
X54354Y1189750D02*Y1187500D01*
Y1189750D02*X55104Y1190500D01*
X55854D01*
X56604Y1189750D01*
Y1187500D01*
Y1189750D02*X57354Y1190500D01*
X58104D01*
X58854Y1189750D01*
Y1187500D01*
X53604Y1190500D02*X54354Y1189750D01*
X60656Y1187500D02*X61406D01*
X65907Y1188250D02*X66657Y1187500D01*
X65907Y1192750D02*X66657Y1193500D01*
X65907Y1192750D02*Y1188250D01*
X68459Y1193500D02*X69959D01*
X69209D02*Y1187500D01*
X68459D02*X69959D01*
X72510Y1189750D02*Y1187500D01*
Y1189750D02*X73260Y1190500D01*
X74010D01*
X74760Y1189750D01*
Y1187500D01*
X71760Y1190500D02*X72510Y1189750D01*
X77312Y1190500D02*X79562D01*
X76562Y1189750D02*X77312Y1190500D01*
X76562Y1189750D02*Y1188250D01*
X77312Y1187500D01*
X79562D01*
X81363Y1193500D02*Y1187500D01*
Y1189750D02*X82113Y1190500D01*
X83613D01*
X84363Y1189750D01*
Y1187500D01*
X86165Y1193500D02*X86915Y1192750D01*
Y1188250D01*
X86165Y1187500D02*X86915Y1188250D01*
X95750Y1187500D02*X98000D01*
X95000Y1188250D02*X95750Y1187500D01*
X95000Y1192750D02*Y1188250D01*
Y1192750D02*X95750Y1193500D01*
X98000D01*
X99801Y1189750D02*Y1188250D01*
Y1189750D02*X100551Y1190500D01*
X102051D01*
X102801Y1189750D01*
Y1188250D01*
X102051Y1187500D02*X102801Y1188250D01*
X100551Y1187500D02*X102051D01*
X99801Y1188250D02*X100551Y1187500D01*
X104603Y1190500D02*Y1188250D01*
X105353Y1187500D01*
X106853D01*
X107603Y1188250D01*
Y1190500D02*Y1188250D01*
X110154Y1189750D02*Y1187500D01*
Y1189750D02*X110904Y1190500D01*
X111654D01*
X112404Y1189750D01*
Y1187500D01*
X109404Y1190500D02*X110154Y1189750D01*
X114956Y1193500D02*Y1188250D01*
X115706Y1187500D01*
X114206Y1191250D02*X115706D01*
X130750Y1193500D02*Y1187500D01*
X130000Y1193500D02*X133000D01*
X133750Y1192750D01*
Y1191250D01*
X133000Y1190500D02*X133750Y1191250D01*
X130750Y1190500D02*X133000D01*
X135551Y1193500D02*Y1188250D01*
X136301Y1187500D01*
X140053Y1190500D02*X140803Y1189750D01*
X138553Y1190500D02*X140053D01*
X137803Y1189750D02*X138553Y1190500D01*
X137803Y1189750D02*Y1188250D01*
X138553Y1187500D01*
X140803Y1190500D02*Y1188250D01*
X141553Y1187500D01*
X138553D02*X140053D01*
X140803Y1188250D01*
X144104Y1193500D02*Y1188250D01*
X144854Y1187500D01*
X143354Y1191250D02*X144854D01*
X147106Y1187500D02*X149356D01*
X146356Y1188250D02*X147106Y1187500D01*
X146356Y1189750D02*Y1188250D01*
Y1189750D02*X147106Y1190500D01*
X148606D01*
X149356Y1189750D01*
X146356Y1189000D02*X149356D01*
Y1189750D02*Y1189000D01*
X154157Y1193500D02*Y1187500D01*
X153407D02*X154157Y1188250D01*
X151907Y1187500D02*X153407D01*
X151157Y1188250D02*X151907Y1187500D01*
X151157Y1189750D02*Y1188250D01*
Y1189750D02*X151907Y1190500D01*
X153407D01*
X154157Y1189750D01*
X157459Y1190500D02*Y1189750D01*
Y1188250D02*Y1187500D01*
X155959Y1192750D02*Y1192000D01*
Y1192750D02*X156709Y1193500D01*
X158209D01*
X158959Y1192750D01*
Y1192000D01*
X157459Y1190500D02*X158959Y1192000D01*
X0Y1208500D02*X3000D01*
X1500D02*Y1202500D01*
X4801Y1208500D02*Y1202500D01*
Y1204750D02*X5551Y1205500D01*
X7051D01*
X7801Y1204750D01*
Y1202500D01*
X10353D02*X12603D01*
X9603Y1203250D02*X10353Y1202500D01*
X9603Y1204750D02*Y1203250D01*
Y1204750D02*X10353Y1205500D01*
X11853D01*
X12603Y1204750D01*
X9603Y1204000D02*X12603D01*
Y1204750D02*Y1204000D01*
X15154Y1204750D02*Y1202500D01*
Y1204750D02*X15904Y1205500D01*
X17404D01*
X14404D02*X15154Y1204750D01*
X19956Y1202500D02*X22206D01*
X19206Y1203250D02*X19956Y1202500D01*
X19206Y1204750D02*Y1203250D01*
Y1204750D02*X19956Y1205500D01*
X21456D01*
X22206Y1204750D01*
X19206Y1204000D02*X22206D01*
Y1204750D02*Y1204000D01*
X28957Y1205500D02*X29707Y1204750D01*
X27457Y1205500D02*X28957D01*
X26707Y1204750D02*X27457Y1205500D01*
X26707Y1204750D02*Y1203250D01*
X27457Y1202500D01*
X29707Y1205500D02*Y1203250D01*
X30457Y1202500D01*
X27457D02*X28957D01*
X29707Y1203250D01*
X33009Y1204750D02*Y1202500D01*
Y1204750D02*X33759Y1205500D01*
X35259D01*
X32259D02*X33009Y1204750D01*
X37810Y1202500D02*X40060D01*
X37060Y1203250D02*X37810Y1202500D01*
X37060Y1204750D02*Y1203250D01*
Y1204750D02*X37810Y1205500D01*
X39310D01*
X40060Y1204750D01*
X37060Y1204000D02*X40060D01*
Y1204750D02*Y1204000D01*
X45312Y1202500D02*X46812D01*
X46062Y1208500D02*Y1202500D01*
X44562Y1207000D02*X46062Y1208500D01*
X48613Y1207750D02*X49363Y1208500D01*
X51613D01*
X52363Y1207750D01*
Y1206250D01*
X48613Y1202500D02*X52363Y1206250D01*
X48613Y1202500D02*X52363D01*
X59865Y1208500D02*Y1202500D01*
X59115D02*X59865Y1203250D01*
X57615Y1202500D02*X59115D01*
X56865Y1203250D02*X57615Y1202500D01*
X56865Y1204750D02*Y1203250D01*
Y1204750D02*X57615Y1205500D01*
X59115D01*
X59865Y1204750D01*
X61666Y1207000D02*Y1206250D01*
Y1204750D02*Y1202500D01*
X63918Y1207750D02*Y1202500D01*
Y1207750D02*X64668Y1208500D01*
X65418D01*
X63168Y1205500D02*X64668D01*
X67669Y1207750D02*Y1202500D01*
Y1207750D02*X68419Y1208500D01*
X69169D01*
X66919Y1205500D02*X68419D01*
X71421Y1202500D02*X73671D01*
X70671Y1203250D02*X71421Y1202500D01*
X70671Y1204750D02*Y1203250D01*
Y1204750D02*X71421Y1205500D01*
X72921D01*
X73671Y1204750D01*
X70671Y1204000D02*X73671D01*
Y1204750D02*Y1204000D01*
X76222Y1204750D02*Y1202500D01*
Y1204750D02*X76972Y1205500D01*
X78472D01*
X75472D02*X76222Y1204750D01*
X81024Y1202500D02*X83274D01*
X80274Y1203250D02*X81024Y1202500D01*
X80274Y1204750D02*Y1203250D01*
Y1204750D02*X81024Y1205500D01*
X82524D01*
X83274Y1204750D01*
X80274Y1204000D02*X83274D01*
Y1204750D02*Y1204000D01*
X85825Y1204750D02*Y1202500D01*
Y1204750D02*X86575Y1205500D01*
X87325D01*
X88075Y1204750D01*
Y1202500D01*
X85075Y1205500D02*X85825Y1204750D01*
X90627Y1208500D02*Y1203250D01*
X91377Y1202500D01*
X89877Y1206250D02*X91377D01*
X98578Y1208500D02*Y1202500D01*
X97828D02*X98578Y1203250D01*
X96328Y1202500D02*X97828D01*
X95578Y1203250D02*X96328Y1202500D01*
X95578Y1204750D02*Y1203250D01*
Y1204750D02*X96328Y1205500D01*
X97828D01*
X98578Y1204750D01*
X101130D02*Y1202500D01*
Y1204750D02*X101880Y1205500D01*
X103380D01*
X100380D02*X101130Y1204750D01*
X105181Y1207000D02*Y1206250D01*
Y1204750D02*Y1202500D01*
X106683Y1208500D02*Y1203250D01*
X107433Y1202500D01*
X108934Y1208500D02*Y1203250D01*
X109684Y1202500D01*
X114636D02*X116886D01*
X117636Y1203250D01*
X116886Y1204000D02*X117636Y1203250D01*
X114636Y1204000D02*X116886D01*
X113886Y1204750D02*X114636Y1204000D01*
X113886Y1204750D02*X114636Y1205500D01*
X116886D01*
X117636Y1204750D01*
X113886Y1203250D02*X114636Y1202500D01*
X119437Y1207000D02*Y1206250D01*
Y1204750D02*Y1202500D01*
X120939Y1205500D02*X123939D01*
X120939Y1202500D02*X123939Y1205500D01*
X120939Y1202500D02*X123939D01*
X126490D02*X128740D01*
X125740Y1203250D02*X126490Y1202500D01*
X125740Y1204750D02*Y1203250D01*
Y1204750D02*X126490Y1205500D01*
X127990D01*
X128740Y1204750D01*
X125740Y1204000D02*X128740D01*
Y1204750D02*Y1204000D01*
X131292Y1202500D02*X133542D01*
X134292Y1203250D01*
X133542Y1204000D02*X134292Y1203250D01*
X131292Y1204000D02*X133542D01*
X130542Y1204750D02*X131292Y1204000D01*
X130542Y1204750D02*X131292Y1205500D01*
X133542D01*
X134292Y1204750D01*
X130542Y1203250D02*X131292Y1202500D01*
X138793Y1205500D02*Y1203250D01*
X139543Y1202500D01*
X141043D01*
X141793Y1203250D01*
Y1205500D02*Y1203250D01*
X144345Y1202500D02*X146595D01*
X147345Y1203250D01*
X146595Y1204000D02*X147345Y1203250D01*
X144345Y1204000D02*X146595D01*
X143595Y1204750D02*X144345Y1204000D01*
X143595Y1204750D02*X144345Y1205500D01*
X146595D01*
X147345Y1204750D01*
X143595Y1203250D02*X144345Y1202500D01*
X149896D02*X152146D01*
X149146Y1203250D02*X149896Y1202500D01*
X149146Y1204750D02*Y1203250D01*
Y1204750D02*X149896Y1205500D01*
X151396D01*
X152146Y1204750D01*
X149146Y1204000D02*X152146D01*
Y1204750D02*Y1204000D01*
X156948Y1208500D02*Y1202500D01*
X156198D02*X156948Y1203250D01*
X154698Y1202500D02*X156198D01*
X153948Y1203250D02*X154698Y1202500D01*
X153948Y1204750D02*Y1203250D01*
Y1204750D02*X154698Y1205500D01*
X156198D01*
X156948Y1204750D01*
X161449Y1207000D02*Y1206250D01*
Y1204750D02*Y1202500D01*
X163701Y1204750D02*Y1202500D01*
Y1204750D02*X164451Y1205500D01*
X165201D01*
X165951Y1204750D01*
Y1202500D01*
X162951Y1205500D02*X163701Y1204750D01*
X171202Y1208500D02*Y1203250D01*
X171952Y1202500D01*
X170452Y1206250D02*X171952D01*
X173454Y1208500D02*Y1202500D01*
Y1204750D02*X174204Y1205500D01*
X175704D01*
X176454Y1204750D01*
Y1202500D01*
X178255Y1207000D02*Y1206250D01*
Y1204750D02*Y1202500D01*
X180507D02*X182757D01*
X183507Y1203250D01*
X182757Y1204000D02*X183507Y1203250D01*
X180507Y1204000D02*X182757D01*
X179757Y1204750D02*X180507Y1204000D01*
X179757Y1204750D02*X180507Y1205500D01*
X182757D01*
X183507Y1204750D01*
X179757Y1203250D02*X180507Y1202500D01*
X188008Y1208500D02*Y1203250D01*
X188758Y1202500D01*
X192510Y1205500D02*X193260Y1204750D01*
X191010Y1205500D02*X192510D01*
X190260Y1204750D02*X191010Y1205500D01*
X190260Y1204750D02*Y1203250D01*
X191010Y1202500D01*
X193260Y1205500D02*Y1203250D01*
X194010Y1202500D01*
X191010D02*X192510D01*
X193260Y1203250D01*
X195811Y1205500D02*Y1203250D01*
X196561Y1202500D01*
X198811Y1205500D02*Y1201000D01*
X198061Y1200250D02*X198811Y1201000D01*
X196561Y1200250D02*X198061D01*
X195811Y1201000D02*X196561Y1200250D01*
Y1202500D02*X198061D01*
X198811Y1203250D01*
X200613Y1204750D02*Y1203250D01*
Y1204750D02*X201363Y1205500D01*
X202863D01*
X203613Y1204750D01*
Y1203250D01*
X202863Y1202500D02*X203613Y1203250D01*
X201363Y1202500D02*X202863D01*
X200613Y1203250D02*X201363Y1202500D01*
X205414Y1205500D02*Y1203250D01*
X206164Y1202500D01*
X207664D01*
X208414Y1203250D01*
Y1205500D02*Y1203250D01*
X210966Y1208500D02*Y1203250D01*
X211716Y1202500D01*
X210216Y1206250D02*X211716D01*
X213217Y1201000D02*X214717Y1202500D01*
X219219Y1207750D02*X219969Y1208500D01*
X221469D01*
X222219Y1207750D01*
Y1203250D01*
X221469Y1202500D02*X222219Y1203250D01*
X219969Y1202500D02*X221469D01*
X219219Y1203250D02*X219969Y1202500D01*
Y1205500D02*X222219D01*
X224020Y1203250D02*X224770Y1202500D01*
X224020Y1207750D02*Y1203250D01*
Y1207750D02*X224770Y1208500D01*
X226270D01*
X227020Y1207750D01*
Y1203250D01*
X226270Y1202500D02*X227020Y1203250D01*
X224770Y1202500D02*X226270D01*
X224020Y1204000D02*X227020Y1207000D01*
X231072Y1208500D02*X231822Y1207750D01*
X229572Y1208500D02*X231072D01*
X228822Y1207750D02*X229572Y1208500D01*
X228822Y1207750D02*Y1203250D01*
X229572Y1202500D01*
X231072Y1205500D02*X231822Y1204750D01*
X228822Y1205500D02*X231072D01*
X229572Y1202500D02*X231072D01*
X231822Y1203250D01*
Y1204750D02*Y1203250D01*
X236323Y1208500D02*Y1202500D01*
Y1204750D02*X237073Y1205500D01*
X238573D01*
X239323Y1204750D01*
Y1202500D01*
X241125Y1204750D02*Y1203250D01*
Y1204750D02*X241875Y1205500D01*
X243375D01*
X244125Y1204750D01*
Y1203250D01*
X243375Y1202500D02*X244125Y1203250D01*
X241875Y1202500D02*X243375D01*
X241125Y1203250D02*X241875Y1202500D01*
X245926Y1208500D02*Y1203250D01*
X246676Y1202500D01*
X248928D02*X251178D01*
X248178Y1203250D02*X248928Y1202500D01*
X248178Y1204750D02*Y1203250D01*
Y1204750D02*X248928Y1205500D01*
X250428D01*
X251178Y1204750D01*
X248178Y1204000D02*X251178D01*
Y1204750D02*Y1204000D01*
X253729Y1202500D02*X255979D01*
X256729Y1203250D01*
X255979Y1204000D02*X256729Y1203250D01*
X253729Y1204000D02*X255979D01*
X252979Y1204750D02*X253729Y1204000D01*
X252979Y1204750D02*X253729Y1205500D01*
X255979D01*
X256729Y1204750D01*
X252979Y1203250D02*X253729Y1202500D01*
X261981Y1208500D02*Y1203250D01*
X262731Y1202500D01*
X261231Y1206250D02*X262731D01*
X264232Y1204750D02*Y1203250D01*
Y1204750D02*X264982Y1205500D01*
X266482D01*
X267232Y1204750D01*
Y1203250D01*
X266482Y1202500D02*X267232Y1203250D01*
X264982Y1202500D02*X266482D01*
X264232Y1203250D02*X264982Y1202500D01*
X269784Y1208500D02*Y1203250D01*
X270534Y1202500D01*
X269034Y1206250D02*X270534D01*
X274285Y1205500D02*X275035Y1204750D01*
X272785Y1205500D02*X274285D01*
X272035Y1204750D02*X272785Y1205500D01*
X272035Y1204750D02*Y1203250D01*
X272785Y1202500D01*
X275035Y1205500D02*Y1203250D01*
X275785Y1202500D01*
X272785D02*X274285D01*
X275035Y1203250D01*
X277587Y1208500D02*Y1203250D01*
X278337Y1202500D01*
G54D14*X0Y1000000D02*X1200000D01*
X0D02*Y0D01*
X1200000Y1000000D02*Y0D01*
X0D02*X1200000D01*
G54D53*X200000Y1013500D02*Y1007500D01*
Y1013500D02*X202250Y1011250D01*
X204500Y1013500D01*
Y1007500D01*
X208551Y1010500D02*X209301Y1009750D01*
X207051Y1010500D02*X208551D01*
X206301Y1009750D02*X207051Y1010500D01*
X206301Y1009750D02*Y1008250D01*
X207051Y1007500D01*
X209301Y1010500D02*Y1008250D01*
X210051Y1007500D01*
X207051D02*X208551D01*
X209301Y1008250D01*
X211853Y1010500D02*X214853Y1007500D01*
X211853D02*X214853Y1010500D01*
X216654Y1012000D02*Y1011250D01*
Y1009750D02*Y1007500D01*
X218906Y1009750D02*Y1007500D01*
Y1009750D02*X219656Y1010500D01*
X220406D01*
X221156Y1009750D01*
Y1007500D01*
Y1009750D02*X221906Y1010500D01*
X222656D01*
X223406Y1009750D01*
Y1007500D01*
X218156Y1010500D02*X218906Y1009750D01*
X225207Y1010500D02*Y1008250D01*
X225957Y1007500D01*
X227457D01*
X228207Y1008250D01*
Y1010500D02*Y1008250D01*
X230759Y1009750D02*Y1007500D01*
Y1009750D02*X231509Y1010500D01*
X232259D01*
X233009Y1009750D01*
Y1007500D01*
Y1009750D02*X233759Y1010500D01*
X234509D01*
X235259Y1009750D01*
Y1007500D01*
X230009Y1010500D02*X230759Y1009750D01*
X240510Y1013500D02*Y1007500D01*
X242760Y1013500D02*X243510Y1012750D01*
Y1008250D01*
X242760Y1007500D02*X243510Y1008250D01*
X239760Y1007500D02*X242760D01*
X239760Y1013500D02*X242760D01*
X245312Y1012000D02*Y1011250D01*
Y1009750D02*Y1007500D01*
X247563Y1009750D02*Y1007500D01*
Y1009750D02*X248313Y1010500D01*
X249063D01*
X249813Y1009750D01*
Y1007500D01*
Y1009750D02*X250563Y1010500D01*
X251313D01*
X252063Y1009750D01*
Y1007500D01*
X246813Y1010500D02*X247563Y1009750D01*
X254615Y1007500D02*X256865D01*
X253865Y1008250D02*X254615Y1007500D01*
X253865Y1009750D02*Y1008250D01*
Y1009750D02*X254615Y1010500D01*
X256115D01*
X256865Y1009750D01*
X253865Y1009000D02*X256865D01*
Y1009750D02*Y1009000D01*
X259416Y1009750D02*Y1007500D01*
Y1009750D02*X260166Y1010500D01*
X260916D01*
X261666Y1009750D01*
Y1007500D01*
X258666Y1010500D02*X259416Y1009750D01*
X264218Y1007500D02*X266468D01*
X267218Y1008250D01*
X266468Y1009000D02*X267218Y1008250D01*
X264218Y1009000D02*X266468D01*
X263468Y1009750D02*X264218Y1009000D01*
X263468Y1009750D02*X264218Y1010500D01*
X266468D01*
X267218Y1009750D01*
X263468Y1008250D02*X264218Y1007500D01*
X269019Y1012000D02*Y1011250D01*
Y1009750D02*Y1007500D01*
X270521Y1009750D02*Y1008250D01*
Y1009750D02*X271271Y1010500D01*
X272771D01*
X273521Y1009750D01*
Y1008250D01*
X272771Y1007500D02*X273521Y1008250D01*
X271271Y1007500D02*X272771D01*
X270521Y1008250D02*X271271Y1007500D01*
X276072Y1009750D02*Y1007500D01*
Y1009750D02*X276822Y1010500D01*
X277572D01*
X278322Y1009750D01*
Y1007500D01*
X275322Y1010500D02*X276072Y1009750D01*
X280874Y1007500D02*X283124D01*
X283874Y1008250D01*
X283124Y1009000D02*X283874Y1008250D01*
X280874Y1009000D02*X283124D01*
X280124Y1009750D02*X280874Y1009000D01*
X280124Y1009750D02*X280874Y1010500D01*
X283124D01*
X283874Y1009750D01*
X280124Y1008250D02*X280874Y1007500D01*
X285675Y1011250D02*X286425D01*
X285675Y1009750D02*X286425D01*
X291677Y1007500D02*X293177D01*
X292427Y1013500D02*Y1007500D01*
X290927Y1012000D02*X292427Y1013500D01*
X294978Y1012750D02*X295728Y1013500D01*
X297978D01*
X298728Y1012750D01*
Y1011250D01*
X294978Y1007500D02*X298728Y1011250D01*
X294978Y1007500D02*X298728D01*
X300530Y1008250D02*X301280Y1007500D01*
X300530Y1012750D02*Y1008250D01*
Y1012750D02*X301280Y1013500D01*
X302780D01*
X303530Y1012750D01*
Y1008250D01*
X302780Y1007500D02*X303530Y1008250D01*
X301280Y1007500D02*X302780D01*
X300530Y1009000D02*X303530Y1012000D01*
X305331Y1008250D02*X306081Y1007500D01*
X305331Y1012750D02*Y1008250D01*
Y1012750D02*X306081Y1013500D01*
X307581D01*
X308331Y1012750D01*
Y1008250D01*
X307581Y1007500D02*X308331Y1008250D01*
X306081Y1007500D02*X307581D01*
X305331Y1009000D02*X308331Y1012000D01*
X310133Y1008250D02*X310883Y1007500D01*
X310133Y1012750D02*Y1008250D01*
Y1012750D02*X310883Y1013500D01*
X312383D01*
X313133Y1012750D01*
Y1008250D01*
X312383Y1007500D02*X313133Y1008250D01*
X310883Y1007500D02*X312383D01*
X310133Y1009000D02*X313133Y1012000D01*
X318384Y1009750D02*Y1007500D01*
Y1009750D02*X319134Y1010500D01*
X319884D01*
X320634Y1009750D01*
Y1007500D01*
Y1009750D02*X321384Y1010500D01*
X322134D01*
X322884Y1009750D01*
Y1007500D01*
X317634Y1010500D02*X318384Y1009750D01*
X324686Y1012000D02*Y1011250D01*
Y1009750D02*Y1007500D01*
X326187Y1013500D02*Y1008250D01*
X326937Y1007500D01*
X329189D02*X331439D01*
X332189Y1008250D01*
X331439Y1009000D02*X332189Y1008250D01*
X329189Y1009000D02*X331439D01*
X328439Y1009750D02*X329189Y1009000D01*
X328439Y1009750D02*X329189Y1010500D01*
X331439D01*
X332189Y1009750D01*
X328439Y1008250D02*X329189Y1007500D01*
X336690Y1010500D02*Y1008250D01*
X337440Y1007500D01*
X338190D01*
X338940Y1008250D01*
Y1010500D02*Y1008250D01*
X339690Y1007500D01*
X340440D01*
X341190Y1008250D01*
Y1010500D02*Y1008250D01*
X342992Y1012000D02*Y1011250D01*
Y1009750D02*Y1007500D01*
X347493Y1013500D02*Y1007500D01*
X346743D02*X347493Y1008250D01*
X345243Y1007500D02*X346743D01*
X344493Y1008250D02*X345243Y1007500D01*
X344493Y1009750D02*Y1008250D01*
Y1009750D02*X345243Y1010500D01*
X346743D01*
X347493Y1009750D01*
X350045Y1007500D02*X352295D01*
X349295Y1008250D02*X350045Y1007500D01*
X349295Y1009750D02*Y1008250D01*
Y1009750D02*X350045Y1010500D01*
X351545D01*
X352295Y1009750D01*
X349295Y1009000D02*X352295D01*
Y1009750D02*Y1009000D01*
X354096Y1006000D02*X355596Y1007500D01*
X360848D02*X362348D01*
X361598Y1013500D02*Y1007500D01*
X360098Y1012000D02*X361598Y1013500D01*
X364149Y1008250D02*X364899Y1007500D01*
X364149Y1012750D02*Y1008250D01*
Y1012750D02*X364899Y1013500D01*
X366399D01*
X367149Y1012750D01*
Y1008250D01*
X366399Y1007500D02*X367149Y1008250D01*
X364899Y1007500D02*X366399D01*
X364149Y1009000D02*X367149Y1012000D01*
X368951Y1008250D02*X369701Y1007500D01*
X368951Y1012750D02*Y1008250D01*
Y1012750D02*X369701Y1013500D01*
X371201D01*
X371951Y1012750D01*
Y1008250D01*
X371201Y1007500D02*X371951Y1008250D01*
X369701Y1007500D02*X371201D01*
X368951Y1009000D02*X371951Y1012000D01*
X373752Y1008250D02*X374502Y1007500D01*
X373752Y1012750D02*Y1008250D01*
Y1012750D02*X374502Y1013500D01*
X376002D01*
X376752Y1012750D01*
Y1008250D01*
X376002Y1007500D02*X376752Y1008250D01*
X374502Y1007500D02*X376002D01*
X373752Y1009000D02*X376752Y1012000D01*
X378554Y1008250D02*X379304Y1007500D01*
X378554Y1012750D02*Y1008250D01*
Y1012750D02*X379304Y1013500D01*
X380804D01*
X381554Y1012750D01*
Y1008250D01*
X380804Y1007500D02*X381554Y1008250D01*
X379304Y1007500D02*X380804D01*
X378554Y1009000D02*X381554Y1012000D01*
X386805Y1009750D02*Y1007500D01*
Y1009750D02*X387555Y1010500D01*
X388305D01*
X389055Y1009750D01*
Y1007500D01*
Y1009750D02*X389805Y1010500D01*
X390555D01*
X391305Y1009750D01*
Y1007500D01*
X386055Y1010500D02*X386805Y1009750D01*
X393107Y1012000D02*Y1011250D01*
Y1009750D02*Y1007500D01*
X394608Y1013500D02*Y1008250D01*
X395358Y1007500D01*
X397610D02*X399860D01*
X400610Y1008250D01*
X399860Y1009000D02*X400610Y1008250D01*
X397610Y1009000D02*X399860D01*
X396860Y1009750D02*X397610Y1009000D01*
X396860Y1009750D02*X397610Y1010500D01*
X399860D01*
X400610Y1009750D01*
X396860Y1008250D02*X397610Y1007500D01*
X405111Y1013500D02*Y1007500D01*
Y1009750D02*X405861Y1010500D01*
X407361D01*
X408111Y1009750D01*
Y1007500D01*
X409913Y1012000D02*Y1011250D01*
Y1009750D02*Y1007500D01*
X413664Y1010500D02*X414414Y1009750D01*
X412164Y1010500D02*X413664D01*
X411414Y1009750D02*X412164Y1010500D01*
X411414Y1009750D02*Y1008250D01*
X412164Y1007500D01*
X413664D01*
X414414Y1008250D01*
X411414Y1006000D02*X412164Y1005250D01*
X413664D01*
X414414Y1006000D01*
Y1010500D02*Y1006000D01*
X416216Y1013500D02*Y1007500D01*
Y1009750D02*X416966Y1010500D01*
X418466D01*
X419216Y1009750D01*
Y1007500D01*
X437799Y-9500D02*X440799D01*
X441549Y-8750D01*
Y-7250D02*Y-8750D01*
X440799Y-6500D02*X441549Y-7250D01*
X438549Y-6500D02*X440799D01*
X438549Y-3500D02*Y-9500D01*
X437799Y-3500D02*X440799D01*
X441549Y-4250D01*
Y-5750D01*
X440799Y-6500D02*X441549Y-5750D01*
X443350Y-7250D02*Y-8750D01*
Y-7250D02*X444100Y-6500D01*
X445600D01*
X446350Y-7250D01*
Y-8750D01*
X445600Y-9500D02*X446350Y-8750D01*
X444100Y-9500D02*X445600D01*
X443350Y-8750D02*X444100Y-9500D01*
X450402Y-6500D02*X451152Y-7250D01*
X448902Y-6500D02*X450402D01*
X448152Y-7250D02*X448902Y-6500D01*
X448152Y-7250D02*Y-8750D01*
X448902Y-9500D01*
X451152Y-6500D02*Y-8750D01*
X451902Y-9500D01*
X448902D02*X450402D01*
X451152Y-8750D01*
X454453Y-7250D02*Y-9500D01*
Y-7250D02*X455203Y-6500D01*
X456703D01*
X453703D02*X454453Y-7250D01*
X461505Y-3500D02*Y-9500D01*
X460755D02*X461505Y-8750D01*
X459255Y-9500D02*X460755D01*
X458505Y-8750D02*X459255Y-9500D01*
X458505Y-7250D02*Y-8750D01*
Y-7250D02*X459255Y-6500D01*
X460755D01*
X461505Y-7250D01*
X466006D02*Y-8750D01*
Y-7250D02*X466756Y-6500D01*
X468256D01*
X469006Y-7250D01*
Y-8750D01*
X468256Y-9500D02*X469006Y-8750D01*
X466756Y-9500D02*X468256D01*
X466006Y-8750D02*X466756Y-9500D01*
X470808Y-6500D02*Y-8750D01*
X471558Y-9500D01*
X473058D01*
X473808Y-8750D01*
Y-6500D02*Y-8750D01*
X476359Y-3500D02*Y-8750D01*
X477109Y-9500D01*
X475609Y-5750D02*X477109D01*
X478611Y-3500D02*Y-8750D01*
X479361Y-9500D01*
X480862Y-5000D02*Y-5750D01*
Y-7250D02*Y-9500D01*
X483114Y-7250D02*Y-9500D01*
Y-7250D02*X483864Y-6500D01*
X484614D01*
X485364Y-7250D01*
Y-9500D01*
X482364Y-6500D02*X483114Y-7250D01*
X487915Y-9500D02*X490165D01*
X487165Y-8750D02*X487915Y-9500D01*
X487165Y-7250D02*Y-8750D01*
Y-7250D02*X487915Y-6500D01*
X489415D01*
X490165Y-7250D01*
X487165Y-8000D02*X490165D01*
Y-7250D02*Y-8000D01*
X494667Y-5000D02*Y-5750D01*
Y-7250D02*Y-9500D01*
X496918D02*X499168D01*
X499918Y-8750D01*
X499168Y-8000D02*X499918Y-8750D01*
X496918Y-8000D02*X499168D01*
X496168Y-7250D02*X496918Y-8000D01*
X496168Y-7250D02*X496918Y-6500D01*
X499168D01*
X499918Y-7250D01*
X496168Y-8750D02*X496918Y-9500D01*
X505170Y-3500D02*Y-8750D01*
X505920Y-9500D01*
X504420Y-5750D02*X505920D01*
X507421Y-3500D02*Y-9500D01*
Y-7250D02*X508171Y-6500D01*
X509671D01*
X510421Y-7250D01*
Y-9500D01*
X512973D02*X515223D01*
X512223Y-8750D02*X512973Y-9500D01*
X512223Y-7250D02*Y-8750D01*
Y-7250D02*X512973Y-6500D01*
X514473D01*
X515223Y-7250D01*
X512223Y-8000D02*X515223D01*
Y-7250D02*Y-8000D01*
X520474Y-6500D02*X522724D01*
X519724Y-7250D02*X520474Y-6500D01*
X519724Y-7250D02*Y-8750D01*
X520474Y-9500D01*
X522724D01*
X525276D02*X527526D01*
X524526Y-8750D02*X525276Y-9500D01*
X524526Y-7250D02*Y-8750D01*
Y-7250D02*X525276Y-6500D01*
X526776D01*
X527526Y-7250D01*
X524526Y-8000D02*X527526D01*
Y-7250D02*Y-8000D01*
X530077Y-7250D02*Y-9500D01*
Y-7250D02*X530827Y-6500D01*
X531577D01*
X532327Y-7250D01*
Y-9500D01*
X529327Y-6500D02*X530077Y-7250D01*
X534879Y-3500D02*Y-8750D01*
X535629Y-9500D01*
X534129Y-5750D02*X535629D01*
X537880Y-9500D02*X540130D01*
X537130Y-8750D02*X537880Y-9500D01*
X537130Y-7250D02*Y-8750D01*
Y-7250D02*X537880Y-6500D01*
X539380D01*
X540130Y-7250D01*
X537130Y-8000D02*X540130D01*
Y-7250D02*Y-8000D01*
X542682Y-7250D02*Y-9500D01*
Y-7250D02*X543432Y-6500D01*
X544932D01*
X541932D02*X542682Y-7250D01*
X546733Y-3500D02*Y-8750D01*
X547483Y-9500D01*
X548985Y-5000D02*Y-5750D01*
Y-7250D02*Y-9500D01*
X551236Y-7250D02*Y-9500D01*
Y-7250D02*X551986Y-6500D01*
X552736D01*
X553486Y-7250D01*
Y-9500D01*
X550486Y-6500D02*X551236Y-7250D01*
X556038Y-9500D02*X558288D01*
X555288Y-8750D02*X556038Y-9500D01*
X555288Y-7250D02*Y-8750D01*
Y-7250D02*X556038Y-6500D01*
X557538D01*
X558288Y-7250D01*
X555288Y-8000D02*X558288D01*
Y-7250D02*Y-8000D01*
X562789Y-7250D02*Y-8750D01*
Y-7250D02*X563539Y-6500D01*
X565039D01*
X565789Y-7250D01*
Y-8750D01*
X565039Y-9500D02*X565789Y-8750D01*
X563539Y-9500D02*X565039D01*
X562789Y-8750D02*X563539Y-9500D01*
X568341Y-4250D02*Y-9500D01*
Y-4250D02*X569091Y-3500D01*
X569841D01*
X567591Y-6500D02*X569091D01*
X574792Y-3500D02*Y-8750D01*
X575542Y-9500D01*
X574042Y-5750D02*X575542D01*
X577044Y-3500D02*Y-9500D01*
Y-7250D02*X577794Y-6500D01*
X579294D01*
X580044Y-7250D01*
Y-9500D01*
X581845Y-5000D02*Y-5750D01*
Y-7250D02*Y-9500D01*
X584097D02*X586347D01*
X587097Y-8750D01*
X586347Y-8000D02*X587097Y-8750D01*
X584097Y-8000D02*X586347D01*
X583347Y-7250D02*X584097Y-8000D01*
X583347Y-7250D02*X584097Y-6500D01*
X586347D01*
X587097Y-7250D01*
X583347Y-8750D02*X584097Y-9500D01*
X592348D02*X593848D01*
X593098Y-3500D02*Y-9500D01*
X591598Y-5000D02*X593098Y-3500D01*
X595650Y-8750D02*X596400Y-9500D01*
X595650Y-4250D02*Y-8750D01*
Y-4250D02*X596400Y-3500D01*
X597900D01*
X598650Y-4250D01*
Y-8750D01*
X597900Y-9500D02*X598650Y-8750D01*
X596400Y-9500D02*X597900D01*
X595650Y-8000D02*X598650Y-5000D01*
X603901Y-7250D02*Y-9500D01*
Y-7250D02*X604651Y-6500D01*
X605401D01*
X606151Y-7250D01*
Y-9500D01*
Y-7250D02*X606901Y-6500D01*
X607651D01*
X608401Y-7250D01*
Y-9500D01*
X603151Y-6500D02*X603901Y-7250D01*
X610203Y-5000D02*Y-5750D01*
Y-7250D02*Y-9500D01*
X611704Y-3500D02*Y-8750D01*
X612454Y-9500D01*
X617406Y-7250D02*Y-9500D01*
Y-7250D02*X618156Y-6500D01*
X619656D01*
X616656D02*X617406Y-7250D01*
X622207Y-9500D02*X624457D01*
X621457Y-8750D02*X622207Y-9500D01*
X621457Y-7250D02*Y-8750D01*
Y-7250D02*X622207Y-6500D01*
X623707D01*
X624457Y-7250D01*
X621457Y-8000D02*X624457D01*
Y-7250D02*Y-8000D01*
X627009Y-6500D02*X629259D01*
X626259Y-7250D02*X627009Y-6500D01*
X626259Y-7250D02*Y-8750D01*
X627009Y-9500D01*
X629259D01*
X631810Y-3500D02*Y-8750D01*
X632560Y-9500D01*
X631060Y-5750D02*X632560D01*
X636312Y-6500D02*X637062Y-7250D01*
X634812Y-6500D02*X636312D01*
X634062Y-7250D02*X634812Y-6500D01*
X634062Y-7250D02*Y-8750D01*
X634812Y-9500D01*
X637062Y-6500D02*Y-8750D01*
X637812Y-9500D01*
X634812D02*X636312D01*
X637062Y-8750D01*
X640363Y-7250D02*Y-9500D01*
Y-7250D02*X641113Y-6500D01*
X641863D01*
X642613Y-7250D01*
Y-9500D01*
X639613Y-6500D02*X640363Y-7250D01*
X646665Y-6500D02*X647415Y-7250D01*
X645165Y-6500D02*X646665D01*
X644415Y-7250D02*X645165Y-6500D01*
X644415Y-7250D02*Y-8750D01*
X645165Y-9500D01*
X646665D01*
X647415Y-8750D01*
X644415Y-11000D02*X645165Y-11750D01*
X646665D01*
X647415Y-11000D01*
Y-6500D02*Y-11000D01*
X649216Y-3500D02*Y-8750D01*
X649966Y-9500D01*
X652218D02*X654468D01*
X651468Y-8750D02*X652218Y-9500D01*
X651468Y-7250D02*Y-8750D01*
Y-7250D02*X652218Y-6500D01*
X653718D01*
X654468Y-7250D01*
X651468Y-8000D02*X654468D01*
Y-7250D02*Y-8000D01*
X658969Y-6500D02*X661969D01*
X666471Y-8750D02*X667221Y-9500D01*
X666471Y-4250D02*Y-8750D01*
Y-4250D02*X667221Y-3500D01*
X668721D01*
X669471Y-4250D01*
Y-8750D01*
X668721Y-9500D02*X669471Y-8750D01*
X667221Y-9500D02*X668721D01*
X666471Y-8000D02*X669471Y-5000D01*
X671272Y-11000D02*X672772Y-9500D01*
X674574Y-8750D02*X675324Y-9500D01*
X674574Y-4250D02*Y-8750D01*
Y-4250D02*X675324Y-3500D01*
X676824D01*
X677574Y-4250D01*
Y-8750D01*
X676824Y-9500D02*X677574Y-8750D01*
X675324Y-9500D02*X676824D01*
X674574Y-8000D02*X677574Y-5000D01*
X682825Y-3500D02*Y-8750D01*
X683575Y-9500D01*
X682075Y-5750D02*X683575D01*
X685077Y-7250D02*Y-8750D01*
Y-7250D02*X685827Y-6500D01*
X687327D01*
X688077Y-7250D01*
Y-8750D01*
X687327Y-9500D02*X688077Y-8750D01*
X685827Y-9500D02*X687327D01*
X685077Y-8750D02*X685827Y-9500D01*
X693328D02*X694828D01*
X694078Y-3500D02*Y-9500D01*
X692578Y-5000D02*X694078Y-3500D01*
X696630Y-4250D02*X697380Y-3500D01*
X699630D01*
X700380Y-4250D01*
Y-5750D01*
X696630Y-9500D02*X700380Y-5750D01*
X696630Y-9500D02*X700380D01*
X702181Y-8750D02*X702931Y-9500D01*
X702181Y-4250D02*Y-8750D01*
Y-4250D02*X702931Y-3500D01*
X704431D01*
X705181Y-4250D01*
Y-8750D01*
X704431Y-9500D02*X705181Y-8750D01*
X702931Y-9500D02*X704431D01*
X702181Y-8000D02*X705181Y-5000D01*
X706983Y-8750D02*X707733Y-9500D01*
X706983Y-4250D02*Y-8750D01*
Y-4250D02*X707733Y-3500D01*
X709233D01*
X709983Y-4250D01*
Y-8750D01*
X709233Y-9500D02*X709983Y-8750D01*
X707733Y-9500D02*X709233D01*
X706983Y-8000D02*X709983Y-5000D01*
X711784Y-8750D02*X712534Y-9500D01*
X711784Y-4250D02*Y-8750D01*
Y-4250D02*X712534Y-3500D01*
X714034D01*
X714784Y-4250D01*
Y-8750D01*
X714034Y-9500D02*X714784Y-8750D01*
X712534Y-9500D02*X714034D01*
X711784Y-8000D02*X714784Y-5000D01*
X716586Y-11000D02*X718086Y-9500D01*
X720637D02*X722137D01*
X721387Y-3500D02*Y-9500D01*
X719887Y-5000D02*X721387Y-3500D01*
X723939Y-8750D02*X724689Y-9500D01*
X723939Y-4250D02*Y-8750D01*
Y-4250D02*X724689Y-3500D01*
X726189D01*
X726939Y-4250D01*
Y-8750D01*
X726189Y-9500D02*X726939Y-8750D01*
X724689Y-9500D02*X726189D01*
X723939Y-8000D02*X726939Y-5000D01*
X728740Y-8750D02*X729490Y-9500D01*
X728740Y-4250D02*Y-8750D01*
Y-4250D02*X729490Y-3500D01*
X730990D01*
X731740Y-4250D01*
Y-8750D01*
X730990Y-9500D02*X731740Y-8750D01*
X729490Y-9500D02*X730990D01*
X728740Y-8000D02*X731740Y-5000D01*
X733542Y-8750D02*X734292Y-9500D01*
X733542Y-4250D02*Y-8750D01*
Y-4250D02*X734292Y-3500D01*
X735792D01*
X736542Y-4250D01*
Y-8750D01*
X735792Y-9500D02*X736542Y-8750D01*
X734292Y-9500D02*X735792D01*
X733542Y-8000D02*X736542Y-5000D01*
X738343Y-8750D02*X739093Y-9500D01*
X738343Y-4250D02*Y-8750D01*
Y-4250D02*X739093Y-3500D01*
X740593D01*
X741343Y-4250D01*
Y-8750D01*
X740593Y-9500D02*X741343Y-8750D01*
X739093Y-9500D02*X740593D01*
X738343Y-8000D02*X741343Y-5000D01*
X746595Y-7250D02*Y-9500D01*
Y-7250D02*X747345Y-6500D01*
X748095D01*
X748845Y-7250D01*
Y-9500D01*
Y-7250D02*X749595Y-6500D01*
X750345D01*
X751095Y-7250D01*
Y-9500D01*
X745845Y-6500D02*X746595Y-7250D01*
X752896Y-5000D02*Y-5750D01*
Y-7250D02*Y-9500D01*
X754398Y-3500D02*Y-8750D01*
X755148Y-9500D01*
X757399D02*X759649D01*
X760399Y-8750D01*
X759649Y-8000D02*X760399Y-8750D01*
X757399Y-8000D02*X759649D01*
X756649Y-7250D02*X757399Y-8000D01*
X756649Y-7250D02*X757399Y-6500D01*
X759649D01*
X760399Y-7250D01*
X756649Y-8750D02*X757399Y-9500D01*
X200750Y1028500D02*Y1022500D01*
X203000Y1028500D02*X203750Y1027750D01*
Y1023250D01*
X203000Y1022500D02*X203750Y1023250D01*
X200000Y1022500D02*X203000D01*
X200000Y1028500D02*X203000D01*
X207801Y1025500D02*X208551Y1024750D01*
X206301Y1025500D02*X207801D01*
X205551Y1024750D02*X206301Y1025500D01*
X205551Y1024750D02*Y1023250D01*
X206301Y1022500D01*
X208551Y1025500D02*Y1023250D01*
X209301Y1022500D01*
X206301D02*X207801D01*
X208551Y1023250D01*
X211853Y1028500D02*Y1023250D01*
X212603Y1022500D01*
X211103Y1026250D02*X212603D01*
X214854Y1022500D02*X217104D01*
X214104Y1023250D02*X214854Y1022500D01*
X214104Y1024750D02*Y1023250D01*
Y1024750D02*X214854Y1025500D01*
X216354D01*
X217104Y1024750D01*
X214104Y1024000D02*X217104D01*
Y1024750D02*Y1024000D01*
X218906Y1026250D02*X219656D01*
X218906Y1024750D02*X219656D01*
X224157Y1028500D02*Y1022500D01*
Y1028500D02*X226407Y1026250D01*
X228657Y1028500D01*
Y1022500D01*
X230459Y1024750D02*Y1023250D01*
Y1024750D02*X231209Y1025500D01*
X232709D01*
X233459Y1024750D01*
Y1023250D01*
X232709Y1022500D02*X233459Y1023250D01*
X231209Y1022500D02*X232709D01*
X230459Y1023250D02*X231209Y1022500D01*
X236010Y1024750D02*Y1022500D01*
Y1024750D02*X236760Y1025500D01*
X237510D01*
X238260Y1024750D01*
Y1022500D01*
X235260Y1025500D02*X236010Y1024750D01*
X242762Y1027750D02*Y1022500D01*
Y1027750D02*X243512Y1028500D01*
X245762D01*
X246512Y1027750D01*
Y1022500D01*
X242762Y1025500D02*X246512D01*
X249063Y1024750D02*Y1020250D01*
X248313Y1025500D02*X249063Y1024750D01*
X249813Y1025500D01*
X251313D01*
X252063Y1024750D01*
Y1023250D01*
X251313Y1022500D02*X252063Y1023250D01*
X249813Y1022500D02*X251313D01*
X249063Y1023250D02*X249813Y1022500D01*
X254615Y1024750D02*Y1022500D01*
Y1024750D02*X255365Y1025500D01*
X256865D01*
X253865D02*X254615Y1024750D01*
X261366Y1027750D02*X262116Y1028500D01*
X264366D01*
X265116Y1027750D01*
Y1026250D01*
X261366Y1022500D02*X265116Y1026250D01*
X261366Y1022500D02*X265116D01*
X269168Y1028500D02*X269918Y1027750D01*
X267668Y1028500D02*X269168D01*
X266918Y1027750D02*X267668Y1028500D01*
X266918Y1027750D02*Y1023250D01*
X267668Y1022500D01*
X269168Y1025500D02*X269918Y1024750D01*
X266918Y1025500D02*X269168D01*
X267668Y1022500D02*X269168D01*
X269918Y1023250D01*
Y1024750D02*Y1023250D01*
X275169Y1022500D02*X276669D01*
X275919Y1028500D02*Y1022500D01*
X274419Y1027000D02*X275919Y1028500D01*
X278471Y1022500D02*X282221Y1026250D01*
Y1028500D02*Y1026250D01*
X278471Y1028500D02*X282221D01*
X284022Y1026250D02*X284772D01*
X284022Y1024750D02*X284772D01*
X286574Y1023250D02*X287324Y1022500D01*
X286574Y1027750D02*Y1023250D01*
Y1027750D02*X287324Y1028500D01*
X288824D01*
X289574Y1027750D01*
Y1023250D01*
X288824Y1022500D02*X289574Y1023250D01*
X287324Y1022500D02*X288824D01*
X286574Y1024000D02*X289574Y1027000D01*
X291375Y1025500D02*X294375Y1028500D01*
X291375Y1025500D02*X295125D01*
X294375Y1028500D02*Y1022500D01*
X296927Y1026250D02*X297677D01*
X296927Y1024750D02*X297677D01*
X299478Y1025500D02*X302478Y1028500D01*
X299478Y1025500D02*X303228D01*
X302478Y1028500D02*Y1022500D01*
X305030Y1025500D02*X308030Y1028500D01*
X305030Y1025500D02*X308780D01*
X308030Y1028500D02*Y1022500D01*
X313281Y1027750D02*X314031Y1028500D01*
X316281D01*
X317031Y1027750D01*
Y1026250D01*
X313281Y1022500D02*X317031Y1026250D01*
X313281Y1022500D02*X317031D01*
X318833Y1023250D02*X319583Y1022500D01*
X318833Y1027750D02*Y1023250D01*
Y1027750D02*X319583Y1028500D01*
X321083D01*
X321833Y1027750D01*
Y1023250D01*
X321083Y1022500D02*X321833Y1023250D01*
X319583Y1022500D02*X321083D01*
X318833Y1024000D02*X321833Y1027000D01*
X324384Y1022500D02*X325884D01*
X325134Y1028500D02*Y1022500D01*
X323634Y1027000D02*X325134Y1028500D01*
X327686Y1023250D02*X328436Y1022500D01*
X327686Y1027750D02*Y1023250D01*
Y1027750D02*X328436Y1028500D01*
X329936D01*
X330686Y1027750D01*
Y1023250D01*
X329936Y1022500D02*X330686Y1023250D01*
X328436Y1022500D02*X329936D01*
X327686Y1024000D02*X330686Y1027000D01*
X335187Y1028500D02*Y1023250D01*
X335937Y1022500D01*
X337437D01*
X338187Y1023250D01*
Y1028500D02*Y1023250D01*
X339989Y1028500D02*X342989D01*
X341489D02*Y1022500D01*
X345540D02*X347790D01*
X344790Y1023250D02*X345540Y1022500D01*
X344790Y1027750D02*Y1023250D01*
Y1027750D02*X345540Y1028500D01*
X347790D01*
X200000Y1042750D02*Y1037500D01*
Y1042750D02*X200750Y1043500D01*
X203000D01*
X203750Y1042750D01*
Y1037500D01*
X200000Y1040500D02*X203750D01*
X205551D02*Y1038250D01*
X206301Y1037500D01*
X207801D01*
X208551Y1038250D01*
Y1040500D02*Y1038250D01*
X211103Y1043500D02*Y1038250D01*
X211853Y1037500D01*
X210353Y1041250D02*X211853D01*
X213354Y1043500D02*Y1037500D01*
Y1039750D02*X214104Y1040500D01*
X215604D01*
X216354Y1039750D01*
Y1037500D01*
X218156Y1039750D02*Y1038250D01*
Y1039750D02*X218906Y1040500D01*
X220406D01*
X221156Y1039750D01*
Y1038250D01*
X220406Y1037500D02*X221156Y1038250D01*
X218906Y1037500D02*X220406D01*
X218156Y1038250D02*X218906Y1037500D01*
X223707Y1039750D02*Y1037500D01*
Y1039750D02*X224457Y1040500D01*
X225957D01*
X222957D02*X223707Y1039750D01*
X227759Y1041250D02*X228509D01*
X227759Y1039750D02*X228509D01*
X200000Y1058500D02*X203000D01*
X201500D02*Y1052500D01*
X204801Y1057000D02*Y1056250D01*
Y1054750D02*Y1052500D01*
X207053Y1058500D02*Y1053250D01*
X207803Y1052500D01*
X206303Y1056250D02*X207803D01*
X209304Y1058500D02*Y1053250D01*
X210054Y1052500D01*
X212306D02*X214556D01*
X211556Y1053250D02*X212306Y1052500D01*
X211556Y1054750D02*Y1053250D01*
Y1054750D02*X212306Y1055500D01*
X213806D01*
X214556Y1054750D01*
X211556Y1054000D02*X214556D01*
Y1054750D02*Y1054000D01*
X216357Y1056250D02*X217107D01*
X216357Y1054750D02*X217107D01*
X221609Y1053250D02*X222359Y1052500D01*
X221609Y1057750D02*X222359Y1058500D01*
X221609Y1057750D02*Y1053250D01*
X224160Y1055500D02*Y1053250D01*
X224910Y1052500D01*
X226410D01*
X227160Y1053250D01*
Y1055500D02*Y1053250D01*
X229712Y1054750D02*Y1052500D01*
Y1054750D02*X230462Y1055500D01*
X231212D01*
X231962Y1054750D01*
Y1052500D01*
X228962Y1055500D02*X229712Y1054750D01*
X233763Y1058500D02*Y1052500D01*
Y1054750D02*X236013Y1052500D01*
X233763Y1054750D02*X235263Y1056250D01*
X238565Y1054750D02*Y1052500D01*
Y1054750D02*X239315Y1055500D01*
X240065D01*
X240815Y1054750D01*
Y1052500D01*
X237815Y1055500D02*X238565Y1054750D01*
X242616D02*Y1053250D01*
Y1054750D02*X243366Y1055500D01*
X244866D01*
X245616Y1054750D01*
Y1053250D01*
X244866Y1052500D02*X245616Y1053250D01*
X243366Y1052500D02*X244866D01*
X242616Y1053250D02*X243366Y1052500D01*
X247418Y1055500D02*Y1053250D01*
X248168Y1052500D01*
X248918D01*
X249668Y1053250D01*
Y1055500D02*Y1053250D01*
X250418Y1052500D01*
X251168D01*
X251918Y1053250D01*
Y1055500D02*Y1053250D01*
X254469Y1054750D02*Y1052500D01*
Y1054750D02*X255219Y1055500D01*
X255969D01*
X256719Y1054750D01*
Y1052500D01*
X253719Y1055500D02*X254469Y1054750D01*
X258521Y1058500D02*X259271Y1057750D01*
Y1053250D01*
X258521Y1052500D02*X259271Y1053250D01*
X263772Y1055500D02*X266772D01*
X271274Y1058500D02*Y1052500D01*
Y1058500D02*X274274D01*
X271274Y1055500D02*X273524D01*
X278325D02*X279075Y1054750D01*
X276825Y1055500D02*X278325D01*
X276075Y1054750D02*X276825Y1055500D01*
X276075Y1054750D02*Y1053250D01*
X276825Y1052500D01*
X279075Y1055500D02*Y1053250D01*
X279825Y1052500D01*
X276825D02*X278325D01*
X279075Y1053250D01*
X281627Y1058500D02*Y1052500D01*
Y1053250D02*X282377Y1052500D01*
X283877D01*
X284627Y1053250D01*
Y1054750D02*Y1053250D01*
X283877Y1055500D02*X284627Y1054750D01*
X282377Y1055500D02*X283877D01*
X281627Y1054750D02*X282377Y1055500D01*
X287178Y1054750D02*Y1052500D01*
Y1054750D02*X287928Y1055500D01*
X289428D01*
X286428D02*X287178Y1054750D01*
X291230Y1057000D02*Y1056250D01*
Y1054750D02*Y1052500D01*
X293481Y1055500D02*X295731D01*
X292731Y1054750D02*X293481Y1055500D01*
X292731Y1054750D02*Y1053250D01*
X293481Y1052500D01*
X295731D01*
X299783Y1055500D02*X300533Y1054750D01*
X298283Y1055500D02*X299783D01*
X297533Y1054750D02*X298283Y1055500D01*
X297533Y1054750D02*Y1053250D01*
X298283Y1052500D01*
X300533Y1055500D02*Y1053250D01*
X301283Y1052500D01*
X298283D02*X299783D01*
X300533Y1053250D01*
X303834Y1058500D02*Y1053250D01*
X304584Y1052500D01*
X303084Y1056250D02*X304584D01*
X306086Y1057000D02*Y1056250D01*
Y1054750D02*Y1052500D01*
X307587Y1054750D02*Y1053250D01*
Y1054750D02*X308337Y1055500D01*
X309837D01*
X310587Y1054750D01*
Y1053250D01*
X309837Y1052500D02*X310587Y1053250D01*
X308337Y1052500D02*X309837D01*
X307587Y1053250D02*X308337Y1052500D01*
X313139Y1054750D02*Y1052500D01*
Y1054750D02*X313889Y1055500D01*
X314639D01*
X315389Y1054750D01*
Y1052500D01*
X312389Y1055500D02*X313139Y1054750D01*
X320640Y1058500D02*Y1052500D01*
X322890Y1058500D02*X323640Y1057750D01*
Y1053250D01*
X322890Y1052500D02*X323640Y1053250D01*
X319890Y1052500D02*X322890D01*
X319890Y1058500D02*X322890D01*
X326192Y1054750D02*Y1052500D01*
Y1054750D02*X326942Y1055500D01*
X328442D01*
X325442D02*X326192Y1054750D01*
X332493Y1055500D02*X333243Y1054750D01*
X330993Y1055500D02*X332493D01*
X330243Y1054750D02*X330993Y1055500D01*
X330243Y1054750D02*Y1053250D01*
X330993Y1052500D01*
X333243Y1055500D02*Y1053250D01*
X333993Y1052500D01*
X330993D02*X332493D01*
X333243Y1053250D01*
X335795Y1055500D02*Y1053250D01*
X336545Y1052500D01*
X337295D01*
X338045Y1053250D01*
Y1055500D02*Y1053250D01*
X338795Y1052500D01*
X339545D01*
X340295Y1053250D01*
Y1055500D02*Y1053250D01*
X342096Y1057000D02*Y1056250D01*
Y1054750D02*Y1052500D01*
X344348Y1054750D02*Y1052500D01*
Y1054750D02*X345098Y1055500D01*
X345848D01*
X346598Y1054750D01*
Y1052500D01*
X343598Y1055500D02*X344348Y1054750D01*
X350649Y1055500D02*X351399Y1054750D01*
X349149Y1055500D02*X350649D01*
X348399Y1054750D02*X349149Y1055500D01*
X348399Y1054750D02*Y1053250D01*
X349149Y1052500D01*
X350649D01*
X351399Y1053250D01*
X348399Y1051000D02*X349149Y1050250D01*
X350649D01*
X351399Y1051000D01*
Y1055500D02*Y1051000D01*
M02*
