M48
INCH
T11C0.020
T12C0.040
T13C0.035
T26C0.030
T27C0.028
T28C0.038
T29C0.032
T31C0.079
T32C0.051
T33C0.042
T34C0.050
T48C0.047
%
T11
X030300Y076850
X028150Y076850
X028800Y076150
X064250Y060000
X065100Y059150
X035700Y068850
X043200Y068850
X036950Y064550
X054100Y069950
X060900Y060150
X063250Y060150
X055200Y070650
X092300Y048150
X092300Y049550
X077200Y053850
X078650Y060800
X081850Y057950
X076550Y059850
X081300Y060650
X069050Y050250
X071250Y058550
X083300Y058850
X063350Y050250
T27
X019150Y066900
X022150Y066900
X019150Y065900
X019150Y064900
X022150Y064900
X022150Y065900
X019150Y067900
X022150Y067900
X026200Y053400
X026200Y052400
X026200Y051400
X026200Y050400
X029200Y050400
X029200Y051400
X029200Y052400
X029200Y053400
X101600Y066900
X101600Y067900
X101600Y068900
X101600Y069900
X080350Y053900
X080350Y052900
X080350Y051900
X080350Y050900
X080350Y056900
X080350Y055900
X080350Y054900
X080350Y049900
X057650Y058600
X057650Y057600
X057650Y056600
X057650Y055600
X057650Y054600
X057650Y053600
X057650Y067350
X057650Y066350
X057650Y065350
X057650Y064350
X057650Y052600
X057650Y051600
X060650Y051600
X060650Y052600
X060650Y053600
X060650Y054600
X060650Y055600
X060650Y056600
X060650Y057600
X060650Y058600
X060650Y064350
X060650Y065350
X060650Y066350
X060650Y067350
X083350Y049900
X083350Y050900
X083350Y051900
X083350Y052900
X083350Y053900
X083350Y054900
X083350Y055900
X083350Y056900
X098600Y069900
X098600Y068900
X098600Y067900
X098600Y066900
X053050Y076850
X052050Y076850
T26
X023150Y059900
X020150Y059900
X016150Y059900
X016150Y066900
X017650Y065950
X023150Y062900
X019150Y062900
X017650Y061950
X016150Y062900
X023150Y061400
X019150Y061400
X021400Y070150
X025400Y070150
X020150Y070150
X029650Y068150
X033150Y068150
X029650Y072150
X033150Y072150
X029650Y073650
X031400Y070900
X031400Y074900
X031400Y069400
X016150Y071700
X020150Y071700
X016150Y070150
X031450Y048800
X031450Y052400
X031450Y050650
X031450Y054400
X034450Y048800
X035450Y052400
X035450Y050650
X035450Y054400
X027150Y059900
X020400Y048800
X023400Y048800
X092100Y068900
X091100Y067400
X092100Y062900
X091100Y064400
X092100Y065900
X091100Y070400
X095100Y068900
X095100Y067400
X095100Y064400
X095100Y065900
X095100Y070400
X085600Y067400
X089600Y067400
X072100Y067400
X076100Y067400
X072100Y065900
X076100Y065900
X076100Y056900
X076850Y058400
X077850Y058400
X072100Y056900
X072100Y054900
X076100Y054900
X072100Y052900
X076100Y052900
X072100Y050900
X076100Y050900
X055650Y051600
X055650Y055600
X054150Y053600
X055650Y061850
X055650Y065350
X055650Y063600
X055650Y067350
X062900Y053600
X062900Y057600
X062900Y064350
X060650Y061650
X062900Y068350
X066800Y068350
X064650Y068350
X066800Y064350
X064650Y064350
X064650Y061650
X068900Y060000
X069900Y060000
X085600Y049900
X089600Y049900
X085600Y053900
X086600Y053900
X085600Y051900
X089600Y051900
X085600Y065900
X085600Y059650
X085600Y062900
X089600Y065900
X089600Y059650
X089600Y062900
X089600Y064400
X085600Y061400
X089600Y061400
X086600Y064400
X093350Y056500
X094350Y056500
X085600Y056900
X089600Y056900
X096600Y061400
X096600Y062900
X095100Y062900
X100600Y061400
X100600Y062900
X029650Y077650
X031400Y065400
X051650Y065350
X052650Y063600
X051650Y067350
X051650Y061850
X052650Y059600
X052650Y055600
X054150Y057600
T29
X019650Y074000
X021400Y053400
X018407Y053360
X099100Y074000
X100100Y074000
X018650Y074000
T13
X020200Y061400
X015650Y057700
X039300Y076450
X098850Y053700
X098850Y065650
X098850Y048900
X098150Y056650
X099850Y054700
X079050Y048250
X068100Y048250
X068100Y049550
T28
X026950Y063650
X025400Y067500
X023900Y071700
X024550Y055400
X096600Y064400
X087600Y069200
X088600Y069200
X089600Y069200
X077850Y051900
X077850Y054900
X077850Y063050
X078850Y063050
X079850Y063050
X080850Y063050
X072100Y063050
X073100Y063050
X074100Y063050
X077900Y067400
X078900Y067400
X079900Y067400
X080900Y067400
X055650Y058600
X088600Y054150
X091350Y050900
X089600Y054150
X090600Y054150
X101600Y057650
X101600Y056650
X101600Y055650
X101600Y054650
X101600Y053650
X101600Y052650
X101600Y051650
X101600Y050650
X101600Y049650
X097100Y057650
X097100Y056650
X097100Y055650
X097100Y059700
X097100Y054650
X097100Y053650
X097100Y052650
X097100Y051650
X097100Y050650
X097100Y049650
X043250Y065550
X043250Y064550
X043250Y063550
X049150Y060200
T12
X040247Y054950
X046152Y054950
T33
X074100Y060000
X073100Y060000
X072100Y060000
X095350Y053650
X094350Y053650
X093350Y053650
X035650Y065400
X034650Y065400
X033650Y065400
T48
X026185Y078928
X028232Y072472
T34
X066800Y052400
X066800Y062400
T32
X085100Y078650
X087100Y078650
X086100Y073650
X084250Y073650
X087950Y073650
X084250Y072150
X086100Y072150
X087950Y072150
X044050Y078650
X046050Y078650
X045050Y073650
X043200Y073650
X046900Y073650
X043200Y072150
X045050Y072150
X046900Y072150
T31
X098100Y076400
X102100Y076400
X021650Y076400
X017650Y076400
M30
