G04 start of page 7 for group -4062 idx -4062 *
G04 Title: (unknown), soldermask *
G04 Creator: pcb 20091103 *
G04 CreationDate: Mon Apr 26 17:04:44 2010 UTC *
G04 For: fosse *
G04 Format: Gerber/RS-274X *
G04 PCB-Dimensions: 1200000 1000000 *
G04 PCB-Coordinate-Origin: lower left *
%MOIN*%
%FSLAX25Y25*%
%LNBACKMASK*%
%ADD11C,0.0200*%
%ADD16C,0.0600*%
%ADD37C,0.0610*%
%ADD38C,0.0660*%
%ADD39C,0.0710*%
%ADD40C,0.0860*%
%ADD41C,0.0847*%
%ADD42C,0.2060*%
%ADD43C,0.0960*%
%ADD44C,0.0780*%
%ADD45C,0.0722*%
%ADD46C,0.0672*%
G54D11*G36*
X228450Y602050D02*Y595950D01*
X234550D01*
Y602050D01*
X228450D01*
G37*
G36*
X198450D02*Y595950D01*
X204550D01*
Y602050D01*
X198450D01*
G37*
G54D37*X161500Y599000D03*
G54D38*X191500Y669000D03*
X221500D03*
G54D37*X161500D03*
G54D38*X191500Y659000D03*
Y649000D03*
X221500D03*
Y659000D03*
G54D37*X176500Y659500D03*
G54D11*G36*
X228450Y632050D02*Y625950D01*
X234550D01*
Y632050D01*
X228450D01*
G37*
G54D37*X191500Y629000D03*
G54D11*G36*
X173450Y622550D02*Y616450D01*
X179550D01*
Y622550D01*
X173450D01*
G37*
G36*
X158450Y632050D02*Y625950D01*
X164550D01*
Y632050D01*
X158450D01*
G37*
G36*
X228450Y617050D02*Y610950D01*
X234550D01*
Y617050D01*
X228450D01*
G37*
G54D37*X191500Y614000D03*
G54D11*G36*
X266200Y639800D02*Y633200D01*
X272800D01*
Y639800D01*
X266200D01*
G37*
G36*
X250700Y678300D02*Y671700D01*
X257300D01*
Y678300D01*
X250700D01*
G37*
G36*
X188200Y682300D02*Y675700D01*
X194800D01*
Y682300D01*
X188200D01*
G37*
G54D38*X221500Y679000D03*
G54D11*G36*
X210950Y704550D02*Y698450D01*
X217050D01*
Y704550D01*
X210950D01*
G37*
G54D37*X254000Y701500D03*
X201500D03*
G54D11*G36*
X235700Y720300D02*Y713700D01*
X242300D01*
Y720300D01*
X235700D01*
G37*
G36*
X293450Y684550D02*Y678450D01*
X299550D01*
Y684550D01*
X293450D01*
G37*
G36*
X328450D02*Y678450D01*
X334550D01*
Y684550D01*
X328450D01*
G37*
G54D37*X296500Y721500D03*
X331500D03*
G54D11*G36*
X293450Y739550D02*Y733450D01*
X299550D01*
Y739550D01*
X293450D01*
G37*
G36*
X310950Y712050D02*Y705950D01*
X317050D01*
Y712050D01*
X310950D01*
G37*
G54D37*X314000Y749000D03*
G54D39*Y694000D03*
G54D40*X196500Y740000D03*
G54D11*G36*
X158450Y720050D02*Y713950D01*
X164550D01*
Y720050D01*
X158450D01*
G37*
G54D37*X201500Y717000D03*
G54D11*G36*
X158450Y704550D02*Y698450D01*
X164550D01*
Y704550D01*
X158450D01*
G37*
G36*
X311450Y491050D02*Y484950D01*
X317550D01*
Y491050D01*
X311450D01*
G37*
G36*
Y527050D02*Y520950D01*
X317550D01*
Y527050D01*
X311450D01*
G37*
G36*
Y509550D02*Y503450D01*
X317550D01*
Y509550D01*
X311450D01*
G37*
G36*
Y547050D02*Y540950D01*
X317550D01*
Y547050D01*
X311450D01*
G37*
G54D37*X344500Y488000D03*
X354500Y524000D03*
Y506500D03*
Y544000D03*
X271500Y599000D03*
G54D11*G36*
X242200Y557300D02*Y550700D01*
X248800D01*
Y557300D01*
X242200D01*
G37*
G36*
X258700Y537300D02*Y530700D01*
X265300D01*
Y537300D01*
X258700D01*
G37*
G54D38*X262000Y524000D03*
Y514000D03*
G54D41*X214000Y534000D03*
G54D11*G36*
X179841Y537844D02*Y529370D01*
X188315D01*
Y537844D01*
X179841D01*
G37*
G54D38*X262000Y504000D03*
G54D11*G36*
X200950Y491050D02*Y484950D01*
X207050D01*
Y491050D01*
X200950D01*
G37*
G54D37*X234000Y488000D03*
G54D38*X292000Y504000D03*
Y514000D03*
Y524000D03*
Y534000D03*
G54D40*X991000Y740000D03*
G54D42*X981000Y764000D03*
G54D40*X1001000Y740000D03*
G54D42*X1021000Y764000D03*
G54D38*X1016000Y669000D03*
Y679000D03*
Y689000D03*
Y699000D03*
G54D11*G36*
X917950Y692050D02*Y685950D01*
X924050D01*
Y692050D01*
X917950D01*
G37*
G36*
X907950Y677050D02*Y670950D01*
X914050D01*
Y677050D01*
X907950D01*
G37*
G36*
X917950Y632050D02*Y625950D01*
X924050D01*
Y632050D01*
X917950D01*
G37*
G36*
X907950Y647050D02*Y640950D01*
X914050D01*
Y647050D01*
X907950D01*
G37*
G36*
X917950Y662050D02*Y655950D01*
X924050D01*
Y662050D01*
X917950D01*
G37*
G36*
X906700Y708300D02*Y699700D01*
X915300D01*
Y708300D01*
X906700D01*
G37*
G54D37*X951000Y689000D03*
Y674000D03*
Y644000D03*
Y659000D03*
G54D40*Y704000D03*
G54D11*G36*
X962700Y647300D02*Y640700D01*
X969300D01*
Y647300D01*
X962700D01*
G37*
G36*
X872700Y695300D02*Y688700D01*
X879300D01*
Y695300D01*
X872700D01*
G37*
G54D38*X886000Y692000D03*
X896000D03*
G54D11*G36*
X852950Y677050D02*Y670950D01*
X859050D01*
Y677050D01*
X852950D01*
G37*
G54D37*X896000Y674000D03*
G54D43*X851000Y786500D03*
X871000D03*
G54D11*G36*
X856200Y741300D02*Y731700D01*
X865800D01*
Y741300D01*
X856200D01*
G37*
G54D43*X842500Y736500D03*
X879500D03*
X842500Y721500D03*
X861000D03*
X879500D03*
G54D38*X803500Y539000D03*
Y529000D03*
Y519000D03*
Y509000D03*
G54D11*G36*
X800200Y572300D02*Y565700D01*
X806800D01*
Y572300D01*
X800200D01*
G37*
G54D38*X803500Y559000D03*
Y549000D03*
Y499000D03*
G54D11*G36*
X775200Y522300D02*Y515700D01*
X781800D01*
Y522300D01*
X775200D01*
G37*
G36*
Y552300D02*Y545700D01*
X781800D01*
Y552300D01*
X775200D01*
G37*
G36*
X774950Y634050D02*Y626950D01*
X782050D01*
Y634050D01*
X774950D01*
G37*
G54D39*X788500Y630500D03*
X798500D03*
X808500D03*
G54D11*G36*
X717450Y634050D02*Y626950D01*
X724550D01*
Y634050D01*
X717450D01*
G37*
G54D39*X731000Y630500D03*
X741000D03*
G54D11*G36*
X775700Y677300D02*Y670700D01*
X782300D01*
Y677300D01*
X775700D01*
G37*
G36*
X717950Y677050D02*Y670950D01*
X724050D01*
Y677050D01*
X717950D01*
G37*
G54D37*X761000Y674000D03*
G54D38*X789000D03*
X799000D03*
X809000D03*
G54D11*G36*
X717950Y662050D02*Y655950D01*
X724050D01*
Y662050D01*
X717950D01*
G37*
G54D37*X761000Y659000D03*
Y569000D03*
G54D11*G36*
X765200Y587300D02*Y580700D01*
X771800D01*
Y587300D01*
X765200D01*
G37*
G54D38*X778500Y584000D03*
G54D11*G36*
X737100Y603900D02*Y596100D01*
X744900D01*
Y603900D01*
X737100D01*
G37*
G54D44*X731000Y600000D03*
X721000D03*
G54D11*G36*
X717950Y572050D02*Y565950D01*
X724050D01*
Y572050D01*
X717950D01*
G37*
G36*
Y552050D02*Y545950D01*
X724050D01*
Y552050D01*
X717950D01*
G37*
G54D37*X761000Y549000D03*
G54D11*G36*
X717950Y532050D02*Y525950D01*
X724050D01*
Y532050D01*
X717950D01*
G37*
G54D37*X761000Y529000D03*
G54D11*G36*
X717950Y512050D02*Y505950D01*
X724050D01*
Y512050D01*
X717950D01*
G37*
G54D37*X761000Y509000D03*
G54D11*G36*
X573200Y589300D02*Y582700D01*
X579800D01*
Y589300D01*
X573200D01*
G37*
G54D38*X576500Y576000D03*
Y566000D03*
G54D37*X556500Y516000D03*
G54D11*G36*
X553450Y559050D02*Y552950D01*
X559550D01*
Y559050D01*
X553450D01*
G37*
G54D38*X576500Y556000D03*
Y546000D03*
Y536000D03*
G54D37*X541500D03*
X556500Y618500D03*
G54D11*G36*
X553200Y589300D02*Y582700D01*
X559800D01*
Y589300D01*
X553200D01*
G37*
G54D37*X556500Y653500D03*
Y636000D03*
G54D11*G36*
X573200Y676800D02*Y670200D01*
X579800D01*
Y676800D01*
X573200D01*
G37*
G54D37*X556500Y673500D03*
G54D38*X576500Y663500D03*
Y653500D03*
Y643500D03*
Y526000D03*
Y516000D03*
X606500D03*
Y526000D03*
Y536000D03*
G54D37*X629000D03*
G54D38*X606500Y546000D03*
Y556000D03*
Y566000D03*
Y576000D03*
Y586000D03*
G54D11*G36*
X625950Y579050D02*Y572950D01*
X632050D01*
Y579050D01*
X625950D01*
G37*
G54D43*X668000Y524000D03*
G54D11*G36*
X625950Y646550D02*Y640450D01*
X632050D01*
Y646550D01*
X625950D01*
G37*
G54D38*X606500Y643500D03*
Y653500D03*
Y663500D03*
Y673500D03*
G54D11*G36*
X603450Y619550D02*Y613450D01*
X609550D01*
Y619550D01*
X603450D01*
G37*
G54D37*X629000Y683500D03*
G54D11*G36*
X664950Y686550D02*Y680450D01*
X671050D01*
Y686550D01*
X664950D01*
G37*
G54D37*X646500Y683500D03*
G54D11*G36*
X663200Y628800D02*Y619200D01*
X672800D01*
Y628800D01*
X663200D01*
G37*
G54D37*X668000Y643500D03*
G54D11*G36*
X643450Y646550D02*Y640450D01*
X649550D01*
Y646550D01*
X643450D01*
G37*
G54D37*X646500Y616500D03*
G54D11*G36*
X685700Y603300D02*Y596700D01*
X692300D01*
Y603300D01*
X685700D01*
G37*
G54D38*X699000Y600000D03*
X833500Y499000D03*
G54D11*G36*
X852950Y502050D02*Y495950D01*
X859050D01*
Y502050D01*
X852950D01*
G37*
G54D37*X896000Y499000D03*
G54D38*X833500Y509000D03*
G54D11*G36*
X852700Y542300D02*Y535700D01*
X859300D01*
Y542300D01*
X852700D01*
G37*
G54D38*X866000Y539000D03*
G54D11*G36*
X882700Y544800D02*Y538200D01*
X889300D01*
Y544800D01*
X882700D01*
G37*
G36*
X852950Y522050D02*Y515950D01*
X859050D01*
Y522050D01*
X852950D01*
G37*
G54D38*X833500Y519000D03*
Y529000D03*
Y539000D03*
Y549000D03*
Y559000D03*
Y569000D03*
G54D37*X896000Y519000D03*
G54D11*G36*
X910200Y512300D02*Y505700D01*
X916800D01*
Y512300D01*
X910200D01*
G37*
G36*
X852950Y662050D02*Y655950D01*
X859050D01*
Y662050D01*
X852950D01*
G37*
G36*
Y599550D02*Y593450D01*
X859050D01*
Y599550D01*
X852950D01*
G37*
G36*
Y632050D02*Y625950D01*
X859050D01*
Y632050D01*
X852950D01*
G37*
G54D37*X896000Y659000D03*
Y596500D03*
Y629000D03*
Y644000D03*
G54D11*G36*
X852450Y617550D02*Y610450D01*
X859550D01*
Y617550D01*
X852450D01*
G37*
G54D39*X896000Y614000D03*
G54D11*G36*
X862950Y647050D02*Y640950D01*
X869050D01*
Y647050D01*
X862950D01*
G37*
G36*
X930200Y568300D02*Y561700D01*
X936800D01*
Y568300D01*
X930200D01*
G37*
G54D38*X943500Y565000D03*
G54D11*G36*
X852950Y572050D02*Y565950D01*
X859050D01*
Y572050D01*
X852950D01*
G37*
G54D37*X896000Y569000D03*
G54D11*G36*
X949600Y540400D02*Y532600D01*
X957400D01*
Y540400D01*
X949600D01*
G37*
G54D44*X943500Y536500D03*
X933500D03*
G54D38*X896000Y541500D03*
X906000D03*
G54D11*G36*
X962950Y617050D02*Y610950D01*
X969050D01*
Y617050D01*
X962950D01*
G37*
G36*
Y632050D02*Y625950D01*
X969050D01*
Y632050D01*
X962950D01*
G37*
G54D37*X951000Y629000D03*
X1006000Y614000D03*
G54D11*G36*
X982700Y702300D02*Y695700D01*
X989300D01*
Y702300D01*
X982700D01*
G37*
G54D38*X986000Y689000D03*
Y679000D03*
Y669000D03*
G54D37*X1006000Y629000D03*
G54D11*G36*
X1012700Y579800D02*Y573200D01*
X1019300D01*
Y579800D01*
X1012700D01*
G37*
G54D38*X1016000Y566500D03*
Y556500D03*
Y546500D03*
Y536500D03*
Y526500D03*
Y516500D03*
Y506500D03*
Y496500D03*
G54D11*G36*
X967700Y579800D02*Y573200D01*
X974300D01*
Y579800D01*
X967700D01*
G37*
G54D38*X971000Y566500D03*
Y556500D03*
G54D11*G36*
X967700Y600300D02*Y593700D01*
X974300D01*
Y600300D01*
X967700D01*
G37*
G54D38*X971000Y546500D03*
Y536500D03*
Y526500D03*
Y516500D03*
Y506500D03*
Y496500D03*
G54D11*G36*
X527500Y771500D02*Y765500D01*
X533500D01*
Y771500D01*
X527500D01*
G37*
G54D45*X261851Y789287D03*
G54D46*X282323Y724720D03*
G54D40*X186500Y740000D03*
G54D42*X216500Y764000D03*
X176500D03*
G54D37*X296500Y776500D03*
G54D43*X440500Y786500D03*
X460500D03*
G54D11*G36*
X310450Y657550D02*Y650450D01*
X317550D01*
Y657550D01*
X310450D01*
G37*
G36*
X352600Y657900D02*Y650100D01*
X360400D01*
Y657900D01*
X352600D01*
G37*
G54D44*X346500Y654000D03*
X336500D03*
G54D11*G36*
X429200Y658800D02*Y652200D01*
X435800D01*
Y658800D01*
X429200D01*
G37*
G54D38*X432500Y645500D03*
Y635500D03*
G54D11*G36*
X513450Y656550D02*Y650450D01*
X519550D01*
Y656550D01*
X513450D01*
G37*
G36*
X523450Y639050D02*Y632950D01*
X529550D01*
Y639050D01*
X523450D01*
G37*
G36*
X513450Y676550D02*Y670450D01*
X519550D01*
Y676550D01*
X513450D01*
G37*
G36*
X398236Y553737D02*Y545263D01*
X406710D01*
Y553737D01*
X398236D01*
G37*
G54D41*X461528Y549500D03*
G54D11*G36*
X488200Y605300D02*Y598700D01*
X494800D01*
Y605300D01*
X488200D01*
G37*
G36*
X513450Y621550D02*Y615450D01*
X519550D01*
Y621550D01*
X513450D01*
G37*
G36*
X523450Y599050D02*Y592950D01*
X529550D01*
Y599050D01*
X523450D01*
G37*
G54D37*X526500Y556000D03*
G54D11*G36*
X538450Y579050D02*Y572950D01*
X544550D01*
Y579050D01*
X538450D01*
G37*
G54D16*X520500Y768500D03*
G54D11*G36*
X445700Y741300D02*Y731700D01*
X455300D01*
Y741300D01*
X445700D01*
G37*
G54D43*X432000Y736500D03*
X469000D03*
X432000Y721500D03*
X450500D03*
X469000D03*
M02*
