G04 start of page 6 for group -4063 idx -4063 *
G04 Title: (unknown), componentmask *
G04 Creator: pcb 20110918 *
G04 CreationDate: Fri Aug 31 17:50:40 2012 UTC *
G04 For: fosse *
G04 Format: Gerber/RS-274X *
G04 PCB-Dimensions: 893500 363500 *
G04 PCB-Coordinate-Origin: lower left *
%MOIN*%
%FSLAX25Y25*%
%LNTOPMASK*%
%ADD92R,0.0591X0.0591*%
%ADD91C,0.0600*%
%ADD90C,0.0960*%
%ADD89C,0.0780*%
%ADD88C,0.0710*%
%ADD87C,0.0672*%
%ADD86C,0.0722*%
%ADD85C,0.0847*%
%ADD84C,0.2060*%
%ADD83C,0.0860*%
%ADD82C,0.0610*%
%ADD81C,0.0001*%
%ADD80C,0.0660*%
G54D80*X76000Y216000D03*
Y226000D03*
Y236000D03*
Y246000D03*
G54D81*G36*
X82950Y199050D02*Y192950D01*
X89050D01*
Y199050D01*
X82950D01*
G37*
G36*
X65450Y271550D02*Y265450D01*
X71550D01*
Y271550D01*
X65450D01*
G37*
G36*
X42700Y249300D02*Y242700D01*
X49300D01*
Y249300D01*
X42700D01*
G37*
G54D80*X46000Y236000D03*
Y226000D03*
Y216000D03*
G54D82*X31000Y226500D03*
G54D81*G36*
X12950Y287050D02*Y280950D01*
X19050D01*
Y287050D01*
X12950D01*
G37*
G54D83*X41000Y308500D03*
G54D84*X31000Y332500D03*
G54D83*X51000Y308500D03*
G54D84*X71000Y332500D03*
G54D82*X56000Y284000D03*
G54D81*G36*
X90200Y287300D02*Y280700D01*
X96800D01*
Y287300D01*
X90200D01*
G37*
G36*
X12950Y271550D02*Y265450D01*
X19050D01*
Y271550D01*
X12950D01*
G37*
G36*
Y199050D02*Y192950D01*
X19050D01*
Y199050D01*
X12950D01*
G37*
G54D82*X16000Y236000D03*
X56000Y268500D03*
G54D81*G36*
X165950Y58050D02*Y51950D01*
X172050D01*
Y58050D01*
X165950D01*
G37*
G54D80*X146500Y71000D03*
G54D81*G36*
X165950Y76550D02*Y70450D01*
X172050D01*
Y76550D01*
X165950D01*
G37*
G36*
X55450Y58050D02*Y51950D01*
X61550D01*
Y58050D01*
X55450D01*
G37*
G54D82*X88500Y55000D03*
X199000D03*
X209000Y91000D03*
Y73500D03*
G54D81*G36*
X113200Y104300D02*Y97700D01*
X119800D01*
Y104300D01*
X113200D01*
G37*
G54D80*X146500Y101000D03*
G54D81*G36*
X34302Y104391D02*Y95917D01*
X42776D01*
Y104391D01*
X34302D01*
G37*
G54D85*X68461Y100547D03*
G54D80*X116500Y91000D03*
Y81000D03*
Y71000D03*
X146500Y81000D03*
Y91000D03*
G54D81*G36*
X165950Y94050D02*Y87950D01*
X172050D01*
Y94050D01*
X165950D01*
G37*
G36*
X165700Y114300D02*Y107700D01*
X172300D01*
Y114300D01*
X165700D01*
G37*
G54D80*X179000Y111000D03*
G54D81*G36*
X52950Y169050D02*Y162950D01*
X59050D01*
Y169050D01*
X52950D01*
G37*
G54D82*X16000Y166000D03*
X46000Y196000D03*
G54D81*G36*
X27950Y189550D02*Y183450D01*
X34050D01*
Y189550D01*
X27950D01*
G37*
G54D82*X46000Y181000D03*
G54D81*G36*
X82950Y169050D02*Y162950D01*
X89050D01*
Y169050D01*
X82950D01*
G37*
G36*
X96700Y124300D02*Y117700D01*
X103300D01*
Y124300D01*
X96700D01*
G37*
G36*
X82950Y184050D02*Y177950D01*
X89050D01*
Y184050D01*
X82950D01*
G37*
G54D82*X126000Y166000D03*
G54D86*X116351Y356287D03*
G54D87*X136823Y291720D03*
G54D81*G36*
X120700Y206800D02*Y200200D01*
X127300D01*
Y206800D01*
X120700D01*
G37*
G36*
X147950Y251550D02*Y245450D01*
X154050D01*
Y251550D01*
X147950D01*
G37*
G54D82*X108500Y268500D03*
X151000Y288500D03*
X186000D03*
G54D81*G36*
X147950Y306550D02*Y300450D01*
X154050D01*
Y306550D01*
X147950D01*
G37*
G54D82*X151000Y343500D03*
G54D81*G36*
X165450Y279050D02*Y272950D01*
X171550D01*
Y279050D01*
X165450D01*
G37*
G54D82*X168500Y316000D03*
G54D88*Y261000D03*
G54D81*G36*
X105200Y245300D02*Y238700D01*
X111800D01*
Y245300D01*
X105200D01*
G37*
G36*
X164950Y224550D02*Y217450D01*
X172050D01*
Y224550D01*
X164950D01*
G37*
G36*
X207100Y224900D02*Y217100D01*
X214900D01*
Y224900D01*
X207100D01*
G37*
G54D89*X201000Y221000D03*
X191000D03*
G54D81*G36*
X182950Y251550D02*Y245450D01*
X189050D01*
Y251550D01*
X182950D01*
G37*
G36*
X283700Y225800D02*Y219200D01*
X290300D01*
Y225800D01*
X283700D01*
G37*
G54D80*X287000Y212500D03*
Y202500D03*
G54D90*X295000Y353000D03*
X315000D03*
G54D81*G36*
X300200Y307800D02*Y298200D01*
X309800D01*
Y307800D01*
X300200D01*
G37*
G54D90*X286500Y303000D03*
X323500D03*
X286500Y288000D03*
X305000D03*
X323500D03*
G54D81*G36*
X772450Y259050D02*Y252950D01*
X778550D01*
Y259050D01*
X772450D01*
G37*
G54D82*X805500Y256000D03*
G54D81*G36*
X762450Y244050D02*Y237950D01*
X768550D01*
Y244050D01*
X762450D01*
G37*
G54D82*X805500Y241000D03*
G54D83*Y271000D03*
G54D80*X740500Y259000D03*
X750500D03*
G54D81*G36*
X761200Y275300D02*Y266700D01*
X769800D01*
Y275300D01*
X761200D01*
G37*
G36*
X707450Y229050D02*Y222950D01*
X713550D01*
Y229050D01*
X707450D01*
G37*
G54D82*X750500Y226000D03*
G54D81*G36*
X707450Y244050D02*Y237950D01*
X713550D01*
Y244050D01*
X707450D01*
G37*
G54D82*X750500Y241000D03*
G54D81*G36*
X772450Y229050D02*Y222950D01*
X778550D01*
Y229050D01*
X772450D01*
G37*
G54D82*X805500Y226000D03*
G54D81*G36*
X762450Y214050D02*Y207950D01*
X768550D01*
Y214050D01*
X762450D01*
G37*
G54D82*X805500Y211000D03*
G54D81*G36*
X817200Y214300D02*Y207700D01*
X823800D01*
Y214300D01*
X817200D01*
G37*
G54D82*X750500Y211000D03*
G54D81*G36*
X717450Y214050D02*Y207950D01*
X723550D01*
Y214050D01*
X717450D01*
G37*
G36*
X837200Y269300D02*Y262700D01*
X843800D01*
Y269300D01*
X837200D01*
G37*
G54D80*X840500Y256000D03*
Y246000D03*
Y236000D03*
X870500D03*
Y246000D03*
Y256000D03*
Y266000D03*
G54D82*X860500Y196000D03*
G54D83*Y181000D03*
X845500Y308500D03*
X855500D03*
G54D84*X835500Y332500D03*
X875500D03*
G54D81*G36*
X629450Y201050D02*Y193950D01*
X636550D01*
Y201050D01*
X629450D01*
G37*
G54D88*X643000Y197500D03*
X653000D03*
X663000D03*
G54D80*X633000Y151000D03*
G54D81*G36*
X707450Y166550D02*Y160450D01*
X713550D01*
Y166550D01*
X707450D01*
G37*
G54D82*X750500Y163500D03*
G54D81*G36*
X822200Y167300D02*Y160700D01*
X828800D01*
Y167300D01*
X822200D01*
G37*
G36*
X817450Y199050D02*Y192950D01*
X823550D01*
Y199050D01*
X817450D01*
G37*
G54D82*X805500Y196000D03*
G54D81*G36*
X822200Y146800D02*Y140200D01*
X828800D01*
Y146800D01*
X822200D01*
G37*
G36*
X796200Y185300D02*Y176700D01*
X804800D01*
Y185300D01*
X796200D01*
G37*
G36*
X772450Y199050D02*Y192950D01*
X778550D01*
Y199050D01*
X772450D01*
G37*
G36*
X707450D02*Y192950D01*
X713550D01*
Y199050D01*
X707450D01*
G37*
G54D82*X750500Y196000D03*
G54D81*G36*
X706950Y184550D02*Y177450D01*
X714050D01*
Y184550D01*
X706950D01*
G37*
G54D88*X750500Y181000D03*
G54D81*G36*
X591600Y170900D02*Y163100D01*
X599400D01*
Y170900D01*
X591600D01*
G37*
G54D82*X615500Y226000D03*
G54D89*X585500Y167000D03*
X575500D03*
G54D81*G36*
X572450Y229050D02*Y222950D01*
X578550D01*
Y229050D01*
X572450D01*
G37*
G36*
X727200Y262300D02*Y255700D01*
X733800D01*
Y262300D01*
X727200D01*
G37*
G54D90*X697000Y288500D03*
X705500Y353500D03*
X725500D03*
G54D81*G36*
X710700Y308300D02*Y298700D01*
X720300D01*
Y308300D01*
X710700D01*
G37*
G54D90*X697000Y303500D03*
X734000D03*
X715500Y288500D03*
X734000D03*
G54D81*G36*
X629700Y89300D02*Y82700D01*
X636300D01*
Y89300D01*
X629700D01*
G37*
G36*
X572450Y139050D02*Y132950D01*
X578550D01*
Y139050D01*
X572450D01*
G37*
G54D82*X615500Y136000D03*
G54D81*G36*
X619700Y154300D02*Y147700D01*
X626300D01*
Y154300D01*
X619700D01*
G37*
G36*
X572450Y119050D02*Y112950D01*
X578550D01*
Y119050D01*
X572450D01*
G37*
G54D82*X615500Y116000D03*
G54D90*X522500Y91000D03*
G54D81*G36*
X540200Y170300D02*Y163700D01*
X546800D01*
Y170300D01*
X540200D01*
G37*
G54D80*X553500Y167000D03*
G54D81*G36*
X252736Y120737D02*Y112263D01*
X261210D01*
Y120737D01*
X252736D01*
G37*
G54D85*X316028Y116500D03*
G54D81*G36*
X342700Y172300D02*Y165700D01*
X349300D01*
Y172300D01*
X342700D01*
G37*
G36*
X367950Y188550D02*Y182450D01*
X374050D01*
Y188550D01*
X367950D01*
G37*
G36*
X377950Y166050D02*Y159950D01*
X384050D01*
Y166050D01*
X377950D01*
G37*
G36*
X392950Y146050D02*Y139950D01*
X399050D01*
Y146050D01*
X392950D01*
G37*
G54D82*X381000Y123000D03*
G54D81*G36*
X427700Y156300D02*Y149700D01*
X434300D01*
Y156300D01*
X427700D01*
G37*
G54D80*X431000Y143000D03*
Y133000D03*
G54D82*X411000Y185500D03*
G54D81*G36*
X407700Y156300D02*Y149700D01*
X414300D01*
Y156300D01*
X407700D01*
G37*
G54D82*X411000Y83000D03*
G54D80*X431000D03*
G54D81*G36*
X407950Y126050D02*Y119950D01*
X414050D01*
Y126050D01*
X407950D01*
G37*
G54D80*X431000Y123000D03*
Y113000D03*
Y103000D03*
Y93000D03*
G54D82*X396000Y103000D03*
G54D80*X461000Y83000D03*
Y93000D03*
Y103000D03*
Y113000D03*
Y123000D03*
G54D82*X483500Y103000D03*
G54D80*X461000Y133000D03*
G54D81*G36*
X457950Y186550D02*Y180450D01*
X464050D01*
Y186550D01*
X457950D01*
G37*
G54D80*X461000Y143000D03*
Y153000D03*
G54D81*G36*
X480450Y146050D02*Y139950D01*
X486550D01*
Y146050D01*
X480450D01*
G37*
G54D82*X501000Y183500D03*
G54D81*G36*
X572450Y99050D02*Y92950D01*
X578550D01*
Y99050D01*
X572450D01*
G37*
G54D82*X615500Y96000D03*
G54D81*G36*
X629700Y119300D02*Y112700D01*
X636300D01*
Y119300D01*
X629700D01*
G37*
G36*
X572450Y79050D02*Y72950D01*
X578550D01*
Y79050D01*
X572450D01*
G37*
G54D82*X615500Y76000D03*
G54D81*G36*
X655200Y139300D02*Y132700D01*
X661800D01*
Y139300D01*
X655200D01*
G37*
G54D80*X658500Y126000D03*
Y116000D03*
Y106000D03*
Y96000D03*
Y86000D03*
Y76000D03*
G54D81*G36*
X867200Y146800D02*Y140200D01*
X873800D01*
Y146800D01*
X867200D01*
G37*
G54D80*X870500Y133500D03*
Y123500D03*
Y113500D03*
Y103500D03*
Y93500D03*
Y83500D03*
Y73500D03*
Y63500D03*
X798000Y132000D03*
X825500Y133500D03*
Y123500D03*
Y113500D03*
Y103500D03*
Y93500D03*
Y83500D03*
Y73500D03*
Y63500D03*
G54D89*X798000Y103500D03*
X808000D03*
G54D81*G36*
X707450Y69050D02*Y62950D01*
X713550D01*
Y69050D01*
X707450D01*
G37*
G36*
X707200Y109300D02*Y102700D01*
X713800D01*
Y109300D01*
X707200D01*
G37*
G54D80*X720500Y106000D03*
G54D81*G36*
X707450Y89050D02*Y82950D01*
X713550D01*
Y89050D01*
X707450D01*
G37*
G36*
X784700Y135300D02*Y128700D01*
X791300D01*
Y135300D01*
X784700D01*
G37*
G36*
X707450Y139050D02*Y132950D01*
X713550D01*
Y139050D01*
X707450D01*
G37*
G54D82*X750500Y136000D03*
G54D81*G36*
X737200Y111800D02*Y105200D01*
X743800D01*
Y111800D01*
X737200D01*
G37*
G54D80*X750500Y108500D03*
X760500D03*
G54D81*G36*
X784100Y107400D02*Y99600D01*
X791900D01*
Y107400D01*
X784100D01*
G37*
G54D82*X750500Y66000D03*
Y86000D03*
G54D81*G36*
X764700Y79300D02*Y72700D01*
X771300D01*
Y79300D01*
X764700D01*
G37*
G54D80*X688500Y76000D03*
Y86000D03*
Y96000D03*
Y106000D03*
Y116000D03*
Y126000D03*
Y136000D03*
G54D81*G36*
X571950Y201050D02*Y193950D01*
X579050D01*
Y201050D01*
X571950D01*
G37*
G36*
X572450Y244050D02*Y237950D01*
X578550D01*
Y244050D01*
X572450D01*
G37*
G54D88*X585500Y197500D03*
X595500D03*
G54D81*G36*
X630200Y244300D02*Y237700D01*
X636800D01*
Y244300D01*
X630200D01*
G37*
G54D80*X643500Y241000D03*
X653500D03*
X663500D03*
G54D82*X615500D03*
G54D81*G36*
X427700Y243800D02*Y237200D01*
X434300D01*
Y243800D01*
X427700D01*
G37*
G54D80*X431000Y230500D03*
Y220500D03*
Y210500D03*
X461000D03*
Y220500D03*
Y230500D03*
Y240500D03*
G54D81*G36*
X367950Y223550D02*Y217450D01*
X374050D01*
Y223550D01*
X367950D01*
G37*
G36*
Y243550D02*Y237450D01*
X374050D01*
Y243550D01*
X367950D01*
G37*
G36*
X372500Y339000D02*Y333000D01*
X378500D01*
Y339000D01*
X372500D01*
G37*
G54D91*X365500Y336000D03*
G54D82*X411000Y220500D03*
Y203000D03*
Y240500D03*
G54D81*G36*
X377950Y206050D02*Y199950D01*
X384050D01*
Y206050D01*
X377950D01*
G37*
G36*
X480450Y213550D02*Y207450D01*
X486550D01*
Y213550D01*
X480450D01*
G37*
G36*
X517700Y195800D02*Y186200D01*
X527300D01*
Y195800D01*
X517700D01*
G37*
G54D82*X522500Y210500D03*
G54D81*G36*
X497950Y213550D02*Y207450D01*
X504050D01*
Y213550D01*
X497950D01*
G37*
G54D82*X483500Y250500D03*
G54D81*G36*
X519450Y253550D02*Y247450D01*
X525550D01*
Y253550D01*
X519450D01*
G37*
G54D82*X501000Y250500D03*
G54D92*X126587Y331879D02*Y330894D01*
Y317115D02*Y316130D01*
Y309045D02*Y308060D01*
Y294281D02*Y293296D01*
Y354714D02*Y353729D01*
Y339950D02*Y338965D01*
M02*
