G04 start of page 10 for group -3984 idx -3984 *
G04 Title: (unknown), fab *
G04 Creator: pcb 20110918 *
G04 CreationDate: Fri Mar  1 16:39:57 2013 UTC *
G04 For: fosse *
G04 Format: Gerber/RS-274X *
G04 PCB-Dimensions: 893500 333500 *
G04 PCB-Coordinate-Origin: lower left *
%MOIN*%
%FSLAX25Y25*%
%LNFAB*%
%ADD102C,0.0100*%
%ADD101C,0.0060*%
%ADD100R,0.0080X0.0080*%
%ADD99C,0.0001*%
G54D99*G36*
X833100Y303966D02*X838466Y298600D01*
X837900Y298034D01*
X832534Y303400D01*
X833100Y303966D01*
G37*
G36*
X832534Y298600D02*X837900Y303966D01*
X838466Y303400D01*
X833100Y298034D01*
X832534Y298600D01*
G37*
G54D100*X833900Y302600D02*X837100D01*
X833900D02*Y299400D01*
X837100D01*
Y302600D02*Y299400D01*
G54D99*G36*
X873100Y303966D02*X878466Y298600D01*
X877900Y298034D01*
X872534Y303400D01*
X873100Y303966D01*
G37*
G36*
X872534Y298600D02*X877900Y303966D01*
X878466Y303400D01*
X873100Y298034D01*
X872534Y298600D01*
G37*
G54D100*X873900Y302600D02*X877100D01*
X873900D02*Y299400D01*
X877100D01*
Y302600D02*Y299400D01*
G54D99*G36*
X28600Y303966D02*X33966Y298600D01*
X33400Y298034D01*
X28034Y303400D01*
X28600Y303966D01*
G37*
G36*
X28034Y298600D02*X33400Y303966D01*
X33966Y303400D01*
X28600Y298034D01*
X28034Y298600D01*
G37*
G54D100*X29400Y302600D02*X32600D01*
X29400D02*Y299400D01*
X32600D01*
Y302600D02*Y299400D01*
G54D99*G36*
X68600Y303966D02*X73966Y298600D01*
X73400Y298034D01*
X68034Y303400D01*
X68600Y303966D01*
G37*
G36*
X68034Y298600D02*X73400Y303966D01*
X73966Y303400D01*
X68600Y298034D01*
X68034Y298600D01*
G37*
G54D100*X69400Y302600D02*X72600D01*
X69400D02*Y299400D01*
X72600D01*
Y302600D02*Y299400D01*
G54D99*G36*
X12600Y347716D02*X17966Y342350D01*
X17400Y341784D01*
X12034Y347150D01*
X12600Y347716D01*
G37*
G36*
X12034Y342350D02*X17400Y347716D01*
X17966Y347150D01*
X12600Y341784D01*
X12034Y342350D01*
G37*
G54D100*X13400Y346350D02*X16600D01*
X13400D02*Y343150D01*
X16600D01*
Y346350D02*Y343150D01*
G54D101*X135000Y347000D02*Y346250D01*
X136500Y344750D01*
X138000Y346250D01*
Y347000D02*Y346250D01*
X136500Y344750D02*Y341000D01*
X139800Y344000D02*X142050D01*
X139800Y341000D02*X142800D01*
X139800Y347000D02*Y341000D01*
Y347000D02*X142800D01*
X147600D02*X148350Y346250D01*
X145350Y347000D02*X147600D01*
X144600Y346250D02*X145350Y347000D01*
X144600Y346250D02*Y344750D01*
X145350Y344000D01*
X147600D01*
X148350Y343250D01*
Y341750D01*
X147600Y341000D02*X148350Y341750D01*
X145350Y341000D02*X147600D01*
X144600Y341750D02*X145350Y341000D01*
X98000Y344000D02*X101000Y347000D01*
X98000Y344000D02*X101750D01*
X101000Y347000D02*Y341000D01*
X45000Y341750D02*X45750Y341000D01*
X45000Y346250D02*Y341750D01*
Y346250D02*X45750Y347000D01*
X47250D01*
X48000Y346250D01*
Y341750D01*
X47250Y341000D02*X48000Y341750D01*
X45750Y341000D02*X47250D01*
X45000Y342500D02*X48000Y345500D01*
X49800Y341000D02*X50550D01*
X52350Y341750D02*X53100Y341000D01*
X52350Y346250D02*Y341750D01*
Y346250D02*X53100Y347000D01*
X54600D01*
X55350Y346250D01*
Y341750D01*
X54600Y341000D02*X55350Y341750D01*
X53100Y341000D02*X54600D01*
X52350Y342500D02*X55350Y345500D01*
X57150Y341750D02*X57900Y341000D01*
X57150Y343250D02*Y341750D01*
Y343250D02*X57900Y344000D01*
X59400D01*
X60150Y343250D01*
Y341750D01*
X59400Y341000D02*X60150Y341750D01*
X57900Y341000D02*X59400D01*
X57150Y344750D02*X57900Y344000D01*
X57150Y346250D02*Y344750D01*
Y346250D02*X57900Y347000D01*
X59400D01*
X60150Y346250D01*
Y344750D01*
X59400Y344000D02*X60150Y344750D01*
X64200Y347000D02*X64950Y346250D01*
X62700Y347000D02*X64200D01*
X61950Y346250D02*X62700Y347000D01*
X61950Y346250D02*Y341750D01*
X62700Y341000D01*
X64200Y344000D02*X64950Y343250D01*
X61950Y344000D02*X64200D01*
X62700Y341000D02*X64200D01*
X64950Y341750D01*
Y343250D02*Y341750D01*
X705500Y326700D02*Y320300D01*
X702300Y323500D02*X708700D01*
X703900Y325100D02*X707100D01*
X703900D02*Y321900D01*
X707100D01*
Y325100D02*Y321900D01*
X725500Y326700D02*Y320300D01*
X722300Y323500D02*X728700D01*
X723900Y325100D02*X727100D01*
X723900D02*Y321900D01*
X727100D01*
Y325100D02*Y321900D01*
X715500Y276700D02*Y270300D01*
X712300Y273500D02*X718700D01*
X713900Y275100D02*X717100D01*
X713900D02*Y271900D01*
X717100D01*
Y275100D02*Y271900D01*
X697000Y276700D02*Y270300D01*
X693800Y273500D02*X700200D01*
X695400Y275100D02*X698600D01*
X695400D02*Y271900D01*
X698600D01*
Y275100D02*Y271900D01*
X734000Y276700D02*Y270300D01*
X730800Y273500D02*X737200D01*
X732400Y275100D02*X735600D01*
X732400D02*Y271900D01*
X735600D01*
Y275100D02*Y271900D01*
X697000Y261700D02*Y255300D01*
X693800Y258500D02*X700200D01*
X695400Y260100D02*X698600D01*
X695400D02*Y256900D01*
X698600D01*
Y260100D02*Y256900D01*
X715500Y261700D02*Y255300D01*
X712300Y258500D02*X718700D01*
X713900Y260100D02*X717100D01*
X713900D02*Y256900D01*
X717100D01*
Y260100D02*Y256900D01*
X734000Y261700D02*Y255300D01*
X730800Y258500D02*X737200D01*
X732400Y260100D02*X735600D01*
X732400D02*Y256900D01*
X735600D01*
Y260100D02*Y256900D01*
X522500Y164200D02*Y157800D01*
X519300Y161000D02*X525700D01*
X520900Y162600D02*X524100D01*
X520900D02*Y159400D01*
X524100D01*
Y162600D02*Y159400D01*
X522500Y64200D02*Y57800D01*
X519300Y61000D02*X525700D01*
X520900Y62600D02*X524100D01*
X520900D02*Y59400D01*
X524100D01*
Y62600D02*Y59400D01*
X295000Y326200D02*Y319800D01*
X291800Y323000D02*X298200D01*
X293400Y324600D02*X296600D01*
X293400D02*Y321400D01*
X296600D01*
Y324600D02*Y321400D01*
X315000Y326200D02*Y319800D01*
X311800Y323000D02*X318200D01*
X313400Y324600D02*X316600D01*
X313400D02*Y321400D01*
X316600D01*
Y324600D02*Y321400D01*
X305000Y276200D02*Y269800D01*
X301800Y273000D02*X308200D01*
X303400Y274600D02*X306600D01*
X303400D02*Y271400D01*
X306600D01*
Y274600D02*Y271400D01*
X286500Y276200D02*Y269800D01*
X283300Y273000D02*X289700D01*
X284900Y274600D02*X288100D01*
X284900D02*Y271400D01*
X288100D01*
Y274600D02*Y271400D01*
X323500Y276200D02*Y269800D01*
X320300Y273000D02*X326700D01*
X321900Y274600D02*X325100D01*
X321900D02*Y271400D01*
X325100D01*
Y274600D02*Y271400D01*
X286500Y261200D02*Y254800D01*
X283300Y258000D02*X289700D01*
X284900Y259600D02*X288100D01*
X284900D02*Y256400D01*
X288100D01*
Y259600D02*Y256400D01*
X305000Y261200D02*Y254800D01*
X301800Y258000D02*X308200D01*
X303400Y259600D02*X306600D01*
X303400D02*Y256400D01*
X306600D01*
Y259600D02*Y256400D01*
X323500Y261200D02*Y254800D01*
X320300Y258000D02*X326700D01*
X321900Y259600D02*X325100D01*
X321900D02*Y256400D01*
X325100D01*
Y259600D02*Y256400D01*
X800500Y154200D02*Y147800D01*
X797300Y151000D02*X803700D01*
X798900Y152600D02*X802100D01*
X798900D02*Y149400D01*
X802100D01*
Y152600D02*Y149400D01*
X860500Y154200D02*Y147800D01*
X857300Y151000D02*X863700D01*
X858900Y152600D02*X862100D01*
X858900D02*Y149400D01*
X862100D01*
Y152600D02*Y149400D01*
X66000Y139200D02*Y132800D01*
X62800Y136000D02*X69200D01*
X64400Y137600D02*X67600D01*
X64400D02*Y134400D01*
X67600D01*
Y137600D02*Y134400D01*
X126000Y139200D02*Y132800D01*
X122800Y136000D02*X129200D01*
X124400Y137600D02*X127600D01*
X124400D02*Y134400D01*
X127600D01*
Y137600D02*Y134400D01*
X15000Y362950D02*Y356550D01*
X11800Y359750D02*X18200D01*
X13400Y361350D02*X16600D01*
X13400D02*Y358150D01*
X16600D01*
Y361350D02*Y358150D01*
X135000Y362000D02*Y361250D01*
X136500Y359750D01*
X138000Y361250D01*
Y362000D02*Y361250D01*
X136500Y359750D02*Y356000D01*
X139800Y359000D02*X142050D01*
X139800Y356000D02*X142800D01*
X139800Y362000D02*Y356000D01*
Y362000D02*X142800D01*
X147600D02*X148350Y361250D01*
X145350Y362000D02*X147600D01*
X144600Y361250D02*X145350Y362000D01*
X144600Y361250D02*Y359750D01*
X145350Y359000D01*
X147600D01*
X148350Y358250D01*
Y356750D01*
X147600Y356000D02*X148350Y356750D01*
X145350Y356000D02*X147600D01*
X144600Y356750D02*X145350Y356000D01*
X98000Y361250D02*X98750Y362000D01*
X101000D01*
X101750Y361250D01*
Y359750D01*
X98000Y356000D02*X101750Y359750D01*
X98000Y356000D02*X101750D01*
X103550Y361250D02*X104300Y362000D01*
X106550D01*
X107300Y361250D01*
Y359750D01*
X103550Y356000D02*X107300Y359750D01*
X103550Y356000D02*X107300D01*
X45000Y356750D02*X45750Y356000D01*
X45000Y361250D02*Y356750D01*
Y361250D02*X45750Y362000D01*
X47250D01*
X48000Y361250D01*
Y356750D01*
X47250Y356000D02*X48000Y356750D01*
X45750Y356000D02*X47250D01*
X45000Y357500D02*X48000Y360500D01*
X49800Y356000D02*X50550D01*
X52350Y356750D02*X53100Y356000D01*
X52350Y361250D02*Y356750D01*
Y361250D02*X53100Y362000D01*
X54600D01*
X55350Y361250D01*
Y356750D01*
X54600Y356000D02*X55350Y356750D01*
X53100Y356000D02*X54600D01*
X52350Y357500D02*X55350Y360500D01*
X57150Y362000D02*X60150D01*
X57150D02*Y359000D01*
X57900Y359750D01*
X59400D01*
X60150Y359000D01*
Y356750D01*
X59400Y356000D02*X60150Y356750D01*
X57900Y356000D02*X59400D01*
X57150Y356750D02*X57900Y356000D01*
X61950Y361250D02*X62700Y362000D01*
X64950D01*
X65700Y361250D01*
Y359750D01*
X61950Y356000D02*X65700Y359750D01*
X61950Y356000D02*X65700D01*
X116351Y325795D02*Y322595D01*
Y325795D02*X119124Y327395D01*
X116351Y325795D02*X113578Y327395D01*
X114751Y325795D02*G75*G03X117951Y325795I1600J0D01*G01*
G75*G03X114751Y325795I-1600J0D01*G01*
X136823Y261228D02*Y258028D01*
Y261228D02*X139596Y262828D01*
X136823Y261228D02*X134050Y262828D01*
X135223Y261228D02*G75*G03X138423Y261228I1600J0D01*G01*
G75*G03X135223Y261228I-1600J0D01*G01*
X15000Y374750D02*Y371550D01*
Y374750D02*X17773Y376350D01*
X15000Y374750D02*X12227Y376350D01*
X13400Y374750D02*G75*G03X16600Y374750I1600J0D01*G01*
G75*G03X13400Y374750I-1600J0D01*G01*
X135000Y377000D02*Y376250D01*
X136500Y374750D01*
X138000Y376250D01*
Y377000D02*Y376250D01*
X136500Y374750D02*Y371000D01*
X139800Y374000D02*X142050D01*
X139800Y371000D02*X142800D01*
X139800Y377000D02*Y371000D01*
Y377000D02*X142800D01*
X147600D02*X148350Y376250D01*
X145350Y377000D02*X147600D01*
X144600Y376250D02*X145350Y377000D01*
X144600Y376250D02*Y374750D01*
X145350Y374000D01*
X147600D01*
X148350Y373250D01*
Y371750D01*
X147600Y371000D02*X148350Y371750D01*
X145350Y371000D02*X147600D01*
X144600Y371750D02*X145350Y371000D01*
X98000Y376250D02*X98750Y377000D01*
X101000D01*
X101750Y376250D01*
Y374750D01*
X98000Y371000D02*X101750Y374750D01*
X98000Y371000D02*X101750D01*
X45000Y371750D02*X45750Y371000D01*
X45000Y376250D02*Y371750D01*
Y376250D02*X45750Y377000D01*
X47250D01*
X48000Y376250D01*
Y371750D01*
X47250Y371000D02*X48000Y371750D01*
X45750Y371000D02*X47250D01*
X45000Y372500D02*X48000Y375500D01*
X49800Y371000D02*X50550D01*
X52350Y371750D02*X53100Y371000D01*
X52350Y376250D02*Y371750D01*
Y376250D02*X53100Y377000D01*
X54600D01*
X55350Y376250D01*
Y371750D01*
X54600Y371000D02*X55350Y371750D01*
X53100Y371000D02*X54600D01*
X52350Y372500D02*X55350Y375500D01*
X57150Y374000D02*X60150Y377000D01*
X57150Y374000D02*X60900D01*
X60150Y377000D02*Y371000D01*
X62700D02*X66450Y374750D01*
Y377000D02*Y374750D01*
X62700Y377000D02*X66450D01*
X255373Y88100D02*X258573D01*
X255373D02*Y84900D01*
X258573D01*
Y88100D02*Y84900D01*
X314428Y88100D02*X317628D01*
X314428D02*Y84900D01*
X317628D01*
Y88100D02*Y84900D01*
X209400Y192600D02*X212600D01*
X209400D02*Y189400D01*
X212600D01*
Y192600D02*Y189400D01*
X199400Y192600D02*X202600D01*
X199400D02*Y189400D01*
X202600D01*
Y192600D02*Y189400D01*
X189400Y192600D02*X192600D01*
X189400D02*Y189400D01*
X192600D01*
Y192600D02*Y189400D01*
X593900Y138600D02*X597100D01*
X593900D02*Y135400D01*
X597100D01*
Y138600D02*Y135400D01*
X583900Y138600D02*X587100D01*
X583900D02*Y135400D01*
X587100D01*
Y138600D02*Y135400D01*
X573900Y138600D02*X577100D01*
X573900D02*Y135400D01*
X577100D01*
Y138600D02*Y135400D01*
X806400Y75100D02*X809600D01*
X806400D02*Y71900D01*
X809600D01*
Y75100D02*Y71900D01*
X796400Y75100D02*X799600D01*
X796400D02*Y71900D01*
X799600D01*
Y75100D02*Y71900D01*
X786400Y75100D02*X789600D01*
X786400D02*Y71900D01*
X789600D01*
Y75100D02*Y71900D01*
X13400Y391350D02*X16600D01*
X13400D02*Y388150D01*
X16600D01*
Y391350D02*Y388150D01*
X135000Y392000D02*Y391250D01*
X136500Y389750D01*
X138000Y391250D01*
Y392000D02*Y391250D01*
X136500Y389750D02*Y386000D01*
X139800Y389000D02*X142050D01*
X139800Y386000D02*X142800D01*
X139800Y392000D02*Y386000D01*
Y392000D02*X142800D01*
X147600D02*X148350Y391250D01*
X145350Y392000D02*X147600D01*
X144600Y391250D02*X145350Y392000D01*
X144600Y391250D02*Y389750D01*
X145350Y389000D01*
X147600D01*
X148350Y388250D01*
Y386750D01*
X147600Y386000D02*X148350Y386750D01*
X145350Y386000D02*X147600D01*
X144600Y386750D02*X145350Y386000D01*
X98750D02*X100250D01*
X99500Y392000D02*Y386000D01*
X98000Y390500D02*X99500Y392000D01*
X102800Y386000D02*X104300D01*
X103550Y392000D02*Y386000D01*
X102050Y390500D02*X103550Y392000D01*
X45000Y386750D02*X45750Y386000D01*
X45000Y391250D02*Y386750D01*
Y391250D02*X45750Y392000D01*
X47250D01*
X48000Y391250D01*
Y386750D01*
X47250Y386000D02*X48000Y386750D01*
X45750Y386000D02*X47250D01*
X45000Y387500D02*X48000Y390500D01*
X49800Y386000D02*X50550D01*
X52350Y386750D02*X53100Y386000D01*
X52350Y391250D02*Y386750D01*
Y391250D02*X53100Y392000D01*
X54600D01*
X55350Y391250D01*
Y386750D01*
X54600Y386000D02*X55350Y386750D01*
X53100Y386000D02*X54600D01*
X52350Y387500D02*X55350Y390500D01*
X57150Y389000D02*X60150Y392000D01*
X57150Y389000D02*X60900D01*
X60150Y392000D02*Y386000D01*
X62700Y391250D02*X63450Y392000D01*
X65700D01*
X66450Y391250D01*
Y389750D01*
X62700Y386000D02*X66450Y389750D01*
X62700Y386000D02*X66450D01*
X729700Y229000D02*G75*G03X731300Y229000I800J0D01*G01*
G75*G03X729700Y229000I-800J0D01*G01*
X739700D02*G75*G03X741300Y229000I800J0D01*G01*
G75*G03X739700Y229000I-800J0D01*G01*
X749700D02*G75*G03X751300Y229000I800J0D01*G01*
G75*G03X749700Y229000I-800J0D01*G01*
X632200Y167500D02*G75*G03X633800Y167500I800J0D01*G01*
G75*G03X632200Y167500I-800J0D01*G01*
X642200D02*G75*G03X643800Y167500I800J0D01*G01*
G75*G03X642200Y167500I-800J0D01*G01*
X652200D02*G75*G03X653800Y167500I800J0D01*G01*
G75*G03X652200Y167500I-800J0D01*G01*
X662200D02*G75*G03X663800Y167500I800J0D01*G01*
G75*G03X662200Y167500I-800J0D01*G01*
X824700Y134000D02*G75*G03X826300Y134000I800J0D01*G01*
G75*G03X824700Y134000I-800J0D01*G01*
X869700Y113500D02*G75*G03X871300Y113500I800J0D01*G01*
G75*G03X869700Y113500I-800J0D01*G01*
Y103500D02*G75*G03X871300Y103500I800J0D01*G01*
G75*G03X869700Y103500I-800J0D01*G01*
Y93500D02*G75*G03X871300Y93500I800J0D01*G01*
G75*G03X869700Y93500I-800J0D01*G01*
Y83500D02*G75*G03X871300Y83500I800J0D01*G01*
G75*G03X869700Y83500I-800J0D01*G01*
Y73500D02*G75*G03X871300Y73500I800J0D01*G01*
G75*G03X869700Y73500I-800J0D01*G01*
Y63500D02*G75*G03X871300Y63500I800J0D01*G01*
G75*G03X869700Y63500I-800J0D01*G01*
Y53500D02*G75*G03X871300Y53500I800J0D01*G01*
G75*G03X869700Y53500I-800J0D01*G01*
Y43500D02*G75*G03X871300Y43500I800J0D01*G01*
G75*G03X869700Y43500I-800J0D01*G01*
Y33500D02*G75*G03X871300Y33500I800J0D01*G01*
G75*G03X869700Y33500I-800J0D01*G01*
X574700Y167500D02*G75*G03X576300Y167500I800J0D01*G01*
G75*G03X574700Y167500I-800J0D01*G01*
X584700D02*G75*G03X586300Y167500I800J0D01*G01*
G75*G03X584700Y167500I-800J0D01*G01*
X594700D02*G75*G03X596300Y167500I800J0D01*G01*
G75*G03X594700Y167500I-800J0D01*G01*
X739700Y78500D02*G75*G03X741300Y78500I800J0D01*G01*
G75*G03X739700Y78500I-800J0D01*G01*
X749700D02*G75*G03X751300Y78500I800J0D01*G01*
G75*G03X749700Y78500I-800J0D01*G01*
X759700D02*G75*G03X761300Y78500I800J0D01*G01*
G75*G03X759700Y78500I-800J0D01*G01*
X824700Y113500D02*G75*G03X826300Y113500I800J0D01*G01*
G75*G03X824700Y113500I-800J0D01*G01*
Y103500D02*G75*G03X826300Y103500I800J0D01*G01*
G75*G03X824700Y103500I-800J0D01*G01*
Y93500D02*G75*G03X826300Y93500I800J0D01*G01*
G75*G03X824700Y93500I-800J0D01*G01*
Y83500D02*G75*G03X826300Y83500I800J0D01*G01*
G75*G03X824700Y83500I-800J0D01*G01*
Y73500D02*G75*G03X826300Y73500I800J0D01*G01*
G75*G03X824700Y73500I-800J0D01*G01*
Y63500D02*G75*G03X826300Y63500I800J0D01*G01*
G75*G03X824700Y63500I-800J0D01*G01*
Y53500D02*G75*G03X826300Y53500I800J0D01*G01*
G75*G03X824700Y53500I-800J0D01*G01*
Y43500D02*G75*G03X826300Y43500I800J0D01*G01*
G75*G03X824700Y43500I-800J0D01*G01*
Y33500D02*G75*G03X826300Y33500I800J0D01*G01*
G75*G03X824700Y33500I-800J0D01*G01*
X286200Y192500D02*G75*G03X287800Y192500I800J0D01*G01*
G75*G03X286200Y192500I-800J0D01*G01*
Y182500D02*G75*G03X287800Y182500I800J0D01*G01*
G75*G03X286200Y182500I-800J0D01*G01*
Y172500D02*G75*G03X287800Y172500I800J0D01*G01*
G75*G03X286200Y172500I-800J0D01*G01*
X632700Y211000D02*G75*G03X634300Y211000I800J0D01*G01*
G75*G03X632700Y211000I-800J0D01*G01*
X642700D02*G75*G03X644300Y211000I800J0D01*G01*
G75*G03X642700Y211000I-800J0D01*G01*
X652700D02*G75*G03X654300Y211000I800J0D01*G01*
G75*G03X652700Y211000I-800J0D01*G01*
X662700D02*G75*G03X664300Y211000I800J0D01*G01*
G75*G03X662700Y211000I-800J0D01*G01*
X45200Y216000D02*G75*G03X46800Y216000I800J0D01*G01*
G75*G03X45200Y216000I-800J0D01*G01*
Y206000D02*G75*G03X46800Y206000I800J0D01*G01*
G75*G03X45200Y206000I-800J0D01*G01*
Y196000D02*G75*G03X46800Y196000I800J0D01*G01*
G75*G03X45200Y196000I-800J0D01*G01*
Y186000D02*G75*G03X46800Y186000I800J0D01*G01*
G75*G03X45200Y186000I-800J0D01*G01*
X75200D02*G75*G03X76800Y186000I800J0D01*G01*
G75*G03X75200Y186000I-800J0D01*G01*
Y196000D02*G75*G03X76800Y196000I800J0D01*G01*
G75*G03X75200Y196000I-800J0D01*G01*
Y206000D02*G75*G03X76800Y206000I800J0D01*G01*
G75*G03X75200Y206000I-800J0D01*G01*
Y216000D02*G75*G03X76800Y216000I800J0D01*G01*
G75*G03X75200Y216000I-800J0D01*G01*
X115700Y71000D02*G75*G03X117300Y71000I800J0D01*G01*
G75*G03X115700Y71000I-800J0D01*G01*
Y61000D02*G75*G03X117300Y61000I800J0D01*G01*
G75*G03X115700Y61000I-800J0D01*G01*
Y51000D02*G75*G03X117300Y51000I800J0D01*G01*
G75*G03X115700Y51000I-800J0D01*G01*
Y41000D02*G75*G03X117300Y41000I800J0D01*G01*
G75*G03X115700Y41000I-800J0D01*G01*
X145700D02*G75*G03X147300Y41000I800J0D01*G01*
G75*G03X145700Y41000I-800J0D01*G01*
Y51000D02*G75*G03X147300Y51000I800J0D01*G01*
G75*G03X145700Y51000I-800J0D01*G01*
Y61000D02*G75*G03X147300Y61000I800J0D01*G01*
G75*G03X145700Y61000I-800J0D01*G01*
Y71000D02*G75*G03X147300Y71000I800J0D01*G01*
G75*G03X145700Y71000I-800J0D01*G01*
X430200Y210500D02*G75*G03X431800Y210500I800J0D01*G01*
G75*G03X430200Y210500I-800J0D01*G01*
Y200500D02*G75*G03X431800Y200500I800J0D01*G01*
G75*G03X430200Y200500I-800J0D01*G01*
Y190500D02*G75*G03X431800Y190500I800J0D01*G01*
G75*G03X430200Y190500I-800J0D01*G01*
Y180500D02*G75*G03X431800Y180500I800J0D01*G01*
G75*G03X430200Y180500I-800J0D01*G01*
X460200D02*G75*G03X461800Y180500I800J0D01*G01*
G75*G03X460200Y180500I-800J0D01*G01*
Y190500D02*G75*G03X461800Y190500I800J0D01*G01*
G75*G03X460200Y190500I-800J0D01*G01*
Y200500D02*G75*G03X461800Y200500I800J0D01*G01*
G75*G03X460200Y200500I-800J0D01*G01*
Y210500D02*G75*G03X461800Y210500I800J0D01*G01*
G75*G03X460200Y210500I-800J0D01*G01*
X430200Y123000D02*G75*G03X431800Y123000I800J0D01*G01*
G75*G03X430200Y123000I-800J0D01*G01*
Y113000D02*G75*G03X431800Y113000I800J0D01*G01*
G75*G03X430200Y113000I-800J0D01*G01*
Y103000D02*G75*G03X431800Y103000I800J0D01*G01*
G75*G03X430200Y103000I-800J0D01*G01*
Y93000D02*G75*G03X431800Y93000I800J0D01*G01*
G75*G03X430200Y93000I-800J0D01*G01*
Y83000D02*G75*G03X431800Y83000I800J0D01*G01*
G75*G03X430200Y83000I-800J0D01*G01*
Y73000D02*G75*G03X431800Y73000I800J0D01*G01*
G75*G03X430200Y73000I-800J0D01*G01*
Y63000D02*G75*G03X431800Y63000I800J0D01*G01*
G75*G03X430200Y63000I-800J0D01*G01*
Y53000D02*G75*G03X431800Y53000I800J0D01*G01*
G75*G03X430200Y53000I-800J0D01*G01*
X460200D02*G75*G03X461800Y53000I800J0D01*G01*
G75*G03X460200Y53000I-800J0D01*G01*
Y63000D02*G75*G03X461800Y63000I800J0D01*G01*
G75*G03X460200Y63000I-800J0D01*G01*
Y73000D02*G75*G03X461800Y73000I800J0D01*G01*
G75*G03X460200Y73000I-800J0D01*G01*
Y83000D02*G75*G03X461800Y83000I800J0D01*G01*
G75*G03X460200Y83000I-800J0D01*G01*
Y93000D02*G75*G03X461800Y93000I800J0D01*G01*
G75*G03X460200Y93000I-800J0D01*G01*
Y103000D02*G75*G03X461800Y103000I800J0D01*G01*
G75*G03X460200Y103000I-800J0D01*G01*
Y113000D02*G75*G03X461800Y113000I800J0D01*G01*
G75*G03X460200Y113000I-800J0D01*G01*
Y123000D02*G75*G03X461800Y123000I800J0D01*G01*
G75*G03X460200Y123000I-800J0D01*G01*
X657700Y106000D02*G75*G03X659300Y106000I800J0D01*G01*
G75*G03X657700Y106000I-800J0D01*G01*
Y96000D02*G75*G03X659300Y96000I800J0D01*G01*
G75*G03X657700Y96000I-800J0D01*G01*
Y86000D02*G75*G03X659300Y86000I800J0D01*G01*
G75*G03X657700Y86000I-800J0D01*G01*
Y76000D02*G75*G03X659300Y76000I800J0D01*G01*
G75*G03X657700Y76000I-800J0D01*G01*
Y66000D02*G75*G03X659300Y66000I800J0D01*G01*
G75*G03X657700Y66000I-800J0D01*G01*
Y56000D02*G75*G03X659300Y56000I800J0D01*G01*
G75*G03X657700Y56000I-800J0D01*G01*
Y46000D02*G75*G03X659300Y46000I800J0D01*G01*
G75*G03X657700Y46000I-800J0D01*G01*
X687700D02*G75*G03X689300Y46000I800J0D01*G01*
G75*G03X687700Y46000I-800J0D01*G01*
Y56000D02*G75*G03X689300Y56000I800J0D01*G01*
G75*G03X687700Y56000I-800J0D01*G01*
Y66000D02*G75*G03X689300Y66000I800J0D01*G01*
G75*G03X687700Y66000I-800J0D01*G01*
Y76000D02*G75*G03X689300Y76000I800J0D01*G01*
G75*G03X687700Y76000I-800J0D01*G01*
Y86000D02*G75*G03X689300Y86000I800J0D01*G01*
G75*G03X687700Y86000I-800J0D01*G01*
Y96000D02*G75*G03X689300Y96000I800J0D01*G01*
G75*G03X687700Y96000I-800J0D01*G01*
Y106000D02*G75*G03X689300Y106000I800J0D01*G01*
G75*G03X687700Y106000I-800J0D01*G01*
X839700Y236000D02*G75*G03X841300Y236000I800J0D01*G01*
G75*G03X839700Y236000I-800J0D01*G01*
Y226000D02*G75*G03X841300Y226000I800J0D01*G01*
G75*G03X839700Y226000I-800J0D01*G01*
Y216000D02*G75*G03X841300Y216000I800J0D01*G01*
G75*G03X839700Y216000I-800J0D01*G01*
Y206000D02*G75*G03X841300Y206000I800J0D01*G01*
G75*G03X839700Y206000I-800J0D01*G01*
X869700D02*G75*G03X871300Y206000I800J0D01*G01*
G75*G03X869700Y206000I-800J0D01*G01*
Y216000D02*G75*G03X871300Y216000I800J0D01*G01*
G75*G03X869700Y216000I-800J0D01*G01*
Y226000D02*G75*G03X871300Y226000I800J0D01*G01*
G75*G03X869700Y226000I-800J0D01*G01*
Y236000D02*G75*G03X871300Y236000I800J0D01*G01*
G75*G03X869700Y236000I-800J0D01*G01*
X14200Y404750D02*G75*G03X15800Y404750I800J0D01*G01*
G75*G03X14200Y404750I-800J0D01*G01*
X135000Y407000D02*Y406250D01*
X136500Y404750D01*
X138000Y406250D01*
Y407000D02*Y406250D01*
X136500Y404750D02*Y401000D01*
X139800Y404000D02*X142050D01*
X139800Y401000D02*X142800D01*
X139800Y407000D02*Y401000D01*
Y407000D02*X142800D01*
X147600D02*X148350Y406250D01*
X145350Y407000D02*X147600D01*
X144600Y406250D02*X145350Y407000D01*
X144600Y406250D02*Y404750D01*
X145350Y404000D01*
X147600D01*
X148350Y403250D01*
Y401750D01*
X147600Y401000D02*X148350Y401750D01*
X145350Y401000D02*X147600D01*
X144600Y401750D02*X145350Y401000D01*
X98750D02*X100250D01*
X99500Y407000D02*Y401000D01*
X98000Y405500D02*X99500Y407000D01*
X102050Y401750D02*X102800Y401000D01*
X102050Y406250D02*Y401750D01*
Y406250D02*X102800Y407000D01*
X104300D01*
X105050Y406250D01*
Y401750D01*
X104300Y401000D02*X105050Y401750D01*
X102800Y401000D02*X104300D01*
X102050Y402500D02*X105050Y405500D01*
X107600Y401000D02*X109100D01*
X108350Y407000D02*Y401000D01*
X106850Y405500D02*X108350Y407000D01*
X45000Y401750D02*X45750Y401000D01*
X45000Y406250D02*Y401750D01*
Y406250D02*X45750Y407000D01*
X47250D01*
X48000Y406250D01*
Y401750D01*
X47250Y401000D02*X48000Y401750D01*
X45750Y401000D02*X47250D01*
X45000Y402500D02*X48000Y405500D01*
X49800Y401000D02*X50550D01*
X52350Y401750D02*X53100Y401000D01*
X52350Y406250D02*Y401750D01*
Y406250D02*X53100Y407000D01*
X54600D01*
X55350Y406250D01*
Y401750D01*
X54600Y401000D02*X55350Y401750D01*
X53100Y401000D02*X54600D01*
X52350Y402500D02*X55350Y405500D01*
X57150Y406250D02*X57900Y407000D01*
X59400D01*
X60150Y406250D01*
Y401750D01*
X59400Y401000D02*X60150Y401750D01*
X57900Y401000D02*X59400D01*
X57150Y401750D02*X57900Y401000D01*
Y404000D02*X60150D01*
X61950Y401750D02*X62700Y401000D01*
X61950Y403250D02*Y401750D01*
Y403250D02*X62700Y404000D01*
X64200D01*
X64950Y403250D01*
Y401750D01*
X64200Y401000D02*X64950Y401750D01*
X62700Y401000D02*X64200D01*
X61950Y404750D02*X62700Y404000D01*
X61950Y406250D02*Y404750D01*
Y406250D02*X62700Y407000D01*
X64200D01*
X64950Y406250D01*
Y404750D01*
X64200Y404000D02*X64950Y404750D01*
X774300Y227200D02*X776700Y224800D01*
X774300D02*X776700Y227200D01*
X804300D02*X806700Y224800D01*
X804300D02*X806700Y227200D01*
X574300Y107200D02*X576700Y104800D01*
X574300D02*X576700Y107200D01*
X614300D02*X616700Y104800D01*
X614300D02*X616700Y107200D01*
X709300Y37200D02*X711700Y34800D01*
X709300D02*X711700Y37200D01*
X749300D02*X751700Y34800D01*
X749300D02*X751700Y37200D01*
X167800Y26200D02*X170200Y23800D01*
X167800D02*X170200Y26200D01*
X197800D02*X200200Y23800D01*
X197800D02*X200200Y26200D01*
X709300Y197200D02*X711700Y194800D01*
X709300D02*X711700Y197200D01*
X749300D02*X751700Y194800D01*
X749300D02*X751700Y197200D01*
X709300Y77200D02*X711700Y74800D01*
X709300D02*X711700Y77200D01*
X719300D02*X721700Y74800D01*
X719300D02*X721700Y77200D01*
X709300Y134700D02*X711700Y132300D01*
X709300D02*X711700Y134700D01*
X749300D02*X751700Y132300D01*
X749300D02*X751700Y134700D01*
X764300Y212200D02*X766700Y209800D01*
X764300D02*X766700Y212200D01*
X804300D02*X806700Y209800D01*
X804300D02*X806700Y212200D01*
X621800Y122200D02*X624200Y119800D01*
X621800D02*X624200Y122200D01*
X631800D02*X634200Y119800D01*
X631800D02*X634200Y122200D01*
X167800Y62200D02*X170200Y59800D01*
X167800D02*X170200Y62200D01*
X207800D02*X210200Y59800D01*
X207800D02*X210200Y62200D01*
X167800Y44700D02*X170200Y42300D01*
X167800D02*X170200Y44700D01*
X207800D02*X210200Y42300D01*
X207800D02*X210200Y44700D01*
X409800Y94200D02*X412200Y91800D01*
X409800D02*X412200Y94200D01*
X409800Y54200D02*X412200Y51800D01*
X409800D02*X412200Y54200D01*
X786800Y103200D02*X789200Y100800D01*
X786800D02*X789200Y103200D01*
X796800D02*X799200Y100800D01*
X796800D02*X799200Y103200D01*
X709300Y212200D02*X711700Y209800D01*
X709300D02*X711700Y212200D01*
X749300D02*X751700Y209800D01*
X749300D02*X751700Y212200D01*
X167800Y82200D02*X170200Y79800D01*
X167800D02*X170200Y82200D01*
X177800D02*X180200Y79800D01*
X177800D02*X180200Y82200D01*
X819300Y167200D02*X821700Y164800D01*
X819300D02*X821700Y167200D01*
X859300D02*X861700Y164800D01*
X859300D02*X861700Y167200D01*
X774300D02*X776700Y164800D01*
X774300D02*X776700Y167200D01*
X804300D02*X806700Y164800D01*
X804300D02*X806700Y167200D01*
X574300Y87200D02*X576700Y84800D01*
X574300D02*X576700Y87200D01*
X614300D02*X616700Y84800D01*
X614300D02*X616700Y87200D01*
X764300Y182200D02*X766700Y179800D01*
X764300D02*X766700Y182200D01*
X804300D02*X806700Y179800D01*
X804300D02*X806700Y182200D01*
X709300Y167200D02*X711700Y164800D01*
X709300D02*X711700Y167200D01*
X749300D02*X751700Y164800D01*
X749300D02*X751700Y167200D01*
X774300Y197200D02*X776700Y194800D01*
X774300D02*X776700Y197200D01*
X804300D02*X806700Y194800D01*
X804300D02*X806700Y197200D01*
X709300Y107200D02*X711700Y104800D01*
X709300D02*X711700Y107200D01*
X749300D02*X751700Y104800D01*
X749300D02*X751700Y107200D01*
X709300Y152200D02*X711700Y149800D01*
X709300D02*X711700Y152200D01*
X749300D02*X751700Y149800D01*
X749300D02*X751700Y152200D01*
X574300Y67200D02*X576700Y64800D01*
X574300D02*X576700Y67200D01*
X614300D02*X616700Y64800D01*
X614300D02*X616700Y67200D01*
X719300Y182200D02*X721700Y179800D01*
X719300D02*X721700Y182200D01*
X749300D02*X751700Y179800D01*
X749300D02*X751700Y182200D01*
X764300Y242200D02*X766700Y239800D01*
X764300D02*X766700Y242200D01*
X804300D02*X806700Y239800D01*
X804300D02*X806700Y242200D01*
X67300Y239700D02*X69700Y237300D01*
X67300D02*X69700Y239700D01*
X107300D02*X109700Y237300D01*
X107300D02*X109700Y239700D01*
X14800Y255200D02*X17200Y252800D01*
X14800D02*X17200Y255200D01*
X54800D02*X57200Y252800D01*
X54800D02*X57200Y255200D01*
X14800Y239700D02*X17200Y237300D01*
X14800D02*X17200Y239700D01*
X54800D02*X57200Y237300D01*
X54800D02*X57200Y239700D01*
X574300Y212200D02*X576700Y209800D01*
X574300D02*X576700Y212200D01*
X614300D02*X616700Y209800D01*
X614300D02*X616700Y212200D01*
X709300Y57200D02*X711700Y54800D01*
X709300D02*X711700Y57200D01*
X749300D02*X751700Y54800D01*
X749300D02*X751700Y57200D01*
X574300Y47200D02*X576700Y44800D01*
X574300D02*X576700Y47200D01*
X614300D02*X616700Y44800D01*
X614300D02*X616700Y47200D01*
X369800Y156700D02*X372200Y154300D01*
X369800D02*X372200Y156700D01*
X409800D02*X412200Y154300D01*
X409800D02*X412200Y156700D01*
X521300Y221700D02*X523700Y219300D01*
X521300D02*X523700Y221700D01*
X521300Y181700D02*X523700Y179300D01*
X521300D02*X523700Y181700D01*
X379800Y134200D02*X382200Y131800D01*
X379800D02*X382200Y134200D01*
X379800Y94200D02*X382200Y91800D01*
X379800D02*X382200Y94200D01*
X394800Y109200D02*X397200Y106800D01*
X394800D02*X397200Y109200D01*
X394800Y69200D02*X397200Y66800D01*
X394800D02*X397200Y69200D01*
X482300Y114200D02*X484700Y111800D01*
X482300D02*X484700Y114200D01*
X482300Y74200D02*X484700Y71800D01*
X482300D02*X484700Y74200D01*
X369800Y191700D02*X372200Y189300D01*
X369800D02*X372200Y191700D01*
X409800D02*X412200Y189300D01*
X409800D02*X412200Y191700D01*
X379800Y174200D02*X382200Y171800D01*
X379800D02*X382200Y174200D01*
X409800D02*X412200Y171800D01*
X409800D02*X412200Y174200D01*
X459800Y154700D02*X462200Y152300D01*
X459800D02*X462200Y154700D01*
X499800D02*X502200Y152300D01*
X499800D02*X502200Y154700D01*
X369800Y211700D02*X372200Y209300D01*
X369800D02*X372200Y211700D01*
X409800D02*X412200Y209300D01*
X409800D02*X412200Y211700D01*
X574300Y197200D02*X576700Y194800D01*
X574300D02*X576700Y197200D01*
X614300D02*X616700Y194800D01*
X614300D02*X616700Y197200D01*
X542300Y138200D02*X544700Y135800D01*
X542300D02*X544700Y138200D01*
X552300D02*X554700Y135800D01*
X552300D02*X554700Y138200D01*
X14800Y207200D02*X17200Y204800D01*
X14800D02*X17200Y207200D01*
X14800Y167200D02*X17200Y164800D01*
X14800D02*X17200Y167200D01*
X29800Y197200D02*X32200Y194800D01*
X29800D02*X32200Y197200D01*
X29800Y157200D02*X32200Y154800D01*
X29800D02*X32200Y157200D01*
X55800Y167200D02*X58200Y164800D01*
X55800D02*X58200Y167200D01*
X95800D02*X98200Y164800D01*
X95800D02*X98200Y167200D01*
X55800Y152200D02*X58200Y149800D01*
X55800D02*X58200Y152200D01*
X95800D02*X98200Y149800D01*
X95800D02*X98200Y152200D01*
X11800Y137200D02*X14200Y134800D01*
X11800D02*X14200Y137200D01*
X51800D02*X54200Y134800D01*
X51800D02*X54200Y137200D01*
X88800Y26200D02*X91200Y23800D01*
X88800D02*X91200Y26200D01*
X118800D02*X121200Y23800D01*
X118800D02*X121200Y26200D01*
X167300Y192200D02*X169700Y189800D01*
X167300D02*X169700Y192200D01*
X167300Y232200D02*X169700Y229800D01*
X167300D02*X169700Y232200D01*
X184800Y259700D02*X187200Y257300D01*
X184800D02*X187200Y259700D01*
X184800Y219700D02*X187200Y217300D01*
X184800D02*X187200Y219700D01*
X167300Y287200D02*X169700Y284800D01*
X167300D02*X169700Y287200D01*
X167300Y247200D02*X169700Y244800D01*
X167300D02*X169700Y247200D01*
X149800Y314700D02*X152200Y312300D01*
X149800D02*X152200Y314700D01*
X149800Y274700D02*X152200Y272300D01*
X149800D02*X152200Y274700D01*
X149800Y259700D02*X152200Y257300D01*
X149800D02*X152200Y259700D01*
X149800Y219700D02*X152200Y217300D01*
X149800D02*X152200Y219700D01*
X499800Y221700D02*X502200Y219300D01*
X499800D02*X502200Y221700D01*
X499800Y181700D02*X502200Y179300D01*
X499800D02*X502200Y181700D01*
X482300Y221700D02*X484700Y219300D01*
X482300D02*X484700Y221700D01*
X482300Y181700D02*X484700Y179300D01*
X482300D02*X484700Y181700D01*
X844300Y282200D02*X846700Y279800D01*
X844300D02*X846700Y282200D01*
X854300D02*X856700Y279800D01*
X854300D02*X856700Y282200D01*
X39800D02*X42200Y279800D01*
X39800D02*X42200Y282200D01*
X49800D02*X52200Y279800D01*
X49800D02*X52200Y282200D01*
X49800Y110700D02*X52200Y108300D01*
X49800D02*X52200Y110700D01*
X59800D02*X62200Y108300D01*
X59800D02*X62200Y110700D01*
X87800D02*X90200Y108300D01*
X87800D02*X90200Y110700D01*
X97800D02*X100200Y108300D01*
X97800D02*X100200Y110700D01*
X51300Y40700D02*X53700Y38300D01*
X51300D02*X53700Y40700D01*
X21378Y40307D02*X23778Y37907D01*
X21378D02*X23778Y40307D01*
X841800Y74700D02*X844200Y72300D01*
X841800D02*X844200Y74700D01*
X841800Y194700D02*X844200Y192300D01*
X841800D02*X844200Y194700D01*
X841800Y27200D02*X844200Y24800D01*
X841800D02*X844200Y27200D01*
X851800Y85200D02*X854200Y82800D01*
X851800D02*X854200Y85200D01*
X9800Y115200D02*X12200Y112800D01*
X9800D02*X12200Y115200D01*
X643800Y20700D02*X646200Y18300D01*
X643800D02*X646200Y20700D01*
X246300Y302700D02*X248700Y300300D01*
X246300D02*X248700Y302700D01*
X534300Y20700D02*X536700Y18300D01*
X534300D02*X536700Y20700D01*
X834800Y104700D02*X837200Y102300D01*
X834800D02*X837200Y104700D01*
X534300Y33700D02*X536700Y31300D01*
X534300D02*X536700Y33700D01*
X786800Y35200D02*X789200Y32800D01*
X786800D02*X789200Y35200D01*
X786800Y20700D02*X789200Y18300D01*
X786800D02*X789200Y20700D01*
X766800Y47200D02*X769200Y44800D01*
X766800D02*X769200Y47200D01*
X344800Y140200D02*X347200Y137800D01*
X344800D02*X347200Y140200D01*
X749800Y243700D02*X752200Y241300D01*
X749800D02*X752200Y243700D01*
X574800Y234200D02*X577200Y231800D01*
X574800D02*X577200Y234200D01*
X459800Y35200D02*X462200Y32800D01*
X459800D02*X462200Y35200D01*
X13800Y420950D02*X16200Y418550D01*
X13800D02*X16200Y420950D01*
X135000Y422000D02*Y421250D01*
X136500Y419750D01*
X138000Y421250D01*
Y422000D02*Y421250D01*
X136500Y419750D02*Y416000D01*
X139800Y419000D02*X142050D01*
X139800Y416000D02*X142800D01*
X139800Y422000D02*Y416000D01*
Y422000D02*X142800D01*
X147600D02*X148350Y421250D01*
X145350Y422000D02*X147600D01*
X144600Y421250D02*X145350Y422000D01*
X144600Y421250D02*Y419750D01*
X145350Y419000D01*
X147600D01*
X148350Y418250D01*
Y416750D01*
X147600Y416000D02*X148350Y416750D01*
X145350Y416000D02*X147600D01*
X144600Y416750D02*X145350Y416000D01*
X98750D02*X100250D01*
X99500Y422000D02*Y416000D01*
X98000Y420500D02*X99500Y422000D01*
X102050Y421250D02*X102800Y422000D01*
X104300D01*
X105050Y421250D01*
Y416750D01*
X104300Y416000D02*X105050Y416750D01*
X102800Y416000D02*X104300D01*
X102050Y416750D02*X102800Y416000D01*
Y419000D02*X105050D01*
X106850Y416000D02*X109850Y419000D01*
Y421250D02*Y419000D01*
X109100Y422000D02*X109850Y421250D01*
X107600Y422000D02*X109100D01*
X106850Y421250D02*X107600Y422000D01*
X106850Y421250D02*Y419750D01*
X107600Y419000D01*
X109850D01*
X45000Y416750D02*X45750Y416000D01*
X45000Y421250D02*Y416750D01*
Y421250D02*X45750Y422000D01*
X47250D01*
X48000Y421250D01*
Y416750D01*
X47250Y416000D02*X48000Y416750D01*
X45750Y416000D02*X47250D01*
X45000Y417500D02*X48000Y420500D01*
X49800Y416000D02*X50550D01*
X52350Y416750D02*X53100Y416000D01*
X52350Y421250D02*Y416750D01*
Y421250D02*X53100Y422000D01*
X54600D01*
X55350Y421250D01*
Y416750D01*
X54600Y416000D02*X55350Y416750D01*
X53100Y416000D02*X54600D01*
X52350Y417500D02*X55350Y420500D01*
X57150Y421250D02*X57900Y422000D01*
X59400D01*
X60150Y421250D01*
Y416750D01*
X59400Y416000D02*X60150Y416750D01*
X57900Y416000D02*X59400D01*
X57150Y416750D02*X57900Y416000D01*
Y419000D02*X60150D01*
X61950Y422000D02*X64950D01*
X61950D02*Y419000D01*
X62700Y419750D01*
X64200D01*
X64950Y419000D01*
Y416750D01*
X64200Y416000D02*X64950Y416750D01*
X62700Y416000D02*X64200D01*
X61950Y416750D02*X62700Y416000D01*
X375500Y307600D02*Y304400D01*
X373900Y306000D02*X377100D01*
X365500Y307600D02*Y304400D01*
X363900Y306000D02*X367100D01*
X15000Y436350D02*Y433150D01*
X13400Y434750D02*X16600D01*
X135000Y437000D02*Y436250D01*
X136500Y434750D01*
X138000Y436250D01*
Y437000D02*Y436250D01*
X136500Y434750D02*Y431000D01*
X139800Y434000D02*X142050D01*
X139800Y431000D02*X142800D01*
X139800Y437000D02*Y431000D01*
Y437000D02*X142800D01*
X147600D02*X148350Y436250D01*
X145350Y437000D02*X147600D01*
X144600Y436250D02*X145350Y437000D01*
X144600Y436250D02*Y434750D01*
X145350Y434000D01*
X147600D01*
X148350Y433250D01*
Y431750D01*
X147600Y431000D02*X148350Y431750D01*
X145350Y431000D02*X147600D01*
X144600Y431750D02*X145350Y431000D01*
X98000Y436250D02*X98750Y437000D01*
X101000D01*
X101750Y436250D01*
Y434750D01*
X98000Y431000D02*X101750Y434750D01*
X98000Y431000D02*X101750D01*
X45000Y431750D02*X45750Y431000D01*
X45000Y436250D02*Y431750D01*
Y436250D02*X45750Y437000D01*
X47250D01*
X48000Y436250D01*
Y431750D01*
X47250Y431000D02*X48000Y431750D01*
X45750Y431000D02*X47250D01*
X45000Y432500D02*X48000Y435500D01*
X49800Y431000D02*X50550D01*
X52350Y431750D02*X53100Y431000D01*
X52350Y436250D02*Y431750D01*
Y436250D02*X53100Y437000D01*
X54600D01*
X55350Y436250D01*
Y431750D01*
X54600Y431000D02*X55350Y431750D01*
X53100Y431000D02*X54600D01*
X52350Y432500D02*X55350Y435500D01*
X57150Y436250D02*X57900Y437000D01*
X60150D01*
X60900Y436250D01*
Y434750D01*
X57150Y431000D02*X60900Y434750D01*
X57150Y431000D02*X60900D01*
X62700Y431750D02*X63450Y431000D01*
X62700Y433250D02*Y431750D01*
Y433250D02*X63450Y434000D01*
X64950D01*
X65700Y433250D01*
Y431750D01*
X64950Y431000D02*X65700Y431750D01*
X63450Y431000D02*X64950D01*
X62700Y434750D02*X63450Y434000D01*
X62700Y436250D02*Y434750D01*
Y436250D02*X63450Y437000D01*
X64950D01*
X65700Y436250D01*
Y434750D01*
X64950Y434000D02*X65700Y434750D01*
X157500Y305500D02*Y303900D01*
Y305500D02*X158887Y306300D01*
X157500Y305500D02*X156113Y306300D01*
X136000Y305500D02*Y303900D01*
Y305500D02*X137387Y306300D01*
X136000Y305500D02*X134613Y306300D01*
X142500Y298500D02*Y296900D01*
Y298500D02*X143887Y299300D01*
X142500Y298500D02*X141113Y299300D01*
X211500Y225500D02*Y223900D01*
Y225500D02*X212887Y226300D01*
X211500Y225500D02*X210113Y226300D01*
X487000Y138500D02*Y136900D01*
Y138500D02*X488387Y139300D01*
X487000Y138500D02*X485613Y139300D01*
X641000Y145000D02*Y143400D01*
Y145000D02*X642387Y145800D01*
X641000Y145000D02*X639613Y145800D01*
X286500Y225500D02*Y223900D01*
Y225500D02*X287887Y226300D01*
X286500Y225500D02*X285113Y226300D01*
X497000Y137000D02*Y135400D01*
Y137000D02*X498387Y137800D01*
X497000Y137000D02*X495613Y137800D01*
X505500Y128500D02*Y126900D01*
Y128500D02*X506887Y129300D01*
X505500Y128500D02*X504113Y129300D01*
X620000Y135500D02*Y133900D01*
Y135500D02*X621387Y136300D01*
X620000Y135500D02*X618613Y136300D01*
X395500Y236500D02*Y234900D01*
Y236500D02*X396887Y237300D01*
X395500Y236500D02*X394113Y237300D01*
X567000Y122500D02*Y120900D01*
Y122500D02*X568387Y123300D01*
X567000Y122500D02*X565613Y123300D01*
X488000Y39500D02*Y37900D01*
Y39500D02*X489387Y40300D01*
X488000Y39500D02*X486613Y40300D01*
X545000Y39500D02*Y37900D01*
Y39500D02*X546387Y40300D01*
X545000Y39500D02*X543613Y40300D01*
X463500Y138500D02*Y136900D01*
Y138500D02*X464887Y139300D01*
X463500Y138500D02*X462113Y139300D01*
X406500Y243500D02*Y241900D01*
Y243500D02*X407887Y244300D01*
X406500Y243500D02*X405113Y244300D01*
X224000Y182500D02*Y180900D01*
Y182500D02*X225387Y183300D01*
X224000Y182500D02*X222613Y183300D01*
X626500Y75500D02*Y73900D01*
Y75500D02*X627887Y76300D01*
X626500Y75500D02*X625113Y76300D01*
X678500Y125500D02*Y123900D01*
Y125500D02*X679887Y126300D01*
X678500Y125500D02*X677113Y126300D01*
X658500Y149500D02*Y147900D01*
Y149500D02*X659887Y150300D01*
X658500Y149500D02*X657113Y150300D01*
X15000Y449750D02*Y448150D01*
Y449750D02*X16387Y450550D01*
X15000Y449750D02*X13613Y450550D01*
X135000Y452000D02*Y451250D01*
X136500Y449750D01*
X138000Y451250D01*
Y452000D02*Y451250D01*
X136500Y449750D02*Y446000D01*
X139800Y449000D02*X142050D01*
X139800Y446000D02*X142800D01*
X139800Y452000D02*Y446000D01*
Y452000D02*X142800D01*
X147600D02*X148350Y451250D01*
X145350Y452000D02*X147600D01*
X144600Y451250D02*X145350Y452000D01*
X144600Y451250D02*Y449750D01*
X145350Y449000D01*
X147600D01*
X148350Y448250D01*
Y446750D01*
X147600Y446000D02*X148350Y446750D01*
X145350Y446000D02*X147600D01*
X144600Y446750D02*X145350Y446000D01*
X98000Y451250D02*X98750Y452000D01*
X101000D01*
X101750Y451250D01*
Y449750D01*
X98000Y446000D02*X101750Y449750D01*
X98000Y446000D02*X101750D01*
X103550Y446750D02*X104300Y446000D01*
X103550Y451250D02*Y446750D01*
Y451250D02*X104300Y452000D01*
X105800D01*
X106550Y451250D01*
Y446750D01*
X105800Y446000D02*X106550Y446750D01*
X104300Y446000D02*X105800D01*
X103550Y447500D02*X106550Y450500D01*
X45000Y446750D02*X45750Y446000D01*
X45000Y451250D02*Y446750D01*
Y451250D02*X45750Y452000D01*
X47250D01*
X48000Y451250D01*
Y446750D01*
X47250Y446000D02*X48000Y446750D01*
X45750Y446000D02*X47250D01*
X45000Y447500D02*X48000Y450500D01*
X49800Y446000D02*X50550D01*
X52350Y446750D02*X53100Y446000D01*
X52350Y451250D02*Y446750D01*
Y451250D02*X53100Y452000D01*
X54600D01*
X55350Y451250D01*
Y446750D01*
X54600Y446000D02*X55350Y446750D01*
X53100Y446000D02*X54600D01*
X52350Y447500D02*X55350Y450500D01*
X57150Y451250D02*X57900Y452000D01*
X60150D01*
X60900Y451250D01*
Y449750D01*
X57150Y446000D02*X60900Y449750D01*
X57150Y446000D02*X60900D01*
X62700Y446750D02*X63450Y446000D01*
X62700Y451250D02*Y446750D01*
Y451250D02*X63450Y452000D01*
X64950D01*
X65700Y451250D01*
Y446750D01*
X64950Y446000D02*X65700Y446750D01*
X63450Y446000D02*X64950D01*
X62700Y447500D02*X65700Y450500D01*
X3000Y467000D02*X3750Y466250D01*
X750Y467000D02*X3000D01*
X0Y466250D02*X750Y467000D01*
X0Y466250D02*Y464750D01*
X750Y464000D01*
X3000D01*
X3750Y463250D01*
Y461750D01*
X3000Y461000D02*X3750Y461750D01*
X750Y461000D02*X3000D01*
X0Y461750D02*X750Y461000D01*
X5550Y464000D02*Y461750D01*
X6300Y461000D01*
X8550Y464000D02*Y459500D01*
X7800Y458750D02*X8550Y459500D01*
X6300Y458750D02*X7800D01*
X5550Y459500D02*X6300Y458750D01*
Y461000D02*X7800D01*
X8550Y461750D01*
X11100Y463250D02*Y461000D01*
Y463250D02*X11850Y464000D01*
X12600D01*
X13350Y463250D01*
Y461000D01*
Y463250D02*X14100Y464000D01*
X14850D01*
X15600Y463250D01*
Y461000D01*
X10350Y464000D02*X11100Y463250D01*
X17400Y467000D02*Y461000D01*
Y461750D02*X18150Y461000D01*
X19650D01*
X20400Y461750D01*
Y463250D02*Y461750D01*
X19650Y464000D02*X20400Y463250D01*
X18150Y464000D02*X19650D01*
X17400Y463250D02*X18150Y464000D01*
X22200Y463250D02*Y461750D01*
Y463250D02*X22950Y464000D01*
X24450D01*
X25200Y463250D01*
Y461750D01*
X24450Y461000D02*X25200Y461750D01*
X22950Y461000D02*X24450D01*
X22200Y461750D02*X22950Y461000D01*
X27000Y467000D02*Y461750D01*
X27750Y461000D01*
X0Y457750D02*X29250D01*
X41750Y467000D02*Y461000D01*
X44000Y467000D02*X44750Y466250D01*
Y461750D01*
X44000Y461000D02*X44750Y461750D01*
X41000Y461000D02*X44000D01*
X41000Y467000D02*X44000D01*
X46550Y465500D02*Y464750D01*
Y463250D02*Y461000D01*
X50300Y464000D02*X51050Y463250D01*
X48800Y464000D02*X50300D01*
X48050Y463250D02*X48800Y464000D01*
X48050Y463250D02*Y461750D01*
X48800Y461000D01*
X51050Y464000D02*Y461750D01*
X51800Y461000D01*
X48800D02*X50300D01*
X51050Y461750D01*
X54350Y463250D02*Y461000D01*
Y463250D02*X55100Y464000D01*
X55850D01*
X56600Y463250D01*
Y461000D01*
Y463250D02*X57350Y464000D01*
X58100D01*
X58850Y463250D01*
Y461000D01*
X53600Y464000D02*X54350Y463250D01*
X60650Y461000D02*X61400D01*
X65900Y461750D02*X66650Y461000D01*
X65900Y466250D02*X66650Y467000D01*
X65900Y466250D02*Y461750D01*
X68450Y467000D02*X69950D01*
X69200D02*Y461000D01*
X68450D02*X69950D01*
X72500Y463250D02*Y461000D01*
Y463250D02*X73250Y464000D01*
X74000D01*
X74750Y463250D01*
Y461000D01*
X71750Y464000D02*X72500Y463250D01*
X77300Y464000D02*X79550D01*
X76550Y463250D02*X77300Y464000D01*
X76550Y463250D02*Y461750D01*
X77300Y461000D01*
X79550D01*
X81350Y467000D02*Y461000D01*
Y463250D02*X82100Y464000D01*
X83600D01*
X84350Y463250D01*
Y461000D01*
X86150Y467000D02*X86900Y466250D01*
Y461750D01*
X86150Y461000D02*X86900Y461750D01*
X41000Y457750D02*X88700D01*
X95750Y461000D02*X98000D01*
X95000Y461750D02*X95750Y461000D01*
X95000Y466250D02*Y461750D01*
Y466250D02*X95750Y467000D01*
X98000D01*
X99800Y463250D02*Y461750D01*
Y463250D02*X100550Y464000D01*
X102050D01*
X102800Y463250D01*
Y461750D01*
X102050Y461000D02*X102800Y461750D01*
X100550Y461000D02*X102050D01*
X99800Y461750D02*X100550Y461000D01*
X104600Y464000D02*Y461750D01*
X105350Y461000D01*
X106850D01*
X107600Y461750D01*
Y464000D02*Y461750D01*
X110150Y463250D02*Y461000D01*
Y463250D02*X110900Y464000D01*
X111650D01*
X112400Y463250D01*
Y461000D01*
X109400Y464000D02*X110150Y463250D01*
X114950Y467000D02*Y461750D01*
X115700Y461000D01*
X114200Y464750D02*X115700D01*
X95000Y457750D02*X117200D01*
X130750Y467000D02*Y461000D01*
X130000Y467000D02*X133000D01*
X133750Y466250D01*
Y464750D01*
X133000Y464000D02*X133750Y464750D01*
X130750Y464000D02*X133000D01*
X135550Y467000D02*Y461750D01*
X136300Y461000D01*
X140050Y464000D02*X140800Y463250D01*
X138550Y464000D02*X140050D01*
X137800Y463250D02*X138550Y464000D01*
X137800Y463250D02*Y461750D01*
X138550Y461000D01*
X140800Y464000D02*Y461750D01*
X141550Y461000D01*
X138550D02*X140050D01*
X140800Y461750D01*
X144100Y467000D02*Y461750D01*
X144850Y461000D01*
X143350Y464750D02*X144850D01*
X147100Y461000D02*X149350D01*
X146350Y461750D02*X147100Y461000D01*
X146350Y463250D02*Y461750D01*
Y463250D02*X147100Y464000D01*
X148600D01*
X149350Y463250D01*
X146350Y462500D02*X149350D01*
Y463250D02*Y462500D01*
X154150Y467000D02*Y461000D01*
X153400D02*X154150Y461750D01*
X151900Y461000D02*X153400D01*
X151150Y461750D02*X151900Y461000D01*
X151150Y463250D02*Y461750D01*
Y463250D02*X151900Y464000D01*
X153400D01*
X154150Y463250D01*
X157450Y464000D02*Y463250D01*
Y461750D02*Y461000D01*
X155950Y466250D02*Y465500D01*
Y466250D02*X156700Y467000D01*
X158200D01*
X158950Y466250D01*
Y465500D01*
X157450Y464000D02*X158950Y465500D01*
X130000Y457750D02*X160750D01*
X0Y482000D02*X3000D01*
X1500D02*Y476000D01*
X4800Y482000D02*Y476000D01*
Y478250D02*X5550Y479000D01*
X7050D01*
X7800Y478250D01*
Y476000D01*
X10350D02*X12600D01*
X9600Y476750D02*X10350Y476000D01*
X9600Y478250D02*Y476750D01*
Y478250D02*X10350Y479000D01*
X11850D01*
X12600Y478250D01*
X9600Y477500D02*X12600D01*
Y478250D02*Y477500D01*
X15150Y478250D02*Y476000D01*
Y478250D02*X15900Y479000D01*
X17400D01*
X14400D02*X15150Y478250D01*
X19950Y476000D02*X22200D01*
X19200Y476750D02*X19950Y476000D01*
X19200Y478250D02*Y476750D01*
Y478250D02*X19950Y479000D01*
X21450D01*
X22200Y478250D01*
X19200Y477500D02*X22200D01*
Y478250D02*Y477500D01*
X28950Y479000D02*X29700Y478250D01*
X27450Y479000D02*X28950D01*
X26700Y478250D02*X27450Y479000D01*
X26700Y478250D02*Y476750D01*
X27450Y476000D01*
X29700Y479000D02*Y476750D01*
X30450Y476000D01*
X27450D02*X28950D01*
X29700Y476750D01*
X33000Y478250D02*Y476000D01*
Y478250D02*X33750Y479000D01*
X35250D01*
X32250D02*X33000Y478250D01*
X37800Y476000D02*X40050D01*
X37050Y476750D02*X37800Y476000D01*
X37050Y478250D02*Y476750D01*
Y478250D02*X37800Y479000D01*
X39300D01*
X40050Y478250D01*
X37050Y477500D02*X40050D01*
Y478250D02*Y477500D01*
X44550Y476750D02*X45300Y476000D01*
X44550Y478250D02*Y476750D01*
Y478250D02*X45300Y479000D01*
X46800D01*
X47550Y478250D01*
Y476750D01*
X46800Y476000D02*X47550Y476750D01*
X45300Y476000D02*X46800D01*
X44550Y479750D02*X45300Y479000D01*
X44550Y481250D02*Y479750D01*
Y481250D02*X45300Y482000D01*
X46800D01*
X47550Y481250D01*
Y479750D01*
X46800Y479000D02*X47550Y479750D01*
X55050Y482000D02*Y476000D01*
X54300D02*X55050Y476750D01*
X52800Y476000D02*X54300D01*
X52050Y476750D02*X52800Y476000D01*
X52050Y478250D02*Y476750D01*
Y478250D02*X52800Y479000D01*
X54300D01*
X55050Y478250D01*
X56850Y480500D02*Y479750D01*
Y478250D02*Y476000D01*
X59100Y481250D02*Y476000D01*
Y481250D02*X59850Y482000D01*
X60600D01*
X58350Y479000D02*X59850D01*
X62850Y481250D02*Y476000D01*
Y481250D02*X63600Y482000D01*
X64350D01*
X62100Y479000D02*X63600D01*
X66600Y476000D02*X68850D01*
X65850Y476750D02*X66600Y476000D01*
X65850Y478250D02*Y476750D01*
Y478250D02*X66600Y479000D01*
X68100D01*
X68850Y478250D01*
X65850Y477500D02*X68850D01*
Y478250D02*Y477500D01*
X71400Y478250D02*Y476000D01*
Y478250D02*X72150Y479000D01*
X73650D01*
X70650D02*X71400Y478250D01*
X76200Y476000D02*X78450D01*
X75450Y476750D02*X76200Y476000D01*
X75450Y478250D02*Y476750D01*
Y478250D02*X76200Y479000D01*
X77700D01*
X78450Y478250D01*
X75450Y477500D02*X78450D01*
Y478250D02*Y477500D01*
X81000Y478250D02*Y476000D01*
Y478250D02*X81750Y479000D01*
X82500D01*
X83250Y478250D01*
Y476000D01*
X80250Y479000D02*X81000Y478250D01*
X85800Y482000D02*Y476750D01*
X86550Y476000D01*
X85050Y479750D02*X86550D01*
X93750Y482000D02*Y476000D01*
X93000D02*X93750Y476750D01*
X91500Y476000D02*X93000D01*
X90750Y476750D02*X91500Y476000D01*
X90750Y478250D02*Y476750D01*
Y478250D02*X91500Y479000D01*
X93000D01*
X93750Y478250D01*
X96300D02*Y476000D01*
Y478250D02*X97050Y479000D01*
X98550D01*
X95550D02*X96300Y478250D01*
X100350Y480500D02*Y479750D01*
Y478250D02*Y476000D01*
X101850Y482000D02*Y476750D01*
X102600Y476000D01*
X104100Y482000D02*Y476750D01*
X104850Y476000D01*
X109800D02*X112050D01*
X112800Y476750D01*
X112050Y477500D02*X112800Y476750D01*
X109800Y477500D02*X112050D01*
X109050Y478250D02*X109800Y477500D01*
X109050Y478250D02*X109800Y479000D01*
X112050D01*
X112800Y478250D01*
X109050Y476750D02*X109800Y476000D01*
X114600Y480500D02*Y479750D01*
Y478250D02*Y476000D01*
X116100Y479000D02*X119100D01*
X116100Y476000D02*X119100Y479000D01*
X116100Y476000D02*X119100D01*
X121650D02*X123900D01*
X120900Y476750D02*X121650Y476000D01*
X120900Y478250D02*Y476750D01*
Y478250D02*X121650Y479000D01*
X123150D01*
X123900Y478250D01*
X120900Y477500D02*X123900D01*
Y478250D02*Y477500D01*
X126450Y476000D02*X128700D01*
X129450Y476750D01*
X128700Y477500D02*X129450Y476750D01*
X126450Y477500D02*X128700D01*
X125700Y478250D02*X126450Y477500D01*
X125700Y478250D02*X126450Y479000D01*
X128700D01*
X129450Y478250D01*
X125700Y476750D02*X126450Y476000D01*
X133950Y479000D02*Y476750D01*
X134700Y476000D01*
X136200D01*
X136950Y476750D01*
Y479000D02*Y476750D01*
X139500Y476000D02*X141750D01*
X142500Y476750D01*
X141750Y477500D02*X142500Y476750D01*
X139500Y477500D02*X141750D01*
X138750Y478250D02*X139500Y477500D01*
X138750Y478250D02*X139500Y479000D01*
X141750D01*
X142500Y478250D01*
X138750Y476750D02*X139500Y476000D01*
X145050D02*X147300D01*
X144300Y476750D02*X145050Y476000D01*
X144300Y478250D02*Y476750D01*
Y478250D02*X145050Y479000D01*
X146550D01*
X147300Y478250D01*
X144300Y477500D02*X147300D01*
Y478250D02*Y477500D01*
X152100Y482000D02*Y476000D01*
X151350D02*X152100Y476750D01*
X149850Y476000D02*X151350D01*
X149100Y476750D02*X149850Y476000D01*
X149100Y478250D02*Y476750D01*
Y478250D02*X149850Y479000D01*
X151350D01*
X152100Y478250D01*
X156600Y480500D02*Y479750D01*
Y478250D02*Y476000D01*
X158850Y478250D02*Y476000D01*
Y478250D02*X159600Y479000D01*
X160350D01*
X161100Y478250D01*
Y476000D01*
X158100Y479000D02*X158850Y478250D01*
X166350Y482000D02*Y476750D01*
X167100Y476000D01*
X165600Y479750D02*X167100D01*
X168600Y482000D02*Y476000D01*
Y478250D02*X169350Y479000D01*
X170850D01*
X171600Y478250D01*
Y476000D01*
X173400Y480500D02*Y479750D01*
Y478250D02*Y476000D01*
X175650D02*X177900D01*
X178650Y476750D01*
X177900Y477500D02*X178650Y476750D01*
X175650Y477500D02*X177900D01*
X174900Y478250D02*X175650Y477500D01*
X174900Y478250D02*X175650Y479000D01*
X177900D01*
X178650Y478250D01*
X174900Y476750D02*X175650Y476000D01*
X183150Y482000D02*Y476750D01*
X183900Y476000D01*
X187650Y479000D02*X188400Y478250D01*
X186150Y479000D02*X187650D01*
X185400Y478250D02*X186150Y479000D01*
X185400Y478250D02*Y476750D01*
X186150Y476000D01*
X188400Y479000D02*Y476750D01*
X189150Y476000D01*
X186150D02*X187650D01*
X188400Y476750D01*
X190950Y479000D02*Y476750D01*
X191700Y476000D01*
X193950Y479000D02*Y474500D01*
X193200Y473750D02*X193950Y474500D01*
X191700Y473750D02*X193200D01*
X190950Y474500D02*X191700Y473750D01*
Y476000D02*X193200D01*
X193950Y476750D01*
X195750Y478250D02*Y476750D01*
Y478250D02*X196500Y479000D01*
X198000D01*
X198750Y478250D01*
Y476750D01*
X198000Y476000D02*X198750Y476750D01*
X196500Y476000D02*X198000D01*
X195750Y476750D02*X196500Y476000D01*
X200550Y479000D02*Y476750D01*
X201300Y476000D01*
X202800D01*
X203550Y476750D01*
Y479000D02*Y476750D01*
X206100Y482000D02*Y476750D01*
X206850Y476000D01*
X205350Y479750D02*X206850D01*
X208350Y474500D02*X209850Y476000D01*
X214350Y481250D02*X215100Y482000D01*
X216600D01*
X217350Y481250D01*
Y476750D01*
X216600Y476000D02*X217350Y476750D01*
X215100Y476000D02*X216600D01*
X214350Y476750D02*X215100Y476000D01*
Y479000D02*X217350D01*
X219150Y476750D02*X219900Y476000D01*
X219150Y481250D02*Y476750D01*
Y481250D02*X219900Y482000D01*
X221400D01*
X222150Y481250D01*
Y476750D01*
X221400Y476000D02*X222150Y476750D01*
X219900Y476000D02*X221400D01*
X219150Y477500D02*X222150Y480500D01*
X224700Y476000D02*X226200D01*
X225450Y482000D02*Y476000D01*
X223950Y480500D02*X225450Y482000D01*
X230700D02*Y476000D01*
Y478250D02*X231450Y479000D01*
X232950D01*
X233700Y478250D01*
Y476000D01*
X235500Y478250D02*Y476750D01*
Y478250D02*X236250Y479000D01*
X237750D01*
X238500Y478250D01*
Y476750D01*
X237750Y476000D02*X238500Y476750D01*
X236250Y476000D02*X237750D01*
X235500Y476750D02*X236250Y476000D01*
X240300Y482000D02*Y476750D01*
X241050Y476000D01*
X243300D02*X245550D01*
X242550Y476750D02*X243300Y476000D01*
X242550Y478250D02*Y476750D01*
Y478250D02*X243300Y479000D01*
X244800D01*
X245550Y478250D01*
X242550Y477500D02*X245550D01*
Y478250D02*Y477500D01*
X248100Y476000D02*X250350D01*
X251100Y476750D01*
X250350Y477500D02*X251100Y476750D01*
X248100Y477500D02*X250350D01*
X247350Y478250D02*X248100Y477500D01*
X247350Y478250D02*X248100Y479000D01*
X250350D01*
X251100Y478250D01*
X247350Y476750D02*X248100Y476000D01*
X256350Y482000D02*Y476750D01*
X257100Y476000D01*
X255600Y479750D02*X257100D01*
X258600Y478250D02*Y476750D01*
Y478250D02*X259350Y479000D01*
X260850D01*
X261600Y478250D01*
Y476750D01*
X260850Y476000D02*X261600Y476750D01*
X259350Y476000D02*X260850D01*
X258600Y476750D02*X259350Y476000D01*
X264150Y482000D02*Y476750D01*
X264900Y476000D01*
X263400Y479750D02*X264900D01*
X268650Y479000D02*X269400Y478250D01*
X267150Y479000D02*X268650D01*
X266400Y478250D02*X267150Y479000D01*
X266400Y478250D02*Y476750D01*
X267150Y476000D01*
X269400Y479000D02*Y476750D01*
X270150Y476000D01*
X267150D02*X268650D01*
X269400Y476750D01*
X271950Y482000D02*Y476750D01*
X272700Y476000D01*
G54D102*X891000Y331500D02*Y7000D01*
X2500D01*
Y331500D01*
X891000D02*X2500D01*
G54D101*X360425Y-9500D02*X363425D01*
X364175Y-8750D01*
Y-7250D02*Y-8750D01*
X363425Y-6500D02*X364175Y-7250D01*
X361175Y-6500D02*X363425D01*
X361175Y-3500D02*Y-9500D01*
X360425Y-3500D02*X363425D01*
X364175Y-4250D01*
Y-5750D01*
X363425Y-6500D02*X364175Y-5750D01*
X365975Y-7250D02*Y-8750D01*
Y-7250D02*X366725Y-6500D01*
X368225D01*
X368975Y-7250D01*
Y-8750D01*
X368225Y-9500D02*X368975Y-8750D01*
X366725Y-9500D02*X368225D01*
X365975Y-8750D02*X366725Y-9500D01*
X373025Y-6500D02*X373775Y-7250D01*
X371525Y-6500D02*X373025D01*
X370775Y-7250D02*X371525Y-6500D01*
X370775Y-7250D02*Y-8750D01*
X371525Y-9500D01*
X373775Y-6500D02*Y-8750D01*
X374525Y-9500D01*
X371525D02*X373025D01*
X373775Y-8750D01*
X377075Y-7250D02*Y-9500D01*
Y-7250D02*X377825Y-6500D01*
X379325D01*
X376325D02*X377075Y-7250D01*
X384125Y-3500D02*Y-9500D01*
X383375D02*X384125Y-8750D01*
X381875Y-9500D02*X383375D01*
X381125Y-8750D02*X381875Y-9500D01*
X381125Y-7250D02*Y-8750D01*
Y-7250D02*X381875Y-6500D01*
X383375D01*
X384125Y-7250D01*
X388625D02*Y-8750D01*
Y-7250D02*X389375Y-6500D01*
X390875D01*
X391625Y-7250D01*
Y-8750D01*
X390875Y-9500D02*X391625Y-8750D01*
X389375Y-9500D02*X390875D01*
X388625Y-8750D02*X389375Y-9500D01*
X393425Y-6500D02*Y-8750D01*
X394175Y-9500D01*
X395675D01*
X396425Y-8750D01*
Y-6500D02*Y-8750D01*
X398975Y-3500D02*Y-8750D01*
X399725Y-9500D01*
X398225Y-5750D02*X399725D01*
X401225Y-3500D02*Y-8750D01*
X401975Y-9500D01*
X403475Y-5000D02*Y-5750D01*
Y-7250D02*Y-9500D01*
X405725Y-7250D02*Y-9500D01*
Y-7250D02*X406475Y-6500D01*
X407225D01*
X407975Y-7250D01*
Y-9500D01*
X404975Y-6500D02*X405725Y-7250D01*
X410525Y-9500D02*X412775D01*
X409775Y-8750D02*X410525Y-9500D01*
X409775Y-7250D02*Y-8750D01*
Y-7250D02*X410525Y-6500D01*
X412025D01*
X412775Y-7250D01*
X409775Y-8000D02*X412775D01*
Y-7250D02*Y-8000D01*
X417275Y-5000D02*Y-5750D01*
Y-7250D02*Y-9500D01*
X419525D02*X421775D01*
X422525Y-8750D01*
X421775Y-8000D02*X422525Y-8750D01*
X419525Y-8000D02*X421775D01*
X418775Y-7250D02*X419525Y-8000D01*
X418775Y-7250D02*X419525Y-6500D01*
X421775D01*
X422525Y-7250D01*
X418775Y-8750D02*X419525Y-9500D01*
X427775Y-3500D02*Y-8750D01*
X428525Y-9500D01*
X427025Y-5750D02*X428525D01*
X430025Y-3500D02*Y-9500D01*
Y-7250D02*X430775Y-6500D01*
X432275D01*
X433025Y-7250D01*
Y-9500D01*
X435575D02*X437825D01*
X434825Y-8750D02*X435575Y-9500D01*
X434825Y-7250D02*Y-8750D01*
Y-7250D02*X435575Y-6500D01*
X437075D01*
X437825Y-7250D01*
X434825Y-8000D02*X437825D01*
Y-7250D02*Y-8000D01*
X443075Y-6500D02*X445325D01*
X442325Y-7250D02*X443075Y-6500D01*
X442325Y-7250D02*Y-8750D01*
X443075Y-9500D01*
X445325D01*
X447875D02*X450125D01*
X447125Y-8750D02*X447875Y-9500D01*
X447125Y-7250D02*Y-8750D01*
Y-7250D02*X447875Y-6500D01*
X449375D01*
X450125Y-7250D01*
X447125Y-8000D02*X450125D01*
Y-7250D02*Y-8000D01*
X452675Y-7250D02*Y-9500D01*
Y-7250D02*X453425Y-6500D01*
X454175D01*
X454925Y-7250D01*
Y-9500D01*
X451925Y-6500D02*X452675Y-7250D01*
X457475Y-3500D02*Y-8750D01*
X458225Y-9500D01*
X456725Y-5750D02*X458225D01*
X460475Y-9500D02*X462725D01*
X459725Y-8750D02*X460475Y-9500D01*
X459725Y-7250D02*Y-8750D01*
Y-7250D02*X460475Y-6500D01*
X461975D01*
X462725Y-7250D01*
X459725Y-8000D02*X462725D01*
Y-7250D02*Y-8000D01*
X465275Y-7250D02*Y-9500D01*
Y-7250D02*X466025Y-6500D01*
X467525D01*
X464525D02*X465275Y-7250D01*
X469325Y-3500D02*Y-8750D01*
X470075Y-9500D01*
X471575Y-5000D02*Y-5750D01*
Y-7250D02*Y-9500D01*
X473825Y-7250D02*Y-9500D01*
Y-7250D02*X474575Y-6500D01*
X475325D01*
X476075Y-7250D01*
Y-9500D01*
X473075Y-6500D02*X473825Y-7250D01*
X478625Y-9500D02*X480875D01*
X477875Y-8750D02*X478625Y-9500D01*
X477875Y-7250D02*Y-8750D01*
Y-7250D02*X478625Y-6500D01*
X480125D01*
X480875Y-7250D01*
X477875Y-8000D02*X480875D01*
Y-7250D02*Y-8000D01*
X485375Y-7250D02*Y-8750D01*
Y-7250D02*X486125Y-6500D01*
X487625D01*
X488375Y-7250D01*
Y-8750D01*
X487625Y-9500D02*X488375Y-8750D01*
X486125Y-9500D02*X487625D01*
X485375Y-8750D02*X486125Y-9500D01*
X490925Y-4250D02*Y-9500D01*
Y-4250D02*X491675Y-3500D01*
X492425D01*
X490175Y-6500D02*X491675D01*
X497375Y-3500D02*Y-8750D01*
X498125Y-9500D01*
X496625Y-5750D02*X498125D01*
X499625Y-3500D02*Y-9500D01*
Y-7250D02*X500375Y-6500D01*
X501875D01*
X502625Y-7250D01*
Y-9500D01*
X504425Y-5000D02*Y-5750D01*
Y-7250D02*Y-9500D01*
X506675D02*X508925D01*
X509675Y-8750D01*
X508925Y-8000D02*X509675Y-8750D01*
X506675Y-8000D02*X508925D01*
X505925Y-7250D02*X506675Y-8000D01*
X505925Y-7250D02*X506675Y-6500D01*
X508925D01*
X509675Y-7250D01*
X505925Y-8750D02*X506675Y-9500D01*
X514925Y-7250D02*Y-11750D01*
X514175Y-6500D02*X514925Y-7250D01*
X515675Y-6500D01*
X517175D01*
X517925Y-7250D01*
Y-8750D01*
X517175Y-9500D02*X517925Y-8750D01*
X515675Y-9500D02*X517175D01*
X514925Y-8750D02*X515675Y-9500D01*
X521975Y-6500D02*X522725Y-7250D01*
X520475Y-6500D02*X521975D01*
X519725Y-7250D02*X520475Y-6500D01*
X519725Y-7250D02*Y-8750D01*
X520475Y-9500D01*
X522725Y-6500D02*Y-8750D01*
X523475Y-9500D01*
X520475D02*X521975D01*
X522725Y-8750D01*
X526025Y-3500D02*Y-8750D01*
X526775Y-9500D01*
X525275Y-5750D02*X526775D01*
X528275Y-3500D02*Y-9500D01*
Y-7250D02*X529025Y-6500D01*
X530525D01*
X531275Y-7250D01*
Y-9500D01*
X200750Y362000D02*Y356000D01*
X203000Y362000D02*X203750Y361250D01*
Y356750D01*
X203000Y356000D02*X203750Y356750D01*
X200000Y356000D02*X203000D01*
X200000Y362000D02*X203000D01*
X207800Y359000D02*X208550Y358250D01*
X206300Y359000D02*X207800D01*
X205550Y358250D02*X206300Y359000D01*
X205550Y358250D02*Y356750D01*
X206300Y356000D01*
X208550Y359000D02*Y356750D01*
X209300Y356000D01*
X206300D02*X207800D01*
X208550Y356750D01*
X211850Y362000D02*Y356750D01*
X212600Y356000D01*
X211100Y359750D02*X212600D01*
X214850Y356000D02*X217100D01*
X214100Y356750D02*X214850Y356000D01*
X214100Y358250D02*Y356750D01*
Y358250D02*X214850Y359000D01*
X216350D01*
X217100Y358250D01*
X214100Y357500D02*X217100D01*
Y358250D02*Y357500D01*
X218900Y359750D02*X219650D01*
X218900Y358250D02*X219650D01*
X224150Y362000D02*Y356000D01*
Y362000D02*X227150D01*
X224150Y359000D02*X226400D01*
X229700Y358250D02*Y356000D01*
Y358250D02*X230450Y359000D01*
X231950D01*
X228950D02*X229700Y358250D01*
X233750Y360500D02*Y359750D01*
Y358250D02*Y356000D01*
X237950Y362000D02*Y356000D01*
Y362000D02*X240200Y359750D01*
X242450Y362000D01*
Y356000D01*
X246500Y359000D02*X247250Y358250D01*
X245000Y359000D02*X246500D01*
X244250Y358250D02*X245000Y359000D01*
X244250Y358250D02*Y356750D01*
X245000Y356000D01*
X247250Y359000D02*Y356750D01*
X248000Y356000D01*
X245000D02*X246500D01*
X247250Y356750D01*
X250550Y358250D02*Y356000D01*
Y358250D02*X251300Y359000D01*
X252800D01*
X249800D02*X250550Y358250D01*
X260750Y356000D02*X262250D01*
X261500Y362000D02*Y356000D01*
X260000Y360500D02*X261500Y362000D01*
X267500Y356000D02*X269000D01*
X268250Y362000D02*Y356000D01*
X266750Y360500D02*X268250Y362000D01*
X273050D02*X273800Y361250D01*
X271550Y362000D02*X273050D01*
X270800Y361250D02*X271550Y362000D01*
X270800Y361250D02*Y356750D01*
X271550Y356000D01*
X273050Y359000D02*X273800Y358250D01*
X270800Y359000D02*X273050D01*
X271550Y356000D02*X273050D01*
X273800Y356750D01*
Y358250D02*Y356750D01*
X275600Y359750D02*X276350D01*
X275600Y358250D02*X276350D01*
X278150Y361250D02*X278900Y362000D01*
X280400D01*
X281150Y361250D01*
Y356750D01*
X280400Y356000D02*X281150Y356750D01*
X278900Y356000D02*X280400D01*
X278150Y356750D02*X278900Y356000D01*
Y359000D02*X281150D01*
X282950Y356000D02*X285950Y359000D01*
Y361250D02*Y359000D01*
X285200Y362000D02*X285950Y361250D01*
X283700Y362000D02*X285200D01*
X282950Y361250D02*X283700Y362000D01*
X282950Y361250D02*Y359750D01*
X283700Y359000D01*
X285950D01*
X287750Y359750D02*X288500D01*
X287750Y358250D02*X288500D01*
X290300Y362000D02*X293300D01*
X290300D02*Y359000D01*
X291050Y359750D01*
X292550D01*
X293300Y359000D01*
Y356750D01*
X292550Y356000D02*X293300Y356750D01*
X291050Y356000D02*X292550D01*
X290300Y356750D02*X291050Y356000D01*
X295100D02*X298850Y359750D01*
Y362000D02*Y359750D01*
X295100Y362000D02*X298850D01*
X303350Y361250D02*X304100Y362000D01*
X306350D01*
X307100Y361250D01*
Y359750D01*
X303350Y356000D02*X307100Y359750D01*
X303350Y356000D02*X307100D01*
X308900Y356750D02*X309650Y356000D01*
X308900Y361250D02*Y356750D01*
Y361250D02*X309650Y362000D01*
X311150D01*
X311900Y361250D01*
Y356750D01*
X311150Y356000D02*X311900Y356750D01*
X309650Y356000D02*X311150D01*
X308900Y357500D02*X311900Y360500D01*
X314450Y356000D02*X315950D01*
X315200Y362000D02*Y356000D01*
X313700Y360500D02*X315200Y362000D01*
X317750Y361250D02*X318500Y362000D01*
X320000D01*
X320750Y361250D01*
Y356750D01*
X320000Y356000D02*X320750Y356750D01*
X318500Y356000D02*X320000D01*
X317750Y356750D02*X318500Y356000D01*
Y359000D02*X320750D01*
X325250Y362000D02*Y356750D01*
X326000Y356000D01*
X327500D01*
X328250Y356750D01*
Y362000D02*Y356750D01*
X330050Y362000D02*X333050D01*
X331550D02*Y356000D01*
X335600D02*X337850D01*
X334850Y356750D02*X335600Y356000D01*
X334850Y361250D02*Y356750D01*
Y361250D02*X335600Y362000D01*
X337850D01*
X200000Y376250D02*Y371000D01*
Y376250D02*X200750Y377000D01*
X203000D01*
X203750Y376250D01*
Y371000D01*
X200000Y374000D02*X203750D01*
X205550D02*Y371750D01*
X206300Y371000D01*
X207800D01*
X208550Y371750D01*
Y374000D02*Y371750D01*
X211100Y377000D02*Y371750D01*
X211850Y371000D01*
X210350Y374750D02*X211850D01*
X213350Y377000D02*Y371000D01*
Y373250D02*X214100Y374000D01*
X215600D01*
X216350Y373250D01*
Y371000D01*
X218150Y373250D02*Y371750D01*
Y373250D02*X218900Y374000D01*
X220400D01*
X221150Y373250D01*
Y371750D01*
X220400Y371000D02*X221150Y371750D01*
X218900Y371000D02*X220400D01*
X218150Y371750D02*X218900Y371000D01*
X223700Y373250D02*Y371000D01*
Y373250D02*X224450Y374000D01*
X225950D01*
X222950D02*X223700Y373250D01*
X227750Y374750D02*X228500D01*
X227750Y373250D02*X228500D01*
X200000Y392000D02*X203000D01*
X201500D02*Y386000D01*
X204800Y390500D02*Y389750D01*
Y388250D02*Y386000D01*
X207050Y392000D02*Y386750D01*
X207800Y386000D01*
X206300Y389750D02*X207800D01*
X209300Y392000D02*Y386750D01*
X210050Y386000D01*
X212300D02*X214550D01*
X211550Y386750D02*X212300Y386000D01*
X211550Y388250D02*Y386750D01*
Y388250D02*X212300Y389000D01*
X213800D01*
X214550Y388250D01*
X211550Y387500D02*X214550D01*
Y388250D02*Y387500D01*
X216350Y389750D02*X217100D01*
X216350Y388250D02*X217100D01*
X221600Y386750D02*X222350Y386000D01*
X221600Y391250D02*X222350Y392000D01*
X221600Y391250D02*Y386750D01*
X224150Y389000D02*Y386750D01*
X224900Y386000D01*
X226400D01*
X227150Y386750D01*
Y389000D02*Y386750D01*
X229700Y388250D02*Y386000D01*
Y388250D02*X230450Y389000D01*
X231200D01*
X231950Y388250D01*
Y386000D01*
X228950Y389000D02*X229700Y388250D01*
X233750Y392000D02*Y386000D01*
Y388250D02*X236000Y386000D01*
X233750Y388250D02*X235250Y389750D01*
X238550Y388250D02*Y386000D01*
Y388250D02*X239300Y389000D01*
X240050D01*
X240800Y388250D01*
Y386000D01*
X237800Y389000D02*X238550Y388250D01*
X242600D02*Y386750D01*
Y388250D02*X243350Y389000D01*
X244850D01*
X245600Y388250D01*
Y386750D01*
X244850Y386000D02*X245600Y386750D01*
X243350Y386000D02*X244850D01*
X242600Y386750D02*X243350Y386000D01*
X247400Y389000D02*Y386750D01*
X248150Y386000D01*
X248900D01*
X249650Y386750D01*
Y389000D02*Y386750D01*
X250400Y386000D01*
X251150D01*
X251900Y386750D01*
Y389000D02*Y386750D01*
X254450Y388250D02*Y386000D01*
Y388250D02*X255200Y389000D01*
X255950D01*
X256700Y388250D01*
Y386000D01*
X253700Y389000D02*X254450Y388250D01*
X258500Y392000D02*X259250Y391250D01*
Y386750D01*
X258500Y386000D02*X259250Y386750D01*
X263750Y389000D02*X266750D01*
X271250Y392000D02*Y386000D01*
Y392000D02*X274250D01*
X271250Y389000D02*X273500D01*
X278300D02*X279050Y388250D01*
X276800Y389000D02*X278300D01*
X276050Y388250D02*X276800Y389000D01*
X276050Y388250D02*Y386750D01*
X276800Y386000D01*
X279050Y389000D02*Y386750D01*
X279800Y386000D01*
X276800D02*X278300D01*
X279050Y386750D01*
X281600Y392000D02*Y386000D01*
Y386750D02*X282350Y386000D01*
X283850D01*
X284600Y386750D01*
Y388250D02*Y386750D01*
X283850Y389000D02*X284600Y388250D01*
X282350Y389000D02*X283850D01*
X281600Y388250D02*X282350Y389000D01*
X287150Y388250D02*Y386000D01*
Y388250D02*X287900Y389000D01*
X289400D01*
X286400D02*X287150Y388250D01*
X291200Y390500D02*Y389750D01*
Y388250D02*Y386000D01*
X293450Y389000D02*X295700D01*
X292700Y388250D02*X293450Y389000D01*
X292700Y388250D02*Y386750D01*
X293450Y386000D01*
X295700D01*
X299750Y389000D02*X300500Y388250D01*
X298250Y389000D02*X299750D01*
X297500Y388250D02*X298250Y389000D01*
X297500Y388250D02*Y386750D01*
X298250Y386000D01*
X300500Y389000D02*Y386750D01*
X301250Y386000D01*
X298250D02*X299750D01*
X300500Y386750D01*
X303800Y392000D02*Y386750D01*
X304550Y386000D01*
X303050Y389750D02*X304550D01*
X306050Y390500D02*Y389750D01*
Y388250D02*Y386000D01*
X307550Y388250D02*Y386750D01*
Y388250D02*X308300Y389000D01*
X309800D01*
X310550Y388250D01*
Y386750D01*
X309800Y386000D02*X310550Y386750D01*
X308300Y386000D02*X309800D01*
X307550Y386750D02*X308300Y386000D01*
X313100Y388250D02*Y386000D01*
Y388250D02*X313850Y389000D01*
X314600D01*
X315350Y388250D01*
Y386000D01*
X312350Y389000D02*X313100Y388250D01*
X320600Y392000D02*Y386000D01*
X322850Y392000D02*X323600Y391250D01*
Y386750D01*
X322850Y386000D02*X323600Y386750D01*
X319850Y386000D02*X322850D01*
X319850Y392000D02*X322850D01*
X326150Y388250D02*Y386000D01*
Y388250D02*X326900Y389000D01*
X328400D01*
X325400D02*X326150Y388250D01*
X332450Y389000D02*X333200Y388250D01*
X330950Y389000D02*X332450D01*
X330200Y388250D02*X330950Y389000D01*
X330200Y388250D02*Y386750D01*
X330950Y386000D01*
X333200Y389000D02*Y386750D01*
X333950Y386000D01*
X330950D02*X332450D01*
X333200Y386750D01*
X335750Y389000D02*Y386750D01*
X336500Y386000D01*
X337250D01*
X338000Y386750D01*
Y389000D02*Y386750D01*
X338750Y386000D01*
X339500D01*
X340250Y386750D01*
Y389000D02*Y386750D01*
X342050Y390500D02*Y389750D01*
Y388250D02*Y386000D01*
X344300Y388250D02*Y386000D01*
Y388250D02*X345050Y389000D01*
X345800D01*
X346550Y388250D01*
Y386000D01*
X343550Y389000D02*X344300Y388250D01*
X350600Y389000D02*X351350Y388250D01*
X349100Y389000D02*X350600D01*
X348350Y388250D02*X349100Y389000D01*
X348350Y388250D02*Y386750D01*
X349100Y386000D01*
X350600D01*
X351350Y386750D01*
X348350Y384500D02*X349100Y383750D01*
X350600D01*
X351350Y384500D01*
Y389000D02*Y384500D01*
M02*
