G04 start of page 10 for group -3984 idx -3984 *
G04 Title: (unknown), fab *
G04 Creator: pcb 20110918 *
G04 CreationDate: Fri Aug 31 17:50:40 2012 UTC *
G04 For: fosse *
G04 Format: Gerber/RS-274X *
G04 PCB-Dimensions: 893500 363500 *
G04 PCB-Coordinate-Origin: lower left *
%MOIN*%
%FSLAX25Y25*%
%LNFAB*%
%ADD113C,0.0100*%
%ADD112C,0.0060*%
%ADD111R,0.0080X0.0080*%
G54D111*X835500Y337300D02*Y327700D01*
X830700Y332500D02*X840300D01*
X833900Y334100D02*X837100D01*
X833900D02*Y330900D01*
X837100D01*
Y334100D02*Y330900D01*
X832300Y335700D02*X838700D01*
X832300D02*Y329300D01*
X838700D01*
Y335700D02*Y329300D01*
X875500Y337300D02*Y327700D01*
X870700Y332500D02*X880300D01*
X873900Y334100D02*X877100D01*
X873900D02*Y330900D01*
X877100D01*
Y334100D02*Y330900D01*
X872300Y335700D02*X878700D01*
X872300D02*Y329300D01*
X878700D01*
Y335700D02*Y329300D01*
X31000Y337300D02*Y327700D01*
X26200Y332500D02*X35800D01*
X29400Y334100D02*X32600D01*
X29400D02*Y330900D01*
X32600D01*
Y334100D02*Y330900D01*
X27800Y335700D02*X34200D01*
X27800D02*Y329300D01*
X34200D01*
Y335700D02*Y329300D01*
X71000Y337300D02*Y327700D01*
X66200Y332500D02*X75800D01*
X69400Y334100D02*X72600D01*
X69400D02*Y330900D01*
X72600D01*
Y334100D02*Y330900D01*
X67800Y335700D02*X74200D01*
X67800D02*Y329300D01*
X74200D01*
Y335700D02*Y329300D01*
X15000Y379550D02*Y369950D01*
X10200Y374750D02*X19800D01*
X13400Y376350D02*X16600D01*
X13400D02*Y373150D01*
X16600D01*
Y376350D02*Y373150D01*
X11800Y377950D02*X18200D01*
X11800D02*Y371550D01*
X18200D01*
Y377950D02*Y371550D01*
G54D112*X135000Y377000D02*Y376250D01*
X136500Y374750D01*
X138000Y376250D01*
Y377000D02*Y376250D01*
X136500Y374750D02*Y371000D01*
X139800Y374000D02*X142050D01*
X139800Y371000D02*X142800D01*
X139800Y377000D02*Y371000D01*
Y377000D02*X142800D01*
X147600D02*X148350Y376250D01*
X145350Y377000D02*X147600D01*
X144600Y376250D02*X145350Y377000D01*
X144600Y376250D02*Y374750D01*
X145350Y374000D01*
X147600D01*
X148350Y373250D01*
Y371750D01*
X147600Y371000D02*X148350Y371750D01*
X145350Y371000D02*X147600D01*
X144600Y371750D02*X145350Y371000D01*
X98000Y374000D02*X101000Y377000D01*
X98000Y374000D02*X101750D01*
X101000Y377000D02*Y371000D01*
X45000Y371750D02*X45750Y371000D01*
X45000Y376250D02*Y371750D01*
Y376250D02*X45750Y377000D01*
X47250D01*
X48000Y376250D01*
Y371750D01*
X47250Y371000D02*X48000Y371750D01*
X45750Y371000D02*X47250D01*
X45000Y372500D02*X48000Y375500D01*
X49800Y371000D02*X50550D01*
X52350Y371750D02*X53100Y371000D01*
X52350Y376250D02*Y371750D01*
Y376250D02*X53100Y377000D01*
X54600D01*
X55350Y376250D01*
Y371750D01*
X54600Y371000D02*X55350Y371750D01*
X53100Y371000D02*X54600D01*
X52350Y372500D02*X55350Y375500D01*
X57150Y371000D02*X60900Y374750D01*
Y377000D02*Y374750D01*
X57150Y377000D02*X60900D01*
X62700Y371000D02*X65700Y374000D01*
Y376250D02*Y374000D01*
X64950Y377000D02*X65700Y376250D01*
X63450Y377000D02*X64950D01*
X62700Y376250D02*X63450Y377000D01*
X62700Y376250D02*Y374750D01*
X63450Y374000D01*
X65700D01*
X705500Y353500D02*Y348700D01*
Y353500D02*X709660Y355900D01*
X705500Y353500D02*X701340Y355900D01*
X703900Y353500D02*G75*G03X707100Y353500I1600J0D01*G01*
G75*G03X703900Y353500I-1600J0D01*G01*
X702300D02*G75*G03X708700Y353500I3200J0D01*G01*
G75*G03X702300Y353500I-3200J0D01*G01*
X725500D02*Y348700D01*
Y353500D02*X729660Y355900D01*
X725500Y353500D02*X721340Y355900D01*
X723900Y353500D02*G75*G03X727100Y353500I1600J0D01*G01*
G75*G03X723900Y353500I-1600J0D01*G01*
X722300D02*G75*G03X728700Y353500I3200J0D01*G01*
G75*G03X722300Y353500I-3200J0D01*G01*
X715500Y303500D02*Y298700D01*
Y303500D02*X719660Y305900D01*
X715500Y303500D02*X711340Y305900D01*
X713900Y303500D02*G75*G03X717100Y303500I1600J0D01*G01*
G75*G03X713900Y303500I-1600J0D01*G01*
X712300D02*G75*G03X718700Y303500I3200J0D01*G01*
G75*G03X712300Y303500I-3200J0D01*G01*
X697000D02*Y298700D01*
Y303500D02*X701160Y305900D01*
X697000Y303500D02*X692840Y305900D01*
X695400Y303500D02*G75*G03X698600Y303500I1600J0D01*G01*
G75*G03X695400Y303500I-1600J0D01*G01*
X693800D02*G75*G03X700200Y303500I3200J0D01*G01*
G75*G03X693800Y303500I-3200J0D01*G01*
X734000D02*Y298700D01*
Y303500D02*X738160Y305900D01*
X734000Y303500D02*X729840Y305900D01*
X732400Y303500D02*G75*G03X735600Y303500I1600J0D01*G01*
G75*G03X732400Y303500I-1600J0D01*G01*
X730800D02*G75*G03X737200Y303500I3200J0D01*G01*
G75*G03X730800Y303500I-3200J0D01*G01*
X697000Y288500D02*Y283700D01*
Y288500D02*X701160Y290900D01*
X697000Y288500D02*X692840Y290900D01*
X695400Y288500D02*G75*G03X698600Y288500I1600J0D01*G01*
G75*G03X695400Y288500I-1600J0D01*G01*
X693800D02*G75*G03X700200Y288500I3200J0D01*G01*
G75*G03X693800Y288500I-3200J0D01*G01*
X715500D02*Y283700D01*
Y288500D02*X719660Y290900D01*
X715500Y288500D02*X711340Y290900D01*
X713900Y288500D02*G75*G03X717100Y288500I1600J0D01*G01*
G75*G03X713900Y288500I-1600J0D01*G01*
X712300D02*G75*G03X718700Y288500I3200J0D01*G01*
G75*G03X712300Y288500I-3200J0D01*G01*
X734000D02*Y283700D01*
Y288500D02*X738160Y290900D01*
X734000Y288500D02*X729840Y290900D01*
X732400Y288500D02*G75*G03X735600Y288500I1600J0D01*G01*
G75*G03X732400Y288500I-1600J0D01*G01*
X730800D02*G75*G03X737200Y288500I3200J0D01*G01*
G75*G03X730800Y288500I-3200J0D01*G01*
X295000Y353000D02*Y348200D01*
Y353000D02*X299160Y355400D01*
X295000Y353000D02*X290840Y355400D01*
X293400Y353000D02*G75*G03X296600Y353000I1600J0D01*G01*
G75*G03X293400Y353000I-1600J0D01*G01*
X291800D02*G75*G03X298200Y353000I3200J0D01*G01*
G75*G03X291800Y353000I-3200J0D01*G01*
X315000D02*Y348200D01*
Y353000D02*X319160Y355400D01*
X315000Y353000D02*X310840Y355400D01*
X313400Y353000D02*G75*G03X316600Y353000I1600J0D01*G01*
G75*G03X313400Y353000I-1600J0D01*G01*
X311800D02*G75*G03X318200Y353000I3200J0D01*G01*
G75*G03X311800Y353000I-3200J0D01*G01*
X305000Y303000D02*Y298200D01*
Y303000D02*X309160Y305400D01*
X305000Y303000D02*X300840Y305400D01*
X303400Y303000D02*G75*G03X306600Y303000I1600J0D01*G01*
G75*G03X303400Y303000I-1600J0D01*G01*
X301800D02*G75*G03X308200Y303000I3200J0D01*G01*
G75*G03X301800Y303000I-3200J0D01*G01*
X286500D02*Y298200D01*
Y303000D02*X290660Y305400D01*
X286500Y303000D02*X282340Y305400D01*
X284900Y303000D02*G75*G03X288100Y303000I1600J0D01*G01*
G75*G03X284900Y303000I-1600J0D01*G01*
X283300D02*G75*G03X289700Y303000I3200J0D01*G01*
G75*G03X283300Y303000I-3200J0D01*G01*
X323500D02*Y298200D01*
Y303000D02*X327660Y305400D01*
X323500Y303000D02*X319340Y305400D01*
X321900Y303000D02*G75*G03X325100Y303000I1600J0D01*G01*
G75*G03X321900Y303000I-1600J0D01*G01*
X320300D02*G75*G03X326700Y303000I3200J0D01*G01*
G75*G03X320300Y303000I-3200J0D01*G01*
X286500Y288000D02*Y283200D01*
Y288000D02*X290660Y290400D01*
X286500Y288000D02*X282340Y290400D01*
X284900Y288000D02*G75*G03X288100Y288000I1600J0D01*G01*
G75*G03X284900Y288000I-1600J0D01*G01*
X283300D02*G75*G03X289700Y288000I3200J0D01*G01*
G75*G03X283300Y288000I-3200J0D01*G01*
X305000D02*Y283200D01*
Y288000D02*X309160Y290400D01*
X305000Y288000D02*X300840Y290400D01*
X303400Y288000D02*G75*G03X306600Y288000I1600J0D01*G01*
G75*G03X303400Y288000I-1600J0D01*G01*
X301800D02*G75*G03X308200Y288000I3200J0D01*G01*
G75*G03X301800Y288000I-3200J0D01*G01*
X323500D02*Y283200D01*
Y288000D02*X327660Y290400D01*
X323500Y288000D02*X319340Y290400D01*
X321900Y288000D02*G75*G03X325100Y288000I1600J0D01*G01*
G75*G03X321900Y288000I-1600J0D01*G01*
X320300D02*G75*G03X326700Y288000I3200J0D01*G01*
G75*G03X320300Y288000I-3200J0D01*G01*
X15000Y389750D02*Y384950D01*
Y389750D02*X19160Y392150D01*
X15000Y389750D02*X10840Y392150D01*
X13400Y389750D02*G75*G03X16600Y389750I1600J0D01*G01*
G75*G03X13400Y389750I-1600J0D01*G01*
X11800D02*G75*G03X18200Y389750I3200J0D01*G01*
G75*G03X11800Y389750I-3200J0D01*G01*
X135000Y392000D02*Y391250D01*
X136500Y389750D01*
X138000Y391250D01*
Y392000D02*Y391250D01*
X136500Y389750D02*Y386000D01*
X139800Y389000D02*X142050D01*
X139800Y386000D02*X142800D01*
X139800Y392000D02*Y386000D01*
Y392000D02*X142800D01*
X147600D02*X148350Y391250D01*
X145350Y392000D02*X147600D01*
X144600Y391250D02*X145350Y392000D01*
X144600Y391250D02*Y389750D01*
X145350Y389000D01*
X147600D01*
X148350Y388250D01*
Y386750D01*
X147600Y386000D02*X148350Y386750D01*
X145350Y386000D02*X147600D01*
X144600Y386750D02*X145350Y386000D01*
X98750D02*X100250D01*
X99500Y392000D02*Y386000D01*
X98000Y390500D02*X99500Y392000D01*
X104300D02*X105050Y391250D01*
X102800Y392000D02*X104300D01*
X102050Y391250D02*X102800Y392000D01*
X102050Y391250D02*Y386750D01*
X102800Y386000D01*
X104300Y389000D02*X105050Y388250D01*
X102050Y389000D02*X104300D01*
X102800Y386000D02*X104300D01*
X105050Y386750D01*
Y388250D02*Y386750D01*
X45000D02*X45750Y386000D01*
X45000Y391250D02*Y386750D01*
Y391250D02*X45750Y392000D01*
X47250D01*
X48000Y391250D01*
Y386750D01*
X47250Y386000D02*X48000Y386750D01*
X45750Y386000D02*X47250D01*
X45000Y387500D02*X48000Y390500D01*
X49800Y386000D02*X50550D01*
X52350Y386750D02*X53100Y386000D01*
X52350Y391250D02*Y386750D01*
Y391250D02*X53100Y392000D01*
X54600D01*
X55350Y391250D01*
Y386750D01*
X54600Y386000D02*X55350Y386750D01*
X53100Y386000D02*X54600D01*
X52350Y387500D02*X55350Y390500D01*
X57150Y392000D02*X60150D01*
X57150D02*Y389000D01*
X57900Y389750D01*
X59400D01*
X60150Y389000D01*
Y386750D01*
X59400Y386000D02*X60150Y386750D01*
X57900Y386000D02*X59400D01*
X57150Y386750D02*X57900Y386000D01*
X62700D02*X64200D01*
X63450Y392000D02*Y386000D01*
X61950Y390500D02*X63450Y392000D01*
X520900Y192600D02*X524100D01*
X520900D02*Y189400D01*
X524100D01*
Y192600D02*Y189400D01*
X519300Y194200D02*X525700D01*
X519300D02*Y187800D01*
X525700D01*
Y194200D02*Y187800D01*
X520900Y92600D02*X524100D01*
X520900D02*Y89400D01*
X524100D01*
Y92600D02*Y89400D01*
X519300Y94200D02*X525700D01*
X519300D02*Y87800D01*
X525700D01*
Y94200D02*Y87800D01*
X798900Y182600D02*X802100D01*
X798900D02*Y179400D01*
X802100D01*
Y182600D02*Y179400D01*
X797300Y184200D02*X803700D01*
X797300D02*Y177800D01*
X803700D01*
Y184200D02*Y177800D01*
X858900Y182600D02*X862100D01*
X858900D02*Y179400D01*
X862100D01*
Y182600D02*Y179400D01*
X857300Y184200D02*X863700D01*
X857300D02*Y177800D01*
X863700D01*
Y184200D02*Y177800D01*
X13400Y406350D02*X16600D01*
X13400D02*Y403150D01*
X16600D01*
Y406350D02*Y403150D01*
X11800Y407950D02*X18200D01*
X11800D02*Y401550D01*
X18200D01*
Y407950D02*Y401550D01*
X135000Y407000D02*Y406250D01*
X136500Y404750D01*
X138000Y406250D01*
Y407000D02*Y406250D01*
X136500Y404750D02*Y401000D01*
X139800Y404000D02*X142050D01*
X139800Y401000D02*X142800D01*
X139800Y407000D02*Y401000D01*
Y407000D02*X142800D01*
X147600D02*X148350Y406250D01*
X145350Y407000D02*X147600D01*
X144600Y406250D02*X145350Y407000D01*
X144600Y406250D02*Y404750D01*
X145350Y404000D01*
X147600D01*
X148350Y403250D01*
Y401750D01*
X147600Y401000D02*X148350Y401750D01*
X145350Y401000D02*X147600D01*
X144600Y401750D02*X145350Y401000D01*
X98000Y404000D02*X101000Y407000D01*
X98000Y404000D02*X101750D01*
X101000Y407000D02*Y401000D01*
X45000Y401750D02*X45750Y401000D01*
X45000Y406250D02*Y401750D01*
Y406250D02*X45750Y407000D01*
X47250D01*
X48000Y406250D01*
Y401750D01*
X47250Y401000D02*X48000Y401750D01*
X45750Y401000D02*X47250D01*
X45000Y402500D02*X48000Y405500D01*
X49800Y401000D02*X50550D01*
X52350Y401750D02*X53100Y401000D01*
X52350Y406250D02*Y401750D01*
Y406250D02*X53100Y407000D01*
X54600D01*
X55350Y406250D01*
Y401750D01*
X54600Y401000D02*X55350Y401750D01*
X53100Y401000D02*X54600D01*
X52350Y402500D02*X55350Y405500D01*
X57150Y407000D02*X60150D01*
X57150D02*Y404000D01*
X57900Y404750D01*
X59400D01*
X60150Y404000D01*
Y401750D01*
X59400Y401000D02*X60150Y401750D01*
X57900Y401000D02*X59400D01*
X57150Y401750D02*X57900Y401000D01*
X61950Y401750D02*X62700Y401000D01*
X61950Y406250D02*Y401750D01*
Y406250D02*X62700Y407000D01*
X64200D01*
X64950Y406250D01*
Y401750D01*
X64200Y401000D02*X64950Y401750D01*
X62700Y401000D02*X64200D01*
X61950Y402500D02*X64950Y405500D01*
X115551Y356287D02*G75*G03X117151Y356287I800J0D01*G01*
G75*G03X115551Y356287I-800J0D01*G01*
X113951D02*G75*G03X118751Y356287I2400J0D01*G01*
G75*G03X113951Y356287I-2400J0D01*G01*
X136023Y291720D02*G75*G03X137623Y291720I800J0D01*G01*
G75*G03X136023Y291720I-800J0D01*G01*
X134423D02*G75*G03X139223Y291720I2400J0D01*G01*
G75*G03X134423Y291720I-2400J0D01*G01*
X14200Y419750D02*G75*G03X15800Y419750I800J0D01*G01*
G75*G03X14200Y419750I-800J0D01*G01*
X12600D02*G75*G03X17400Y419750I2400J0D01*G01*
G75*G03X12600Y419750I-2400J0D01*G01*
X135000Y422000D02*Y421250D01*
X136500Y419750D01*
X138000Y421250D01*
Y422000D02*Y421250D01*
X136500Y419750D02*Y416000D01*
X139800Y419000D02*X142050D01*
X139800Y416000D02*X142800D01*
X139800Y422000D02*Y416000D01*
Y422000D02*X142800D01*
X147600D02*X148350Y421250D01*
X145350Y422000D02*X147600D01*
X144600Y421250D02*X145350Y422000D01*
X144600Y421250D02*Y419750D01*
X145350Y419000D01*
X147600D01*
X148350Y418250D01*
Y416750D01*
X147600Y416000D02*X148350Y416750D01*
X145350Y416000D02*X147600D01*
X144600Y416750D02*X145350Y416000D01*
X98000Y421250D02*X98750Y422000D01*
X101000D01*
X101750Y421250D01*
Y419750D01*
X98000Y416000D02*X101750Y419750D01*
X98000Y416000D02*X101750D01*
X45000Y416750D02*X45750Y416000D01*
X45000Y421250D02*Y416750D01*
Y421250D02*X45750Y422000D01*
X47250D01*
X48000Y421250D01*
Y416750D01*
X47250Y416000D02*X48000Y416750D01*
X45750Y416000D02*X47250D01*
X45000Y417500D02*X48000Y420500D01*
X49800Y416000D02*X50550D01*
X52350Y416750D02*X53100Y416000D01*
X52350Y421250D02*Y416750D01*
Y421250D02*X53100Y422000D01*
X54600D01*
X55350Y421250D01*
Y416750D01*
X54600Y416000D02*X55350Y416750D01*
X53100Y416000D02*X54600D01*
X52350Y417500D02*X55350Y420500D01*
X57150Y419000D02*X60150Y422000D01*
X57150Y419000D02*X60900D01*
X60150Y422000D02*Y416000D01*
X62700D02*X66450Y419750D01*
Y422000D02*Y419750D01*
X62700Y422000D02*X66450D01*
X208600Y223400D02*X213400Y218600D01*
X208600D02*X213400Y223400D01*
X209400Y222600D02*X212600D01*
X209400D02*Y219400D01*
X212600D01*
Y222600D02*Y219400D01*
X198600Y223400D02*X203400Y218600D01*
X198600D02*X203400Y223400D01*
X199400Y222600D02*X202600D01*
X199400D02*Y219400D01*
X202600D01*
Y222600D02*Y219400D01*
X188600Y223400D02*X193400Y218600D01*
X188600D02*X193400Y223400D01*
X189400Y222600D02*X192600D01*
X189400D02*Y219400D01*
X192600D01*
Y222600D02*Y219400D01*
X593100Y169400D02*X597900Y164600D01*
X593100D02*X597900Y169400D01*
X593900Y168600D02*X597100D01*
X593900D02*Y165400D01*
X597100D01*
Y168600D02*Y165400D01*
X583100Y169400D02*X587900Y164600D01*
X583100D02*X587900Y169400D01*
X583900Y168600D02*X587100D01*
X583900D02*Y165400D01*
X587100D01*
Y168600D02*Y165400D01*
X573100Y169400D02*X577900Y164600D01*
X573100D02*X577900Y169400D01*
X573900Y168600D02*X577100D01*
X573900D02*Y165400D01*
X577100D01*
Y168600D02*Y165400D01*
X785600Y105900D02*X790400Y101100D01*
X785600D02*X790400Y105900D01*
X786400Y105100D02*X789600D01*
X786400D02*Y101900D01*
X789600D01*
Y105100D02*Y101900D01*
X795600Y105900D02*X800400Y101100D01*
X795600D02*X800400Y105900D01*
X796400Y105100D02*X799600D01*
X796400D02*Y101900D01*
X799600D01*
Y105100D02*Y101900D01*
X805600Y105900D02*X810400Y101100D01*
X805600D02*X810400Y105900D01*
X806400Y105100D02*X809600D01*
X806400D02*Y101900D01*
X809600D01*
Y105100D02*Y101900D01*
X12600Y437150D02*X17400Y432350D01*
X12600D02*X17400Y437150D01*
X13400Y436350D02*X16600D01*
X13400D02*Y433150D01*
X16600D01*
Y436350D02*Y433150D01*
X135000Y437000D02*Y436250D01*
X136500Y434750D01*
X138000Y436250D01*
Y437000D02*Y436250D01*
X136500Y434750D02*Y431000D01*
X139800Y434000D02*X142050D01*
X139800Y431000D02*X142800D01*
X139800Y437000D02*Y431000D01*
Y437000D02*X142800D01*
X147600D02*X148350Y436250D01*
X145350Y437000D02*X147600D01*
X144600Y436250D02*X145350Y437000D01*
X144600Y436250D02*Y434750D01*
X145350Y434000D01*
X147600D01*
X148350Y433250D01*
Y431750D01*
X147600Y431000D02*X148350Y431750D01*
X145350Y431000D02*X147600D01*
X144600Y431750D02*X145350Y431000D01*
X98000D02*X101000Y434000D01*
Y436250D02*Y434000D01*
X100250Y437000D02*X101000Y436250D01*
X98750Y437000D02*X100250D01*
X98000Y436250D02*X98750Y437000D01*
X98000Y436250D02*Y434750D01*
X98750Y434000D01*
X101000D01*
X45000Y431750D02*X45750Y431000D01*
X45000Y436250D02*Y431750D01*
Y436250D02*X45750Y437000D01*
X47250D01*
X48000Y436250D01*
Y431750D01*
X47250Y431000D02*X48000Y431750D01*
X45750Y431000D02*X47250D01*
X45000Y432500D02*X48000Y435500D01*
X49800Y431000D02*X50550D01*
X52350Y431750D02*X53100Y431000D01*
X52350Y436250D02*Y431750D01*
Y436250D02*X53100Y437000D01*
X54600D01*
X55350Y436250D01*
Y431750D01*
X54600Y431000D02*X55350Y431750D01*
X53100Y431000D02*X54600D01*
X52350Y432500D02*X55350Y435500D01*
X57150Y434000D02*X60150Y437000D01*
X57150Y434000D02*X60900D01*
X60150Y437000D02*Y431000D01*
X62700Y436250D02*X63450Y437000D01*
X65700D01*
X66450Y436250D01*
Y434750D01*
X62700Y431000D02*X66450Y434750D01*
X62700Y431000D02*X66450D01*
X256973Y119700D02*Y113300D01*
X253773Y116500D02*X260173D01*
X255373Y118100D02*X258573D01*
X255373D02*Y114900D01*
X258573D01*
Y118100D02*Y114900D01*
X316028Y119700D02*Y113300D01*
X312828Y116500D02*X319228D01*
X314428Y118100D02*X317628D01*
X314428D02*Y114900D01*
X317628D01*
Y118100D02*Y114900D01*
X15000Y452950D02*Y446550D01*
X11800Y449750D02*X18200D01*
X13400Y451350D02*X16600D01*
X13400D02*Y448150D01*
X16600D01*
Y451350D02*Y448150D01*
X135000Y452000D02*Y451250D01*
X136500Y449750D01*
X138000Y451250D01*
Y452000D02*Y451250D01*
X136500Y449750D02*Y446000D01*
X139800Y449000D02*X142050D01*
X139800Y446000D02*X142800D01*
X139800Y452000D02*Y446000D01*
Y452000D02*X142800D01*
X147600D02*X148350Y451250D01*
X145350Y452000D02*X147600D01*
X144600Y451250D02*X145350Y452000D01*
X144600Y451250D02*Y449750D01*
X145350Y449000D01*
X147600D01*
X148350Y448250D01*
Y446750D01*
X147600Y446000D02*X148350Y446750D01*
X145350Y446000D02*X147600D01*
X144600Y446750D02*X145350Y446000D01*
X98000Y451250D02*X98750Y452000D01*
X101000D01*
X101750Y451250D01*
Y449750D01*
X98000Y446000D02*X101750Y449750D01*
X98000Y446000D02*X101750D01*
X45000Y446750D02*X45750Y446000D01*
X45000Y451250D02*Y446750D01*
Y451250D02*X45750Y452000D01*
X47250D01*
X48000Y451250D01*
Y446750D01*
X47250Y446000D02*X48000Y446750D01*
X45750Y446000D02*X47250D01*
X45000Y447500D02*X48000Y450500D01*
X49800Y446000D02*X50550D01*
X52350Y446750D02*X53100Y446000D01*
X52350Y451250D02*Y446750D01*
Y451250D02*X53100Y452000D01*
X54600D01*
X55350Y451250D01*
Y446750D01*
X54600Y446000D02*X55350Y446750D01*
X53100Y446000D02*X54600D01*
X52350Y447500D02*X55350Y450500D01*
X57150Y449000D02*X60150Y452000D01*
X57150Y449000D02*X60900D01*
X60150Y452000D02*Y446000D01*
X62700Y446750D02*X63450Y446000D01*
X62700Y451250D02*Y446750D01*
Y451250D02*X63450Y452000D01*
X64950D01*
X65700Y451250D01*
Y446750D01*
X64950Y446000D02*X65700Y446750D01*
X63450Y446000D02*X64950D01*
X62700Y447500D02*X65700Y450500D01*
X633000Y86000D02*Y82800D01*
Y86000D02*X635773Y87600D01*
X633000Y86000D02*X630227Y87600D01*
X631400Y86000D02*G75*G03X634600Y86000I1600J0D01*G01*
G75*G03X631400Y86000I-1600J0D01*G01*
X730500Y259000D02*Y255800D01*
Y259000D02*X733273Y260600D01*
X730500Y259000D02*X727727Y260600D01*
X728900Y259000D02*G75*G03X732100Y259000I1600J0D01*G01*
G75*G03X728900Y259000I-1600J0D01*G01*
X740500D02*Y255800D01*
Y259000D02*X743273Y260600D01*
X740500Y259000D02*X737727Y260600D01*
X738900Y259000D02*G75*G03X742100Y259000I1600J0D01*G01*
G75*G03X738900Y259000I-1600J0D01*G01*
X750500D02*Y255800D01*
Y259000D02*X753273Y260600D01*
X750500Y259000D02*X747727Y260600D01*
X748900Y259000D02*G75*G03X752100Y259000I1600J0D01*G01*
G75*G03X748900Y259000I-1600J0D01*G01*
X633000Y197500D02*Y194300D01*
Y197500D02*X635773Y199100D01*
X633000Y197500D02*X630227Y199100D01*
X631400Y197500D02*G75*G03X634600Y197500I1600J0D01*G01*
G75*G03X631400Y197500I-1600J0D01*G01*
X643000D02*Y194300D01*
Y197500D02*X645773Y199100D01*
X643000Y197500D02*X640227Y199100D01*
X641400Y197500D02*G75*G03X644600Y197500I1600J0D01*G01*
G75*G03X641400Y197500I-1600J0D01*G01*
X653000D02*Y194300D01*
Y197500D02*X655773Y199100D01*
X653000Y197500D02*X650227Y199100D01*
X651400Y197500D02*G75*G03X654600Y197500I1600J0D01*G01*
G75*G03X651400Y197500I-1600J0D01*G01*
X663000D02*Y194300D01*
Y197500D02*X665773Y199100D01*
X663000Y197500D02*X660227Y199100D01*
X661400Y197500D02*G75*G03X664600Y197500I1600J0D01*G01*
G75*G03X661400Y197500I-1600J0D01*G01*
X100000Y121000D02*Y117800D01*
Y121000D02*X102773Y122600D01*
X100000Y121000D02*X97227Y122600D01*
X98400Y121000D02*G75*G03X101600Y121000I1600J0D01*G01*
G75*G03X98400Y121000I-1600J0D01*G01*
X825500Y164000D02*Y160800D01*
Y164000D02*X828273Y165600D01*
X825500Y164000D02*X822727Y165600D01*
X823900Y164000D02*G75*G03X827100Y164000I1600J0D01*G01*
G75*G03X823900Y164000I-1600J0D01*G01*
X820500Y211000D02*Y207800D01*
Y211000D02*X823273Y212600D01*
X820500Y211000D02*X817727Y212600D01*
X818900Y211000D02*G75*G03X822100Y211000I1600J0D01*G01*
G75*G03X818900Y211000I-1600J0D01*G01*
X124000Y203500D02*Y200300D01*
Y203500D02*X126773Y205100D01*
X124000Y203500D02*X121227Y205100D01*
X122400Y203500D02*G75*G03X125600Y203500I1600J0D01*G01*
G75*G03X122400Y203500I-1600J0D01*G01*
X870500Y143500D02*Y140300D01*
Y143500D02*X873273Y145100D01*
X870500Y143500D02*X867727Y145100D01*
X868900Y143500D02*G75*G03X872100Y143500I1600J0D01*G01*
G75*G03X868900Y143500I-1600J0D01*G01*
X870500Y133500D02*Y130300D01*
Y133500D02*X873273Y135100D01*
X870500Y133500D02*X867727Y135100D01*
X868900Y133500D02*G75*G03X872100Y133500I1600J0D01*G01*
G75*G03X868900Y133500I-1600J0D01*G01*
X870500Y123500D02*Y120300D01*
Y123500D02*X873273Y125100D01*
X870500Y123500D02*X867727Y125100D01*
X868900Y123500D02*G75*G03X872100Y123500I1600J0D01*G01*
G75*G03X868900Y123500I-1600J0D01*G01*
X870500Y113500D02*Y110300D01*
Y113500D02*X873273Y115100D01*
X870500Y113500D02*X867727Y115100D01*
X868900Y113500D02*G75*G03X872100Y113500I1600J0D01*G01*
G75*G03X868900Y113500I-1600J0D01*G01*
X870500Y103500D02*Y100300D01*
Y103500D02*X873273Y105100D01*
X870500Y103500D02*X867727Y105100D01*
X868900Y103500D02*G75*G03X872100Y103500I1600J0D01*G01*
G75*G03X868900Y103500I-1600J0D01*G01*
X870500Y93500D02*Y90300D01*
Y93500D02*X873273Y95100D01*
X870500Y93500D02*X867727Y95100D01*
X868900Y93500D02*G75*G03X872100Y93500I1600J0D01*G01*
G75*G03X868900Y93500I-1600J0D01*G01*
X870500Y83500D02*Y80300D01*
Y83500D02*X873273Y85100D01*
X870500Y83500D02*X867727Y85100D01*
X868900Y83500D02*G75*G03X872100Y83500I1600J0D01*G01*
G75*G03X868900Y83500I-1600J0D01*G01*
X870500Y73500D02*Y70300D01*
Y73500D02*X873273Y75100D01*
X870500Y73500D02*X867727Y75100D01*
X868900Y73500D02*G75*G03X872100Y73500I1600J0D01*G01*
G75*G03X868900Y73500I-1600J0D01*G01*
X870500Y63500D02*Y60300D01*
Y63500D02*X873273Y65100D01*
X870500Y63500D02*X867727Y65100D01*
X868900Y63500D02*G75*G03X872100Y63500I1600J0D01*G01*
G75*G03X868900Y63500I-1600J0D01*G01*
X575500Y197500D02*Y194300D01*
Y197500D02*X578273Y199100D01*
X575500Y197500D02*X572727Y199100D01*
X573900Y197500D02*G75*G03X577100Y197500I1600J0D01*G01*
G75*G03X573900Y197500I-1600J0D01*G01*
X585500D02*Y194300D01*
Y197500D02*X588273Y199100D01*
X585500Y197500D02*X582727Y199100D01*
X583900Y197500D02*G75*G03X587100Y197500I1600J0D01*G01*
G75*G03X583900Y197500I-1600J0D01*G01*
X595500D02*Y194300D01*
Y197500D02*X598273Y199100D01*
X595500Y197500D02*X592727Y199100D01*
X593900Y197500D02*G75*G03X597100Y197500I1600J0D01*G01*
G75*G03X593900Y197500I-1600J0D01*G01*
X740500Y108500D02*Y105300D01*
Y108500D02*X743273Y110100D01*
X740500Y108500D02*X737727Y110100D01*
X738900Y108500D02*G75*G03X742100Y108500I1600J0D01*G01*
G75*G03X738900Y108500I-1600J0D01*G01*
X750500D02*Y105300D01*
Y108500D02*X753273Y110100D01*
X750500Y108500D02*X747727Y110100D01*
X748900Y108500D02*G75*G03X752100Y108500I1600J0D01*G01*
G75*G03X748900Y108500I-1600J0D01*G01*
X760500D02*Y105300D01*
Y108500D02*X763273Y110100D01*
X760500Y108500D02*X757727Y110100D01*
X758900Y108500D02*G75*G03X762100Y108500I1600J0D01*G01*
G75*G03X758900Y108500I-1600J0D01*G01*
X633000Y116000D02*Y112800D01*
Y116000D02*X635773Y117600D01*
X633000Y116000D02*X630227Y117600D01*
X631400Y116000D02*G75*G03X634600Y116000I1600J0D01*G01*
G75*G03X631400Y116000I-1600J0D01*G01*
X825500Y143500D02*Y140300D01*
Y143500D02*X828273Y145100D01*
X825500Y143500D02*X822727Y145100D01*
X823900Y143500D02*G75*G03X827100Y143500I1600J0D01*G01*
G75*G03X823900Y143500I-1600J0D01*G01*
X825500Y133500D02*Y130300D01*
Y133500D02*X828273Y135100D01*
X825500Y133500D02*X822727Y135100D01*
X823900Y133500D02*G75*G03X827100Y133500I1600J0D01*G01*
G75*G03X823900Y133500I-1600J0D01*G01*
X825500Y123500D02*Y120300D01*
Y123500D02*X828273Y125100D01*
X825500Y123500D02*X822727Y125100D01*
X823900Y123500D02*G75*G03X827100Y123500I1600J0D01*G01*
G75*G03X823900Y123500I-1600J0D01*G01*
X825500Y113500D02*Y110300D01*
Y113500D02*X828273Y115100D01*
X825500Y113500D02*X822727Y115100D01*
X823900Y113500D02*G75*G03X827100Y113500I1600J0D01*G01*
G75*G03X823900Y113500I-1600J0D01*G01*
X825500Y103500D02*Y100300D01*
Y103500D02*X828273Y105100D01*
X825500Y103500D02*X822727Y105100D01*
X823900Y103500D02*G75*G03X827100Y103500I1600J0D01*G01*
G75*G03X823900Y103500I-1600J0D01*G01*
X825500Y93500D02*Y90300D01*
Y93500D02*X828273Y95100D01*
X825500Y93500D02*X822727Y95100D01*
X823900Y93500D02*G75*G03X827100Y93500I1600J0D01*G01*
G75*G03X823900Y93500I-1600J0D01*G01*
X825500Y83500D02*Y80300D01*
Y83500D02*X828273Y85100D01*
X825500Y83500D02*X822727Y85100D01*
X823900Y83500D02*G75*G03X827100Y83500I1600J0D01*G01*
G75*G03X823900Y83500I-1600J0D01*G01*
X825500Y73500D02*Y70300D01*
Y73500D02*X828273Y75100D01*
X825500Y73500D02*X822727Y75100D01*
X823900Y73500D02*G75*G03X827100Y73500I1600J0D01*G01*
G75*G03X823900Y73500I-1600J0D01*G01*
X825500Y63500D02*Y60300D01*
Y63500D02*X828273Y65100D01*
X825500Y63500D02*X822727Y65100D01*
X823900Y63500D02*G75*G03X827100Y63500I1600J0D01*G01*
G75*G03X823900Y63500I-1600J0D01*G01*
X287000Y222500D02*Y219300D01*
Y222500D02*X289773Y224100D01*
X287000Y222500D02*X284227Y224100D01*
X285400Y222500D02*G75*G03X288600Y222500I1600J0D01*G01*
G75*G03X285400Y222500I-1600J0D01*G01*
X287000Y212500D02*Y209300D01*
Y212500D02*X289773Y214100D01*
X287000Y212500D02*X284227Y214100D01*
X285400Y212500D02*G75*G03X288600Y212500I1600J0D01*G01*
G75*G03X285400Y212500I-1600J0D01*G01*
X287000Y202500D02*Y199300D01*
Y202500D02*X289773Y204100D01*
X287000Y202500D02*X284227Y204100D01*
X285400Y202500D02*G75*G03X288600Y202500I1600J0D01*G01*
G75*G03X285400Y202500I-1600J0D01*G01*
X108500Y242000D02*Y238800D01*
Y242000D02*X111273Y243600D01*
X108500Y242000D02*X105727Y243600D01*
X106900Y242000D02*G75*G03X110100Y242000I1600J0D01*G01*
G75*G03X106900Y242000I-1600J0D01*G01*
X346000Y169000D02*Y165800D01*
Y169000D02*X348773Y170600D01*
X346000Y169000D02*X343227Y170600D01*
X344400Y169000D02*G75*G03X347600Y169000I1600J0D01*G01*
G75*G03X344400Y169000I-1600J0D01*G01*
X633500Y241000D02*Y237800D01*
Y241000D02*X636273Y242600D01*
X633500Y241000D02*X630727Y242600D01*
X631900Y241000D02*G75*G03X635100Y241000I1600J0D01*G01*
G75*G03X631900Y241000I-1600J0D01*G01*
X643500D02*Y237800D01*
Y241000D02*X646273Y242600D01*
X643500Y241000D02*X640727Y242600D01*
X641900Y241000D02*G75*G03X645100Y241000I1600J0D01*G01*
G75*G03X641900Y241000I-1600J0D01*G01*
X653500D02*Y237800D01*
Y241000D02*X656273Y242600D01*
X653500Y241000D02*X650727Y242600D01*
X651900Y241000D02*G75*G03X655100Y241000I1600J0D01*G01*
G75*G03X651900Y241000I-1600J0D01*G01*
X663500D02*Y237800D01*
Y241000D02*X666273Y242600D01*
X663500Y241000D02*X660727Y242600D01*
X661900Y241000D02*G75*G03X665100Y241000I1600J0D01*G01*
G75*G03X661900Y241000I-1600J0D01*G01*
X93500Y284000D02*Y280800D01*
Y284000D02*X96273Y285600D01*
X93500Y284000D02*X90727Y285600D01*
X91900Y284000D02*G75*G03X95100Y284000I1600J0D01*G01*
G75*G03X91900Y284000I-1600J0D01*G01*
X411000Y153000D02*Y149800D01*
Y153000D02*X413773Y154600D01*
X411000Y153000D02*X408227Y154600D01*
X409400Y153000D02*G75*G03X412600Y153000I1600J0D01*G01*
G75*G03X409400Y153000I-1600J0D01*G01*
X768000Y76000D02*Y72800D01*
Y76000D02*X770773Y77600D01*
X768000Y76000D02*X765227Y77600D01*
X766400Y76000D02*G75*G03X769600Y76000I1600J0D01*G01*
G75*G03X766400Y76000I-1600J0D01*G01*
X15000Y464750D02*Y461550D01*
Y464750D02*X17773Y466350D01*
X15000Y464750D02*X12227Y466350D01*
X13400Y464750D02*G75*G03X16600Y464750I1600J0D01*G01*
G75*G03X13400Y464750I-1600J0D01*G01*
X135000Y467000D02*Y466250D01*
X136500Y464750D01*
X138000Y466250D01*
Y467000D02*Y466250D01*
X136500Y464750D02*Y461000D01*
X139800Y464000D02*X142050D01*
X139800Y461000D02*X142800D01*
X139800Y467000D02*Y461000D01*
Y467000D02*X142800D01*
X147600D02*X148350Y466250D01*
X145350Y467000D02*X147600D01*
X144600Y466250D02*X145350Y467000D01*
X144600Y466250D02*Y464750D01*
X145350Y464000D01*
X147600D01*
X148350Y463250D01*
Y461750D01*
X147600Y461000D02*X148350Y461750D01*
X145350Y461000D02*X147600D01*
X144600Y461750D02*X145350Y461000D01*
X98000Y464000D02*X101000Y467000D01*
X98000Y464000D02*X101750D01*
X101000Y467000D02*Y461000D01*
X103550D02*X106550Y464000D01*
Y466250D02*Y464000D01*
X105800Y467000D02*X106550Y466250D01*
X104300Y467000D02*X105800D01*
X103550Y466250D02*X104300Y467000D01*
X103550Y466250D02*Y464750D01*
X104300Y464000D01*
X106550D01*
X45000Y461750D02*X45750Y461000D01*
X45000Y466250D02*Y461750D01*
Y466250D02*X45750Y467000D01*
X47250D01*
X48000Y466250D01*
Y461750D01*
X47250Y461000D02*X48000Y461750D01*
X45750Y461000D02*X47250D01*
X45000Y462500D02*X48000Y465500D01*
X49800Y461000D02*X50550D01*
X52350Y461750D02*X53100Y461000D01*
X52350Y466250D02*Y461750D01*
Y466250D02*X53100Y467000D01*
X54600D01*
X55350Y466250D01*
Y461750D01*
X54600Y461000D02*X55350Y461750D01*
X53100Y461000D02*X54600D01*
X52350Y462500D02*X55350Y465500D01*
X57150Y466250D02*X57900Y467000D01*
X59400D01*
X60150Y466250D01*
Y461750D01*
X59400Y461000D02*X60150Y461750D01*
X57900Y461000D02*X59400D01*
X57150Y461750D02*X57900Y461000D01*
Y464000D02*X60150D01*
X61950Y461750D02*X62700Y461000D01*
X61950Y463250D02*Y461750D01*
Y463250D02*X62700Y464000D01*
X64200D01*
X64950Y463250D01*
Y461750D01*
X64200Y461000D02*X64950Y461750D01*
X62700Y461000D02*X64200D01*
X61950Y464750D02*X62700Y464000D01*
X61950Y466250D02*Y464750D01*
Y466250D02*X62700Y467000D01*
X64200D01*
X64950Y466250D01*
Y464750D01*
X64200Y464000D02*X64950Y464750D01*
X841400Y105600D02*X844600D01*
X841400D02*Y102400D01*
X844600D01*
Y105600D02*Y102400D01*
X841400Y225100D02*X844600D01*
X841400D02*Y221900D01*
X844600D01*
Y225100D02*Y221900D01*
X841400Y57600D02*X844600D01*
X841400D02*Y54400D01*
X844600D01*
Y57600D02*Y54400D01*
X851400Y115600D02*X854600D01*
X851400D02*Y112400D01*
X854600D01*
Y115600D02*Y112400D01*
X9400Y145600D02*X12600D01*
X9400D02*Y142400D01*
X12600D01*
Y145600D02*Y142400D01*
X643400Y51100D02*X646600D01*
X643400D02*Y47900D01*
X646600D01*
Y51100D02*Y47900D01*
X245900Y333100D02*X249100D01*
X245900D02*Y329900D01*
X249100D01*
Y333100D02*Y329900D01*
X533900Y51100D02*X537100D01*
X533900D02*Y47900D01*
X537100D01*
Y51100D02*Y47900D01*
X834400Y135100D02*X837600D01*
X834400D02*Y131900D01*
X837600D01*
Y135100D02*Y131900D01*
X533900Y64100D02*X537100D01*
X533900D02*Y60900D01*
X537100D01*
Y64100D02*Y60900D01*
X13400Y481350D02*X16600D01*
X13400D02*Y478150D01*
X16600D01*
Y481350D02*Y478150D01*
X135000Y482000D02*Y481250D01*
X136500Y479750D01*
X138000Y481250D01*
Y482000D02*Y481250D01*
X136500Y479750D02*Y476000D01*
X139800Y479000D02*X142050D01*
X139800Y476000D02*X142800D01*
X139800Y482000D02*Y476000D01*
Y482000D02*X142800D01*
X147600D02*X148350Y481250D01*
X145350Y482000D02*X147600D01*
X144600Y481250D02*X145350Y482000D01*
X144600Y481250D02*Y479750D01*
X145350Y479000D01*
X147600D01*
X148350Y478250D01*
Y476750D01*
X147600Y476000D02*X148350Y476750D01*
X145350Y476000D02*X147600D01*
X144600Y476750D02*X145350Y476000D01*
X98750D02*X100250D01*
X99500Y482000D02*Y476000D01*
X98000Y480500D02*X99500Y482000D01*
X102050Y476750D02*X102800Y476000D01*
X102050Y481250D02*Y476750D01*
Y481250D02*X102800Y482000D01*
X104300D01*
X105050Y481250D01*
Y476750D01*
X104300Y476000D02*X105050Y476750D01*
X102800Y476000D02*X104300D01*
X102050Y477500D02*X105050Y480500D01*
X45000Y476750D02*X45750Y476000D01*
X45000Y481250D02*Y476750D01*
Y481250D02*X45750Y482000D01*
X47250D01*
X48000Y481250D01*
Y476750D01*
X47250Y476000D02*X48000Y476750D01*
X45750Y476000D02*X47250D01*
X45000Y477500D02*X48000Y480500D01*
X49800Y476000D02*X50550D01*
X52350Y476750D02*X53100Y476000D01*
X52350Y481250D02*Y476750D01*
Y481250D02*X53100Y482000D01*
X54600D01*
X55350Y481250D01*
Y476750D01*
X54600Y476000D02*X55350Y476750D01*
X53100Y476000D02*X54600D01*
X52350Y477500D02*X55350Y480500D01*
X57150Y481250D02*X57900Y482000D01*
X59400D01*
X60150Y481250D01*
Y476750D01*
X59400Y476000D02*X60150Y476750D01*
X57900Y476000D02*X59400D01*
X57150Y476750D02*X57900Y476000D01*
Y479000D02*X60150D01*
X61950Y482000D02*X64950D01*
X61950D02*Y479000D01*
X62700Y479750D01*
X64200D01*
X64950Y479000D01*
Y476750D01*
X64200Y476000D02*X64950Y476750D01*
X62700Y476000D02*X64200D01*
X61950Y476750D02*X62700Y476000D01*
X37739Y100154D02*G75*G03X39339Y100154I800J0D01*G01*
G75*G03X37739Y100154I-800J0D01*G01*
X67661Y100547D02*G75*G03X69261Y100547I800J0D01*G01*
G75*G03X67661Y100547I-800J0D01*G01*
X844700Y308500D02*G75*G03X846300Y308500I800J0D01*G01*
G75*G03X844700Y308500I-800J0D01*G01*
X854700D02*G75*G03X856300Y308500I800J0D01*G01*
G75*G03X854700Y308500I-800J0D01*G01*
X40200D02*G75*G03X41800Y308500I800J0D01*G01*
G75*G03X40200Y308500I-800J0D01*G01*
X50200D02*G75*G03X51800Y308500I800J0D01*G01*
G75*G03X50200Y308500I-800J0D01*G01*
X14200Y494750D02*G75*G03X15800Y494750I800J0D01*G01*
G75*G03X14200Y494750I-800J0D01*G01*
X135000Y497000D02*Y496250D01*
X136500Y494750D01*
X138000Y496250D01*
Y497000D02*Y496250D01*
X136500Y494750D02*Y491000D01*
X139800Y494000D02*X142050D01*
X139800Y491000D02*X142800D01*
X139800Y497000D02*Y491000D01*
Y497000D02*X142800D01*
X147600D02*X148350Y496250D01*
X145350Y497000D02*X147600D01*
X144600Y496250D02*X145350Y497000D01*
X144600Y496250D02*Y494750D01*
X145350Y494000D01*
X147600D01*
X148350Y493250D01*
Y491750D01*
X147600Y491000D02*X148350Y491750D01*
X145350Y491000D02*X147600D01*
X144600Y491750D02*X145350Y491000D01*
X100250Y497000D02*X101000Y496250D01*
X98750Y497000D02*X100250D01*
X98000Y496250D02*X98750Y497000D01*
X98000Y496250D02*Y491750D01*
X98750Y491000D01*
X100250Y494000D02*X101000Y493250D01*
X98000Y494000D02*X100250D01*
X98750Y491000D02*X100250D01*
X101000Y491750D01*
Y493250D02*Y491750D01*
X45000D02*X45750Y491000D01*
X45000Y496250D02*Y491750D01*
Y496250D02*X45750Y497000D01*
X47250D01*
X48000Y496250D01*
Y491750D01*
X47250Y491000D02*X48000Y491750D01*
X45750Y491000D02*X47250D01*
X45000Y492500D02*X48000Y495500D01*
X49800Y491000D02*X50550D01*
X52350Y491750D02*X53100Y491000D01*
X52350Y496250D02*Y491750D01*
Y496250D02*X53100Y497000D01*
X54600D01*
X55350Y496250D01*
Y491750D01*
X54600Y491000D02*X55350Y491750D01*
X53100Y491000D02*X54600D01*
X52350Y492500D02*X55350Y495500D01*
X57150Y496250D02*X57900Y497000D01*
X59400D01*
X60150Y496250D01*
Y491750D01*
X59400Y491000D02*X60150Y491750D01*
X57900Y491000D02*X59400D01*
X57150Y491750D02*X57900Y491000D01*
Y494000D02*X60150D01*
X61950Y496250D02*X62700Y497000D01*
X64950D01*
X65700Y496250D01*
Y494750D01*
X61950Y491000D02*X65700Y494750D01*
X61950Y491000D02*X65700D01*
X774300Y257200D02*X776700Y254800D01*
X774300D02*X776700Y257200D01*
X804300D02*X806700Y254800D01*
X804300D02*X806700Y257200D01*
X574300Y137200D02*X576700Y134800D01*
X574300D02*X576700Y137200D01*
X614300D02*X616700Y134800D01*
X614300D02*X616700Y137200D01*
X709300Y67200D02*X711700Y64800D01*
X709300D02*X711700Y67200D01*
X749300D02*X751700Y64800D01*
X749300D02*X751700Y67200D01*
X84800Y167200D02*X87200Y164800D01*
X84800D02*X87200Y167200D01*
X124800D02*X127200Y164800D01*
X124800D02*X127200Y167200D01*
X167800Y56200D02*X170200Y53800D01*
X167800D02*X170200Y56200D01*
X197800D02*X200200Y53800D01*
X197800D02*X200200Y56200D01*
X709300Y227200D02*X711700Y224800D01*
X709300D02*X711700Y227200D01*
X749300D02*X751700Y224800D01*
X749300D02*X751700Y227200D01*
X709300Y107200D02*X711700Y104800D01*
X709300D02*X711700Y107200D01*
X719300D02*X721700Y104800D01*
X719300D02*X721700Y107200D01*
X709300Y164700D02*X711700Y162300D01*
X709300D02*X711700Y164700D01*
X749300D02*X751700Y162300D01*
X749300D02*X751700Y164700D01*
X764300Y242200D02*X766700Y239800D01*
X764300D02*X766700Y242200D01*
X804300D02*X806700Y239800D01*
X804300D02*X806700Y242200D01*
X54800Y167200D02*X57200Y164800D01*
X54800D02*X57200Y167200D01*
X14800D02*X17200Y164800D01*
X14800D02*X17200Y167200D01*
X621800Y152200D02*X624200Y149800D01*
X621800D02*X624200Y152200D01*
X631800D02*X634200Y149800D01*
X631800D02*X634200Y152200D01*
X84800Y197200D02*X87200Y194800D01*
X84800D02*X87200Y197200D01*
X44800D02*X47200Y194800D01*
X44800D02*X47200Y197200D01*
X29800Y187700D02*X32200Y185300D01*
X29800D02*X32200Y187700D01*
X29800Y227700D02*X32200Y225300D01*
X29800D02*X32200Y227700D01*
X167800Y92200D02*X170200Y89800D01*
X167800D02*X170200Y92200D01*
X207800D02*X210200Y89800D01*
X207800D02*X210200Y92200D01*
X167800Y74700D02*X170200Y72300D01*
X167800D02*X170200Y74700D01*
X207800D02*X210200Y72300D01*
X207800D02*X210200Y74700D01*
X409800Y124200D02*X412200Y121800D01*
X409800D02*X412200Y124200D01*
X409800Y84200D02*X412200Y81800D01*
X409800D02*X412200Y84200D01*
X149800Y249700D02*X152200Y247300D01*
X149800D02*X152200Y249700D01*
X149800Y289700D02*X152200Y287300D01*
X149800D02*X152200Y289700D01*
X167300Y277200D02*X169700Y274800D01*
X167300D02*X169700Y277200D01*
X167300Y317200D02*X169700Y314800D01*
X167300D02*X169700Y317200D01*
X786800Y133200D02*X789200Y130800D01*
X786800D02*X789200Y133200D01*
X796800D02*X799200Y130800D01*
X796800D02*X799200Y133200D01*
X709300Y242200D02*X711700Y239800D01*
X709300D02*X711700Y242200D01*
X749300D02*X751700Y239800D01*
X749300D02*X751700Y242200D01*
X167800Y112200D02*X170200Y109800D01*
X167800D02*X170200Y112200D01*
X177800D02*X180200Y109800D01*
X177800D02*X180200Y112200D01*
X819300Y197200D02*X821700Y194800D01*
X819300D02*X821700Y197200D01*
X859300D02*X861700Y194800D01*
X859300D02*X861700Y197200D01*
X774300D02*X776700Y194800D01*
X774300D02*X776700Y197200D01*
X804300D02*X806700Y194800D01*
X804300D02*X806700Y197200D01*
X574300Y117200D02*X576700Y114800D01*
X574300D02*X576700Y117200D01*
X614300D02*X616700Y114800D01*
X614300D02*X616700Y117200D01*
X167300Y222200D02*X169700Y219800D01*
X167300D02*X169700Y222200D01*
X167300Y262200D02*X169700Y259800D01*
X167300D02*X169700Y262200D01*
X764300Y212200D02*X766700Y209800D01*
X764300D02*X766700Y212200D01*
X804300D02*X806700Y209800D01*
X804300D02*X806700Y212200D01*
X709300Y197200D02*X711700Y194800D01*
X709300D02*X711700Y197200D01*
X749300D02*X751700Y194800D01*
X749300D02*X751700Y197200D01*
X774300Y227200D02*X776700Y224800D01*
X774300D02*X776700Y227200D01*
X804300D02*X806700Y224800D01*
X804300D02*X806700Y227200D01*
X709300Y137200D02*X711700Y134800D01*
X709300D02*X711700Y137200D01*
X749300D02*X751700Y134800D01*
X749300D02*X751700Y137200D01*
X709300Y182200D02*X711700Y179800D01*
X709300D02*X711700Y182200D01*
X749300D02*X751700Y179800D01*
X749300D02*X751700Y182200D01*
X574300Y97200D02*X576700Y94800D01*
X574300D02*X576700Y97200D01*
X614300D02*X616700Y94800D01*
X614300D02*X616700Y97200D01*
X719300Y212200D02*X721700Y209800D01*
X719300D02*X721700Y212200D01*
X749300D02*X751700Y209800D01*
X749300D02*X751700Y212200D01*
X764300Y272200D02*X766700Y269800D01*
X764300D02*X766700Y272200D01*
X804300D02*X806700Y269800D01*
X804300D02*X806700Y272200D01*
X67300Y269700D02*X69700Y267300D01*
X67300D02*X69700Y269700D01*
X107300D02*X109700Y267300D01*
X107300D02*X109700Y269700D01*
X184800Y249700D02*X187200Y247300D01*
X184800D02*X187200Y249700D01*
X184800Y289700D02*X187200Y287300D01*
X184800D02*X187200Y289700D01*
X482300Y211700D02*X484700Y209300D01*
X482300D02*X484700Y211700D01*
X482300Y251700D02*X484700Y249300D01*
X482300D02*X484700Y251700D01*
X149800Y304700D02*X152200Y302300D01*
X149800D02*X152200Y304700D01*
X149800Y344700D02*X152200Y342300D01*
X149800D02*X152200Y344700D01*
X14800Y285200D02*X17200Y282800D01*
X14800D02*X17200Y285200D01*
X54800D02*X57200Y282800D01*
X54800D02*X57200Y285200D01*
X57300Y56200D02*X59700Y53800D01*
X57300D02*X59700Y56200D01*
X87300D02*X89700Y53800D01*
X87300D02*X89700Y56200D01*
X14800Y269700D02*X17200Y267300D01*
X14800D02*X17200Y269700D01*
X54800D02*X57200Y267300D01*
X54800D02*X57200Y269700D01*
X574300Y242200D02*X576700Y239800D01*
X574300D02*X576700Y242200D01*
X614300D02*X616700Y239800D01*
X614300D02*X616700Y242200D01*
X14800Y197200D02*X17200Y194800D01*
X14800D02*X17200Y197200D01*
X14800Y237200D02*X17200Y234800D01*
X14800D02*X17200Y237200D01*
X709300Y87200D02*X711700Y84800D01*
X709300D02*X711700Y87200D01*
X749300D02*X751700Y84800D01*
X749300D02*X751700Y87200D01*
X84800Y182200D02*X87200Y179800D01*
X84800D02*X87200Y182200D01*
X44800D02*X47200Y179800D01*
X44800D02*X47200Y182200D01*
X574300Y77200D02*X576700Y74800D01*
X574300D02*X576700Y77200D01*
X614300D02*X616700Y74800D01*
X614300D02*X616700Y77200D01*
X369800Y186700D02*X372200Y184300D01*
X369800D02*X372200Y186700D01*
X409800D02*X412200Y184300D01*
X409800D02*X412200Y186700D01*
X521300Y251700D02*X523700Y249300D01*
X521300D02*X523700Y251700D01*
X521300Y211700D02*X523700Y209300D01*
X521300D02*X523700Y211700D01*
X379800Y164200D02*X382200Y161800D01*
X379800D02*X382200Y164200D01*
X379800Y124200D02*X382200Y121800D01*
X379800D02*X382200Y124200D01*
X394800Y144200D02*X397200Y141800D01*
X394800D02*X397200Y144200D01*
X394800Y104200D02*X397200Y101800D01*
X394800D02*X397200Y104200D01*
X482300Y144200D02*X484700Y141800D01*
X482300D02*X484700Y144200D01*
X482300Y104200D02*X484700Y101800D01*
X482300D02*X484700Y104200D01*
X369800Y221700D02*X372200Y219300D01*
X369800D02*X372200Y221700D01*
X409800D02*X412200Y219300D01*
X409800D02*X412200Y221700D01*
X379800Y204200D02*X382200Y201800D01*
X379800D02*X382200Y204200D01*
X409800D02*X412200Y201800D01*
X409800D02*X412200Y204200D01*
X499800Y211700D02*X502200Y209300D01*
X499800D02*X502200Y211700D01*
X499800Y251700D02*X502200Y249300D01*
X499800D02*X502200Y251700D01*
X459800Y184700D02*X462200Y182300D01*
X459800D02*X462200Y184700D01*
X499800D02*X502200Y182300D01*
X499800D02*X502200Y184700D01*
X369800Y241700D02*X372200Y239300D01*
X369800D02*X372200Y241700D01*
X409800D02*X412200Y239300D01*
X409800D02*X412200Y241700D01*
X574300Y227200D02*X576700Y224800D01*
X574300D02*X576700Y227200D01*
X614300D02*X616700Y224800D01*
X614300D02*X616700Y227200D01*
X542300Y168200D02*X544700Y165800D01*
X542300D02*X544700Y168200D01*
X552300D02*X554700Y165800D01*
X552300D02*X554700Y168200D01*
X13800Y510950D02*X16200Y508550D01*
X13800D02*X16200Y510950D01*
X135000Y512000D02*Y511250D01*
X136500Y509750D01*
X138000Y511250D01*
Y512000D02*Y511250D01*
X136500Y509750D02*Y506000D01*
X139800Y509000D02*X142050D01*
X139800Y506000D02*X142800D01*
X139800Y512000D02*Y506000D01*
Y512000D02*X142800D01*
X147600D02*X148350Y511250D01*
X145350Y512000D02*X147600D01*
X144600Y511250D02*X145350Y512000D01*
X144600Y511250D02*Y509750D01*
X145350Y509000D01*
X147600D01*
X148350Y508250D01*
Y506750D01*
X147600Y506000D02*X148350Y506750D01*
X145350Y506000D02*X147600D01*
X144600Y506750D02*X145350Y506000D01*
X98750D02*X100250D01*
X99500Y512000D02*Y506000D01*
X98000Y510500D02*X99500Y512000D01*
X102800Y506000D02*X104300D01*
X103550Y512000D02*Y506000D01*
X102050Y510500D02*X103550Y512000D01*
X106100Y509000D02*X109100Y512000D01*
X106100Y509000D02*X109850D01*
X109100Y512000D02*Y506000D01*
X45000Y506750D02*X45750Y506000D01*
X45000Y511250D02*Y506750D01*
Y511250D02*X45750Y512000D01*
X47250D01*
X48000Y511250D01*
Y506750D01*
X47250Y506000D02*X48000Y506750D01*
X45750Y506000D02*X47250D01*
X45000Y507500D02*X48000Y510500D01*
X49800Y506000D02*X50550D01*
X52350Y506750D02*X53100Y506000D01*
X52350Y511250D02*Y506750D01*
Y511250D02*X53100Y512000D01*
X54600D01*
X55350Y511250D01*
Y506750D01*
X54600Y506000D02*X55350Y506750D01*
X53100Y506000D02*X54600D01*
X52350Y507500D02*X55350Y510500D01*
X57150Y511250D02*X57900Y512000D01*
X59400D01*
X60150Y511250D01*
Y506750D01*
X59400Y506000D02*X60150Y506750D01*
X57900Y506000D02*X59400D01*
X57150Y506750D02*X57900Y506000D01*
Y509000D02*X60150D01*
X61950Y506750D02*X62700Y506000D01*
X61950Y511250D02*Y506750D01*
Y511250D02*X62700Y512000D01*
X64200D01*
X64950Y511250D01*
Y506750D01*
X64200Y506000D02*X64950Y506750D01*
X62700Y506000D02*X64200D01*
X61950Y507500D02*X64950Y510500D01*
X46000Y247600D02*Y244400D01*
X44400Y246000D02*X47600D01*
X46000Y237600D02*Y234400D01*
X44400Y236000D02*X47600D01*
X46000Y227600D02*Y224400D01*
X44400Y226000D02*X47600D01*
X46000Y217600D02*Y214400D01*
X44400Y216000D02*X47600D01*
X76000Y217600D02*Y214400D01*
X74400Y216000D02*X77600D01*
X76000Y227600D02*Y224400D01*
X74400Y226000D02*X77600D01*
X76000Y237600D02*Y234400D01*
X74400Y236000D02*X77600D01*
X76000Y247600D02*Y244400D01*
X74400Y246000D02*X77600D01*
X116500Y102600D02*Y99400D01*
X114900Y101000D02*X118100D01*
X116500Y92600D02*Y89400D01*
X114900Y91000D02*X118100D01*
X116500Y82600D02*Y79400D01*
X114900Y81000D02*X118100D01*
X116500Y72600D02*Y69400D01*
X114900Y71000D02*X118100D01*
X146500Y72600D02*Y69400D01*
X144900Y71000D02*X148100D01*
X146500Y82600D02*Y79400D01*
X144900Y81000D02*X148100D01*
X146500Y92600D02*Y89400D01*
X144900Y91000D02*X148100D01*
X146500Y102600D02*Y99400D01*
X144900Y101000D02*X148100D01*
X840500Y267600D02*Y264400D01*
X838900Y266000D02*X842100D01*
X840500Y257600D02*Y254400D01*
X838900Y256000D02*X842100D01*
X840500Y247600D02*Y244400D01*
X838900Y246000D02*X842100D01*
X840500Y237600D02*Y234400D01*
X838900Y236000D02*X842100D01*
X870500Y237600D02*Y234400D01*
X868900Y236000D02*X872100D01*
X870500Y247600D02*Y244400D01*
X868900Y246000D02*X872100D01*
X870500Y257600D02*Y254400D01*
X868900Y256000D02*X872100D01*
X870500Y267600D02*Y264400D01*
X868900Y266000D02*X872100D01*
X431000Y154600D02*Y151400D01*
X429400Y153000D02*X432600D01*
X431000Y144600D02*Y141400D01*
X429400Y143000D02*X432600D01*
X431000Y134600D02*Y131400D01*
X429400Y133000D02*X432600D01*
X431000Y124600D02*Y121400D01*
X429400Y123000D02*X432600D01*
X431000Y114600D02*Y111400D01*
X429400Y113000D02*X432600D01*
X431000Y104600D02*Y101400D01*
X429400Y103000D02*X432600D01*
X431000Y94600D02*Y91400D01*
X429400Y93000D02*X432600D01*
X431000Y84600D02*Y81400D01*
X429400Y83000D02*X432600D01*
X461000Y84600D02*Y81400D01*
X459400Y83000D02*X462600D01*
X461000Y94600D02*Y91400D01*
X459400Y93000D02*X462600D01*
X461000Y104600D02*Y101400D01*
X459400Y103000D02*X462600D01*
X461000Y114600D02*Y111400D01*
X459400Y113000D02*X462600D01*
X461000Y124600D02*Y121400D01*
X459400Y123000D02*X462600D01*
X461000Y134600D02*Y131400D01*
X459400Y133000D02*X462600D01*
X461000Y144600D02*Y141400D01*
X459400Y143000D02*X462600D01*
X461000Y154600D02*Y151400D01*
X459400Y153000D02*X462600D01*
X431000Y242100D02*Y238900D01*
X429400Y240500D02*X432600D01*
X431000Y232100D02*Y228900D01*
X429400Y230500D02*X432600D01*
X431000Y222100D02*Y218900D01*
X429400Y220500D02*X432600D01*
X431000Y212100D02*Y208900D01*
X429400Y210500D02*X432600D01*
X461000Y212100D02*Y208900D01*
X459400Y210500D02*X462600D01*
X461000Y222100D02*Y218900D01*
X459400Y220500D02*X462600D01*
X461000Y232100D02*Y228900D01*
X459400Y230500D02*X462600D01*
X461000Y242100D02*Y238900D01*
X459400Y240500D02*X462600D01*
X375500Y337600D02*Y334400D01*
X373900Y336000D02*X377100D01*
X365500Y337600D02*Y334400D01*
X363900Y336000D02*X367100D01*
X658500Y137600D02*Y134400D01*
X656900Y136000D02*X660100D01*
X658500Y127600D02*Y124400D01*
X656900Y126000D02*X660100D01*
X658500Y117600D02*Y114400D01*
X656900Y116000D02*X660100D01*
X658500Y107600D02*Y104400D01*
X656900Y106000D02*X660100D01*
X658500Y97600D02*Y94400D01*
X656900Y96000D02*X660100D01*
X658500Y87600D02*Y84400D01*
X656900Y86000D02*X660100D01*
X658500Y77600D02*Y74400D01*
X656900Y76000D02*X660100D01*
X688500Y77600D02*Y74400D01*
X686900Y76000D02*X690100D01*
X688500Y87600D02*Y84400D01*
X686900Y86000D02*X690100D01*
X688500Y97600D02*Y94400D01*
X686900Y96000D02*X690100D01*
X688500Y107600D02*Y104400D01*
X686900Y106000D02*X690100D01*
X688500Y117600D02*Y114400D01*
X686900Y116000D02*X690100D01*
X688500Y127600D02*Y124400D01*
X686900Y126000D02*X690100D01*
X688500Y137600D02*Y134400D01*
X686900Y136000D02*X690100D01*
X15000Y526350D02*Y523150D01*
X13400Y524750D02*X16600D01*
X135000Y527000D02*Y526250D01*
X136500Y524750D01*
X138000Y526250D01*
Y527000D02*Y526250D01*
X136500Y524750D02*Y521000D01*
X139800Y524000D02*X142050D01*
X139800Y521000D02*X142800D01*
X139800Y527000D02*Y521000D01*
Y527000D02*X142800D01*
X147600D02*X148350Y526250D01*
X145350Y527000D02*X147600D01*
X144600Y526250D02*X145350Y527000D01*
X144600Y526250D02*Y524750D01*
X145350Y524000D01*
X147600D01*
X148350Y523250D01*
Y521750D01*
X147600Y521000D02*X148350Y521750D01*
X145350Y521000D02*X147600D01*
X144600Y521750D02*X145350Y521000D01*
X100250Y527000D02*X101000Y526250D01*
X98750Y527000D02*X100250D01*
X98000Y526250D02*X98750Y527000D01*
X98000Y526250D02*Y521750D01*
X98750Y521000D01*
X100250Y524000D02*X101000Y523250D01*
X98000Y524000D02*X100250D01*
X98750Y521000D02*X100250D01*
X101000Y521750D01*
Y523250D02*Y521750D01*
X102800Y524000D02*X105800Y527000D01*
X102800Y524000D02*X106550D01*
X105800Y527000D02*Y521000D01*
X45000Y521750D02*X45750Y521000D01*
X45000Y526250D02*Y521750D01*
Y526250D02*X45750Y527000D01*
X47250D01*
X48000Y526250D01*
Y521750D01*
X47250Y521000D02*X48000Y521750D01*
X45750Y521000D02*X47250D01*
X45000Y522500D02*X48000Y525500D01*
X49800Y521000D02*X50550D01*
X52350Y521750D02*X53100Y521000D01*
X52350Y526250D02*Y521750D01*
Y526250D02*X53100Y527000D01*
X54600D01*
X55350Y526250D01*
Y521750D01*
X54600Y521000D02*X55350Y521750D01*
X53100Y521000D02*X54600D01*
X52350Y522500D02*X55350Y525500D01*
X57150Y526250D02*X57900Y527000D01*
X60150D01*
X60900Y526250D01*
Y524750D01*
X57150Y521000D02*X60900Y524750D01*
X57150Y521000D02*X60900D01*
X62700Y521750D02*X63450Y521000D01*
X62700Y523250D02*Y521750D01*
Y523250D02*X63450Y524000D01*
X64950D01*
X65700Y523250D01*
Y521750D01*
X64950Y521000D02*X65700Y521750D01*
X63450Y521000D02*X64950D01*
X62700Y524750D02*X63450Y524000D01*
X62700Y526250D02*Y524750D01*
Y526250D02*X63450Y527000D01*
X64950D01*
X65700Y526250D01*
Y524750D01*
X64950Y524000D02*X65700Y524750D01*
X777500Y48500D02*Y46900D01*
Y48500D02*X778887Y49300D01*
X777500Y48500D02*X776113Y49300D01*
X777500Y62500D02*Y60900D01*
Y62500D02*X778887Y63300D01*
X777500Y62500D02*X776113Y63300D01*
X157500Y335500D02*Y333900D01*
Y335500D02*X158887Y336300D01*
X157500Y335500D02*X156113Y336300D01*
X136000Y335500D02*Y333900D01*
Y335500D02*X137387Y336300D01*
X136000Y335500D02*X134613Y336300D01*
X142500Y328500D02*Y326900D01*
Y328500D02*X143887Y329300D01*
X142500Y328500D02*X141113Y329300D01*
X211500Y255500D02*Y253900D01*
Y255500D02*X212887Y256300D01*
X211500Y255500D02*X210113Y256300D01*
X487000Y168500D02*Y166900D01*
Y168500D02*X488387Y169300D01*
X487000Y168500D02*X485613Y169300D01*
X641000Y175000D02*Y173400D01*
Y175000D02*X642387Y175800D01*
X641000Y175000D02*X639613Y175800D01*
X286500Y255500D02*Y253900D01*
Y255500D02*X287887Y256300D01*
X286500Y255500D02*X285113Y256300D01*
X497000Y167000D02*Y165400D01*
Y167000D02*X498387Y167800D01*
X497000Y167000D02*X495613Y167800D01*
X505500Y158500D02*Y156900D01*
Y158500D02*X506887Y159300D01*
X505500Y158500D02*X504113Y159300D01*
X620000Y165500D02*Y163900D01*
Y165500D02*X621387Y166300D01*
X620000Y165500D02*X618613Y166300D01*
X395500Y266500D02*Y264900D01*
Y266500D02*X396887Y267300D01*
X395500Y266500D02*X394113Y267300D01*
X567000Y152500D02*Y150900D01*
Y152500D02*X568387Y153300D01*
X567000Y152500D02*X565613Y153300D01*
X488000Y69500D02*Y67900D01*
Y69500D02*X489387Y70300D01*
X488000Y69500D02*X486613Y70300D01*
X545000Y69500D02*Y67900D01*
Y69500D02*X546387Y70300D01*
X545000Y69500D02*X543613Y70300D01*
X463500Y168500D02*Y166900D01*
Y168500D02*X464887Y169300D01*
X463500Y168500D02*X462113Y169300D01*
X406500Y273500D02*Y271900D01*
Y273500D02*X407887Y274300D01*
X406500Y273500D02*X405113Y274300D01*
X224000Y212500D02*Y210900D01*
Y212500D02*X225387Y213300D01*
X224000Y212500D02*X222613Y213300D01*
X626500Y105500D02*Y103900D01*
Y105500D02*X627887Y106300D01*
X626500Y105500D02*X625113Y106300D01*
X678500Y155500D02*Y153900D01*
Y155500D02*X679887Y156300D01*
X678500Y155500D02*X677113Y156300D01*
X658500Y179500D02*Y177900D01*
Y179500D02*X659887Y180300D01*
X658500Y179500D02*X657113Y180300D01*
X15000Y539750D02*Y538150D01*
Y539750D02*X16387Y540550D01*
X15000Y539750D02*X13613Y540550D01*
X135000Y542000D02*Y541250D01*
X136500Y539750D01*
X138000Y541250D01*
Y542000D02*Y541250D01*
X136500Y539750D02*Y536000D01*
X139800Y539000D02*X142050D01*
X139800Y536000D02*X142800D01*
X139800Y542000D02*Y536000D01*
Y542000D02*X142800D01*
X147600D02*X148350Y541250D01*
X145350Y542000D02*X147600D01*
X144600Y541250D02*X145350Y542000D01*
X144600Y541250D02*Y539750D01*
X145350Y539000D01*
X147600D01*
X148350Y538250D01*
Y536750D01*
X147600Y536000D02*X148350Y536750D01*
X145350Y536000D02*X147600D01*
X144600Y536750D02*X145350Y536000D01*
X98000Y541250D02*X98750Y542000D01*
X101000D01*
X101750Y541250D01*
Y539750D01*
X98000Y536000D02*X101750Y539750D01*
X98000Y536000D02*X101750D01*
X103550Y541250D02*X104300Y542000D01*
X106550D01*
X107300Y541250D01*
Y539750D01*
X103550Y536000D02*X107300Y539750D01*
X103550Y536000D02*X107300D01*
X45000Y536750D02*X45750Y536000D01*
X45000Y541250D02*Y536750D01*
Y541250D02*X45750Y542000D01*
X47250D01*
X48000Y541250D01*
Y536750D01*
X47250Y536000D02*X48000Y536750D01*
X45750Y536000D02*X47250D01*
X45000Y537500D02*X48000Y540500D01*
X49800Y536000D02*X50550D01*
X52350Y536750D02*X53100Y536000D01*
X52350Y541250D02*Y536750D01*
Y541250D02*X53100Y542000D01*
X54600D01*
X55350Y541250D01*
Y536750D01*
X54600Y536000D02*X55350Y536750D01*
X53100Y536000D02*X54600D01*
X52350Y537500D02*X55350Y540500D01*
X57150Y541250D02*X57900Y542000D01*
X60150D01*
X60900Y541250D01*
Y539750D01*
X57150Y536000D02*X60900Y539750D01*
X57150Y536000D02*X60900D01*
X62700Y536750D02*X63450Y536000D01*
X62700Y541250D02*Y536750D01*
Y541250D02*X63450Y542000D01*
X64950D01*
X65700Y541250D01*
Y536750D01*
X64950Y536000D02*X65700Y536750D01*
X63450Y536000D02*X64950D01*
X62700Y537500D02*X65700Y540500D01*
X3000Y557000D02*X3750Y556250D01*
X750Y557000D02*X3000D01*
X0Y556250D02*X750Y557000D01*
X0Y556250D02*Y554750D01*
X750Y554000D01*
X3000D01*
X3750Y553250D01*
Y551750D01*
X3000Y551000D02*X3750Y551750D01*
X750Y551000D02*X3000D01*
X0Y551750D02*X750Y551000D01*
X5550Y554000D02*Y551750D01*
X6300Y551000D01*
X8550Y554000D02*Y549500D01*
X7800Y548750D02*X8550Y549500D01*
X6300Y548750D02*X7800D01*
X5550Y549500D02*X6300Y548750D01*
Y551000D02*X7800D01*
X8550Y551750D01*
X11100Y553250D02*Y551000D01*
Y553250D02*X11850Y554000D01*
X12600D01*
X13350Y553250D01*
Y551000D01*
Y553250D02*X14100Y554000D01*
X14850D01*
X15600Y553250D01*
Y551000D01*
X10350Y554000D02*X11100Y553250D01*
X17400Y557000D02*Y551000D01*
Y551750D02*X18150Y551000D01*
X19650D01*
X20400Y551750D01*
Y553250D02*Y551750D01*
X19650Y554000D02*X20400Y553250D01*
X18150Y554000D02*X19650D01*
X17400Y553250D02*X18150Y554000D01*
X22200Y553250D02*Y551750D01*
Y553250D02*X22950Y554000D01*
X24450D01*
X25200Y553250D01*
Y551750D01*
X24450Y551000D02*X25200Y551750D01*
X22950Y551000D02*X24450D01*
X22200Y551750D02*X22950Y551000D01*
X27000Y557000D02*Y551750D01*
X27750Y551000D01*
X0Y547750D02*X29250D01*
X41750Y557000D02*Y551000D01*
X44000Y557000D02*X44750Y556250D01*
Y551750D01*
X44000Y551000D02*X44750Y551750D01*
X41000Y551000D02*X44000D01*
X41000Y557000D02*X44000D01*
X46550Y555500D02*Y554750D01*
Y553250D02*Y551000D01*
X50300Y554000D02*X51050Y553250D01*
X48800Y554000D02*X50300D01*
X48050Y553250D02*X48800Y554000D01*
X48050Y553250D02*Y551750D01*
X48800Y551000D01*
X51050Y554000D02*Y551750D01*
X51800Y551000D01*
X48800D02*X50300D01*
X51050Y551750D01*
X54350Y553250D02*Y551000D01*
Y553250D02*X55100Y554000D01*
X55850D01*
X56600Y553250D01*
Y551000D01*
Y553250D02*X57350Y554000D01*
X58100D01*
X58850Y553250D01*
Y551000D01*
X53600Y554000D02*X54350Y553250D01*
X60650Y551000D02*X61400D01*
X65900Y551750D02*X66650Y551000D01*
X65900Y556250D02*X66650Y557000D01*
X65900Y556250D02*Y551750D01*
X68450Y557000D02*X69950D01*
X69200D02*Y551000D01*
X68450D02*X69950D01*
X72500Y553250D02*Y551000D01*
Y553250D02*X73250Y554000D01*
X74000D01*
X74750Y553250D01*
Y551000D01*
X71750Y554000D02*X72500Y553250D01*
X77300Y554000D02*X79550D01*
X76550Y553250D02*X77300Y554000D01*
X76550Y553250D02*Y551750D01*
X77300Y551000D01*
X79550D01*
X81350Y557000D02*Y551000D01*
Y553250D02*X82100Y554000D01*
X83600D01*
X84350Y553250D01*
Y551000D01*
X86150Y557000D02*X86900Y556250D01*
Y551750D01*
X86150Y551000D02*X86900Y551750D01*
X41000Y547750D02*X88700D01*
X95750Y551000D02*X98000D01*
X95000Y551750D02*X95750Y551000D01*
X95000Y556250D02*Y551750D01*
Y556250D02*X95750Y557000D01*
X98000D01*
X99800Y553250D02*Y551750D01*
Y553250D02*X100550Y554000D01*
X102050D01*
X102800Y553250D01*
Y551750D01*
X102050Y551000D02*X102800Y551750D01*
X100550Y551000D02*X102050D01*
X99800Y551750D02*X100550Y551000D01*
X104600Y554000D02*Y551750D01*
X105350Y551000D01*
X106850D01*
X107600Y551750D01*
Y554000D02*Y551750D01*
X110150Y553250D02*Y551000D01*
Y553250D02*X110900Y554000D01*
X111650D01*
X112400Y553250D01*
Y551000D01*
X109400Y554000D02*X110150Y553250D01*
X114950Y557000D02*Y551750D01*
X115700Y551000D01*
X114200Y554750D02*X115700D01*
X95000Y547750D02*X117200D01*
X130750Y557000D02*Y551000D01*
X130000Y557000D02*X133000D01*
X133750Y556250D01*
Y554750D01*
X133000Y554000D02*X133750Y554750D01*
X130750Y554000D02*X133000D01*
X135550Y557000D02*Y551750D01*
X136300Y551000D01*
X140050Y554000D02*X140800Y553250D01*
X138550Y554000D02*X140050D01*
X137800Y553250D02*X138550Y554000D01*
X137800Y553250D02*Y551750D01*
X138550Y551000D01*
X140800Y554000D02*Y551750D01*
X141550Y551000D01*
X138550D02*X140050D01*
X140800Y551750D01*
X144100Y557000D02*Y551750D01*
X144850Y551000D01*
X143350Y554750D02*X144850D01*
X147100Y551000D02*X149350D01*
X146350Y551750D02*X147100Y551000D01*
X146350Y553250D02*Y551750D01*
Y553250D02*X147100Y554000D01*
X148600D01*
X149350Y553250D01*
X146350Y552500D02*X149350D01*
Y553250D02*Y552500D01*
X154150Y557000D02*Y551000D01*
X153400D02*X154150Y551750D01*
X151900Y551000D02*X153400D01*
X151150Y551750D02*X151900Y551000D01*
X151150Y553250D02*Y551750D01*
Y553250D02*X151900Y554000D01*
X153400D01*
X154150Y553250D01*
X157450Y554000D02*Y553250D01*
Y551750D02*Y551000D01*
X155950Y556250D02*Y555500D01*
Y556250D02*X156700Y557000D01*
X158200D01*
X158950Y556250D01*
Y555500D01*
X157450Y554000D02*X158950Y555500D01*
X130000Y547750D02*X160750D01*
X0Y572000D02*X3000D01*
X1500D02*Y566000D01*
X4800Y572000D02*Y566000D01*
Y568250D02*X5550Y569000D01*
X7050D01*
X7800Y568250D01*
Y566000D01*
X10350D02*X12600D01*
X9600Y566750D02*X10350Y566000D01*
X9600Y568250D02*Y566750D01*
Y568250D02*X10350Y569000D01*
X11850D01*
X12600Y568250D01*
X9600Y567500D02*X12600D01*
Y568250D02*Y567500D01*
X15150Y568250D02*Y566000D01*
Y568250D02*X15900Y569000D01*
X17400D01*
X14400D02*X15150Y568250D01*
X19950Y566000D02*X22200D01*
X19200Y566750D02*X19950Y566000D01*
X19200Y568250D02*Y566750D01*
Y568250D02*X19950Y569000D01*
X21450D01*
X22200Y568250D01*
X19200Y567500D02*X22200D01*
Y568250D02*Y567500D01*
X28950Y569000D02*X29700Y568250D01*
X27450Y569000D02*X28950D01*
X26700Y568250D02*X27450Y569000D01*
X26700Y568250D02*Y566750D01*
X27450Y566000D01*
X29700Y569000D02*Y566750D01*
X30450Y566000D01*
X27450D02*X28950D01*
X29700Y566750D01*
X33000Y568250D02*Y566000D01*
Y568250D02*X33750Y569000D01*
X35250D01*
X32250D02*X33000Y568250D01*
X37800Y566000D02*X40050D01*
X37050Y566750D02*X37800Y566000D01*
X37050Y568250D02*Y566750D01*
Y568250D02*X37800Y569000D01*
X39300D01*
X40050Y568250D01*
X37050Y567500D02*X40050D01*
Y568250D02*Y567500D01*
X45300Y566000D02*X46800D01*
X46050Y572000D02*Y566000D01*
X44550Y570500D02*X46050Y572000D01*
X48600Y571250D02*X49350Y572000D01*
X51600D01*
X52350Y571250D01*
Y569750D01*
X48600Y566000D02*X52350Y569750D01*
X48600Y566000D02*X52350D01*
X59850Y572000D02*Y566000D01*
X59100D02*X59850Y566750D01*
X57600Y566000D02*X59100D01*
X56850Y566750D02*X57600Y566000D01*
X56850Y568250D02*Y566750D01*
Y568250D02*X57600Y569000D01*
X59100D01*
X59850Y568250D01*
X61650Y570500D02*Y569750D01*
Y568250D02*Y566000D01*
X63900Y571250D02*Y566000D01*
Y571250D02*X64650Y572000D01*
X65400D01*
X63150Y569000D02*X64650D01*
X67650Y571250D02*Y566000D01*
Y571250D02*X68400Y572000D01*
X69150D01*
X66900Y569000D02*X68400D01*
X71400Y566000D02*X73650D01*
X70650Y566750D02*X71400Y566000D01*
X70650Y568250D02*Y566750D01*
Y568250D02*X71400Y569000D01*
X72900D01*
X73650Y568250D01*
X70650Y567500D02*X73650D01*
Y568250D02*Y567500D01*
X76200Y568250D02*Y566000D01*
Y568250D02*X76950Y569000D01*
X78450D01*
X75450D02*X76200Y568250D01*
X81000Y566000D02*X83250D01*
X80250Y566750D02*X81000Y566000D01*
X80250Y568250D02*Y566750D01*
Y568250D02*X81000Y569000D01*
X82500D01*
X83250Y568250D01*
X80250Y567500D02*X83250D01*
Y568250D02*Y567500D01*
X85800Y568250D02*Y566000D01*
Y568250D02*X86550Y569000D01*
X87300D01*
X88050Y568250D01*
Y566000D01*
X85050Y569000D02*X85800Y568250D01*
X90600Y572000D02*Y566750D01*
X91350Y566000D01*
X89850Y569750D02*X91350D01*
X98550Y572000D02*Y566000D01*
X97800D02*X98550Y566750D01*
X96300Y566000D02*X97800D01*
X95550Y566750D02*X96300Y566000D01*
X95550Y568250D02*Y566750D01*
Y568250D02*X96300Y569000D01*
X97800D01*
X98550Y568250D01*
X101100D02*Y566000D01*
Y568250D02*X101850Y569000D01*
X103350D01*
X100350D02*X101100Y568250D01*
X105150Y570500D02*Y569750D01*
Y568250D02*Y566000D01*
X106650Y572000D02*Y566750D01*
X107400Y566000D01*
X108900Y572000D02*Y566750D01*
X109650Y566000D01*
X114600D02*X116850D01*
X117600Y566750D01*
X116850Y567500D02*X117600Y566750D01*
X114600Y567500D02*X116850D01*
X113850Y568250D02*X114600Y567500D01*
X113850Y568250D02*X114600Y569000D01*
X116850D01*
X117600Y568250D01*
X113850Y566750D02*X114600Y566000D01*
X119400Y570500D02*Y569750D01*
Y568250D02*Y566000D01*
X120900Y569000D02*X123900D01*
X120900Y566000D02*X123900Y569000D01*
X120900Y566000D02*X123900D01*
X126450D02*X128700D01*
X125700Y566750D02*X126450Y566000D01*
X125700Y568250D02*Y566750D01*
Y568250D02*X126450Y569000D01*
X127950D01*
X128700Y568250D01*
X125700Y567500D02*X128700D01*
Y568250D02*Y567500D01*
X131250Y566000D02*X133500D01*
X134250Y566750D01*
X133500Y567500D02*X134250Y566750D01*
X131250Y567500D02*X133500D01*
X130500Y568250D02*X131250Y567500D01*
X130500Y568250D02*X131250Y569000D01*
X133500D01*
X134250Y568250D01*
X130500Y566750D02*X131250Y566000D01*
X138750Y569000D02*Y566750D01*
X139500Y566000D01*
X141000D01*
X141750Y566750D01*
Y569000D02*Y566750D01*
X144300Y566000D02*X146550D01*
X147300Y566750D01*
X146550Y567500D02*X147300Y566750D01*
X144300Y567500D02*X146550D01*
X143550Y568250D02*X144300Y567500D01*
X143550Y568250D02*X144300Y569000D01*
X146550D01*
X147300Y568250D01*
X143550Y566750D02*X144300Y566000D01*
X149850D02*X152100D01*
X149100Y566750D02*X149850Y566000D01*
X149100Y568250D02*Y566750D01*
Y568250D02*X149850Y569000D01*
X151350D01*
X152100Y568250D01*
X149100Y567500D02*X152100D01*
Y568250D02*Y567500D01*
X156900Y572000D02*Y566000D01*
X156150D02*X156900Y566750D01*
X154650Y566000D02*X156150D01*
X153900Y566750D02*X154650Y566000D01*
X153900Y568250D02*Y566750D01*
Y568250D02*X154650Y569000D01*
X156150D01*
X156900Y568250D01*
X161400Y570500D02*Y569750D01*
Y568250D02*Y566000D01*
X163650Y568250D02*Y566000D01*
Y568250D02*X164400Y569000D01*
X165150D01*
X165900Y568250D01*
Y566000D01*
X162900Y569000D02*X163650Y568250D01*
X171150Y572000D02*Y566750D01*
X171900Y566000D01*
X170400Y569750D02*X171900D01*
X173400Y572000D02*Y566000D01*
Y568250D02*X174150Y569000D01*
X175650D01*
X176400Y568250D01*
Y566000D01*
X178200Y570500D02*Y569750D01*
Y568250D02*Y566000D01*
X180450D02*X182700D01*
X183450Y566750D01*
X182700Y567500D02*X183450Y566750D01*
X180450Y567500D02*X182700D01*
X179700Y568250D02*X180450Y567500D01*
X179700Y568250D02*X180450Y569000D01*
X182700D01*
X183450Y568250D01*
X179700Y566750D02*X180450Y566000D01*
X187950Y572000D02*Y566750D01*
X188700Y566000D01*
X192450Y569000D02*X193200Y568250D01*
X190950Y569000D02*X192450D01*
X190200Y568250D02*X190950Y569000D01*
X190200Y568250D02*Y566750D01*
X190950Y566000D01*
X193200Y569000D02*Y566750D01*
X193950Y566000D01*
X190950D02*X192450D01*
X193200Y566750D01*
X195750Y569000D02*Y566750D01*
X196500Y566000D01*
X198750Y569000D02*Y564500D01*
X198000Y563750D02*X198750Y564500D01*
X196500Y563750D02*X198000D01*
X195750Y564500D02*X196500Y563750D01*
Y566000D02*X198000D01*
X198750Y566750D01*
X200550Y568250D02*Y566750D01*
Y568250D02*X201300Y569000D01*
X202800D01*
X203550Y568250D01*
Y566750D01*
X202800Y566000D02*X203550Y566750D01*
X201300Y566000D02*X202800D01*
X200550Y566750D02*X201300Y566000D01*
X205350Y569000D02*Y566750D01*
X206100Y566000D01*
X207600D01*
X208350Y566750D01*
Y569000D02*Y566750D01*
X210900Y572000D02*Y566750D01*
X211650Y566000D01*
X210150Y569750D02*X211650D01*
X213150Y564500D02*X214650Y566000D01*
X219150Y571250D02*X219900Y572000D01*
X221400D01*
X222150Y571250D01*
Y566750D01*
X221400Y566000D02*X222150Y566750D01*
X219900Y566000D02*X221400D01*
X219150Y566750D02*X219900Y566000D01*
Y569000D02*X222150D01*
X223950Y566750D02*X224700Y566000D01*
X223950Y571250D02*Y566750D01*
Y571250D02*X224700Y572000D01*
X226200D01*
X226950Y571250D01*
Y566750D01*
X226200Y566000D02*X226950Y566750D01*
X224700Y566000D02*X226200D01*
X223950Y567500D02*X226950Y570500D01*
X228750Y571250D02*X229500Y572000D01*
X231750D01*
X232500Y571250D01*
Y569750D01*
X228750Y566000D02*X232500Y569750D01*
X228750Y566000D02*X232500D01*
X237000Y572000D02*Y566000D01*
Y568250D02*X237750Y569000D01*
X239250D01*
X240000Y568250D01*
Y566000D01*
X241800Y568250D02*Y566750D01*
Y568250D02*X242550Y569000D01*
X244050D01*
X244800Y568250D01*
Y566750D01*
X244050Y566000D02*X244800Y566750D01*
X242550Y566000D02*X244050D01*
X241800Y566750D02*X242550Y566000D01*
X246600Y572000D02*Y566750D01*
X247350Y566000D01*
X249600D02*X251850D01*
X248850Y566750D02*X249600Y566000D01*
X248850Y568250D02*Y566750D01*
Y568250D02*X249600Y569000D01*
X251100D01*
X251850Y568250D01*
X248850Y567500D02*X251850D01*
Y568250D02*Y567500D01*
X254400Y566000D02*X256650D01*
X257400Y566750D01*
X256650Y567500D02*X257400Y566750D01*
X254400Y567500D02*X256650D01*
X253650Y568250D02*X254400Y567500D01*
X253650Y568250D02*X254400Y569000D01*
X256650D01*
X257400Y568250D01*
X253650Y566750D02*X254400Y566000D01*
X262650Y572000D02*Y566750D01*
X263400Y566000D01*
X261900Y569750D02*X263400D01*
X264900Y568250D02*Y566750D01*
Y568250D02*X265650Y569000D01*
X267150D01*
X267900Y568250D01*
Y566750D01*
X267150Y566000D02*X267900Y566750D01*
X265650Y566000D02*X267150D01*
X264900Y566750D02*X265650Y566000D01*
X270450Y572000D02*Y566750D01*
X271200Y566000D01*
X269700Y569750D02*X271200D01*
X274950Y569000D02*X275700Y568250D01*
X273450Y569000D02*X274950D01*
X272700Y568250D02*X273450Y569000D01*
X272700Y568250D02*Y566750D01*
X273450Y566000D01*
X275700Y569000D02*Y566750D01*
X276450Y566000D01*
X273450D02*X274950D01*
X275700Y566750D01*
X278250Y572000D02*Y566750D01*
X279000Y566000D01*
G54D113*X891000Y361500D02*Y37000D01*
X2500D01*
Y361500D01*
X891000D02*X2500D01*
G54D112*X360425Y-9500D02*X363425D01*
X364175Y-8750D01*
Y-7250D02*Y-8750D01*
X363425Y-6500D02*X364175Y-7250D01*
X361175Y-6500D02*X363425D01*
X361175Y-3500D02*Y-9500D01*
X360425Y-3500D02*X363425D01*
X364175Y-4250D01*
Y-5750D01*
X363425Y-6500D02*X364175Y-5750D01*
X365975Y-7250D02*Y-8750D01*
Y-7250D02*X366725Y-6500D01*
X368225D01*
X368975Y-7250D01*
Y-8750D01*
X368225Y-9500D02*X368975Y-8750D01*
X366725Y-9500D02*X368225D01*
X365975Y-8750D02*X366725Y-9500D01*
X373025Y-6500D02*X373775Y-7250D01*
X371525Y-6500D02*X373025D01*
X370775Y-7250D02*X371525Y-6500D01*
X370775Y-7250D02*Y-8750D01*
X371525Y-9500D01*
X373775Y-6500D02*Y-8750D01*
X374525Y-9500D01*
X371525D02*X373025D01*
X373775Y-8750D01*
X377075Y-7250D02*Y-9500D01*
Y-7250D02*X377825Y-6500D01*
X379325D01*
X376325D02*X377075Y-7250D01*
X384125Y-3500D02*Y-9500D01*
X383375D02*X384125Y-8750D01*
X381875Y-9500D02*X383375D01*
X381125Y-8750D02*X381875Y-9500D01*
X381125Y-7250D02*Y-8750D01*
Y-7250D02*X381875Y-6500D01*
X383375D01*
X384125Y-7250D01*
X388625D02*Y-8750D01*
Y-7250D02*X389375Y-6500D01*
X390875D01*
X391625Y-7250D01*
Y-8750D01*
X390875Y-9500D02*X391625Y-8750D01*
X389375Y-9500D02*X390875D01*
X388625Y-8750D02*X389375Y-9500D01*
X393425Y-6500D02*Y-8750D01*
X394175Y-9500D01*
X395675D01*
X396425Y-8750D01*
Y-6500D02*Y-8750D01*
X398975Y-3500D02*Y-8750D01*
X399725Y-9500D01*
X398225Y-5750D02*X399725D01*
X401225Y-3500D02*Y-8750D01*
X401975Y-9500D01*
X403475Y-5000D02*Y-5750D01*
Y-7250D02*Y-9500D01*
X405725Y-7250D02*Y-9500D01*
Y-7250D02*X406475Y-6500D01*
X407225D01*
X407975Y-7250D01*
Y-9500D01*
X404975Y-6500D02*X405725Y-7250D01*
X410525Y-9500D02*X412775D01*
X409775Y-8750D02*X410525Y-9500D01*
X409775Y-7250D02*Y-8750D01*
Y-7250D02*X410525Y-6500D01*
X412025D01*
X412775Y-7250D01*
X409775Y-8000D02*X412775D01*
Y-7250D02*Y-8000D01*
X417275Y-5000D02*Y-5750D01*
Y-7250D02*Y-9500D01*
X419525D02*X421775D01*
X422525Y-8750D01*
X421775Y-8000D02*X422525Y-8750D01*
X419525Y-8000D02*X421775D01*
X418775Y-7250D02*X419525Y-8000D01*
X418775Y-7250D02*X419525Y-6500D01*
X421775D01*
X422525Y-7250D01*
X418775Y-8750D02*X419525Y-9500D01*
X427775Y-3500D02*Y-8750D01*
X428525Y-9500D01*
X427025Y-5750D02*X428525D01*
X430025Y-3500D02*Y-9500D01*
Y-7250D02*X430775Y-6500D01*
X432275D01*
X433025Y-7250D01*
Y-9500D01*
X435575D02*X437825D01*
X434825Y-8750D02*X435575Y-9500D01*
X434825Y-7250D02*Y-8750D01*
Y-7250D02*X435575Y-6500D01*
X437075D01*
X437825Y-7250D01*
X434825Y-8000D02*X437825D01*
Y-7250D02*Y-8000D01*
X443075Y-6500D02*X445325D01*
X442325Y-7250D02*X443075Y-6500D01*
X442325Y-7250D02*Y-8750D01*
X443075Y-9500D01*
X445325D01*
X447875D02*X450125D01*
X447125Y-8750D02*X447875Y-9500D01*
X447125Y-7250D02*Y-8750D01*
Y-7250D02*X447875Y-6500D01*
X449375D01*
X450125Y-7250D01*
X447125Y-8000D02*X450125D01*
Y-7250D02*Y-8000D01*
X452675Y-7250D02*Y-9500D01*
Y-7250D02*X453425Y-6500D01*
X454175D01*
X454925Y-7250D01*
Y-9500D01*
X451925Y-6500D02*X452675Y-7250D01*
X457475Y-3500D02*Y-8750D01*
X458225Y-9500D01*
X456725Y-5750D02*X458225D01*
X460475Y-9500D02*X462725D01*
X459725Y-8750D02*X460475Y-9500D01*
X459725Y-7250D02*Y-8750D01*
Y-7250D02*X460475Y-6500D01*
X461975D01*
X462725Y-7250D01*
X459725Y-8000D02*X462725D01*
Y-7250D02*Y-8000D01*
X465275Y-7250D02*Y-9500D01*
Y-7250D02*X466025Y-6500D01*
X467525D01*
X464525D02*X465275Y-7250D01*
X469325Y-3500D02*Y-8750D01*
X470075Y-9500D01*
X471575Y-5000D02*Y-5750D01*
Y-7250D02*Y-9500D01*
X473825Y-7250D02*Y-9500D01*
Y-7250D02*X474575Y-6500D01*
X475325D01*
X476075Y-7250D01*
Y-9500D01*
X473075Y-6500D02*X473825Y-7250D01*
X478625Y-9500D02*X480875D01*
X477875Y-8750D02*X478625Y-9500D01*
X477875Y-7250D02*Y-8750D01*
Y-7250D02*X478625Y-6500D01*
X480125D01*
X480875Y-7250D01*
X477875Y-8000D02*X480875D01*
Y-7250D02*Y-8000D01*
X485375Y-7250D02*Y-8750D01*
Y-7250D02*X486125Y-6500D01*
X487625D01*
X488375Y-7250D01*
Y-8750D01*
X487625Y-9500D02*X488375Y-8750D01*
X486125Y-9500D02*X487625D01*
X485375Y-8750D02*X486125Y-9500D01*
X490925Y-4250D02*Y-9500D01*
Y-4250D02*X491675Y-3500D01*
X492425D01*
X490175Y-6500D02*X491675D01*
X497375Y-3500D02*Y-8750D01*
X498125Y-9500D01*
X496625Y-5750D02*X498125D01*
X499625Y-3500D02*Y-9500D01*
Y-7250D02*X500375Y-6500D01*
X501875D01*
X502625Y-7250D01*
Y-9500D01*
X504425Y-5000D02*Y-5750D01*
Y-7250D02*Y-9500D01*
X506675D02*X508925D01*
X509675Y-8750D01*
X508925Y-8000D02*X509675Y-8750D01*
X506675Y-8000D02*X508925D01*
X505925Y-7250D02*X506675Y-8000D01*
X505925Y-7250D02*X506675Y-6500D01*
X508925D01*
X509675Y-7250D01*
X505925Y-8750D02*X506675Y-9500D01*
X514925Y-7250D02*Y-11750D01*
X514175Y-6500D02*X514925Y-7250D01*
X515675Y-6500D01*
X517175D01*
X517925Y-7250D01*
Y-8750D01*
X517175Y-9500D02*X517925Y-8750D01*
X515675Y-9500D02*X517175D01*
X514925Y-8750D02*X515675Y-9500D01*
X521975Y-6500D02*X522725Y-7250D01*
X520475Y-6500D02*X521975D01*
X519725Y-7250D02*X520475Y-6500D01*
X519725Y-7250D02*Y-8750D01*
X520475Y-9500D01*
X522725Y-6500D02*Y-8750D01*
X523475Y-9500D01*
X520475D02*X521975D01*
X522725Y-8750D01*
X526025Y-3500D02*Y-8750D01*
X526775Y-9500D01*
X525275Y-5750D02*X526775D01*
X528275Y-3500D02*Y-9500D01*
Y-7250D02*X529025Y-6500D01*
X530525D01*
X531275Y-7250D01*
Y-9500D01*
X200750Y392000D02*Y386000D01*
X203000Y392000D02*X203750Y391250D01*
Y386750D01*
X203000Y386000D02*X203750Y386750D01*
X200000Y386000D02*X203000D01*
X200000Y392000D02*X203000D01*
X207800Y389000D02*X208550Y388250D01*
X206300Y389000D02*X207800D01*
X205550Y388250D02*X206300Y389000D01*
X205550Y388250D02*Y386750D01*
X206300Y386000D01*
X208550Y389000D02*Y386750D01*
X209300Y386000D01*
X206300D02*X207800D01*
X208550Y386750D01*
X211850Y392000D02*Y386750D01*
X212600Y386000D01*
X211100Y389750D02*X212600D01*
X214850Y386000D02*X217100D01*
X214100Y386750D02*X214850Y386000D01*
X214100Y388250D02*Y386750D01*
Y388250D02*X214850Y389000D01*
X216350D01*
X217100Y388250D01*
X214100Y387500D02*X217100D01*
Y388250D02*Y387500D01*
X218900Y389750D02*X219650D01*
X218900Y388250D02*X219650D01*
X224150Y392000D02*Y386000D01*
Y392000D02*X227150D01*
X224150Y389000D02*X226400D01*
X229700Y388250D02*Y386000D01*
Y388250D02*X230450Y389000D01*
X231950D01*
X228950D02*X229700Y388250D01*
X233750Y390500D02*Y389750D01*
Y388250D02*Y386000D01*
X237950Y391250D02*Y386000D01*
Y391250D02*X238700Y392000D01*
X240950D01*
X241700Y391250D01*
Y386000D01*
X237950Y389000D02*X241700D01*
X243500D02*Y386750D01*
X244250Y386000D01*
X245750D01*
X246500Y386750D01*
Y389000D02*Y386750D01*
X250550Y389000D02*X251300Y388250D01*
X249050Y389000D02*X250550D01*
X248300Y388250D02*X249050Y389000D01*
X248300Y388250D02*Y386750D01*
X249050Y386000D01*
X250550D01*
X251300Y386750D01*
X248300Y384500D02*X249050Y383750D01*
X250550D01*
X251300Y384500D01*
Y389000D02*Y384500D01*
X255800Y391250D02*X256550Y392000D01*
X258050D01*
X258800Y391250D01*
Y386750D01*
X258050Y386000D02*X258800Y386750D01*
X256550Y386000D02*X258050D01*
X255800Y386750D02*X256550Y386000D01*
Y389000D02*X258800D01*
X261350Y386000D02*X262850D01*
X262100Y392000D02*Y386000D01*
X260600Y390500D02*X262100Y392000D01*
X268100Y386000D02*X269600D01*
X268850Y392000D02*Y386000D01*
X267350Y390500D02*X268850Y392000D01*
X271400Y386000D02*X275150Y389750D01*
Y392000D02*Y389750D01*
X271400Y392000D02*X275150D01*
X276950Y389750D02*X277700D01*
X276950Y388250D02*X277700D01*
X279500Y392000D02*X282500D01*
X279500D02*Y389000D01*
X280250Y389750D01*
X281750D01*
X282500Y389000D01*
Y386750D01*
X281750Y386000D02*X282500Y386750D01*
X280250Y386000D02*X281750D01*
X279500Y386750D02*X280250Y386000D01*
X284300Y386750D02*X285050Y386000D01*
X284300Y391250D02*Y386750D01*
Y391250D02*X285050Y392000D01*
X286550D01*
X287300Y391250D01*
Y386750D01*
X286550Y386000D02*X287300Y386750D01*
X285050Y386000D02*X286550D01*
X284300Y387500D02*X287300Y390500D01*
X289100Y389750D02*X289850D01*
X289100Y388250D02*X289850D01*
X291650Y389000D02*X294650Y392000D01*
X291650Y389000D02*X295400D01*
X294650Y392000D02*Y386000D01*
X297200Y386750D02*X297950Y386000D01*
X297200Y391250D02*Y386750D01*
Y391250D02*X297950Y392000D01*
X299450D01*
X300200Y391250D01*
Y386750D01*
X299450Y386000D02*X300200Y386750D01*
X297950Y386000D02*X299450D01*
X297200Y387500D02*X300200Y390500D01*
X304700Y391250D02*X305450Y392000D01*
X307700D01*
X308450Y391250D01*
Y389750D01*
X304700Y386000D02*X308450Y389750D01*
X304700Y386000D02*X308450D01*
X310250Y386750D02*X311000Y386000D01*
X310250Y391250D02*Y386750D01*
Y391250D02*X311000Y392000D01*
X312500D01*
X313250Y391250D01*
Y386750D01*
X312500Y386000D02*X313250Y386750D01*
X311000Y386000D02*X312500D01*
X310250Y387500D02*X313250Y390500D01*
X315800Y386000D02*X317300D01*
X316550Y392000D02*Y386000D01*
X315050Y390500D02*X316550Y392000D01*
X319100Y391250D02*X319850Y392000D01*
X322100D01*
X322850Y391250D01*
Y389750D01*
X319100Y386000D02*X322850Y389750D01*
X319100Y386000D02*X322850D01*
X327350Y392000D02*Y386750D01*
X328100Y386000D01*
X329600D01*
X330350Y386750D01*
Y392000D02*Y386750D01*
X332150Y392000D02*X335150D01*
X333650D02*Y386000D01*
X337700D02*X339950D01*
X336950Y386750D02*X337700Y386000D01*
X336950Y391250D02*Y386750D01*
Y391250D02*X337700Y392000D01*
X339950D01*
X200000Y406250D02*Y401000D01*
Y406250D02*X200750Y407000D01*
X203000D01*
X203750Y406250D01*
Y401000D01*
X200000Y404000D02*X203750D01*
X205550D02*Y401750D01*
X206300Y401000D01*
X207800D01*
X208550Y401750D01*
Y404000D02*Y401750D01*
X211100Y407000D02*Y401750D01*
X211850Y401000D01*
X210350Y404750D02*X211850D01*
X213350Y407000D02*Y401000D01*
Y403250D02*X214100Y404000D01*
X215600D01*
X216350Y403250D01*
Y401000D01*
X218150Y403250D02*Y401750D01*
Y403250D02*X218900Y404000D01*
X220400D01*
X221150Y403250D01*
Y401750D01*
X220400Y401000D02*X221150Y401750D01*
X218900Y401000D02*X220400D01*
X218150Y401750D02*X218900Y401000D01*
X223700Y403250D02*Y401000D01*
Y403250D02*X224450Y404000D01*
X225950D01*
X222950D02*X223700Y403250D01*
X227750Y404750D02*X228500D01*
X227750Y403250D02*X228500D01*
X200000Y422000D02*X203000D01*
X201500D02*Y416000D01*
X204800Y420500D02*Y419750D01*
Y418250D02*Y416000D01*
X207050Y422000D02*Y416750D01*
X207800Y416000D01*
X206300Y419750D02*X207800D01*
X209300Y422000D02*Y416750D01*
X210050Y416000D01*
X212300D02*X214550D01*
X211550Y416750D02*X212300Y416000D01*
X211550Y418250D02*Y416750D01*
Y418250D02*X212300Y419000D01*
X213800D01*
X214550Y418250D01*
X211550Y417500D02*X214550D01*
Y418250D02*Y417500D01*
X216350Y419750D02*X217100D01*
X216350Y418250D02*X217100D01*
X221600Y416750D02*X222350Y416000D01*
X221600Y421250D02*X222350Y422000D01*
X221600Y421250D02*Y416750D01*
X224150Y419000D02*Y416750D01*
X224900Y416000D01*
X226400D01*
X227150Y416750D01*
Y419000D02*Y416750D01*
X229700Y418250D02*Y416000D01*
Y418250D02*X230450Y419000D01*
X231200D01*
X231950Y418250D01*
Y416000D01*
X228950Y419000D02*X229700Y418250D01*
X233750Y422000D02*Y416000D01*
Y418250D02*X236000Y416000D01*
X233750Y418250D02*X235250Y419750D01*
X238550Y418250D02*Y416000D01*
Y418250D02*X239300Y419000D01*
X240050D01*
X240800Y418250D01*
Y416000D01*
X237800Y419000D02*X238550Y418250D01*
X242600D02*Y416750D01*
Y418250D02*X243350Y419000D01*
X244850D01*
X245600Y418250D01*
Y416750D01*
X244850Y416000D02*X245600Y416750D01*
X243350Y416000D02*X244850D01*
X242600Y416750D02*X243350Y416000D01*
X247400Y419000D02*Y416750D01*
X248150Y416000D01*
X248900D01*
X249650Y416750D01*
Y419000D02*Y416750D01*
X250400Y416000D01*
X251150D01*
X251900Y416750D01*
Y419000D02*Y416750D01*
X254450Y418250D02*Y416000D01*
Y418250D02*X255200Y419000D01*
X255950D01*
X256700Y418250D01*
Y416000D01*
X253700Y419000D02*X254450Y418250D01*
X258500Y422000D02*X259250Y421250D01*
Y416750D01*
X258500Y416000D02*X259250Y416750D01*
X263750Y419000D02*X266750D01*
X271250Y422000D02*Y416000D01*
Y422000D02*X274250D01*
X271250Y419000D02*X273500D01*
X278300D02*X279050Y418250D01*
X276800Y419000D02*X278300D01*
X276050Y418250D02*X276800Y419000D01*
X276050Y418250D02*Y416750D01*
X276800Y416000D01*
X279050Y419000D02*Y416750D01*
X279800Y416000D01*
X276800D02*X278300D01*
X279050Y416750D01*
X281600Y422000D02*Y416000D01*
Y416750D02*X282350Y416000D01*
X283850D01*
X284600Y416750D01*
Y418250D02*Y416750D01*
X283850Y419000D02*X284600Y418250D01*
X282350Y419000D02*X283850D01*
X281600Y418250D02*X282350Y419000D01*
X287150Y418250D02*Y416000D01*
Y418250D02*X287900Y419000D01*
X289400D01*
X286400D02*X287150Y418250D01*
X291200Y420500D02*Y419750D01*
Y418250D02*Y416000D01*
X293450Y419000D02*X295700D01*
X292700Y418250D02*X293450Y419000D01*
X292700Y418250D02*Y416750D01*
X293450Y416000D01*
X295700D01*
X299750Y419000D02*X300500Y418250D01*
X298250Y419000D02*X299750D01*
X297500Y418250D02*X298250Y419000D01*
X297500Y418250D02*Y416750D01*
X298250Y416000D01*
X300500Y419000D02*Y416750D01*
X301250Y416000D01*
X298250D02*X299750D01*
X300500Y416750D01*
X303800Y422000D02*Y416750D01*
X304550Y416000D01*
X303050Y419750D02*X304550D01*
X306050Y420500D02*Y419750D01*
Y418250D02*Y416000D01*
X307550Y418250D02*Y416750D01*
Y418250D02*X308300Y419000D01*
X309800D01*
X310550Y418250D01*
Y416750D01*
X309800Y416000D02*X310550Y416750D01*
X308300Y416000D02*X309800D01*
X307550Y416750D02*X308300Y416000D01*
X313100Y418250D02*Y416000D01*
Y418250D02*X313850Y419000D01*
X314600D01*
X315350Y418250D01*
Y416000D01*
X312350Y419000D02*X313100Y418250D01*
X320600Y422000D02*Y416000D01*
X322850Y422000D02*X323600Y421250D01*
Y416750D01*
X322850Y416000D02*X323600Y416750D01*
X319850Y416000D02*X322850D01*
X319850Y422000D02*X322850D01*
X326150Y418250D02*Y416000D01*
Y418250D02*X326900Y419000D01*
X328400D01*
X325400D02*X326150Y418250D01*
X332450Y419000D02*X333200Y418250D01*
X330950Y419000D02*X332450D01*
X330200Y418250D02*X330950Y419000D01*
X330200Y418250D02*Y416750D01*
X330950Y416000D01*
X333200Y419000D02*Y416750D01*
X333950Y416000D01*
X330950D02*X332450D01*
X333200Y416750D01*
X335750Y419000D02*Y416750D01*
X336500Y416000D01*
X337250D01*
X338000Y416750D01*
Y419000D02*Y416750D01*
X338750Y416000D01*
X339500D01*
X340250Y416750D01*
Y419000D02*Y416750D01*
X342050Y420500D02*Y419750D01*
Y418250D02*Y416000D01*
X344300Y418250D02*Y416000D01*
Y418250D02*X345050Y419000D01*
X345800D01*
X346550Y418250D01*
Y416000D01*
X343550Y419000D02*X344300Y418250D01*
X350600Y419000D02*X351350Y418250D01*
X349100Y419000D02*X350600D01*
X348350Y418250D02*X349100Y419000D01*
X348350Y418250D02*Y416750D01*
X349100Y416000D01*
X350600D01*
X351350Y416750D01*
X348350Y414500D02*X349100Y413750D01*
X350600D01*
X351350Y414500D01*
Y419000D02*Y414500D01*
M02*
