G04 start of page 2 for group 0 idx 0 *
G04 Title: (unknown), component *
G04 Creator: pcb 20110918 *
G04 CreationDate: Fri Aug 31 17:50:40 2012 UTC *
G04 For: fosse *
G04 Format: Gerber/RS-274X *
G04 PCB-Dimensions: 893500 363500 *
G04 PCB-Coordinate-Origin: lower left *
%MOIN*%
%FSLAX25Y25*%
%LNTOP*%
%ADD38C,0.0395*%
%ADD37C,0.0500*%
%ADD36C,0.0510*%
%ADD35C,0.0420*%
%ADD34C,0.0472*%
%ADD33C,0.0315*%
%ADD32C,0.0380*%
%ADD31C,0.0790*%
%ADD30C,0.0320*%
%ADD29C,0.0300*%
%ADD28C,0.0280*%
%ADD27C,0.0460*%
%ADD26R,0.0590X0.0590*%
%ADD25C,0.0700*%
%ADD24C,0.0900*%
%ADD23C,0.0720*%
%ADD22C,0.0650*%
%ADD21C,0.0787*%
%ADD20C,0.2000*%
%ADD19C,0.0800*%
%ADD18C,0.0550*%
%ADD17C,0.0600*%
%ADD16C,0.0090*%
%ADD15C,0.0100*%
%ADD14C,0.0350*%
%ADD13C,0.0400*%
%ADD12C,0.0200*%
%ADD11C,0.0001*%
G54D11*G36*
X881400Y49300D02*Y48300D01*
X880400D01*
Y49300D01*
X881400D01*
G37*
G36*
X880400Y48300D02*Y47300D01*
X879400D01*
Y48300D01*
X880400D01*
G37*
G36*
X808400Y343300D02*Y342300D01*
X807400D01*
Y343300D01*
X808400D01*
G37*
G36*
X807400Y342300D02*Y341300D01*
X806400D01*
Y342300D01*
X807400D01*
G37*
G36*
X12900Y343300D02*Y342300D01*
X11900D01*
Y343300D01*
X12900D01*
G37*
G36*
X11900Y342300D02*Y341300D01*
X10900D01*
Y342300D01*
X11900D01*
G37*
G36*
X21900Y53800D02*Y52800D01*
X20900D01*
Y53800D01*
X21900D01*
G37*
G36*
X20900Y52800D02*Y51800D01*
X19900D01*
Y52800D01*
X20900D01*
G37*
G36*
X598000Y295000D02*Y294000D01*
X597000D01*
Y295000D01*
X598000D01*
G37*
G36*
X597000Y294000D02*Y293000D01*
X596000D01*
Y294000D01*
X597000D01*
G37*
G54D12*X16000Y196000D02*X21500D01*
X31000Y186500D01*
X16000Y196000D02*Y166000D01*
G54D13*X46000Y216000D02*X52000D01*
G54D12*X31000Y226000D02*X52500D01*
X16000Y236000D02*X46000D01*
G54D13*X20000Y142000D02*X65000D01*
G54D12*X46000Y196000D02*Y176000D01*
X56000Y166000D01*
G54D13*X52000Y216000D02*X68000Y200000D01*
Y157000D01*
X76000Y202000D02*Y153000D01*
G54D14*X111500Y181000D02*X124000Y193500D01*
G54D12*X116500Y196000D02*X124000Y203500D01*
X168500Y215000D02*Y221000D01*
X201000D02*Y214500D01*
X196000Y209500D01*
X191000Y235000D02*Y221000D01*
X86000Y196000D02*X116500D01*
X110000Y131000D02*Y171500D01*
X125000Y186500D01*
G54D13*X189000Y91000D02*X213500D01*
G54D12*X204000Y68500D02*X209000Y73500D01*
X164000Y64000D02*X204000D01*
X169000Y73500D02*Y91000D01*
X146500D01*
X159000Y69000D02*X164000Y64000D01*
X159000Y76000D02*Y69000D01*
X154000Y81000D02*X159000Y76000D01*
G54D13*X169000Y111000D02*X156500D01*
X189000Y91000D02*X169000Y111000D01*
G54D12*X204000Y60000D02*X199000Y55000D01*
X204000Y68500D02*Y60000D01*
G54D13*X217000Y87500D02*Y43000D01*
X68000Y157000D02*X60000Y149000D01*
X76000Y153000D02*X65000Y142000D01*
X60000Y149000D02*X17000D01*
X11000Y133000D02*X20000Y142000D01*
X17000Y149000D02*X11000Y143000D01*
Y51000D02*Y133000D01*
G54D12*X67000Y71000D02*X53500Y84500D01*
Y109500D01*
X65000Y121000D01*
G54D13*X19000Y43000D02*X11000Y51000D01*
G54D12*X139000Y81000D02*X154000D01*
X139000D02*X129000Y91000D01*
X130500Y55000D02*X146500Y71000D01*
X116500Y91000D02*X129000D01*
X116500Y71000D02*X67000D01*
G54D14*X116500Y81000D02*X88500D01*
G54D12*Y55000D02*X130500D01*
X65000Y121000D02*X100000D01*
G54D14*X88500Y81000D02*X68500Y101000D01*
G54D12*X100000Y121000D02*X110000Y131000D01*
G54D13*X213500Y91000D02*X217000Y87500D01*
G54D14*Y105500D02*X273500Y162000D01*
X217000Y87500D02*Y105500D01*
X287000Y202500D02*Y146527D01*
X256973Y116500D01*
G54D13*X156500Y111000D02*X146500Y101000D01*
G54D12*X196000Y209500D02*X174000D01*
X186000Y248500D02*X168500D01*
X213500Y202000D02*X148500D01*
X174000Y209500D02*X168500Y215000D01*
X169000Y220500D02*X151000Y238500D01*
G54D14*X124000Y193500D02*X219000D01*
G54D12*X126000Y166000D02*X255000D01*
X125000Y186500D02*X240500D01*
X126587Y338965D02*X115465D01*
X108500Y332000D01*
X126587Y330894D02*X131394D01*
X135560Y308060D02*X151000Y323500D01*
X142500Y348000D02*Y328500D01*
X136771Y353729D02*X142500Y348000D01*
X126587Y353729D02*X136771D01*
X131394Y330894D02*X136000Y335500D01*
X151000Y323500D02*Y343500D01*
X157500Y335500D02*X168000D01*
X211500Y292000D01*
X56000Y281000D02*X68500Y268500D01*
X56000Y229500D02*Y268500D01*
Y284000D02*Y281000D01*
X76000Y226000D02*X92500D01*
G54D13*X76000Y236000D02*X71000D01*
G54D12*X51000Y307000D02*Y289000D01*
X56000Y284000D01*
G54D13*X67000Y211000D02*Y232000D01*
X71000Y236000D01*
G54D12*X52500Y226000D02*X56000Y229500D01*
G54D13*X67000Y211000D02*X76000Y202000D01*
G54D12*X93500Y284000D02*X56000D01*
X168500Y248500D02*X143000Y274000D01*
X151000Y258500D02*X126500Y283000D01*
X151000Y258500D02*Y238500D01*
X143000Y274000D02*Y294500D01*
X92500Y226000D02*X108500Y242000D01*
Y268500D02*Y242000D01*
G54D14*X86000Y181000D02*X111500D01*
G54D12*X115500Y293500D02*X126383D01*
X108500Y242000D02*X148500Y202000D01*
X126587Y308060D02*X135560D01*
X126500Y293209D02*X126587Y293296D01*
X143000Y294500D02*X137000Y300500D01*
X108500Y332000D02*Y300500D01*
X117500Y316500D02*X126217D01*
X114000Y313000D02*X117500Y316500D01*
X126217D02*X126587Y316130D01*
X126383Y293500D02*X126587Y293296D01*
X114000Y306500D02*Y313000D01*
X126500Y283000D02*Y293209D01*
X108500Y300500D02*X115500Y293500D01*
X120000Y300500D02*X114000Y306500D01*
X137000Y300500D02*X120000D01*
G54D14*X273500Y209000D02*X287000Y222500D01*
X316028Y211972D02*X316000Y212000D01*
X287500D02*X287000Y212500D01*
X336000Y212000D02*X287500D01*
X273500Y162000D02*Y209000D01*
G54D12*X262000Y224500D02*X286000Y248500D01*
X191000Y235000D02*X211500Y255500D01*
X252000Y241500D02*X273000Y262500D01*
X246000Y186500D02*X252000Y192500D01*
G54D14*X235000Y209500D02*Y319000D01*
G54D12*X211500Y292000D02*Y255500D01*
X252000Y192500D02*Y241500D01*
X262000Y173000D02*Y224500D01*
X241000Y186500D02*X246000D01*
X255000Y166000D02*X262000Y173000D01*
G54D14*X219000Y193500D02*X235000Y209500D01*
G54D12*X213500Y202000D02*X224000Y212500D01*
X730500Y86000D02*X750500Y66000D01*
Y86000D02*X745500D01*
X730500Y101000D01*
X740500Y108500D02*Y117500D01*
X722000Y136000D01*
X724000Y144500D02*X745000Y123500D01*
X777500Y122000D02*Y62500D01*
G54D13*X788000Y132000D02*Y103500D01*
G54D12*X777500Y48500D02*Y42500D01*
G54D14*X788000Y94500D02*Y103500D01*
X807000Y89500D02*X793000D01*
X788000Y94500D01*
G54D12*X760500Y119000D02*X756000Y123500D01*
X760500Y83500D02*X768000Y76000D01*
X760500Y119000D02*Y83500D01*
X756000Y123500D02*X745000D01*
G54D13*X767000Y153000D02*X788000Y132000D01*
G54D12*X750500Y241000D02*X790500D01*
X870500Y246000D02*X860500D01*
X855500Y241000D01*
X805500D02*X815500D01*
X790500D02*X805500Y256000D01*
X790500Y271000D02*X800500Y281000D01*
X840500Y266000D02*X810500D01*
X805500Y271000D01*
X765500D02*X790500D01*
X800500Y281000D02*X855500D01*
X870500Y266000D01*
X815500Y241000D02*X830500Y256000D01*
X840500D01*
G54D13*X858000D02*X850500Y248500D01*
G54D12*X775500Y256000D02*X753500D01*
G54D13*X870500D02*X858000D01*
X885500Y228500D02*Y138500D01*
X880500Y133500D01*
G54D12*X855500Y241000D02*Y226000D01*
X840500Y211000D01*
G54D13*X850500Y231000D02*X843000Y223500D01*
X870500Y236000D02*X878000D01*
X850500Y248500D02*Y231000D01*
X878000Y236000D02*X885500Y228500D01*
G54D12*X840500Y211000D02*X820500D01*
Y196000D02*Y211000D01*
X845500Y203500D02*X830500Y188500D01*
G54D13*X825500Y163500D02*Y143500D01*
X870500D02*X825500D01*
G54D12*X805500Y211000D02*X840500Y246000D01*
X805500Y226000D02*Y241000D01*
X850500Y196000D02*X835500Y181000D01*
X860500Y196000D02*X850500D01*
X860500Y181000D02*Y183500D01*
X868000Y191000D01*
Y201000D01*
X865500Y203500D01*
X845500D01*
X805500Y196000D02*Y211000D01*
X830500Y188500D02*X763000D01*
X686000Y166500D02*Y190000D01*
X765500Y211000D02*X750500D01*
Y226000D01*
Y181000D02*X755500D01*
X763000Y188500D01*
G54D13*X710500Y181000D02*Y163500D01*
Y181000D02*X735500D01*
X750500Y196000D01*
G54D12*X835500Y181000D02*X800500D01*
X740500Y259000D02*Y251500D01*
X753500Y256000D02*X750500Y259000D01*
X734500Y273500D02*X742000D01*
X720500Y211000D02*Y283500D01*
X730500Y269500D02*X734500Y273500D01*
X737000Y248000D02*X725500D01*
X740500Y251500D02*X737000Y248000D01*
X730500Y259000D02*Y269500D01*
X746500Y278000D02*Y303500D01*
X739000Y311000D02*X746500Y303500D01*
X734000D02*X733000D01*
X742000Y273500D02*X746500Y278000D01*
X720500Y283500D02*X715500Y288500D01*
X704500Y296000D02*X697000Y288500D01*
X733000Y303500D02*X725500Y296000D01*
X715500Y303500D02*X723000Y311000D01*
X725500Y296000D02*X704500D01*
X723000Y311000D02*X739000D01*
G54D13*X825500Y133500D02*X880500D01*
X870500Y123500D02*X825500D01*
G54D12*X777500Y122000D02*X763500Y136000D01*
X750500D01*
G54D14*X809000Y56000D02*X816500Y63500D01*
G54D13*X843000Y56000D02*X830000Y43000D01*
G54D14*X816500Y63500D02*Y80000D01*
G54D13*X870500Y103500D02*X808000D01*
X825500Y113500D02*X870500D01*
Y63500D02*X825500D01*
Y73500D02*X870500D01*
Y83500D02*X825500D01*
Y93500D02*X870500D01*
G54D14*X816500Y80000D02*X807000Y89500D01*
X522500Y210500D02*X553500Y179500D01*
G54D12*X545500Y223000D02*X556500Y212000D01*
X553000Y206000D02*X538500Y220500D01*
G54D14*X575500Y197500D02*X554000D01*
G54D12*X590500Y226000D02*X575500Y241000D01*
G54D14*X535500Y197500D02*Y62500D01*
G54D12*X545500Y261000D02*Y223000D01*
G54D14*X554000Y197500D02*X501000Y250500D01*
X511000Y240500D01*
G54D12*X501000Y210500D02*Y183500D01*
X583500Y218000D02*X575500Y226000D01*
G54D14*X511000Y172000D02*Y240500D01*
G54D12*X522500Y141500D02*Y91000D01*
G54D14*X505000Y56000D02*X809000D01*
G54D12*X643000Y126000D02*X633000Y116000D01*
X658500Y96000D02*X636000D01*
X626500Y105500D01*
X633000Y86000D02*X658500D01*
Y86500D01*
X669500Y97500D01*
X673500Y91000D02*X688500Y76000D01*
G54D13*X721000Y153000D02*X767000D01*
G54D12*X596000Y166500D02*X595500Y167000D01*
X575500Y136000D02*X597500D01*
X605500Y128000D01*
X722000Y136000D02*X710500D01*
X522500Y141500D02*X505500Y158500D01*
G54D13*X720500Y99500D02*Y106000D01*
X688500D02*Y116000D01*
G54D12*X669500Y178500D02*Y97500D01*
X730500Y86000D02*X688500D01*
X633000Y116000D02*X615500D01*
Y96000D01*
G54D13*X645000Y49000D02*Y43000D01*
G54D12*X605500Y128000D02*Y86000D01*
X615500Y76000D01*
X658500D01*
X673500Y196500D02*Y91000D01*
X725500Y248000D02*X720500Y243000D01*
X665500Y210500D02*X648000D01*
X628500Y226000D02*X643500Y241000D01*
X628500Y226000D02*X590500D01*
X663000Y197500D02*Y185000D01*
X669500Y178500D01*
X658500Y179500D02*Y153500D01*
X653000Y175000D02*Y199000D01*
X658500Y204500D01*
X665500D01*
X673500Y196500D01*
G54D13*X710500Y163500D02*X721000Y153000D01*
G54D12*X708000Y144500D02*X724000D01*
X686000Y166500D02*X708000Y144500D01*
X678500Y155500D02*X688500Y145500D01*
Y136000D01*
X658500Y153500D02*X664500Y147500D01*
X707500Y127500D02*X714500D01*
G54D13*X710500Y106000D02*X688500D01*
Y96000D02*X717000D01*
X720500Y99500D01*
G54D12*X658500Y126000D02*X643000D01*
X664500Y147500D02*Y112000D01*
X658500Y106000D01*
Y136000D02*X615500D01*
X688500Y136500D02*X689000Y136000D01*
G54D15*X665500Y340500D02*X663500D01*
X664500Y343500D02*X661500Y340500D01*
X663500D02*X664500Y341500D01*
X667500Y340500D02*X664500Y343500D01*
Y341500D02*X665500Y340500D01*
X653500Y345500D02*X687500D01*
X670500Y328500D01*
X657500Y341500D02*X658500Y340500D01*
G54D12*X314000Y294000D02*Y271500D01*
X296000Y269500D02*Y294500D01*
X323500Y303500D02*X314000Y294000D01*
X296000Y294500D02*X305000Y303500D01*
X375500Y265500D02*Y336000D01*
X365500D02*Y264500D01*
X314000Y271500D02*X298000Y255500D01*
G54D14*X235000Y319000D02*X247500Y331500D01*
G54D12*X403000Y248500D02*X286000D01*
X435000Y255000D02*X375000D01*
X289000Y262500D02*X296000Y269500D01*
X289000Y262500D02*X273000D01*
X298000Y255500D02*X286500D01*
X375000Y255000D02*X365500Y264500D01*
X381000Y260000D02*X375500Y265500D01*
X406500Y273500D02*X533000D01*
X522500Y250500D02*X516500D01*
X507000Y260000D01*
X381000D01*
X538500Y256000D02*X528000Y266500D01*
X533000Y273500D02*X545500Y261000D01*
X528000Y266500D02*X395500D01*
G54D15*X661500Y335500D02*X660500D01*
X663500Y331500D02*X667500Y335500D01*
X664500Y338500D02*Y337500D01*
X667500Y335500D02*Y340500D01*
X658500Y331500D02*X663500D01*
X653500Y345500D02*X636500Y328500D01*
X657500Y338500D02*Y337500D01*
X656500Y340500D02*X657500Y341500D01*
X658500Y340500D02*X656500D01*
X657500Y343500D02*X654500Y340500D01*
Y335500D02*X658500Y331500D01*
X654500Y340500D02*Y335500D01*
X660500Y340500D02*X657500Y343500D01*
X661500Y340500D02*X660500D01*
X636500Y328500D02*X670500D01*
G54D14*X491000Y153000D02*X497000Y147000D01*
X461000Y153000D02*X491000D01*
G54D12*X487000Y168500D02*X463500D01*
X461000Y143000D02*X483500D01*
Y125000D02*Y103000D01*
X575500Y116000D02*X572000D01*
X575500Y76000D02*X567000D01*
X562000Y81000D01*
X545000Y69500D02*X551500D01*
X557000Y75000D01*
X572000Y116000D02*X567000Y121000D01*
Y140500D01*
X562000Y81000D02*Y147500D01*
X567000Y152500D01*
X557000Y75000D02*Y159000D01*
X565000Y167000D01*
X567000Y140500D02*X572000Y145500D01*
X565000Y167000D02*X575500D01*
X393500Y93000D02*X413500D01*
X388500Y135500D02*Y98000D01*
X393500Y93000D02*X388500Y98000D01*
X381000Y123000D02*Y97000D01*
X396000Y123000D02*Y103000D01*
X421000Y133000D02*X411000Y123000D01*
X483500Y125000D02*X475500Y133000D01*
X423500Y123000D02*X421000Y120500D01*
Y133000D02*X431000D01*
X461000D02*X475500D01*
X423500Y123000D02*X431000D01*
X395000Y83000D02*X381000Y97000D01*
X411000Y153000D02*Y138000D01*
X431000Y143000D02*Y133000D01*
X411000Y153000D02*X442500D01*
X447000Y148500D01*
Y79000D01*
G54D14*X497000Y147000D02*Y64000D01*
G54D12*X396000Y123000D02*X411000Y138000D01*
X421000Y100500D02*X413500Y93000D01*
X421000Y120500D02*Y100500D01*
X395000Y83000D02*X411000D01*
G54D14*X497000Y64000D02*X505000Y56000D01*
X535500Y43000D02*Y49000D01*
G54D12*X447000Y79000D02*X456500Y69500D01*
X488000D01*
G54D13*X830000Y43000D02*X19500D01*
G54D12*X366000Y203000D02*X361000Y198000D01*
X388500Y135500D02*X361000Y163000D01*
Y198000D02*Y163000D01*
X366000Y203000D02*X381000D01*
Y230500D02*X371000Y220500D01*
X411500Y185000D02*X411000Y185500D01*
Y240500D02*X431000D01*
X381000Y230500D02*X431000D01*
G54D14*X427000Y220500D02*X418500Y212000D01*
X335500D01*
X316028Y116500D02*Y211972D01*
G54D12*X396000Y143000D02*Y170500D01*
X411000Y185500D01*
X428500D02*X461000Y153000D01*
X411000Y185500D02*X428500D01*
X461000Y230500D02*X481000D01*
X460500Y220000D02*X461000Y220500D01*
Y210500D02*X483500D01*
X461000Y220500D02*X455500D01*
X452000Y217000D01*
Y209500D01*
X435000Y255000D02*X442500Y247500D01*
Y224500D01*
X438500Y220500D01*
X431000D01*
G54D14*X427000D01*
G54D12*X445500Y203000D02*X411000D01*
X452000Y209500D02*X445500Y203000D01*
G54D14*X461000Y240500D02*X473500D01*
X483500Y250500D01*
G54D12*X403000Y248500D02*X411000Y240500D01*
X481000Y230500D02*X501000Y210500D01*
X483500D02*Y180500D01*
X538500Y220500D02*Y256000D01*
G54D14*X511000Y172000D02*X491500Y152500D01*
G54D12*X483500Y180500D02*X497000Y167000D01*
X572000Y145500D02*X590500D01*
X596000Y151000D01*
Y166500D01*
G54D14*X553500Y179500D02*Y167000D01*
G54D12*X686000Y190000D02*X665500Y210500D01*
X648000D02*X643000Y205500D01*
X633000Y210500D02*X625500Y218000D01*
X583500D01*
X556500Y212000D02*X606000D01*
X620000Y165500D02*X643500D01*
X618500Y185500D02*X629000Y175000D01*
X641000D01*
X615500Y136000D02*X609000Y142500D01*
Y198000D01*
X643500Y165500D02*X653000Y175000D01*
X633000Y197500D02*Y210500D01*
X643000Y205500D02*Y197500D01*
X606000Y212000D02*X618500Y199500D01*
Y185500D01*
X609000Y198000D02*X601000Y206000D01*
X553000D01*
X730500Y101000D02*Y111500D01*
X714500Y127500D01*
X688500Y136000D02*X699000D01*
X707500Y127500D01*
G54D15*X9900Y342300D02*G75*G03X11900Y340300I2000J0D01*G01*
X13900Y342300D02*G75*G03X11900Y344300I-2000J0D01*G01*
Y345300D02*G75*G03X8900Y342300I0J-3000D01*G01*
X11900Y339300D02*G75*G03X14900Y342300I0J3000D01*G01*
X18900Y52800D02*G75*G03X20900Y50800I2000J0D01*G01*
X22900Y52800D02*G75*G03X20900Y54800I-2000J0D01*G01*
Y55800D02*G75*G03X17900Y52800I0J-3000D01*G01*
X20900Y49800D02*G75*G03X23900Y52800I0J3000D01*G01*
X878400Y48300D02*G75*G03X880400Y46300I2000J0D01*G01*
X882400Y48300D02*G75*G03X880400Y50300I-2000J0D01*G01*
Y51300D02*G75*G03X877400Y48300I0J-3000D01*G01*
X880400Y45300D02*G75*G03X883400Y48300I0J3000D01*G01*
X805400Y342300D02*G75*G03X807400Y340300I2000J0D01*G01*
Y339300D02*G75*G03X810400Y342300I0J3000D01*G01*
X809400D02*G75*G03X807400Y344300I-2000J0D01*G01*
Y345300D02*G75*G03X804400Y342300I0J-3000D01*G01*
X595000Y294000D02*G75*G03X597000Y292000I2000J0D01*G01*
X599000Y294000D02*G75*G03X597000Y296000I-2000J0D01*G01*
Y297000D02*G75*G03X594000Y294000I0J-3000D01*G01*
X597000Y291000D02*G75*G03X600000Y294000I0J3000D01*G01*
G54D16*X331050Y62900D02*Y58500D01*
X330500Y62900D02*X332700D01*
X333250Y62350D01*
Y61250D01*
X332700Y60700D02*X333250Y61250D01*
X331050Y60700D02*X332700D01*
X335120Y60150D02*Y58500D01*
Y60150D02*X335670Y60700D01*
X336770D01*
X334570D02*X335120Y60150D01*
X338090Y61800D02*Y61250D01*
Y60150D02*Y58500D01*
X339740Y60150D02*Y58500D01*
Y60150D02*X340290Y60700D01*
X340840D01*
X341390Y60150D01*
Y58500D01*
X339190Y60700D02*X339740Y60150D01*
X343260Y62900D02*Y59050D01*
X343810Y58500D01*
X342710Y61250D02*X343810D01*
X345460Y58500D02*X347110D01*
X344910Y59050D02*X345460Y58500D01*
X344910Y60150D02*Y59050D01*
Y60150D02*X345460Y60700D01*
X346560D01*
X347110Y60150D01*
X344910Y59600D02*X347110D01*
Y60150D02*Y59600D01*
X350630Y62900D02*Y58500D01*
X350080D02*X350630Y59050D01*
X348980Y58500D02*X350080D01*
X348430Y59050D02*X348980Y58500D01*
X348430Y60150D02*Y59050D01*
Y60150D02*X348980Y60700D01*
X350080D01*
X350630Y60150D01*
X354480Y58500D02*X356130D01*
X353930Y59050D02*X354480Y58500D01*
X353930Y62350D02*Y59050D01*
Y62350D02*X354480Y62900D01*
X356130D01*
X357450Y61800D02*Y61250D01*
Y60150D02*Y58500D01*
X359100Y60150D02*Y58500D01*
Y60150D02*X359650Y60700D01*
X360750D01*
X358550D02*X359100Y60150D01*
X362620Y60700D02*X364270D01*
X362070Y60150D02*X362620Y60700D01*
X362070Y60150D02*Y59050D01*
X362620Y58500D01*
X364270D01*
X365590Y60700D02*Y59050D01*
X366140Y58500D01*
X367240D01*
X367790Y59050D01*
Y60700D02*Y59050D01*
X369110Y61800D02*Y61250D01*
Y60150D02*Y58500D01*
X370760Y62900D02*Y59050D01*
X371310Y58500D01*
X370210Y61250D02*X371310D01*
X374390Y58500D02*X376590D01*
X377140Y59050D01*
Y60150D02*Y59050D01*
X376590Y60700D02*X377140Y60150D01*
X374940Y60700D02*X376590D01*
X374940Y62900D02*Y58500D01*
X374390Y62900D02*X376590D01*
X377140Y62350D01*
Y61250D01*
X376590Y60700D02*X377140Y61250D01*
X378460Y60150D02*Y59050D01*
Y60150D02*X379010Y60700D01*
X380110D01*
X380660Y60150D01*
Y59050D01*
X380110Y58500D02*X380660Y59050D01*
X379010Y58500D02*X380110D01*
X378460Y59050D02*X379010Y58500D01*
X383630Y60700D02*X384180Y60150D01*
X382530Y60700D02*X383630D01*
X381980Y60150D02*X382530Y60700D01*
X381980Y60150D02*Y59050D01*
X382530Y58500D01*
X384180Y60700D02*Y59050D01*
X384730Y58500D01*
X382530D02*X383630D01*
X384180Y59050D01*
X386600Y60150D02*Y58500D01*
Y60150D02*X387150Y60700D01*
X388250D01*
X386050D02*X386600Y60150D01*
X391770Y62900D02*Y58500D01*
X391220D02*X391770Y59050D01*
X390120Y58500D02*X391220D01*
X389570Y59050D02*X390120Y58500D01*
X389570Y60150D02*Y59050D01*
Y60150D02*X390120Y60700D01*
X391220D01*
X391770Y60150D01*
X395620Y62900D02*Y58500D01*
X397270Y62900D02*X397820Y62350D01*
Y59050D01*
X397270Y58500D02*X397820Y59050D01*
X395070Y58500D02*X397270D01*
X395070Y62900D02*X397270D01*
X399690Y58500D02*X401340D01*
X399140Y59050D02*X399690Y58500D01*
X399140Y60150D02*Y59050D01*
Y60150D02*X399690Y60700D01*
X400790D01*
X401340Y60150D01*
X399140Y59600D02*X401340D01*
Y60150D02*Y59600D01*
X403210Y58500D02*X404860D01*
X405410Y59050D01*
X404860Y59600D02*X405410Y59050D01*
X403210Y59600D02*X404860D01*
X402660Y60150D02*X403210Y59600D01*
X402660Y60150D02*X403210Y60700D01*
X404860D01*
X405410Y60150D01*
X402660Y59050D02*X403210Y58500D01*
X406730Y61800D02*Y61250D01*
Y60150D02*Y58500D01*
X409480Y60700D02*X410030Y60150D01*
X408380Y60700D02*X409480D01*
X407830Y60150D02*X408380Y60700D01*
X407830Y60150D02*Y59050D01*
X408380Y58500D01*
X409480D01*
X410030Y59050D01*
X407830Y57400D02*X408380Y56850D01*
X409480D01*
X410030Y57400D01*
Y60700D02*Y57400D01*
X411900Y60150D02*Y58500D01*
Y60150D02*X412450Y60700D01*
X413000D01*
X413550Y60150D01*
Y58500D01*
X411350Y60700D02*X411900Y60150D01*
X416850Y61250D02*X417400D01*
X416850Y60150D02*X417400D01*
X420700Y60700D02*X422350D01*
X420700Y58500D02*X422900D01*
X420700Y62900D02*Y58500D01*
Y62900D02*X422900D01*
X424220Y60700D02*X425870D01*
X424220Y58500D02*X426420D01*
X424220Y62900D02*Y58500D01*
Y62900D02*X426420D01*
X427740D02*Y58500D01*
Y62900D02*X429940D01*
X427740Y60700D02*X429390D01*
X330500Y67700D02*X332150D01*
X330500Y65500D02*X332700D01*
X330500Y69900D02*Y65500D01*
Y69900D02*X332700D01*
X334020D02*Y66050D01*
X334570Y65500D01*
X336220D02*X337870D01*
X335670Y66050D02*X336220Y65500D01*
X335670Y67150D02*Y66050D01*
Y67150D02*X336220Y67700D01*
X337320D01*
X337870Y67150D01*
X335670Y66600D02*X337870D01*
Y67150D02*Y66600D01*
X339740Y67700D02*X341390D01*
X339190Y67150D02*X339740Y67700D01*
X339190Y67150D02*Y66050D01*
X339740Y65500D01*
X341390D01*
X343260Y69900D02*Y66050D01*
X343810Y65500D01*
X342710Y68250D02*X343810D01*
X345460Y67150D02*Y65500D01*
Y67150D02*X346010Y67700D01*
X347110D01*
X344910D02*X345460Y67150D01*
X348430D02*Y66050D01*
Y67150D02*X348980Y67700D01*
X350080D01*
X350630Y67150D01*
Y66050D01*
X350080Y65500D02*X350630Y66050D01*
X348980Y65500D02*X350080D01*
X348430Y66050D02*X348980Y65500D01*
X352500Y67150D02*Y65500D01*
Y67150D02*X353050Y67700D01*
X353600D01*
X354150Y67150D01*
Y65500D01*
X351950Y67700D02*X352500Y67150D01*
X355470Y68800D02*Y68250D01*
Y67150D02*Y65500D01*
X357120Y67700D02*X358770D01*
X356570Y67150D02*X357120Y67700D01*
X356570Y67150D02*Y66050D01*
X357120Y65500D01*
X358770D01*
X360640D02*X362290D01*
X362840Y66050D01*
X362290Y66600D02*X362840Y66050D01*
X360640Y66600D02*X362290D01*
X360090Y67150D02*X360640Y66600D01*
X360090Y67150D02*X360640Y67700D01*
X362290D01*
X362840Y67150D01*
X360090Y66050D02*X360640Y65500D01*
X366690Y69900D02*Y65500D01*
X368340Y69900D02*X368890Y69350D01*
Y66050D01*
X368340Y65500D02*X368890Y66050D01*
X366140Y65500D02*X368340D01*
X366140Y69900D02*X368340D01*
X370760Y65500D02*X372410D01*
X370210Y66050D02*X370760Y65500D01*
X370210Y67150D02*Y66050D01*
Y67150D02*X370760Y67700D01*
X371860D01*
X372410Y67150D01*
X370210Y66600D02*X372410D01*
Y67150D02*Y66600D01*
X374280Y65500D02*X375930D01*
X376480Y66050D01*
X375930Y66600D02*X376480Y66050D01*
X374280Y66600D02*X375930D01*
X373730Y67150D02*X374280Y66600D01*
X373730Y67150D02*X374280Y67700D01*
X375930D01*
X376480Y67150D01*
X373730Y66050D02*X374280Y65500D01*
X377800Y68800D02*Y68250D01*
Y67150D02*Y65500D01*
X380550Y67700D02*X381100Y67150D01*
X379450Y67700D02*X380550D01*
X378900Y67150D02*X379450Y67700D01*
X378900Y67150D02*Y66050D01*
X379450Y65500D01*
X380550D01*
X381100Y66050D01*
X378900Y64400D02*X379450Y63850D01*
X380550D01*
X381100Y64400D01*
Y67700D02*Y64400D01*
X382970Y67150D02*Y65500D01*
Y67150D02*X383520Y67700D01*
X384070D01*
X384620Y67150D01*
Y65500D01*
X382420Y67700D02*X382970Y67150D01*
X387920Y69900D02*X389020D01*
X388470D02*Y65500D01*
X387920D02*X389020D01*
X390340Y69900D02*X391990D01*
Y66050D01*
X391440Y65500D02*X391990Y66050D01*
X390890Y65500D02*X391440D01*
X390340Y66050D02*X390890Y65500D01*
X395510Y69900D02*X396060Y69350D01*
X393860Y69900D02*X395510D01*
X393310Y69350D02*X393860Y69900D01*
X393310Y69350D02*Y68250D01*
X393860Y67700D01*
X395510D01*
X396060Y67150D01*
Y66050D01*
X395510Y65500D02*X396060Y66050D01*
X393860Y65500D02*X395510D01*
X393310Y66050D02*X393860Y65500D01*
X399360Y66050D02*X399910Y65500D01*
X399360Y69350D02*Y68250D01*
Y69350D02*X399910Y69900D01*
X399360Y67150D02*X401010Y68800D01*
X399910Y65500D02*X400460D01*
X401560Y66600D01*
X399360Y68250D02*X402110Y65500D01*
X399910Y69900D02*X400460D01*
X401010Y69350D01*
Y68800D01*
X399360Y67150D02*Y66050D01*
X405960Y65500D02*X407610D01*
X405410Y66050D02*X405960Y65500D01*
X405410Y69350D02*Y66050D01*
Y69350D02*X405960Y69900D01*
X407610D01*
X408930D02*Y65500D01*
Y69900D02*X411130D01*
X408930Y67700D02*X410580D01*
X414650Y69900D02*X415200Y69350D01*
X413000Y69900D02*X414650D01*
X412450Y69350D02*X413000Y69900D01*
X412450Y69350D02*Y66050D01*
X413000Y65500D01*
X414650D01*
X415200Y66050D01*
Y67150D02*Y66050D01*
X414650Y67700D02*X415200Y67150D01*
X413550Y67700D02*X414650D01*
X637500Y316510D02*Y312550D01*
Y313045D02*X637995Y312550D01*
X638985D01*
X639480Y313045D01*
Y314035D02*Y313045D01*
X638985Y314530D02*X639480Y314035D01*
X637995Y314530D02*X638985D01*
X637500Y314035D02*X637995Y314530D01*
X640668D02*Y313045D01*
X641163Y312550D01*
X642648Y314530D02*Y311560D01*
X642153Y311065D02*X642648Y311560D01*
X641163Y311065D02*X642153D01*
X640668Y311560D02*X641163Y311065D01*
Y312550D02*X642153D01*
X642648Y313045D01*
X647103Y314530D02*X647598Y314035D01*
X646113Y314530D02*X647103D01*
X645618Y314035D02*X646113Y314530D01*
X645618Y314035D02*Y313045D01*
X646113Y312550D01*
X647598Y314530D02*Y313045D01*
X648093Y312550D01*
X646113D02*X647103D01*
X647598Y313045D01*
X651558Y314530D02*X653043D01*
X651063Y314035D02*X651558Y314530D01*
X651063Y314035D02*Y313045D01*
X651558Y312550D01*
X653043D01*
X654726D02*X656211D01*
X654231Y313045D02*X654726Y312550D01*
X654231Y314035D02*Y313045D01*
Y314035D02*X654726Y314530D01*
X655716D01*
X656211Y314035D01*
X654231Y313540D02*X656211D01*
Y314035D02*Y313540D01*
X657399Y315520D02*Y315025D01*
Y314035D02*Y312550D01*
X658389Y316510D02*Y313045D01*
X658884Y312550D01*
X659874Y315520D02*Y315025D01*
Y314035D02*Y312550D01*
X661359Y314035D02*Y312550D01*
Y314035D02*X661854Y314530D01*
X662349D01*
X662844Y314035D01*
Y312550D01*
X660864Y314530D02*X661359Y314035D01*
X665517Y314530D02*X666012Y314035D01*
X664527Y314530D02*X665517D01*
X664032Y314035D02*X664527Y314530D01*
X664032Y314035D02*Y313045D01*
X664527Y312550D01*
X665517D01*
X666012Y313045D01*
X664032Y311560D02*X664527Y311065D01*
X665517D01*
X666012Y311560D01*
Y314530D02*Y311560D01*
X669477Y314530D02*X670962D01*
X668982Y314035D02*X669477Y314530D01*
X668982Y314035D02*Y313045D01*
X669477Y312550D01*
X670962D01*
X673635Y314530D02*X674130Y314035D01*
X672645Y314530D02*X673635D01*
X672150Y314035D02*X672645Y314530D01*
X672150Y314035D02*Y313045D01*
X672645Y312550D01*
X674130Y314530D02*Y313045D01*
X674625Y312550D01*
X672645D02*X673635D01*
X674130Y313045D01*
X676308Y316510D02*Y313045D01*
X676803Y312550D01*
X675813Y315025D02*X676803D01*
X638985Y307030D02*X639480Y306535D01*
X637995Y307030D02*X638985D01*
X637500Y306535D02*X637995Y307030D01*
X637500Y306535D02*Y305545D01*
X637995Y305050D01*
X639480Y307030D02*Y305545D01*
X639975Y305050D01*
X637995D02*X638985D01*
X639480Y305545D01*
X641658Y306535D02*Y303565D01*
X641163Y307030D02*X641658Y306535D01*
X642153Y307030D01*
X643143D01*
X643638Y306535D01*
Y305545D01*
X643143Y305050D02*X643638Y305545D01*
X642153Y305050D02*X643143D01*
X641658Y305545D02*X642153Y305050D01*
X645321Y306535D02*Y303565D01*
X644826Y307030D02*X645321Y306535D01*
X645816Y307030D01*
X646806D01*
X647301Y306535D01*
Y305545D01*
X646806Y305050D02*X647301Y305545D01*
X645816Y305050D02*X646806D01*
X645321Y305545D02*X645816Y305050D01*
X648984Y306535D02*Y305050D01*
Y306535D02*X649479Y307030D01*
X650469D01*
X648489D02*X648984Y306535D01*
X651657D02*Y305545D01*
Y306535D02*X652152Y307030D01*
X653142D01*
X653637Y306535D01*
Y305545D01*
X653142Y305050D02*X653637Y305545D01*
X652152Y305050D02*X653142D01*
X651657Y305545D02*X652152Y305050D01*
X654825Y307030D02*Y306040D01*
X655815Y305050D01*
X656805Y306040D01*
Y307030D02*Y306040D01*
X658488Y305050D02*X659973D01*
X657993Y305545D02*X658488Y305050D01*
X657993Y306535D02*Y305545D01*
Y306535D02*X658488Y307030D01*
X659478D01*
X659973Y306535D01*
X657993Y306040D02*X659973D01*
Y306535D02*Y306040D01*
X663141Y309010D02*Y305050D01*
X662646D02*X663141Y305545D01*
X661656Y305050D02*X662646D01*
X661161Y305545D02*X661656Y305050D01*
X661161Y306535D02*Y305545D01*
Y306535D02*X661656Y307030D01*
X662646D01*
X663141Y306535D01*
X572000Y288020D02*Y287525D01*
Y286535D02*Y285050D01*
X573485D02*X574970D01*
X575465Y285545D01*
X574970Y286040D02*X575465Y285545D01*
X573485Y286040D02*X574970D01*
X572990Y286535D02*X573485Y286040D01*
X572990Y286535D02*X573485Y287030D01*
X574970D01*
X575465Y286535D01*
X572990Y285545D02*X573485Y285050D01*
X578930Y288020D02*Y287525D01*
Y286535D02*Y284060D01*
X578435Y283565D02*X578930Y284060D01*
X579920Y287030D02*Y285545D01*
X580415Y285050D01*
X581405D01*
X581900Y285545D01*
Y287030D02*Y285545D01*
X583583Y285050D02*X585068D01*
X585563Y285545D01*
X585068Y286040D02*X585563Y285545D01*
X583583Y286040D02*X585068D01*
X583088Y286535D02*X583583Y286040D01*
X583088Y286535D02*X583583Y287030D01*
X585068D01*
X585563Y286535D01*
X583088Y285545D02*X583583Y285050D01*
X587246Y289010D02*Y285545D01*
X587741Y285050D01*
X586751Y287525D02*X587741D01*
X591998Y287030D02*X592493Y286535D01*
X591008Y287030D02*X591998D01*
X590513Y286535D02*X591008Y287030D01*
X590513Y286535D02*Y285545D01*
X591008Y285050D01*
X592493Y287030D02*Y285545D01*
X592988Y285050D01*
X591008D02*X591998D01*
X592493Y285545D01*
X596453Y288515D02*Y285050D01*
Y288515D02*X596948Y289010D01*
X597443D01*
X595958Y287030D02*X596948D01*
X598433D02*Y285545D01*
X598928Y285050D01*
X599918D01*
X600413Y285545D01*
Y287030D02*Y285545D01*
X602096Y286535D02*Y285050D01*
Y286535D02*X602591Y287030D01*
X603086D01*
X603581Y286535D01*
Y285050D01*
X601601Y287030D02*X602096Y286535D01*
X608531Y289010D02*Y285050D01*
X608036D02*X608531Y285545D01*
X607046Y285050D02*X608036D01*
X606551Y285545D02*X607046Y285050D01*
X606551Y286535D02*Y285545D01*
Y286535D02*X607046Y287030D01*
X608036D01*
X608531Y286535D01*
X609719D02*Y285545D01*
Y286535D02*X610214Y287030D01*
X611204D01*
X611699Y286535D01*
Y285545D01*
X611204Y285050D02*X611699Y285545D01*
X610214Y285050D02*X611204D01*
X609719Y285545D02*X610214Y285050D01*
X613382Y289010D02*Y285545D01*
X613877Y285050D01*
X612887Y287525D02*X613877D01*
X614867Y285050D02*X615362D01*
X637500Y301510D02*Y297550D01*
Y298045D02*X637995Y297550D01*
X638985D01*
X639480Y298045D01*
Y299035D02*Y298045D01*
X638985Y299530D02*X639480Y299035D01*
X637995Y299530D02*X638985D01*
X637500Y299035D02*X637995Y299530D01*
X641163Y299035D02*Y297550D01*
Y299035D02*X641658Y299530D01*
X642648D01*
X640668D02*X641163Y299035D01*
X643836Y300520D02*Y300025D01*
Y299035D02*Y297550D01*
X645321Y299035D02*Y297550D01*
Y299035D02*X645816Y299530D01*
X646311D01*
X646806Y299035D01*
Y297550D01*
X644826Y299530D02*X645321Y299035D01*
X649479Y299530D02*X649974Y299035D01*
X648489Y299530D02*X649479D01*
X647994Y299035D02*X648489Y299530D01*
X647994Y299035D02*Y298045D01*
X648489Y297550D01*
X649479D01*
X649974Y298045D01*
X647994Y296560D02*X648489Y296065D01*
X649479D01*
X649974Y296560D01*
Y299530D02*Y296560D01*
X651657Y297550D02*X653142D01*
X651162Y298045D02*X651657Y297550D01*
X651162Y299035D02*Y298045D01*
Y299035D02*X651657Y299530D01*
X652647D01*
X653142Y299035D01*
X651162Y298540D02*X653142D01*
Y299035D02*Y298540D01*
X654825Y299035D02*Y297550D01*
Y299035D02*X655320Y299530D01*
X656310D01*
X654330D02*X654825Y299035D01*
X659280D02*Y298045D01*
Y299035D02*X659775Y299530D01*
X660765D01*
X661260Y299035D01*
Y298045D01*
X660765Y297550D02*X661260Y298045D01*
X659775Y297550D02*X660765D01*
X659280Y298045D02*X659775Y297550D01*
X662943Y301015D02*Y297550D01*
Y301015D02*X663438Y301510D01*
X663933D01*
X662448Y299530D02*X663438D01*
X667200Y301015D02*Y297550D01*
Y301015D02*X667695Y301510D01*
X668190D01*
X666705Y299530D02*X667695D01*
X669180Y299035D02*Y298045D01*
Y299035D02*X669675Y299530D01*
X670665D01*
X671160Y299035D01*
Y298045D01*
X670665Y297550D02*X671160Y298045D01*
X669675Y297550D02*X670665D01*
X669180Y298045D02*X669675Y297550D01*
X672348Y299035D02*Y298045D01*
Y299035D02*X672843Y299530D01*
X673833D01*
X674328Y299035D01*
Y298045D01*
X673833Y297550D02*X674328Y298045D01*
X672843Y297550D02*X673833D01*
X672348Y298045D02*X672843Y297550D01*
X677496Y301510D02*Y297550D01*
X677001D02*X677496Y298045D01*
X676011Y297550D02*X677001D01*
X675516Y298045D02*X676011Y297550D01*
X675516Y299035D02*Y298045D01*
Y299035D02*X676011Y299530D01*
X677001D01*
X677496Y299035D01*
X678684Y297550D02*X679179D01*
X637500Y324010D02*Y320050D01*
Y324010D02*X639480D01*
X637500Y322030D02*X638985D01*
X640668Y321535D02*Y320545D01*
Y321535D02*X641163Y322030D01*
X642153D01*
X642648Y321535D01*
Y320545D01*
X642153Y320050D02*X642648Y320545D01*
X641163Y320050D02*X642153D01*
X640668Y320545D02*X641163Y320050D01*
X644331Y321535D02*Y320050D01*
Y321535D02*X644826Y322030D01*
X645816D01*
X643836D02*X644331Y321535D01*
X649281D02*Y320050D01*
Y321535D02*X649776Y322030D01*
X650766D01*
X648786D02*X649281Y321535D01*
X652449Y320050D02*X653934D01*
X651954Y320545D02*X652449Y320050D01*
X651954Y321535D02*Y320545D01*
Y321535D02*X652449Y322030D01*
X653439D01*
X653934Y321535D01*
X651954Y321040D02*X653934D01*
Y321535D02*Y321040D01*
X655617Y321535D02*Y318565D01*
X655122Y322030D02*X655617Y321535D01*
X656112Y322030D01*
X657102D01*
X657597Y321535D01*
Y320545D01*
X657102Y320050D02*X657597Y320545D01*
X656112Y320050D02*X657102D01*
X655617Y320545D02*X656112Y320050D01*
X660270Y322030D02*X660765Y321535D01*
X659280Y322030D02*X660270D01*
X658785Y321535D02*X659280Y322030D01*
X658785Y321535D02*Y320545D01*
X659280Y320050D01*
X660765Y322030D02*Y320545D01*
X661260Y320050D01*
X659280D02*X660270D01*
X660765Y320545D01*
X662448Y323020D02*Y322525D01*
Y321535D02*Y320050D01*
X663933Y321535D02*Y320050D01*
Y321535D02*X664428Y322030D01*
X665418D01*
X663438D02*X663933Y321535D01*
X668388D02*Y320545D01*
Y321535D02*X668883Y322030D01*
X669873D01*
X670368Y321535D01*
Y320545D01*
X669873Y320050D02*X670368Y320545D01*
X668883Y320050D02*X669873D01*
X668388Y320545D02*X668883Y320050D01*
X672051Y321535D02*Y320050D01*
Y321535D02*X672546Y322030D01*
X673041D01*
X673536Y321535D01*
Y320050D01*
X671556Y322030D02*X672051Y321535D01*
X674724Y324010D02*Y320545D01*
X675219Y320050D01*
X676209Y322030D02*Y320545D01*
X676704Y320050D01*
X678189Y322030D02*Y319060D01*
X677694Y318565D02*X678189Y319060D01*
X676704Y318565D02*X677694D01*
X676209Y319060D02*X676704Y318565D01*
Y320050D02*X677694D01*
X678189Y320545D01*
X331050Y79500D02*X332700D01*
X330500Y80050D02*X331050Y79500D01*
X330500Y83350D02*Y80050D01*
Y83350D02*X331050Y83900D01*
X332700D01*
X335670Y81700D02*X336220Y81150D01*
X334570Y81700D02*X335670D01*
X334020Y81150D02*X334570Y81700D01*
X334020Y81150D02*Y80050D01*
X334570Y79500D01*
X336220Y81700D02*Y80050D01*
X336770Y79500D01*
X334570D02*X335670D01*
X336220Y80050D01*
X338640Y81150D02*Y79500D01*
Y81150D02*X339190Y81700D01*
X340290D01*
X338090D02*X338640Y81150D01*
X343810Y83900D02*Y79500D01*
X343260D02*X343810Y80050D01*
X342160Y79500D02*X343260D01*
X341610Y80050D02*X342160Y79500D01*
X341610Y81150D02*Y80050D01*
Y81150D02*X342160Y81700D01*
X343260D01*
X343810Y81150D01*
X345130Y82800D02*Y82250D01*
Y81150D02*Y79500D01*
X346230Y81150D02*Y80050D01*
Y81150D02*X346780Y81700D01*
X347880D01*
X348430Y81150D01*
Y80050D01*
X347880Y79500D02*X348430Y80050D01*
X346780Y79500D02*X347880D01*
X346230Y80050D02*X346780Y79500D01*
X350300Y83900D02*Y80050D01*
X350850Y79500D01*
X349750Y82250D02*X350850D01*
X353600Y81700D02*X354150Y81150D01*
X352500Y81700D02*X353600D01*
X351950Y81150D02*X352500Y81700D01*
X351950Y81150D02*Y80050D01*
X352500Y79500D01*
X354150Y81700D02*Y80050D01*
X354700Y79500D01*
X352500D02*X353600D01*
X354150Y80050D01*
X356570Y81700D02*X358220D01*
X356020Y81150D02*X356570Y81700D01*
X356020Y81150D02*Y80050D01*
X356570Y79500D01*
X358220D01*
X359540Y83900D02*Y79500D01*
Y81150D02*X360090Y81700D01*
X361190D01*
X361740Y81150D01*
Y79500D01*
X363060Y81150D02*Y80050D01*
Y81150D02*X363610Y81700D01*
X364710D01*
X365260Y81150D01*
Y80050D01*
X364710Y79500D02*X365260Y80050D01*
X363610Y79500D02*X364710D01*
X363060Y80050D02*X363610Y79500D01*
X367130Y81150D02*Y79500D01*
Y81150D02*X367680Y81700D01*
X368230D01*
X368780Y81150D01*
Y79500D01*
Y81150D02*X369330Y81700D01*
X369880D01*
X370430Y81150D01*
Y79500D01*
X366580Y81700D02*X367130Y81150D01*
X372300Y79500D02*X373950D01*
X371750Y80050D02*X372300Y79500D01*
X371750Y81150D02*Y80050D01*
Y81150D02*X372300Y81700D01*
X373400D01*
X373950Y81150D01*
X371750Y80600D02*X373950D01*
Y81150D02*Y80600D01*
X375820Y83900D02*Y80050D01*
X376370Y79500D01*
X375270Y82250D02*X376370D01*
X378020Y79500D02*X379670D01*
X377470Y80050D02*X378020Y79500D01*
X377470Y81150D02*Y80050D01*
Y81150D02*X378020Y81700D01*
X379120D01*
X379670Y81150D01*
X377470Y80600D02*X379670D01*
Y81150D02*Y80600D01*
X381540Y81150D02*Y79500D01*
Y81150D02*X382090Y81700D01*
X383190D01*
X380990D02*X381540Y81150D01*
X330995Y76510D02*Y72550D01*
X332480Y76510D02*X332975Y76015D01*
Y73045D01*
X332480Y72550D02*X332975Y73045D01*
X330500Y72550D02*X332480D01*
X330500Y76510D02*X332480D01*
X335648Y74530D02*X336143Y74035D01*
X334658Y74530D02*X335648D01*
X334163Y74035D02*X334658Y74530D01*
X334163Y74035D02*Y73045D01*
X334658Y72550D01*
X336143Y74530D02*Y73045D01*
X336638Y72550D01*
X334658D02*X335648D01*
X336143Y73045D01*
X338321Y76510D02*Y73045D01*
X338816Y72550D01*
X337826Y75025D02*X338816D01*
X340301Y72550D02*X341786D01*
X339806Y73045D02*X340301Y72550D01*
X339806Y74035D02*Y73045D01*
Y74035D02*X340301Y74530D01*
X341291D01*
X341786Y74035D01*
X339806Y73540D02*X341786D01*
Y74035D02*Y73540D01*
X342974Y75025D02*X343469D01*
X342974Y74035D02*X343469D01*
X346439Y76015D02*X346934Y76510D01*
X348419D01*
X348914Y76015D01*
Y75025D01*
X346439Y72550D02*X348914Y75025D01*
X346439Y72550D02*X348914D01*
X350102Y73045D02*X350597Y72550D01*
X350102Y76015D02*Y73045D01*
Y76015D02*X350597Y76510D01*
X351587D01*
X352082Y76015D01*
Y73045D01*
X351587Y72550D02*X352082Y73045D01*
X350597Y72550D02*X351587D01*
X350102Y73540D02*X352082Y75520D01*
X353765Y72550D02*X354755D01*
X354260Y76510D02*Y72550D01*
X353270Y75520D02*X354260Y76510D01*
X355943Y73045D02*X356438Y72550D01*
X355943Y76015D02*Y73045D01*
Y76015D02*X356438Y76510D01*
X357428D01*
X357923Y76015D01*
Y73045D01*
X357428Y72550D02*X357923Y73045D01*
X356438Y72550D02*X357428D01*
X355943Y73540D02*X357923Y75520D01*
X359111Y72550D02*X361091D01*
X362279Y73045D02*X362774Y72550D01*
X362279Y76015D02*Y73045D01*
Y76015D02*X362774Y76510D01*
X363764D01*
X364259Y76015D01*
Y73045D01*
X363764Y72550D02*X364259Y73045D01*
X362774Y72550D02*X363764D01*
X362279Y73540D02*X364259Y75520D01*
X365447Y74530D02*X367427Y76510D01*
X365447Y74530D02*X367922D01*
X367427Y76510D02*Y72550D01*
X369110D02*X371090D01*
X372278Y76015D02*X372773Y76510D01*
X374258D01*
X374753Y76015D01*
Y75025D01*
X372278Y72550D02*X374753Y75025D01*
X372278Y72550D02*X374753D01*
X375941D02*X377921Y74530D01*
Y76015D02*Y74530D01*
X377426Y76510D02*X377921Y76015D01*
X376436Y76510D02*X377426D01*
X375941Y76015D02*X376436Y76510D01*
X375941Y76015D02*Y75025D01*
X376436Y74530D01*
X377921D01*
G54D17*X76000Y216000D03*
Y226000D03*
Y236000D03*
Y246000D03*
G54D11*G36*
X83250Y198750D02*Y193250D01*
X88750D01*
Y198750D01*
X83250D01*
G37*
G36*
X65750Y271250D02*Y265750D01*
X71250D01*
Y271250D01*
X65750D01*
G37*
G36*
X43000Y249000D02*Y243000D01*
X49000D01*
Y249000D01*
X43000D01*
G37*
G54D17*X46000Y236000D03*
Y226000D03*
Y216000D03*
G54D18*X31000Y226500D03*
G54D11*G36*
X13250Y286750D02*Y281250D01*
X18750D01*
Y286750D01*
X13250D01*
G37*
G54D19*X41000Y308500D03*
G54D20*X31000Y332500D03*
G54D19*X51000Y308500D03*
G54D20*X71000Y332500D03*
G54D18*X56000Y284000D03*
G54D11*G36*
X90500Y287000D02*Y281000D01*
X96500D01*
Y287000D01*
X90500D01*
G37*
G36*
X13250Y271250D02*Y265750D01*
X18750D01*
Y271250D01*
X13250D01*
G37*
G36*
Y198750D02*Y193250D01*
X18750D01*
Y198750D01*
X13250D01*
G37*
G54D18*X16000Y236000D03*
X56000Y268500D03*
G54D11*G36*
X166250Y57750D02*Y52250D01*
X171750D01*
Y57750D01*
X166250D01*
G37*
G54D17*X146500Y71000D03*
G54D11*G36*
X166250Y76250D02*Y70750D01*
X171750D01*
Y76250D01*
X166250D01*
G37*
G36*
X55750Y57750D02*Y52250D01*
X61250D01*
Y57750D01*
X55750D01*
G37*
G54D18*X88500Y55000D03*
X199000D03*
X209000Y91000D03*
Y73500D03*
G54D11*G36*
X113500Y104000D02*Y98000D01*
X119500D01*
Y104000D01*
X113500D01*
G37*
G54D17*X146500Y101000D03*
G54D11*G36*
X34602Y104091D02*Y96217D01*
X42476D01*
Y104091D01*
X34602D01*
G37*
G54D21*X68461Y100547D03*
G54D17*X116500Y91000D03*
Y81000D03*
Y71000D03*
X146500Y81000D03*
Y91000D03*
G54D11*G36*
X166250Y93750D02*Y88250D01*
X171750D01*
Y93750D01*
X166250D01*
G37*
G36*
X166000Y114000D02*Y108000D01*
X172000D01*
Y114000D01*
X166000D01*
G37*
G54D17*X179000Y111000D03*
G54D11*G36*
X53250Y168750D02*Y163250D01*
X58750D01*
Y168750D01*
X53250D01*
G37*
G54D18*X16000Y166000D03*
X46000Y196000D03*
G54D11*G36*
X28250Y189250D02*Y183750D01*
X33750D01*
Y189250D01*
X28250D01*
G37*
G54D18*X46000Y181000D03*
G54D11*G36*
X83250Y168750D02*Y163250D01*
X88750D01*
Y168750D01*
X83250D01*
G37*
G36*
X97000Y124000D02*Y118000D01*
X103000D01*
Y124000D01*
X97000D01*
G37*
G36*
X83250Y183750D02*Y178250D01*
X88750D01*
Y183750D01*
X83250D01*
G37*
G54D18*X126000Y166000D03*
G54D11*G36*
X121000Y206500D02*Y200500D01*
X127000D01*
Y206500D01*
X121000D01*
G37*
G36*
X148250Y251250D02*Y245750D01*
X153750D01*
Y251250D01*
X148250D01*
G37*
G54D18*X108500Y268500D03*
X151000Y288500D03*
X186000D03*
G54D11*G36*
X148250Y306250D02*Y300750D01*
X153750D01*
Y306250D01*
X148250D01*
G37*
G54D18*X151000Y343500D03*
G54D11*G36*
X165750Y278750D02*Y273250D01*
X171250D01*
Y278750D01*
X165750D01*
G37*
G54D18*X168500Y316000D03*
G54D22*Y261000D03*
G54D11*G36*
X105500Y245000D02*Y239000D01*
X111500D01*
Y245000D01*
X105500D01*
G37*
G36*
X165250Y224250D02*Y217750D01*
X171750D01*
Y224250D01*
X165250D01*
G37*
G36*
X207400Y224600D02*Y217400D01*
X214600D01*
Y224600D01*
X207400D01*
G37*
G54D23*X201000Y221000D03*
X191000D03*
G54D11*G36*
X183250Y251250D02*Y245750D01*
X188750D01*
Y251250D01*
X183250D01*
G37*
G36*
X284000Y225500D02*Y219500D01*
X290000D01*
Y225500D01*
X284000D01*
G37*
G54D17*X287000Y212500D03*
Y202500D03*
G54D24*X295000Y353000D03*
X315000D03*
G54D11*G36*
X300500Y307500D02*Y298500D01*
X309500D01*
Y307500D01*
X300500D01*
G37*
G54D24*X286500Y303000D03*
X323500D03*
X286500Y288000D03*
X305000D03*
X323500D03*
G54D11*G36*
X772750Y258750D02*Y253250D01*
X778250D01*
Y258750D01*
X772750D01*
G37*
G54D18*X805500Y256000D03*
G54D11*G36*
X762750Y243750D02*Y238250D01*
X768250D01*
Y243750D01*
X762750D01*
G37*
G54D18*X805500Y241000D03*
G54D19*Y271000D03*
G54D17*X740500Y259000D03*
X750500D03*
G54D11*G36*
X761500Y275000D02*Y267000D01*
X769500D01*
Y275000D01*
X761500D01*
G37*
G36*
X707750Y228750D02*Y223250D01*
X713250D01*
Y228750D01*
X707750D01*
G37*
G54D18*X750500Y226000D03*
G54D11*G36*
X707750Y243750D02*Y238250D01*
X713250D01*
Y243750D01*
X707750D01*
G37*
G54D18*X750500Y241000D03*
G54D11*G36*
X772750Y228750D02*Y223250D01*
X778250D01*
Y228750D01*
X772750D01*
G37*
G54D18*X805500Y226000D03*
G54D11*G36*
X762750Y213750D02*Y208250D01*
X768250D01*
Y213750D01*
X762750D01*
G37*
G54D18*X805500Y211000D03*
G54D11*G36*
X817500Y214000D02*Y208000D01*
X823500D01*
Y214000D01*
X817500D01*
G37*
G54D18*X750500Y211000D03*
G54D11*G36*
X717750Y213750D02*Y208250D01*
X723250D01*
Y213750D01*
X717750D01*
G37*
G36*
X837500Y269000D02*Y263000D01*
X843500D01*
Y269000D01*
X837500D01*
G37*
G54D17*X840500Y256000D03*
Y246000D03*
Y236000D03*
X870500D03*
Y246000D03*
Y256000D03*
Y266000D03*
G54D18*X860500Y196000D03*
G54D19*Y181000D03*
X845500Y308500D03*
X855500D03*
G54D20*X835500Y332500D03*
X875500D03*
G54D11*G36*
X629750Y200750D02*Y194250D01*
X636250D01*
Y200750D01*
X629750D01*
G37*
G54D22*X643000Y197500D03*
X653000D03*
X663000D03*
G54D17*X633000Y151000D03*
G54D11*G36*
X707750Y166250D02*Y160750D01*
X713250D01*
Y166250D01*
X707750D01*
G37*
G54D18*X750500Y163500D03*
G54D11*G36*
X822500Y167000D02*Y161000D01*
X828500D01*
Y167000D01*
X822500D01*
G37*
G36*
X817750Y198750D02*Y193250D01*
X823250D01*
Y198750D01*
X817750D01*
G37*
G54D18*X805500Y196000D03*
G54D11*G36*
X822500Y146500D02*Y140500D01*
X828500D01*
Y146500D01*
X822500D01*
G37*
G36*
X796500Y185000D02*Y177000D01*
X804500D01*
Y185000D01*
X796500D01*
G37*
G36*
X772750Y198750D02*Y193250D01*
X778250D01*
Y198750D01*
X772750D01*
G37*
G36*
X707750D02*Y193250D01*
X713250D01*
Y198750D01*
X707750D01*
G37*
G54D18*X750500Y196000D03*
G54D11*G36*
X707250Y184250D02*Y177750D01*
X713750D01*
Y184250D01*
X707250D01*
G37*
G54D22*X750500Y181000D03*
G54D11*G36*
X591900Y170600D02*Y163400D01*
X599100D01*
Y170600D01*
X591900D01*
G37*
G54D18*X615500Y226000D03*
G54D23*X585500Y167000D03*
X575500D03*
G54D11*G36*
X572750Y228750D02*Y223250D01*
X578250D01*
Y228750D01*
X572750D01*
G37*
G36*
X727500Y262000D02*Y256000D01*
X733500D01*
Y262000D01*
X727500D01*
G37*
G54D24*X697000Y288500D03*
X705500Y353500D03*
X725500D03*
G54D11*G36*
X711000Y308000D02*Y299000D01*
X720000D01*
Y308000D01*
X711000D01*
G37*
G54D24*X697000Y303500D03*
X734000D03*
X715500Y288500D03*
X734000D03*
G54D11*G36*
X630000Y89000D02*Y83000D01*
X636000D01*
Y89000D01*
X630000D01*
G37*
G36*
X572750Y138750D02*Y133250D01*
X578250D01*
Y138750D01*
X572750D01*
G37*
G54D18*X615500Y136000D03*
G54D11*G36*
X620000Y154000D02*Y148000D01*
X626000D01*
Y154000D01*
X620000D01*
G37*
G36*
X572750Y118750D02*Y113250D01*
X578250D01*
Y118750D01*
X572750D01*
G37*
G54D18*X615500Y116000D03*
G54D24*X522500Y91000D03*
G54D11*G36*
X540500Y170000D02*Y164000D01*
X546500D01*
Y170000D01*
X540500D01*
G37*
G54D17*X553500Y167000D03*
G54D11*G36*
X253036Y120437D02*Y112563D01*
X260910D01*
Y120437D01*
X253036D01*
G37*
G54D21*X316028Y116500D03*
G54D11*G36*
X343000Y172000D02*Y166000D01*
X349000D01*
Y172000D01*
X343000D01*
G37*
G36*
X368250Y188250D02*Y182750D01*
X373750D01*
Y188250D01*
X368250D01*
G37*
G36*
X378250Y165750D02*Y160250D01*
X383750D01*
Y165750D01*
X378250D01*
G37*
G36*
X393250Y145750D02*Y140250D01*
X398750D01*
Y145750D01*
X393250D01*
G37*
G54D18*X381000Y123000D03*
G54D11*G36*
X428000Y156000D02*Y150000D01*
X434000D01*
Y156000D01*
X428000D01*
G37*
G54D17*X431000Y143000D03*
Y133000D03*
G54D18*X411000Y185500D03*
G54D11*G36*
X408000Y156000D02*Y150000D01*
X414000D01*
Y156000D01*
X408000D01*
G37*
G54D18*X411000Y83000D03*
G54D17*X431000D03*
G54D11*G36*
X408250Y125750D02*Y120250D01*
X413750D01*
Y125750D01*
X408250D01*
G37*
G54D17*X431000Y123000D03*
Y113000D03*
Y103000D03*
Y93000D03*
G54D18*X396000Y103000D03*
G54D17*X461000Y83000D03*
Y93000D03*
Y103000D03*
Y113000D03*
Y123000D03*
G54D18*X483500Y103000D03*
G54D17*X461000Y133000D03*
G54D11*G36*
X458250Y186250D02*Y180750D01*
X463750D01*
Y186250D01*
X458250D01*
G37*
G54D17*X461000Y143000D03*
Y153000D03*
G54D11*G36*
X480750Y145750D02*Y140250D01*
X486250D01*
Y145750D01*
X480750D01*
G37*
G54D18*X501000Y183500D03*
G54D11*G36*
X572750Y98750D02*Y93250D01*
X578250D01*
Y98750D01*
X572750D01*
G37*
G54D18*X615500Y96000D03*
G54D11*G36*
X630000Y119000D02*Y113000D01*
X636000D01*
Y119000D01*
X630000D01*
G37*
G36*
X572750Y78750D02*Y73250D01*
X578250D01*
Y78750D01*
X572750D01*
G37*
G54D18*X615500Y76000D03*
G54D11*G36*
X655500Y139000D02*Y133000D01*
X661500D01*
Y139000D01*
X655500D01*
G37*
G54D17*X658500Y126000D03*
Y116000D03*
Y106000D03*
Y96000D03*
Y86000D03*
Y76000D03*
G54D11*G36*
X867500Y146500D02*Y140500D01*
X873500D01*
Y146500D01*
X867500D01*
G37*
G54D17*X870500Y133500D03*
Y123500D03*
Y113500D03*
Y103500D03*
Y93500D03*
Y83500D03*
Y73500D03*
Y63500D03*
X798000Y132000D03*
X825500Y133500D03*
Y123500D03*
Y113500D03*
Y103500D03*
Y93500D03*
Y83500D03*
Y73500D03*
Y63500D03*
G54D23*X798000Y103500D03*
X808000D03*
G54D11*G36*
X707750Y68750D02*Y63250D01*
X713250D01*
Y68750D01*
X707750D01*
G37*
G36*
X707500Y109000D02*Y103000D01*
X713500D01*
Y109000D01*
X707500D01*
G37*
G54D17*X720500Y106000D03*
G54D11*G36*
X707750Y88750D02*Y83250D01*
X713250D01*
Y88750D01*
X707750D01*
G37*
G36*
X785000Y135000D02*Y129000D01*
X791000D01*
Y135000D01*
X785000D01*
G37*
G36*
X707750Y138750D02*Y133250D01*
X713250D01*
Y138750D01*
X707750D01*
G37*
G54D18*X750500Y136000D03*
G54D11*G36*
X737500Y111500D02*Y105500D01*
X743500D01*
Y111500D01*
X737500D01*
G37*
G54D17*X750500Y108500D03*
X760500D03*
G54D11*G36*
X784400Y107100D02*Y99900D01*
X791600D01*
Y107100D01*
X784400D01*
G37*
G54D18*X750500Y66000D03*
Y86000D03*
G54D11*G36*
X765000Y79000D02*Y73000D01*
X771000D01*
Y79000D01*
X765000D01*
G37*
G54D17*X688500Y76000D03*
Y86000D03*
Y96000D03*
Y106000D03*
Y116000D03*
Y126000D03*
Y136000D03*
G54D11*G36*
X572250Y200750D02*Y194250D01*
X578750D01*
Y200750D01*
X572250D01*
G37*
G36*
X572750Y243750D02*Y238250D01*
X578250D01*
Y243750D01*
X572750D01*
G37*
G54D22*X585500Y197500D03*
X595500D03*
G54D11*G36*
X630500Y244000D02*Y238000D01*
X636500D01*
Y244000D01*
X630500D01*
G37*
G54D17*X643500Y241000D03*
X653500D03*
X663500D03*
G54D18*X615500D03*
G54D11*G36*
X428000Y243500D02*Y237500D01*
X434000D01*
Y243500D01*
X428000D01*
G37*
G54D17*X431000Y230500D03*
Y220500D03*
Y210500D03*
X461000D03*
Y220500D03*
Y230500D03*
Y240500D03*
G54D11*G36*
X368250Y223250D02*Y217750D01*
X373750D01*
Y223250D01*
X368250D01*
G37*
G36*
Y243250D02*Y237750D01*
X373750D01*
Y243250D01*
X368250D01*
G37*
G36*
X372000Y339500D02*Y332500D01*
X379000D01*
Y339500D01*
X372000D01*
G37*
G54D25*X365500Y336000D03*
G54D18*X411000Y220500D03*
Y203000D03*
Y240500D03*
G54D11*G36*
X378250Y205750D02*Y200250D01*
X383750D01*
Y205750D01*
X378250D01*
G37*
G36*
X480750Y213250D02*Y207750D01*
X486250D01*
Y213250D01*
X480750D01*
G37*
G36*
X518000Y195500D02*Y186500D01*
X527000D01*
Y195500D01*
X518000D01*
G37*
G54D18*X522500Y210500D03*
G54D11*G36*
X498250Y213250D02*Y207750D01*
X503750D01*
Y213250D01*
X498250D01*
G37*
G54D18*X483500Y250500D03*
G54D11*G36*
X519750Y253250D02*Y247750D01*
X525250D01*
Y253250D01*
X519750D01*
G37*
G54D18*X501000Y250500D03*
G54D26*X126587Y331879D02*Y330894D01*
Y317115D02*Y316130D01*
Y309045D02*Y308060D01*
Y294281D02*Y293296D01*
Y354714D02*Y353729D01*
Y339950D02*Y338965D01*
G54D27*X777500Y48500D03*
Y62500D03*
G54D17*X843000Y104000D03*
Y56000D03*
X853000Y114000D03*
X843000Y223500D03*
X645000Y49500D03*
X836000Y133500D03*
G54D27*X626500Y105500D03*
X678500Y155500D03*
X658500Y179500D03*
G54D17*X535500Y49500D03*
Y62500D03*
G54D27*X545000Y69500D03*
X567000Y152500D03*
X488000Y69500D03*
X157500Y335500D03*
G54D17*X247500Y331500D03*
G54D27*X136000Y335500D03*
G54D17*X11000Y144000D03*
G54D27*X142500Y328500D03*
X211500Y255500D03*
X224000Y212500D03*
X286500Y255500D03*
X395500Y266500D03*
X487000Y168500D03*
X641000Y175000D03*
X497000Y167000D03*
X505500Y158500D03*
X620000Y165500D03*
X463500Y168500D03*
X406500Y273500D03*
G54D12*G54D14*G54D12*G54D14*G54D12*G54D14*G54D12*G54D14*G54D12*G54D28*G54D29*G54D28*G54D29*G54D30*G54D31*G54D30*G54D31*G54D29*G54D32*G54D29*G54D28*G54D29*G54D28*G54D33*G54D28*G54D29*G54D32*G54D29*G54D34*G54D32*G54D29*G54D32*G54D29*G54D35*G54D29*G54D32*G54D36*G54D29*G54D32*G54D29*G54D32*G54D29*G54D28*G54D29*G54D37*G54D30*G54D31*G54D32*G54D29*G54D32*G54D29*G54D32*G54D37*G54D29*G54D35*G54D29*G54D35*G54D29*G54D32*G54D36*G54D32*G54D29*G54D37*G54D29*G54D38*G54D32*G54D29*G54D28*G54D29*G54D32*G54D29*G54D28*G54D29*G54D28*G54D29*G54D28*G54D29*G54D28*G54D29*G54D28*G54D29*G54D32*G54D29*G54D28*G54D32*G54D29*G54D32*G54D35*G54D29*G54D32*G54D35*G54D29*G54D32*G54D28*G54D32*G54D29*G54D32*G54D29*G54D28*G54D29*G54D28*G54D29*G54D37*G54D29*M02*
