G04 start of page 5 for group 3 idx 3 *
G04 Title: (unknown), GND *
G04 Creator: pcb 20091103 *
G04 CreationDate: Mon Apr 26 17:04:44 2010 UTC *
G04 For: fosse *
G04 Format: Gerber/RS-274X *
G04 PCB-Dimensions: 1200000 1000000 *
G04 PCB-Coordinate-Origin: lower left *
%MOIN*%
%FSLAX25Y25*%
%LNGROUP3*%
%ADD11C,0.0200*%
%ADD13C,0.0350*%
%ADD15C,0.0550*%
%ADD16C,0.0600*%
%ADD17C,0.0650*%
%ADD18C,0.0800*%
%ADD19C,0.0787*%
%ADD20C,0.2000*%
%ADD21C,0.0900*%
%ADD22C,0.0720*%
%ADD23C,0.0700*%
%ADD24C,0.0460*%
%ADD26C,0.0300*%
%ADD27C,0.0280*%
%ADD28C,0.0380*%
%ADD29C,0.0320*%
%ADD30C,0.0315*%
%ADD31C,0.0790*%
%ADD32C,0.0510*%
%ADD33C,0.0420*%
%ADD34C,0.0500*%
%ADD35C,0.0472*%
%ADD36C,0.0395*%
G54D11*G36*
X228750Y601750D02*Y596250D01*
X234250D01*
Y601750D01*
X228750D01*
G37*
G36*
X198750D02*Y596250D01*
X204250D01*
Y601750D01*
X198750D01*
G37*
G54D15*X161500Y599000D03*
G54D16*X191500Y669000D03*
X221500D03*
G54D15*X161500D03*
G54D16*X191500Y659000D03*
Y649000D03*
X221500D03*
Y659000D03*
G54D15*X176500Y659500D03*
G54D11*G36*
X228750Y631750D02*Y626250D01*
X234250D01*
Y631750D01*
X228750D01*
G37*
G54D15*X191500Y629000D03*
G54D11*G36*
X173750Y622250D02*Y616750D01*
X179250D01*
Y622250D01*
X173750D01*
G37*
G36*
X158750Y631750D02*Y626250D01*
X164250D01*
Y631750D01*
X158750D01*
G37*
G36*
X228750Y616750D02*Y611250D01*
X234250D01*
Y616750D01*
X228750D01*
G37*
G54D15*X191500Y614000D03*
G54D11*G36*
X266500Y639500D02*Y633500D01*
X272500D01*
Y639500D01*
X266500D01*
G37*
G36*
X251000Y678000D02*Y672000D01*
X257000D01*
Y678000D01*
X251000D01*
G37*
G36*
X188500Y682000D02*Y676000D01*
X194500D01*
Y682000D01*
X188500D01*
G37*
G54D16*X221500Y679000D03*
G54D11*G36*
X211250Y704250D02*Y698750D01*
X216750D01*
Y704250D01*
X211250D01*
G37*
G54D15*X254000Y701500D03*
X201500D03*
G54D11*G36*
X236000Y720000D02*Y714000D01*
X242000D01*
Y720000D01*
X236000D01*
G37*
G36*
X293750Y684250D02*Y678750D01*
X299250D01*
Y684250D01*
X293750D01*
G37*
G36*
X328750D02*Y678750D01*
X334250D01*
Y684250D01*
X328750D01*
G37*
G54D15*X296500Y721500D03*
X331500D03*
G54D11*G36*
X293750Y739250D02*Y733750D01*
X299250D01*
Y739250D01*
X293750D01*
G37*
G36*
X311250Y711750D02*Y706250D01*
X316750D01*
Y711750D01*
X311250D01*
G37*
G54D15*X314000Y749000D03*
G54D17*Y694000D03*
G54D18*X196500Y740000D03*
G54D11*G36*
X158750Y719750D02*Y714250D01*
X164250D01*
Y719750D01*
X158750D01*
G37*
G54D15*X201500Y717000D03*
G54D11*G36*
X158750Y704250D02*Y698750D01*
X164250D01*
Y704250D01*
X158750D01*
G37*
G36*
X311750Y490750D02*Y485250D01*
X317250D01*
Y490750D01*
X311750D01*
G37*
G36*
Y526750D02*Y521250D01*
X317250D01*
Y526750D01*
X311750D01*
G37*
G36*
Y509250D02*Y503750D01*
X317250D01*
Y509250D01*
X311750D01*
G37*
G36*
Y546750D02*Y541250D01*
X317250D01*
Y546750D01*
X311750D01*
G37*
G54D15*X344500Y488000D03*
X354500Y524000D03*
Y506500D03*
Y544000D03*
X271500Y599000D03*
G54D11*G36*
X242500Y557000D02*Y551000D01*
X248500D01*
Y557000D01*
X242500D01*
G37*
G36*
X259000Y537000D02*Y531000D01*
X265000D01*
Y537000D01*
X259000D01*
G37*
G54D16*X262000Y524000D03*
Y514000D03*
G54D19*X214000Y534000D03*
G54D11*G36*
X180141Y537544D02*Y529670D01*
X188015D01*
Y537544D01*
X180141D01*
G37*
G54D16*X262000Y504000D03*
G54D11*G36*
X201250Y490750D02*Y485250D01*
X206750D01*
Y490750D01*
X201250D01*
G37*
G54D15*X234000Y488000D03*
G54D16*X292000Y504000D03*
Y514000D03*
Y524000D03*
Y534000D03*
G54D18*X991000Y740000D03*
G54D20*X981000Y764000D03*
G54D18*X1001000Y740000D03*
G54D20*X1021000Y764000D03*
G54D16*X1016000Y669000D03*
Y679000D03*
Y689000D03*
Y699000D03*
G54D11*G36*
X918250Y691750D02*Y686250D01*
X923750D01*
Y691750D01*
X918250D01*
G37*
G36*
X908250Y676750D02*Y671250D01*
X913750D01*
Y676750D01*
X908250D01*
G37*
G36*
X918250Y631750D02*Y626250D01*
X923750D01*
Y631750D01*
X918250D01*
G37*
G36*
X908250Y646750D02*Y641250D01*
X913750D01*
Y646750D01*
X908250D01*
G37*
G36*
X918250Y661750D02*Y656250D01*
X923750D01*
Y661750D01*
X918250D01*
G37*
G36*
X907000Y708000D02*Y700000D01*
X915000D01*
Y708000D01*
X907000D01*
G37*
G54D15*X951000Y689000D03*
Y674000D03*
Y644000D03*
Y659000D03*
G54D18*Y704000D03*
G54D11*G36*
X963000Y647000D02*Y641000D01*
X969000D01*
Y647000D01*
X963000D01*
G37*
G36*
X873000Y695000D02*Y689000D01*
X879000D01*
Y695000D01*
X873000D01*
G37*
G54D16*X886000Y692000D03*
X896000D03*
G54D11*G36*
X853250Y676750D02*Y671250D01*
X858750D01*
Y676750D01*
X853250D01*
G37*
G54D15*X896000Y674000D03*
G54D21*X851000Y786500D03*
X871000D03*
G54D11*G36*
X856500Y741000D02*Y732000D01*
X865500D01*
Y741000D01*
X856500D01*
G37*
G54D21*X842500Y736500D03*
X879500D03*
X842500Y721500D03*
X861000D03*
X879500D03*
G54D16*X803500Y539000D03*
Y529000D03*
Y519000D03*
Y509000D03*
G54D11*G36*
X800500Y572000D02*Y566000D01*
X806500D01*
Y572000D01*
X800500D01*
G37*
G54D16*X803500Y559000D03*
Y549000D03*
Y499000D03*
G54D11*G36*
X775500Y522000D02*Y516000D01*
X781500D01*
Y522000D01*
X775500D01*
G37*
G36*
Y552000D02*Y546000D01*
X781500D01*
Y552000D01*
X775500D01*
G37*
G36*
X775250Y633750D02*Y627250D01*
X781750D01*
Y633750D01*
X775250D01*
G37*
G54D17*X788500Y630500D03*
X798500D03*
X808500D03*
G54D11*G36*
X717750Y633750D02*Y627250D01*
X724250D01*
Y633750D01*
X717750D01*
G37*
G54D17*X731000Y630500D03*
X741000D03*
G54D11*G36*
X776000Y677000D02*Y671000D01*
X782000D01*
Y677000D01*
X776000D01*
G37*
G36*
X718250Y676750D02*Y671250D01*
X723750D01*
Y676750D01*
X718250D01*
G37*
G54D15*X761000Y674000D03*
G54D16*X789000D03*
X799000D03*
X809000D03*
G54D11*G36*
X718250Y661750D02*Y656250D01*
X723750D01*
Y661750D01*
X718250D01*
G37*
G54D15*X761000Y659000D03*
Y569000D03*
G54D11*G36*
X765500Y587000D02*Y581000D01*
X771500D01*
Y587000D01*
X765500D01*
G37*
G54D16*X778500Y584000D03*
G54D11*G36*
X737400Y603600D02*Y596400D01*
X744600D01*
Y603600D01*
X737400D01*
G37*
G54D22*X731000Y600000D03*
X721000D03*
G54D11*G36*
X718250Y571750D02*Y566250D01*
X723750D01*
Y571750D01*
X718250D01*
G37*
G36*
Y551750D02*Y546250D01*
X723750D01*
Y551750D01*
X718250D01*
G37*
G54D15*X761000Y549000D03*
G54D11*G36*
X718250Y531750D02*Y526250D01*
X723750D01*
Y531750D01*
X718250D01*
G37*
G54D15*X761000Y529000D03*
G54D11*G36*
X718250Y511750D02*Y506250D01*
X723750D01*
Y511750D01*
X718250D01*
G37*
G54D15*X761000Y509000D03*
G54D11*G36*
X573500Y589000D02*Y583000D01*
X579500D01*
Y589000D01*
X573500D01*
G37*
G54D16*X576500Y576000D03*
Y566000D03*
G54D15*X556500Y516000D03*
G54D11*G36*
X553750Y558750D02*Y553250D01*
X559250D01*
Y558750D01*
X553750D01*
G37*
G54D16*X576500Y556000D03*
Y546000D03*
Y536000D03*
G54D15*X541500D03*
X556500Y618500D03*
G54D11*G36*
X553500Y589000D02*Y583000D01*
X559500D01*
Y589000D01*
X553500D01*
G37*
G54D15*X556500Y653500D03*
Y636000D03*
G54D11*G36*
X573500Y676500D02*Y670500D01*
X579500D01*
Y676500D01*
X573500D01*
G37*
G54D15*X556500Y673500D03*
G54D16*X576500Y663500D03*
Y653500D03*
Y643500D03*
Y526000D03*
Y516000D03*
X606500D03*
Y526000D03*
Y536000D03*
G54D15*X629000D03*
G54D16*X606500Y546000D03*
Y556000D03*
Y566000D03*
Y576000D03*
Y586000D03*
G54D11*G36*
X626250Y578750D02*Y573250D01*
X631750D01*
Y578750D01*
X626250D01*
G37*
G54D21*X668000Y524000D03*
G54D11*G36*
X626250Y646250D02*Y640750D01*
X631750D01*
Y646250D01*
X626250D01*
G37*
G54D16*X606500Y643500D03*
Y653500D03*
Y663500D03*
Y673500D03*
G54D11*G36*
X603750Y619250D02*Y613750D01*
X609250D01*
Y619250D01*
X603750D01*
G37*
G54D15*X629000Y683500D03*
G54D11*G36*
X665250Y686250D02*Y680750D01*
X670750D01*
Y686250D01*
X665250D01*
G37*
G54D15*X646500Y683500D03*
G54D11*G36*
X663500Y628500D02*Y619500D01*
X672500D01*
Y628500D01*
X663500D01*
G37*
G54D15*X668000Y643500D03*
G54D11*G36*
X643750Y646250D02*Y640750D01*
X649250D01*
Y646250D01*
X643750D01*
G37*
G54D15*X646500Y616500D03*
G54D11*G36*
X686000Y603000D02*Y597000D01*
X692000D01*
Y603000D01*
X686000D01*
G37*
G54D16*X699000Y600000D03*
X833500Y499000D03*
G54D11*G36*
X853250Y501750D02*Y496250D01*
X858750D01*
Y501750D01*
X853250D01*
G37*
G54D15*X896000Y499000D03*
G54D16*X833500Y509000D03*
G54D11*G36*
X853000Y542000D02*Y536000D01*
X859000D01*
Y542000D01*
X853000D01*
G37*
G54D16*X866000Y539000D03*
G54D11*G36*
X883000Y544500D02*Y538500D01*
X889000D01*
Y544500D01*
X883000D01*
G37*
G36*
X853250Y521750D02*Y516250D01*
X858750D01*
Y521750D01*
X853250D01*
G37*
G54D16*X833500Y519000D03*
Y529000D03*
Y539000D03*
Y549000D03*
Y559000D03*
Y569000D03*
G54D15*X896000Y519000D03*
G54D11*G36*
X910500Y512000D02*Y506000D01*
X916500D01*
Y512000D01*
X910500D01*
G37*
G36*
X853250Y661750D02*Y656250D01*
X858750D01*
Y661750D01*
X853250D01*
G37*
G36*
Y599250D02*Y593750D01*
X858750D01*
Y599250D01*
X853250D01*
G37*
G36*
Y631750D02*Y626250D01*
X858750D01*
Y631750D01*
X853250D01*
G37*
G54D15*X896000Y659000D03*
Y596500D03*
Y629000D03*
Y644000D03*
G54D11*G36*
X852750Y617250D02*Y610750D01*
X859250D01*
Y617250D01*
X852750D01*
G37*
G54D17*X896000Y614000D03*
G54D11*G36*
X863250Y646750D02*Y641250D01*
X868750D01*
Y646750D01*
X863250D01*
G37*
G36*
X930500Y568000D02*Y562000D01*
X936500D01*
Y568000D01*
X930500D01*
G37*
G54D16*X943500Y565000D03*
G54D11*G36*
X853250Y571750D02*Y566250D01*
X858750D01*
Y571750D01*
X853250D01*
G37*
G54D15*X896000Y569000D03*
G54D11*G36*
X949900Y540100D02*Y532900D01*
X957100D01*
Y540100D01*
X949900D01*
G37*
G54D22*X943500Y536500D03*
X933500D03*
G54D16*X896000Y541500D03*
X906000D03*
G54D11*G36*
X963250Y616750D02*Y611250D01*
X968750D01*
Y616750D01*
X963250D01*
G37*
G36*
Y631750D02*Y626250D01*
X968750D01*
Y631750D01*
X963250D01*
G37*
G54D15*X951000Y629000D03*
X1006000Y614000D03*
G54D11*G36*
X983000Y702000D02*Y696000D01*
X989000D01*
Y702000D01*
X983000D01*
G37*
G54D16*X986000Y689000D03*
Y679000D03*
Y669000D03*
G54D15*X1006000Y629000D03*
G54D11*G36*
X1013000Y579500D02*Y573500D01*
X1019000D01*
Y579500D01*
X1013000D01*
G37*
G54D16*X1016000Y566500D03*
Y556500D03*
Y546500D03*
Y536500D03*
Y526500D03*
Y516500D03*
Y506500D03*
Y496500D03*
G54D11*G36*
X968000Y579500D02*Y573500D01*
X974000D01*
Y579500D01*
X968000D01*
G37*
G54D16*X971000Y566500D03*
Y556500D03*
G54D11*G36*
X968000Y600000D02*Y594000D01*
X974000D01*
Y600000D01*
X968000D01*
G37*
G54D16*X971000Y546500D03*
Y536500D03*
Y526500D03*
Y516500D03*
Y506500D03*
Y496500D03*
G54D11*G36*
X527000Y772000D02*Y765000D01*
X534000D01*
Y772000D01*
X527000D01*
G37*
G54D18*X186500Y740000D03*
G54D20*X216500Y764000D03*
X176500D03*
G54D15*X296500Y776500D03*
G54D21*X440500Y786500D03*
X460500D03*
G54D11*G36*
X310750Y657250D02*Y650750D01*
X317250D01*
Y657250D01*
X310750D01*
G37*
G36*
X352900Y657600D02*Y650400D01*
X360100D01*
Y657600D01*
X352900D01*
G37*
G54D22*X346500Y654000D03*
X336500D03*
G54D11*G36*
X429500Y658500D02*Y652500D01*
X435500D01*
Y658500D01*
X429500D01*
G37*
G54D16*X432500Y645500D03*
Y635500D03*
G54D11*G36*
X513750Y656250D02*Y650750D01*
X519250D01*
Y656250D01*
X513750D01*
G37*
G36*
X523750Y638750D02*Y633250D01*
X529250D01*
Y638750D01*
X523750D01*
G37*
G36*
X513750Y676250D02*Y670750D01*
X519250D01*
Y676250D01*
X513750D01*
G37*
G36*
X398536Y553437D02*Y545563D01*
X406410D01*
Y553437D01*
X398536D01*
G37*
G54D19*X461528Y549500D03*
G54D11*G36*
X488500Y605000D02*Y599000D01*
X494500D01*
Y605000D01*
X488500D01*
G37*
G36*
X513750Y621250D02*Y615750D01*
X519250D01*
Y621250D01*
X513750D01*
G37*
G36*
X523750Y598750D02*Y593250D01*
X529250D01*
Y598750D01*
X523750D01*
G37*
G54D15*X526500Y556000D03*
G54D11*G36*
X538750Y578750D02*Y573250D01*
X544250D01*
Y578750D01*
X538750D01*
G37*
G54D23*X520500Y768500D03*
G54D11*G36*
X446000Y741000D02*Y732000D01*
X455000D01*
Y741000D01*
X446000D01*
G37*
G54D21*X432000Y736500D03*
X469000D03*
X432000Y721500D03*
X450500D03*
X469000D03*
G54D16*X202000Y614000D03*
G54D24*X303000Y768500D03*
X281500D03*
X288000Y761500D03*
G54D16*X156500Y577000D03*
G54D24*X642500Y600000D03*
X651000Y591500D03*
X357000Y688500D03*
X432000D03*
G54D16*X393000Y764500D03*
G54D24*X369500Y645500D03*
X541000Y699500D03*
X609000Y601500D03*
X632500D03*
X552000Y706500D03*
X923000Y481500D03*
Y495500D03*
G54D16*X988500Y537000D03*
Y656500D03*
Y489000D03*
X981500Y566500D03*
X998500Y547000D03*
G54D24*X772000Y538500D03*
X786500Y608000D03*
G54D16*X790500Y482500D03*
G54D24*X818500Y579500D03*
X765500Y598500D03*
X813000Y606500D03*
G54D16*X681000Y482500D03*
Y495500D03*
G54D24*X690500Y502500D03*
X712500Y585500D03*
X833000Y588500D03*
X633500Y502500D03*
G54D26*G54D27*G54D26*G54D27*G54D26*G54D28*G54D27*G54D26*G54D28*G54D26*G54D29*G54D26*G54D28*G54D27*G54D30*G54D27*G54D26*G54D27*G54D29*G54D31*G54D29*G54D31*G54D27*G54D26*G54D28*G54D26*G54D32*G54D27*G54D28*G54D26*G54D28*G54D26*G54D33*G54D26*G54D27*G54D26*G54D27*G54D26*G54D28*G54D26*G54D27*G54D26*G54D27*G54D26*G54D27*G54D26*G54D34*G54D26*G54D27*G54D26*G54D34*G54D26*G54D27*G54D26*G54D27*G54D26*G54D28*G54D26*G54D27*G54D26*G54D28*G54D26*G54D33*G54D28*G54D26*G54D27*G54D26*G54D28*G54D27*G54D35*G54D29*G54D31*G54D26*G54D32*G54D26*G54D33*G54D28*G54D26*G54D36*G54D28*G54D26*G54D27*G54D32*G54D13*G54D11*G54D13*G54D11*G54D13*G54D11*G54D13*G54D11*G54D13*G54D11*G54D13*G54D11*M02*
