G04 start of page 6 for group -4063 idx -4063 *
G04 Title: (unknown), componentmask *
G04 Creator: pcb 20110918 *
G04 CreationDate: Fri Feb 15 23:12:40 2013 UTC *
G04 For: fosse *
G04 Format: Gerber/RS-274X *
G04 PCB-Dimensions: 893500 333500 *
G04 PCB-Coordinate-Origin: lower left *
%MOIN*%
%FSLAX25Y25*%
%LNTOPMASK*%
%ADD80R,0.0591X0.0591*%
%ADD79R,0.0907X0.0907*%
%ADD78C,0.0672*%
%ADD77C,0.0722*%
%ADD76C,0.0780*%
%ADD75C,0.2060*%
%ADD74C,0.0860*%
%ADD73C,0.0710*%
%ADD72C,0.0847*%
%ADD71C,0.0960*%
%ADD70C,0.0600*%
%ADD69C,0.0660*%
%ADD68C,0.0610*%
%ADD67C,0.0001*%
G54D67*G36*
X367950Y158550D02*Y152450D01*
X374050D01*
Y158550D01*
X367950D01*
G37*
G54D68*X411000Y155500D03*
Y190500D03*
Y173000D03*
Y210500D03*
G54D67*G36*
X377950Y136050D02*Y129950D01*
X384050D01*
Y136050D01*
X377950D01*
G37*
G36*
Y176050D02*Y169950D01*
X384050D01*
Y176050D01*
X377950D01*
G37*
G36*
X427700Y213800D02*Y207200D01*
X434300D01*
Y213800D01*
X427700D01*
G37*
G54D69*X431000Y200500D03*
Y190500D03*
Y180500D03*
G54D67*G36*
X367950Y193550D02*Y187450D01*
X374050D01*
Y193550D01*
X367950D01*
G37*
G36*
Y213550D02*Y207450D01*
X374050D01*
Y213550D01*
X367950D01*
G37*
G36*
X372500Y309000D02*Y303000D01*
X378500D01*
Y309000D01*
X372500D01*
G37*
G54D70*X365500Y306000D03*
G54D71*X295000Y323000D03*
X315000D03*
G54D67*G36*
X300200Y277800D02*Y268200D01*
X309800D01*
Y277800D01*
X300200D01*
G37*
G54D71*X323500Y273000D03*
X286500D03*
Y258000D03*
X305000D03*
X323500D03*
G54D67*G36*
X392950Y111050D02*Y104950D01*
X399050D01*
Y111050D01*
X392950D01*
G37*
G36*
X407950Y96050D02*Y89950D01*
X414050D01*
Y96050D01*
X407950D01*
G37*
G54D68*X411000Y53000D03*
G54D72*X316028Y86500D03*
G54D68*X381000Y93000D03*
X396000Y68000D03*
G54D67*G36*
X427700Y126300D02*Y119700D01*
X434300D01*
Y126300D01*
X427700D01*
G37*
G54D69*X431000Y113000D03*
Y103000D03*
Y93000D03*
Y83000D03*
Y73000D03*
Y63000D03*
Y53000D03*
G54D67*G36*
X772450Y229050D02*Y222950D01*
X778550D01*
Y229050D01*
X772450D01*
G37*
G54D68*X805500Y226000D03*
G54D67*G36*
X762450Y214050D02*Y207950D01*
X768550D01*
Y214050D01*
X762450D01*
G37*
G54D68*X805500Y211000D03*
Y196000D03*
G54D67*G36*
X727200Y232300D02*Y225700D01*
X733800D01*
Y232300D01*
X727200D01*
G37*
G36*
X707450Y136550D02*Y130450D01*
X713550D01*
Y136550D01*
X707450D01*
G37*
G36*
Y169050D02*Y162950D01*
X713550D01*
Y169050D01*
X707450D01*
G37*
G36*
X717450Y184050D02*Y177950D01*
X723550D01*
Y184050D01*
X717450D01*
G37*
G54D69*X740500Y229000D03*
X750500D03*
G54D68*Y133500D03*
Y211000D03*
Y166000D03*
Y181000D03*
G54D67*G36*
X707450Y199050D02*Y192950D01*
X713550D01*
Y199050D01*
X707450D01*
G37*
G54D68*X750500Y196000D03*
G54D67*G36*
X707450Y214050D02*Y207950D01*
X713550D01*
Y214050D01*
X707450D01*
G37*
G36*
X762450Y184050D02*Y177950D01*
X768550D01*
Y184050D01*
X762450D01*
G37*
G36*
X772450Y199050D02*Y192950D01*
X778550D01*
Y199050D01*
X772450D01*
G37*
G54D73*X750500Y151000D03*
G54D67*G36*
X796200Y155300D02*Y146700D01*
X804800D01*
Y155300D01*
X796200D01*
G37*
G36*
X761200Y245300D02*Y236700D01*
X769800D01*
Y245300D01*
X761200D01*
G37*
G54D74*X805500Y241000D03*
G54D67*G36*
X837200Y239300D02*Y232700D01*
X843800D01*
Y239300D01*
X837200D01*
G37*
G54D69*X840500Y226000D03*
Y216000D03*
Y206000D03*
G54D71*X705500Y323500D03*
G54D67*G36*
X710700Y278300D02*Y268700D01*
X720300D01*
Y278300D01*
X710700D01*
G37*
G54D71*X697000Y273500D03*
Y258500D03*
X715500D03*
X725500Y323500D03*
X734000Y273500D03*
Y258500D03*
G54D67*G36*
X817450Y169050D02*Y162950D01*
X823550D01*
Y169050D01*
X817450D01*
G37*
G54D68*X860500Y166000D03*
G54D67*G36*
X772450Y169050D02*Y162950D01*
X778550D01*
Y169050D01*
X772450D01*
G37*
G54D68*X805500Y166000D03*
Y181000D03*
G54D74*X860500Y151000D03*
G54D69*X870500Y206000D03*
Y216000D03*
Y226000D03*
Y236000D03*
G54D75*X835500Y301000D03*
X875500D03*
G54D74*X845500Y281000D03*
X855500D03*
G54D67*G36*
X822200Y137300D02*Y130700D01*
X828800D01*
Y137300D01*
X822200D01*
G37*
G36*
Y116800D02*Y110200D01*
X828800D01*
Y116800D01*
X822200D01*
G37*
G36*
X867200D02*Y110200D01*
X873800D01*
Y116800D01*
X867200D01*
G37*
G54D69*X870500Y103500D03*
Y93500D03*
Y83500D03*
Y73500D03*
X760500Y78500D03*
X825500Y73500D03*
G54D67*G36*
X804100Y77400D02*Y69600D01*
X811900D01*
Y77400D01*
X804100D01*
G37*
G54D76*X798000Y73500D03*
X788000D03*
G54D69*X870500Y63500D03*
X825500D03*
Y53500D03*
Y43500D03*
Y33500D03*
X870500Y53500D03*
Y43500D03*
Y33500D03*
G54D67*G36*
X784700Y105300D02*Y98700D01*
X791300D01*
Y105300D01*
X784700D01*
G37*
G54D69*X798000Y102000D03*
X825500Y103500D03*
Y93500D03*
Y83500D03*
G54D67*G36*
X629450Y171050D02*Y163950D01*
X636550D01*
Y171050D01*
X629450D01*
G37*
G54D73*X643000Y167500D03*
X653000D03*
X663000D03*
G54D67*G36*
X630200Y214300D02*Y207700D01*
X636800D01*
Y214300D01*
X630200D01*
G37*
G54D69*X643500Y211000D03*
X653500D03*
X663500D03*
G54D67*G36*
X572450Y214050D02*Y207950D01*
X578550D01*
Y214050D01*
X572450D01*
G37*
G54D68*X615500Y211000D03*
G54D67*G36*
X572450Y199050D02*Y192950D01*
X578550D01*
Y199050D01*
X572450D01*
G37*
G54D68*X615500Y196000D03*
G54D67*G36*
X707450Y39050D02*Y32950D01*
X713550D01*
Y39050D01*
X707450D01*
G37*
G54D68*X750500Y36000D03*
G54D69*Y78500D03*
G54D68*Y56000D03*
G54D67*G36*
X707450Y109050D02*Y102950D01*
X713550D01*
Y109050D01*
X707450D01*
G37*
G54D68*X750500Y106000D03*
G54D67*G36*
X706950Y154550D02*Y147450D01*
X714050D01*
Y154550D01*
X706950D01*
G37*
G36*
X707200Y79300D02*Y72700D01*
X713800D01*
Y79300D01*
X707200D01*
G37*
G54D69*X720500Y76000D03*
G54D67*G36*
X737200Y81800D02*Y75200D01*
X743800D01*
Y81800D01*
X737200D01*
G37*
G36*
X707450Y59050D02*Y52950D01*
X713550D01*
Y59050D01*
X707450D01*
G37*
G36*
X572450Y109050D02*Y102950D01*
X578550D01*
Y109050D01*
X572450D01*
G37*
G54D68*X615500Y106000D03*
G54D67*G36*
X572450Y89050D02*Y82950D01*
X578550D01*
Y89050D01*
X572450D01*
G37*
G54D68*X615500Y86000D03*
G54D67*G36*
X619700Y124300D02*Y117700D01*
X626300D01*
Y124300D01*
X619700D01*
G37*
G54D69*X633000Y121000D03*
G54D67*G36*
X480450Y116050D02*Y109950D01*
X486550D01*
Y116050D01*
X480450D01*
G37*
G36*
X571950Y171050D02*Y163950D01*
X579050D01*
Y171050D01*
X571950D01*
G37*
G54D73*X585500Y167500D03*
X595500D03*
G54D67*G36*
X591600Y140900D02*Y133100D01*
X599400D01*
Y140900D01*
X591600D01*
G37*
G54D76*X585500Y137000D03*
G54D67*G36*
X517700Y165800D02*Y156200D01*
X527300D01*
Y165800D01*
X517700D01*
G37*
G36*
X519450Y223550D02*Y217450D01*
X525550D01*
Y223550D01*
X519450D01*
G37*
G36*
X497950D02*Y217450D01*
X504050D01*
Y223550D01*
X497950D01*
G37*
G36*
X480450D02*Y217450D01*
X486550D01*
Y223550D01*
X480450D01*
G37*
G54D68*X522500Y180500D03*
X501000D03*
X483500D03*
G54D69*X461000D03*
Y190500D03*
Y200500D03*
Y210500D03*
G54D76*X575500Y137000D03*
G54D67*G36*
X457950Y156550D02*Y150450D01*
X464050D01*
Y156550D01*
X457950D01*
G37*
G54D68*X501000Y153500D03*
G54D67*G36*
X540200Y140300D02*Y133700D01*
X546800D01*
Y140300D01*
X540200D01*
G37*
G54D69*X553500Y137000D03*
G54D71*X522500Y61000D03*
G54D68*X483500Y73000D03*
G54D69*X461000Y53000D03*
Y63000D03*
Y73000D03*
Y83000D03*
Y93000D03*
Y103000D03*
Y113000D03*
Y123000D03*
G54D67*G36*
X572450Y69050D02*Y62950D01*
X578550D01*
Y69050D01*
X572450D01*
G37*
G36*
Y49050D02*Y42950D01*
X578550D01*
Y49050D01*
X572450D01*
G37*
G54D68*X615500Y66000D03*
Y46000D03*
G54D67*G36*
X655200Y109300D02*Y102700D01*
X661800D01*
Y109300D01*
X655200D01*
G37*
G54D69*X658500Y96000D03*
Y86000D03*
Y76000D03*
Y66000D03*
Y56000D03*
Y46000D03*
X688500D03*
Y56000D03*
Y66000D03*
Y76000D03*
Y86000D03*
Y96000D03*
Y106000D03*
G54D67*G36*
X165950Y28050D02*Y21950D01*
X172050D01*
Y28050D01*
X165950D01*
G37*
G54D68*X199000Y25000D03*
X209000Y43500D03*
G54D67*G36*
X65450Y241550D02*Y235450D01*
X71550D01*
Y241550D01*
X65450D01*
G37*
G54D68*X108500Y238500D03*
G54D67*G36*
X12950Y257050D02*Y250950D01*
X19050D01*
Y257050D01*
X12950D01*
G37*
G54D68*X56000Y254000D03*
G54D67*G36*
X12950Y241550D02*Y235450D01*
X19050D01*
Y241550D01*
X12950D01*
G37*
G54D68*X56000Y238500D03*
G54D77*X116351Y325795D03*
G54D78*X136823Y261228D03*
G54D75*X31000Y301000D03*
X71000D03*
G54D74*X41000Y281000D03*
X51000D03*
G54D68*X209000Y61000D03*
G54D67*G36*
X252736Y90737D02*Y82263D01*
X261210D01*
Y90737D01*
X252736D01*
G37*
G36*
X207100Y194900D02*Y187100D01*
X214900D01*
Y194900D01*
X207100D01*
G37*
G54D76*X201000Y191000D03*
X191000D03*
G54D67*G36*
X283700Y195800D02*Y189200D01*
X290300D01*
Y195800D01*
X283700D01*
G37*
G54D69*X287000Y182500D03*
Y172500D03*
G54D67*G36*
X164950Y194550D02*Y187450D01*
X172050D01*
Y194550D01*
X164950D01*
G37*
G54D73*X168500Y231000D03*
G54D67*G36*
X165450Y289050D02*Y282950D01*
X171550D01*
Y289050D01*
X165450D01*
G37*
G54D68*X168500Y246000D03*
G54D67*G36*
X147950Y316550D02*Y310450D01*
X154050D01*
Y316550D01*
X147950D01*
G37*
G54D68*X151000Y273500D03*
G54D67*G36*
X147950Y261550D02*Y255450D01*
X154050D01*
Y261550D01*
X147950D01*
G37*
G36*
X182950D02*Y255450D01*
X189050D01*
Y261550D01*
X182950D01*
G37*
G54D68*X186000Y218500D03*
X151000D03*
G54D67*G36*
X61700Y140300D02*Y131700D01*
X70300D01*
Y140300D01*
X61700D01*
G37*
G36*
X53950Y154050D02*Y147950D01*
X60050D01*
Y154050D01*
X53950D01*
G37*
G54D68*X53000Y136000D03*
G54D67*G36*
X47700Y112800D02*Y106200D01*
X54300D01*
Y112800D01*
X47700D01*
G37*
G36*
X12950Y209050D02*Y202950D01*
X19050D01*
Y209050D01*
X12950D01*
G37*
G36*
X9950Y139050D02*Y132950D01*
X16050D01*
Y139050D01*
X9950D01*
G37*
G54D68*X16000Y166000D03*
G54D67*G36*
X53950Y169050D02*Y162950D01*
X60050D01*
Y169050D01*
X53950D01*
G37*
G36*
X165950Y64050D02*Y57950D01*
X172050D01*
Y64050D01*
X165950D01*
G37*
G36*
X165700Y84300D02*Y77700D01*
X172300D01*
Y84300D01*
X165700D01*
G37*
G54D69*X179000Y81000D03*
G54D67*G36*
X165950Y46550D02*Y40450D01*
X172050D01*
Y46550D01*
X165950D01*
G37*
G54D69*X116500Y41000D03*
X146500D03*
G54D67*G36*
X86950Y28050D02*Y21950D01*
X93050D01*
Y28050D01*
X86950D01*
G37*
G54D68*X120000Y25000D03*
G54D67*G36*
X113200Y74300D02*Y67700D01*
X119800D01*
Y74300D01*
X113200D01*
G37*
G54D69*X116500Y61000D03*
Y51000D03*
X146500D03*
Y61000D03*
Y71000D03*
G54D67*G36*
X48263Y43737D02*Y35263D01*
X56737D01*
Y43737D01*
X48263D01*
G37*
G54D72*X22578Y39107D03*
G54D74*X126000Y136000D03*
G54D67*G36*
X27950Y199050D02*Y192950D01*
X34050D01*
Y199050D01*
X27950D01*
G37*
G54D68*X31000Y156000D03*
G54D67*G36*
X42700Y219300D02*Y212700D01*
X49300D01*
Y219300D01*
X42700D01*
G37*
G54D69*X46000Y206000D03*
Y196000D03*
Y186000D03*
G54D68*X97000Y166000D03*
G54D69*X76000Y186000D03*
Y196000D03*
Y206000D03*
Y216000D03*
G54D68*X97000Y151000D03*
G54D69*X61000Y109500D03*
G54D67*G36*
X85700Y112800D02*Y106200D01*
X92300D01*
Y112800D01*
X85700D01*
G37*
G54D69*X99000Y109500D03*
G54D79*X342850Y139000D02*X349149D01*
X116850Y181000D02*X123149D01*
X105350Y210000D02*X111649D01*
X71870Y253980D02*X78169D01*
X572850Y223000D02*X579149D01*
X820850Y181000D02*X827150D01*
X634850Y86000D02*X641149D01*
X405350Y122000D02*X411649D01*
X764850Y46000D02*X771149D01*
X636350Y56000D02*X642649D01*
X512850Y26000D02*X519149D01*
X471850Y22500D02*X478149D01*
G54D80*X126587Y301387D02*Y300402D01*
Y324222D02*Y323237D01*
Y309458D02*Y308473D01*
Y286623D02*Y285638D01*
G54D79*X762870Y288480D02*X769169D01*
G54D80*X126587Y278553D02*Y277568D01*
Y263789D02*Y262804D01*
G54D79*X95350Y50500D02*X101649D01*
X76870Y82480D02*X83169D01*
X26350Y82000D02*X32649D01*
X30370Y117980D02*X36669D01*
M02*
