M48
INCH
T158C0.020
T157C0.052
T156C0.038
T155C0.042
T154C0.047
T153C0.086
T152C0.028
T151C0.035
%
T158
X015750Y030550
X013600Y030550
X014250Y029850
X021150Y022550
X028650Y022550
X039550Y023650
X040650Y024350
X022400Y018250
X048700Y013850
X049700Y013700
X050550Y012850
X056700Y012250
X046350Y013850
X067850Y012550
X064100Y014500
X062000Y013550
X062650Y007550
X065850Y014950
X048800Y003950
X054500Y003950
T152
X011650Y004100
X014650Y004100
X014650Y005100
X014650Y006100
X014650Y007100
X011650Y007100
X011650Y006100
X011650Y005100
X037550Y030600
X036550Y030600
X004600Y021600
X004600Y020600
X004600Y019600
X007600Y019600
X007600Y020600
X007600Y021600
X004600Y018600
X007600Y018600
X084050Y023600
X084050Y022600
X084050Y021600
X084050Y020600
X087050Y020600
X087050Y021600
X087050Y022600
X087050Y023600
X046100Y018050
X043100Y021050
X046100Y021050
X043100Y020050
X046100Y020050
X043100Y019050
X043100Y018050
X046100Y019050
X043100Y012300
X043100Y011300
X043100Y010300
X043100Y009300
X043100Y008300
X046100Y008300
X046100Y009300
X046100Y010300
X046100Y011300
X046100Y012300
X043100Y007300
X043100Y006300
X043100Y005300
X046100Y005300
X046100Y006300
X046100Y007300
X065850Y010600
X065850Y009600
X065850Y008600
X065850Y007600
X068850Y007600
X068850Y008600
X068850Y009600
X068850Y010600
X065850Y006600
X068850Y006600
X065850Y005600
X065850Y004600
X068850Y004600
X068850Y005600
T151
X016900Y002500
X009000Y002500
X012000Y002500
X002300Y002950
X003300Y002950
X019900Y002500
X016900Y006100
X016900Y008100
X017900Y008100
X016900Y004350
X020900Y004350
X006800Y007100
X003808Y007061
X006850Y023850
X010850Y023850
X001600Y025400
X005600Y025400
X001600Y023850
X005600Y023850
X004100Y027850
X015100Y031350
X015100Y027350
X015100Y025850
X015100Y021850
X020900Y006100
X016850Y019100
X016850Y023100
X016850Y028600
X016850Y024600
X018600Y025850
X018600Y021850
X037100Y015550
X041100Y015550
X041100Y019050
X041100Y017300
X041100Y021050
X038100Y013300
X038100Y017300
X039600Y010800
X041100Y009300
X041100Y005300
X038100Y009300
X039600Y006800
X037100Y019050
X037100Y021050
X005100Y027850
X005700Y016600
X005700Y015100
X005300Y013600
X009700Y016600
X009700Y015100
X001600Y016600
X003100Y015600
X001300Y013600
X001600Y020600
X003100Y019600
X077550Y022600
X080550Y022600
X076550Y021100
X080550Y021100
X080550Y019600
X071050Y013350
X071050Y016600
X072050Y018100
X075050Y013350
X075050Y021100
X075050Y016600
X075050Y018100
X071050Y019600
X075050Y019600
X071050Y021100
X076550Y018100
X077550Y019600
X075050Y015100
X076550Y024100
X080550Y024100
X084550Y027850
X085550Y027850
X082050Y016600
X086050Y016600
X077550Y016600
X080550Y016600
X080550Y018100
X078800Y010200
X079800Y010200
X057550Y021100
X061550Y021100
X057550Y019600
X061550Y019600
X071050Y003600
X075050Y003600
X075050Y005600
X071050Y010600
X075050Y010600
X071050Y015100
X071050Y007600
X072050Y007600
X071050Y005600
X062300Y012100
X063300Y012100
X048350Y011300
X057550Y006600
X057550Y004600
X048350Y007300
X046100Y015350
X050100Y015350
X054350Y013700
X055350Y013700
X052250Y022050
X050100Y022050
X048350Y022050
X052250Y018050
X050100Y018050
X048350Y018050
X057550Y010600
X061550Y010600
X057550Y008600
X061550Y006600
X061550Y004600
X061550Y008600
X001100Y011400
X008200Y005100
X024750Y030150
X034600Y013900
X084300Y007350
X084300Y019350
X084300Y002600
X085300Y008400
X083600Y010350
X064500Y001950
X053550Y001950
X053550Y003250
X078800Y003400
X078800Y001950
X076800Y004600
T156
X028700Y019250
X028700Y018250
X028700Y017250
X073050Y022900
X074050Y022900
X075050Y022900
X082050Y018100
X082550Y013400
X082550Y011350
X087050Y011350
X087050Y010350
X087050Y009350
X087050Y008350
X087050Y007350
X076050Y007850
X082550Y007350
X087050Y006350
X082550Y006350
X082550Y005350
X082550Y004350
X082550Y003350
X087050Y005350
X087050Y004350
X087050Y003350
X082550Y010350
X082550Y009350
X082550Y008350
X063300Y016750
X064300Y016750
X065300Y016750
X066300Y016750
X063350Y021100
X064350Y021100
X065350Y021100
X066350Y021100
X075050Y007850
X074050Y007850
X057550Y016750
X058550Y016750
X059550Y016750
T155
X025697Y008650
X021100Y019100
X020100Y019100
X019100Y019100
X031603Y008650
X080800Y007350
X079800Y007350
X078800Y007350
X059550Y013700
X058550Y013700
X057550Y013700
T154
X013682Y026123
X011635Y032580
T157
X029500Y032300
X031500Y032300
X030500Y027300
X032350Y027300
X028650Y027300
X028650Y025800
X030500Y025800
X032350Y025800
X006600Y013600
X012600Y013600
X080050Y015100
X070550Y032350
X071550Y027350
X069700Y027350
X069700Y025850
X071550Y025850
X072550Y032350
X073400Y027350
X073400Y025850
X086050Y015100
X052250Y006100
X052250Y016100
T153
X003100Y030250
X007100Y030250
X083550Y030250
X087550Y030250
M30
