G04 start of page 7 for group 5 idx 5 *
G04 Title: (unknown), signal1 *
G04 Creator: pcb 20091103 *
G04 CreationDate: Wed Apr 21 20:11:35 2010 UTC *
G04 For: fosse *
G04 Format: Gerber/RS-274X *
G04 PCB-Dimensions: 1200000 1000000 *
G04 PCB-Coordinate-Origin: lower left *
%MOIN*%
%FSLAX25Y25*%
%LNGROUP5*%
%ADD11C,0.0200*%
%ADD12C,0.0350*%
%ADD15C,0.0550*%
%ADD16C,0.0600*%
%ADD17C,0.0800*%
%ADD18C,0.2000*%
%ADD19C,0.0900*%
%ADD20C,0.0650*%
%ADD21C,0.0787*%
%ADD22C,0.0720*%
%ADD23C,0.0700*%
%ADD24C,0.0460*%
%ADD26C,0.0300*%
%ADD27C,0.0380*%
%ADD28C,0.0320*%
%ADD29C,0.0790*%
%ADD30C,0.0280*%
%ADD31C,0.0500*%
%ADD32C,0.0510*%
%ADD33C,0.0395*%
%ADD34C,0.0420*%
%ADD35C,0.0315*%
%ADD36C,0.0472*%
G54D11*G36*
X918250Y691750D02*Y686250D01*
X923750D01*
Y691750D01*
X918250D01*
G37*
G54D15*X951000Y689000D03*
G54D11*G36*
X913000Y734000D02*Y728000D01*
X919000D01*
Y734000D01*
X913000D01*
G37*
G54D16*X926000Y731000D03*
X936000D03*
G54D15*X951000Y704000D03*
G54D17*X991000Y740000D03*
G54D18*X981000Y764000D03*
G54D17*X1001000Y740000D03*
G54D18*X1021000Y764000D03*
G54D11*G36*
X983000Y702000D02*Y696000D01*
X989000D01*
Y702000D01*
X983000D01*
G37*
G54D16*X986000Y689000D03*
Y679000D03*
Y669000D03*
G54D11*G36*
X908250Y706750D02*Y701250D01*
X913750D01*
Y706750D01*
X908250D01*
G37*
G36*
X853250Y661750D02*Y656250D01*
X858750D01*
Y661750D01*
X853250D01*
G37*
G36*
X832500Y712500D02*Y703500D01*
X841500D01*
Y712500D01*
X832500D01*
G37*
G54D19*X842500Y721500D03*
X861000D03*
X879500D03*
G54D15*X823500Y709500D03*
G54D11*G36*
X853250Y676750D02*Y671250D01*
X858750D01*
Y676750D01*
X853250D01*
G37*
G36*
X820750Y739250D02*Y733750D01*
X826250D01*
Y739250D01*
X820750D01*
G37*
G36*
X856500Y741000D02*Y732000D01*
X865500D01*
Y741000D01*
X856500D01*
G37*
G54D19*X842500Y736500D03*
X879500D03*
X851000Y786500D03*
X871000D03*
G54D11*G36*
X963250Y616750D02*Y611250D01*
X968750D01*
Y616750D01*
X963250D01*
G37*
G36*
X963000Y647000D02*Y641000D01*
X969000D01*
Y647000D01*
X963000D01*
G37*
G36*
X963250Y631750D02*Y626250D01*
X968750D01*
Y631750D01*
X963250D01*
G37*
G54D15*X951000Y629000D03*
Y644000D03*
X896000Y659000D03*
G54D11*G36*
X908250Y676750D02*Y671250D01*
X913750D01*
Y676750D01*
X908250D01*
G37*
G54D15*X951000Y674000D03*
X896000D03*
G54D11*G36*
X918250Y631750D02*Y626250D01*
X923750D01*
Y631750D01*
X918250D01*
G37*
G36*
X908250Y646750D02*Y641250D01*
X913750D01*
Y646750D01*
X908250D01*
G37*
G36*
X853250Y631750D02*Y626250D01*
X858750D01*
Y631750D01*
X853250D01*
G37*
G36*
X863250Y646750D02*Y641250D01*
X868750D01*
Y646750D01*
X863250D01*
G37*
G54D15*X896000Y629000D03*
G54D20*Y614000D03*
G54D15*Y644000D03*
G54D11*G36*
X852750Y617250D02*Y610750D01*
X859250D01*
Y617250D01*
X852750D01*
G37*
G54D16*X1016000Y669000D03*
Y679000D03*
Y689000D03*
Y699000D03*
G54D11*G36*
X918250Y661750D02*Y656250D01*
X923750D01*
Y661750D01*
X918250D01*
G37*
G54D15*X951000Y659000D03*
G54D11*G36*
X968000Y599500D02*Y593500D01*
X974000D01*
Y599500D01*
X968000D01*
G37*
G54D15*X823500Y776500D03*
X733500Y729000D03*
G54D11*G36*
X780750Y712250D02*Y706750D01*
X786250D01*
Y712250D01*
X780750D01*
G37*
G36*
X668250Y531750D02*Y526250D01*
X673750D01*
Y531750D01*
X668250D01*
G37*
G54D15*X711000Y529000D03*
G54D11*G36*
X668250Y511750D02*Y506250D01*
X673750D01*
Y511750D01*
X668250D01*
G37*
G54D15*X711000Y509000D03*
G54D11*G36*
X530536Y556937D02*Y549063D01*
X538410D01*
Y556937D01*
X530536D01*
G37*
G54D21*X593528Y553000D03*
G54D16*X753500Y629000D03*
Y619000D03*
G54D11*G36*
X695900Y599100D02*Y591900D01*
X703100D01*
Y599100D01*
X695900D01*
G37*
G54D22*X689500Y595500D03*
X679500D03*
G54D15*X666000Y671500D03*
G54D11*G36*
X668250Y571750D02*Y566250D01*
X673750D01*
Y571750D01*
X668250D01*
G37*
G36*
Y551750D02*Y546250D01*
X673750D01*
Y551750D01*
X668250D01*
G37*
G36*
X715750Y671750D02*Y666250D01*
X721250D01*
Y671750D01*
X715750D01*
G37*
G54D15*X718500Y629000D03*
X711000Y569000D03*
G54D11*G36*
X715500Y587000D02*Y581000D01*
X721500D01*
Y587000D01*
X715500D01*
G37*
G54D16*X728500Y584000D03*
G54D15*X711000Y549000D03*
X703500Y649000D03*
G54D11*G36*
X725500Y552000D02*Y546000D01*
X731500D01*
Y552000D01*
X725500D01*
G37*
G36*
X750500Y572000D02*Y566000D01*
X756500D01*
Y572000D01*
X750500D01*
G37*
G54D16*X753500Y559000D03*
Y549000D03*
Y539000D03*
Y529000D03*
Y519000D03*
Y509000D03*
Y499000D03*
X783500D03*
Y509000D03*
Y519000D03*
G54D11*G36*
X725500Y522000D02*Y516000D01*
X731500D01*
Y522000D01*
X725500D01*
G37*
G36*
X803250Y501750D02*Y496250D01*
X808750D01*
Y501750D01*
X803250D01*
G37*
G36*
Y739250D02*Y733750D01*
X808750D01*
Y739250D01*
X803250D01*
G37*
G54D15*X806000Y776500D03*
G54D16*X783500Y736500D03*
Y746500D03*
Y756500D03*
Y766500D03*
G54D11*G36*
X730750Y651750D02*Y646250D01*
X736250D01*
Y651750D01*
X730750D01*
G37*
G54D16*X753500Y669000D03*
Y659000D03*
Y649000D03*
Y639000D03*
X783500Y619000D03*
Y629000D03*
Y639000D03*
Y649000D03*
Y659000D03*
Y669000D03*
Y679000D03*
G54D11*G36*
X750500Y682000D02*Y676000D01*
X756500D01*
Y682000D01*
X750500D01*
G37*
G36*
X715500Y699500D02*Y693500D01*
X721500D01*
Y699500D01*
X715500D01*
G37*
G36*
X730500Y682000D02*Y676000D01*
X736500D01*
Y682000D01*
X730500D01*
G37*
G36*
X700750Y691750D02*Y686250D01*
X706250D01*
Y691750D01*
X700750D01*
G37*
G36*
X803250Y671750D02*Y666250D01*
X808750D01*
Y671750D01*
X803250D01*
G37*
G54D15*X806000Y629000D03*
G54D11*G36*
X690750Y769250D02*Y763750D01*
X696250D01*
Y769250D01*
X690750D01*
G37*
G36*
Y714250D02*Y708750D01*
X696250D01*
Y714250D01*
X690750D01*
G37*
G36*
X663250D02*Y708750D01*
X668750D01*
Y714250D01*
X663250D01*
G37*
G36*
X690750Y749250D02*Y743750D01*
X696250D01*
Y749250D01*
X690750D01*
G37*
G54D15*X733500Y766500D03*
G54D11*G36*
X750500Y769500D02*Y763500D01*
X756500D01*
Y769500D01*
X750500D01*
G37*
G54D16*X753500Y756500D03*
G54D15*X733500Y711500D03*
G54D16*X753500Y746500D03*
Y736500D03*
G54D15*X733500Y746500D03*
G54D11*G36*
X700750Y731750D02*Y726250D01*
X706250D01*
Y731750D01*
X700750D01*
G37*
G36*
X949900Y540100D02*Y532900D01*
X957100D01*
Y540100D01*
X949900D01*
G37*
G54D22*X943500Y536500D03*
X933500D03*
G54D15*X916500Y499000D03*
G54D11*G36*
X930500Y509500D02*Y503500D01*
X936500D01*
Y509500D01*
X930500D01*
G37*
G54D16*X943500Y506500D03*
G54D19*X837000Y608000D03*
G54D11*G36*
X853250Y599250D02*Y593750D01*
X858750D01*
Y599250D01*
X853250D01*
G37*
G54D15*X896000Y596500D03*
X733500Y609000D03*
G54D16*X753500D03*
X783500D03*
Y539000D03*
Y549000D03*
Y559000D03*
Y569000D03*
G54D15*X1006000Y614000D03*
Y629000D03*
G54D11*G36*
X1013000Y579500D02*Y573500D01*
X1019000D01*
Y579500D01*
X1013000D01*
G37*
G54D16*X1016000Y566500D03*
Y556500D03*
Y546500D03*
Y536500D03*
Y526500D03*
Y516500D03*
Y506500D03*
Y496500D03*
X783500Y529000D03*
G54D11*G36*
X833000Y544500D02*Y538500D01*
X839000D01*
Y544500D01*
X833000D01*
G37*
G54D16*X846000Y541500D03*
X856000D03*
G54D11*G36*
X873750Y501750D02*Y496250D01*
X879250D01*
Y501750D01*
X873750D01*
G37*
G54D15*X846000Y499000D03*
G54D11*G36*
X853000Y512000D02*Y506000D01*
X859000D01*
Y512000D01*
X853000D01*
G37*
G36*
X803250Y521750D02*Y516250D01*
X808750D01*
Y521750D01*
X803250D01*
G37*
G54D15*X846000Y519000D03*
G54D11*G36*
X803000Y542000D02*Y536000D01*
X809000D01*
Y542000D01*
X803000D01*
G37*
G54D16*X816000Y539000D03*
G54D11*G36*
X968000Y579500D02*Y573500D01*
X974000D01*
Y579500D01*
X968000D01*
G37*
G54D16*X971000Y566500D03*
Y556500D03*
Y546500D03*
Y536500D03*
Y526500D03*
Y516500D03*
Y506500D03*
Y496500D03*
G54D11*G36*
X311750Y490750D02*Y485250D01*
X317250D01*
Y490750D01*
X311750D01*
G37*
G36*
Y509250D02*Y503750D01*
X317250D01*
Y509250D01*
X311750D01*
G37*
G36*
X239500Y557000D02*Y551000D01*
X245500D01*
Y557000D01*
X239500D01*
G37*
G36*
X238500Y647000D02*Y641000D01*
X244500D01*
Y647000D01*
X238500D01*
G37*
G36*
X259000Y537000D02*Y531000D01*
X265000D01*
Y537000D01*
X259000D01*
G37*
G54D16*X262000Y524000D03*
Y514000D03*
Y504000D03*
X292000D03*
Y514000D03*
Y524000D03*
Y534000D03*
G54D11*G36*
X311750Y526750D02*Y521250D01*
X317250D01*
Y526750D01*
X311750D01*
G37*
G36*
Y546750D02*Y541250D01*
X317250D01*
Y546750D01*
X311750D01*
G37*
G54D21*X210961Y514000D03*
G54D11*G36*
X177102Y517544D02*Y509670D01*
X184976D01*
Y517544D01*
X177102D01*
G37*
G36*
X210250Y719750D02*Y714250D01*
X215750D01*
Y719750D01*
X210250D01*
G37*
G54D17*X196500Y740000D03*
G54D18*X216500Y764000D03*
G54D11*G36*
X241000Y740500D02*Y734500D01*
X247000D01*
Y740500D01*
X241000D01*
G37*
G54D15*X201500Y717000D03*
G54D17*X186500Y740000D03*
G54D18*X176500Y764000D03*
G54D11*G36*
X158750Y704250D02*Y698750D01*
X164250D01*
Y704250D01*
X158750D01*
G37*
G36*
Y719750D02*Y714250D01*
X164250D01*
Y719750D01*
X158750D01*
G37*
G54D15*X253000Y717000D03*
X316500Y721500D03*
G54D11*G36*
X331250Y711750D02*Y706250D01*
X336750D01*
Y711750D01*
X331250D01*
G37*
G54D23*X284000Y716500D03*
G54D11*G36*
X280500Y692500D02*Y685500D01*
X287500D01*
Y692500D01*
X280500D01*
G37*
G54D23*X284000Y679000D03*
G54D11*G36*
X280500Y730000D02*Y723000D01*
X287500D01*
Y730000D01*
X280500D01*
G37*
G54D15*X201500Y701500D03*
G54D11*G36*
X238500Y697000D02*Y691000D01*
X244500D01*
Y697000D01*
X238500D01*
G37*
G36*
X158750Y631750D02*Y626250D01*
X164250D01*
Y631750D01*
X158750D01*
G37*
G54D15*X161500Y669000D03*
Y599000D03*
G54D11*G36*
X228750Y616750D02*Y611250D01*
X234250D01*
Y616750D01*
X228750D01*
G37*
G36*
Y601750D02*Y596250D01*
X234250D01*
Y601750D01*
X228750D01*
G37*
G36*
Y631750D02*Y626250D01*
X234250D01*
Y631750D01*
X228750D01*
G37*
G54D15*X191500Y614000D03*
G54D11*G36*
X198750Y601750D02*Y596250D01*
X204250D01*
Y601750D01*
X198750D01*
G37*
G54D15*X191500Y629000D03*
G54D11*G36*
X173750Y622250D02*Y616750D01*
X179250D01*
Y622250D01*
X173750D01*
G37*
G54D16*X221500Y649000D03*
Y659000D03*
Y669000D03*
Y679000D03*
G54D11*G36*
X188500Y682000D02*Y676000D01*
X194500D01*
Y682000D01*
X188500D01*
G37*
G54D16*X191500Y669000D03*
Y659000D03*
Y649000D03*
G54D15*X176500Y659500D03*
G54D11*G36*
X313750Y684250D02*Y678750D01*
X319250D01*
Y684250D01*
X313750D01*
G37*
G54D20*X334000Y694000D03*
G54D11*G36*
X348750Y684250D02*Y678750D01*
X354250D01*
Y684250D01*
X348750D01*
G37*
G54D15*X351500Y721500D03*
G54D11*G36*
X330750Y657250D02*Y650750D01*
X337250D01*
Y657250D01*
X330750D01*
G37*
G36*
X372900Y657600D02*Y650400D01*
X380100D01*
Y657600D01*
X372900D01*
G37*
G54D22*X366500Y654000D03*
X356500D03*
G54D11*G36*
X426000Y724500D02*Y718500D01*
X432000D01*
Y724500D01*
X426000D01*
G37*
G54D16*X429000Y711500D03*
Y701500D03*
G54D19*X410000Y736500D03*
Y721500D03*
G54D15*X334000Y749000D03*
G54D11*G36*
X313750Y739250D02*Y733750D01*
X319250D01*
Y739250D01*
X313750D01*
G37*
G54D15*X316500Y776500D03*
G54D19*X381500Y786500D03*
G54D11*G36*
X387000Y741000D02*Y732000D01*
X396000D01*
Y741000D01*
X387000D01*
G37*
G54D19*X373000Y736500D03*
Y721500D03*
X391500D03*
X401500Y786500D03*
G54D15*X344500Y488000D03*
X354500Y524000D03*
Y506500D03*
G54D11*G36*
X382250Y507250D02*Y500750D01*
X388750D01*
Y507250D01*
X382250D01*
G37*
G54D20*X385500Y514000D03*
Y524000D03*
G54D11*G36*
X282500Y622000D02*Y616000D01*
X288500D01*
Y622000D01*
X282500D01*
G37*
G54D16*X295500Y619000D03*
X305500D03*
X315500D03*
G54D11*G36*
X311750Y601750D02*Y596250D01*
X317250D01*
Y601750D01*
X311750D01*
G37*
G54D15*X271500Y599000D03*
X354500D03*
G54D11*G36*
X311750Y581750D02*Y576250D01*
X317250D01*
Y581750D01*
X311750D01*
G37*
G36*
X380750Y569250D02*Y562750D01*
X387250D01*
Y569250D01*
X380750D01*
G37*
G54D20*X384000Y576000D03*
Y586000D03*
Y596000D03*
G54D15*X354500Y579000D03*
Y544000D03*
G54D24*X644500Y519000D03*
X660500Y584000D03*
X783500Y582000D03*
X753500Y584000D03*
X682500Y576000D03*
G54D16*X777000Y779500D03*
X768500Y504000D03*
X740500Y482000D03*
X672000Y772500D03*
G54D24*X650500Y719500D03*
G54D16*X690500Y779500D03*
X821500Y581500D03*
G54D24*X836000Y596000D03*
G54D16*X821500Y603500D03*
G54D24*X813500Y679000D03*
G54D16*X988500Y656500D03*
Y489000D03*
X998500Y547000D03*
X988500Y537000D03*
G54D24*X819500Y693000D03*
X828000Y684500D03*
G54D16*X156500Y577000D03*
X260000Y633000D03*
Y657000D03*
X202000Y614000D03*
G54D24*X406500Y656000D03*
X389500Y688000D03*
X393000Y700000D03*
X368500Y688000D03*
X371500Y700000D03*
G54D16*X260000Y696500D03*
G54D24*X401500Y709000D03*
X448000Y697500D03*
X396500Y572000D03*
G54D26*G54D27*G54D26*G54D28*G54D29*G54D28*G54D29*G54D30*G54D26*G54D31*G54D32*G54D26*G54D32*G54D26*G54D27*G54D26*G54D11*G54D26*G54D11*G54D30*G54D26*G54D27*G54D26*G54D33*G54D30*G54D34*G54D26*G54D27*G54D30*G54D27*G54D26*G54D30*G54D26*G54D30*G54D27*G54D26*G54D30*G54D26*G54D30*G54D26*G54D34*G54D26*G54D31*G54D26*G54D30*G54D26*G54D27*G54D30*G54D27*G54D26*G54D27*G54D26*G54D27*G54D26*G54D27*G54D30*G54D26*G54D35*G54D26*G54D28*G54D29*G54D27*G54D26*G54D28*G54D29*G54D26*G54D30*G54D36*G54D26*G54D27*G54D26*G54D30*G54D26*G54D11*G54D26*G54D11*G54D34*G54D27*G54D32*G54D26*G54D32*G54D26*G54D27*G54D26*G54D27*G54D26*G54D11*G54D12*G54D11*G54D12*G54D11*G54D12*G54D11*G54D12*G54D11*G54D12*G54D11*G54D12*G54D11*M02*
