G04 start of page 3 for group 1 idx 1 *
G04 Title: (unknown), solder *
G04 Creator: pcb 20091103 *
G04 CreationDate: Mon Apr 26 17:04:44 2010 UTC *
G04 For: fosse *
G04 Format: Gerber/RS-274X *
G04 PCB-Dimensions: 1200000 1000000 *
G04 PCB-Coordinate-Origin: lower left *
%MOIN*%
%FSLAX25Y25*%
%LNBACK*%
%ADD11C,0.0200*%
%ADD12C,0.0400*%
%ADD13C,0.0350*%
%ADD14C,0.0100*%
%ADD15C,0.0550*%
%ADD16C,0.0600*%
%ADD17C,0.0650*%
%ADD18C,0.0800*%
%ADD19C,0.0787*%
%ADD20C,0.2000*%
%ADD21C,0.0900*%
%ADD22C,0.0720*%
%ADD23C,0.0700*%
%ADD24C,0.0460*%
%ADD26C,0.0300*%
%ADD27C,0.0280*%
%ADD28C,0.0380*%
%ADD29C,0.0320*%
%ADD30C,0.0315*%
%ADD31C,0.0790*%
%ADD32C,0.0510*%
%ADD33C,0.0420*%
%ADD34C,0.0500*%
%ADD35C,0.0472*%
%ADD36C,0.0395*%
G54D11*G36*
X971000Y738000D02*X986162D01*
X986453Y737375D01*
X986978Y736625D01*
X987625Y735978D01*
X988375Y735453D01*
X989204Y735067D01*
X990088Y734830D01*
X991000Y734750D01*
X991912Y734830D01*
X992796Y735067D01*
X993621Y735451D01*
X981670Y723500D01*
X971000D01*
Y738000D01*
G37*
G36*
X1006000Y662257D02*X1018000Y650257D01*
Y595244D01*
X1014756Y592000D01*
X1006000D01*
Y609750D01*
X1006738Y609815D01*
X1007454Y610006D01*
X1008125Y610319D01*
X1008732Y610744D01*
X1009256Y611268D01*
X1009681Y611875D01*
X1009994Y612546D01*
X1010185Y613262D01*
X1010250Y614000D01*
X1010185Y614738D01*
X1009994Y615454D01*
X1009681Y616125D01*
X1009256Y616732D01*
X1008732Y617256D01*
X1008125Y617681D01*
X1007454Y617994D01*
X1006738Y618185D01*
X1006000Y618250D01*
Y624750D01*
X1006738Y624815D01*
X1007454Y625006D01*
X1008125Y625319D01*
X1008732Y625744D01*
X1009256Y626268D01*
X1009681Y626875D01*
X1009994Y627546D01*
X1010185Y628262D01*
X1010250Y629000D01*
X1010185Y629738D01*
X1009994Y630454D01*
X1009681Y631125D01*
X1009256Y631732D01*
X1008732Y632256D01*
X1008125Y632681D01*
X1007454Y632994D01*
X1006738Y633185D01*
X1006000Y633250D01*
Y662257D01*
G37*
G36*
X1028000Y591000D02*X1022242D01*
X1023121Y591879D01*
X1023122Y591878D01*
X1023213Y591987D01*
X1023298Y592072D01*
X1023366Y592170D01*
X1023458Y592279D01*
X1023529Y592402D01*
X1023598Y592500D01*
X1023648Y592607D01*
X1023720Y592732D01*
X1023769Y592868D01*
X1023819Y592974D01*
X1023849Y593086D01*
X1023899Y593223D01*
X1023926Y593373D01*
X1023954Y593479D01*
X1023964Y593589D01*
X1023990Y593738D01*
Y593886D01*
X1024000Y594000D01*
Y651500D01*
X1023989Y651625D01*
Y651762D01*
X1023965Y651898D01*
X1023954Y652021D01*
X1023922Y652140D01*
X1023898Y652277D01*
X1023851Y652405D01*
X1023819Y652526D01*
X1023766Y652639D01*
X1023719Y652769D01*
X1023651Y652885D01*
X1023598Y653000D01*
X1023523Y653106D01*
X1023457Y653221D01*
X1023371Y653324D01*
X1023298Y653428D01*
X1023209Y653517D01*
X1023121Y653622D01*
X1019613Y657130D01*
Y666860D01*
X1019708Y666882D01*
X1019829Y666933D01*
X1019938Y667005D01*
X1020034Y667094D01*
X1020113Y667198D01*
X1020172Y667315D01*
X1020314Y667722D01*
X1020417Y668142D01*
X1020479Y668569D01*
X1020500Y669000D01*
X1020479Y669432D01*
X1020417Y669859D01*
X1020314Y670279D01*
X1020172Y670686D01*
X1020171D01*
X1020112Y670802D01*
X1020033Y670907D01*
X1019937Y670996D01*
X1019828Y671067D01*
X1019707Y671118D01*
X1019613Y671139D01*
Y676344D01*
X1019897Y676750D01*
X1020229Y677461D01*
X1020432Y678219D01*
X1020500Y679000D01*
X1020432Y679781D01*
X1020229Y680539D01*
X1019897Y681250D01*
X1019613Y681656D01*
Y686344D01*
X1019897Y686750D01*
X1020229Y687461D01*
X1020432Y688219D01*
X1020500Y689000D01*
X1020432Y689781D01*
X1020229Y690539D01*
X1019897Y691250D01*
X1019613Y691656D01*
Y696344D01*
X1019897Y696750D01*
X1020229Y697461D01*
X1020432Y698219D01*
X1020500Y699000D01*
X1020432Y699781D01*
X1020229Y700539D01*
X1019897Y701250D01*
X1019613Y701656D01*
Y749500D01*
X1028000D01*
Y591000D01*
G37*
G36*
X1019613Y701656D02*X1019447Y701893D01*
X1018893Y702447D01*
X1018250Y702897D01*
X1017539Y703229D01*
X1016781Y703432D01*
X1016000Y703500D01*
Y749500D01*
X1019613D01*
Y701656D01*
G37*
G36*
Y691656D02*X1019447Y691893D01*
X1018893Y692447D01*
X1018250Y692897D01*
X1017539Y693229D01*
X1016781Y693432D01*
X1016000Y693500D01*
Y694500D01*
X1016781Y694568D01*
X1017539Y694771D01*
X1018250Y695103D01*
X1018893Y695553D01*
X1019447Y696107D01*
X1019613Y696344D01*
Y691656D01*
G37*
G36*
Y681656D02*X1019447Y681893D01*
X1018893Y682447D01*
X1018250Y682897D01*
X1017539Y683229D01*
X1016781Y683432D01*
X1016000Y683500D01*
Y684500D01*
X1016781Y684568D01*
X1017539Y684771D01*
X1018250Y685103D01*
X1018893Y685553D01*
X1019447Y686107D01*
X1019613Y686344D01*
Y681656D01*
G37*
G36*
Y657130D02*X1016000Y660743D01*
Y664500D01*
X1016431Y664521D01*
X1016858Y664583D01*
X1017278Y664686D01*
X1017685Y664828D01*
Y664829D01*
X1017801Y664888D01*
X1017906Y664967D01*
X1017995Y665063D01*
X1018066Y665172D01*
X1018117Y665293D01*
X1018146Y665420D01*
X1018153Y665550D01*
X1018137Y665680D01*
X1018099Y665805D01*
X1018040Y665921D01*
X1017961Y666026D01*
X1017865Y666115D01*
X1017756Y666186D01*
X1017635Y666237D01*
X1017508Y666266D01*
X1017378Y666273D01*
X1017248Y666257D01*
X1017123Y666219D01*
X1016852Y666124D01*
X1016572Y666056D01*
X1016287Y666014D01*
X1016000Y666000D01*
Y672000D01*
X1016287Y671987D01*
X1016572Y671945D01*
X1016852Y671877D01*
X1017123Y671782D01*
Y671781D01*
X1017248Y671743D01*
X1017378Y671727D01*
X1017509Y671734D01*
X1017636Y671763D01*
X1017757Y671814D01*
X1017866Y671886D01*
X1017962Y671975D01*
X1018041Y672079D01*
X1018100Y672196D01*
X1018138Y672321D01*
X1018154Y672451D01*
X1018147Y672582D01*
X1018118Y672709D01*
X1018067Y672830D01*
X1017995Y672939D01*
X1017906Y673035D01*
X1017802Y673114D01*
X1017685Y673173D01*
X1017278Y673315D01*
X1016858Y673418D01*
X1016431Y673480D01*
X1016000Y673500D01*
Y674500D01*
X1016781Y674568D01*
X1017539Y674771D01*
X1018250Y675103D01*
X1018893Y675553D01*
X1019447Y676107D01*
X1019613Y676344D01*
Y671139D01*
X1019580Y671147D01*
X1019450Y671154D01*
X1019320Y671138D01*
X1019195Y671100D01*
X1019079Y671041D01*
X1018974Y670962D01*
X1018885Y670866D01*
X1018814Y670757D01*
X1018763Y670636D01*
X1018734Y670509D01*
X1018727Y670379D01*
X1018743Y670249D01*
X1018781Y670124D01*
X1018876Y669853D01*
X1018944Y669573D01*
X1018986Y669288D01*
X1019000Y669000D01*
X1018986Y668713D01*
X1018944Y668428D01*
X1018876Y668148D01*
X1018781Y667877D01*
X1018780D01*
X1018742Y667752D01*
X1018726Y667622D01*
X1018733Y667491D01*
X1018762Y667364D01*
X1018813Y667243D01*
X1018885Y667134D01*
X1018974Y667038D01*
X1019078Y666959D01*
X1019195Y666900D01*
X1019320Y666862D01*
X1019450Y666846D01*
X1019581Y666853D01*
X1019613Y666860D01*
Y657130D01*
G37*
G36*
X1012387Y686344D02*X1012553Y686107D01*
X1013107Y685553D01*
X1013750Y685103D01*
X1014461Y684771D01*
X1015219Y684568D01*
X1016000Y684500D01*
Y683500D01*
X1015219Y683432D01*
X1014461Y683229D01*
X1013750Y682897D01*
X1013107Y682447D01*
X1012553Y681893D01*
X1012387Y681656D01*
Y686344D01*
G37*
G36*
Y696344D02*X1012553Y696107D01*
X1013107Y695553D01*
X1013750Y695103D01*
X1014461Y694771D01*
X1015219Y694568D01*
X1016000Y694500D01*
Y693500D01*
X1015219Y693432D01*
X1014461Y693229D01*
X1013750Y692897D01*
X1013107Y692447D01*
X1012553Y691893D01*
X1012387Y691656D01*
Y696344D01*
G37*
G36*
Y749500D02*X1016000D01*
Y703500D01*
X1015219Y703432D01*
X1014461Y703229D01*
X1013750Y702897D01*
X1013107Y702447D01*
X1012553Y701893D01*
X1012387Y701656D01*
Y749500D01*
G37*
G36*
X1016000Y660743D02*X1012387Y664356D01*
Y666861D01*
X1012419Y666854D01*
X1012549Y666847D01*
X1012679Y666863D01*
X1012804Y666901D01*
X1012920Y666960D01*
X1013025Y667039D01*
X1013114Y667135D01*
X1013185Y667244D01*
X1013236Y667365D01*
X1013265Y667492D01*
X1013272Y667622D01*
X1013256Y667752D01*
X1013218Y667877D01*
X1013123Y668148D01*
X1013055Y668428D01*
X1013013Y668713D01*
X1013000Y669001D01*
X1013013Y669288D01*
X1013055Y669573D01*
X1013123Y669853D01*
X1013218Y670124D01*
X1013219D01*
X1013257Y670249D01*
X1013273Y670379D01*
X1013266Y670510D01*
X1013237Y670637D01*
X1013186Y670758D01*
X1013114Y670867D01*
X1013025Y670963D01*
X1012921Y671042D01*
X1012804Y671101D01*
X1012679Y671139D01*
X1012549Y671155D01*
X1012418Y671148D01*
X1012387Y671141D01*
Y676344D01*
X1012553Y676107D01*
X1013107Y675553D01*
X1013750Y675103D01*
X1014461Y674771D01*
X1015219Y674568D01*
X1016000Y674500D01*
Y673500D01*
X1015568Y673480D01*
X1015141Y673418D01*
X1014721Y673315D01*
X1014314Y673173D01*
Y673172D01*
X1014198Y673113D01*
X1014093Y673034D01*
X1014004Y672938D01*
X1013933Y672829D01*
X1013882Y672708D01*
X1013853Y672581D01*
X1013846Y672451D01*
X1013862Y672321D01*
X1013900Y672196D01*
X1013959Y672080D01*
X1014038Y671975D01*
X1014134Y671886D01*
X1014243Y671815D01*
X1014364Y671764D01*
X1014491Y671735D01*
X1014621Y671728D01*
X1014751Y671744D01*
X1014876Y671782D01*
X1015147Y671877D01*
X1015427Y671945D01*
X1015712Y671987D01*
X1016000Y672000D01*
Y666000D01*
X1015999D01*
X1015712Y666014D01*
X1015427Y666056D01*
X1015147Y666124D01*
X1014876Y666219D01*
Y666220D01*
X1014751Y666258D01*
X1014621Y666274D01*
X1014490Y666267D01*
X1014363Y666238D01*
X1014242Y666187D01*
X1014133Y666115D01*
X1014037Y666026D01*
X1013958Y665922D01*
X1013899Y665805D01*
X1013861Y665680D01*
X1013845Y665550D01*
X1013852Y665419D01*
X1013881Y665292D01*
X1013932Y665171D01*
X1014004Y665062D01*
X1014093Y664966D01*
X1014197Y664887D01*
X1014314Y664828D01*
X1014721Y664686D01*
X1015141Y664583D01*
X1015568Y664521D01*
X1015999Y664500D01*
X1016000D01*
Y660743D01*
G37*
G36*
X1012387Y664356D02*X1006000Y670743D01*
Y738454D01*
X1006170Y739088D01*
X1006250Y740000D01*
X1006170Y740912D01*
X1006000Y741546D01*
Y749500D01*
X1012387D01*
Y701656D01*
X1012103Y701250D01*
X1011771Y700539D01*
X1011568Y699781D01*
X1011500Y699000D01*
X1011568Y698219D01*
X1011771Y697461D01*
X1012103Y696750D01*
X1012387Y696344D01*
Y691656D01*
X1012103Y691250D01*
X1011771Y690539D01*
X1011568Y689781D01*
X1011500Y689000D01*
X1011568Y688219D01*
X1011771Y687461D01*
X1012103Y686750D01*
X1012387Y686344D01*
Y681656D01*
X1012103Y681250D01*
X1011771Y680539D01*
X1011568Y679781D01*
X1011500Y679000D01*
X1011568Y678219D01*
X1011771Y677461D01*
X1012103Y676750D01*
X1012387Y676344D01*
Y671141D01*
X1012291Y671119D01*
X1012170Y671068D01*
X1012061Y670996D01*
X1011965Y670907D01*
X1011886Y670803D01*
X1011827Y670686D01*
X1011685Y670279D01*
X1011582Y669859D01*
X1011520Y669432D01*
X1011500Y669001D01*
X1011520Y668569D01*
X1011582Y668142D01*
X1011685Y667722D01*
X1011827Y667315D01*
X1011828D01*
X1011887Y667199D01*
X1011966Y667094D01*
X1012062Y667005D01*
X1012171Y666934D01*
X1012292Y666883D01*
X1012387Y666861D01*
Y664356D01*
G37*
G36*
X1006000Y741546D02*X1005933Y741796D01*
X1005547Y742625D01*
X1005022Y743375D01*
X1004375Y744022D01*
X1003625Y744547D01*
X1002796Y744933D01*
X1001912Y745170D01*
X1001000Y745250D01*
X1000088Y745170D01*
X999204Y744933D01*
X998375Y744547D01*
X997625Y744022D01*
X996978Y743375D01*
X996453Y742625D01*
X996067Y741796D01*
X996000Y741546D01*
X995933Y741796D01*
X995547Y742625D01*
X995022Y743375D01*
X994375Y744022D01*
X993625Y744547D01*
X992796Y744933D01*
X991912Y745170D01*
X991000Y745250D01*
X990088Y745170D01*
X989204Y744933D01*
X988375Y744547D01*
X987625Y744022D01*
X986978Y743375D01*
X986453Y742625D01*
X986162Y742000D01*
X971000D01*
Y752000D01*
X973500Y749500D01*
X1006000D01*
Y741546D01*
G37*
G36*
X986000Y664500D02*X986781Y664568D01*
X987539Y664771D01*
X988250Y665103D01*
X988893Y665553D01*
X989340Y666000D01*
X1002257D01*
X1006000Y662257D01*
Y633250D01*
X1005262Y633185D01*
X1004546Y632994D01*
X1003875Y632681D01*
X1003268Y632256D01*
X1002744Y631732D01*
X1002319Y631125D01*
X1002006Y630454D01*
X1001815Y629738D01*
X1001750Y629000D01*
X1001815Y628262D01*
X1002006Y627546D01*
X1002319Y626875D01*
X1002744Y626268D01*
X1003268Y625744D01*
X1003875Y625319D01*
X1004546Y625006D01*
X1005262Y624815D01*
X1006000Y624750D01*
Y618250D01*
X1005262Y618185D01*
X1004546Y617994D01*
X1003875Y617681D01*
X1003268Y617256D01*
X1002744Y616732D01*
X1002319Y616125D01*
X1002006Y615454D01*
X1001815Y614738D01*
X1001750Y614000D01*
X1001815Y613262D01*
X1002006Y612546D01*
X1002319Y611875D01*
X1002744Y611268D01*
X1003268Y610744D01*
X1003875Y610319D01*
X1004546Y610006D01*
X1005262Y609815D01*
X1006000Y609750D01*
Y592000D01*
X1005886Y591990D01*
X1005738D01*
X1005589Y591964D01*
X1005479Y591954D01*
X1005372Y591925D01*
X1005223Y591899D01*
X1005085Y591849D01*
X1004974Y591819D01*
X1004869Y591770D01*
X1004732Y591720D01*
X1004609Y591649D01*
X1004500Y591598D01*
X1004400Y591528D01*
X1004279Y591458D01*
X1004170Y591367D01*
X1004072Y591298D01*
X1003990Y591216D01*
X1003878Y591122D01*
X1003756Y591000D01*
X991500D01*
Y653865D01*
X991564Y653929D01*
X991964Y654500D01*
X992259Y655132D01*
X992439Y655805D01*
X992500Y656500D01*
X992439Y657195D01*
X992259Y657868D01*
X991964Y658500D01*
X991564Y659071D01*
X991071Y659564D01*
X990500Y659964D01*
X989868Y660259D01*
X989195Y660439D01*
X988500Y660500D01*
X987805Y660439D01*
X987132Y660259D01*
X986500Y659964D01*
X986000Y659614D01*
Y664500D01*
G37*
G36*
X1006000Y670743D02*X1005622Y671121D01*
X1005516Y671210D01*
X1005428Y671298D01*
X1005323Y671372D01*
X1005221Y671457D01*
X1005106Y671524D01*
X1005000Y671598D01*
X1004887Y671651D01*
X1004769Y671719D01*
X1004639Y671766D01*
X1004526Y671819D01*
X1004406Y671851D01*
X1004277Y671898D01*
X1004139Y671923D01*
X1004021Y671954D01*
X1003899Y671965D01*
X1003762Y671989D01*
X1003625D01*
X1003500Y672000D01*
X989340D01*
X988893Y672447D01*
X988250Y672897D01*
X987539Y673229D01*
X986781Y673432D01*
X986000Y673500D01*
Y674500D01*
X986781Y674568D01*
X987539Y674771D01*
X988250Y675103D01*
X988893Y675553D01*
X989447Y676107D01*
X989897Y676750D01*
X990229Y677461D01*
X990432Y678219D01*
X990500Y679000D01*
X990432Y679781D01*
X990229Y680539D01*
X989897Y681250D01*
X989447Y681893D01*
X988893Y682447D01*
X988250Y682897D01*
X987539Y683229D01*
X986781Y683432D01*
X986000Y683500D01*
Y684500D01*
X986781Y684568D01*
X987539Y684771D01*
X988250Y685103D01*
X988893Y685553D01*
X989447Y686107D01*
X989897Y686750D01*
X990229Y687461D01*
X990432Y688219D01*
X990500Y689000D01*
X990432Y689781D01*
X990229Y690539D01*
X989897Y691250D01*
X989447Y691893D01*
X988893Y692447D01*
X988250Y692897D01*
X987539Y693229D01*
X986781Y693432D01*
X986000Y693500D01*
Y694500D01*
X989000D01*
X989260Y694523D01*
X989513Y694590D01*
X989750Y694701D01*
X989964Y694851D01*
X990149Y695036D01*
X990299Y695250D01*
X990410Y695487D01*
X990477Y695740D01*
X990500Y696000D01*
Y702000D01*
X990477Y702260D01*
X990410Y702513D01*
X990299Y702750D01*
X990149Y702964D01*
X989964Y703149D01*
X989750Y703299D01*
X989513Y703410D01*
X989260Y703477D01*
X989000Y703500D01*
X986000D01*
Y722172D01*
X998993Y735165D01*
X999204Y735067D01*
X1000088Y734830D01*
X1001000Y734750D01*
X1001912Y734830D01*
X1002796Y735067D01*
X1003625Y735453D01*
X1004375Y735978D01*
X1005022Y736625D01*
X1005547Y737375D01*
X1005933Y738204D01*
X1006000Y738454D01*
Y670743D01*
G37*
G36*
X986000Y673500D02*X985219Y673432D01*
X984461Y673229D01*
X983750Y672897D01*
X983107Y672447D01*
X982553Y671893D01*
X982103Y671250D01*
X981771Y670539D01*
X981568Y669781D01*
X981500Y669000D01*
X981568Y668219D01*
X981771Y667461D01*
X982103Y666750D01*
X982553Y666107D01*
X983107Y665553D01*
X983750Y665103D01*
X984461Y664771D01*
X985219Y664568D01*
X986000Y664500D01*
Y659614D01*
X985929Y659564D01*
X985436Y659071D01*
X985036Y658500D01*
X984741Y657868D01*
X984561Y657195D01*
X984500Y656500D01*
X984561Y655805D01*
X984741Y655132D01*
X985036Y654500D01*
X985436Y653929D01*
X985500Y653865D01*
Y591000D01*
X971000D01*
Y592500D01*
X974000D01*
X974260Y592523D01*
X974513Y592590D01*
X974750Y592701D01*
X974964Y592851D01*
X975149Y593036D01*
X975299Y593250D01*
X975410Y593487D01*
X975477Y593740D01*
X975500Y594000D01*
Y600000D01*
X975477Y600260D01*
X975410Y600513D01*
X975299Y600750D01*
X975149Y600964D01*
X974964Y601149D01*
X974750Y601299D01*
X974513Y601410D01*
X974260Y601477D01*
X974000Y601500D01*
X971000D01*
Y719500D01*
X982500D01*
X982592Y719508D01*
X982674D01*
X982754Y719522D01*
X982847Y719530D01*
X982932Y719553D01*
X983018Y719568D01*
X983102Y719599D01*
X983184Y719621D01*
X983265Y719659D01*
X983345Y719688D01*
X983416Y719729D01*
X983500Y719768D01*
X983575Y719821D01*
X983647Y719862D01*
X983710Y719915D01*
X983786Y719968D01*
X983852Y720034D01*
X983914Y720086D01*
X986000Y722172D01*
Y703500D01*
X983000D01*
X982740Y703477D01*
X982487Y703410D01*
X982250Y703299D01*
X982036Y703149D01*
X981851Y702964D01*
X981701Y702750D01*
X981590Y702513D01*
X981523Y702260D01*
X981500Y702000D01*
Y696000D01*
X981523Y695740D01*
X981590Y695487D01*
X981701Y695250D01*
X981851Y695036D01*
X982036Y694851D01*
X982250Y694701D01*
X982487Y694590D01*
X982740Y694523D01*
X983000Y694500D01*
X986000D01*
Y693500D01*
X985219Y693432D01*
X984461Y693229D01*
X983750Y692897D01*
X983107Y692447D01*
X982553Y691893D01*
X982103Y691250D01*
X981771Y690539D01*
X981568Y689781D01*
X981500Y689000D01*
X981568Y688219D01*
X981771Y687461D01*
X982103Y686750D01*
X982553Y686107D01*
X983107Y685553D01*
X983750Y685103D01*
X984461Y684771D01*
X985219Y684568D01*
X986000Y684500D01*
Y683500D01*
X985219Y683432D01*
X984461Y683229D01*
X983750Y682897D01*
X983107Y682447D01*
X982553Y681893D01*
X982103Y681250D01*
X981771Y680539D01*
X981568Y679781D01*
X981500Y679000D01*
X981568Y678219D01*
X981771Y677461D01*
X982103Y676750D01*
X982553Y676107D01*
X983107Y675553D01*
X983750Y675103D01*
X984461Y674771D01*
X985219Y674568D01*
X986000Y674500D01*
Y673500D01*
G37*
G36*
X951000Y738000D02*X971000D01*
Y723500D01*
X951000D01*
Y738000D01*
G37*
G36*
Y767500D02*X955500D01*
X971000Y752000D01*
Y742000D01*
X951000D01*
Y767500D01*
G37*
G36*
X971000Y591000D02*X966000D01*
Y609750D01*
X968750D01*
X969010Y609773D01*
X969263Y609840D01*
X969500Y609951D01*
X969714Y610101D01*
X969899Y610286D01*
X970049Y610500D01*
X970160Y610737D01*
X970227Y610990D01*
X970250Y611250D01*
Y616750D01*
X970227Y617010D01*
X970160Y617263D01*
X970049Y617500D01*
X969899Y617714D01*
X969714Y617899D01*
X969500Y618049D01*
X969263Y618160D01*
X969010Y618227D01*
X968750Y618250D01*
X966000D01*
Y624750D01*
X968750D01*
X969010Y624773D01*
X969263Y624840D01*
X969500Y624951D01*
X969714Y625101D01*
X969899Y625286D01*
X970049Y625500D01*
X970160Y625737D01*
X970227Y625990D01*
X970250Y626250D01*
Y631750D01*
X970227Y632010D01*
X970160Y632263D01*
X970049Y632500D01*
X969899Y632714D01*
X969714Y632899D01*
X969500Y633049D01*
X969263Y633160D01*
X969010Y633227D01*
X968750Y633250D01*
X966000D01*
Y639500D01*
X969000D01*
X969260Y639523D01*
X969513Y639590D01*
X969750Y639701D01*
X969964Y639851D01*
X970149Y640036D01*
X970299Y640250D01*
X970410Y640487D01*
X970477Y640740D01*
X970500Y641000D01*
Y647000D01*
X970477Y647260D01*
X970410Y647513D01*
X970299Y647750D01*
X970149Y647964D01*
X969964Y648149D01*
X969750Y648299D01*
X969513Y648410D01*
X969260Y648477D01*
X969000Y648500D01*
X966000D01*
Y719500D01*
X971000D01*
Y601500D01*
X968000D01*
X967740Y601477D01*
X967487Y601410D01*
X967250Y601299D01*
X967036Y601149D01*
X966851Y600964D01*
X966701Y600750D01*
X966590Y600513D01*
X966523Y600260D01*
X966500Y600000D01*
Y594000D01*
X966523Y593740D01*
X966590Y593487D01*
X966701Y593250D01*
X966851Y593036D01*
X967036Y592851D01*
X967250Y592701D01*
X967487Y592590D01*
X967740Y592523D01*
X968000Y592500D01*
X971000D01*
Y591000D01*
G37*
G36*
X966000D02*X951000D01*
Y624750D01*
X951738Y624815D01*
X952454Y625006D01*
X953125Y625319D01*
X953732Y625744D01*
X954256Y626268D01*
X954681Y626875D01*
X954994Y627546D01*
X955185Y628262D01*
X955250Y629000D01*
X955185Y629738D01*
X954994Y630454D01*
X954681Y631125D01*
X954256Y631732D01*
X953732Y632256D01*
X953125Y632681D01*
X952454Y632994D01*
X951738Y633185D01*
X951000Y633250D01*
Y639750D01*
X951738Y639815D01*
X952454Y640006D01*
X953125Y640319D01*
X953732Y640744D01*
X954256Y641268D01*
X954681Y641875D01*
X954994Y642546D01*
X955185Y643262D01*
X955250Y644000D01*
X955185Y644738D01*
X954994Y645454D01*
X954681Y646125D01*
X954256Y646732D01*
X953732Y647256D01*
X953125Y647681D01*
X952454Y647994D01*
X951738Y648185D01*
X951000Y648250D01*
Y654750D01*
X951738Y654815D01*
X952454Y655006D01*
X953125Y655319D01*
X953732Y655744D01*
X954256Y656268D01*
X954681Y656875D01*
X954994Y657546D01*
X955185Y658262D01*
X955250Y659000D01*
X955185Y659738D01*
X954994Y660454D01*
X954681Y661125D01*
X954256Y661732D01*
X953732Y662256D01*
X953125Y662681D01*
X952454Y662994D01*
X951738Y663185D01*
X951000Y663250D01*
Y669750D01*
X951738Y669815D01*
X952454Y670006D01*
X953125Y670319D01*
X953732Y670744D01*
X954256Y671268D01*
X954681Y671875D01*
X954994Y672546D01*
X955185Y673262D01*
X955250Y674000D01*
X955185Y674738D01*
X954994Y675454D01*
X954681Y676125D01*
X954256Y676732D01*
X953732Y677256D01*
X953125Y677681D01*
X952454Y677994D01*
X951738Y678185D01*
X951000Y678250D01*
Y684750D01*
X951738Y684815D01*
X952454Y685006D01*
X953125Y685319D01*
X953732Y685744D01*
X954256Y686268D01*
X954681Y686875D01*
X954994Y687546D01*
X955185Y688262D01*
X955250Y689000D01*
X955185Y689738D01*
X954994Y690454D01*
X954681Y691125D01*
X954256Y691732D01*
X953732Y692256D01*
X953125Y692681D01*
X952454Y692994D01*
X951738Y693185D01*
X951000Y693250D01*
Y698500D01*
X951955Y698584D01*
X952881Y698832D01*
X953750Y699237D01*
X954535Y699787D01*
X955213Y700465D01*
X955763Y701250D01*
X956168Y702119D01*
X956416Y703045D01*
X956500Y704000D01*
X956416Y704955D01*
X956168Y705881D01*
X955763Y706750D01*
X955213Y707535D01*
X954535Y708213D01*
X953750Y708763D01*
X952881Y709168D01*
X951955Y709416D01*
X951000Y709500D01*
Y719500D01*
X966000D01*
Y648500D01*
X963000D01*
X962740Y648477D01*
X962487Y648410D01*
X962250Y648299D01*
X962036Y648149D01*
X961851Y647964D01*
X961701Y647750D01*
X961590Y647513D01*
X961523Y647260D01*
X961500Y647000D01*
Y641000D01*
X961523Y640740D01*
X961590Y640487D01*
X961701Y640250D01*
X961851Y640036D01*
X962036Y639851D01*
X962250Y639701D01*
X962487Y639590D01*
X962740Y639523D01*
X963000Y639500D01*
X966000D01*
Y633250D01*
X963250D01*
X962990Y633227D01*
X962737Y633160D01*
X962500Y633049D01*
X962286Y632899D01*
X962101Y632714D01*
X961951Y632500D01*
X961840Y632263D01*
X961773Y632010D01*
X961750Y631750D01*
Y626250D01*
X961773Y625990D01*
X961840Y625737D01*
X961951Y625500D01*
X962101Y625286D01*
X962286Y625101D01*
X962500Y624951D01*
X962737Y624840D01*
X962990Y624773D01*
X963250Y624750D01*
X966000D01*
Y618250D01*
X963250D01*
X962990Y618227D01*
X962737Y618160D01*
X962500Y618049D01*
X962286Y617899D01*
X962101Y617714D01*
X961951Y617500D01*
X961840Y617263D01*
X961773Y617010D01*
X961750Y616750D01*
Y611250D01*
X961773Y610990D01*
X961840Y610737D01*
X961951Y610500D01*
X962101Y610286D01*
X962286Y610101D01*
X962500Y609951D01*
X962737Y609840D01*
X962990Y609773D01*
X963250Y609750D01*
X966000D01*
Y591000D01*
G37*
G36*
X842500Y767500D02*X951000D01*
Y742000D01*
X883000D01*
X882919Y741993D01*
X882826D01*
X882735Y741977D01*
X882653Y741970D01*
X882578Y741950D01*
X882482Y741933D01*
X882383Y741897D01*
X882316Y741879D01*
X882256Y741851D01*
X882154Y741814D01*
X882063Y741761D01*
X882000Y741732D01*
X881939Y741689D01*
X881852Y741639D01*
X881777Y741576D01*
X881714Y741532D01*
X881701Y741519D01*
X881381Y741668D01*
X880455Y741916D01*
X879500Y742000D01*
X878545Y741916D01*
X877619Y741668D01*
X876750Y741263D01*
X875965Y740713D01*
X875287Y740035D01*
X874737Y739250D01*
X874332Y738381D01*
X874084Y737455D01*
X874000Y736500D01*
X874084Y735545D01*
X874332Y734619D01*
X874737Y733750D01*
X875287Y732965D01*
X875965Y732287D01*
X876750Y731737D01*
X877619Y731332D01*
X878545Y731084D01*
X879500Y731000D01*
X880455Y731084D01*
X881381Y731332D01*
X882250Y731737D01*
X883035Y732287D01*
X883713Y732965D01*
X884263Y733750D01*
X884668Y734619D01*
X884916Y735545D01*
X885000Y736500D01*
X884916Y737455D01*
X884770Y738000D01*
X951000D01*
Y723500D01*
X884613D01*
X884263Y724250D01*
X883713Y725035D01*
X883035Y725713D01*
X882250Y726263D01*
X881381Y726668D01*
X880455Y726916D01*
X879500Y727000D01*
X878545Y726916D01*
X877619Y726668D01*
X877307Y726522D01*
X873415Y730414D01*
X873347Y730471D01*
X873286Y730532D01*
X873215Y730582D01*
X873148Y730638D01*
X873069Y730684D01*
X873000Y730732D01*
X872929Y730765D01*
X872846Y730813D01*
X872755Y730846D01*
X872684Y730879D01*
X872606Y730900D01*
X872518Y730932D01*
X872429Y730948D01*
X872347Y730970D01*
X872265Y730977D01*
X872175Y730993D01*
X872081D01*
X872000Y731000D01*
X865500D01*
X865674Y731015D01*
X865842Y731060D01*
X866000Y731134D01*
X866143Y731234D01*
X866266Y731357D01*
X866366Y731500D01*
X866440Y731658D01*
X866485Y731826D01*
X866500Y732000D01*
Y741000D01*
X866485Y741174D01*
X866440Y741342D01*
X866366Y741500D01*
X866266Y741643D01*
X866143Y741766D01*
X866000Y741866D01*
X865842Y741940D01*
X865674Y741985D01*
X865500Y742000D01*
X856500D01*
X856326Y741985D01*
X856158Y741940D01*
X856000Y741866D01*
X855857Y741766D01*
X855734Y741643D01*
X855634Y741500D01*
X855560Y741342D01*
X855515Y741174D01*
X855500Y741000D01*
Y732000D01*
X855515Y731826D01*
X855560Y731658D01*
X855634Y731500D01*
X855734Y731357D01*
X855857Y731234D01*
X856000Y731134D01*
X856158Y731060D01*
X856326Y731015D01*
X856500Y731000D01*
X851829D01*
X847782Y735047D01*
X847916Y735545D01*
X848000Y736500D01*
X847916Y737455D01*
X847668Y738381D01*
X847263Y739250D01*
X846713Y740035D01*
X846035Y740713D01*
X845250Y741263D01*
X844381Y741668D01*
X843455Y741916D01*
X842500Y742000D01*
Y767500D01*
G37*
G36*
X951000Y591000D02*X943500D01*
X924500Y610000D01*
Y627000D01*
X925250D01*
Y631000D01*
X924500D01*
Y657000D01*
X925250D01*
Y661000D01*
X924500D01*
Y684951D01*
X924714Y685101D01*
X924899Y685286D01*
X925049Y685500D01*
X925160Y685737D01*
X925227Y685990D01*
X925250Y686250D01*
Y691750D01*
X925227Y692010D01*
X925160Y692263D01*
X925049Y692500D01*
X924899Y692714D01*
X924714Y692899D01*
X924500Y693049D01*
Y719500D01*
X951000D01*
Y709500D01*
X950045Y709416D01*
X949119Y709168D01*
X948250Y708763D01*
X947465Y708213D01*
X946787Y707535D01*
X946237Y706750D01*
X945832Y705881D01*
X945584Y704955D01*
X945500Y704000D01*
X945584Y703045D01*
X945832Y702119D01*
X946237Y701250D01*
X946787Y700465D01*
X947465Y699787D01*
X948250Y699237D01*
X949119Y698832D01*
X950045Y698584D01*
X951000Y698500D01*
Y693250D01*
X950262Y693185D01*
X949546Y692994D01*
X948875Y692681D01*
X948268Y692256D01*
X947744Y691732D01*
X947319Y691125D01*
X947006Y690454D01*
X946815Y689738D01*
X946750Y689000D01*
X946815Y688262D01*
X947006Y687546D01*
X947319Y686875D01*
X947744Y686268D01*
X948268Y685744D01*
X948875Y685319D01*
X949546Y685006D01*
X950262Y684815D01*
X951000Y684750D01*
Y678250D01*
X950262Y678185D01*
X949546Y677994D01*
X948875Y677681D01*
X948268Y677256D01*
X947744Y676732D01*
X947319Y676125D01*
X947006Y675454D01*
X946815Y674738D01*
X946750Y674000D01*
X946815Y673262D01*
X947006Y672546D01*
X947319Y671875D01*
X947744Y671268D01*
X948268Y670744D01*
X948875Y670319D01*
X949546Y670006D01*
X950262Y669815D01*
X951000Y669750D01*
Y663250D01*
X950262Y663185D01*
X949546Y662994D01*
X948875Y662681D01*
X948268Y662256D01*
X947744Y661732D01*
X947319Y661125D01*
X947006Y660454D01*
X946815Y659738D01*
X946750Y659000D01*
X946815Y658262D01*
X947006Y657546D01*
X947319Y656875D01*
X947744Y656268D01*
X948268Y655744D01*
X948875Y655319D01*
X949546Y655006D01*
X950262Y654815D01*
X951000Y654750D01*
Y648250D01*
X950262Y648185D01*
X949546Y647994D01*
X948875Y647681D01*
X948268Y647256D01*
X947744Y646732D01*
X947319Y646125D01*
X947006Y645454D01*
X946815Y644738D01*
X946750Y644000D01*
X946815Y643262D01*
X947006Y642546D01*
X947319Y641875D01*
X947744Y641268D01*
X948268Y640744D01*
X948875Y640319D01*
X949546Y640006D01*
X950262Y639815D01*
X951000Y639750D01*
Y633250D01*
X950262Y633185D01*
X949546Y632994D01*
X948875Y632681D01*
X948268Y632256D01*
X947744Y631732D01*
X947319Y631125D01*
X947006Y630454D01*
X946815Y629738D01*
X946750Y629000D01*
X946815Y628262D01*
X947006Y627546D01*
X947319Y626875D01*
X947744Y626268D01*
X948268Y625744D01*
X948875Y625319D01*
X949546Y625006D01*
X950262Y624815D01*
X951000Y624750D01*
Y591000D01*
G37*
G36*
X924500Y693049D02*X924263Y693160D01*
X924010Y693227D01*
X923750Y693250D01*
X921000D01*
Y719500D01*
X924500D01*
Y693049D01*
G37*
G36*
Y610000D02*X921000Y613500D01*
Y624750D01*
X923000D01*
Y626250D01*
X921000D01*
Y631750D01*
X923000D01*
Y633250D01*
X921000D01*
Y654750D01*
X923000D01*
Y656250D01*
X921000D01*
Y661750D01*
X923000D01*
Y663250D01*
X921000D01*
Y684750D01*
X923750D01*
X924010Y684773D01*
X924263Y684840D01*
X924500Y684951D01*
Y661000D01*
X923750D01*
Y657000D01*
X924500D01*
Y631000D01*
X923750D01*
Y627000D01*
X924500D01*
Y610000D01*
G37*
G36*
X921000Y693250D02*X918250D01*
X917990Y693227D01*
X917737Y693160D01*
X917500Y693049D01*
Y719500D01*
X921000D01*
Y693250D01*
G37*
G36*
Y613500D02*X917500Y617000D01*
Y627000D01*
X918250D01*
Y631000D01*
X917500D01*
Y657000D01*
X918250D01*
Y661000D01*
X917500D01*
Y684951D01*
X917737Y684840D01*
X917990Y684773D01*
X918250Y684750D01*
X921000D01*
Y663250D01*
X919000D01*
Y661750D01*
X921000D01*
Y656250D01*
X919000D01*
Y654750D01*
X921000D01*
Y633250D01*
X919000D01*
Y631750D01*
X921000D01*
Y626250D01*
X919000D01*
Y624750D01*
X921000D01*
Y613500D01*
G37*
G36*
X917500Y617000D02*X915500Y619000D01*
Y630500D01*
X911000Y635000D01*
Y639750D01*
X913750D01*
X914010Y639773D01*
X914263Y639840D01*
X914500Y639951D01*
X914714Y640101D01*
X914899Y640286D01*
X915049Y640500D01*
X915160Y640737D01*
X915227Y640990D01*
X915250Y641250D01*
Y646750D01*
X915227Y647010D01*
X915160Y647263D01*
X915049Y647500D01*
X914899Y647714D01*
X914714Y647899D01*
X914500Y648049D01*
X914263Y648160D01*
X914010Y648227D01*
X913750Y648250D01*
X911000D01*
Y669750D01*
X913750D01*
X914010Y669773D01*
X914263Y669840D01*
X914500Y669951D01*
X914714Y670101D01*
X914899Y670286D01*
X915049Y670500D01*
X915160Y670737D01*
X915227Y670990D01*
X915250Y671250D01*
Y676750D01*
X915227Y677010D01*
X915160Y677263D01*
X915049Y677500D01*
X914899Y677714D01*
X914714Y677899D01*
X914500Y678049D01*
X914263Y678160D01*
X914010Y678227D01*
X913750Y678250D01*
X911000D01*
Y698500D01*
X915000D01*
X915260Y698523D01*
X915513Y698590D01*
X915750Y698701D01*
X915964Y698851D01*
X916149Y699036D01*
X916299Y699250D01*
X916410Y699487D01*
X916477Y699740D01*
X916500Y700000D01*
Y708000D01*
X916477Y708260D01*
X916410Y708513D01*
X916299Y708750D01*
X916149Y708964D01*
X915964Y709149D01*
X915750Y709299D01*
X915513Y709410D01*
X915260Y709477D01*
X915000Y709500D01*
X911000D01*
Y719500D01*
X917500D01*
Y693049D01*
X917286Y692899D01*
X917101Y692714D01*
X916951Y692500D01*
X916840Y692263D01*
X916773Y692010D01*
X916750Y691750D01*
Y686250D01*
X916773Y685990D01*
X916840Y685737D01*
X916951Y685500D01*
X917101Y685286D01*
X917286Y685101D01*
X917500Y684951D01*
Y661000D01*
X916750D01*
Y657000D01*
X917500D01*
Y631000D01*
X916750D01*
Y627000D01*
X917500D01*
Y617000D01*
G37*
G36*
X911000Y635000D02*X906000Y640000D01*
X897432D01*
X897454Y640006D01*
X898125Y640319D01*
X898732Y640744D01*
X899256Y641268D01*
X899681Y641875D01*
X899994Y642546D01*
X900185Y643262D01*
X900250Y644000D01*
X900185Y644738D01*
X899994Y645454D01*
X899681Y646125D01*
X899256Y646732D01*
X898732Y647256D01*
X898125Y647681D01*
X897454Y647994D01*
X896738Y648185D01*
X896000Y648250D01*
Y654750D01*
X896738Y654815D01*
X897454Y655006D01*
X898125Y655319D01*
X898732Y655744D01*
X899256Y656268D01*
X899681Y656875D01*
X899994Y657546D01*
X900185Y658262D01*
X900250Y659000D01*
X900185Y659738D01*
X899994Y660454D01*
X899681Y661125D01*
X899256Y661732D01*
X898732Y662256D01*
X898125Y662681D01*
X897454Y662994D01*
X896738Y663185D01*
X896000Y663250D01*
Y669750D01*
X896738Y669815D01*
X897454Y670006D01*
X898125Y670319D01*
X898732Y670744D01*
X899256Y671268D01*
X899681Y671875D01*
X899994Y672546D01*
X900185Y673262D01*
X900250Y674000D01*
X900185Y674738D01*
X899994Y675454D01*
X899681Y676125D01*
X899256Y676732D01*
X898732Y677256D01*
X898125Y677681D01*
X897454Y677994D01*
X896738Y678185D01*
X896000Y678250D01*
Y687500D01*
X896781Y687568D01*
X897539Y687771D01*
X898250Y688103D01*
X898893Y688553D01*
X899447Y689107D01*
X899897Y689750D01*
X900229Y690461D01*
X900432Y691219D01*
X900500Y692000D01*
X900432Y692781D01*
X900229Y693539D01*
X899897Y694250D01*
X899447Y694893D01*
X898893Y695447D01*
X898250Y695897D01*
X897539Y696229D01*
X896781Y696432D01*
X896000Y696500D01*
Y719500D01*
X911000D01*
Y709500D01*
X907000D01*
X906740Y709477D01*
X906487Y709410D01*
X906250Y709299D01*
X906036Y709149D01*
X905851Y708964D01*
X905701Y708750D01*
X905590Y708513D01*
X905523Y708260D01*
X905500Y708000D01*
Y700000D01*
X905523Y699740D01*
X905590Y699487D01*
X905701Y699250D01*
X905851Y699036D01*
X906036Y698851D01*
X906250Y698701D01*
X906487Y698590D01*
X906740Y698523D01*
X907000Y698500D01*
X911000D01*
Y678250D01*
X908250D01*
X907990Y678227D01*
X907737Y678160D01*
X907500Y678049D01*
X907286Y677899D01*
X907101Y677714D01*
X906951Y677500D01*
X906840Y677263D01*
X906773Y677010D01*
X906750Y676750D01*
Y671250D01*
X906773Y670990D01*
X906840Y670737D01*
X906951Y670500D01*
X907101Y670286D01*
X907286Y670101D01*
X907500Y669951D01*
X907737Y669840D01*
X907990Y669773D01*
X908250Y669750D01*
X911000D01*
Y648250D01*
X908250D01*
X907990Y648227D01*
X907737Y648160D01*
X907500Y648049D01*
X907286Y647899D01*
X907101Y647714D01*
X906951Y647500D01*
X906840Y647263D01*
X906773Y647010D01*
X906750Y646750D01*
Y641250D01*
X906773Y640990D01*
X906840Y640737D01*
X906951Y640500D01*
X907101Y640286D01*
X907286Y640101D01*
X907500Y639951D01*
X907737Y639840D01*
X907990Y639773D01*
X908250Y639750D01*
X911000D01*
Y635000D01*
G37*
G36*
X856000Y727000D02*X861000D01*
X860045Y726916D01*
X859119Y726668D01*
X858250Y726263D01*
X857465Y725713D01*
X856787Y725035D01*
X856237Y724250D01*
X856000Y723741D01*
Y727000D01*
G37*
G36*
X896000Y648250D02*X895262Y648185D01*
X894546Y647994D01*
X893875Y647681D01*
X893268Y647256D01*
X892744Y646732D01*
X892319Y646125D01*
X892006Y645454D01*
X891815Y644738D01*
X891750Y644000D01*
X891815Y643262D01*
X892006Y642546D01*
X892319Y641875D01*
X892744Y641268D01*
X893268Y640744D01*
X893875Y640319D01*
X894546Y640006D01*
X894568Y640000D01*
X886000D01*
Y687500D01*
X886781Y687568D01*
X887539Y687771D01*
X888250Y688103D01*
X888893Y688553D01*
X889447Y689107D01*
X889897Y689750D01*
X890229Y690461D01*
X890432Y691219D01*
X890500Y692000D01*
X890432Y692781D01*
X890229Y693539D01*
X889897Y694250D01*
X889447Y694893D01*
X888893Y695447D01*
X888250Y695897D01*
X887539Y696229D01*
X886781Y696432D01*
X886000Y696500D01*
Y719500D01*
X896000D01*
Y696500D01*
X895219Y696432D01*
X894461Y696229D01*
X893750Y695897D01*
X893107Y695447D01*
X892553Y694893D01*
X892103Y694250D01*
X891771Y693539D01*
X891568Y692781D01*
X891500Y692000D01*
X891568Y691219D01*
X891771Y690461D01*
X892103Y689750D01*
X892553Y689107D01*
X893107Y688553D01*
X893750Y688103D01*
X894461Y687771D01*
X895219Y687568D01*
X896000Y687500D01*
Y678250D01*
X895262Y678185D01*
X894546Y677994D01*
X893875Y677681D01*
X893268Y677256D01*
X892744Y676732D01*
X892319Y676125D01*
X892006Y675454D01*
X891815Y674738D01*
X891750Y674000D01*
X891815Y673262D01*
X892006Y672546D01*
X892319Y671875D01*
X892744Y671268D01*
X893268Y670744D01*
X893875Y670319D01*
X894546Y670006D01*
X895262Y669815D01*
X896000Y669750D01*
Y663250D01*
X895262Y663185D01*
X894546Y662994D01*
X893875Y662681D01*
X893268Y662256D01*
X892744Y661732D01*
X892319Y661125D01*
X892006Y660454D01*
X891815Y659738D01*
X891750Y659000D01*
X891815Y658262D01*
X892006Y657546D01*
X892319Y656875D01*
X892744Y656268D01*
X893268Y655744D01*
X893875Y655319D01*
X894546Y655006D01*
X895262Y654815D01*
X896000Y654750D01*
Y648250D01*
G37*
G36*
X886000Y640000D02*X876000D01*
Y687500D01*
X879000D01*
X879260Y687523D01*
X879513Y687590D01*
X879750Y687701D01*
X879964Y687851D01*
X880149Y688036D01*
X880299Y688250D01*
X880410Y688487D01*
X880477Y688740D01*
X880500Y689000D01*
Y695000D01*
X880477Y695260D01*
X880410Y695513D01*
X880299Y695750D01*
X880149Y695964D01*
X879964Y696149D01*
X879750Y696299D01*
X879513Y696410D01*
X879260Y696477D01*
X879000Y696500D01*
X876000D01*
Y717262D01*
X876750Y716737D01*
X877619Y716332D01*
X878545Y716084D01*
X879500Y716000D01*
X880455Y716084D01*
X881381Y716332D01*
X882250Y716737D01*
X883035Y717287D01*
X883713Y717965D01*
X884263Y718750D01*
X884613Y719500D01*
X886000D01*
Y696500D01*
X885219Y696432D01*
X884461Y696229D01*
X883750Y695897D01*
X883107Y695447D01*
X882553Y694893D01*
X882103Y694250D01*
X881771Y693539D01*
X881568Y692781D01*
X881500Y692000D01*
X881568Y691219D01*
X881771Y690461D01*
X882103Y689750D01*
X882553Y689107D01*
X883107Y688553D01*
X883750Y688103D01*
X884461Y687771D01*
X885219Y687568D01*
X886000Y687500D01*
Y640000D01*
G37*
G36*
X876000D02*X869570D01*
X869714Y640101D01*
X869899Y640286D01*
X870049Y640500D01*
X870160Y640737D01*
X870227Y640990D01*
X870250Y641250D01*
Y646750D01*
X870227Y647010D01*
X870160Y647263D01*
X870049Y647500D01*
X869899Y647714D01*
X869714Y647899D01*
X869500Y648049D01*
X869263Y648160D01*
X869010Y648227D01*
X868750Y648250D01*
X863250D01*
X862990Y648227D01*
X862737Y648160D01*
X862500Y648049D01*
X862286Y647899D01*
X862101Y647714D01*
X861951Y647500D01*
X861840Y647263D01*
X861773Y647010D01*
X861750Y646750D01*
Y641250D01*
X861773Y640990D01*
X861840Y640737D01*
X861951Y640500D01*
X862101Y640286D01*
X862286Y640101D01*
X862430Y640000D01*
X859500D01*
Y657000D01*
X859630Y657011D01*
X859757Y657045D01*
X859875Y657100D01*
X859982Y657175D01*
X860075Y657268D01*
X860150Y657375D01*
X860205Y657493D01*
X860239Y657620D01*
X860250Y657750D01*
Y660250D01*
X860239Y660380D01*
X860205Y660507D01*
X860150Y660625D01*
X860075Y660732D01*
X859982Y660825D01*
X859875Y660900D01*
X859757Y660955D01*
X859630Y660989D01*
X859500Y661000D01*
Y672000D01*
X860250D01*
Y676000D01*
X859500D01*
Y716230D01*
X860045Y716084D01*
X861000Y716000D01*
X861955Y716084D01*
X862881Y716332D01*
X863750Y716737D01*
X864535Y717287D01*
X865213Y717965D01*
X865763Y718750D01*
X866168Y719619D01*
X866416Y720545D01*
X866500Y721500D01*
X866416Y722455D01*
X866168Y723381D01*
X865763Y724250D01*
X865213Y725035D01*
X864535Y725713D01*
X863750Y726263D01*
X862881Y726668D01*
X861955Y726916D01*
X861000Y727000D01*
X871171D01*
X874478Y723693D01*
X874332Y723381D01*
X874084Y722455D01*
X874000Y721500D01*
X874084Y720545D01*
X874332Y719619D01*
X874737Y718750D01*
X875287Y717965D01*
X875965Y717287D01*
X876000Y717262D01*
Y696500D01*
X873000D01*
X872740Y696477D01*
X872487Y696410D01*
X872250Y696299D01*
X872036Y696149D01*
X871851Y695964D01*
X871701Y695750D01*
X871590Y695513D01*
X871523Y695260D01*
X871500Y695000D01*
Y689000D01*
X871523Y688740D01*
X871590Y688487D01*
X871701Y688250D01*
X871851Y688036D01*
X872036Y687851D01*
X872250Y687701D01*
X872487Y687590D01*
X872740Y687523D01*
X873000Y687500D01*
X876000D01*
Y640000D01*
G37*
G36*
X859500D02*X856000D01*
Y654750D01*
X857250D01*
X857380Y654761D01*
X857507Y654795D01*
X857625Y654850D01*
X857732Y654925D01*
X857825Y655018D01*
X857900Y655125D01*
X857955Y655243D01*
X857989Y655370D01*
X858000Y655500D01*
X857989Y655630D01*
X857955Y655757D01*
X857900Y655875D01*
X857825Y655982D01*
X857732Y656075D01*
X857625Y656150D01*
X857507Y656205D01*
X857380Y656239D01*
X857250Y656250D01*
X856000D01*
Y661750D01*
X857250D01*
X857380Y661761D01*
X857507Y661795D01*
X857625Y661850D01*
X857732Y661925D01*
X857825Y662018D01*
X857900Y662125D01*
X857955Y662243D01*
X857989Y662370D01*
X858000Y662500D01*
X857989Y662630D01*
X857955Y662757D01*
X857900Y662875D01*
X857825Y662982D01*
X857732Y663075D01*
X857625Y663150D01*
X857507Y663205D01*
X857380Y663239D01*
X857250Y663250D01*
X856000D01*
Y669750D01*
X858000D01*
Y671250D01*
X856000D01*
Y676750D01*
X858000D01*
Y678250D01*
X856000D01*
Y719259D01*
X856237Y718750D01*
X856787Y717965D01*
X857465Y717287D01*
X858250Y716737D01*
X859119Y716332D01*
X859500Y716230D01*
Y676000D01*
X858750D01*
Y672000D01*
X859500D01*
Y661000D01*
X859370Y660989D01*
X859243Y660955D01*
X859125Y660900D01*
X859018Y660825D01*
X858925Y660732D01*
X858850Y660625D01*
X858795Y660507D01*
X858761Y660380D01*
X858750Y660250D01*
Y657750D01*
X858761Y657620D01*
X858795Y657493D01*
X858850Y657375D01*
X858925Y657268D01*
X859018Y657175D01*
X859125Y657100D01*
X859243Y657045D01*
X859370Y657011D01*
X859500Y657000D01*
Y640000D01*
G37*
G36*
X856000D02*X854500D01*
X852500Y642000D01*
Y657000D01*
X852630Y657011D01*
X852757Y657045D01*
X852875Y657100D01*
X852982Y657175D01*
X853075Y657268D01*
X853150Y657375D01*
X853205Y657493D01*
X853239Y657620D01*
X853250Y657750D01*
Y660250D01*
X853239Y660380D01*
X853205Y660507D01*
X853150Y660625D01*
X853075Y660732D01*
X852982Y660825D01*
X852875Y660900D01*
X852757Y660955D01*
X852630Y660989D01*
X852500Y661000D01*
Y672000D01*
X853250D01*
Y676000D01*
X852500D01*
Y727000D01*
X856000D01*
Y723741D01*
X855832Y723381D01*
X855584Y722455D01*
X855500Y721500D01*
X855584Y720545D01*
X855832Y719619D01*
X856000Y719259D01*
Y678250D01*
X854000D01*
Y676750D01*
X856000D01*
Y671250D01*
X854000D01*
Y669750D01*
X856000D01*
Y663250D01*
X854750D01*
X854620Y663239D01*
X854493Y663205D01*
X854375Y663150D01*
X854268Y663075D01*
X854175Y662982D01*
X854100Y662875D01*
X854045Y662757D01*
X854011Y662630D01*
X854000Y662500D01*
X854011Y662370D01*
X854045Y662243D01*
X854100Y662125D01*
X854175Y662018D01*
X854268Y661925D01*
X854375Y661850D01*
X854493Y661795D01*
X854620Y661761D01*
X854750Y661750D01*
X856000D01*
Y656250D01*
X854750D01*
X854620Y656239D01*
X854493Y656205D01*
X854375Y656150D01*
X854268Y656075D01*
X854175Y655982D01*
X854100Y655875D01*
X854045Y655757D01*
X854011Y655630D01*
X854000Y655500D01*
X854011Y655370D01*
X854045Y655243D01*
X854100Y655125D01*
X854175Y655018D01*
X854268Y654925D01*
X854375Y654850D01*
X854493Y654795D01*
X854620Y654761D01*
X854750Y654750D01*
X856000D01*
Y640000D01*
G37*
G36*
X852500Y642000D02*X845500Y649000D01*
Y696500D01*
X842500Y699500D01*
Y716000D01*
X843455Y716084D01*
X844381Y716332D01*
X845250Y716737D01*
X846035Y717287D01*
X846713Y717965D01*
X847263Y718750D01*
X847668Y719619D01*
X847916Y720545D01*
X848000Y721500D01*
X847916Y722455D01*
X847668Y723381D01*
X847263Y724250D01*
X846713Y725035D01*
X846035Y725713D01*
X845250Y726263D01*
X844381Y726668D01*
X843455Y726916D01*
X842500Y727000D01*
Y731000D01*
X843455Y731084D01*
X844381Y731332D01*
X845250Y731737D01*
X845358Y731813D01*
X849586Y727585D01*
X849654Y727528D01*
X849714Y727468D01*
X849783Y727420D01*
X849853Y727361D01*
X849933Y727315D01*
X850000Y727268D01*
X850075Y727233D01*
X850155Y727187D01*
X850241Y727156D01*
X850316Y727121D01*
X850398Y727099D01*
X850483Y727068D01*
X850568Y727053D01*
X850653Y727030D01*
X850738Y727023D01*
X850826Y727007D01*
X850920D01*
X851000Y727000D01*
X852500D01*
Y676000D01*
X851750D01*
Y672000D01*
X852500D01*
Y661000D01*
X852370Y660989D01*
X852243Y660955D01*
X852125Y660900D01*
X852018Y660825D01*
X851925Y660732D01*
X851850Y660625D01*
X851795Y660507D01*
X851761Y660380D01*
X851750Y660250D01*
Y657750D01*
X851761Y657620D01*
X851795Y657493D01*
X851850Y657375D01*
X851925Y657268D01*
X852018Y657175D01*
X852125Y657100D01*
X852243Y657045D01*
X852370Y657011D01*
X852500Y657000D01*
Y642000D01*
G37*
G36*
X842500Y699500D02*X829500Y712500D01*
Y767500D01*
X842500D01*
Y742000D01*
X841545Y741916D01*
X840619Y741668D01*
X839750Y741263D01*
X838965Y740713D01*
X838287Y740035D01*
X837737Y739250D01*
X837332Y738381D01*
X837084Y737455D01*
X837000Y736500D01*
X837084Y735545D01*
X837332Y734619D01*
X837737Y733750D01*
X838287Y732965D01*
X838965Y732287D01*
X839750Y731737D01*
X840619Y731332D01*
X841545Y731084D01*
X842500Y731000D01*
Y727000D01*
X841545Y726916D01*
X840619Y726668D01*
X839750Y726263D01*
X838965Y725713D01*
X838287Y725035D01*
X837737Y724250D01*
X837332Y723381D01*
X837084Y722455D01*
X837000Y721500D01*
X837084Y720545D01*
X837332Y719619D01*
X837737Y718750D01*
X838287Y717965D01*
X838965Y717287D01*
X839750Y716737D01*
X840619Y716332D01*
X841545Y716084D01*
X842500Y716000D01*
Y699500D01*
G37*
G36*
X851000Y782000D02*Y788500D01*
X871000D01*
Y782000D01*
X851000D01*
G37*
G36*
X269500Y655500D02*X277500Y647500D01*
Y595000D01*
X269500Y587000D01*
Y595261D01*
X270046Y595006D01*
X270762Y594815D01*
X271500Y594750D01*
X272238Y594815D01*
X272954Y595006D01*
X273625Y595319D01*
X274232Y595744D01*
X274756Y596268D01*
X275181Y596875D01*
X275494Y597546D01*
X275685Y598262D01*
X275750Y599000D01*
X275685Y599738D01*
X275494Y600454D01*
X275181Y601125D01*
X274756Y601732D01*
X274232Y602256D01*
X273625Y602681D01*
X272954Y602994D01*
X272238Y603185D01*
X271500Y603250D01*
X270762Y603185D01*
X270274Y603055D01*
X269500Y603829D01*
Y632000D01*
X272500D01*
X272760Y632023D01*
X273013Y632090D01*
X273250Y632201D01*
X273464Y632351D01*
X273649Y632536D01*
X273799Y632750D01*
X273910Y632987D01*
X273977Y633240D01*
X274000Y633500D01*
Y639500D01*
X273977Y639760D01*
X273910Y640013D01*
X273799Y640250D01*
X273649Y640464D01*
X273464Y640649D01*
X273250Y640799D01*
X273013Y640910D01*
X272760Y640977D01*
X272500Y641000D01*
X269500D01*
Y655500D01*
G37*
G36*
Y587000D02*X252500Y570000D01*
X251500D01*
Y616171D01*
X267445Y600226D01*
X267315Y599738D01*
X267250Y599000D01*
X267315Y598262D01*
X267506Y597546D01*
X267819Y596875D01*
X268244Y596268D01*
X268768Y595744D01*
X269375Y595319D01*
X269500Y595261D01*
Y587000D01*
G37*
G36*
X251500Y722500D02*X256500Y717500D01*
Y710500D01*
X263500Y703500D01*
Y661500D01*
X269500Y655500D01*
Y641000D01*
X266500D01*
X266240Y640977D01*
X265987Y640910D01*
X265750Y640799D01*
X265536Y640649D01*
X265351Y640464D01*
X265201Y640250D01*
X265090Y640013D01*
X265023Y639760D01*
X265000Y639500D01*
Y633500D01*
X265023Y633240D01*
X265090Y632987D01*
X265201Y632750D01*
X265351Y632536D01*
X265536Y632351D01*
X265750Y632201D01*
X265987Y632090D01*
X266240Y632023D01*
X266500Y632000D01*
X269500D01*
Y603829D01*
X251500Y621829D01*
Y670500D01*
X257000D01*
X257260Y670523D01*
X257513Y670590D01*
X257750Y670701D01*
X257964Y670851D01*
X258149Y671036D01*
X258299Y671250D01*
X258410Y671487D01*
X258477Y671740D01*
X258500Y672000D01*
Y678000D01*
X258477Y678260D01*
X258410Y678513D01*
X258299Y678750D01*
X258149Y678964D01*
X257964Y679149D01*
X257750Y679299D01*
X257513Y679410D01*
X257260Y679477D01*
X257000Y679500D01*
X251500D01*
Y698082D01*
X251875Y697819D01*
X252546Y697506D01*
X253262Y697315D01*
X254000Y697250D01*
X254738Y697315D01*
X255454Y697506D01*
X256125Y697819D01*
X256732Y698244D01*
X257256Y698768D01*
X257681Y699375D01*
X257994Y700046D01*
X258185Y700762D01*
X258250Y701500D01*
X258185Y702238D01*
X257994Y702954D01*
X257681Y703625D01*
X257256Y704232D01*
X256732Y704756D01*
X256125Y705181D01*
X255454Y705494D01*
X254738Y705685D01*
X254000Y705750D01*
X253262Y705685D01*
X252546Y705494D01*
X251875Y705181D01*
X251500Y704918D01*
Y722500D01*
G37*
G36*
X231500Y624750D02*X234250D01*
X234510Y624773D01*
X234763Y624840D01*
X235000Y624951D01*
X235214Y625101D01*
X235399Y625286D01*
X235549Y625500D01*
X235660Y625737D01*
X235727Y625990D01*
X235750Y626250D01*
Y627000D01*
X240671D01*
X251500Y616171D01*
Y570000D01*
X231500D01*
Y594750D01*
X234250D01*
X234510Y594773D01*
X234763Y594840D01*
X235000Y594951D01*
X235214Y595101D01*
X235399Y595286D01*
X235549Y595500D01*
X235660Y595737D01*
X235727Y595990D01*
X235750Y596250D01*
Y601750D01*
X235727Y602010D01*
X235660Y602263D01*
X235549Y602500D01*
X235399Y602714D01*
X235214Y602899D01*
X235000Y603049D01*
X234763Y603160D01*
X234510Y603227D01*
X234250Y603250D01*
X231500D01*
Y609750D01*
X234250D01*
X234510Y609773D01*
X234763Y609840D01*
X235000Y609951D01*
X235214Y610101D01*
X235399Y610286D01*
X235549Y610500D01*
X235660Y610737D01*
X235727Y610990D01*
X235750Y611250D01*
Y616750D01*
X235727Y617010D01*
X235660Y617263D01*
X235549Y617500D01*
X235399Y617714D01*
X235214Y617899D01*
X235000Y618049D01*
X234763Y618160D01*
X234510Y618227D01*
X234250Y618250D01*
X231500D01*
Y624750D01*
G37*
G36*
X239000Y728500D02*X245500D01*
X251500Y722500D01*
Y704918D01*
X251268Y704756D01*
X250744Y704232D01*
X250319Y703625D01*
X250006Y702954D01*
X249815Y702238D01*
X249750Y701500D01*
X249815Y700762D01*
X250006Y700046D01*
X250319Y699375D01*
X250744Y698768D01*
X251268Y698244D01*
X251500Y698082D01*
Y679500D01*
X251000D01*
X250740Y679477D01*
X250487Y679410D01*
X250250Y679299D01*
X250036Y679149D01*
X249851Y678964D01*
X249701Y678750D01*
X249590Y678513D01*
X249523Y678260D01*
X249500Y678000D01*
Y672000D01*
X249523Y671740D01*
X249590Y671487D01*
X249701Y671250D01*
X249851Y671036D01*
X250036Y670851D01*
X250250Y670701D01*
X250487Y670590D01*
X250740Y670523D01*
X251000Y670500D01*
X251500D01*
Y621829D01*
X242915Y630414D01*
X242847Y630471D01*
X242786Y630532D01*
X242715Y630582D01*
X242648Y630638D01*
X242569Y630684D01*
X242500Y630732D01*
X242429Y630765D01*
X242346Y630813D01*
X242255Y630846D01*
X242184Y630879D01*
X242106Y630900D01*
X242018Y630932D01*
X241929Y630948D01*
X241847Y630970D01*
X241765Y630977D01*
X241675Y630993D01*
X241581D01*
X241500Y631000D01*
X239000D01*
Y712500D01*
X242000D01*
X242260Y712523D01*
X242513Y712590D01*
X242750Y712701D01*
X242964Y712851D01*
X243149Y713036D01*
X243299Y713250D01*
X243410Y713487D01*
X243477Y713740D01*
X243500Y714000D01*
Y720000D01*
X243477Y720260D01*
X243410Y720513D01*
X243299Y720750D01*
X243149Y720964D01*
X242964Y721149D01*
X242750Y721299D01*
X242513Y721410D01*
X242260Y721477D01*
X242000Y721500D01*
X239000D01*
Y728500D01*
G37*
G36*
X231500D02*X239000D01*
Y721500D01*
X236000D01*
X235740Y721477D01*
X235487Y721410D01*
X235250Y721299D01*
X235036Y721149D01*
X234851Y720964D01*
X234701Y720750D01*
X234590Y720513D01*
X234523Y720260D01*
X234500Y720000D01*
Y714000D01*
X234523Y713740D01*
X234590Y713487D01*
X234701Y713250D01*
X234851Y713036D01*
X235036Y712851D01*
X235250Y712701D01*
X235487Y712590D01*
X235740Y712523D01*
X236000Y712500D01*
X239000D01*
Y631000D01*
X235750D01*
Y631750D01*
X235727Y632010D01*
X235660Y632263D01*
X235549Y632500D01*
X235399Y632714D01*
X235214Y632899D01*
X235000Y633049D01*
X234763Y633160D01*
X234510Y633227D01*
X234250Y633250D01*
X231500D01*
Y728500D01*
G37*
G36*
Y570000D02*X214000D01*
Y597757D01*
X214879Y596878D01*
X214984Y596790D01*
X215072Y596702D01*
X215177Y596628D01*
X215280Y596542D01*
X215394Y596476D01*
X215500Y596402D01*
X215618Y596347D01*
X215733Y596281D01*
X215855Y596237D01*
X215974Y596181D01*
X216102Y596147D01*
X216224Y596102D01*
X216358Y596078D01*
X216479Y596046D01*
X216602Y596035D01*
X216739Y596011D01*
X216875D01*
X217000Y596000D01*
X227272D01*
X227273Y595990D01*
X227340Y595737D01*
X227451Y595500D01*
X227601Y595286D01*
X227786Y595101D01*
X228000Y594951D01*
X228237Y594840D01*
X228490Y594773D01*
X228750Y594750D01*
X231500D01*
Y570000D01*
G37*
G36*
X221500Y728500D02*X231500D01*
Y633250D01*
X228750D01*
X228490Y633227D01*
X228237Y633160D01*
X228000Y633049D01*
X227786Y632899D01*
X227601Y632714D01*
X227451Y632500D01*
X227340Y632263D01*
X227273Y632010D01*
X227250Y631750D01*
Y626250D01*
X227273Y625990D01*
X227340Y625737D01*
X227451Y625500D01*
X227601Y625286D01*
X227786Y625101D01*
X228000Y624951D01*
X228237Y624840D01*
X228490Y624773D01*
X228750Y624750D01*
X231500D01*
Y618250D01*
X228750D01*
X228490Y618227D01*
X228237Y618160D01*
X228000Y618049D01*
X227786Y617899D01*
X227601Y617714D01*
X227451Y617500D01*
X227340Y617263D01*
X227273Y617010D01*
X227250Y616750D01*
Y611250D01*
X227273Y610990D01*
X227340Y610737D01*
X227451Y610500D01*
X227601Y610286D01*
X227786Y610101D01*
X228000Y609951D01*
X228237Y609840D01*
X228490Y609773D01*
X228750Y609750D01*
X231500D01*
Y603250D01*
X228750D01*
X228490Y603227D01*
X228237Y603160D01*
X228000Y603049D01*
X227786Y602899D01*
X227601Y602714D01*
X227451Y602500D01*
X227340Y602263D01*
X227273Y602010D01*
X227272Y602000D01*
X221500D01*
Y644500D01*
X222281Y644568D01*
X223039Y644771D01*
X223750Y645103D01*
X224393Y645553D01*
X224947Y646107D01*
X225397Y646750D01*
X225729Y647461D01*
X225932Y648219D01*
X226000Y649000D01*
X225932Y649781D01*
X225729Y650539D01*
X225397Y651250D01*
X224947Y651893D01*
X224393Y652447D01*
X223750Y652897D01*
X223039Y653229D01*
X222281Y653432D01*
X221500Y653500D01*
Y654500D01*
X222281Y654568D01*
X223039Y654771D01*
X223750Y655103D01*
X224393Y655553D01*
X224947Y656107D01*
X225397Y656750D01*
X225729Y657461D01*
X225932Y658219D01*
X226000Y659000D01*
X225932Y659781D01*
X225729Y660539D01*
X225397Y661250D01*
X224947Y661893D01*
X224393Y662447D01*
X223750Y662897D01*
X223039Y663229D01*
X222281Y663432D01*
X221500Y663500D01*
Y664500D01*
X222281Y664568D01*
X223039Y664771D01*
X223750Y665103D01*
X224393Y665553D01*
X224947Y666107D01*
X225397Y666750D01*
X225729Y667461D01*
X225932Y668219D01*
X226000Y669000D01*
X225932Y669781D01*
X225729Y670539D01*
X225397Y671250D01*
X224947Y671893D01*
X224393Y672447D01*
X223750Y672897D01*
X223039Y673229D01*
X222281Y673432D01*
X221500Y673500D01*
Y674500D01*
X222281Y674568D01*
X223039Y674771D01*
X223750Y675103D01*
X224393Y675553D01*
X224947Y676107D01*
X225397Y676750D01*
X225729Y677461D01*
X225932Y678219D01*
X226000Y679000D01*
X225932Y679781D01*
X225729Y680539D01*
X225397Y681250D01*
X224947Y681893D01*
X224393Y682447D01*
X223750Y682897D01*
X223039Y683229D01*
X222281Y683432D01*
X221500Y683500D01*
Y728500D01*
G37*
G36*
Y602000D02*X218243D01*
X214000Y606243D01*
Y658671D01*
X215086Y657585D01*
X215154Y657528D01*
X215214Y657468D01*
X215283Y657420D01*
X215353Y657361D01*
X215433Y657315D01*
X215500Y657268D01*
X215575Y657233D01*
X215655Y657187D01*
X215741Y657156D01*
X215816Y657121D01*
X215898Y657099D01*
X215983Y657068D01*
X216068Y657053D01*
X216153Y657030D01*
X216238Y657023D01*
X216326Y657007D01*
X216420D01*
X216500Y657000D01*
X217486D01*
X217603Y656750D01*
X218053Y656107D01*
X218607Y655553D01*
X219250Y655103D01*
X219961Y654771D01*
X220719Y654568D01*
X221500Y654500D01*
Y653500D01*
X220719Y653432D01*
X219961Y653229D01*
X219250Y652897D01*
X218607Y652447D01*
X218053Y651893D01*
X217603Y651250D01*
X217271Y650539D01*
X217068Y649781D01*
X217000Y649000D01*
X217068Y648219D01*
X217271Y647461D01*
X217603Y646750D01*
X218053Y646107D01*
X218607Y645553D01*
X219250Y645103D01*
X219961Y644771D01*
X220719Y644568D01*
X221500Y644500D01*
Y602000D01*
G37*
G36*
X214000Y735000D02*X220500Y728500D01*
X221500D01*
Y683500D01*
X220719Y683432D01*
X219961Y683229D01*
X219250Y682897D01*
X218607Y682447D01*
X218053Y681893D01*
X217603Y681250D01*
X217271Y680539D01*
X217068Y679781D01*
X217000Y679000D01*
X217068Y678219D01*
X217271Y677461D01*
X217603Y676750D01*
X218053Y676107D01*
X218607Y675553D01*
X219250Y675103D01*
X219961Y674771D01*
X220719Y674568D01*
X221500Y674500D01*
Y673500D01*
X220719Y673432D01*
X219961Y673229D01*
X219250Y672897D01*
X218607Y672447D01*
X218053Y671893D01*
X217603Y671250D01*
X217271Y670539D01*
X217068Y669781D01*
X217000Y669000D01*
X217068Y668219D01*
X217271Y667461D01*
X217603Y666750D01*
X218053Y666107D01*
X218607Y665553D01*
X219250Y665103D01*
X219961Y664771D01*
X220719Y664568D01*
X221500Y664500D01*
Y663500D01*
X220719Y663432D01*
X219961Y663229D01*
X219250Y662897D01*
X218607Y662447D01*
X218053Y661893D01*
X217603Y661250D01*
X217486Y661000D01*
X217329D01*
X214000Y664329D01*
Y697250D01*
X216750D01*
X217010Y697273D01*
X217263Y697340D01*
X217500Y697451D01*
X217714Y697601D01*
X217899Y697786D01*
X218049Y698000D01*
X218160Y698237D01*
X218227Y698490D01*
X218250Y698750D01*
Y704250D01*
X218227Y704510D01*
X218160Y704763D01*
X218049Y705000D01*
X217899Y705214D01*
X217714Y705399D01*
X217500Y705549D01*
X217263Y705660D01*
X217010Y705727D01*
X216750Y705750D01*
X214000D01*
Y735000D01*
G37*
G36*
Y606243D02*X205977Y614266D01*
X205939Y614695D01*
X205759Y615368D01*
X205464Y616000D01*
X205064Y616571D01*
X204571Y617064D01*
X204000Y617464D01*
X203368Y617759D01*
X202695Y617939D01*
X202000Y618000D01*
X201500Y617956D01*
Y667000D01*
X205671D01*
X214000Y658671D01*
Y606243D01*
G37*
G36*
Y570000D02*X201500D01*
Y594750D01*
X204250D01*
X204510Y594773D01*
X204763Y594840D01*
X205000Y594951D01*
X205214Y595101D01*
X205399Y595286D01*
X205549Y595500D01*
X205660Y595737D01*
X205727Y595990D01*
X205750Y596250D01*
Y601750D01*
X205727Y602010D01*
X205660Y602263D01*
X205549Y602500D01*
X205399Y602714D01*
X205214Y602899D01*
X205000Y603049D01*
X204763Y603160D01*
X204510Y603227D01*
X204250Y603250D01*
X201500D01*
Y610044D01*
X201734Y610023D01*
X214000Y597757D01*
Y570000D01*
G37*
G36*
X201500Y747500D02*X214000Y735000D01*
Y705750D01*
X211250D01*
X210990Y705727D01*
X210737Y705660D01*
X210500Y705549D01*
X210286Y705399D01*
X210101Y705214D01*
X209951Y705000D01*
X209840Y704763D01*
X209773Y704510D01*
X209750Y704250D01*
Y698750D01*
X209773Y698490D01*
X209840Y698237D01*
X209951Y698000D01*
X210101Y697786D01*
X210286Y697601D01*
X210500Y697451D01*
X210737Y697340D01*
X210990Y697273D01*
X211250Y697250D01*
X214000D01*
Y664329D01*
X207915Y670414D01*
X207847Y670471D01*
X207786Y670532D01*
X207716Y670581D01*
X207648Y670638D01*
X207567Y670685D01*
X207500Y670732D01*
X207428Y670766D01*
X207346Y670813D01*
X207256Y670846D01*
X207184Y670879D01*
X207106Y670900D01*
X207018Y670932D01*
X206930Y670948D01*
X206847Y670970D01*
X206764Y670977D01*
X206675Y670993D01*
X206580D01*
X206500Y671000D01*
X201500D01*
Y697250D01*
X202238Y697315D01*
X202954Y697506D01*
X203625Y697819D01*
X204232Y698244D01*
X204756Y698768D01*
X205181Y699375D01*
X205494Y700046D01*
X205685Y700762D01*
X205750Y701500D01*
X205685Y702238D01*
X205494Y702954D01*
X205181Y703625D01*
X204756Y704232D01*
X204232Y704756D01*
X203625Y705181D01*
X202954Y705494D01*
X202238Y705685D01*
X201500Y705750D01*
Y712750D01*
X202238Y712815D01*
X202954Y713006D01*
X203625Y713319D01*
X204232Y713744D01*
X204756Y714268D01*
X205181Y714875D01*
X205494Y715546D01*
X205685Y716262D01*
X205750Y717000D01*
X205685Y717738D01*
X205494Y718454D01*
X205181Y719125D01*
X204756Y719732D01*
X204232Y720256D01*
X203625Y720681D01*
X202954Y720994D01*
X202238Y721185D01*
X201500Y721250D01*
Y738454D01*
X201670Y739088D01*
X201750Y740000D01*
X201670Y740912D01*
X201500Y741546D01*
Y747500D01*
G37*
G36*
X191500Y664500D02*X192281Y664568D01*
X193039Y664771D01*
X193750Y665103D01*
X194393Y665553D01*
X194947Y666107D01*
X195397Y666750D01*
X195514Y667000D01*
X201500D01*
Y617956D01*
X201305Y617939D01*
X200632Y617759D01*
X200000Y617464D01*
X199429Y617064D01*
X198936Y616571D01*
X198536Y616000D01*
X198241Y615368D01*
X198061Y614695D01*
X198000Y614000D01*
X198061Y613305D01*
X198241Y612632D01*
X198536Y612000D01*
X198936Y611429D01*
X199429Y610936D01*
X200000Y610536D01*
X200632Y610241D01*
X201305Y610061D01*
X201500Y610044D01*
Y603250D01*
X198750D01*
X198490Y603227D01*
X198237Y603160D01*
X198000Y603049D01*
X197786Y602899D01*
X197601Y602714D01*
X197451Y602500D01*
X197340Y602263D01*
X197273Y602010D01*
X197250Y601750D01*
Y596250D01*
X197273Y595990D01*
X197340Y595737D01*
X197451Y595500D01*
X197601Y595286D01*
X197786Y595101D01*
X198000Y594951D01*
X198237Y594840D01*
X198490Y594773D01*
X198750Y594750D01*
X201500D01*
Y570000D01*
X191500D01*
Y609750D01*
X192238Y609815D01*
X192954Y610006D01*
X193625Y610319D01*
X194232Y610744D01*
X194756Y611268D01*
X195181Y611875D01*
X195494Y612546D01*
X195685Y613262D01*
X195750Y614000D01*
X195685Y614738D01*
X195494Y615454D01*
X195181Y616125D01*
X194756Y616732D01*
X194232Y617256D01*
X193625Y617681D01*
X192954Y617994D01*
X192238Y618185D01*
X191500Y618250D01*
Y624750D01*
X192238Y624815D01*
X192954Y625006D01*
X193625Y625319D01*
X194232Y625744D01*
X194756Y626268D01*
X195181Y626875D01*
X195494Y627546D01*
X195685Y628262D01*
X195750Y629000D01*
X195685Y629738D01*
X195494Y630454D01*
X195181Y631125D01*
X194756Y631732D01*
X194232Y632256D01*
X193625Y632681D01*
X192954Y632994D01*
X192238Y633185D01*
X191500Y633250D01*
Y644500D01*
X192281Y644568D01*
X193039Y644771D01*
X193750Y645103D01*
X194393Y645553D01*
X194947Y646107D01*
X195397Y646750D01*
X195729Y647461D01*
X195932Y648219D01*
X196000Y649000D01*
X195932Y649781D01*
X195729Y650539D01*
X195397Y651250D01*
X194947Y651893D01*
X194393Y652447D01*
X193750Y652897D01*
X193039Y653229D01*
X192281Y653432D01*
X191500Y653500D01*
Y654500D01*
X192281Y654568D01*
X193039Y654771D01*
X193750Y655103D01*
X194393Y655553D01*
X194947Y656107D01*
X195397Y656750D01*
X195729Y657461D01*
X195932Y658219D01*
X196000Y659000D01*
X195932Y659781D01*
X195729Y660539D01*
X195397Y661250D01*
X194947Y661893D01*
X194393Y662447D01*
X193750Y662897D01*
X193039Y663229D01*
X192281Y663432D01*
X191500Y663500D01*
Y664500D01*
G37*
G36*
Y738408D02*X191506Y738430D01*
X191567Y738204D01*
X191953Y737375D01*
X192478Y736625D01*
X193125Y735978D01*
X193875Y735453D01*
X194704Y735067D01*
X195588Y734830D01*
X196500Y734750D01*
X197412Y734830D01*
X198296Y735067D01*
X199125Y735453D01*
X199875Y735978D01*
X200522Y736625D01*
X201047Y737375D01*
X201433Y738204D01*
X201500Y738454D01*
Y721250D01*
X200762Y721185D01*
X200046Y720994D01*
X199375Y720681D01*
X198768Y720256D01*
X198244Y719732D01*
X197819Y719125D01*
X197506Y718454D01*
X197315Y717738D01*
X197250Y717000D01*
X197315Y716262D01*
X197506Y715546D01*
X197819Y714875D01*
X198244Y714268D01*
X198768Y713744D01*
X199375Y713319D01*
X200046Y713006D01*
X200762Y712815D01*
X201500Y712750D01*
Y705750D01*
X200762Y705685D01*
X200046Y705494D01*
X199375Y705181D01*
X198768Y704756D01*
X198244Y704232D01*
X197819Y703625D01*
X197506Y702954D01*
X197315Y702238D01*
X197250Y701500D01*
X197315Y700762D01*
X197506Y700046D01*
X197819Y699375D01*
X198244Y698768D01*
X198768Y698244D01*
X199375Y697819D01*
X200046Y697506D01*
X200762Y697315D01*
X201500Y697250D01*
Y671000D01*
X195514D01*
X195397Y671250D01*
X194947Y671893D01*
X194393Y672447D01*
X193750Y672897D01*
X193039Y673229D01*
X192281Y673432D01*
X191500Y673500D01*
Y674500D01*
X194500D01*
X194760Y674523D01*
X195013Y674590D01*
X195250Y674701D01*
X195464Y674851D01*
X195649Y675036D01*
X195799Y675250D01*
X195910Y675487D01*
X195977Y675740D01*
X196000Y676000D01*
Y682000D01*
X195977Y682260D01*
X195910Y682513D01*
X195799Y682750D01*
X195649Y682964D01*
X195464Y683149D01*
X195250Y683299D01*
X195013Y683410D01*
X194760Y683477D01*
X194500Y683500D01*
X191500D01*
Y738408D01*
G37*
G36*
Y747500D02*X201500D01*
Y741546D01*
X201433Y741796D01*
X201047Y742625D01*
X200522Y743375D01*
X199875Y744022D01*
X199125Y744547D01*
X198296Y744933D01*
X197412Y745170D01*
X196500Y745250D01*
X195588Y745170D01*
X194704Y744933D01*
X193875Y744547D01*
X193125Y744022D01*
X192478Y743375D01*
X191953Y742625D01*
X191567Y741796D01*
X191505Y741566D01*
X191500Y741583D01*
Y747500D01*
G37*
G36*
X186535D02*X191500D01*
Y741583D01*
X191455Y741733D01*
X191272Y742189D01*
X191046Y742626D01*
Y742625D01*
X190984Y742714D01*
X190907Y742791D01*
X190818Y742854D01*
X190719Y742900D01*
X190614Y742928D01*
X190505Y742938D01*
X190397Y742928D01*
X190292Y742900D01*
X190193Y742854D01*
X190104Y742792D01*
X190027Y742715D01*
X189964Y742626D01*
X189918Y742527D01*
X189890Y742422D01*
X189880Y742313D01*
X189890Y742205D01*
X189918Y742100D01*
X189964Y742001D01*
X190135Y741668D01*
X190275Y741321D01*
X190382Y740962D01*
X190455Y740595D01*
X190493Y740223D01*
X190497Y739848D01*
X190465Y739475D01*
X190398Y739107D01*
X190298Y738746D01*
X190164Y738397D01*
X189998Y738061D01*
X189999D01*
X189955Y737962D01*
X189928Y737856D01*
X189921Y737747D01*
X189932Y737639D01*
X189962Y737535D01*
X190010Y737437D01*
X190074Y737349D01*
X190152Y737273D01*
X190242Y737212D01*
X190341Y737168D01*
X190447Y737141D01*
X190556Y737134D01*
X190664Y737145D01*
X190768Y737175D01*
X190866Y737223D01*
X190954Y737287D01*
X191030Y737365D01*
X191091Y737455D01*
X191309Y737896D01*
X191485Y738354D01*
X191500Y738408D01*
Y683500D01*
X188500D01*
X188240Y683477D01*
X187987Y683410D01*
X187750Y683299D01*
X187536Y683149D01*
X187351Y682964D01*
X187201Y682750D01*
X187090Y682513D01*
X187023Y682260D01*
X187000Y682000D01*
Y676000D01*
X187023Y675740D01*
X187090Y675487D01*
X187201Y675250D01*
X187351Y675036D01*
X187536Y674851D01*
X187750Y674701D01*
X187987Y674590D01*
X188240Y674523D01*
X188500Y674500D01*
X191500D01*
Y673500D01*
X190719Y673432D01*
X189961Y673229D01*
X189250Y672897D01*
X188607Y672447D01*
X188053Y671893D01*
X187603Y671250D01*
X187271Y670539D01*
X187068Y669781D01*
X187000Y669000D01*
X187068Y668219D01*
X187271Y667461D01*
X187603Y666750D01*
X188053Y666107D01*
X188607Y665553D01*
X189250Y665103D01*
X189961Y664771D01*
X190719Y664568D01*
X191500Y664500D01*
Y663500D01*
X190719Y663432D01*
X189961Y663229D01*
X189250Y662897D01*
X188607Y662447D01*
X188053Y661893D01*
X187603Y661250D01*
X187271Y660539D01*
X187068Y659781D01*
X187000Y659000D01*
X187068Y658219D01*
X187271Y657461D01*
X187603Y656750D01*
X188053Y656107D01*
X188607Y655553D01*
X189250Y655103D01*
X189961Y654771D01*
X190719Y654568D01*
X191500Y654500D01*
Y653500D01*
X190719Y653432D01*
X189961Y653229D01*
X189250Y652897D01*
X188607Y652447D01*
X188053Y651893D01*
X187603Y651250D01*
X187271Y650539D01*
X187068Y649781D01*
X187000Y649000D01*
X187068Y648219D01*
X187271Y647461D01*
X187603Y646750D01*
X188053Y646107D01*
X188607Y645553D01*
X189250Y645103D01*
X189961Y644771D01*
X190719Y644568D01*
X191500Y644500D01*
Y633250D01*
X190762Y633185D01*
X190046Y632994D01*
X189375Y632681D01*
X188768Y632256D01*
X188244Y631732D01*
X187819Y631125D01*
X187506Y630454D01*
X187315Y629738D01*
X187250Y629000D01*
X187315Y628262D01*
X187506Y627546D01*
X187819Y626875D01*
X188244Y626268D01*
X188768Y625744D01*
X189375Y625319D01*
X190046Y625006D01*
X190762Y624815D01*
X191500Y624750D01*
Y618250D01*
X190762Y618185D01*
X190046Y617994D01*
X189375Y617681D01*
X188768Y617256D01*
X188244Y616732D01*
X187819Y616125D01*
X187506Y615454D01*
X187315Y614738D01*
X187250Y614000D01*
X187315Y613262D01*
X187506Y612546D01*
X187819Y611875D01*
X188244Y611268D01*
X188768Y610744D01*
X189375Y610319D01*
X190046Y610006D01*
X190762Y609815D01*
X191500Y609750D01*
Y570000D01*
X186535D01*
Y734756D01*
X186791Y734759D01*
X187280Y734809D01*
X187762Y734904D01*
X188232Y735045D01*
X188688Y735228D01*
X189124Y735454D01*
X189125D01*
X189214Y735517D01*
X189291Y735594D01*
X189354Y735683D01*
X189400Y735782D01*
X189428Y735887D01*
X189437Y735996D01*
X189427Y736104D01*
X189399Y736209D01*
X189353Y736308D01*
X189290Y736397D01*
X189213Y736474D01*
X189124Y736537D01*
X189025Y736583D01*
X188920Y736611D01*
X188811Y736620D01*
X188703Y736610D01*
X188598Y736582D01*
X188499Y736536D01*
X188167Y736365D01*
X187820Y736225D01*
X187461Y736118D01*
X187094Y736045D01*
X186722Y736007D01*
X186535Y736005D01*
Y743997D01*
X186652Y743998D01*
X187025Y743966D01*
X187393Y743899D01*
X187754Y743799D01*
X188103Y743665D01*
X188439Y743499D01*
Y743500D01*
X188538Y743456D01*
X188644Y743429D01*
X188753Y743422D01*
X188861Y743433D01*
X188965Y743463D01*
X189063Y743511D01*
X189151Y743575D01*
X189227Y743653D01*
X189288Y743743D01*
X189332Y743842D01*
X189359Y743948D01*
X189366Y744057D01*
X189355Y744165D01*
X189325Y744269D01*
X189277Y744367D01*
X189213Y744455D01*
X189135Y744531D01*
X189045Y744592D01*
X188604Y744810D01*
X188146Y744986D01*
X187672Y745118D01*
X187189Y745205D01*
X186699Y745247D01*
X186535Y745245D01*
Y747500D01*
G37*
G36*
X182186D02*X186535D01*
Y745245D01*
X186208Y745242D01*
X185719Y745192D01*
X185237Y745097D01*
X184767Y744956D01*
X184311Y744773D01*
X183874Y744547D01*
X183875D01*
X183786Y744485D01*
X183709Y744408D01*
X183646Y744319D01*
X183600Y744220D01*
X183572Y744115D01*
X183562Y744006D01*
X183572Y743898D01*
X183600Y743793D01*
X183646Y743694D01*
X183708Y743605D01*
X183785Y743528D01*
X183874Y743465D01*
X183973Y743419D01*
X184078Y743391D01*
X184187Y743381D01*
X184295Y743391D01*
X184400Y743419D01*
X184499Y743465D01*
X184832Y743636D01*
X185179Y743776D01*
X185538Y743883D01*
X185905Y743956D01*
X186277Y743994D01*
X186535Y743997D01*
Y736005D01*
X186347Y736003D01*
X185974Y736035D01*
X185606Y736102D01*
X185245Y736202D01*
X184896Y736336D01*
X184560Y736502D01*
Y736501D01*
X184461Y736545D01*
X184355Y736572D01*
X184246Y736579D01*
X184138Y736568D01*
X184034Y736538D01*
X183936Y736490D01*
X183848Y736426D01*
X183772Y736348D01*
X183711Y736258D01*
X183667Y736159D01*
X183640Y736053D01*
X183633Y735944D01*
X183644Y735836D01*
X183674Y735732D01*
X183722Y735634D01*
X183786Y735546D01*
X183864Y735470D01*
X183954Y735409D01*
X184395Y735191D01*
X184853Y735015D01*
X185327Y734883D01*
X185810Y734796D01*
X186300Y734754D01*
X186535Y734756D01*
Y570000D01*
X182186D01*
Y737145D01*
X182280Y737101D01*
X182385Y737073D01*
X182494Y737063D01*
X182602Y737073D01*
X182707Y737101D01*
X182806Y737147D01*
X182895Y737209D01*
X182972Y737286D01*
X183035Y737375D01*
X183081Y737474D01*
X183109Y737579D01*
X183119Y737688D01*
X183109Y737796D01*
X183081Y737901D01*
X183035Y738000D01*
X182864Y738333D01*
X182724Y738680D01*
X182617Y739039D01*
X182544Y739406D01*
X182506Y739778D01*
X182502Y740153D01*
X182534Y740526D01*
X182601Y740894D01*
X182701Y741255D01*
X182835Y741604D01*
X183001Y741940D01*
X183000D01*
X183044Y742039D01*
X183071Y742145D01*
X183078Y742254D01*
X183067Y742362D01*
X183037Y742466D01*
X182989Y742564D01*
X182925Y742652D01*
X182847Y742728D01*
X182757Y742789D01*
X182658Y742833D01*
X182552Y742860D01*
X182443Y742867D01*
X182335Y742856D01*
X182231Y742826D01*
X182186Y742804D01*
Y747500D01*
G37*
G36*
X176500D02*X182186D01*
Y742804D01*
X182133Y742778D01*
X182045Y742714D01*
X181969Y742636D01*
X181908Y742546D01*
X181690Y742105D01*
X181514Y741647D01*
X181382Y741173D01*
X181295Y740690D01*
X181253Y740200D01*
X181258Y739709D01*
X181308Y739220D01*
X181403Y738738D01*
X181544Y738268D01*
X181727Y737812D01*
X181953Y737375D01*
Y737376D01*
X182015Y737287D01*
X182092Y737210D01*
X182181Y737147D01*
X182186Y737145D01*
Y570000D01*
X176500D01*
Y615250D01*
X179250D01*
X179510Y615273D01*
X179763Y615340D01*
X180000Y615451D01*
X180214Y615601D01*
X180399Y615786D01*
X180549Y616000D01*
X180660Y616237D01*
X180727Y616490D01*
X180750Y616750D01*
Y622250D01*
X180727Y622510D01*
X180660Y622763D01*
X180549Y623000D01*
X180399Y623214D01*
X180214Y623399D01*
X180000Y623549D01*
X179763Y623660D01*
X179510Y623727D01*
X179250Y623750D01*
X176500D01*
Y655250D01*
X177238Y655315D01*
X177954Y655506D01*
X178625Y655819D01*
X179232Y656244D01*
X179756Y656768D01*
X180181Y657375D01*
X180494Y658046D01*
X180685Y658762D01*
X180750Y659500D01*
X180685Y660238D01*
X180494Y660954D01*
X180181Y661625D01*
X179756Y662232D01*
X179232Y662756D01*
X178625Y663181D01*
X177954Y663494D01*
X177238Y663685D01*
X176500Y663750D01*
Y747500D01*
G37*
G36*
X161500D02*X176500D01*
Y663750D01*
X175762Y663685D01*
X175046Y663494D01*
X174375Y663181D01*
X173768Y662756D01*
X173244Y662232D01*
X172819Y661625D01*
X172506Y660954D01*
X172315Y660238D01*
X172250Y659500D01*
X172315Y658762D01*
X172506Y658046D01*
X172819Y657375D01*
X173244Y656768D01*
X173768Y656244D01*
X174375Y655819D01*
X175046Y655506D01*
X175762Y655315D01*
X176500Y655250D01*
Y623750D01*
X173750D01*
X173490Y623727D01*
X173237Y623660D01*
X173000Y623549D01*
X172786Y623399D01*
X172601Y623214D01*
X172451Y623000D01*
X172340Y622763D01*
X172273Y622510D01*
X172250Y622250D01*
Y616750D01*
X172273Y616490D01*
X172340Y616237D01*
X172451Y616000D01*
X172601Y615786D01*
X172786Y615601D01*
X173000Y615451D01*
X173237Y615340D01*
X173490Y615273D01*
X173750Y615250D01*
X176500D01*
Y570000D01*
X161500D01*
Y594750D01*
X162238Y594815D01*
X162954Y595006D01*
X163625Y595319D01*
X164232Y595744D01*
X164756Y596268D01*
X165181Y596875D01*
X165494Y597546D01*
X165685Y598262D01*
X165750Y599000D01*
X165685Y599738D01*
X165494Y600454D01*
X165181Y601125D01*
X164756Y601732D01*
X164232Y602256D01*
X163625Y602681D01*
X162954Y602994D01*
X162238Y603185D01*
X161500Y603250D01*
Y624750D01*
X164250D01*
X164510Y624773D01*
X164763Y624840D01*
X165000Y624951D01*
X165214Y625101D01*
X165399Y625286D01*
X165549Y625500D01*
X165660Y625737D01*
X165727Y625990D01*
X165750Y626250D01*
Y631750D01*
X165727Y632010D01*
X165660Y632263D01*
X165549Y632500D01*
X165399Y632714D01*
X165214Y632899D01*
X165000Y633049D01*
X164763Y633160D01*
X164510Y633227D01*
X164250Y633250D01*
X161500D01*
Y664750D01*
X162238Y664815D01*
X162954Y665006D01*
X163625Y665319D01*
X164232Y665744D01*
X164756Y666268D01*
X165181Y666875D01*
X165494Y667546D01*
X165685Y668262D01*
X165750Y669000D01*
X165685Y669738D01*
X165494Y670454D01*
X165181Y671125D01*
X164756Y671732D01*
X164232Y672256D01*
X163625Y672681D01*
X162954Y672994D01*
X162238Y673185D01*
X161500Y673250D01*
Y697250D01*
X164250D01*
X164510Y697273D01*
X164763Y697340D01*
X165000Y697451D01*
X165214Y697601D01*
X165399Y697786D01*
X165549Y698000D01*
X165660Y698237D01*
X165727Y698490D01*
X165750Y698750D01*
Y704250D01*
X165727Y704510D01*
X165660Y704763D01*
X165549Y705000D01*
X165399Y705214D01*
X165214Y705399D01*
X165000Y705549D01*
X164763Y705660D01*
X164510Y705727D01*
X164250Y705750D01*
X161500D01*
Y712750D01*
X164250D01*
X164510Y712773D01*
X164763Y712840D01*
X165000Y712951D01*
X165214Y713101D01*
X165399Y713286D01*
X165549Y713500D01*
X165660Y713737D01*
X165727Y713990D01*
X165750Y714250D01*
Y719750D01*
X165727Y720010D01*
X165660Y720263D01*
X165549Y720500D01*
X165399Y720714D01*
X165214Y720899D01*
X165000Y721049D01*
X164763Y721160D01*
X164510Y721227D01*
X164250Y721250D01*
X161500D01*
Y747500D01*
G37*
G36*
X152000Y570000D02*Y747500D01*
X161500D01*
Y721250D01*
X158750D01*
X158490Y721227D01*
X158237Y721160D01*
X158000Y721049D01*
X157786Y720899D01*
X157601Y720714D01*
X157451Y720500D01*
X157340Y720263D01*
X157273Y720010D01*
X157250Y719750D01*
Y714250D01*
X157273Y713990D01*
X157340Y713737D01*
X157451Y713500D01*
X157601Y713286D01*
X157786Y713101D01*
X158000Y712951D01*
X158237Y712840D01*
X158490Y712773D01*
X158750Y712750D01*
X161500D01*
Y705750D01*
X158750D01*
X158490Y705727D01*
X158237Y705660D01*
X158000Y705549D01*
X157786Y705399D01*
X157601Y705214D01*
X157451Y705000D01*
X157340Y704763D01*
X157273Y704510D01*
X157250Y704250D01*
Y698750D01*
X157273Y698490D01*
X157340Y698237D01*
X157451Y698000D01*
X157601Y697786D01*
X157786Y697601D01*
X158000Y697451D01*
X158237Y697340D01*
X158490Y697273D01*
X158750Y697250D01*
X161500D01*
Y673250D01*
X160762Y673185D01*
X160046Y672994D01*
X159375Y672681D01*
X158768Y672256D01*
X158244Y671732D01*
X157819Y671125D01*
X157506Y670454D01*
X157315Y669738D01*
X157250Y669000D01*
X157315Y668262D01*
X157506Y667546D01*
X157819Y666875D01*
X158244Y666268D01*
X158768Y665744D01*
X159375Y665319D01*
X160046Y665006D01*
X160762Y664815D01*
X161500Y664750D01*
Y633250D01*
X158750D01*
X158490Y633227D01*
X158237Y633160D01*
X158000Y633049D01*
X157786Y632899D01*
X157601Y632714D01*
X157451Y632500D01*
X157340Y632263D01*
X157273Y632010D01*
X157250Y631750D01*
Y626250D01*
X157273Y625990D01*
X157340Y625737D01*
X157451Y625500D01*
X157601Y625286D01*
X157786Y625101D01*
X158000Y624951D01*
X158237Y624840D01*
X158490Y624773D01*
X158750Y624750D01*
X161500D01*
Y603250D01*
X160762Y603185D01*
X160046Y602994D01*
X159375Y602681D01*
X158768Y602256D01*
X158244Y601732D01*
X157819Y601125D01*
X157506Y600454D01*
X157315Y599738D01*
X157250Y599000D01*
X157315Y598262D01*
X157506Y597546D01*
X157819Y596875D01*
X158244Y596268D01*
X158768Y595744D01*
X159375Y595319D01*
X160046Y595006D01*
X160762Y594815D01*
X161500Y594750D01*
Y570000D01*
X159500D01*
Y574365D01*
X159564Y574429D01*
X159964Y575000D01*
X160259Y575632D01*
X160439Y576305D01*
X160500Y577000D01*
X160439Y577695D01*
X160259Y578368D01*
X159964Y579000D01*
X159564Y579571D01*
X159071Y580064D01*
X158500Y580464D01*
X157868Y580759D01*
X157195Y580939D01*
X156500Y581000D01*
X155805Y580939D01*
X155132Y580759D01*
X154500Y580464D01*
X153929Y580064D01*
X153436Y579571D01*
X153036Y579000D01*
X152741Y578368D01*
X152561Y577695D01*
X152500Y577000D01*
X152561Y576305D01*
X152741Y575632D01*
X153036Y575000D01*
X153436Y574429D01*
X153500Y574365D01*
Y570000D01*
X152000D01*
G37*
G54D12*X990500Y476000D02*X164500D01*
G54D14*X686500Y480500D02*X692500D01*
X694000Y482000D01*
X344500Y596000D02*X352000D01*
X344500Y579000D02*X352000D01*
G54D11*X413000Y597000D02*X423000Y587000D01*
X496500D01*
G54D14*X670000Y495000D02*Y499500D01*
X938500Y517500D02*Y525000D01*
G54D11*X668000Y644500D02*Y643500D01*
G54D13*X606500Y673500D02*X638000D01*
X668000Y643500D01*
G54D12*X707000Y614000D02*X697000D01*
X689000Y606000D01*
G54D13*X721000Y630500D02*Y642000D01*
G54D14*X734500Y660500D02*X748500D01*
G54D11*X369500Y645500D02*X404000D01*
X413000Y636500D01*
Y597000D01*
X642500Y600000D02*X651000Y591500D01*
X648500Y585500D02*X712500D01*
X516500Y607000D02*X603500D01*
X496500Y587000D02*X516500Y607000D01*
X632500Y601500D02*X648500Y585500D01*
G54D12*X689000Y606000D02*Y600000D01*
G54D11*X730500Y538500D02*X721000Y529000D01*
G54D14*X694000Y496000D02*Y482000D01*
Y496000D02*X692500Y497500D01*
X686500D02*X692500D01*
X634500Y548000D02*X636000Y546500D01*
X634500Y562000D02*Y548000D01*
X636000Y546500D02*X643500D01*
X636000Y563500D02*X634500Y562000D01*
X636000Y563500D02*X643500D01*
X638500Y499500D02*Y495000D01*
X641000Y492500D01*
X667500D01*
X670000Y495000D01*
G54D13*X510500Y732500D02*X584000D01*
X603500Y713000D01*
G54D11*X508000Y618500D02*X539000D01*
X556500Y636000D01*
X866000Y519000D02*X856000Y509000D01*
X833500D01*
Y519000D02*Y529000D01*
X866000Y539000D02*Y519000D01*
G54D12*X876500Y528500D02*X866000Y539000D01*
X941000Y528500D02*X876500D01*
G54D14*X937000Y516000D02*X938500Y517500D01*
X921500D02*X923000Y516000D01*
X937000D01*
X921500Y517500D02*Y525000D01*
G54D13*X606500Y536000D02*X598000D01*
X592500Y530500D01*
G54D12*X271000Y534000D02*X262000D01*
G54D11*X508000Y618500D02*X491500Y602000D01*
X231500Y629000D02*X241500D01*
X526500Y561000D02*Y556000D01*
Y561000D02*X541500Y576000D01*
X526500Y596000D02*X582500D01*
X557000Y618000D02*X556500Y618500D01*
G54D12*X285000Y541000D02*X292000Y534000D01*
G54D13*X262000D02*X250000D01*
X606500Y616500D02*Y624000D01*
G54D11*X216500Y659000D02*X206500Y669000D01*
X191500D01*
X221500Y659000D02*X216500D01*
G54D12*X231500Y599000D02*X217000D01*
X274500Y530500D02*X271000Y534000D01*
X285000Y710000D02*Y541000D01*
X314000Y694000D02*Y680000D01*
X324500Y669500D01*
X351000D01*
X356500Y664000D01*
G54D13*X262000Y534000D02*X230500D01*
X217500Y547000D01*
G54D12*X274500Y504000D02*Y530500D01*
X290500Y488000D02*X322000D01*
X334000Y500000D01*
Y523500D01*
X356500Y546000D01*
G54D14*X415000Y485500D02*Y479500D01*
Y485500D02*X413500Y487000D01*
X399500D02*X413500D01*
X399500D02*X398000Y485500D01*
Y479500D01*
G54D13*X250000Y534000D02*X204000Y488000D01*
G54D12*X156500Y577000D02*Y484000D01*
X164500Y476000D02*X156500Y484000D01*
G54D13*X197471Y547000D02*X184078Y533607D01*
Y532422D01*
G54D14*X160500Y508500D02*X166500D01*
X160500Y525500D02*X166500D01*
G54D11*X582500Y596000D02*X592500Y586000D01*
G54D12*X591500Y651000D02*X584000Y643500D01*
X566500D01*
G54D13*X596000Y624000D02*X576500Y643500D01*
G54D11*X592500Y581000D02*X597500Y576000D01*
X606500D01*
G54D14*X211000Y559500D02*X212500Y561000D01*
X195500D02*X197000Y559500D01*
X211000D01*
X195500Y561000D02*Y568500D01*
X212500Y561000D02*Y568500D01*
G54D11*X752500Y585500D02*X712000D01*
G54D13*X681000Y495500D02*Y482500D01*
X833500Y529000D02*X829000D01*
X818500Y518500D02*Y476000D01*
G54D14*X824500Y487500D02*X838500D01*
X824500D02*X823000Y486000D01*
Y480000D01*
X763000Y601500D02*X764500Y603000D01*
Y610500D01*
X747500Y603000D02*X749000Y601500D01*
X763000D01*
X747500Y603000D02*Y610500D01*
G54D11*X592500Y586000D02*Y581000D01*
G54D12*X591500Y695500D02*Y651000D01*
X536500Y653500D02*X516500Y673500D01*
X556500Y653500D02*X536500D01*
X566500Y643500D02*X556500Y653500D01*
G54D14*X705000Y684500D02*Y692000D01*
X722000Y684500D02*Y692000D01*
G54D13*X668000Y624000D02*X596000D01*
G54D14*X637000Y611500D02*X638500Y613000D01*
X621500D02*X623000Y611500D01*
X637000D01*
X621500Y613000D02*Y620500D01*
X638500Y613000D02*Y620500D01*
X472000Y484500D02*X473500Y486000D01*
X456500D02*X458000Y484500D01*
X472000D01*
X456500Y486000D02*Y493500D01*
X473500Y486000D02*Y493500D01*
G54D11*X288000Y758000D02*X297000Y749000D01*
G54D12*X296500Y721500D02*X285000Y710000D01*
G54D11*X334500Y736500D02*X296500D01*
G54D12*X176500Y764000D02*X247500D01*
X565000Y722000D02*X591500Y695500D01*
Y696000D02*X787000D01*
G54D14*X782500Y683500D02*X784000Y685000D01*
Y692500D01*
X767000Y685000D02*X768500Y683500D01*
X767000Y685000D02*Y692500D01*
X768500Y683500D02*X782500D01*
X610500D02*X612000Y685000D01*
X595000D02*X596500Y683500D01*
X610500D01*
X595000Y685000D02*Y692500D01*
X612000Y685000D02*Y692500D01*
G54D11*X297000Y749000D02*X314000D01*
G54D14*X813500Y744000D02*X812000Y742500D01*
G54D13*X478500Y764500D02*X510500Y732500D01*
G54D12*X432000Y736500D02*X445500Y750000D01*
X474000D01*
X502000Y722000D01*
X565000D01*
G54D13*X393000Y764500D02*X478500D01*
G54D14*X382500Y773500D02*X384000Y775000D01*
X358500Y773500D02*X382500D01*
G54D12*X270000Y786500D02*X958500D01*
G54D14*X696500Y775000D02*X698000Y773500D01*
X723500Y775000D02*Y782500D01*
X696500Y775000D02*Y782500D01*
X722000Y773500D02*X723500Y775000D01*
X698000Y773500D02*X722000D01*
X925500Y774500D02*Y782000D01*
X924000Y773000D02*X925500Y774500D01*
X900000Y773000D02*X924000D01*
X898500Y774500D02*Y782000D01*
G54D11*X288000Y761500D02*Y758000D01*
G54D14*X417500Y752000D02*X419000Y753500D01*
X403500Y752000D02*X417500D01*
X419000Y753500D02*Y761000D01*
X402000Y753500D02*X403500Y752000D01*
X402000Y753500D02*Y761000D01*
G54D12*X247500Y764000D02*X270000Y786500D01*
G54D11*X281500Y768500D02*X303000D01*
G54D14*X357000Y775000D02*X358500Y773500D01*
X384000Y775000D02*Y782500D01*
X357000Y775000D02*Y782500D01*
X813500Y744000D02*X827500D01*
X812000Y742500D02*Y735000D01*
X898500Y774500D02*X900000Y773000D01*
G54D11*X323500Y699500D02*X314000Y709000D01*
X406500Y706500D02*X552000D01*
X541000Y699500D02*X323500D01*
X334500Y736500D02*X364500Y706500D01*
X408000D01*
G54D13*X296500Y721500D02*X331500D01*
G54D11*X432000Y688500D02*X357000D01*
G54D13*X217500Y547000D02*X197471D01*
G54D12*X290500Y488000D02*X274500Y504000D01*
G54D14*X166500Y508500D02*X168000Y510000D01*
Y524000D02*Y510000D01*
G54D12*X610500Y497000D02*X331500D01*
G54D11*X633500Y502500D02*X690500D01*
G54D13*X576500Y516000D02*Y497000D01*
X606500Y516000D02*Y497000D01*
X592500Y530500D02*Y497000D01*
G54D14*X168000Y524000D02*X166500Y525500D01*
G54D11*X241500Y629000D02*X271500Y599000D01*
G54D12*X217000D02*X202000Y614000D01*
X356500Y664000D02*Y546000D01*
G54D14*X289000Y577500D02*X295000D01*
X296500Y579000D01*
Y593000D02*Y579000D01*
Y593000D02*X295000Y594500D01*
X289000D02*X295000D01*
X343000Y580500D02*X344500Y579000D01*
Y596000D02*X343000Y594500D01*
Y580500D01*
G54D12*X1016000Y576500D02*X1026000D01*
X1031000Y581500D01*
X1021000Y594000D02*X1016000Y589000D01*
X988500Y656500D02*Y489000D01*
X1003500Y669000D02*X1021000Y651500D01*
X986000Y669000D02*X1003500D01*
X1016000Y589000D02*X1006000D01*
X998500Y581500D01*
G54D13*X981500Y581000D02*Y566500D01*
G54D12*X1031000Y581500D02*Y754000D01*
X1021000Y764000D01*
Y651500D02*Y594000D01*
X998500Y484000D02*Y581500D01*
Y484000D02*X990500Y476000D01*
G54D14*X963000Y555000D02*Y562500D01*
X961500Y553500D02*X963000Y555000D01*
X947500Y553500D02*X961500D01*
G54D11*X843500Y736500D02*X851000Y729000D01*
X835500Y629000D02*X856000D01*
G54D13*X832000Y649000D02*X845500Y635500D01*
X832000Y691500D02*Y649000D01*
G54D11*X991000Y740000D02*X883000D01*
X879500Y721500D02*X982500D01*
X851000Y729000D02*X872000D01*
X879500Y721500D01*
X982500D02*X1001000Y740000D01*
X883000D02*X879500Y736500D01*
G54D13*X845500Y635500D02*X900500D01*
G54D12*X958500Y786500D02*X981000Y764000D01*
X1021000D01*
G54D13*X971500Y567000D02*X971000Y566500D01*
G54D12*X945000D02*X943500Y565000D01*
X971000Y566500D02*X945000D01*
X941000Y528500D02*X943500Y531000D01*
G54D14*X963000Y571000D02*X964500Y572500D01*
X949000Y571000D02*X963000D01*
X964500Y572500D02*Y580000D01*
X947500Y572500D02*X949000Y571000D01*
X947500Y572500D02*Y580000D01*
G54D12*X910500Y605000D02*X943500Y572000D01*
Y531000D02*Y572000D01*
G54D13*X906500Y629500D02*Y619500D01*
G54D11*X856000Y499000D02*Y501500D01*
G54D12*X896000Y541500D02*Y529000D01*
G54D14*X840000Y486000D02*Y480000D01*
Y486000D02*X838500Y487500D01*
G54D11*X855500Y629000D02*X881000D01*
G54D12*X846500Y605000D02*X910500D01*
G54D13*X900500Y635500D02*X906500Y629500D01*
G54D11*X856000Y501500D02*X863500Y509000D01*
G54D12*X838500Y597000D02*X846500Y605000D01*
G54D11*X879000Y579500D02*X896000Y596500D01*
G54D14*X867000Y593500D02*Y601000D01*
X882500Y592000D02*X884000Y593500D01*
X867000D02*X868500Y592000D01*
X882500D01*
X884000Y593500D02*Y601000D01*
G54D11*X881000Y629000D02*X896000Y614000D01*
X863500Y509000D02*X913500D01*
G54D13*X829000Y529000D02*X818500Y518500D01*
G54D12*X647500Y534000D02*X610500Y497000D01*
G54D11*X741000Y630500D02*Y635000D01*
X744500Y638500D01*
G54D12*X697000Y624000D02*Y614000D01*
G54D13*X603500Y713000D02*X811000D01*
G54D12*X606500Y616500D02*X647500Y575500D01*
Y534000D01*
X767000Y614000D02*X706000D01*
G54D11*X603500Y607000D02*X609000Y601500D01*
G54D12*X697000Y623000D02*Y696000D01*
X790500Y482000D02*Y543500D01*
X796000Y549000D02*X803500D01*
X790500Y543500D02*X796000Y549000D01*
G54D11*X806000Y588500D02*X786500Y608000D01*
G54D12*X778500Y584000D02*Y602500D01*
G54D11*X744500Y638500D02*X804500D01*
G54D13*X810500Y713000D02*X832000Y691500D01*
G54D12*X787000Y696000D02*X809000Y674000D01*
X799000D01*
X761000D02*Y695500D01*
G54D11*X808500Y634500D02*Y630500D01*
X804500Y638500D02*X808500Y634500D01*
X813000Y606500D02*X835500Y629000D01*
G54D12*X809000Y597000D02*X838500D01*
X766000Y614000D02*X792000D01*
X809000Y597000D01*
X731000Y630500D02*Y600000D01*
X778500Y602500D02*X767000Y614000D01*
G54D13*X768500Y584000D02*Y577000D01*
G54D11*X772000Y538500D02*X730500D01*
X752500Y585500D02*X765500Y598500D01*
G54D13*X768500Y577000D02*X796500Y549000D01*
G54D11*X923000Y495500D02*Y481500D01*
X818500Y579500D02*X879000D01*
X833000Y588500D02*X806000D01*
G54D13*X906500Y619500D02*X942500Y583500D01*
X979000D01*
X981500Y581000D01*
G54D14*X720500Y683000D02*X722000Y684500D01*
X705000D02*X706500Y683000D01*
X720500D01*
X782500Y700500D02*X784000Y702000D01*
X767000D02*X768500Y700500D01*
X782500D01*
X767000Y702000D02*Y709500D01*
G54D13*X779000Y656500D02*Y674000D01*
G54D14*X784000Y702000D02*Y709500D01*
X813500Y733500D02*X812000Y735000D01*
X813500Y733500D02*X827500D01*
G54D13*X721000Y642000D02*X727000Y648000D01*
G54D14*X733000Y659000D02*Y651500D01*
X734500Y660500D02*X733000Y659000D01*
G54D13*X727000Y648000D02*X770500D01*
X779000Y656500D01*
G54D14*X750000Y659000D02*Y651500D01*
Y659000D02*X748500Y660500D01*
X401500Y482970D02*X403480D01*
X405163Y484950D02*X406153D01*
X405658Y480990D02*Y484950D01*
X404668Y481980D02*X405658Y480990D01*
X407342D02*X409322D01*
X407342D02*Y482970D01*
X407837Y482475D01*
X408827D01*
X409322Y482970D01*
Y484455D01*
X408827Y484950D02*X409322Y484455D01*
X407837Y484950D02*X408827D01*
X407342Y484455D02*X407837Y484950D01*
X410511Y480990D02*Y483960D01*
X411501Y484950D01*
X412491Y483960D01*
Y480990D02*Y483960D01*
X163970Y520020D02*Y522000D01*
X165950Y517347D02*Y518337D01*
X161990Y517842D02*X165950D01*
X162980Y518832D02*X161990Y517842D01*
Y514178D02*Y516158D01*
X163970D01*
X163475Y515663D01*
Y514673D02*Y515663D01*
Y514673D02*X163970Y514178D01*
X165455D01*
X165950Y514673D02*X165455Y514178D01*
X165950Y514673D02*Y515663D01*
X165455Y516158D02*X165950Y515663D01*
X161990Y512989D02*X164960D01*
X165950Y511999D01*
X164960Y511009D01*
X161990D02*X164960D01*
X200980Y562990D02*X201475Y563485D01*
X199495Y562990D02*X200980D01*
X199000Y563485D02*X199495Y562990D01*
X199000Y563485D02*Y566455D01*
X199495Y566950D01*
X200980D01*
X201475Y566455D01*
Y565465D02*Y566455D01*
X200980Y564970D02*X201475Y565465D01*
X199990Y564970D02*X200980D01*
X202663Y562990D02*Y566950D01*
Y562990D02*Y563485D01*
X205138Y565960D01*
Y562990D02*Y566950D01*
X206822Y562990D02*Y566950D01*
X208307Y562990D02*X208802Y563485D01*
Y566455D01*
X208307Y566950D02*X208802Y566455D01*
X206327Y566950D02*X208307D01*
X206327Y562990D02*X208307D01*
X461980Y487990D02*X462475Y488485D01*
X460495Y487990D02*X461980D01*
X460000Y488485D02*X460495Y487990D01*
X460000Y488485D02*Y491455D01*
X460495Y491950D01*
X461980D01*
X462475Y491455D01*
Y490465D02*Y491455D01*
X461980Y489970D02*X462475Y490465D01*
X460990Y489970D02*X461980D01*
X463663Y487990D02*Y491950D01*
Y487990D02*Y488485D01*
X466138Y490960D01*
Y487990D02*Y491950D01*
X467822Y487990D02*Y491950D01*
X469307Y487990D02*X469802Y488485D01*
Y491455D01*
X469307Y491950D02*X469802Y491455D01*
X467327Y491950D02*X469307D01*
X467327Y487990D02*X469307D01*
X292470Y589020D02*Y591000D01*
X294450Y586347D02*Y587337D01*
X290490Y586842D02*X294450D01*
X291480Y587832D02*X290490Y586842D01*
Y583178D02*Y585158D01*
X292470D01*
X291975Y584663D01*
Y583673D02*Y584663D01*
Y583673D02*X292470Y583178D01*
X293955D01*
X294450Y583673D02*X293955Y583178D01*
X294450Y583673D02*Y584663D01*
X293955Y585158D02*X294450Y584663D01*
X290490Y581989D02*X293460D01*
X294450Y580999D01*
X293460Y580009D01*
X290490D02*X293460D01*
X346490Y590520D02*X346985Y590025D01*
X346490Y590520D02*Y592005D01*
X346985Y592500D02*X346490Y592005D01*
X346985Y592500D02*X349955D01*
X350450Y592005D01*
Y590520D02*Y592005D01*
Y590520D02*X349955Y590025D01*
X348965D02*X349955D01*
X348470Y590520D02*X348965Y590025D01*
X348470Y590520D02*Y591510D01*
X346490Y588837D02*X350450D01*
X346490D02*X346985D01*
X349460Y586362D01*
X346490D02*X350450D01*
X346490Y584678D02*X350450D01*
X346490Y583193D02*X346985Y582698D01*
X349955D01*
X350450Y583193D02*X349955Y582698D01*
X350450Y583193D02*Y585173D01*
X346490Y583193D02*Y585173D01*
X826500Y483470D02*X828480D01*
X830163Y485450D02*X831153D01*
X830658Y481490D02*Y485450D01*
X829668Y482480D02*X830658Y481490D01*
X832342D02*X834322D01*
X832342D02*Y483470D01*
X832837Y482975D01*
X833827D01*
X834322Y483470D01*
Y484955D01*
X833827Y485450D02*X834322Y484955D01*
X832837Y485450D02*X833827D01*
X832342Y484955D02*X832837Y485450D01*
X835511Y481490D02*Y484460D01*
X836501Y485450D01*
X837491Y484460D01*
Y481490D02*Y484460D01*
X952980Y574490D02*X953475Y574985D01*
X951495Y574490D02*X952980D01*
X951000Y574985D02*X951495Y574490D01*
X951000Y574985D02*Y577955D01*
X951495Y578450D01*
X952980D01*
X953475Y577955D01*
Y576965D02*Y577955D01*
X952980Y576470D02*X953475Y576965D01*
X951990Y576470D02*X952980D01*
X954663Y574490D02*Y578450D01*
Y574490D02*Y574985D01*
X957138Y577460D01*
Y574490D02*Y578450D01*
X958822Y574490D02*Y578450D01*
X960307Y574490D02*X960802Y574985D01*
Y577955D01*
X960307Y578450D02*X960802Y577955D01*
X958327Y578450D02*X960307D01*
X958327Y574490D02*X960307D01*
X872480Y595490D02*X872975Y595985D01*
X870995Y595490D02*X872480D01*
X870500Y595985D02*X870995Y595490D01*
X870500Y595985D02*Y598955D01*
X870995Y599450D01*
X872480D01*
X872975Y598955D01*
Y597965D02*Y598955D01*
X872480Y597470D02*X872975Y597965D01*
X871490Y597470D02*X872480D01*
X874163Y595490D02*Y599450D01*
Y595490D02*Y595985D01*
X876638Y598460D01*
Y595490D02*Y599450D01*
X878322Y595490D02*Y599450D01*
X879807Y595490D02*X880302Y595985D01*
Y598955D01*
X879807Y599450D02*X880302Y598955D01*
X877827Y599450D02*X879807D01*
X877827Y595490D02*X879807D01*
X951980Y556990D02*X952475Y557485D01*
X950495Y556990D02*X951980D01*
X950000Y557485D02*X950495Y556990D01*
X950000Y557485D02*Y560455D01*
X950495Y560950D01*
X951980D01*
X952475Y560455D01*
Y559465D02*Y560455D01*
X951980Y558970D02*X952475Y559465D01*
X950990Y558970D02*X951980D01*
X953663Y556990D02*Y560950D01*
Y556990D02*Y557485D01*
X956138Y559960D01*
Y556990D02*Y560950D01*
X957822Y556990D02*Y560950D01*
X959307Y556990D02*X959802Y557485D01*
Y560455D01*
X959307Y560950D02*X959802Y560455D01*
X957327Y560950D02*X959307D01*
X957327Y556990D02*X959307D01*
X926980Y519490D02*X927475Y519985D01*
X925495Y519490D02*X926980D01*
X925000Y519985D02*X925495Y519490D01*
X925000Y519985D02*Y522955D01*
X925495Y523450D01*
X926980D01*
X927475Y522955D01*
Y521965D02*Y522955D01*
X926980Y521470D02*X927475Y521965D01*
X925990Y521470D02*X926980D01*
X928663Y519490D02*Y523450D01*
Y519490D02*Y519985D01*
X931138Y522460D01*
Y519490D02*Y523450D01*
X932822Y519490D02*Y523450D01*
X934307Y519490D02*X934802Y519985D01*
Y522955D01*
X934307Y523450D02*X934802Y522955D01*
X932327Y523450D02*X934307D01*
X932327Y519490D02*X934307D01*
X407480Y755490D02*X407975Y755985D01*
X405995Y755490D02*X407480D01*
X405500Y755985D02*X405995Y755490D01*
X405500Y755985D02*Y758955D01*
X405995Y759450D01*
X407480D01*
X407975Y758955D01*
Y757965D02*Y758955D01*
X407480Y757470D02*X407975Y757965D01*
X406490Y757470D02*X407480D01*
X409163Y755490D02*Y759450D01*
Y755490D02*Y755985D01*
X411638Y758460D01*
Y755490D02*Y759450D01*
X413322Y755490D02*Y759450D01*
X414807Y755490D02*X415302Y755985D01*
Y758955D01*
X414807Y759450D02*X415302Y758955D01*
X412827Y759450D02*X414807D01*
X412827Y755490D02*X414807D01*
X360495Y781450D02*X361980D01*
X360000Y780955D02*X360495Y781450D01*
X360000Y777985D02*Y780955D01*
Y777985D02*X360495Y777490D01*
X361980D01*
X363168D02*Y781450D01*
Y779965D02*X363663Y779470D01*
X364653D01*
X365148Y779965D01*
Y781450D01*
X367822Y779470D02*X368317Y779965D01*
X366832Y779470D02*X367822D01*
X366337Y779965D02*X366832Y779470D01*
X366337Y779965D02*Y780955D01*
X366832Y781450D01*
X368317Y779470D02*Y780955D01*
X368812Y781450D01*
X366832D02*X367822D01*
X368317Y780955D01*
X370496Y781450D02*X371981D01*
X372476Y780955D01*
X371981Y780460D02*X372476Y780955D01*
X370496Y780460D02*X371981D01*
X370001Y779965D02*X370496Y780460D01*
X370001Y779965D02*X370496Y779470D01*
X371981D01*
X372476Y779965D01*
X370001Y780955D02*X370496Y781450D01*
X374160D02*X375645D01*
X376140Y780955D01*
X375645Y780460D02*X376140Y780955D01*
X374160Y780460D02*X375645D01*
X373665Y779965D02*X374160Y780460D01*
X373665Y779965D02*X374160Y779470D01*
X375645D01*
X376140Y779965D01*
X373665Y780955D02*X374160Y781450D01*
X377329Y778480D02*Y778975D01*
Y779965D02*Y781450D01*
X378815D02*X380300D01*
X380795Y780955D01*
X380300Y780460D02*X380795Y780955D01*
X378815Y780460D02*X380300D01*
X378320Y779965D02*X378815Y780460D01*
X378320Y779965D02*X378815Y779470D01*
X380300D01*
X380795Y779965D01*
X378320Y780955D02*X378815Y781450D01*
X699995D02*X701480D01*
X699500Y780955D02*X699995Y781450D01*
X699500Y777985D02*Y780955D01*
Y777985D02*X699995Y777490D01*
X701480D01*
X702668D02*Y781450D01*
Y779965D02*X703163Y779470D01*
X704153D01*
X704648Y779965D01*
Y781450D01*
X707322Y779470D02*X707817Y779965D01*
X706332Y779470D02*X707322D01*
X705837Y779965D02*X706332Y779470D01*
X705837Y779965D02*Y780955D01*
X706332Y781450D01*
X707817Y779470D02*Y780955D01*
X708312Y781450D01*
X706332D02*X707322D01*
X707817Y780955D01*
X709996Y781450D02*X711481D01*
X711976Y780955D01*
X711481Y780460D02*X711976Y780955D01*
X709996Y780460D02*X711481D01*
X709501Y779965D02*X709996Y780460D01*
X709501Y779965D02*X709996Y779470D01*
X711481D01*
X711976Y779965D01*
X709501Y780955D02*X709996Y781450D01*
X713660D02*X715145D01*
X715640Y780955D01*
X715145Y780460D02*X715640Y780955D01*
X713660Y780460D02*X715145D01*
X713165Y779965D02*X713660Y780460D01*
X713165Y779965D02*X713660Y779470D01*
X715145D01*
X715640Y779965D01*
X713165Y780955D02*X713660Y781450D01*
X716829Y778480D02*Y778975D01*
Y779965D02*Y781450D01*
X718315D02*X719800D01*
X720295Y780955D01*
X719800Y780460D02*X720295Y780955D01*
X718315Y780460D02*X719800D01*
X717820Y779965D02*X718315Y780460D01*
X717820Y779965D02*X718315Y779470D01*
X719800D01*
X720295Y779965D01*
X717820Y780955D02*X718315Y781450D01*
X901995Y780950D02*X903480D01*
X901500Y780455D02*X901995Y780950D01*
X901500Y777485D02*Y780455D01*
Y777485D02*X901995Y776990D01*
X903480D01*
X904668D02*Y780950D01*
Y779465D02*X905163Y778970D01*
X906153D01*
X906648Y779465D01*
Y780950D01*
X909322Y778970D02*X909817Y779465D01*
X908332Y778970D02*X909322D01*
X907837Y779465D02*X908332Y778970D01*
X907837Y779465D02*Y780455D01*
X908332Y780950D01*
X909817Y778970D02*Y780455D01*
X910312Y780950D01*
X908332D02*X909322D01*
X909817Y780455D01*
X911996Y780950D02*X913481D01*
X913976Y780455D01*
X913481Y779960D02*X913976Y780455D01*
X911996Y779960D02*X913481D01*
X911501Y779465D02*X911996Y779960D01*
X911501Y779465D02*X911996Y778970D01*
X913481D01*
X913976Y779465D01*
X911501Y780455D02*X911996Y780950D01*
X915660D02*X917145D01*
X917640Y780455D01*
X917145Y779960D02*X917640Y780455D01*
X915660Y779960D02*X917145D01*
X915165Y779465D02*X915660Y779960D01*
X915165Y779465D02*X915660Y778970D01*
X917145D01*
X917640Y779465D01*
X915165Y780455D02*X915660Y780950D01*
X918829Y777980D02*Y778475D01*
Y779465D02*Y780950D01*
X920315D02*X921800D01*
X922295Y780455D01*
X921800Y779960D02*X922295Y780455D01*
X920315Y779960D02*X921800D01*
X919820Y779465D02*X920315Y779960D01*
X919820Y779465D02*X920315Y778970D01*
X921800D01*
X922295Y779465D01*
X919820Y780455D02*X920315Y780950D01*
X752980Y604990D02*X753475Y605485D01*
X751495Y604990D02*X752980D01*
X751000Y605485D02*X751495Y604990D01*
X751000Y605485D02*Y608455D01*
X751495Y608950D01*
X752980D01*
X753475Y608455D01*
Y607465D02*Y608455D01*
X752980Y606970D02*X753475Y607465D01*
X751990Y606970D02*X752980D01*
X754663Y604990D02*Y608950D01*
Y604990D02*Y605485D01*
X757138Y607960D01*
Y604990D02*Y608950D01*
X758822Y604990D02*Y608950D01*
X760307Y604990D02*X760802Y605485D01*
Y608455D01*
X760307Y608950D02*X760802Y608455D01*
X758327Y608950D02*X760307D01*
X758327Y604990D02*X760307D01*
X817480Y736490D02*X817975Y736985D01*
X815995Y736490D02*X817480D01*
X815500Y736985D02*X815995Y736490D01*
X815500Y736985D02*Y739955D01*
X815995Y740450D01*
X817480D01*
X817975Y739955D01*
Y738965D02*Y739955D01*
X817480Y738470D02*X817975Y738965D01*
X816490Y738470D02*X817480D01*
X819163Y736490D02*Y740450D01*
Y736490D02*Y736985D01*
X821638Y739460D01*
Y736490D02*Y740450D01*
X823322Y736490D02*Y740450D01*
X824807Y736490D02*X825302Y736985D01*
Y739955D01*
X824807Y740450D02*X825302Y739955D01*
X822827Y740450D02*X824807D01*
X822827Y736490D02*X824807D01*
X772480Y703990D02*X772975Y704485D01*
X770995Y703990D02*X772480D01*
X770500Y704485D02*X770995Y703990D01*
X770500Y704485D02*Y707455D01*
X770995Y707950D01*
X772480D01*
X772975Y707455D01*
Y706465D02*Y707455D01*
X772480Y705970D02*X772975Y706465D01*
X771490Y705970D02*X772480D01*
X774163Y703990D02*Y707950D01*
Y703990D02*Y704485D01*
X776638Y706960D01*
Y703990D02*Y707950D01*
X778322Y703990D02*Y707950D01*
X779807Y703990D02*X780302Y704485D01*
Y707455D01*
X779807Y707950D02*X780302Y707455D01*
X777827Y707950D02*X779807D01*
X777827Y703990D02*X779807D01*
X737000Y655970D02*X738980D01*
X737990Y654980D02*Y656960D01*
X740168Y653990D02*X742148D01*
X740168D02*Y655970D01*
X740663Y655475D01*
X741653D01*
X742148Y655970D01*
Y657455D01*
X741653Y657950D02*X742148Y657455D01*
X740663Y657950D02*X741653D01*
X740168Y657455D02*X740663Y657950D01*
X743337Y653990D02*Y656960D01*
X744327Y657950D01*
X745317Y656960D01*
Y653990D02*Y656960D01*
X772480Y686990D02*X772975Y687485D01*
X770995Y686990D02*X772480D01*
X770500Y687485D02*X770995Y686990D01*
X770500Y687485D02*Y690455D01*
X770995Y690950D01*
X772480D01*
X772975Y690455D01*
Y689465D02*Y690455D01*
X772480Y688970D02*X772975Y689465D01*
X771490Y688970D02*X772480D01*
X774163Y686990D02*Y690950D01*
Y686990D02*Y687485D01*
X776638Y689960D01*
Y686990D02*Y690950D01*
X778322Y686990D02*Y690950D01*
X779807Y686990D02*X780302Y687485D01*
Y690455D01*
X779807Y690950D02*X780302Y690455D01*
X777827Y690950D02*X779807D01*
X777827Y686990D02*X779807D01*
X600480D02*X600975Y687485D01*
X598995Y686990D02*X600480D01*
X598500Y687485D02*X598995Y686990D01*
X598500Y687485D02*Y690455D01*
X598995Y690950D01*
X600480D01*
X600975Y690455D01*
Y689465D02*Y690455D01*
X600480Y688970D02*X600975Y689465D01*
X599490Y688970D02*X600480D01*
X602163Y686990D02*Y690950D01*
Y686990D02*Y687485D01*
X604638Y689960D01*
Y686990D02*Y690950D01*
X606322Y686990D02*Y690950D01*
X607807Y686990D02*X608302Y687485D01*
Y690455D01*
X607807Y690950D02*X608302Y690455D01*
X605827Y690950D02*X607807D01*
X605827Y686990D02*X607807D01*
X710480Y686490D02*X710975Y686985D01*
X708995Y686490D02*X710480D01*
X708500Y686985D02*X708995Y686490D01*
X708500Y686985D02*Y689955D01*
X708995Y690450D01*
X710480D01*
X710975Y689955D01*
Y688965D02*Y689955D01*
X710480Y688470D02*X710975Y688965D01*
X709490Y688470D02*X710480D01*
X712163Y686490D02*Y690450D01*
Y686490D02*Y686985D01*
X714638Y689460D01*
Y686490D02*Y690450D01*
X716322Y686490D02*Y690450D01*
X717807Y686490D02*X718302Y686985D01*
Y689955D01*
X717807Y690450D02*X718302Y689955D01*
X715827Y690450D02*X717807D01*
X715827Y686490D02*X717807D01*
X626980Y614990D02*X627475Y615485D01*
X625495Y614990D02*X626980D01*
X625000Y615485D02*X625495Y614990D01*
X625000Y615485D02*Y618455D01*
X625495Y618950D01*
X626980D01*
X627475Y618455D01*
Y617465D02*Y618455D01*
X626980Y616970D02*X627475Y617465D01*
X625990Y616970D02*X626980D01*
X628663Y614990D02*Y618950D01*
Y614990D02*Y615485D01*
X631138Y617960D01*
Y614990D02*Y618950D01*
X632822Y614990D02*Y618950D01*
X634307Y614990D02*X634802Y615485D01*
Y618455D01*
X634307Y618950D02*X634802Y618455D01*
X632327Y618950D02*X634307D01*
X632327Y614990D02*X634307D01*
X689970Y492520D02*Y494500D01*
X688980Y493510D02*X690960D01*
X691950Y489847D02*Y490837D01*
X687990Y490342D02*X691950D01*
X688980Y491332D02*X687990Y490342D01*
Y486678D02*Y488658D01*
X689970D01*
X689475Y488163D01*
Y487173D02*Y488163D01*
Y487173D02*X689970Y486678D01*
X691455D01*
X691950Y487173D02*X691455Y486678D01*
X691950Y487173D02*Y488163D01*
X691455Y488658D02*X691950Y488163D01*
X687990Y485489D02*X690960D01*
X691950Y484499D01*
X690960Y483509D01*
X687990D02*X690960D01*
X637990Y558020D02*X638485Y557525D01*
X637990Y558020D02*Y559505D01*
X638485Y560000D02*X637990Y559505D01*
X638485Y560000D02*X641455D01*
X641950Y559505D01*
Y558020D02*Y559505D01*
Y558020D02*X641455Y557525D01*
X640465D02*X641455D01*
X639970Y558020D02*X640465Y557525D01*
X639970Y558020D02*Y559010D01*
X637990Y556337D02*X641950D01*
X637990D02*X638485D01*
X640960Y553862D01*
X637990D02*X641950D01*
X637990Y552178D02*X641950D01*
X637990Y550693D02*X638485Y550198D01*
X641455D01*
X641950Y550693D02*X641455Y550198D01*
X641950Y550693D02*Y552673D01*
X637990Y550693D02*Y552673D01*
X641495Y495490D02*Y499450D01*
X641000Y495490D02*X642980D01*
X643475Y495985D01*
Y496975D01*
X642980Y497470D02*X643475Y496975D01*
X641495Y497470D02*X642980D01*
X644663D02*Y498955D01*
X645158Y499450D01*
X646148D01*
X646643Y498955D01*
Y497470D02*Y498955D01*
X647832Y495490D02*Y498955D01*
X648327Y499450D01*
X649813D02*X651298D01*
X651793Y498955D01*
X651298Y498460D02*X651793Y498955D01*
X649813Y498460D02*X651298D01*
X649318Y497965D02*X649813Y498460D01*
X649318Y497965D02*X649813Y497470D01*
X651298D01*
X651793Y497965D01*
X649318Y498955D02*X649813Y499450D01*
X653477D02*X654962D01*
X652982Y498955D02*X653477Y499450D01*
X652982Y497965D02*Y498955D01*
Y497965D02*X653477Y497470D01*
X654467D01*
X654962Y497965D01*
X652982Y498460D02*X654962D01*
Y497965D02*Y498460D01*
X656151Y499450D02*X658131D01*
X659320Y495490D02*X661300D01*
X660310D02*Y499450D01*
X662489Y495490D02*X664469D01*
X663479D02*Y499450D01*
X665658Y495490D02*Y499450D01*
X667638D01*
G54D11*G36*
X228750Y601750D02*Y596250D01*
X234250D01*
Y601750D01*
X228750D01*
G37*
G36*
X198750D02*Y596250D01*
X204250D01*
Y601750D01*
X198750D01*
G37*
G54D15*X161500Y599000D03*
G54D16*X191500Y669000D03*
X221500D03*
G54D15*X161500D03*
G54D16*X191500Y659000D03*
Y649000D03*
X221500D03*
Y659000D03*
G54D15*X176500Y659500D03*
G54D11*G36*
X228750Y631750D02*Y626250D01*
X234250D01*
Y631750D01*
X228750D01*
G37*
G54D15*X191500Y629000D03*
G54D11*G36*
X173750Y622250D02*Y616750D01*
X179250D01*
Y622250D01*
X173750D01*
G37*
G36*
X158750Y631750D02*Y626250D01*
X164250D01*
Y631750D01*
X158750D01*
G37*
G36*
X228750Y616750D02*Y611250D01*
X234250D01*
Y616750D01*
X228750D01*
G37*
G54D15*X191500Y614000D03*
G54D11*G36*
X266500Y639500D02*Y633500D01*
X272500D01*
Y639500D01*
X266500D01*
G37*
G36*
X251000Y678000D02*Y672000D01*
X257000D01*
Y678000D01*
X251000D01*
G37*
G36*
X188500Y682000D02*Y676000D01*
X194500D01*
Y682000D01*
X188500D01*
G37*
G54D16*X221500Y679000D03*
G54D11*G36*
X211250Y704250D02*Y698750D01*
X216750D01*
Y704250D01*
X211250D01*
G37*
G54D15*X254000Y701500D03*
X201500D03*
G54D11*G36*
X236000Y720000D02*Y714000D01*
X242000D01*
Y720000D01*
X236000D01*
G37*
G36*
X293750Y684250D02*Y678750D01*
X299250D01*
Y684250D01*
X293750D01*
G37*
G36*
X328750D02*Y678750D01*
X334250D01*
Y684250D01*
X328750D01*
G37*
G54D15*X296500Y721500D03*
X331500D03*
G54D11*G36*
X293750Y739250D02*Y733750D01*
X299250D01*
Y739250D01*
X293750D01*
G37*
G36*
X311250Y711750D02*Y706250D01*
X316750D01*
Y711750D01*
X311250D01*
G37*
G54D15*X314000Y749000D03*
G54D17*Y694000D03*
G54D18*X196500Y740000D03*
G54D11*G36*
X158750Y719750D02*Y714250D01*
X164250D01*
Y719750D01*
X158750D01*
G37*
G54D15*X201500Y717000D03*
G54D11*G36*
X158750Y704250D02*Y698750D01*
X164250D01*
Y704250D01*
X158750D01*
G37*
G36*
X311750Y490750D02*Y485250D01*
X317250D01*
Y490750D01*
X311750D01*
G37*
G36*
Y526750D02*Y521250D01*
X317250D01*
Y526750D01*
X311750D01*
G37*
G36*
Y509250D02*Y503750D01*
X317250D01*
Y509250D01*
X311750D01*
G37*
G36*
Y546750D02*Y541250D01*
X317250D01*
Y546750D01*
X311750D01*
G37*
G54D15*X344500Y488000D03*
X354500Y524000D03*
Y506500D03*
Y544000D03*
X271500Y599000D03*
G54D11*G36*
X242500Y557000D02*Y551000D01*
X248500D01*
Y557000D01*
X242500D01*
G37*
G36*
X259000Y537000D02*Y531000D01*
X265000D01*
Y537000D01*
X259000D01*
G37*
G54D16*X262000Y524000D03*
Y514000D03*
G54D19*X214000Y534000D03*
G54D11*G36*
X180141Y537544D02*Y529670D01*
X188015D01*
Y537544D01*
X180141D01*
G37*
G54D16*X262000Y504000D03*
G54D11*G36*
X201250Y490750D02*Y485250D01*
X206750D01*
Y490750D01*
X201250D01*
G37*
G54D15*X234000Y488000D03*
G54D16*X292000Y504000D03*
Y514000D03*
Y524000D03*
Y534000D03*
G54D18*X991000Y740000D03*
G54D20*X981000Y764000D03*
G54D18*X1001000Y740000D03*
G54D20*X1021000Y764000D03*
G54D16*X1016000Y669000D03*
Y679000D03*
Y689000D03*
Y699000D03*
G54D11*G36*
X918250Y691750D02*Y686250D01*
X923750D01*
Y691750D01*
X918250D01*
G37*
G36*
X908250Y676750D02*Y671250D01*
X913750D01*
Y676750D01*
X908250D01*
G37*
G36*
X918250Y631750D02*Y626250D01*
X923750D01*
Y631750D01*
X918250D01*
G37*
G36*
X908250Y646750D02*Y641250D01*
X913750D01*
Y646750D01*
X908250D01*
G37*
G36*
X918250Y661750D02*Y656250D01*
X923750D01*
Y661750D01*
X918250D01*
G37*
G36*
X907000Y708000D02*Y700000D01*
X915000D01*
Y708000D01*
X907000D01*
G37*
G54D15*X951000Y689000D03*
Y674000D03*
Y644000D03*
Y659000D03*
G54D18*Y704000D03*
G54D11*G36*
X963000Y647000D02*Y641000D01*
X969000D01*
Y647000D01*
X963000D01*
G37*
G36*
X873000Y695000D02*Y689000D01*
X879000D01*
Y695000D01*
X873000D01*
G37*
G54D16*X886000Y692000D03*
X896000D03*
G54D11*G36*
X853250Y676750D02*Y671250D01*
X858750D01*
Y676750D01*
X853250D01*
G37*
G54D15*X896000Y674000D03*
G54D21*X851000Y786500D03*
X871000D03*
G54D11*G36*
X856500Y741000D02*Y732000D01*
X865500D01*
Y741000D01*
X856500D01*
G37*
G54D21*X842500Y736500D03*
X879500D03*
X842500Y721500D03*
X861000D03*
X879500D03*
G54D16*X803500Y539000D03*
Y529000D03*
Y519000D03*
Y509000D03*
G54D11*G36*
X800500Y572000D02*Y566000D01*
X806500D01*
Y572000D01*
X800500D01*
G37*
G54D16*X803500Y559000D03*
Y549000D03*
Y499000D03*
G54D11*G36*
X775500Y522000D02*Y516000D01*
X781500D01*
Y522000D01*
X775500D01*
G37*
G36*
Y552000D02*Y546000D01*
X781500D01*
Y552000D01*
X775500D01*
G37*
G36*
X775250Y633750D02*Y627250D01*
X781750D01*
Y633750D01*
X775250D01*
G37*
G54D17*X788500Y630500D03*
X798500D03*
X808500D03*
G54D11*G36*
X717750Y633750D02*Y627250D01*
X724250D01*
Y633750D01*
X717750D01*
G37*
G54D17*X731000Y630500D03*
X741000D03*
G54D11*G36*
X776000Y677000D02*Y671000D01*
X782000D01*
Y677000D01*
X776000D01*
G37*
G36*
X718250Y676750D02*Y671250D01*
X723750D01*
Y676750D01*
X718250D01*
G37*
G54D15*X761000Y674000D03*
G54D16*X789000D03*
X799000D03*
X809000D03*
G54D11*G36*
X718250Y661750D02*Y656250D01*
X723750D01*
Y661750D01*
X718250D01*
G37*
G54D15*X761000Y659000D03*
Y569000D03*
G54D11*G36*
X765500Y587000D02*Y581000D01*
X771500D01*
Y587000D01*
X765500D01*
G37*
G54D16*X778500Y584000D03*
G54D11*G36*
X737400Y603600D02*Y596400D01*
X744600D01*
Y603600D01*
X737400D01*
G37*
G54D22*X731000Y600000D03*
X721000D03*
G54D11*G36*
X718250Y571750D02*Y566250D01*
X723750D01*
Y571750D01*
X718250D01*
G37*
G36*
Y551750D02*Y546250D01*
X723750D01*
Y551750D01*
X718250D01*
G37*
G54D15*X761000Y549000D03*
G54D11*G36*
X718250Y531750D02*Y526250D01*
X723750D01*
Y531750D01*
X718250D01*
G37*
G54D15*X761000Y529000D03*
G54D11*G36*
X718250Y511750D02*Y506250D01*
X723750D01*
Y511750D01*
X718250D01*
G37*
G54D15*X761000Y509000D03*
G54D11*G36*
X573500Y589000D02*Y583000D01*
X579500D01*
Y589000D01*
X573500D01*
G37*
G54D16*X576500Y576000D03*
Y566000D03*
G54D15*X556500Y516000D03*
G54D11*G36*
X553750Y558750D02*Y553250D01*
X559250D01*
Y558750D01*
X553750D01*
G37*
G54D16*X576500Y556000D03*
Y546000D03*
Y536000D03*
G54D15*X541500D03*
X556500Y618500D03*
G54D11*G36*
X553500Y589000D02*Y583000D01*
X559500D01*
Y589000D01*
X553500D01*
G37*
G54D15*X556500Y653500D03*
Y636000D03*
G54D11*G36*
X573500Y676500D02*Y670500D01*
X579500D01*
Y676500D01*
X573500D01*
G37*
G54D15*X556500Y673500D03*
G54D16*X576500Y663500D03*
Y653500D03*
Y643500D03*
Y526000D03*
Y516000D03*
X606500D03*
Y526000D03*
Y536000D03*
G54D15*X629000D03*
G54D16*X606500Y546000D03*
Y556000D03*
Y566000D03*
Y576000D03*
Y586000D03*
G54D11*G36*
X626250Y578750D02*Y573250D01*
X631750D01*
Y578750D01*
X626250D01*
G37*
G54D21*X668000Y524000D03*
G54D11*G36*
X626250Y646250D02*Y640750D01*
X631750D01*
Y646250D01*
X626250D01*
G37*
G54D16*X606500Y643500D03*
Y653500D03*
Y663500D03*
Y673500D03*
G54D11*G36*
X603750Y619250D02*Y613750D01*
X609250D01*
Y619250D01*
X603750D01*
G37*
G54D15*X629000Y683500D03*
G54D11*G36*
X665250Y686250D02*Y680750D01*
X670750D01*
Y686250D01*
X665250D01*
G37*
G54D15*X646500Y683500D03*
G54D11*G36*
X663500Y628500D02*Y619500D01*
X672500D01*
Y628500D01*
X663500D01*
G37*
G54D15*X668000Y643500D03*
G54D11*G36*
X643750Y646250D02*Y640750D01*
X649250D01*
Y646250D01*
X643750D01*
G37*
G54D15*X646500Y616500D03*
G54D11*G36*
X686000Y603000D02*Y597000D01*
X692000D01*
Y603000D01*
X686000D01*
G37*
G54D16*X699000Y600000D03*
X833500Y499000D03*
G54D11*G36*
X853250Y501750D02*Y496250D01*
X858750D01*
Y501750D01*
X853250D01*
G37*
G54D15*X896000Y499000D03*
G54D16*X833500Y509000D03*
G54D11*G36*
X853000Y542000D02*Y536000D01*
X859000D01*
Y542000D01*
X853000D01*
G37*
G54D16*X866000Y539000D03*
G54D11*G36*
X883000Y544500D02*Y538500D01*
X889000D01*
Y544500D01*
X883000D01*
G37*
G36*
X853250Y521750D02*Y516250D01*
X858750D01*
Y521750D01*
X853250D01*
G37*
G54D16*X833500Y519000D03*
Y529000D03*
Y539000D03*
Y549000D03*
Y559000D03*
Y569000D03*
G54D15*X896000Y519000D03*
G54D11*G36*
X910500Y512000D02*Y506000D01*
X916500D01*
Y512000D01*
X910500D01*
G37*
G36*
X853250Y661750D02*Y656250D01*
X858750D01*
Y661750D01*
X853250D01*
G37*
G36*
Y599250D02*Y593750D01*
X858750D01*
Y599250D01*
X853250D01*
G37*
G36*
Y631750D02*Y626250D01*
X858750D01*
Y631750D01*
X853250D01*
G37*
G54D15*X896000Y659000D03*
Y596500D03*
Y629000D03*
Y644000D03*
G54D11*G36*
X852750Y617250D02*Y610750D01*
X859250D01*
Y617250D01*
X852750D01*
G37*
G54D17*X896000Y614000D03*
G54D11*G36*
X863250Y646750D02*Y641250D01*
X868750D01*
Y646750D01*
X863250D01*
G37*
G36*
X930500Y568000D02*Y562000D01*
X936500D01*
Y568000D01*
X930500D01*
G37*
G54D16*X943500Y565000D03*
G54D11*G36*
X853250Y571750D02*Y566250D01*
X858750D01*
Y571750D01*
X853250D01*
G37*
G54D15*X896000Y569000D03*
G54D11*G36*
X949900Y540100D02*Y532900D01*
X957100D01*
Y540100D01*
X949900D01*
G37*
G54D22*X943500Y536500D03*
X933500D03*
G54D16*X896000Y541500D03*
X906000D03*
G54D11*G36*
X963250Y616750D02*Y611250D01*
X968750D01*
Y616750D01*
X963250D01*
G37*
G36*
Y631750D02*Y626250D01*
X968750D01*
Y631750D01*
X963250D01*
G37*
G54D15*X951000Y629000D03*
X1006000Y614000D03*
G54D11*G36*
X983000Y702000D02*Y696000D01*
X989000D01*
Y702000D01*
X983000D01*
G37*
G54D16*X986000Y689000D03*
Y679000D03*
Y669000D03*
G54D15*X1006000Y629000D03*
G54D11*G36*
X1013000Y579500D02*Y573500D01*
X1019000D01*
Y579500D01*
X1013000D01*
G37*
G54D16*X1016000Y566500D03*
Y556500D03*
Y546500D03*
Y536500D03*
Y526500D03*
Y516500D03*
Y506500D03*
Y496500D03*
G54D11*G36*
X968000Y579500D02*Y573500D01*
X974000D01*
Y579500D01*
X968000D01*
G37*
G54D16*X971000Y566500D03*
Y556500D03*
G54D11*G36*
X968000Y600000D02*Y594000D01*
X974000D01*
Y600000D01*
X968000D01*
G37*
G54D16*X971000Y546500D03*
Y536500D03*
Y526500D03*
Y516500D03*
Y506500D03*
Y496500D03*
G54D11*G36*
X527000Y772000D02*Y765000D01*
X534000D01*
Y772000D01*
X527000D01*
G37*
G54D18*X186500Y740000D03*
G54D20*X216500Y764000D03*
X176500D03*
G54D15*X296500Y776500D03*
G54D21*X440500Y786500D03*
X460500D03*
G54D11*G36*
X310750Y657250D02*Y650750D01*
X317250D01*
Y657250D01*
X310750D01*
G37*
G36*
X352900Y657600D02*Y650400D01*
X360100D01*
Y657600D01*
X352900D01*
G37*
G54D22*X346500Y654000D03*
X336500D03*
G54D11*G36*
X429500Y658500D02*Y652500D01*
X435500D01*
Y658500D01*
X429500D01*
G37*
G54D16*X432500Y645500D03*
Y635500D03*
G54D11*G36*
X513750Y656250D02*Y650750D01*
X519250D01*
Y656250D01*
X513750D01*
G37*
G36*
X523750Y638750D02*Y633250D01*
X529250D01*
Y638750D01*
X523750D01*
G37*
G36*
X513750Y676250D02*Y670750D01*
X519250D01*
Y676250D01*
X513750D01*
G37*
G36*
X398536Y553437D02*Y545563D01*
X406410D01*
Y553437D01*
X398536D01*
G37*
G54D19*X461528Y549500D03*
G54D11*G36*
X488500Y605000D02*Y599000D01*
X494500D01*
Y605000D01*
X488500D01*
G37*
G36*
X513750Y621250D02*Y615750D01*
X519250D01*
Y621250D01*
X513750D01*
G37*
G36*
X523750Y598750D02*Y593250D01*
X529250D01*
Y598750D01*
X523750D01*
G37*
G54D15*X526500Y556000D03*
G54D11*G36*
X538750Y578750D02*Y573250D01*
X544250D01*
Y578750D01*
X538750D01*
G37*
G54D23*X520500Y768500D03*
G54D11*G36*
X446000Y741000D02*Y732000D01*
X455000D01*
Y741000D01*
X446000D01*
G37*
G54D21*X432000Y736500D03*
X469000D03*
X432000Y721500D03*
X450500D03*
X469000D03*
G54D16*X202000Y614000D03*
G54D24*X303000Y768500D03*
X281500D03*
X288000Y761500D03*
G54D16*X156500Y577000D03*
G54D24*X642500Y600000D03*
X651000Y591500D03*
X357000Y688500D03*
X432000D03*
G54D16*X393000Y764500D03*
G54D24*X369500Y645500D03*
X541000Y699500D03*
X609000Y601500D03*
X632500D03*
X552000Y706500D03*
X923000Y481500D03*
Y495500D03*
G54D16*X988500Y537000D03*
Y656500D03*
Y489000D03*
X981500Y566500D03*
X998500Y547000D03*
G54D24*X772000Y538500D03*
X786500Y608000D03*
G54D16*X790500Y482500D03*
G54D24*X818500Y579500D03*
X765500Y598500D03*
X813000Y606500D03*
G54D16*X681000Y482500D03*
Y495500D03*
G54D24*X690500Y502500D03*
X712500Y585500D03*
X833000Y588500D03*
X633500Y502500D03*
G54D26*G54D27*G54D26*G54D27*G54D26*G54D28*G54D27*G54D26*G54D28*G54D26*G54D29*G54D26*G54D28*G54D27*G54D30*G54D27*G54D26*G54D27*G54D29*G54D31*G54D29*G54D31*G54D27*G54D26*G54D28*G54D26*G54D32*G54D27*G54D28*G54D26*G54D28*G54D26*G54D33*G54D26*G54D27*G54D26*G54D27*G54D26*G54D28*G54D26*G54D27*G54D26*G54D27*G54D26*G54D27*G54D26*G54D34*G54D26*G54D27*G54D26*G54D34*G54D26*G54D27*G54D26*G54D27*G54D26*G54D28*G54D26*G54D27*G54D26*G54D28*G54D26*G54D33*G54D28*G54D26*G54D27*G54D26*G54D28*G54D27*G54D35*G54D29*G54D31*G54D26*G54D32*G54D26*G54D33*G54D28*G54D26*G54D36*G54D28*G54D26*G54D27*G54D32*G54D13*G54D11*G54D13*G54D11*G54D13*G54D11*G54D13*G54D11*G54D13*G54D11*G54D13*G54D11*M02*
