G04 start of page 2 for group 0 idx 0 *
G04 Title: (unknown), component *
G04 Creator: pcb 20110918 *
G04 CreationDate: Thu Feb 28 16:04:39 2013 UTC *
G04 For: fosse *
G04 Format: Gerber/RS-274X *
G04 PCB-Dimensions: 893500 333500 *
G04 PCB-Coordinate-Origin: lower left *
%MOIN*%
%FSLAX25Y25*%
%LNTOP*%
%ADD34C,0.0472*%
%ADD33C,0.0860*%
%ADD32C,0.0380*%
%ADD31C,0.0420*%
%ADD30C,0.0520*%
%ADD29C,0.0280*%
%ADD28C,0.0460*%
%ADD27R,0.0590X0.0590*%
%ADD26R,0.0807X0.0807*%
%ADD25C,0.0720*%
%ADD24C,0.2000*%
%ADD23C,0.0800*%
%ADD22C,0.0650*%
%ADD21C,0.0787*%
%ADD20C,0.0900*%
%ADD19C,0.0700*%
%ADD18C,0.0600*%
%ADD17C,0.0550*%
%ADD16C,0.0001*%
%ADD15C,0.0070*%
%ADD14C,0.0100*%
%ADD13C,0.0350*%
%ADD12C,0.0400*%
%ADD11C,0.0200*%
G54D11*X16000Y166000D02*X21500D01*
X31000Y156500D01*
X16000Y157500D02*Y165500D01*
G54D12*X46000Y186000D02*X52000D01*
G54D11*X52500Y196000D02*X56000Y199500D01*
X31000Y196000D02*X52500D01*
X16000Y206000D02*X46000D01*
X56000Y254000D02*Y251000D01*
X51000Y277000D02*Y259000D01*
X56000Y254000D01*
X16000Y165500D02*X15500Y166000D01*
G54D12*X17000Y119000D02*X71000D01*
X21000Y99500D02*X64000D01*
X51000Y109500D02*Y119000D01*
X80020Y100520D02*X89000Y109500D01*
X71000Y119000D02*X75000Y123000D01*
Y163000D01*
X52000Y186000D02*X75000Y163000D01*
G54D11*X126383Y263500D02*X126587Y263296D01*
X114000Y276500D02*Y283000D01*
X108500Y270500D02*X115500Y263500D01*
X120000Y270500D02*X114000Y276500D01*
X115500Y263500D02*X126383D01*
X126587Y278060D02*X135560D01*
X151000Y293500D01*
X126587Y308965D02*X115465D01*
X108500Y302000D01*
Y270500D01*
X117500Y286500D02*X126217D01*
X114000Y283000D02*X117500Y286500D01*
X126217D02*X126587Y286130D01*
X142500Y318000D02*Y298500D01*
X136771Y323729D02*X142500Y318000D01*
X126587Y300894D02*X131394D01*
X126587Y323729D02*X136771D01*
X131394Y300894D02*X136000Y305500D01*
X151000Y293500D02*Y313500D01*
X137000Y270500D02*X120000D01*
X56000Y251000D02*X68500Y238500D01*
X56000Y199500D02*Y238500D01*
X75020Y253980D02*X56000Y254000D01*
G54D12*X67000Y181000D02*Y202000D01*
G54D11*X92500Y196000D02*X108500Y212000D01*
G54D12*X67000Y202000D02*X71000Y206000D01*
G54D11*X108500Y238500D02*Y212000D01*
X76000Y196000D02*X92500D01*
G54D12*X76000Y206000D02*X71000D01*
G54D11*X196000Y179500D02*X174000D01*
X213500Y172000D02*X148500D01*
X174000Y179500D02*X168500Y185000D01*
G54D13*X219000Y163500D02*X235000Y179500D01*
G54D11*X213500Y172000D02*X224000Y182500D01*
X201000Y184500D02*X196000Y179500D01*
X168500Y218500D02*X143000Y244000D01*
X169000Y190500D02*X151000Y208500D01*
Y228500D02*Y208500D01*
X143000Y244000D02*Y264500D01*
X157500Y305500D02*X168000D01*
X168500Y185000D02*Y191000D01*
G54D13*X273500Y179000D02*X287000Y192500D01*
G54D11*X262000Y194500D02*X286000Y218500D01*
X289000Y232500D02*X273000D01*
X252000Y211500D02*X273000Y232500D01*
G54D13*X287500Y182000D02*X287000Y182500D01*
G54D11*X191000Y205000D02*X211500Y225500D01*
Y262000D02*Y225500D01*
X201000Y191000D02*Y184500D01*
X191000Y205000D02*Y191000D01*
X252000Y162500D02*Y211500D01*
G54D13*X235000Y179500D02*Y289000D01*
G54D11*X168000Y305500D02*X211500Y262000D01*
X186000Y218500D02*X168500D01*
X403000D02*X286000D01*
X435000Y225000D02*X375000D01*
X314000Y241500D02*X298000Y225500D01*
X289000Y232500D02*X296000Y239500D01*
G54D13*X316028Y181972D02*X316000Y182000D01*
G54D11*X381000Y200500D02*X371000Y190500D01*
X381000Y200500D02*X431000D01*
X375000Y225000D02*X365500Y234500D01*
X381000Y230000D02*X375500Y235500D01*
G54D13*X418500Y182000D02*X335500D01*
X336000D02*X287500D01*
G54D11*X314000Y264000D02*Y241500D01*
G54D13*X235000Y289000D02*X247500Y301500D01*
G54D11*X296000Y239500D02*Y264500D01*
X323500Y273500D02*X314000Y264000D01*
X296000Y264500D02*X305000Y273500D01*
X298000Y225500D02*X286500D01*
X375500Y235500D02*Y306000D01*
X365500D02*Y234500D01*
G54D12*X189000Y61000D02*X213500D01*
X217000Y57500D01*
G54D11*X204000Y38500D02*X209000Y43500D01*
G54D13*X217000Y57500D02*Y75500D01*
G54D12*Y57500D02*Y13000D01*
G54D11*X169000Y43500D02*Y61000D01*
X146500D01*
G54D12*X156500Y81000D02*X146500Y71000D01*
G54D11*X159000Y39000D02*X164000Y34000D01*
X159000Y46000D02*Y39000D01*
X154000Y51000D02*X159000Y46000D01*
X164000Y34000D02*X204000D01*
Y30000D02*X199000Y25000D01*
X204000Y38500D02*Y30000D01*
X139000Y51000D02*X154000D01*
X139000D02*X129000Y61000D01*
X116500D02*X129000D01*
G54D12*X169000Y81000D02*X156500D01*
X189000Y61000D02*X169000Y81000D01*
G54D11*X396000Y108000D02*Y140500D01*
Y93000D02*X411000Y108000D01*
X396000Y140500D02*X411000Y155500D01*
X366000Y173000D02*X361000Y168000D01*
X366000Y173000D02*X381000D01*
X388500Y105500D02*X361000Y133000D01*
Y168000D02*Y133000D01*
X421000Y103000D02*X411000Y93000D01*
X423500D02*X421000Y90500D01*
Y70500D02*X412000Y61500D01*
X421000Y90500D02*Y70500D01*
X395000Y61500D02*X412000D01*
X395000D02*X388500Y68000D01*
X395000Y53000D02*X381000Y67000D01*
X395000Y53000D02*X411000D01*
X423500Y93000D02*X431000D01*
X447000Y118500D02*Y49000D01*
X456500Y39500D01*
X452000Y179500D02*X445500Y173000D01*
X388500Y105500D02*Y68000D01*
X381000Y93000D02*Y67000D01*
X396000Y93000D02*Y68000D01*
G54D13*X217000Y75500D02*X273500Y132000D01*
Y179000D01*
G54D11*X241000Y156500D02*X246000D01*
X255000Y136000D02*X262000Y143000D01*
X246000Y156500D02*X252000Y162500D01*
X262000Y143000D02*Y194500D01*
G54D13*X287000Y172500D02*Y116527D01*
X256973Y86500D01*
X316028D02*Y181972D01*
G54D11*X126000Y136000D02*X255000D01*
G54D13*X111500Y151000D02*X124000Y163500D01*
X219000D01*
G54D11*X112500Y166000D02*X120000Y173500D01*
X125000Y156500D02*X240500D01*
X151000Y228500D02*X126500Y253000D01*
Y263209D01*
X118500Y92000D02*Y150000D01*
X125000Y156500D01*
X120000Y173500D02*Y181000D01*
X126500Y263209D02*X126587Y263296D01*
X143000Y264500D02*X137000Y270500D01*
X108500Y212000D02*X148500Y172000D01*
G54D12*X11000Y90000D02*X21000Y99500D01*
X11000Y21000D02*Y90000D01*
X17000Y119000D02*X11000Y113000D01*
G54D11*X13000Y136000D02*Y154500D01*
X16000Y157500D01*
G54D12*X29500Y82000D02*X11000D01*
X19000Y13000D02*X11000Y21000D01*
G54D11*X120000Y25000D02*X130500D01*
X146500Y41000D01*
X116500D02*X101500D01*
X98500Y72000D02*X118500Y92000D01*
X101500Y41000D02*X98500Y44000D01*
Y72000D01*
D03*
G54D13*X97000Y151000D02*X111500D01*
G54D11*X97000Y166000D02*X112500D01*
X57000D02*Y146500D01*
X53000Y142500D01*
Y136000D01*
G54D12*X67000Y181000D02*X83000Y165000D01*
Y119000D01*
X99000Y109500D02*Y115500D01*
X95000Y119500D01*
X83506D01*
X83000Y119000D02*X64000Y99500D01*
X83506Y119500D02*X82753Y118747D01*
X80020Y82480D02*Y100520D01*
X825500Y103500D02*X880500D01*
X885500Y108500D02*X880500Y103500D01*
X825500Y83500D02*X870500D01*
Y93500D02*X825500D01*
G54D13*X809000Y26000D02*X816500Y33500D01*
G54D12*X843000Y26000D02*X830000Y13000D01*
G54D13*X816500Y33500D02*Y56000D01*
G54D12*X788000Y19500D02*Y13000D01*
X870500Y33500D02*X825500D01*
Y43500D02*X870500D01*
Y53500D02*X825500D01*
Y63500D02*X870500D01*
G54D13*X816500Y56000D02*X808000Y64500D01*
Y73500D01*
G54D11*X788000Y81500D02*Y73500D01*
G54D12*X870500D02*X825500D01*
G54D11*X686000Y136500D02*X708000Y114500D01*
X688500Y106000D02*X699000D01*
X688500Y106500D02*X689000Y106000D01*
X678500Y125500D02*X688500Y115500D01*
Y106000D01*
X699000D02*X707500Y97500D01*
X714500D01*
G54D12*X710500Y76000D02*X688500D01*
Y66000D02*X717000D01*
X688500Y76000D02*Y86000D01*
G54D11*X730500Y56000D02*X688500D01*
X730500D02*X750500Y36000D01*
Y56000D02*X745500D01*
X730500Y71000D01*
X760500Y53500D02*X768000Y46000D01*
X730500Y71000D02*Y81500D01*
G54D12*X710500Y133500D02*X721000Y123000D01*
X767000D01*
G54D11*X708000Y114500D02*X724000D01*
X722000Y106000D02*X710500D01*
X740500Y78500D02*Y87500D01*
X760500Y89000D02*X756000Y93500D01*
X745000D01*
X760500Y89000D02*Y53500D01*
X740500Y87500D02*X722000Y106000D01*
X724000Y114500D02*X745000Y93500D01*
X730500Y81500D02*X714500Y97500D01*
G54D12*X717000Y66000D02*X720500Y69500D01*
Y76000D01*
G54D11*X763500Y106000D02*X750500D01*
G54D12*X767000Y123000D02*X788000Y102000D01*
Y91500D01*
G54D11*X763500Y106000D02*X788000Y81500D01*
G54D12*Y91500D02*X793500Y86000D01*
X803500D01*
X808000Y81500D01*
Y73500D02*Y81500D01*
X788000Y73500D02*Y34000D01*
G54D13*X522500Y180500D02*X553500Y149500D01*
G54D11*X545500Y193000D02*X556500Y182000D01*
X553000Y176000D02*X538500Y190500D01*
X590500Y196000D02*X575500Y211000D01*
X628500Y196000D02*X590500D01*
X583500Y188000D02*X575500Y196000D01*
X625500Y188000D02*X583500D01*
G54D12*X576000Y233000D02*Y223000D01*
G54D11*X545500Y231000D02*Y193000D01*
G54D13*X554000Y167500D02*X501000Y220500D01*
G54D11*X538500Y190500D02*Y226000D01*
X556500Y182000D02*X606000D01*
X601000Y176000D02*X553000D01*
G54D13*X501000Y220500D02*X511000Y210500D01*
G54D11*X501000Y180500D02*Y153500D01*
X522500Y220500D02*X516500D01*
X507000Y230000D01*
X606000Y182000D02*X618500Y169500D01*
Y155500D01*
X609000Y168000D02*X601000Y176000D01*
X406500Y243500D02*X533000D01*
X481000Y200500D02*X501000Y180500D01*
X461000Y200500D02*X481000D01*
X460500Y190000D02*X461000Y190500D01*
Y180500D02*X483500D01*
G54D13*X461000Y210500D02*X473500D01*
X483500Y220500D01*
G54D11*X461000Y190500D02*X455500D01*
X438500D02*X431000D01*
G54D13*X427000D01*
X418500Y182000D01*
G54D11*X455500Y190500D02*X452000Y187000D01*
X507000Y230000D02*X381000D01*
X538500Y226000D02*X528000Y236500D01*
X395500D01*
X533000Y243500D02*X545500Y231000D01*
X435000Y225000D02*X442500Y217500D01*
Y194500D01*
X438500Y190500D01*
X403000Y218500D02*X411000Y210500D01*
G54D13*X461000Y123000D02*X491000D01*
G54D11*X483500Y95000D02*X475500Y103000D01*
X461000Y113000D02*X483500D01*
X461000Y103000D02*X475500D01*
G54D13*X491000Y123000D02*X497000Y117000D01*
G54D11*X483500Y180500D02*Y150500D01*
X487000Y138500D02*X463500D01*
G54D13*X511000Y142000D02*X491500Y122500D01*
X511000Y142000D02*Y210500D01*
G54D11*X411500Y155000D02*X411000Y155500D01*
Y210500D02*X431000D01*
X411000Y155500D02*X428500D01*
X411000Y123000D02*Y108000D01*
X421000Y103000D02*X431000D01*
X428500Y155500D02*X461000Y123000D01*
X431000Y113000D02*Y103000D01*
X411000Y123000D02*X442500D01*
X447000Y118500D01*
X452000Y187000D02*Y179500D01*
X445500Y173000D02*X411000D01*
X855500Y251000D02*X870500Y236000D01*
Y216000D02*X860500D01*
X855500Y211000D01*
Y196000D01*
G54D12*X858000Y226000D02*X850500Y218500D01*
Y201000D01*
G54D11*X805500Y166000D02*Y181000D01*
X840500Y216000D01*
X805500Y196000D02*Y211000D01*
X815500D01*
X830500Y226000D01*
X840500D01*
X855500Y196000D02*X840500Y181000D01*
X820500D01*
G54D12*X850500Y201000D02*X843000Y193500D01*
G54D11*X865500Y173500D02*X845500D01*
G54D12*X870500Y226000D02*X858000D01*
X885500Y198500D02*Y108500D01*
G54D11*X835500Y151000D02*X800500D01*
X820500Y166000D02*Y181000D01*
X850500Y166000D02*X835500Y151000D01*
X860500Y166000D02*X850500D01*
X860500Y151000D02*Y153500D01*
X868000Y161000D01*
Y171000D01*
X865500Y173500D01*
G54D12*X870500Y206000D02*X878000D01*
X885500Y198500D01*
X825500Y133500D02*Y113500D01*
X870500D02*X825500D01*
G54D11*X790500Y211000D02*X805500Y226000D01*
X840500Y236000D02*X810500D01*
X805500Y241000D01*
X765500D02*X790500D01*
X800500Y251000D01*
X855500D01*
X720500Y253500D02*X715500Y258500D01*
X734500Y243500D02*X742000D01*
X746500Y248000D01*
G54D12*X756000Y256500D02*Y247500D01*
G54D11*X725500Y218000D02*X720500Y213000D01*
G54D12*X756000Y247500D02*X751000Y242500D01*
G54D11*X845500Y173500D02*X830500Y158500D01*
X763000D01*
G54D12*X710500Y151000D02*Y133500D01*
G54D11*X686000Y136500D02*Y160000D01*
G54D12*X710500Y151000D02*X735500D01*
X750500Y166000D01*
G54D11*X665500Y180500D02*X648000D01*
X686000Y160000D02*X665500Y180500D01*
Y174500D02*X673500Y166500D01*
X653000Y145000D02*Y169000D01*
X658500Y174500D01*
X665500D01*
G54D14*Y310500D02*X663500D01*
X664500Y308500D02*Y307500D01*
X663500Y301500D02*X667500Y305500D01*
X664500Y313500D02*X661500Y310500D01*
X663500D02*X664500Y311500D01*
X665500Y310500D01*
X661500D02*X660500D01*
G54D11*X740500Y229000D02*Y221500D01*
X750500Y211000D02*X790500D01*
X753500Y226000D02*X750500Y229000D01*
X775500Y226000D02*X753500D01*
X746500Y248000D02*Y273500D01*
X750500Y151000D02*X755500D01*
X763000Y158500D01*
X739000Y281000D02*X746500Y273500D01*
X765500Y181000D02*X750500D01*
Y196000D01*
X704500Y266000D02*X697000Y258500D01*
X734000Y273500D02*X733000D01*
X725500Y266000D01*
X715500Y273500D02*X723000Y281000D01*
X739000D01*
X725500Y266000D02*X704500D01*
X720500Y181000D02*Y253500D01*
X730500Y239500D02*X734500Y243500D01*
X737000Y218000D02*X725500D01*
X740500Y221500D02*X737000Y218000D01*
X730500Y229000D02*Y239500D01*
G54D12*X766020Y288480D02*Y266520D01*
X756000Y256500D01*
G54D14*X656500Y310500D02*X657500Y311500D01*
X653500Y315500D02*X636500Y298500D01*
G54D11*X628500Y196000D02*X643500Y211000D01*
G54D14*X657500Y313500D02*X654500Y310500D01*
Y305500D01*
G54D11*X633000Y167500D02*Y180500D01*
X625500Y188000D01*
X648000Y180500D02*X643000Y175500D01*
Y167500D01*
G54D14*X687500Y315500D02*X670500Y298500D01*
X653500Y315500D02*X687500D01*
X667500Y310500D02*X664500Y313500D01*
X667500Y305500D02*Y310500D01*
X654500Y305500D02*X658500Y301500D01*
X636500Y298500D02*X670500D01*
X661500Y305500D02*X660500D01*
X657500Y308500D02*Y307500D01*
X658500Y301500D02*X663500D01*
X658500Y310500D02*X656500D01*
X660500D02*X657500Y313500D01*
Y311500D02*X658500Y310500D01*
G54D13*X505000Y26000D02*X809000D01*
G54D12*X830000Y13000D02*X19500D01*
X475000Y22500D02*X472500D01*
G54D11*X615500Y86000D02*Y66000D01*
X575500Y106000D02*X597500D01*
X605500Y98000D01*
Y56000D01*
X615500Y46000D01*
G54D13*X535500Y167500D02*Y32500D01*
G54D11*X522500Y111500D02*X505500Y128500D01*
X522500Y111500D02*Y61000D01*
X483500Y95000D02*Y73000D01*
G54D13*X497000Y117000D02*Y34000D01*
G54D11*X596000Y136500D02*X595500Y137000D01*
G54D13*X575500Y167500D02*X554000D01*
X553500Y149500D02*Y137000D01*
G54D11*X618500Y155500D02*X629000Y145000D01*
X609000Y112500D02*Y168000D01*
X483500Y150500D02*X497000Y137000D01*
G54D13*Y34000D02*X505000Y26000D01*
G54D11*X456500Y39500D02*X488000D01*
G54D12*X472500Y22500D02*X461000Y34000D01*
G54D11*X575500Y86000D02*X572000D01*
X567000Y91000D01*
X562000Y51000D02*Y117500D01*
X567000Y122500D01*
Y91000D02*Y110500D01*
X572000Y115500D01*
X590500D01*
X596000Y121000D01*
Y136500D01*
G54D13*X535500Y13000D02*Y19000D01*
G54D11*X575500Y46000D02*X567000D01*
X562000Y51000D01*
X545000Y39500D02*X551500D01*
X638000Y86000D02*X615500D01*
X620000Y135500D02*X643500D01*
X653000Y145000D01*
X629000D02*X641000D01*
X615500Y106000D02*X609000Y112500D01*
X648000Y96000D02*X638000Y86000D01*
X551500Y39500D02*X557000Y45000D01*
Y129000D01*
X565000Y137000D01*
X575500D01*
X636000Y66000D02*X626500Y75500D01*
G54D12*X645000Y19000D02*Y13000D01*
G54D11*X615500Y46000D02*X658500D01*
X663000Y167500D02*Y155000D01*
X669500Y148500D01*
X658500Y149500D02*Y123500D01*
Y106000D02*X615500D01*
X658500Y66000D02*X636000D01*
X639500Y56000D02*X658500D01*
Y56500D01*
Y96000D02*X648000D01*
X669500Y148500D02*Y67500D01*
X658500Y123500D02*X664500Y117500D01*
Y82000D01*
X658500Y76000D01*
X673500Y166500D02*Y61000D01*
X658500Y56500D02*X669500Y67500D01*
X673500Y61000D02*X688500Y46000D01*
G54D15*X331050Y32900D02*Y28500D01*
X330500Y32900D02*X332700D01*
X333250Y32350D01*
Y31250D01*
X332700Y30700D02*X333250Y31250D01*
X331050Y30700D02*X332700D01*
X335120Y30150D02*Y28500D01*
Y30150D02*X335670Y30700D01*
X336770D01*
X334570D02*X335120Y30150D01*
X338090Y31800D02*Y31250D01*
Y30150D02*Y28500D01*
X339740Y30150D02*Y28500D01*
Y30150D02*X340290Y30700D01*
X340840D01*
X341390Y30150D01*
Y28500D01*
X339190Y30700D02*X339740Y30150D01*
X343260Y32900D02*Y29050D01*
X343810Y28500D01*
X342710Y31250D02*X343810D01*
X345460Y28500D02*X347110D01*
X344910Y29050D02*X345460Y28500D01*
X344910Y30150D02*Y29050D01*
Y30150D02*X345460Y30700D01*
X346560D01*
X347110Y30150D01*
X344910Y29600D02*X347110D01*
Y30150D02*Y29600D01*
X350630Y32900D02*Y28500D01*
X350080D02*X350630Y29050D01*
X348980Y28500D02*X350080D01*
X348430Y29050D02*X348980Y28500D01*
X348430Y30150D02*Y29050D01*
Y30150D02*X348980Y30700D01*
X350080D01*
X350630Y30150D01*
X354480Y28500D02*X356130D01*
X353930Y29050D02*X354480Y28500D01*
X353930Y32350D02*Y29050D01*
Y32350D02*X354480Y32900D01*
X356130D01*
X357450Y31800D02*Y31250D01*
Y30150D02*Y28500D01*
X359100Y30150D02*Y28500D01*
Y30150D02*X359650Y30700D01*
X360750D01*
X358550D02*X359100Y30150D01*
X362620Y30700D02*X364270D01*
X362070Y30150D02*X362620Y30700D01*
X362070Y30150D02*Y29050D01*
X362620Y28500D01*
X364270D01*
X365590Y30700D02*Y29050D01*
X366140Y28500D01*
X367240D01*
X367790Y29050D01*
Y30700D02*Y29050D01*
X369110Y31800D02*Y31250D01*
Y30150D02*Y28500D01*
X370760Y32900D02*Y29050D01*
X371310Y28500D01*
X370210Y31250D02*X371310D01*
X374390Y28500D02*X376590D01*
X377140Y29050D01*
Y30150D02*Y29050D01*
X376590Y30700D02*X377140Y30150D01*
X374940Y30700D02*X376590D01*
X374940Y32900D02*Y28500D01*
X374390Y32900D02*X376590D01*
X377140Y32350D01*
Y31250D01*
X376590Y30700D02*X377140Y31250D01*
X378460Y30150D02*Y29050D01*
Y30150D02*X379010Y30700D01*
X380110D01*
X380660Y30150D01*
Y29050D01*
X380110Y28500D02*X380660Y29050D01*
X379010Y28500D02*X380110D01*
X378460Y29050D02*X379010Y28500D01*
X383630Y30700D02*X384180Y30150D01*
X382530Y30700D02*X383630D01*
X381980Y30150D02*X382530Y30700D01*
X381980Y30150D02*Y29050D01*
X382530Y28500D01*
X384180Y30700D02*Y29050D01*
X384730Y28500D01*
X382530D02*X383630D01*
X384180Y29050D01*
X386600Y30150D02*Y28500D01*
Y30150D02*X387150Y30700D01*
X388250D01*
X386050D02*X386600Y30150D01*
X391770Y32900D02*Y28500D01*
X391220D02*X391770Y29050D01*
X390120Y28500D02*X391220D01*
X389570Y29050D02*X390120Y28500D01*
X389570Y30150D02*Y29050D01*
Y30150D02*X390120Y30700D01*
X391220D01*
X391770Y30150D01*
X395620Y32900D02*Y28500D01*
X397270Y32900D02*X397820Y32350D01*
Y29050D01*
X397270Y28500D02*X397820Y29050D01*
X395070Y28500D02*X397270D01*
X395070Y32900D02*X397270D01*
X399690Y28500D02*X401340D01*
X399140Y29050D02*X399690Y28500D01*
X399140Y30150D02*Y29050D01*
Y30150D02*X399690Y30700D01*
X400790D01*
X401340Y30150D01*
X399140Y29600D02*X401340D01*
Y30150D02*Y29600D01*
X403210Y28500D02*X404860D01*
X405410Y29050D01*
X404860Y29600D02*X405410Y29050D01*
X403210Y29600D02*X404860D01*
X402660Y30150D02*X403210Y29600D01*
X402660Y30150D02*X403210Y30700D01*
X404860D01*
X405410Y30150D01*
X402660Y29050D02*X403210Y28500D01*
X406730Y31800D02*Y31250D01*
Y30150D02*Y28500D01*
X409480Y30700D02*X410030Y30150D01*
X408380Y30700D02*X409480D01*
X407830Y30150D02*X408380Y30700D01*
X407830Y30150D02*Y29050D01*
X408380Y28500D01*
X409480D01*
X410030Y29050D01*
X407830Y27400D02*X408380Y26850D01*
X409480D01*
X410030Y27400D01*
Y30700D02*Y27400D01*
X411900Y30150D02*Y28500D01*
Y30150D02*X412450Y30700D01*
X413000D01*
X413550Y30150D01*
Y28500D01*
X411350Y30700D02*X411900Y30150D01*
X416850Y31250D02*X417400D01*
X416850Y30150D02*X417400D01*
X420700Y30700D02*X422350D01*
X420700Y28500D02*X422900D01*
X420700Y32900D02*Y28500D01*
Y32900D02*X422900D01*
X424220Y30700D02*X425870D01*
X424220Y28500D02*X426420D01*
X424220Y32900D02*Y28500D01*
Y32900D02*X426420D01*
X427740D02*Y28500D01*
Y32900D02*X429940D01*
X427740Y30700D02*X429390D01*
X330500Y37700D02*X332150D01*
X330500Y35500D02*X332700D01*
X330500Y39900D02*Y35500D01*
Y39900D02*X332700D01*
X334020D02*Y36050D01*
X334570Y35500D01*
X336220D02*X337870D01*
X335670Y36050D02*X336220Y35500D01*
X335670Y37150D02*Y36050D01*
Y37150D02*X336220Y37700D01*
X337320D01*
X337870Y37150D01*
X335670Y36600D02*X337870D01*
Y37150D02*Y36600D01*
X339740Y37700D02*X341390D01*
X339190Y37150D02*X339740Y37700D01*
X339190Y37150D02*Y36050D01*
X339740Y35500D01*
X341390D01*
X343260Y39900D02*Y36050D01*
X343810Y35500D01*
X342710Y38250D02*X343810D01*
X345460Y37150D02*Y35500D01*
Y37150D02*X346010Y37700D01*
X347110D01*
X344910D02*X345460Y37150D01*
X348430D02*Y36050D01*
Y37150D02*X348980Y37700D01*
X350080D01*
X350630Y37150D01*
Y36050D01*
X350080Y35500D02*X350630Y36050D01*
X348980Y35500D02*X350080D01*
X348430Y36050D02*X348980Y35500D01*
X352500Y37150D02*Y35500D01*
Y37150D02*X353050Y37700D01*
X353600D01*
X354150Y37150D01*
Y35500D01*
X351950Y37700D02*X352500Y37150D01*
X355470Y38800D02*Y38250D01*
Y37150D02*Y35500D01*
X357120Y37700D02*X358770D01*
X356570Y37150D02*X357120Y37700D01*
X356570Y37150D02*Y36050D01*
X357120Y35500D01*
X358770D01*
X360640D02*X362290D01*
X362840Y36050D01*
X362290Y36600D02*X362840Y36050D01*
X360640Y36600D02*X362290D01*
X360090Y37150D02*X360640Y36600D01*
X360090Y37150D02*X360640Y37700D01*
X362290D01*
X362840Y37150D01*
X360090Y36050D02*X360640Y35500D01*
X366690Y39900D02*Y35500D01*
X368340Y39900D02*X368890Y39350D01*
Y36050D01*
X368340Y35500D02*X368890Y36050D01*
X366140Y35500D02*X368340D01*
X366140Y39900D02*X368340D01*
X370760Y35500D02*X372410D01*
X370210Y36050D02*X370760Y35500D01*
X370210Y37150D02*Y36050D01*
Y37150D02*X370760Y37700D01*
X371860D01*
X372410Y37150D01*
X370210Y36600D02*X372410D01*
Y37150D02*Y36600D01*
X374280Y35500D02*X375930D01*
X376480Y36050D01*
X375930Y36600D02*X376480Y36050D01*
X374280Y36600D02*X375930D01*
X373730Y37150D02*X374280Y36600D01*
X373730Y37150D02*X374280Y37700D01*
X375930D01*
X376480Y37150D01*
X373730Y36050D02*X374280Y35500D01*
X377800Y38800D02*Y38250D01*
Y37150D02*Y35500D01*
X380550Y37700D02*X381100Y37150D01*
X379450Y37700D02*X380550D01*
X378900Y37150D02*X379450Y37700D01*
X378900Y37150D02*Y36050D01*
X379450Y35500D01*
X380550D01*
X381100Y36050D01*
X378900Y34400D02*X379450Y33850D01*
X380550D01*
X381100Y34400D01*
Y37700D02*Y34400D01*
X382970Y37150D02*Y35500D01*
Y37150D02*X383520Y37700D01*
X384070D01*
X384620Y37150D01*
Y35500D01*
X382420Y37700D02*X382970Y37150D01*
X387920Y39900D02*X389020D01*
X388470D02*Y35500D01*
X387920D02*X389020D01*
X390340Y39900D02*X391990D01*
Y36050D01*
X391440Y35500D02*X391990Y36050D01*
X390890Y35500D02*X391440D01*
X390340Y36050D02*X390890Y35500D01*
X395510Y39900D02*X396060Y39350D01*
X393860Y39900D02*X395510D01*
X393310Y39350D02*X393860Y39900D01*
X393310Y39350D02*Y38250D01*
X393860Y37700D01*
X395510D01*
X396060Y37150D01*
Y36050D01*
X395510Y35500D02*X396060Y36050D01*
X393860Y35500D02*X395510D01*
X393310Y36050D02*X393860Y35500D01*
X399360Y36050D02*X399910Y35500D01*
X399360Y39350D02*Y38250D01*
Y39350D02*X399910Y39900D01*
X399360Y37150D02*X401010Y38800D01*
X399910Y35500D02*X400460D01*
X401560Y36600D01*
X399360Y38250D02*X402110Y35500D01*
X399910Y39900D02*X400460D01*
X401010Y39350D01*
Y38800D01*
X399360Y37150D02*Y36050D01*
X405960Y35500D02*X407610D01*
X405410Y36050D02*X405960Y35500D01*
X405410Y39350D02*Y36050D01*
Y39350D02*X405960Y39900D01*
X407610D01*
X408930D02*Y35500D01*
Y39900D02*X411130D01*
X408930Y37700D02*X410580D01*
X414650Y39900D02*X415200Y39350D01*
X413000Y39900D02*X414650D01*
X412450Y39350D02*X413000Y39900D01*
X412450Y39350D02*Y36050D01*
X413000Y35500D01*
X414650D01*
X415200Y36050D01*
Y37150D02*Y36050D01*
X414650Y37700D02*X415200Y37150D01*
X413550Y37700D02*X414650D01*
X331050Y49500D02*X332700D01*
X330500Y50050D02*X331050Y49500D01*
X330500Y53350D02*Y50050D01*
Y53350D02*X331050Y53900D01*
X332700D01*
X335670Y51700D02*X336220Y51150D01*
X334570Y51700D02*X335670D01*
X334020Y51150D02*X334570Y51700D01*
X334020Y51150D02*Y50050D01*
X334570Y49500D01*
X336220Y51700D02*Y50050D01*
X336770Y49500D01*
X334570D02*X335670D01*
X336220Y50050D01*
X338640Y51150D02*Y49500D01*
Y51150D02*X339190Y51700D01*
X340290D01*
X338090D02*X338640Y51150D01*
X343810Y53900D02*Y49500D01*
X343260D02*X343810Y50050D01*
X342160Y49500D02*X343260D01*
X341610Y50050D02*X342160Y49500D01*
X341610Y51150D02*Y50050D01*
Y51150D02*X342160Y51700D01*
X343260D01*
X343810Y51150D01*
X345130Y52800D02*Y52250D01*
Y51150D02*Y49500D01*
X346230Y51150D02*Y50050D01*
Y51150D02*X346780Y51700D01*
X347880D01*
X348430Y51150D01*
Y50050D01*
X347880Y49500D02*X348430Y50050D01*
X346780Y49500D02*X347880D01*
X346230Y50050D02*X346780Y49500D01*
X350300Y53900D02*Y50050D01*
X350850Y49500D01*
X349750Y52250D02*X350850D01*
X353600Y51700D02*X354150Y51150D01*
X352500Y51700D02*X353600D01*
X351950Y51150D02*X352500Y51700D01*
X351950Y51150D02*Y50050D01*
X352500Y49500D01*
X354150Y51700D02*Y50050D01*
X354700Y49500D01*
X352500D02*X353600D01*
X354150Y50050D01*
X356570Y51700D02*X358220D01*
X356020Y51150D02*X356570Y51700D01*
X356020Y51150D02*Y50050D01*
X356570Y49500D01*
X358220D01*
X359540Y53900D02*Y49500D01*
Y51150D02*X360090Y51700D01*
X361190D01*
X361740Y51150D01*
Y49500D01*
X363060Y51150D02*Y50050D01*
Y51150D02*X363610Y51700D01*
X364710D01*
X365260Y51150D01*
Y50050D01*
X364710Y49500D02*X365260Y50050D01*
X363610Y49500D02*X364710D01*
X363060Y50050D02*X363610Y49500D01*
X367130Y51150D02*Y49500D01*
Y51150D02*X367680Y51700D01*
X368230D01*
X368780Y51150D01*
Y49500D01*
Y51150D02*X369330Y51700D01*
X369880D01*
X370430Y51150D01*
Y49500D01*
X366580Y51700D02*X367130Y51150D01*
X372300Y49500D02*X373950D01*
X371750Y50050D02*X372300Y49500D01*
X371750Y51150D02*Y50050D01*
Y51150D02*X372300Y51700D01*
X373400D01*
X373950Y51150D01*
X371750Y50600D02*X373950D01*
Y51150D02*Y50600D01*
X375820Y53900D02*Y50050D01*
X376370Y49500D01*
X375270Y52250D02*X376370D01*
X378020Y49500D02*X379670D01*
X377470Y50050D02*X378020Y49500D01*
X377470Y51150D02*Y50050D01*
Y51150D02*X378020Y51700D01*
X379120D01*
X379670Y51150D01*
X377470Y50600D02*X379670D01*
Y51150D02*Y50600D01*
X381540Y51150D02*Y49500D01*
Y51150D02*X382090Y51700D01*
X383190D01*
X380990D02*X381540Y51150D01*
X637500Y286510D02*Y282550D01*
Y283045D02*X637995Y282550D01*
X638985D01*
X639480Y283045D01*
Y284035D02*Y283045D01*
X638985Y284530D02*X639480Y284035D01*
X637995Y284530D02*X638985D01*
X637500Y284035D02*X637995Y284530D01*
X640668D02*Y283045D01*
X641163Y282550D01*
X642648Y284530D02*Y281560D01*
X642153Y281065D02*X642648Y281560D01*
X641163Y281065D02*X642153D01*
X640668Y281560D02*X641163Y281065D01*
Y282550D02*X642153D01*
X642648Y283045D01*
X647103Y284530D02*X647598Y284035D01*
X646113Y284530D02*X647103D01*
X645618Y284035D02*X646113Y284530D01*
X645618Y284035D02*Y283045D01*
X646113Y282550D01*
X647598Y284530D02*Y283045D01*
X648093Y282550D01*
X646113D02*X647103D01*
X647598Y283045D01*
X651558Y284530D02*X653043D01*
X651063Y284035D02*X651558Y284530D01*
X651063Y284035D02*Y283045D01*
X651558Y282550D01*
X653043D01*
X654726D02*X656211D01*
X654231Y283045D02*X654726Y282550D01*
X654231Y284035D02*Y283045D01*
Y284035D02*X654726Y284530D01*
X655716D01*
X656211Y284035D01*
X654231Y283540D02*X656211D01*
Y284035D02*Y283540D01*
X657399Y285520D02*Y285025D01*
Y284035D02*Y282550D01*
X658389Y286510D02*Y283045D01*
X658884Y282550D01*
X659874Y285520D02*Y285025D01*
Y284035D02*Y282550D01*
X661359Y284035D02*Y282550D01*
Y284035D02*X661854Y284530D01*
X662349D01*
X662844Y284035D01*
Y282550D01*
X660864Y284530D02*X661359Y284035D01*
X665517Y284530D02*X666012Y284035D01*
X664527Y284530D02*X665517D01*
X664032Y284035D02*X664527Y284530D01*
X664032Y284035D02*Y283045D01*
X664527Y282550D01*
X665517D01*
X666012Y283045D01*
X664032Y281560D02*X664527Y281065D01*
X665517D01*
X666012Y281560D01*
Y284530D02*Y281560D01*
X669477Y284530D02*X670962D01*
X668982Y284035D02*X669477Y284530D01*
X668982Y284035D02*Y283045D01*
X669477Y282550D01*
X670962D01*
X673635Y284530D02*X674130Y284035D01*
X672645Y284530D02*X673635D01*
X672150Y284035D02*X672645Y284530D01*
X672150Y284035D02*Y283045D01*
X672645Y282550D01*
X674130Y284530D02*Y283045D01*
X674625Y282550D01*
X672645D02*X673635D01*
X674130Y283045D01*
X676308Y286510D02*Y283045D01*
X676803Y282550D01*
X675813Y285025D02*X676803D01*
X638985Y277030D02*X639480Y276535D01*
X637995Y277030D02*X638985D01*
X637500Y276535D02*X637995Y277030D01*
X637500Y276535D02*Y275545D01*
X637995Y275050D01*
X639480Y277030D02*Y275545D01*
X639975Y275050D01*
X637995D02*X638985D01*
X639480Y275545D01*
X641658Y276535D02*Y273565D01*
X641163Y277030D02*X641658Y276535D01*
X642153Y277030D01*
X643143D01*
X643638Y276535D01*
Y275545D01*
X643143Y275050D02*X643638Y275545D01*
X642153Y275050D02*X643143D01*
X641658Y275545D02*X642153Y275050D01*
X645321Y276535D02*Y273565D01*
X644826Y277030D02*X645321Y276535D01*
X645816Y277030D01*
X646806D01*
X647301Y276535D01*
Y275545D01*
X646806Y275050D02*X647301Y275545D01*
X645816Y275050D02*X646806D01*
X645321Y275545D02*X645816Y275050D01*
X648984Y276535D02*Y275050D01*
Y276535D02*X649479Y277030D01*
X650469D01*
X648489D02*X648984Y276535D01*
X651657D02*Y275545D01*
Y276535D02*X652152Y277030D01*
X653142D01*
X653637Y276535D01*
Y275545D01*
X653142Y275050D02*X653637Y275545D01*
X652152Y275050D02*X653142D01*
X651657Y275545D02*X652152Y275050D01*
X654825Y277030D02*Y276040D01*
X655815Y275050D01*
X656805Y276040D01*
Y277030D02*Y276040D01*
X658488Y275050D02*X659973D01*
X657993Y275545D02*X658488Y275050D01*
X657993Y276535D02*Y275545D01*
Y276535D02*X658488Y277030D01*
X659478D01*
X659973Y276535D01*
X657993Y276040D02*X659973D01*
Y276535D02*Y276040D01*
X663141Y279010D02*Y275050D01*
X662646D02*X663141Y275545D01*
X661656Y275050D02*X662646D01*
X661161Y275545D02*X661656Y275050D01*
X661161Y276535D02*Y275545D01*
Y276535D02*X661656Y277030D01*
X662646D01*
X663141Y276535D01*
X637500Y271510D02*Y267550D01*
Y268045D02*X637995Y267550D01*
X638985D01*
X639480Y268045D01*
Y269035D02*Y268045D01*
X638985Y269530D02*X639480Y269035D01*
X637995Y269530D02*X638985D01*
X637500Y269035D02*X637995Y269530D01*
X641163Y269035D02*Y267550D01*
Y269035D02*X641658Y269530D01*
X642648D01*
X640668D02*X641163Y269035D01*
X643836Y270520D02*Y270025D01*
Y269035D02*Y267550D01*
X645321Y269035D02*Y267550D01*
Y269035D02*X645816Y269530D01*
X646311D01*
X646806Y269035D01*
Y267550D01*
X644826Y269530D02*X645321Y269035D01*
X649479Y269530D02*X649974Y269035D01*
X648489Y269530D02*X649479D01*
X647994Y269035D02*X648489Y269530D01*
X647994Y269035D02*Y268045D01*
X648489Y267550D01*
X649479D01*
X649974Y268045D01*
X647994Y266560D02*X648489Y266065D01*
X649479D01*
X649974Y266560D01*
Y269530D02*Y266560D01*
X651657Y267550D02*X653142D01*
X651162Y268045D02*X651657Y267550D01*
X651162Y269035D02*Y268045D01*
Y269035D02*X651657Y269530D01*
X652647D01*
X653142Y269035D01*
X651162Y268540D02*X653142D01*
Y269035D02*Y268540D01*
X654825Y269035D02*Y267550D01*
Y269035D02*X655320Y269530D01*
X656310D01*
X654330D02*X654825Y269035D01*
X659280D02*Y268045D01*
Y269035D02*X659775Y269530D01*
X660765D01*
X661260Y269035D01*
Y268045D01*
X660765Y267550D02*X661260Y268045D01*
X659775Y267550D02*X660765D01*
X659280Y268045D02*X659775Y267550D01*
X662943Y271015D02*Y267550D01*
Y271015D02*X663438Y271510D01*
X663933D01*
X662448Y269530D02*X663438D01*
X667200Y271015D02*Y267550D01*
Y271015D02*X667695Y271510D01*
X668190D01*
X666705Y269530D02*X667695D01*
X669180Y269035D02*Y268045D01*
Y269035D02*X669675Y269530D01*
X670665D01*
X671160Y269035D01*
Y268045D01*
X670665Y267550D02*X671160Y268045D01*
X669675Y267550D02*X670665D01*
X669180Y268045D02*X669675Y267550D01*
X672348Y269035D02*Y268045D01*
Y269035D02*X672843Y269530D01*
X673833D01*
X674328Y269035D01*
Y268045D01*
X673833Y267550D02*X674328Y268045D01*
X672843Y267550D02*X673833D01*
X672348Y268045D02*X672843Y267550D01*
X677496Y271510D02*Y267550D01*
X677001D02*X677496Y268045D01*
X676011Y267550D02*X677001D01*
X675516Y268045D02*X676011Y267550D01*
X675516Y269035D02*Y268045D01*
Y269035D02*X676011Y269530D01*
X677001D01*
X677496Y269035D01*
X678684Y267550D02*X679179D01*
X637500Y294010D02*Y290050D01*
Y294010D02*X639480D01*
X637500Y292030D02*X638985D01*
X640668Y291535D02*Y290545D01*
Y291535D02*X641163Y292030D01*
X642153D01*
X642648Y291535D01*
Y290545D01*
X642153Y290050D02*X642648Y290545D01*
X641163Y290050D02*X642153D01*
X640668Y290545D02*X641163Y290050D01*
X644331Y291535D02*Y290050D01*
Y291535D02*X644826Y292030D01*
X645816D01*
X643836D02*X644331Y291535D01*
X649281D02*Y290050D01*
Y291535D02*X649776Y292030D01*
X650766D01*
X648786D02*X649281Y291535D01*
X652449Y290050D02*X653934D01*
X651954Y290545D02*X652449Y290050D01*
X651954Y291535D02*Y290545D01*
Y291535D02*X652449Y292030D01*
X653439D01*
X653934Y291535D01*
X651954Y291040D02*X653934D01*
Y291535D02*Y291040D01*
X655617Y291535D02*Y288565D01*
X655122Y292030D02*X655617Y291535D01*
X656112Y292030D01*
X657102D01*
X657597Y291535D01*
Y290545D01*
X657102Y290050D02*X657597Y290545D01*
X656112Y290050D02*X657102D01*
X655617Y290545D02*X656112Y290050D01*
X660270Y292030D02*X660765Y291535D01*
X659280Y292030D02*X660270D01*
X658785Y291535D02*X659280Y292030D01*
X658785Y291535D02*Y290545D01*
X659280Y290050D01*
X660765Y292030D02*Y290545D01*
X661260Y290050D01*
X659280D02*X660270D01*
X660765Y290545D01*
X662448Y293020D02*Y292525D01*
Y291535D02*Y290050D01*
X663933Y291535D02*Y290050D01*
Y291535D02*X664428Y292030D01*
X665418D01*
X663438D02*X663933Y291535D01*
X668388D02*Y290545D01*
Y291535D02*X668883Y292030D01*
X669873D01*
X670368Y291535D01*
Y290545D01*
X669873Y290050D02*X670368Y290545D01*
X668883Y290050D02*X669873D01*
X668388Y290545D02*X668883Y290050D01*
X672051Y291535D02*Y290050D01*
Y291535D02*X672546Y292030D01*
X673041D01*
X673536Y291535D01*
Y290050D01*
X671556Y292030D02*X672051Y291535D01*
X674724Y294010D02*Y290545D01*
X675219Y290050D01*
X676209Y292030D02*Y290545D01*
X676704Y290050D01*
X678189Y292030D02*Y289060D01*
X677694Y288565D02*X678189Y289060D01*
X676704Y288565D02*X677694D01*
X676209Y289060D02*X676704Y288565D01*
Y290050D02*X677694D01*
X678189Y290545D01*
X331000Y46500D02*Y42500D01*
X332500Y46500D02*X333000Y46000D01*
Y43000D01*
X332500Y42500D02*X333000Y43000D01*
X330500Y42500D02*X332500D01*
X330500Y46500D02*X332500D01*
X335700Y44500D02*X336200Y44000D01*
X334700Y44500D02*X335700D01*
X334200Y44000D02*X334700Y44500D01*
X334200Y44000D02*Y43000D01*
X334700Y42500D01*
X336200Y44500D02*Y43000D01*
X336700Y42500D01*
X334700D02*X335700D01*
X336200Y43000D01*
X338400Y46500D02*Y43000D01*
X338900Y42500D01*
X337900Y45000D02*X338900D01*
X340400Y42500D02*X341900D01*
X339900Y43000D02*X340400Y42500D01*
X339900Y44000D02*Y43000D01*
Y44000D02*X340400Y44500D01*
X341400D01*
X341900Y44000D01*
X339900Y43500D02*X341900D01*
Y44000D02*Y43500D01*
X343100Y45000D02*X343600D01*
X343100Y44000D02*X343600D01*
X346600Y46000D02*X347100Y46500D01*
X348600D01*
X349100Y46000D01*
Y45000D01*
X346600Y42500D02*X349100Y45000D01*
X346600Y42500D02*X349100D01*
X350300Y43000D02*X350800Y42500D01*
X350300Y46000D02*Y43000D01*
Y46000D02*X350800Y46500D01*
X351800D01*
X352300Y46000D01*
Y43000D01*
X351800Y42500D02*X352300Y43000D01*
X350800Y42500D02*X351800D01*
X350300Y43500D02*X352300Y45500D01*
X354000Y42500D02*X355000D01*
X354500Y46500D02*Y42500D01*
X353500Y45500D02*X354500Y46500D01*
X356200Y46000D02*X356700Y46500D01*
X357700D01*
X358200Y46000D01*
Y43000D01*
X357700Y42500D02*X358200Y43000D01*
X356700Y42500D02*X357700D01*
X356200Y43000D02*X356700Y42500D01*
Y44500D02*X358200D01*
X359400Y42500D02*X361400D01*
X362600Y43000D02*X363100Y42500D01*
X362600Y46000D02*Y43000D01*
Y46000D02*X363100Y46500D01*
X364100D01*
X364600Y46000D01*
Y43000D01*
X364100Y42500D02*X364600Y43000D01*
X363100Y42500D02*X364100D01*
X362600Y43500D02*X364600Y45500D01*
X365800Y46000D02*X366300Y46500D01*
X367800D01*
X368300Y46000D01*
Y45000D01*
X365800Y42500D02*X368300Y45000D01*
X365800Y42500D02*X368300D01*
X369500D02*X371500D01*
X373200D02*X374200D01*
X373700Y46500D02*Y42500D01*
X372700Y45500D02*X373700Y46500D01*
X375400D02*X377400D01*
X375400D02*Y44500D01*
X375900Y45000D01*
X376900D01*
X377400Y44500D01*
Y43000D01*
X376900Y42500D02*X377400Y43000D01*
X375900Y42500D02*X376900D01*
X375400Y43000D02*X375900Y42500D01*
G54D16*G36*
X368250Y158250D02*Y152750D01*
X373750D01*
Y158250D01*
X368250D01*
G37*
G54D17*X411000Y155500D03*
Y190500D03*
Y173000D03*
Y210500D03*
G54D16*G36*
X378250Y135750D02*Y130250D01*
X383750D01*
Y135750D01*
X378250D01*
G37*
G36*
Y175750D02*Y170250D01*
X383750D01*
Y175750D01*
X378250D01*
G37*
G36*
X428000Y213500D02*Y207500D01*
X434000D01*
Y213500D01*
X428000D01*
G37*
G54D18*X431000Y200500D03*
Y190500D03*
Y180500D03*
G54D16*G36*
X368250Y193250D02*Y187750D01*
X373750D01*
Y193250D01*
X368250D01*
G37*
G36*
Y213250D02*Y207750D01*
X373750D01*
Y213250D01*
X368250D01*
G37*
G36*
X372000Y309500D02*Y302500D01*
X379000D01*
Y309500D01*
X372000D01*
G37*
G54D19*X365500Y306000D03*
G54D20*X295000Y323000D03*
X315000D03*
G54D16*G36*
X300500Y277500D02*Y268500D01*
X309500D01*
Y277500D01*
X300500D01*
G37*
G54D20*X323500Y273000D03*
X286500D03*
Y258000D03*
X305000D03*
X323500D03*
G54D16*G36*
X393250Y110750D02*Y105250D01*
X398750D01*
Y110750D01*
X393250D01*
G37*
G36*
X408250Y95750D02*Y90250D01*
X413750D01*
Y95750D01*
X408250D01*
G37*
G54D17*X411000Y53000D03*
G54D21*X316028Y86500D03*
G54D17*X381000Y93000D03*
X396000Y68000D03*
G54D16*G36*
X428000Y126000D02*Y120000D01*
X434000D01*
Y126000D01*
X428000D01*
G37*
G54D18*X431000Y113000D03*
Y103000D03*
Y93000D03*
Y83000D03*
Y73000D03*
Y63000D03*
Y53000D03*
G54D16*G36*
X772750Y228750D02*Y223250D01*
X778250D01*
Y228750D01*
X772750D01*
G37*
G54D17*X805500Y226000D03*
G54D16*G36*
X762750Y213750D02*Y208250D01*
X768250D01*
Y213750D01*
X762750D01*
G37*
G54D17*X805500Y211000D03*
Y196000D03*
G54D16*G36*
X727500Y232000D02*Y226000D01*
X733500D01*
Y232000D01*
X727500D01*
G37*
G36*
X707750Y136250D02*Y130750D01*
X713250D01*
Y136250D01*
X707750D01*
G37*
G36*
Y168750D02*Y163250D01*
X713250D01*
Y168750D01*
X707750D01*
G37*
G36*
X717750Y183750D02*Y178250D01*
X723250D01*
Y183750D01*
X717750D01*
G37*
G54D18*X740500Y229000D03*
X750500D03*
G54D17*Y133500D03*
Y211000D03*
Y166000D03*
Y181000D03*
G54D16*G36*
X707750Y198750D02*Y193250D01*
X713250D01*
Y198750D01*
X707750D01*
G37*
G54D17*X750500Y196000D03*
G54D16*G36*
X707750Y213750D02*Y208250D01*
X713250D01*
Y213750D01*
X707750D01*
G37*
G36*
X762750Y183750D02*Y178250D01*
X768250D01*
Y183750D01*
X762750D01*
G37*
G36*
X772750Y198750D02*Y193250D01*
X778250D01*
Y198750D01*
X772750D01*
G37*
G54D22*X750500Y151000D03*
G54D16*G36*
X796500Y155000D02*Y147000D01*
X804500D01*
Y155000D01*
X796500D01*
G37*
G36*
X761500Y245000D02*Y237000D01*
X769500D01*
Y245000D01*
X761500D01*
G37*
G54D23*X805500Y241000D03*
G54D16*G36*
X837500Y239000D02*Y233000D01*
X843500D01*
Y239000D01*
X837500D01*
G37*
G54D18*X840500Y226000D03*
Y216000D03*
Y206000D03*
G54D20*X705500Y323500D03*
G54D16*G36*
X711000Y278000D02*Y269000D01*
X720000D01*
Y278000D01*
X711000D01*
G37*
G54D20*X697000Y273500D03*
Y258500D03*
X715500D03*
X725500Y323500D03*
X734000Y273500D03*
Y258500D03*
G54D16*G36*
X817750Y168750D02*Y163250D01*
X823250D01*
Y168750D01*
X817750D01*
G37*
G54D17*X860500Y166000D03*
G54D16*G36*
X772750Y168750D02*Y163250D01*
X778250D01*
Y168750D01*
X772750D01*
G37*
G54D17*X805500Y166000D03*
Y181000D03*
G54D23*X860500Y151000D03*
G54D18*X870500Y206000D03*
Y216000D03*
Y226000D03*
Y236000D03*
G54D24*X835500Y301000D03*
X875500D03*
G54D23*X845500Y281000D03*
X855500D03*
G54D16*G36*
X822500Y137000D02*Y131000D01*
X828500D01*
Y137000D01*
X822500D01*
G37*
G36*
Y116500D02*Y110500D01*
X828500D01*
Y116500D01*
X822500D01*
G37*
G36*
X867500D02*Y110500D01*
X873500D01*
Y116500D01*
X867500D01*
G37*
G54D18*X870500Y103500D03*
Y93500D03*
Y83500D03*
Y73500D03*
X760500Y78500D03*
X825500Y73500D03*
G54D16*G36*
X804400Y77100D02*Y69900D01*
X811600D01*
Y77100D01*
X804400D01*
G37*
G54D25*X798000Y73500D03*
X788000D03*
G54D18*X870500Y63500D03*
X825500D03*
Y53500D03*
Y43500D03*
Y33500D03*
X870500Y53500D03*
Y43500D03*
Y33500D03*
G54D16*G36*
X785000Y105000D02*Y99000D01*
X791000D01*
Y105000D01*
X785000D01*
G37*
G54D18*X798000Y102000D03*
X825500Y103500D03*
Y93500D03*
Y83500D03*
G54D16*G36*
X629750Y170750D02*Y164250D01*
X636250D01*
Y170750D01*
X629750D01*
G37*
G54D22*X643000Y167500D03*
X653000D03*
X663000D03*
G54D16*G36*
X630500Y214000D02*Y208000D01*
X636500D01*
Y214000D01*
X630500D01*
G37*
G54D18*X643500Y211000D03*
X653500D03*
X663500D03*
G54D16*G36*
X572750Y213750D02*Y208250D01*
X578250D01*
Y213750D01*
X572750D01*
G37*
G54D17*X615500Y211000D03*
G54D16*G36*
X572750Y198750D02*Y193250D01*
X578250D01*
Y198750D01*
X572750D01*
G37*
G54D17*X615500Y196000D03*
G54D16*G36*
X707750Y38750D02*Y33250D01*
X713250D01*
Y38750D01*
X707750D01*
G37*
G54D17*X750500Y36000D03*
G54D18*Y78500D03*
G54D17*Y56000D03*
G54D16*G36*
X707750Y108750D02*Y103250D01*
X713250D01*
Y108750D01*
X707750D01*
G37*
G54D17*X750500Y106000D03*
G54D16*G36*
X707250Y154250D02*Y147750D01*
X713750D01*
Y154250D01*
X707250D01*
G37*
G36*
X707500Y79000D02*Y73000D01*
X713500D01*
Y79000D01*
X707500D01*
G37*
G54D18*X720500Y76000D03*
G54D16*G36*
X737500Y81500D02*Y75500D01*
X743500D01*
Y81500D01*
X737500D01*
G37*
G36*
X707750Y58750D02*Y53250D01*
X713250D01*
Y58750D01*
X707750D01*
G37*
G36*
X572750Y108750D02*Y103250D01*
X578250D01*
Y108750D01*
X572750D01*
G37*
G54D17*X615500Y106000D03*
G54D16*G36*
X572750Y88750D02*Y83250D01*
X578250D01*
Y88750D01*
X572750D01*
G37*
G54D17*X615500Y86000D03*
G54D16*G36*
X620000Y124000D02*Y118000D01*
X626000D01*
Y124000D01*
X620000D01*
G37*
G54D18*X633000Y121000D03*
G54D16*G36*
X480750Y115750D02*Y110250D01*
X486250D01*
Y115750D01*
X480750D01*
G37*
G36*
X572250Y170750D02*Y164250D01*
X578750D01*
Y170750D01*
X572250D01*
G37*
G54D22*X585500Y167500D03*
X595500D03*
G54D16*G36*
X591900Y140600D02*Y133400D01*
X599100D01*
Y140600D01*
X591900D01*
G37*
G54D25*X585500Y137000D03*
G54D16*G36*
X518000Y165500D02*Y156500D01*
X527000D01*
Y165500D01*
X518000D01*
G37*
G36*
X519750Y223250D02*Y217750D01*
X525250D01*
Y223250D01*
X519750D01*
G37*
G36*
X498250D02*Y217750D01*
X503750D01*
Y223250D01*
X498250D01*
G37*
G36*
X480750D02*Y217750D01*
X486250D01*
Y223250D01*
X480750D01*
G37*
G54D17*X522500Y180500D03*
X501000D03*
X483500D03*
G54D18*X461000D03*
Y190500D03*
Y200500D03*
Y210500D03*
G54D25*X575500Y137000D03*
G54D16*G36*
X458250Y156250D02*Y150750D01*
X463750D01*
Y156250D01*
X458250D01*
G37*
G54D17*X501000Y153500D03*
G54D16*G36*
X540500Y140000D02*Y134000D01*
X546500D01*
Y140000D01*
X540500D01*
G37*
G54D18*X553500Y137000D03*
G54D20*X522500Y61000D03*
G54D17*X483500Y73000D03*
G54D18*X461000Y53000D03*
Y63000D03*
Y73000D03*
Y83000D03*
Y93000D03*
Y103000D03*
Y113000D03*
Y123000D03*
G54D16*G36*
X572750Y68750D02*Y63250D01*
X578250D01*
Y68750D01*
X572750D01*
G37*
G36*
Y48750D02*Y43250D01*
X578250D01*
Y48750D01*
X572750D01*
G37*
G54D17*X615500Y66000D03*
Y46000D03*
G54D16*G36*
X655500Y109000D02*Y103000D01*
X661500D01*
Y109000D01*
X655500D01*
G37*
G54D18*X658500Y96000D03*
Y86000D03*
Y76000D03*
Y66000D03*
Y56000D03*
Y46000D03*
X688500D03*
Y56000D03*
Y66000D03*
Y76000D03*
Y86000D03*
Y96000D03*
Y106000D03*
G54D16*G36*
X166250Y27750D02*Y22250D01*
X171750D01*
Y27750D01*
X166250D01*
G37*
G54D17*X199000Y25000D03*
X209000Y43500D03*
G54D16*G36*
X65750Y241250D02*Y235750D01*
X71250D01*
Y241250D01*
X65750D01*
G37*
G54D17*X108500Y238500D03*
G54D16*G36*
X13250Y256750D02*Y251250D01*
X18750D01*
Y256750D01*
X13250D01*
G37*
G54D17*X56000Y254000D03*
G54D16*G36*
X13250Y241250D02*Y235750D01*
X18750D01*
Y241250D01*
X13250D01*
G37*
G54D17*X56000Y238500D03*
G54D24*X31000Y301000D03*
X71000D03*
G54D23*X41000Y281000D03*
X51000D03*
G54D17*X209000Y61000D03*
G54D16*G36*
X253036Y90437D02*Y82563D01*
X260910D01*
Y90437D01*
X253036D01*
G37*
G36*
X207400Y194600D02*Y187400D01*
X214600D01*
Y194600D01*
X207400D01*
G37*
G54D25*X201000Y191000D03*
X191000D03*
G54D16*G36*
X284000Y195500D02*Y189500D01*
X290000D01*
Y195500D01*
X284000D01*
G37*
G54D18*X287000Y182500D03*
Y172500D03*
G54D16*G36*
X165250Y194250D02*Y187750D01*
X171750D01*
Y194250D01*
X165250D01*
G37*
G54D22*X168500Y231000D03*
G54D16*G36*
X165750Y288750D02*Y283250D01*
X171250D01*
Y288750D01*
X165750D01*
G37*
G54D17*X168500Y246000D03*
G54D16*G36*
X148250Y316250D02*Y310750D01*
X153750D01*
Y316250D01*
X148250D01*
G37*
G54D17*X151000Y273500D03*
G54D16*G36*
X148250Y261250D02*Y255750D01*
X153750D01*
Y261250D01*
X148250D01*
G37*
G36*
X183250D02*Y255750D01*
X188750D01*
Y261250D01*
X183250D01*
G37*
G54D17*X186000Y218500D03*
X151000D03*
G54D16*G36*
X62000Y140000D02*Y132000D01*
X70000D01*
Y140000D01*
X62000D01*
G37*
G36*
X54250Y153750D02*Y148250D01*
X59750D01*
Y153750D01*
X54250D01*
G37*
G54D17*X53000Y136000D03*
G54D16*G36*
X48000Y112500D02*Y106500D01*
X54000D01*
Y112500D01*
X48000D01*
G37*
G36*
X13250Y208750D02*Y203250D01*
X18750D01*
Y208750D01*
X13250D01*
G37*
G36*
X10250Y138750D02*Y133250D01*
X15750D01*
Y138750D01*
X10250D01*
G37*
G54D17*X16000Y166000D03*
G54D16*G36*
X54250Y168750D02*Y163250D01*
X59750D01*
Y168750D01*
X54250D01*
G37*
G36*
X166250Y63750D02*Y58250D01*
X171750D01*
Y63750D01*
X166250D01*
G37*
G36*
X166000Y84000D02*Y78000D01*
X172000D01*
Y84000D01*
X166000D01*
G37*
G54D18*X179000Y81000D03*
G54D16*G36*
X166250Y46250D02*Y40750D01*
X171750D01*
Y46250D01*
X166250D01*
G37*
G54D18*X116500Y41000D03*
X146500D03*
G54D16*G36*
X87250Y27750D02*Y22250D01*
X92750D01*
Y27750D01*
X87250D01*
G37*
G54D17*X120000Y25000D03*
G54D16*G36*
X113500Y74000D02*Y68000D01*
X119500D01*
Y74000D01*
X113500D01*
G37*
G54D18*X116500Y61000D03*
Y51000D03*
X146500D03*
Y61000D03*
Y71000D03*
G54D16*G36*
X48563Y43437D02*Y35563D01*
X56437D01*
Y43437D01*
X48563D01*
G37*
G54D21*X22578Y39107D03*
G54D23*X126000Y136000D03*
G54D16*G36*
X28250Y198750D02*Y193250D01*
X33750D01*
Y198750D01*
X28250D01*
G37*
G54D17*X31000Y156000D03*
G54D16*G36*
X43000Y219000D02*Y213000D01*
X49000D01*
Y219000D01*
X43000D01*
G37*
G54D18*X46000Y206000D03*
Y196000D03*
Y186000D03*
G54D17*X97000Y166000D03*
G54D18*X76000Y186000D03*
Y196000D03*
Y206000D03*
Y216000D03*
G54D17*X97000Y151000D03*
G54D18*X61000Y109500D03*
G54D16*G36*
X86000Y112500D02*Y106500D01*
X92000D01*
Y112500D01*
X86000D01*
G37*
G54D18*X99000Y109500D03*
G54D26*X342850Y139000D02*X349149D01*
X116850Y181000D02*X123149D01*
X105350Y210000D02*X111649D01*
X71870Y253980D02*X78169D01*
X572850Y223000D02*X579149D01*
X820850Y181000D02*X827149D01*
X634850Y86000D02*X641149D01*
X405350Y122000D02*X411649D01*
X764850Y46000D02*X771149D01*
X636350Y56000D02*X642649D01*
X512850Y26000D02*X519149D01*
X471850Y22500D02*X478149D01*
G54D27*X126587Y301387D02*Y300402D01*
Y324222D02*Y323237D01*
Y309458D02*Y308473D01*
Y286623D02*Y285638D01*
G54D26*X762870Y288480D02*X769169D01*
G54D27*X126587Y278553D02*Y277568D01*
Y263789D02*Y262804D01*
G54D26*X95350Y50500D02*X101649D01*
X76870Y82480D02*X83169D01*
X26350Y82000D02*X32649D01*
X30370Y117980D02*X36669D01*
G54D28*X157500Y305500D03*
X136000D03*
G54D18*X11000Y114000D03*
G54D28*X142500Y298500D03*
X211500Y225500D03*
X286500D03*
G54D18*X247500Y301500D03*
G54D28*X395500Y236500D03*
X406500Y243500D03*
X224000Y182500D03*
G54D18*X346000Y139000D03*
X843000Y73500D03*
Y193500D03*
Y26000D03*
X853000Y84000D03*
X836000Y103500D03*
G54D28*X487000Y138500D03*
X497000Y137000D03*
X505500Y128500D03*
X567000Y122500D03*
X463500Y138500D03*
X678500Y125500D03*
X641000Y145000D03*
X620000Y135500D03*
X626500Y75500D03*
X658500Y149500D03*
G54D18*X576000Y233000D03*
X645000Y19500D03*
X535500D03*
Y32500D03*
G54D28*X488000Y39500D03*
X545000D03*
G54D18*X461000Y34000D03*
X788000D03*
Y19500D03*
X768000Y46000D03*
X751000Y242500D03*
G54D11*G54D13*G54D11*G54D13*G54D11*G54D13*G54D11*G54D13*G54D11*G54D13*G54D29*G54D13*G54D29*G54D30*G54D13*G54D31*G54D13*G54D29*G54D13*G54D32*G54D13*G54D32*G54D13*G54D30*G54D13*G54D29*G54D30*G54D13*G54D30*G54D29*G54D33*G54D13*G54D32*G54D31*G54D32*G54D13*G54D32*G54D13*G54D32*G54D13*G54D32*G54D13*G54D32*G54D31*G54D30*G54D13*G54D29*G54D31*G54D13*G54D30*G54D13*G54D29*G54D13*G54D29*G54D13*G54D34*G54D33*G54D13*G54D31*G54D32*G54D13*G54D30*G54D13*G54D29*G54D13*G54D29*G54D13*G54D30*G54D13*G54D29*G54D13*G54D29*G54D13*M02*
